%
M48
M72
T01C0.02000
T02C0.03200
T03C0.03937
T04C0.04000
%
T01
X100000Y58124
X117500Y64374
X100000Y83124
X140000Y130624
X112500Y136874
X122500Y165624
X75000Y185624
X365000Y238124
X390000Y263124
T02
X105000Y198124
X95000Y198124
X80000Y198124
X70000Y198124
X74041Y118810
X93041Y118810
T03
X75000Y88794
X75000Y75014
X75000Y61235
X75000Y47455
X109331Y43124
X123110Y43124
X136890Y43124
X150669Y43124
X164331Y43124
X178110Y43124
X191890Y43124
X205669Y43124
X219331Y43124
X233110Y43124
X246890Y43124
X260669Y43124
X274331Y43124
X288110Y43124
X301890Y43124
X315669Y43124
X329331Y43124
X343110Y43124
X356890Y43124
X370669Y43124
X370669Y18124
X384331Y18124
X398110Y18124
X411890Y18124
X425669Y18124
X435000Y37455
X435000Y51235
X435000Y65014
X435000Y78794
X435000Y92455
X435000Y106235
X435000Y120014
X435000Y133794
X435000Y147455
X435000Y161235
X435000Y175014
X435000Y188794
X435000Y202455
X435000Y216235
X435000Y230014
X435000Y243794
X435000Y257455
X435000Y271235
X435000Y285014
X435000Y298794
X410000Y298794
X410000Y285014
X410000Y271235
X410000Y257455
X410000Y243794
X410000Y230014
X410000Y216235
X410000Y202455
X410000Y188794
X410000Y175014
X410000Y161235
X410000Y147455
X410000Y133794
X410000Y120014
X410000Y106235
X410000Y92455
X410000Y78794
X410000Y65014
X410000Y51235
X410000Y37455
X356890Y18124
X343110Y18124
X329331Y18124
X315669Y18124
X301890Y18124
X288110Y18124
X274331Y18124
X260669Y18124
X246890Y18124
X233110Y18124
X219331Y18124
X205669Y18124
X191890Y18124
X178110Y18124
X164331Y18124
X150669Y18124
X136890Y18124
X123110Y18124
X109331Y18124
X105669Y278124
X119331Y278124
X133110Y278124
X146890Y278124
X160669Y278124
X174331Y278124
X188110Y278124
X201890Y278124
X215669Y278124
X229331Y278124
X243110Y278124
X256890Y278124
X270669Y278124
X284331Y278124
X298110Y278124
X311890Y278124
X325669Y278124
X339331Y278124
X353110Y278124
X366890Y278124
X380669Y278124
X380669Y303124
X366890Y303124
X353110Y303124
X339331Y303124
X325669Y303124
X311890Y303124
X298110Y303124
X284331Y303124
X270669Y303124
X256890Y303124
X243110Y303124
X229331Y303124
X215669Y303124
X201890Y303124
X188110Y303124
X174331Y303124
X160669Y303124
X146890Y303124
X133110Y303124
X119331Y303124
X105669Y303124
X91890Y303124
X78110Y303124
X64331Y303124
X64331Y278124
X78110Y278124
X91890Y278124
T04
X67200Y14224
X67200Y32024
X92800Y32024
X92800Y14224
X135000Y63124
X145000Y63124
X155000Y63124
X165000Y63124
X175000Y63124
X185000Y63124
X205000Y63124
X215000Y63124
X225000Y63124
X235000Y63124
X245000Y63124
X255000Y63124
X265000Y63124
X275000Y63124
X295000Y63124
X305000Y63124
X315000Y63124
X325000Y63124
X335000Y63124
X345000Y63124
X355000Y63124
X365000Y63124
X375000Y83124
X385000Y83124
X385000Y93124
X375000Y93124
X375000Y103124
X385000Y103124
X385000Y113124
X375000Y113124
X375000Y123124
X385000Y123124
X385000Y133124
X375000Y133124
X375000Y143124
X385000Y143124
X385000Y153124
X375000Y153124
X375000Y163124
X385000Y163124
X385000Y173124
X375000Y173124
X375000Y183124
X385000Y183124
X385000Y193124
X375000Y193124
X375000Y203124
X385000Y203124
X385000Y213124
X375000Y213124
X375000Y223124
X385000Y223124
X385000Y233124
X375000Y233124
X375000Y243124
X385000Y243124
X385000Y253124
X375000Y253124
X345000Y253124
X335000Y253124
X325000Y253124
X315000Y253124
X305000Y253124
X295000Y253124
X285000Y253124
X275000Y253124
X255000Y253124
X245000Y253124
X235000Y253124
X225000Y253124
X215000Y253124
X205000Y253124
X195000Y253124
X185000Y253124
X169000Y253124
X159000Y253124
X149000Y253124
X139000Y253124
X129000Y253124
X119000Y253124
X109000Y253124
X99000Y253124
X87800Y257024
X87800Y239224
X62200Y239224
X62200Y257024
X125000Y228124
X135000Y228124
X145000Y228124
X155000Y228124
X165000Y228124
X175000Y228124
X185000Y228124
X195000Y228124
X205000Y228124
X215000Y228124
X225000Y228124
X235000Y228124
X245000Y228124
X255000Y228124
X265000Y228124
X275000Y228124
X285000Y228124
X295000Y228124
X305000Y228124
X315000Y228124
X325000Y228124
X335000Y228124
X345000Y228124
X355000Y228124
X355000Y218124
X345000Y218124
X345000Y208124
X355000Y208124
X355000Y198124
X345000Y198124
X345000Y188124
X355000Y188124
X335000Y188124
X325000Y188124
X315000Y188124
X305000Y188124
X295000Y188124
X285000Y188124
X275000Y188124
X265000Y188124
X255000Y188124
X245000Y188124
X235000Y188124
X225000Y188124
X215000Y188124
X205000Y188124
X195000Y188124
X185000Y188124
X175000Y188124
X165000Y188124
X165000Y198124
X155000Y198124
X145000Y198124
X135000Y198124
X125000Y198124
X125000Y208124
X135000Y208124
X145000Y208124
X155000Y208124
X165000Y208124
X175000Y208124
X185000Y208124
X195000Y208124
X195000Y198124
X185000Y198124
X175000Y198124
X175000Y218124
X165000Y218124
X155000Y218124
X145000Y218124
X135000Y218124
X125000Y218124
X185000Y218124
X195000Y218124
X205000Y218124
X215000Y218124
X225000Y218124
X235000Y218124
X235000Y208124
X225000Y208124
X215000Y208124
X205000Y208124
X205000Y198124
X215000Y198124
X225000Y198124
X235000Y198124
X245000Y198124
X255000Y198124
X265000Y198124
X275000Y198124
X285000Y198124
X295000Y198124
X305000Y198124
X315000Y198124
X325000Y198124
X335000Y198124
X335000Y208124
X325000Y208124
X315000Y208124
X305000Y208124
X295000Y208124
X285000Y208124
X275000Y208124
X265000Y208124
X255000Y208124
X245000Y208124
X245000Y218124
X255000Y218124
X265000Y218124
X275000Y218124
X285000Y218124
X295000Y218124
X305000Y218124
X315000Y218124
X325000Y218124
X335000Y218124
X335000Y163124
X325000Y163124
X315000Y163124
X305000Y163124
X295000Y163124
X285000Y163124
X275000Y163124
X265000Y163124
X255000Y163124
X245000Y163124
X235000Y163124
X225000Y163124
X215000Y163124
X205000Y163124
X195000Y163124
X185000Y163124
X175000Y163124
X165000Y163124
X155000Y163124
X145000Y163124
X145000Y148124
X155000Y148124
X165000Y148124
X175000Y148124
X185000Y148124
X195000Y148124
X205000Y148124
X215000Y148124
X225000Y148124
X235000Y148124
X245000Y148124
X255000Y148124
X265000Y148124
X275000Y148124
X285000Y148124
X295000Y148124
X305000Y148124
X315000Y148124
X325000Y148124
X335000Y148124
X335000Y124253
X325000Y124253
X315000Y124253
X305000Y124253
X295000Y124253
X295000Y114253
X305000Y114253
X315000Y114253
X325000Y114253
X335000Y114253
X335000Y104253
X325000Y104253
X315000Y104253
X305000Y104253
X295000Y104253
X295000Y94253
X305000Y94253
X315000Y94253
X325000Y94253
X335000Y94253
X335000Y84253
X325000Y84253
X315000Y84253
X305000Y84253
X295000Y84253
X285000Y84253
X275000Y84253
X265000Y84253
X255000Y84253
X245000Y84253
X235000Y84253
X225000Y84253
X215000Y84253
X205000Y84253
X195000Y84253
X185000Y84253
X175000Y84253
X165000Y84253
X155000Y84253
X145000Y84253
X135000Y84253
X125000Y84253
X125000Y94253
X135000Y94253
X145000Y94253
X155000Y94253
X165000Y94253
X175000Y94253
X185000Y94253
X195000Y94253
X205000Y94253
X215000Y94253
X225000Y94253
X235000Y94253
X245000Y94253
X255000Y94253
X265000Y94253
X275000Y94253
X285000Y94253
X285000Y104253
X275000Y104253
X265000Y104253
X255000Y104253
X245000Y104253
X235000Y104253
X225000Y104253
X215000Y104253
X205000Y104253
X195000Y104253
X185000Y104253
X175000Y104253
X165000Y104253
X155000Y104253
X145000Y104253
X135000Y104253
X125000Y104253
X125000Y114253
X135000Y114253
X145000Y114253
X155000Y114253
X165000Y114253
X175000Y114253
X185000Y114253
X195000Y114253
X205000Y114253
X215000Y114253
X225000Y114253
X235000Y114253
X245000Y114253
X255000Y114253
X265000Y114253
X275000Y114253
X285000Y114253
X285000Y124253
X275000Y124253
X265000Y124253
X255000Y124253
X245000Y124253
X235000Y124253
X225000Y124253
X215000Y124253
X205000Y124253
X195000Y124253
X185000Y124253
X175000Y124253
X165000Y124253
X345000Y124253
X355000Y124253
X355000Y114253
X345000Y114253
X345000Y104253
X355000Y104253
X355000Y94253
X345000Y94253
X345000Y84253
X355000Y84253
M30
