%
M48
M72
T01C0.02000
T02C0.02362
T03C0.03200
T04C0.03937
T05C0.04000
%
T01
X100000Y58017
X100000Y83017
X92500Y90517
X140000Y130517
X75000Y185517
X365000Y238017
X390000Y263017
T02
X115972Y177573
T03
X105000Y198017
X95000Y198017
X80000Y198017
X70000Y198017
X74041Y118703
X93041Y118703
T04
X75000Y88687
X75000Y74907
X75000Y61128
X75000Y47348
X109331Y43017
X123110Y43017
X136890Y43017
X150669Y43017
X164331Y43017
X178110Y43017
X191890Y43017
X205669Y43017
X219331Y43017
X233110Y43017
X246890Y43017
X260669Y43017
X274331Y43017
X288110Y43017
X301890Y43017
X315669Y43017
X329331Y43017
X343110Y43017
X356890Y43017
X370669Y43017
X370669Y18017
X384331Y18017
X398110Y18017
X411890Y18017
X425669Y18017
X435000Y37348
X435000Y51128
X435000Y64907
X435000Y78687
X435000Y92348
X435000Y106128
X435000Y119907
X435000Y133687
X435000Y147348
X435000Y161128
X435000Y174907
X435000Y188687
X435000Y202348
X435000Y216128
X435000Y229907
X435000Y243687
X435000Y257348
X435000Y271128
X435000Y284907
X435000Y298687
X410000Y298687
X410000Y284907
X410000Y271128
X410000Y257348
X410000Y243687
X410000Y229907
X410000Y216128
X410000Y202348
X410000Y188687
X410000Y174907
X410000Y161128
X410000Y147348
X410000Y133687
X410000Y119907
X410000Y106128
X410000Y92348
X410000Y78687
X410000Y64907
X410000Y51128
X410000Y37348
X356890Y18017
X343110Y18017
X329331Y18017
X315669Y18017
X301890Y18017
X288110Y18017
X274331Y18017
X260669Y18017
X246890Y18017
X233110Y18017
X219331Y18017
X205669Y18017
X191890Y18017
X178110Y18017
X164331Y18017
X150669Y18017
X136890Y18017
X123110Y18017
X109331Y18017
X105669Y278017
X119331Y278017
X133110Y278017
X146890Y278017
X160669Y278017
X174331Y278017
X188110Y278017
X201890Y278017
X215669Y278017
X229331Y278017
X243110Y278017
X256890Y278017
X270669Y278017
X284331Y278017
X298110Y278017
X311890Y278017
X325669Y278017
X339331Y278017
X353110Y278017
X366890Y278017
X380669Y278017
X380669Y303017
X366890Y303017
X353110Y303017
X339331Y303017
X325669Y303017
X311890Y303017
X298110Y303017
X284331Y303017
X270669Y303017
X256890Y303017
X243110Y303017
X229331Y303017
X215669Y303017
X201890Y303017
X188110Y303017
X174331Y303017
X160669Y303017
X146890Y303017
X133110Y303017
X119331Y303017
X105669Y303017
X91890Y303017
X78110Y303017
X64331Y303017
X64331Y278017
X78110Y278017
X91890Y278017
T05
X67200Y14117
X67200Y31917
X92800Y31917
X92800Y14117
X135000Y63017
X145000Y63017
X155000Y63017
X165000Y63017
X175000Y63017
X185000Y63017
X205000Y63017
X215000Y63017
X225000Y63017
X235000Y63017
X245000Y63017
X255000Y63017
X265000Y63017
X275000Y63017
X275000Y78017
X265000Y78017
X255000Y78017
X245000Y78017
X235000Y78017
X225000Y78017
X215000Y78017
X205000Y78017
X195000Y78017
X185000Y78017
X175000Y78017
X165000Y78017
X155000Y78017
X145000Y78017
X135000Y78017
X125000Y78017
X125000Y88017
X135000Y88017
X145000Y88017
X155000Y88017
X165000Y88017
X175000Y88017
X185000Y88017
X195000Y88017
X205000Y88017
X215000Y88017
X225000Y88017
X235000Y88017
X245000Y88017
X255000Y88017
X265000Y88017
X275000Y88017
X285000Y88017
X295000Y88017
X305000Y88017
X315000Y88017
X315000Y78017
X305000Y78017
X295000Y78017
X285000Y78017
X295000Y63017
X305000Y63017
X315000Y63017
X325000Y63017
X335000Y63017
X345000Y63017
X355000Y63017
X365000Y63017
X355000Y78017
X345000Y78017
X335000Y78017
X325000Y78017
X325000Y88017
X335000Y88017
X345000Y88017
X355000Y88017
X355000Y98017
X345000Y98017
X335000Y98017
X325000Y98017
X315000Y98017
X305000Y98017
X295000Y98017
X285000Y98017
X275000Y98017
X265000Y98017
X255000Y98017
X245000Y98017
X235000Y98017
X225000Y98017
X215000Y98017
X205000Y98017
X195000Y98017
X185000Y98017
X175000Y98017
X165000Y98017
X155000Y98017
X145000Y98017
X135000Y98017
X125000Y98017
X125000Y108017
X135000Y108017
X145000Y108017
X155000Y108017
X165000Y108017
X175000Y108017
X185000Y108017
X195000Y108017
X205000Y108017
X215000Y108017
X225000Y108017
X235000Y108017
X245000Y108017
X255000Y108017
X265000Y108017
X275000Y108017
X285000Y108017
X295000Y108017
X305000Y108017
X315000Y108017
X325000Y108017
X335000Y108017
X345000Y108017
X355000Y108017
X355000Y118017
X345000Y118017
X335000Y118017
X325000Y118017
X315000Y118017
X305000Y118017
X295000Y118017
X285000Y118017
X275000Y118017
X265000Y118017
X255000Y118017
X245000Y118017
X235000Y118017
X225000Y118017
X215000Y118017
X205000Y118017
X195000Y118017
X185000Y118017
X175000Y118017
X165000Y118017
X165000Y148017
X155000Y148017
X145000Y148017
X145000Y163017
X155000Y163017
X165000Y163017
X175000Y163017
X185000Y163017
X195000Y163017
X205000Y163017
X215000Y163017
X225000Y163017
X235000Y163017
X245000Y163017
X255000Y163017
X265000Y163017
X275000Y163017
X285000Y163017
X295000Y163017
X305000Y163017
X315000Y163017
X325000Y163017
X335000Y163017
X335000Y148017
X325000Y148017
X315000Y148017
X305000Y148017
X295000Y148017
X285000Y148017
X275000Y148017
X265000Y148017
X255000Y148017
X245000Y148017
X235000Y148017
X225000Y148017
X215000Y148017
X205000Y148017
X195000Y148017
X185000Y148017
X175000Y148017
X175000Y188017
X165000Y188017
X165000Y198017
X155000Y198017
X145000Y198017
X135000Y198017
X125000Y198017
X125000Y208017
X135000Y208017
X145000Y208017
X155000Y208017
X165000Y208017
X175000Y208017
X185000Y208017
X195000Y208017
X205000Y208017
X215000Y208017
X225000Y208017
X235000Y208017
X245000Y208017
X255000Y208017
X265000Y208017
X275000Y208017
X285000Y208017
X295000Y208017
X305000Y208017
X315000Y208017
X325000Y208017
X335000Y208017
X345000Y208017
X355000Y208017
X355000Y218017
X345000Y218017
X335000Y218017
X325000Y218017
X315000Y218017
X305000Y218017
X295000Y218017
X285000Y218017
X275000Y218017
X265000Y218017
X255000Y218017
X245000Y218017
X235000Y218017
X225000Y218017
X215000Y218017
X205000Y218017
X195000Y218017
X185000Y218017
X175000Y218017
X165000Y218017
X155000Y218017
X145000Y218017
X135000Y218017
X125000Y218017
X125000Y228017
X135000Y228017
X145000Y228017
X155000Y228017
X165000Y228017
X175000Y228017
X185000Y228017
X195000Y228017
X205000Y228017
X215000Y228017
X225000Y228017
X235000Y228017
X245000Y228017
X255000Y228017
X265000Y228017
X275000Y228017
X285000Y228017
X295000Y228017
X305000Y228017
X315000Y228017
X325000Y228017
X335000Y228017
X345000Y228017
X355000Y228017
X375000Y223017
X385000Y223017
X385000Y213017
X375000Y213017
X375000Y203017
X385000Y203017
X385000Y193017
X375000Y193017
X375000Y183017
X385000Y183017
X385000Y173017
X375000Y173017
X375000Y163017
X385000Y163017
X385000Y153017
X375000Y153017
X375000Y143017
X385000Y143017
X385000Y133017
X375000Y133017
X375000Y123017
X385000Y123017
X385000Y113017
X375000Y113017
X375000Y103017
X385000Y103017
X385000Y93017
X375000Y93017
X375000Y83017
X385000Y83017
X355000Y188017
X345000Y188017
X335000Y188017
X325000Y188017
X315000Y188017
X305000Y188017
X295000Y188017
X285000Y188017
X275000Y188017
X265000Y188017
X255000Y188017
X245000Y188017
X235000Y188017
X225000Y188017
X215000Y188017
X205000Y188017
X195000Y188017
X185000Y188017
X185000Y198017
X195000Y198017
X205000Y198017
X215000Y198017
X225000Y198017
X235000Y198017
X245000Y198017
X255000Y198017
X265000Y198017
X275000Y198017
X285000Y198017
X295000Y198017
X305000Y198017
X315000Y198017
X325000Y198017
X335000Y198017
X345000Y198017
X355000Y198017
X375000Y233017
X385000Y233017
X385000Y243017
X375000Y243017
X375000Y253017
X385000Y253017
X345000Y253017
X335000Y253017
X325000Y253017
X315000Y253017
X305000Y253017
X295000Y253017
X285000Y253017
X275000Y253017
X255000Y253017
X245000Y253017
X235000Y253017
X225000Y253017
X215000Y253017
X205000Y253017
X195000Y253017
X185000Y253017
X169000Y253017
X159000Y253017
X149000Y253017
X139000Y253017
X129000Y253017
X119000Y253017
X109000Y253017
X99000Y253017
X87800Y256917
X87800Y239117
X62200Y239117
X62200Y256917
X175000Y198017
M30
