G75*
%MOIN*%
%OFA0B0*%
%FSLAX25Y25*%
%IPPOS*%
%LPD*%
%AMOC8*
5,1,8,0,0,1.08239X$1,22.5*
%
%ADD10C,0.00000*%
%ADD11C,0.06400*%
%ADD12C,0.08600*%
%ADD13OC8,0.06400*%
%ADD14OC8,0.06600*%
%ADD15C,0.07400*%
%ADD16OC8,0.07400*%
%ADD17C,0.07000*%
%ADD18C,0.05600*%
%ADD19C,0.00800*%
%ADD20C,0.04000*%
%ADD21C,0.01600*%
%ADD22R,0.04362X0.04362*%
%ADD23C,0.01000*%
%ADD24C,0.01200*%
D10*
X0055000Y0003017D02*
X0448701Y0003017D01*
X0448701Y0317978D02*
X0055000Y0317978D01*
D11*
X0145000Y0166217D02*
X0145000Y0159817D01*
X0145000Y0151217D02*
X0145000Y0144817D01*
X0155000Y0144817D02*
X0155000Y0151217D01*
X0155000Y0159817D02*
X0155000Y0166217D01*
X0165000Y0166217D02*
X0165000Y0159817D01*
X0165000Y0151217D02*
X0165000Y0144817D01*
X0175000Y0144817D02*
X0175000Y0151217D01*
X0175000Y0159817D02*
X0175000Y0166217D01*
X0185000Y0166217D02*
X0185000Y0159817D01*
X0185000Y0151217D02*
X0185000Y0144817D01*
X0195000Y0144817D02*
X0195000Y0151217D01*
X0195000Y0159817D02*
X0195000Y0166217D01*
X0205000Y0166217D02*
X0205000Y0159817D01*
X0205000Y0151217D02*
X0205000Y0144817D01*
X0215000Y0144817D02*
X0215000Y0151217D01*
X0215000Y0159817D02*
X0215000Y0166217D01*
X0225000Y0166217D02*
X0225000Y0159817D01*
X0225000Y0151217D02*
X0225000Y0144817D01*
X0235000Y0144817D02*
X0235000Y0151217D01*
X0235000Y0159817D02*
X0235000Y0166217D01*
X0245000Y0166217D02*
X0245000Y0159817D01*
X0245000Y0151217D02*
X0245000Y0144817D01*
X0255000Y0144817D02*
X0255000Y0151217D01*
X0255000Y0159817D02*
X0255000Y0166217D01*
X0265000Y0166217D02*
X0265000Y0159817D01*
X0265000Y0151217D02*
X0265000Y0144817D01*
X0275000Y0144817D02*
X0275000Y0151217D01*
X0275000Y0159817D02*
X0275000Y0166217D01*
X0285000Y0166217D02*
X0285000Y0159817D01*
X0285000Y0151217D02*
X0285000Y0144817D01*
X0295000Y0144817D02*
X0295000Y0151217D01*
X0295000Y0159817D02*
X0295000Y0166217D01*
X0305000Y0166217D02*
X0305000Y0159817D01*
X0305000Y0151217D02*
X0305000Y0144817D01*
X0315000Y0144817D02*
X0315000Y0151217D01*
X0315000Y0159817D02*
X0315000Y0166217D01*
X0325000Y0166217D02*
X0325000Y0159817D01*
X0325000Y0151217D02*
X0325000Y0144817D01*
X0335000Y0144817D02*
X0335000Y0151217D01*
X0335000Y0159817D02*
X0335000Y0166217D01*
D12*
X0410000Y0161128D03*
X0410000Y0174907D03*
X0410000Y0188687D03*
X0410000Y0202348D03*
X0410000Y0216128D03*
X0410000Y0229907D03*
X0410000Y0243687D03*
X0410000Y0257348D03*
X0410000Y0271128D03*
X0410000Y0284907D03*
X0410000Y0298687D03*
X0435000Y0298687D03*
X0435000Y0284907D03*
X0435000Y0271128D03*
X0435000Y0257348D03*
X0435000Y0243687D03*
X0435000Y0229907D03*
X0435000Y0216128D03*
X0435000Y0202348D03*
X0435000Y0188687D03*
X0435000Y0174907D03*
X0435000Y0161128D03*
X0435000Y0147348D03*
X0435000Y0133687D03*
X0435000Y0119907D03*
X0435000Y0106128D03*
X0435000Y0092348D03*
X0435000Y0078687D03*
X0435000Y0064907D03*
X0435000Y0051128D03*
X0435000Y0037348D03*
X0425669Y0018017D03*
X0411890Y0018017D03*
X0398110Y0018017D03*
X0384331Y0018017D03*
X0370669Y0018017D03*
X0356890Y0018017D03*
X0343110Y0018017D03*
X0329331Y0018017D03*
X0315669Y0018017D03*
X0301890Y0018017D03*
X0288110Y0018017D03*
X0274331Y0018017D03*
X0260669Y0018017D03*
X0246890Y0018017D03*
X0233110Y0018017D03*
X0219331Y0018017D03*
X0205669Y0018017D03*
X0191890Y0018017D03*
X0178110Y0018017D03*
X0164331Y0018017D03*
X0150669Y0018017D03*
X0136890Y0018017D03*
X0123110Y0018017D03*
X0109331Y0018017D03*
X0109331Y0043017D03*
X0123110Y0043017D03*
X0136890Y0043017D03*
X0150669Y0043017D03*
X0164331Y0043017D03*
X0178110Y0043017D03*
X0191890Y0043017D03*
X0205669Y0043017D03*
X0219331Y0043017D03*
X0233110Y0043017D03*
X0246890Y0043017D03*
X0260669Y0043017D03*
X0274331Y0043017D03*
X0288110Y0043017D03*
X0301890Y0043017D03*
X0315669Y0043017D03*
X0329331Y0043017D03*
X0343110Y0043017D03*
X0356890Y0043017D03*
X0370669Y0043017D03*
X0410000Y0037348D03*
X0410000Y0051128D03*
X0410000Y0064907D03*
X0410000Y0078687D03*
X0410000Y0092348D03*
X0410000Y0106128D03*
X0410000Y0119907D03*
X0410000Y0133687D03*
X0410000Y0147348D03*
X0380669Y0278017D03*
X0366890Y0278017D03*
X0353110Y0278017D03*
X0339331Y0278017D03*
X0325669Y0278017D03*
X0311890Y0278017D03*
X0298110Y0278017D03*
X0284331Y0278017D03*
X0270669Y0278017D03*
X0256890Y0278017D03*
X0243110Y0278017D03*
X0229331Y0278017D03*
X0215669Y0278017D03*
X0201890Y0278017D03*
X0188110Y0278017D03*
X0174331Y0278017D03*
X0160669Y0278017D03*
X0146890Y0278017D03*
X0133110Y0278017D03*
X0119331Y0278017D03*
X0105669Y0278017D03*
X0091890Y0278017D03*
X0078110Y0278017D03*
X0064331Y0278017D03*
X0064331Y0303017D03*
X0078110Y0303017D03*
X0091890Y0303017D03*
X0105669Y0303017D03*
X0119331Y0303017D03*
X0133110Y0303017D03*
X0146890Y0303017D03*
X0160669Y0303017D03*
X0174331Y0303017D03*
X0188110Y0303017D03*
X0201890Y0303017D03*
X0215669Y0303017D03*
X0229331Y0303017D03*
X0243110Y0303017D03*
X0256890Y0303017D03*
X0270669Y0303017D03*
X0284331Y0303017D03*
X0298110Y0303017D03*
X0311890Y0303017D03*
X0325669Y0303017D03*
X0339331Y0303017D03*
X0353110Y0303017D03*
X0366890Y0303017D03*
X0380669Y0303017D03*
X0075000Y0088687D03*
X0075000Y0074907D03*
X0075000Y0061128D03*
X0075000Y0047348D03*
D13*
X0125000Y0078017D03*
X0135000Y0078017D03*
X0145000Y0078017D03*
X0155000Y0078017D03*
X0165000Y0078017D03*
X0175000Y0078017D03*
X0185000Y0078017D03*
X0195000Y0078017D03*
X0205000Y0078017D03*
X0215000Y0078017D03*
X0225000Y0078017D03*
X0235000Y0078017D03*
X0245000Y0078017D03*
X0255000Y0078017D03*
X0265000Y0078017D03*
X0275000Y0078017D03*
X0285000Y0078017D03*
X0295000Y0078017D03*
X0305000Y0078017D03*
X0315000Y0078017D03*
X0325000Y0078017D03*
X0335000Y0078017D03*
X0345000Y0078017D03*
X0355000Y0078017D03*
X0355000Y0088017D03*
X0345000Y0088017D03*
X0335000Y0088017D03*
X0325000Y0088017D03*
X0315000Y0088017D03*
X0305000Y0088017D03*
X0295000Y0088017D03*
X0285000Y0088017D03*
X0275000Y0088017D03*
X0265000Y0088017D03*
X0255000Y0088017D03*
X0245000Y0088017D03*
X0235000Y0088017D03*
X0225000Y0088017D03*
X0215000Y0088017D03*
X0205000Y0088017D03*
X0195000Y0088017D03*
X0185000Y0088017D03*
X0175000Y0088017D03*
X0165000Y0088017D03*
X0155000Y0088017D03*
X0145000Y0088017D03*
X0135000Y0088017D03*
X0125000Y0088017D03*
X0125000Y0098017D03*
X0135000Y0098017D03*
X0145000Y0098017D03*
X0155000Y0098017D03*
X0165000Y0098017D03*
X0175000Y0098017D03*
X0185000Y0098017D03*
X0195000Y0098017D03*
X0205000Y0098017D03*
X0215000Y0098017D03*
X0225000Y0098017D03*
X0235000Y0098017D03*
X0245000Y0098017D03*
X0255000Y0098017D03*
X0265000Y0098017D03*
X0275000Y0098017D03*
X0285000Y0098017D03*
X0295000Y0098017D03*
X0305000Y0098017D03*
X0315000Y0098017D03*
X0325000Y0098017D03*
X0335000Y0098017D03*
X0345000Y0098017D03*
X0355000Y0098017D03*
X0355000Y0108017D03*
X0345000Y0108017D03*
X0335000Y0108017D03*
X0325000Y0108017D03*
X0315000Y0108017D03*
X0305000Y0108017D03*
X0295000Y0108017D03*
X0285000Y0108017D03*
X0275000Y0108017D03*
X0265000Y0108017D03*
X0255000Y0108017D03*
X0245000Y0108017D03*
X0235000Y0108017D03*
X0225000Y0108017D03*
X0215000Y0108017D03*
X0205000Y0108017D03*
X0195000Y0108017D03*
X0185000Y0108017D03*
X0175000Y0108017D03*
X0165000Y0108017D03*
X0155000Y0108017D03*
X0145000Y0108017D03*
X0135000Y0108017D03*
X0125000Y0108017D03*
X0125000Y0198017D03*
X0135000Y0198017D03*
X0145000Y0198017D03*
X0155000Y0198017D03*
X0165000Y0198017D03*
X0175000Y0198017D03*
X0185000Y0198017D03*
X0195000Y0198017D03*
X0205000Y0198017D03*
X0215000Y0198017D03*
X0225000Y0198017D03*
X0235000Y0198017D03*
X0245000Y0198017D03*
X0255000Y0198017D03*
X0265000Y0198017D03*
X0275000Y0198017D03*
X0285000Y0198017D03*
X0295000Y0198017D03*
X0305000Y0198017D03*
X0315000Y0198017D03*
X0325000Y0198017D03*
X0335000Y0198017D03*
X0345000Y0198017D03*
X0355000Y0198017D03*
X0355000Y0208017D03*
X0345000Y0208017D03*
X0335000Y0208017D03*
X0325000Y0208017D03*
X0315000Y0208017D03*
X0305000Y0208017D03*
X0295000Y0208017D03*
X0285000Y0208017D03*
X0275000Y0208017D03*
X0265000Y0208017D03*
X0255000Y0208017D03*
X0245000Y0208017D03*
X0235000Y0208017D03*
X0225000Y0208017D03*
X0215000Y0208017D03*
X0205000Y0208017D03*
X0195000Y0208017D03*
X0185000Y0208017D03*
X0175000Y0208017D03*
X0165000Y0208017D03*
X0155000Y0208017D03*
X0145000Y0208017D03*
X0135000Y0208017D03*
X0125000Y0208017D03*
X0125000Y0218017D03*
X0135000Y0218017D03*
X0145000Y0218017D03*
X0155000Y0218017D03*
X0165000Y0218017D03*
X0175000Y0218017D03*
X0185000Y0218017D03*
X0195000Y0218017D03*
X0205000Y0218017D03*
X0215000Y0218017D03*
X0225000Y0218017D03*
X0235000Y0218017D03*
X0245000Y0218017D03*
X0255000Y0218017D03*
X0265000Y0218017D03*
X0275000Y0218017D03*
X0285000Y0218017D03*
X0295000Y0218017D03*
X0305000Y0218017D03*
X0315000Y0218017D03*
X0325000Y0218017D03*
X0335000Y0218017D03*
X0345000Y0218017D03*
X0355000Y0218017D03*
X0355000Y0228017D03*
X0345000Y0228017D03*
X0335000Y0228017D03*
X0325000Y0228017D03*
X0315000Y0228017D03*
X0305000Y0228017D03*
X0295000Y0228017D03*
X0285000Y0228017D03*
X0275000Y0228017D03*
X0265000Y0228017D03*
X0255000Y0228017D03*
X0245000Y0228017D03*
X0235000Y0228017D03*
X0225000Y0228017D03*
X0215000Y0228017D03*
X0205000Y0228017D03*
X0195000Y0228017D03*
X0185000Y0228017D03*
X0175000Y0228017D03*
X0165000Y0228017D03*
X0155000Y0228017D03*
X0145000Y0228017D03*
X0135000Y0228017D03*
X0125000Y0228017D03*
D14*
X0105000Y0198017D03*
X0095000Y0198017D03*
X0080000Y0198017D03*
X0070000Y0198017D03*
D15*
X0062200Y0239117D03*
X0062200Y0256917D03*
X0087800Y0256917D03*
X0099000Y0253017D03*
X0109000Y0253017D03*
X0119000Y0253017D03*
X0129000Y0253017D03*
X0139000Y0253017D03*
X0149000Y0253017D03*
X0159000Y0253017D03*
X0169000Y0253017D03*
X0185000Y0253017D03*
X0195000Y0253017D03*
X0205000Y0253017D03*
X0215000Y0253017D03*
X0225000Y0253017D03*
X0235000Y0253017D03*
X0245000Y0253017D03*
X0255000Y0253017D03*
X0275000Y0253017D03*
X0285000Y0253017D03*
X0295000Y0253017D03*
X0305000Y0253017D03*
X0315000Y0253017D03*
X0325000Y0253017D03*
X0335000Y0253017D03*
X0345000Y0253017D03*
X0375000Y0253017D03*
X0385000Y0253017D03*
X0385000Y0083017D03*
X0375000Y0083017D03*
X0365000Y0063017D03*
X0355000Y0063017D03*
X0345000Y0063017D03*
X0335000Y0063017D03*
X0325000Y0063017D03*
X0315000Y0063017D03*
X0305000Y0063017D03*
X0295000Y0063017D03*
X0275000Y0063017D03*
X0265000Y0063017D03*
X0255000Y0063017D03*
X0245000Y0063017D03*
X0235000Y0063017D03*
X0225000Y0063017D03*
X0215000Y0063017D03*
X0205000Y0063017D03*
X0185000Y0063017D03*
X0175000Y0063017D03*
X0165000Y0063017D03*
X0155000Y0063017D03*
X0145000Y0063017D03*
X0135000Y0063017D03*
X0092800Y0031917D03*
X0092800Y0014117D03*
X0067200Y0014117D03*
X0067200Y0031917D03*
X0087800Y0239117D03*
D16*
X0375000Y0243017D03*
X0385000Y0243017D03*
X0385000Y0233017D03*
X0375000Y0233017D03*
X0375000Y0223017D03*
X0385000Y0223017D03*
X0385000Y0213017D03*
X0375000Y0213017D03*
X0375000Y0203017D03*
X0385000Y0203017D03*
X0385000Y0193017D03*
X0375000Y0193017D03*
X0375000Y0183017D03*
X0385000Y0183017D03*
X0385000Y0173017D03*
X0375000Y0173017D03*
X0375000Y0163017D03*
X0385000Y0163017D03*
X0385000Y0153017D03*
X0375000Y0153017D03*
X0375000Y0143017D03*
X0385000Y0143017D03*
X0385000Y0133017D03*
X0375000Y0133017D03*
X0375000Y0123017D03*
X0385000Y0123017D03*
X0385000Y0113017D03*
X0375000Y0113017D03*
X0375000Y0103017D03*
X0385000Y0103017D03*
X0385000Y0093017D03*
X0375000Y0093017D03*
D17*
X0355000Y0118017D03*
X0345000Y0118017D03*
X0335000Y0118017D03*
X0325000Y0118017D03*
X0315000Y0118017D03*
X0305000Y0118017D03*
X0295000Y0118017D03*
X0285000Y0118017D03*
X0275000Y0118017D03*
X0265000Y0118017D03*
X0255000Y0118017D03*
X0245000Y0118017D03*
X0235000Y0118017D03*
X0225000Y0118017D03*
X0215000Y0118017D03*
X0205000Y0118017D03*
X0195000Y0118017D03*
X0185000Y0118017D03*
X0175000Y0118017D03*
X0165000Y0118017D03*
X0165000Y0188017D03*
X0175000Y0188017D03*
X0185000Y0188017D03*
X0195000Y0188017D03*
X0205000Y0188017D03*
X0215000Y0188017D03*
X0225000Y0188017D03*
X0235000Y0188017D03*
X0245000Y0188017D03*
X0255000Y0188017D03*
X0265000Y0188017D03*
X0275000Y0188017D03*
X0285000Y0188017D03*
X0295000Y0188017D03*
X0305000Y0188017D03*
X0315000Y0188017D03*
X0325000Y0188017D03*
X0335000Y0188017D03*
X0345000Y0188017D03*
X0355000Y0188017D03*
D18*
X0093041Y0118703D03*
X0074041Y0118703D03*
D19*
X0075000Y0090517D02*
X0075000Y0088687D01*
X0075000Y0090517D02*
X0092500Y0090517D01*
X0092500Y0050517D01*
X0117500Y0025517D01*
X0375000Y0025517D01*
X0382500Y0018017D01*
X0384331Y0018017D01*
X0390000Y0018017D01*
X0397500Y0010517D01*
X0417500Y0010517D01*
X0425000Y0018017D01*
X0425669Y0018017D01*
X0411890Y0018017D02*
X0398110Y0018017D01*
X0357500Y0043017D02*
X0356890Y0043017D01*
X0357500Y0043017D02*
X0390000Y0075517D01*
X0390000Y0108017D01*
X0385000Y0113017D01*
X0380000Y0115517D02*
X0380000Y0098017D01*
X0385000Y0093017D01*
X0400000Y0090517D02*
X0410000Y0080517D01*
X0410000Y0078687D01*
X0395000Y0068017D02*
X0410000Y0053017D01*
X0410000Y0051128D01*
X0395000Y0068017D02*
X0395000Y0123017D01*
X0385000Y0133017D01*
X0387500Y0128017D02*
X0390000Y0125517D01*
X0390000Y0120517D01*
X0387500Y0118017D01*
X0382500Y0118017D01*
X0380000Y0115517D01*
X0380000Y0118017D02*
X0372500Y0118017D01*
X0360000Y0105517D01*
X0360000Y0060517D01*
X0350000Y0050517D01*
X0337500Y0050517D01*
X0330000Y0043017D01*
X0329331Y0043017D01*
X0332500Y0050517D02*
X0297500Y0050517D01*
X0290000Y0043017D01*
X0288110Y0043017D01*
X0272500Y0053017D02*
X0262500Y0043017D01*
X0260669Y0043017D01*
X0260000Y0055517D02*
X0247500Y0043017D01*
X0246890Y0043017D01*
X0242500Y0050517D02*
X0187500Y0050517D01*
X0180000Y0043017D01*
X0178110Y0043017D01*
X0175000Y0053017D02*
X0165000Y0043017D01*
X0164331Y0043017D01*
X0152500Y0043017D02*
X0150669Y0043017D01*
X0152500Y0043017D02*
X0165000Y0055517D01*
X0227500Y0055517D01*
X0235000Y0063017D01*
X0235000Y0053017D02*
X0245000Y0063017D01*
X0252500Y0058017D02*
X0237500Y0043017D01*
X0233110Y0043017D01*
X0242500Y0050517D02*
X0255000Y0063017D01*
X0252500Y0058017D02*
X0300000Y0058017D01*
X0305000Y0063017D01*
X0307500Y0055517D02*
X0260000Y0055517D01*
X0272500Y0053017D02*
X0315000Y0053017D01*
X0325000Y0063017D01*
X0315000Y0063017D02*
X0307500Y0055517D01*
X0332500Y0050517D02*
X0345000Y0063017D01*
X0352500Y0050517D02*
X0345000Y0043017D01*
X0343110Y0043017D01*
X0352500Y0050517D02*
X0360000Y0050517D01*
X0370000Y0060517D01*
X0370000Y0108017D01*
X0375000Y0113017D01*
X0380000Y0118017D02*
X0385000Y0123017D01*
X0387500Y0128017D02*
X0372500Y0128017D01*
X0370000Y0130517D01*
X0140000Y0130517D01*
X0100000Y0083017D02*
X0100000Y0058017D01*
X0107500Y0043017D02*
X0109331Y0043017D01*
X0107500Y0043017D02*
X0132500Y0068017D01*
X0187500Y0068017D01*
X0192500Y0063017D01*
X0205000Y0063017D01*
X0220000Y0058017D02*
X0152500Y0058017D01*
X0137500Y0043017D01*
X0136890Y0043017D01*
X0175000Y0053017D02*
X0235000Y0053017D01*
X0225000Y0063017D02*
X0220000Y0058017D01*
X0092800Y0031917D02*
X0092500Y0033017D01*
X0075000Y0033017D01*
X0075000Y0047348D01*
X0075000Y0033017D02*
X0067500Y0033017D01*
X0067200Y0031917D01*
X0067500Y0033017D02*
X0067500Y0185517D01*
X0080000Y0198017D01*
X0080000Y0223017D01*
X0105000Y0198017D01*
X0105000Y0185517D02*
X0075000Y0185517D01*
X0105000Y0185517D02*
X0122500Y0203017D01*
X0367500Y0203017D01*
X0372500Y0208017D01*
X0377500Y0208017D01*
X0380000Y0210517D01*
X0380000Y0238017D01*
X0375000Y0243017D01*
X0367500Y0240517D02*
X0367500Y0278017D01*
X0366890Y0278017D01*
X0360000Y0280517D02*
X0365000Y0285517D01*
X0410000Y0285517D01*
X0410000Y0284907D01*
X0412500Y0278017D02*
X0417500Y0283017D01*
X0417500Y0290517D01*
X0410000Y0298017D01*
X0410000Y0298687D01*
X0412500Y0278017D02*
X0407500Y0278017D01*
X0395000Y0265517D01*
X0395000Y0233017D01*
X0385000Y0223017D01*
X0375000Y0223017D02*
X0365000Y0233017D01*
X0365000Y0238017D01*
X0367500Y0240517D02*
X0375000Y0233017D01*
X0385000Y0233017D02*
X0390000Y0238017D01*
X0390000Y0263017D01*
X0397500Y0258017D02*
X0410000Y0270517D01*
X0410000Y0271128D01*
X0397500Y0258017D02*
X0397500Y0225517D01*
X0385000Y0213017D01*
X0375000Y0213017D02*
X0360000Y0228017D01*
X0360000Y0280517D01*
X0335000Y0270517D02*
X0327500Y0278017D01*
X0325669Y0278017D01*
X0335000Y0270517D02*
X0335000Y0253017D01*
X0325000Y0253017D02*
X0325000Y0265517D01*
X0312500Y0278017D01*
X0311890Y0278017D01*
X0300000Y0278017D02*
X0298110Y0278017D01*
X0300000Y0278017D02*
X0315000Y0263017D01*
X0315000Y0253017D01*
X0305000Y0253017D02*
X0305000Y0258017D01*
X0285000Y0278017D01*
X0284331Y0278017D01*
X0270669Y0278017D02*
X0270000Y0278017D01*
X0295000Y0253017D01*
X0285000Y0253017D02*
X0260000Y0278017D01*
X0256890Y0278017D01*
X0245000Y0278017D02*
X0243110Y0278017D01*
X0245000Y0278017D02*
X0270000Y0253017D01*
X0275000Y0253017D01*
X0255000Y0253017D02*
X0230000Y0278017D01*
X0229331Y0278017D01*
X0220000Y0278017D02*
X0215669Y0278017D01*
X0220000Y0278017D02*
X0245000Y0253017D01*
X0215000Y0253017D02*
X0197500Y0270517D01*
X0182500Y0270517D01*
X0175000Y0278017D01*
X0174331Y0278017D01*
X0177500Y0270517D02*
X0155000Y0270517D01*
X0147500Y0278017D01*
X0146890Y0278017D01*
X0140000Y0270517D02*
X0115000Y0270517D01*
X0107500Y0278017D01*
X0105669Y0278017D01*
X0110000Y0270517D02*
X0072500Y0270517D01*
X0065000Y0278017D01*
X0064331Y0278017D01*
X0062500Y0258017D02*
X0062200Y0256917D01*
X0062500Y0258017D02*
X0087500Y0258017D01*
X0087800Y0256917D01*
X0087500Y0255517D01*
X0080000Y0248017D01*
X0080000Y0223017D01*
X0087800Y0239117D02*
X0090000Y0240517D01*
X0332500Y0240517D01*
X0345000Y0253017D01*
X0400000Y0233017D02*
X0400000Y0218017D01*
X0385000Y0203017D01*
X0387500Y0198017D02*
X0380000Y0198017D01*
X0375000Y0193017D01*
X0380000Y0188017D02*
X0397500Y0188017D01*
X0410000Y0200517D01*
X0410000Y0202348D01*
X0402500Y0213017D02*
X0402500Y0220517D01*
X0410000Y0228017D01*
X0410000Y0229907D01*
X0400000Y0233017D02*
X0410000Y0243017D01*
X0410000Y0243687D01*
X0410000Y0218017D02*
X0410000Y0216128D01*
X0410000Y0218017D02*
X0385000Y0193017D01*
X0387500Y0198017D02*
X0402500Y0213017D01*
X0410000Y0188687D02*
X0410000Y0188017D01*
X0405000Y0183017D01*
X0385000Y0183017D01*
X0380000Y0188017D02*
X0375000Y0183017D01*
X0380000Y0178017D02*
X0407500Y0178017D01*
X0410000Y0175517D01*
X0410000Y0174907D01*
X0400000Y0173017D02*
X0410000Y0163017D01*
X0410000Y0161128D01*
X0400000Y0173017D02*
X0385000Y0173017D01*
X0380000Y0178017D02*
X0375000Y0173017D01*
X0385000Y0163017D02*
X0410000Y0138017D01*
X0410000Y0133687D01*
X0402500Y0128017D02*
X0402500Y0115517D01*
X0410000Y0108017D01*
X0410000Y0106128D01*
X0400000Y0090517D02*
X0400000Y0128017D01*
X0385000Y0143017D01*
X0385000Y0153017D02*
X0400000Y0138017D01*
X0400000Y0130517D01*
X0402500Y0128017D01*
X0195000Y0253017D02*
X0177500Y0270517D01*
X0159000Y0253017D02*
X0157500Y0253017D01*
X0140000Y0270517D01*
X0129000Y0253017D02*
X0127500Y0253017D01*
X0110000Y0270517D01*
X0092500Y0015517D02*
X0067500Y0015517D01*
X0067200Y0014117D01*
X0092500Y0015517D02*
X0092800Y0014117D01*
D20*
X0100000Y0058017D03*
X0100000Y0083017D03*
X0092500Y0090517D03*
X0140000Y0130517D03*
X0075000Y0185517D03*
X0365000Y0238017D03*
X0390000Y0263017D03*
D21*
X0054999Y0315978D02*
X0054804Y0005017D01*
X0448785Y0005017D01*
X0449178Y0315978D01*
X0054999Y0315978D01*
X0054998Y0314727D02*
X0449176Y0314727D01*
X0449174Y0313129D02*
X0054997Y0313129D01*
X0054996Y0311530D02*
X0449172Y0311530D01*
X0449170Y0309932D02*
X0054995Y0309932D01*
X0054994Y0308333D02*
X0060737Y0308333D01*
X0060762Y0308358D02*
X0058990Y0306586D01*
X0058031Y0304271D01*
X0058031Y0301764D01*
X0058990Y0299449D01*
X0060762Y0297676D01*
X0063078Y0296717D01*
X0065584Y0296717D01*
X0067899Y0297676D01*
X0069672Y0299449D01*
X0070631Y0301764D01*
X0070631Y0304271D01*
X0069672Y0306586D01*
X0067899Y0308358D01*
X0065584Y0309317D01*
X0063078Y0309317D01*
X0060762Y0308358D01*
X0059138Y0306735D02*
X0054993Y0306735D01*
X0054992Y0305136D02*
X0058389Y0305136D01*
X0058031Y0303538D02*
X0054991Y0303538D01*
X0054990Y0301939D02*
X0058031Y0301939D01*
X0058620Y0300340D02*
X0054989Y0300340D01*
X0054988Y0298742D02*
X0059697Y0298742D01*
X0062049Y0297143D02*
X0054987Y0297143D01*
X0054986Y0295545D02*
X0404482Y0295545D01*
X0404659Y0295118D02*
X0406431Y0293346D01*
X0408747Y0292387D01*
X0411253Y0292387D01*
X0411949Y0292675D01*
X0415100Y0289523D01*
X0415100Y0288717D01*
X0413569Y0290248D01*
X0411253Y0291207D01*
X0408747Y0291207D01*
X0406431Y0290248D01*
X0404659Y0288476D01*
X0404428Y0287917D01*
X0364523Y0287917D01*
X0363641Y0287552D01*
X0362965Y0286877D01*
X0358063Y0281974D01*
X0356679Y0283358D01*
X0354363Y0284317D01*
X0351857Y0284317D01*
X0349542Y0283358D01*
X0347769Y0281586D01*
X0346810Y0279271D01*
X0346810Y0276764D01*
X0347769Y0274449D01*
X0349542Y0272676D01*
X0351857Y0271717D01*
X0354363Y0271717D01*
X0356679Y0272676D01*
X0357600Y0273598D01*
X0357600Y0232771D01*
X0357154Y0233217D01*
X0352846Y0233217D01*
X0350000Y0230371D01*
X0347154Y0233217D01*
X0342846Y0233217D01*
X0340000Y0230371D01*
X0337154Y0233217D01*
X0332846Y0233217D01*
X0330000Y0230371D01*
X0327154Y0233217D01*
X0322846Y0233217D01*
X0320000Y0230371D01*
X0317154Y0233217D01*
X0312846Y0233217D01*
X0310000Y0230371D01*
X0307154Y0233217D01*
X0302846Y0233217D01*
X0300000Y0230371D01*
X0297154Y0233217D01*
X0292846Y0233217D01*
X0290000Y0230371D01*
X0287154Y0233217D01*
X0282846Y0233217D01*
X0280000Y0230371D01*
X0277154Y0233217D01*
X0272846Y0233217D01*
X0270000Y0230371D01*
X0267154Y0233217D01*
X0262846Y0233217D01*
X0260000Y0230371D01*
X0257154Y0233217D01*
X0252846Y0233217D01*
X0250000Y0230371D01*
X0247154Y0233217D01*
X0242846Y0233217D01*
X0240000Y0230371D01*
X0237154Y0233217D01*
X0232846Y0233217D01*
X0230000Y0230371D01*
X0227154Y0233217D01*
X0222846Y0233217D01*
X0220000Y0230371D01*
X0217154Y0233217D01*
X0212846Y0233217D01*
X0210000Y0230371D01*
X0207154Y0233217D01*
X0202846Y0233217D01*
X0200000Y0230371D01*
X0197154Y0233217D01*
X0192846Y0233217D01*
X0190000Y0230371D01*
X0187154Y0233217D01*
X0182846Y0233217D01*
X0180000Y0230371D01*
X0177154Y0233217D01*
X0172846Y0233217D01*
X0170000Y0230371D01*
X0167154Y0233217D01*
X0162846Y0233217D01*
X0160000Y0230371D01*
X0157154Y0233217D01*
X0152846Y0233217D01*
X0150000Y0230371D01*
X0147154Y0233217D01*
X0142846Y0233217D01*
X0140000Y0230371D01*
X0137154Y0233217D01*
X0132846Y0233217D01*
X0130000Y0230371D01*
X0127154Y0233217D01*
X0122846Y0233217D01*
X0119800Y0230171D01*
X0119800Y0225863D01*
X0122646Y0223017D01*
X0119800Y0220171D01*
X0119800Y0215863D01*
X0122646Y0213017D01*
X0119800Y0210171D01*
X0119800Y0205863D01*
X0120876Y0204787D01*
X0120465Y0204377D01*
X0104006Y0187917D01*
X0078257Y0187917D01*
X0077266Y0188908D01*
X0075796Y0189517D01*
X0074204Y0189517D01*
X0072734Y0188908D01*
X0071609Y0187783D01*
X0071000Y0186313D01*
X0071000Y0184722D01*
X0071609Y0183252D01*
X0072734Y0182126D01*
X0074204Y0181517D01*
X0075796Y0181517D01*
X0077266Y0182126D01*
X0078257Y0183117D01*
X0105477Y0183117D01*
X0106359Y0183483D01*
X0107035Y0184158D01*
X0119800Y0196923D01*
X0119800Y0195863D01*
X0122846Y0192817D01*
X0127154Y0192817D01*
X0130000Y0195663D01*
X0132846Y0192817D01*
X0137154Y0192817D01*
X0140000Y0195663D01*
X0142846Y0192817D01*
X0147154Y0192817D01*
X0150000Y0195663D01*
X0152846Y0192817D01*
X0157154Y0192817D01*
X0160000Y0195663D01*
X0162662Y0193002D01*
X0161884Y0192680D01*
X0160337Y0191133D01*
X0159500Y0189111D01*
X0159500Y0186923D01*
X0160337Y0184902D01*
X0161884Y0183355D01*
X0163906Y0182517D01*
X0166094Y0182517D01*
X0168115Y0183355D01*
X0169663Y0184902D01*
X0170000Y0185716D01*
X0170337Y0184902D01*
X0171884Y0183355D01*
X0173906Y0182517D01*
X0176094Y0182517D01*
X0178115Y0183355D01*
X0179663Y0184902D01*
X0180000Y0185716D01*
X0180337Y0184902D01*
X0181884Y0183355D01*
X0183906Y0182517D01*
X0186094Y0182517D01*
X0188115Y0183355D01*
X0189663Y0184902D01*
X0190000Y0185716D01*
X0190337Y0184902D01*
X0191884Y0183355D01*
X0193906Y0182517D01*
X0196094Y0182517D01*
X0198115Y0183355D01*
X0199663Y0184902D01*
X0200000Y0185716D01*
X0200337Y0184902D01*
X0201884Y0183355D01*
X0203906Y0182517D01*
X0206094Y0182517D01*
X0208115Y0183355D01*
X0209663Y0184902D01*
X0210000Y0185716D01*
X0210337Y0184902D01*
X0211884Y0183355D01*
X0213906Y0182517D01*
X0216094Y0182517D01*
X0218115Y0183355D01*
X0219663Y0184902D01*
X0220000Y0185716D01*
X0220337Y0184902D01*
X0221884Y0183355D01*
X0223906Y0182517D01*
X0226094Y0182517D01*
X0228115Y0183355D01*
X0229663Y0184902D01*
X0230000Y0185716D01*
X0230337Y0184902D01*
X0231884Y0183355D01*
X0233906Y0182517D01*
X0236094Y0182517D01*
X0238115Y0183355D01*
X0239663Y0184902D01*
X0240000Y0185716D01*
X0240337Y0184902D01*
X0241884Y0183355D01*
X0243906Y0182517D01*
X0246094Y0182517D01*
X0248115Y0183355D01*
X0249663Y0184902D01*
X0250000Y0185716D01*
X0250337Y0184902D01*
X0251884Y0183355D01*
X0253906Y0182517D01*
X0256094Y0182517D01*
X0258115Y0183355D01*
X0259663Y0184902D01*
X0260000Y0185716D01*
X0260337Y0184902D01*
X0261884Y0183355D01*
X0263906Y0182517D01*
X0266094Y0182517D01*
X0268115Y0183355D01*
X0269663Y0184902D01*
X0270000Y0185716D01*
X0270337Y0184902D01*
X0271884Y0183355D01*
X0273906Y0182517D01*
X0276094Y0182517D01*
X0278115Y0183355D01*
X0279663Y0184902D01*
X0280000Y0185716D01*
X0280337Y0184902D01*
X0281884Y0183355D01*
X0283906Y0182517D01*
X0286094Y0182517D01*
X0288115Y0183355D01*
X0289663Y0184902D01*
X0290000Y0185716D01*
X0290337Y0184902D01*
X0291884Y0183355D01*
X0293906Y0182517D01*
X0296094Y0182517D01*
X0298115Y0183355D01*
X0299663Y0184902D01*
X0300000Y0185716D01*
X0300337Y0184902D01*
X0301884Y0183355D01*
X0303906Y0182517D01*
X0306094Y0182517D01*
X0308115Y0183355D01*
X0309663Y0184902D01*
X0310000Y0185716D01*
X0310337Y0184902D01*
X0311884Y0183355D01*
X0313906Y0182517D01*
X0316094Y0182517D01*
X0318115Y0183355D01*
X0319663Y0184902D01*
X0320000Y0185716D01*
X0320337Y0184902D01*
X0321884Y0183355D01*
X0323906Y0182517D01*
X0326094Y0182517D01*
X0328115Y0183355D01*
X0329663Y0184902D01*
X0330000Y0185716D01*
X0330337Y0184902D01*
X0331884Y0183355D01*
X0333906Y0182517D01*
X0336094Y0182517D01*
X0338115Y0183355D01*
X0339663Y0184902D01*
X0340000Y0185716D01*
X0340337Y0184902D01*
X0341884Y0183355D01*
X0343906Y0182517D01*
X0346094Y0182517D01*
X0348115Y0183355D01*
X0349663Y0184902D01*
X0350000Y0185716D01*
X0350337Y0184902D01*
X0351884Y0183355D01*
X0353906Y0182517D01*
X0356094Y0182517D01*
X0358115Y0183355D01*
X0359663Y0184902D01*
X0360500Y0186923D01*
X0360500Y0189111D01*
X0359663Y0191133D01*
X0358115Y0192680D01*
X0357338Y0193002D01*
X0360200Y0195863D01*
X0360200Y0200171D01*
X0359754Y0200617D01*
X0367977Y0200617D01*
X0368859Y0200983D01*
X0369300Y0201423D01*
X0369300Y0200656D01*
X0371939Y0198017D01*
X0369300Y0195378D01*
X0369300Y0190656D01*
X0371939Y0188017D01*
X0369300Y0185378D01*
X0369300Y0180656D01*
X0371939Y0178017D01*
X0369300Y0175378D01*
X0369300Y0170656D01*
X0371939Y0168017D01*
X0369300Y0165378D01*
X0369300Y0160656D01*
X0371939Y0158017D01*
X0369300Y0155378D01*
X0369300Y0150656D01*
X0371939Y0148017D01*
X0369300Y0145378D01*
X0369300Y0140656D01*
X0371939Y0138017D01*
X0369300Y0135378D01*
X0369300Y0132917D01*
X0143257Y0132917D01*
X0142266Y0133908D01*
X0140796Y0134517D01*
X0139204Y0134517D01*
X0137734Y0133908D01*
X0136609Y0132783D01*
X0136000Y0131313D01*
X0136000Y0129722D01*
X0136609Y0128252D01*
X0137734Y0127126D01*
X0139204Y0126517D01*
X0140796Y0126517D01*
X0142266Y0127126D01*
X0143257Y0128117D01*
X0369006Y0128117D01*
X0370465Y0126658D01*
X0370522Y0126601D01*
X0369300Y0125378D01*
X0369300Y0120656D01*
X0370522Y0119434D01*
X0360200Y0109111D01*
X0360200Y0110171D01*
X0357338Y0113033D01*
X0358115Y0113355D01*
X0359663Y0114902D01*
X0360500Y0116923D01*
X0360500Y0119111D01*
X0359663Y0121133D01*
X0358115Y0122680D01*
X0356094Y0123517D01*
X0353906Y0123517D01*
X0351884Y0122680D01*
X0350337Y0121133D01*
X0350000Y0120318D01*
X0349663Y0121133D01*
X0348115Y0122680D01*
X0346094Y0123517D01*
X0343906Y0123517D01*
X0341884Y0122680D01*
X0340337Y0121133D01*
X0340000Y0120318D01*
X0339663Y0121133D01*
X0338115Y0122680D01*
X0336094Y0123517D01*
X0333906Y0123517D01*
X0331884Y0122680D01*
X0330337Y0121133D01*
X0330000Y0120318D01*
X0329663Y0121133D01*
X0328115Y0122680D01*
X0326094Y0123517D01*
X0323906Y0123517D01*
X0321884Y0122680D01*
X0320337Y0121133D01*
X0320000Y0120318D01*
X0319663Y0121133D01*
X0318115Y0122680D01*
X0316094Y0123517D01*
X0313906Y0123517D01*
X0311884Y0122680D01*
X0310337Y0121133D01*
X0310000Y0120318D01*
X0309663Y0121133D01*
X0308115Y0122680D01*
X0306094Y0123517D01*
X0303906Y0123517D01*
X0301884Y0122680D01*
X0300337Y0121133D01*
X0300000Y0120318D01*
X0299663Y0121133D01*
X0298115Y0122680D01*
X0296094Y0123517D01*
X0293906Y0123517D01*
X0291884Y0122680D01*
X0290337Y0121133D01*
X0290000Y0120318D01*
X0289663Y0121133D01*
X0288115Y0122680D01*
X0286094Y0123517D01*
X0283906Y0123517D01*
X0281884Y0122680D01*
X0280337Y0121133D01*
X0280000Y0120318D01*
X0279663Y0121133D01*
X0278115Y0122680D01*
X0276094Y0123517D01*
X0273906Y0123517D01*
X0271884Y0122680D01*
X0270337Y0121133D01*
X0270000Y0120318D01*
X0269663Y0121133D01*
X0268115Y0122680D01*
X0266094Y0123517D01*
X0263906Y0123517D01*
X0261884Y0122680D01*
X0260337Y0121133D01*
X0260000Y0120318D01*
X0259663Y0121133D01*
X0258115Y0122680D01*
X0256094Y0123517D01*
X0253906Y0123517D01*
X0251884Y0122680D01*
X0250337Y0121133D01*
X0250000Y0120318D01*
X0249663Y0121133D01*
X0248115Y0122680D01*
X0246094Y0123517D01*
X0243906Y0123517D01*
X0241884Y0122680D01*
X0240337Y0121133D01*
X0240000Y0120318D01*
X0239663Y0121133D01*
X0238115Y0122680D01*
X0236094Y0123517D01*
X0233906Y0123517D01*
X0231884Y0122680D01*
X0230337Y0121133D01*
X0230000Y0120318D01*
X0229663Y0121133D01*
X0228115Y0122680D01*
X0226094Y0123517D01*
X0223906Y0123517D01*
X0221884Y0122680D01*
X0220337Y0121133D01*
X0220000Y0120318D01*
X0219663Y0121133D01*
X0218115Y0122680D01*
X0216094Y0123517D01*
X0213906Y0123517D01*
X0211884Y0122680D01*
X0210337Y0121133D01*
X0210000Y0120318D01*
X0209663Y0121133D01*
X0208115Y0122680D01*
X0206094Y0123517D01*
X0203906Y0123517D01*
X0201884Y0122680D01*
X0200337Y0121133D01*
X0200000Y0120318D01*
X0199663Y0121133D01*
X0198115Y0122680D01*
X0196094Y0123517D01*
X0193906Y0123517D01*
X0191884Y0122680D01*
X0190337Y0121133D01*
X0190000Y0120318D01*
X0189663Y0121133D01*
X0188115Y0122680D01*
X0186094Y0123517D01*
X0183906Y0123517D01*
X0181884Y0122680D01*
X0180337Y0121133D01*
X0180000Y0120318D01*
X0179663Y0121133D01*
X0178115Y0122680D01*
X0176094Y0123517D01*
X0173906Y0123517D01*
X0171884Y0122680D01*
X0170337Y0121133D01*
X0170000Y0120318D01*
X0169663Y0121133D01*
X0168115Y0122680D01*
X0166094Y0123517D01*
X0163906Y0123517D01*
X0161884Y0122680D01*
X0160337Y0121133D01*
X0159500Y0119111D01*
X0159500Y0116923D01*
X0160337Y0114902D01*
X0161884Y0113355D01*
X0162662Y0113033D01*
X0160000Y0110371D01*
X0157154Y0113217D01*
X0152846Y0113217D01*
X0150000Y0110371D01*
X0147154Y0113217D01*
X0142846Y0113217D01*
X0140000Y0110371D01*
X0137154Y0113217D01*
X0132846Y0113217D01*
X0130000Y0110371D01*
X0127154Y0113217D01*
X0122846Y0113217D01*
X0119800Y0110171D01*
X0119800Y0105863D01*
X0122646Y0103017D01*
X0119800Y0100171D01*
X0119800Y0095863D01*
X0122646Y0093017D01*
X0119800Y0090171D01*
X0119800Y0085863D01*
X0122646Y0083017D01*
X0119800Y0080171D01*
X0119800Y0075863D01*
X0122846Y0072817D01*
X0127154Y0072817D01*
X0130000Y0075663D01*
X0132846Y0072817D01*
X0137154Y0072817D01*
X0140000Y0075663D01*
X0142846Y0072817D01*
X0147154Y0072817D01*
X0150000Y0075663D01*
X0152846Y0072817D01*
X0157154Y0072817D01*
X0160000Y0075663D01*
X0162846Y0072817D01*
X0167154Y0072817D01*
X0170000Y0075663D01*
X0172846Y0072817D01*
X0177154Y0072817D01*
X0180000Y0075663D01*
X0182846Y0072817D01*
X0187154Y0072817D01*
X0190000Y0075663D01*
X0192846Y0072817D01*
X0197154Y0072817D01*
X0200000Y0075663D01*
X0202846Y0072817D01*
X0207154Y0072817D01*
X0210000Y0075663D01*
X0212846Y0072817D01*
X0217154Y0072817D01*
X0220000Y0075663D01*
X0222846Y0072817D01*
X0227154Y0072817D01*
X0230000Y0075663D01*
X0232846Y0072817D01*
X0237154Y0072817D01*
X0240000Y0075663D01*
X0242846Y0072817D01*
X0247154Y0072817D01*
X0250000Y0075663D01*
X0252846Y0072817D01*
X0257154Y0072817D01*
X0260000Y0075663D01*
X0262846Y0072817D01*
X0267154Y0072817D01*
X0270000Y0075663D01*
X0272846Y0072817D01*
X0277154Y0072817D01*
X0280000Y0075663D01*
X0282846Y0072817D01*
X0287154Y0072817D01*
X0290000Y0075663D01*
X0292846Y0072817D01*
X0297154Y0072817D01*
X0300000Y0075663D01*
X0302846Y0072817D01*
X0307154Y0072817D01*
X0310000Y0075663D01*
X0312846Y0072817D01*
X0317154Y0072817D01*
X0320000Y0075663D01*
X0322846Y0072817D01*
X0327154Y0072817D01*
X0330000Y0075663D01*
X0332846Y0072817D01*
X0337154Y0072817D01*
X0340000Y0075663D01*
X0342846Y0072817D01*
X0347154Y0072817D01*
X0350000Y0075663D01*
X0352846Y0072817D01*
X0357154Y0072817D01*
X0357600Y0073263D01*
X0357600Y0068110D01*
X0356134Y0068717D01*
X0353866Y0068717D01*
X0351771Y0067850D01*
X0350168Y0066246D01*
X0350000Y0065841D01*
X0349832Y0066246D01*
X0348229Y0067850D01*
X0346134Y0068717D01*
X0343866Y0068717D01*
X0341771Y0067850D01*
X0340168Y0066246D01*
X0340000Y0065841D01*
X0339832Y0066246D01*
X0338229Y0067850D01*
X0336134Y0068717D01*
X0333866Y0068717D01*
X0331771Y0067850D01*
X0330168Y0066246D01*
X0330000Y0065841D01*
X0329832Y0066246D01*
X0328229Y0067850D01*
X0326134Y0068717D01*
X0323866Y0068717D01*
X0321771Y0067850D01*
X0320168Y0066246D01*
X0320000Y0065841D01*
X0319832Y0066246D01*
X0318229Y0067850D01*
X0316134Y0068717D01*
X0313866Y0068717D01*
X0311771Y0067850D01*
X0310168Y0066246D01*
X0310000Y0065841D01*
X0309832Y0066246D01*
X0308229Y0067850D01*
X0306134Y0068717D01*
X0303866Y0068717D01*
X0301771Y0067850D01*
X0300168Y0066246D01*
X0300000Y0065841D01*
X0299832Y0066246D01*
X0298229Y0067850D01*
X0296134Y0068717D01*
X0293866Y0068717D01*
X0291771Y0067850D01*
X0290168Y0066246D01*
X0289300Y0064151D01*
X0289300Y0061884D01*
X0289907Y0060417D01*
X0280093Y0060417D01*
X0280700Y0061884D01*
X0280700Y0064151D01*
X0279832Y0066246D01*
X0278229Y0067850D01*
X0276134Y0068717D01*
X0273866Y0068717D01*
X0271771Y0067850D01*
X0270168Y0066246D01*
X0270000Y0065841D01*
X0269832Y0066246D01*
X0268229Y0067850D01*
X0266134Y0068717D01*
X0263866Y0068717D01*
X0261771Y0067850D01*
X0260168Y0066246D01*
X0260000Y0065841D01*
X0259832Y0066246D01*
X0258229Y0067850D01*
X0256134Y0068717D01*
X0253866Y0068717D01*
X0251771Y0067850D01*
X0250168Y0066246D01*
X0250000Y0065841D01*
X0249832Y0066246D01*
X0248229Y0067850D01*
X0246134Y0068717D01*
X0243866Y0068717D01*
X0241771Y0067850D01*
X0240168Y0066246D01*
X0240000Y0065841D01*
X0239832Y0066246D01*
X0238229Y0067850D01*
X0236134Y0068717D01*
X0233866Y0068717D01*
X0231771Y0067850D01*
X0230168Y0066246D01*
X0230000Y0065841D01*
X0229832Y0066246D01*
X0228229Y0067850D01*
X0226134Y0068717D01*
X0223866Y0068717D01*
X0221771Y0067850D01*
X0220168Y0066246D01*
X0220000Y0065841D01*
X0219832Y0066246D01*
X0218229Y0067850D01*
X0216134Y0068717D01*
X0213866Y0068717D01*
X0211771Y0067850D01*
X0210168Y0066246D01*
X0210000Y0065841D01*
X0209832Y0066246D01*
X0208229Y0067850D01*
X0206134Y0068717D01*
X0203866Y0068717D01*
X0201771Y0067850D01*
X0200168Y0066246D01*
X0199824Y0065417D01*
X0193494Y0065417D01*
X0189535Y0069377D01*
X0188859Y0070052D01*
X0187977Y0070417D01*
X0132023Y0070417D01*
X0131141Y0070052D01*
X0110406Y0049317D01*
X0108078Y0049317D01*
X0105762Y0048358D01*
X0103990Y0046586D01*
X0103031Y0044271D01*
X0103031Y0043381D01*
X0094900Y0051511D01*
X0094900Y0087261D01*
X0095682Y0088043D01*
X0116278Y0088209D01*
X0116770Y0088211D01*
X0116776Y0088213D01*
X0116782Y0088213D01*
X0117235Y0088405D01*
X0117687Y0088595D01*
X0117692Y0088599D01*
X0117697Y0088601D01*
X0118042Y0088952D01*
X0118388Y0089300D01*
X0118391Y0089306D01*
X0118395Y0089310D01*
X0118579Y0089766D01*
X0118766Y0090220D01*
X0118766Y0090227D01*
X0118768Y0090232D01*
X0118764Y0090724D01*
X0118486Y0173392D01*
X0118981Y0173392D01*
X0120153Y0174564D01*
X0120153Y0180583D01*
X0118981Y0181754D01*
X0112962Y0181754D01*
X0111790Y0180583D01*
X0111790Y0174564D01*
X0112962Y0173392D01*
X0113486Y0173392D01*
X0113756Y0093189D01*
X0095631Y0093043D01*
X0094766Y0093908D01*
X0093296Y0094517D01*
X0091704Y0094517D01*
X0090234Y0093908D01*
X0089243Y0092917D01*
X0079679Y0092917D01*
X0078569Y0094028D01*
X0076253Y0094987D01*
X0073747Y0094987D01*
X0071431Y0094028D01*
X0069659Y0092255D01*
X0068700Y0089940D01*
X0068700Y0087434D01*
X0069659Y0085118D01*
X0071431Y0083346D01*
X0073747Y0082387D01*
X0076253Y0082387D01*
X0078569Y0083346D01*
X0080341Y0085118D01*
X0081300Y0087434D01*
X0081300Y0088117D01*
X0089243Y0088117D01*
X0090100Y0087261D01*
X0090100Y0050040D01*
X0090465Y0049158D01*
X0115465Y0024158D01*
X0116141Y0023483D01*
X0117023Y0023117D01*
X0119301Y0023117D01*
X0117769Y0021586D01*
X0116810Y0019271D01*
X0116810Y0016764D01*
X0117769Y0014449D01*
X0119542Y0012676D01*
X0121857Y0011717D01*
X0124363Y0011717D01*
X0126679Y0012676D01*
X0128451Y0014449D01*
X0129410Y0016764D01*
X0129410Y0019271D01*
X0128451Y0021586D01*
X0126920Y0023117D01*
X0133080Y0023117D01*
X0131549Y0021586D01*
X0130590Y0019271D01*
X0130590Y0016764D01*
X0131549Y0014449D01*
X0133321Y0012676D01*
X0135637Y0011717D01*
X0138143Y0011717D01*
X0140458Y0012676D01*
X0142231Y0014449D01*
X0143190Y0016764D01*
X0143190Y0019271D01*
X0142231Y0021586D01*
X0140699Y0023117D01*
X0146860Y0023117D01*
X0145328Y0021586D01*
X0144369Y0019271D01*
X0144369Y0016764D01*
X0145328Y0014449D01*
X0147101Y0012676D01*
X0149416Y0011717D01*
X0151922Y0011717D01*
X0154238Y0012676D01*
X0156010Y0014449D01*
X0156969Y0016764D01*
X0156969Y0019271D01*
X0156010Y0021586D01*
X0154479Y0023117D01*
X0160521Y0023117D01*
X0158990Y0021586D01*
X0158031Y0019271D01*
X0158031Y0016764D01*
X0158990Y0014449D01*
X0160762Y0012676D01*
X0163078Y0011717D01*
X0165584Y0011717D01*
X0167899Y0012676D01*
X0169672Y0014449D01*
X0170631Y0016764D01*
X0170631Y0019271D01*
X0169672Y0021586D01*
X0168140Y0023117D01*
X0174301Y0023117D01*
X0172769Y0021586D01*
X0171810Y0019271D01*
X0171810Y0016764D01*
X0172769Y0014449D01*
X0174542Y0012676D01*
X0176857Y0011717D01*
X0179363Y0011717D01*
X0181679Y0012676D01*
X0183451Y0014449D01*
X0184410Y0016764D01*
X0184410Y0019271D01*
X0183451Y0021586D01*
X0181920Y0023117D01*
X0188080Y0023117D01*
X0186549Y0021586D01*
X0185590Y0019271D01*
X0185590Y0016764D01*
X0186549Y0014449D01*
X0188321Y0012676D01*
X0190637Y0011717D01*
X0193143Y0011717D01*
X0195458Y0012676D01*
X0197231Y0014449D01*
X0198190Y0016764D01*
X0198190Y0019271D01*
X0197231Y0021586D01*
X0195699Y0023117D01*
X0201860Y0023117D01*
X0200328Y0021586D01*
X0199369Y0019271D01*
X0199369Y0016764D01*
X0200328Y0014449D01*
X0202101Y0012676D01*
X0204416Y0011717D01*
X0206922Y0011717D01*
X0209238Y0012676D01*
X0211010Y0014449D01*
X0211969Y0016764D01*
X0211969Y0019271D01*
X0211010Y0021586D01*
X0209479Y0023117D01*
X0215521Y0023117D01*
X0213990Y0021586D01*
X0213031Y0019271D01*
X0213031Y0016764D01*
X0213990Y0014449D01*
X0215762Y0012676D01*
X0218078Y0011717D01*
X0220584Y0011717D01*
X0222899Y0012676D01*
X0224672Y0014449D01*
X0225631Y0016764D01*
X0225631Y0019271D01*
X0224672Y0021586D01*
X0223140Y0023117D01*
X0229301Y0023117D01*
X0227769Y0021586D01*
X0226810Y0019271D01*
X0226810Y0016764D01*
X0227769Y0014449D01*
X0229542Y0012676D01*
X0231857Y0011717D01*
X0234363Y0011717D01*
X0236679Y0012676D01*
X0238451Y0014449D01*
X0239410Y0016764D01*
X0239410Y0019271D01*
X0238451Y0021586D01*
X0236920Y0023117D01*
X0243080Y0023117D01*
X0241549Y0021586D01*
X0240590Y0019271D01*
X0240590Y0016764D01*
X0241549Y0014449D01*
X0243321Y0012676D01*
X0245637Y0011717D01*
X0248143Y0011717D01*
X0250458Y0012676D01*
X0252231Y0014449D01*
X0253190Y0016764D01*
X0253190Y0019271D01*
X0252231Y0021586D01*
X0250699Y0023117D01*
X0256860Y0023117D01*
X0255328Y0021586D01*
X0254369Y0019271D01*
X0254369Y0016764D01*
X0255328Y0014449D01*
X0257101Y0012676D01*
X0259416Y0011717D01*
X0261922Y0011717D01*
X0264238Y0012676D01*
X0266010Y0014449D01*
X0266969Y0016764D01*
X0266969Y0019271D01*
X0266010Y0021586D01*
X0264479Y0023117D01*
X0270521Y0023117D01*
X0268990Y0021586D01*
X0268031Y0019271D01*
X0268031Y0016764D01*
X0268990Y0014449D01*
X0270762Y0012676D01*
X0273078Y0011717D01*
X0275584Y0011717D01*
X0277899Y0012676D01*
X0279672Y0014449D01*
X0280631Y0016764D01*
X0280631Y0019271D01*
X0279672Y0021586D01*
X0278140Y0023117D01*
X0284301Y0023117D01*
X0282769Y0021586D01*
X0281810Y0019271D01*
X0281810Y0016764D01*
X0282769Y0014449D01*
X0284542Y0012676D01*
X0286857Y0011717D01*
X0289363Y0011717D01*
X0291679Y0012676D01*
X0293451Y0014449D01*
X0294410Y0016764D01*
X0294410Y0019271D01*
X0293451Y0021586D01*
X0291920Y0023117D01*
X0298080Y0023117D01*
X0296549Y0021586D01*
X0295590Y0019271D01*
X0295590Y0016764D01*
X0296549Y0014449D01*
X0298321Y0012676D01*
X0300637Y0011717D01*
X0303143Y0011717D01*
X0305458Y0012676D01*
X0307231Y0014449D01*
X0308190Y0016764D01*
X0308190Y0019271D01*
X0307231Y0021586D01*
X0305699Y0023117D01*
X0311860Y0023117D01*
X0310328Y0021586D01*
X0309369Y0019271D01*
X0309369Y0016764D01*
X0310328Y0014449D01*
X0312101Y0012676D01*
X0314416Y0011717D01*
X0316922Y0011717D01*
X0319238Y0012676D01*
X0321010Y0014449D01*
X0321969Y0016764D01*
X0321969Y0019271D01*
X0321010Y0021586D01*
X0319479Y0023117D01*
X0325521Y0023117D01*
X0323990Y0021586D01*
X0323031Y0019271D01*
X0323031Y0016764D01*
X0323990Y0014449D01*
X0325762Y0012676D01*
X0328078Y0011717D01*
X0330584Y0011717D01*
X0332899Y0012676D01*
X0334672Y0014449D01*
X0335631Y0016764D01*
X0335631Y0019271D01*
X0334672Y0021586D01*
X0333140Y0023117D01*
X0339301Y0023117D01*
X0337769Y0021586D01*
X0336810Y0019271D01*
X0336810Y0016764D01*
X0337769Y0014449D01*
X0339542Y0012676D01*
X0341857Y0011717D01*
X0344363Y0011717D01*
X0346679Y0012676D01*
X0348451Y0014449D01*
X0349410Y0016764D01*
X0349410Y0019271D01*
X0348451Y0021586D01*
X0346920Y0023117D01*
X0353080Y0023117D01*
X0351549Y0021586D01*
X0350590Y0019271D01*
X0350590Y0016764D01*
X0351549Y0014449D01*
X0353321Y0012676D01*
X0355637Y0011717D01*
X0358143Y0011717D01*
X0360458Y0012676D01*
X0362231Y0014449D01*
X0363190Y0016764D01*
X0363190Y0019271D01*
X0362231Y0021586D01*
X0360699Y0023117D01*
X0366860Y0023117D01*
X0365328Y0021586D01*
X0364369Y0019271D01*
X0364369Y0016764D01*
X0365328Y0014449D01*
X0367101Y0012676D01*
X0369416Y0011717D01*
X0371922Y0011717D01*
X0374238Y0012676D01*
X0376010Y0014449D01*
X0376969Y0016764D01*
X0376969Y0019271D01*
X0376345Y0020779D01*
X0378031Y0019093D01*
X0378031Y0016764D01*
X0378990Y0014449D01*
X0380762Y0012676D01*
X0383078Y0011717D01*
X0385584Y0011717D01*
X0387899Y0012676D01*
X0389672Y0014449D01*
X0389819Y0014804D01*
X0395465Y0009158D01*
X0396141Y0008483D01*
X0397023Y0008117D01*
X0417977Y0008117D01*
X0418859Y0008483D01*
X0422774Y0012397D01*
X0424416Y0011717D01*
X0426922Y0011717D01*
X0429238Y0012676D01*
X0431010Y0014449D01*
X0431969Y0016764D01*
X0431969Y0019271D01*
X0431010Y0021586D01*
X0429238Y0023358D01*
X0426922Y0024317D01*
X0424416Y0024317D01*
X0422101Y0023358D01*
X0420328Y0021586D01*
X0419369Y0019271D01*
X0419369Y0016764D01*
X0419657Y0016069D01*
X0416506Y0012917D01*
X0415248Y0012917D01*
X0415864Y0013365D01*
X0416543Y0014043D01*
X0417107Y0014820D01*
X0417543Y0015676D01*
X0417840Y0016589D01*
X0417990Y0017537D01*
X0417990Y0017833D01*
X0412074Y0017833D01*
X0412074Y0018202D01*
X0411705Y0018202D01*
X0411705Y0017833D01*
X0405790Y0017833D01*
X0405790Y0017537D01*
X0405940Y0016589D01*
X0406237Y0015676D01*
X0406673Y0014820D01*
X0407237Y0014043D01*
X0407916Y0013365D01*
X0408531Y0012917D01*
X0401469Y0012917D01*
X0402084Y0013365D01*
X0402763Y0014043D01*
X0403327Y0014820D01*
X0403763Y0015676D01*
X0404060Y0016589D01*
X0404210Y0017537D01*
X0404210Y0017833D01*
X0398295Y0017833D01*
X0398295Y0018202D01*
X0404210Y0018202D01*
X0404210Y0018497D01*
X0404060Y0019446D01*
X0403763Y0020359D01*
X0403327Y0021214D01*
X0402763Y0021991D01*
X0402084Y0022670D01*
X0401307Y0023235D01*
X0400452Y0023670D01*
X0399539Y0023967D01*
X0398590Y0024117D01*
X0398294Y0024117D01*
X0398294Y0018202D01*
X0397926Y0018202D01*
X0397926Y0024117D01*
X0397630Y0024117D01*
X0396682Y0023967D01*
X0395769Y0023670D01*
X0394913Y0023235D01*
X0394136Y0022670D01*
X0393457Y0021991D01*
X0392893Y0021214D01*
X0392457Y0020359D01*
X0392160Y0019446D01*
X0392134Y0019278D01*
X0391359Y0020052D01*
X0390477Y0020417D01*
X0390156Y0020417D01*
X0389672Y0021586D01*
X0387899Y0023358D01*
X0385584Y0024317D01*
X0383078Y0024317D01*
X0380762Y0023358D01*
X0380658Y0023254D01*
X0376359Y0027552D01*
X0375477Y0027917D01*
X0118494Y0027917D01*
X0109694Y0036717D01*
X0110584Y0036717D01*
X0112899Y0037676D01*
X0114672Y0039449D01*
X0115631Y0041764D01*
X0115631Y0044271D01*
X0114672Y0046586D01*
X0114567Y0046690D01*
X0129435Y0061558D01*
X0130168Y0059789D01*
X0131771Y0058185D01*
X0133866Y0057317D01*
X0136134Y0057317D01*
X0138229Y0058185D01*
X0139832Y0059789D01*
X0140000Y0060194D01*
X0140168Y0059789D01*
X0141771Y0058185D01*
X0143866Y0057317D01*
X0146134Y0057317D01*
X0148229Y0058185D01*
X0149832Y0059789D01*
X0150000Y0060194D01*
X0150168Y0059789D01*
X0150522Y0059434D01*
X0139743Y0048655D01*
X0138143Y0049317D01*
X0135637Y0049317D01*
X0133321Y0048358D01*
X0131549Y0046586D01*
X0130590Y0044271D01*
X0130590Y0041764D01*
X0131549Y0039449D01*
X0133321Y0037676D01*
X0135637Y0036717D01*
X0138143Y0036717D01*
X0140458Y0037676D01*
X0142231Y0039449D01*
X0143190Y0041764D01*
X0143190Y0044271D01*
X0142884Y0045008D01*
X0153494Y0055617D01*
X0161706Y0055617D01*
X0154342Y0048254D01*
X0154238Y0048358D01*
X0151922Y0049317D01*
X0149416Y0049317D01*
X0147101Y0048358D01*
X0145328Y0046586D01*
X0144369Y0044271D01*
X0144369Y0041764D01*
X0145328Y0039449D01*
X0147101Y0037676D01*
X0149416Y0036717D01*
X0151922Y0036717D01*
X0154238Y0037676D01*
X0156010Y0039449D01*
X0156969Y0041764D01*
X0156969Y0044093D01*
X0158655Y0045779D01*
X0158031Y0044271D01*
X0158031Y0041764D01*
X0158990Y0039449D01*
X0160762Y0037676D01*
X0163078Y0036717D01*
X0165584Y0036717D01*
X0167899Y0037676D01*
X0169672Y0039449D01*
X0170631Y0041764D01*
X0170631Y0044271D01*
X0170343Y0044966D01*
X0175994Y0050617D01*
X0184206Y0050617D01*
X0181813Y0048224D01*
X0181679Y0048358D01*
X0179363Y0049317D01*
X0176857Y0049317D01*
X0174542Y0048358D01*
X0172769Y0046586D01*
X0171810Y0044271D01*
X0171810Y0041764D01*
X0172769Y0039449D01*
X0174542Y0037676D01*
X0176857Y0036717D01*
X0179363Y0036717D01*
X0181679Y0037676D01*
X0183451Y0039449D01*
X0184410Y0041764D01*
X0184410Y0044033D01*
X0186256Y0045880D01*
X0185590Y0044271D01*
X0185590Y0041764D01*
X0186549Y0039449D01*
X0188321Y0037676D01*
X0190637Y0036717D01*
X0193143Y0036717D01*
X0195458Y0037676D01*
X0197231Y0039449D01*
X0198190Y0041764D01*
X0198190Y0044271D01*
X0197231Y0046586D01*
X0195699Y0048117D01*
X0201860Y0048117D01*
X0200328Y0046586D01*
X0199369Y0044271D01*
X0199369Y0041764D01*
X0200328Y0039449D01*
X0202101Y0037676D01*
X0204416Y0036717D01*
X0206922Y0036717D01*
X0209238Y0037676D01*
X0211010Y0039449D01*
X0211969Y0041764D01*
X0211969Y0044271D01*
X0211010Y0046586D01*
X0209479Y0048117D01*
X0215521Y0048117D01*
X0213990Y0046586D01*
X0213031Y0044271D01*
X0213031Y0041764D01*
X0213990Y0039449D01*
X0215762Y0037676D01*
X0218078Y0036717D01*
X0220584Y0036717D01*
X0222899Y0037676D01*
X0224672Y0039449D01*
X0225631Y0041764D01*
X0225631Y0044271D01*
X0224672Y0046586D01*
X0223140Y0048117D01*
X0229301Y0048117D01*
X0227769Y0046586D01*
X0226810Y0044271D01*
X0226810Y0041764D01*
X0227769Y0039449D01*
X0229542Y0037676D01*
X0231857Y0036717D01*
X0234363Y0036717D01*
X0236679Y0037676D01*
X0238451Y0039449D01*
X0239247Y0041370D01*
X0239535Y0041658D01*
X0240590Y0042713D01*
X0240590Y0041764D01*
X0241549Y0039449D01*
X0243321Y0037676D01*
X0245637Y0036717D01*
X0248143Y0036717D01*
X0250458Y0037676D01*
X0252231Y0039449D01*
X0253190Y0041764D01*
X0253190Y0044271D01*
X0252884Y0045008D01*
X0260994Y0053117D01*
X0269206Y0053117D01*
X0264342Y0048254D01*
X0264238Y0048358D01*
X0261922Y0049317D01*
X0259416Y0049317D01*
X0257101Y0048358D01*
X0255328Y0046586D01*
X0254369Y0044271D01*
X0254369Y0041764D01*
X0255328Y0039449D01*
X0257101Y0037676D01*
X0259416Y0036717D01*
X0261922Y0036717D01*
X0264238Y0037676D01*
X0266010Y0039449D01*
X0266969Y0041764D01*
X0266969Y0044093D01*
X0268655Y0045779D01*
X0268031Y0044271D01*
X0268031Y0041764D01*
X0268990Y0039449D01*
X0270762Y0037676D01*
X0273078Y0036717D01*
X0275584Y0036717D01*
X0277899Y0037676D01*
X0279672Y0039449D01*
X0280631Y0041764D01*
X0280631Y0044271D01*
X0279672Y0046586D01*
X0277899Y0048358D01*
X0275584Y0049317D01*
X0273078Y0049317D01*
X0271569Y0048693D01*
X0273494Y0050617D01*
X0294206Y0050617D01*
X0291813Y0048224D01*
X0291679Y0048358D01*
X0289363Y0049317D01*
X0286857Y0049317D01*
X0284542Y0048358D01*
X0282769Y0046586D01*
X0281810Y0044271D01*
X0281810Y0041764D01*
X0282769Y0039449D01*
X0284542Y0037676D01*
X0286857Y0036717D01*
X0289363Y0036717D01*
X0291679Y0037676D01*
X0293451Y0039449D01*
X0294410Y0041764D01*
X0294410Y0044034D01*
X0296256Y0045880D01*
X0295590Y0044271D01*
X0295590Y0041764D01*
X0296549Y0039449D01*
X0298321Y0037676D01*
X0300637Y0036717D01*
X0303143Y0036717D01*
X0305458Y0037676D01*
X0307231Y0039449D01*
X0308190Y0041764D01*
X0308190Y0044271D01*
X0307231Y0046586D01*
X0305699Y0048117D01*
X0311860Y0048117D01*
X0310328Y0046586D01*
X0309369Y0044271D01*
X0309369Y0041764D01*
X0310328Y0039449D01*
X0312101Y0037676D01*
X0314416Y0036717D01*
X0316922Y0036717D01*
X0319238Y0037676D01*
X0321010Y0039449D01*
X0321969Y0041764D01*
X0321969Y0044271D01*
X0321010Y0046586D01*
X0319479Y0048117D01*
X0325521Y0048117D01*
X0323990Y0046586D01*
X0323031Y0044271D01*
X0323031Y0041764D01*
X0323990Y0039449D01*
X0325762Y0037676D01*
X0328078Y0036717D01*
X0330584Y0036717D01*
X0332899Y0037676D01*
X0334672Y0039449D01*
X0335631Y0041764D01*
X0335631Y0044271D01*
X0335343Y0044966D01*
X0338494Y0048117D01*
X0339301Y0048117D01*
X0337769Y0046586D01*
X0336810Y0044271D01*
X0336810Y0041764D01*
X0337769Y0039449D01*
X0339542Y0037676D01*
X0341857Y0036717D01*
X0344363Y0036717D01*
X0346679Y0037676D01*
X0348451Y0039449D01*
X0349410Y0041764D01*
X0349410Y0044033D01*
X0351256Y0045880D01*
X0350590Y0044271D01*
X0350590Y0041764D01*
X0351549Y0039449D01*
X0353321Y0037676D01*
X0355637Y0036717D01*
X0358143Y0036717D01*
X0360458Y0037676D01*
X0362231Y0039449D01*
X0363190Y0041764D01*
X0363190Y0044271D01*
X0362884Y0045008D01*
X0392035Y0074158D01*
X0392400Y0075040D01*
X0392400Y0108495D01*
X0392035Y0109377D01*
X0390700Y0110711D01*
X0390700Y0115378D01*
X0389478Y0116601D01*
X0389535Y0116658D01*
X0392035Y0119158D01*
X0392400Y0120040D01*
X0392400Y0122223D01*
X0392600Y0122023D01*
X0392600Y0067540D01*
X0392965Y0066658D01*
X0404793Y0054830D01*
X0404659Y0054696D01*
X0403700Y0052381D01*
X0403700Y0049874D01*
X0404659Y0047559D01*
X0406431Y0045787D01*
X0408747Y0044828D01*
X0411253Y0044828D01*
X0413569Y0045787D01*
X0415341Y0047559D01*
X0416300Y0049874D01*
X0416300Y0052381D01*
X0415341Y0054696D01*
X0413569Y0056468D01*
X0411253Y0057428D01*
X0408984Y0057428D01*
X0407138Y0059274D01*
X0408747Y0058607D01*
X0411253Y0058607D01*
X0413569Y0059566D01*
X0415341Y0061338D01*
X0416300Y0063654D01*
X0416300Y0066160D01*
X0415341Y0068476D01*
X0413569Y0070248D01*
X0411253Y0071207D01*
X0408747Y0071207D01*
X0406431Y0070248D01*
X0404659Y0068476D01*
X0403700Y0066160D01*
X0403700Y0063654D01*
X0404366Y0062045D01*
X0397400Y0069011D01*
X0397400Y0123495D01*
X0397035Y0124377D01*
X0396359Y0125052D01*
X0390700Y0130711D01*
X0390700Y0133923D01*
X0397600Y0127023D01*
X0397600Y0090040D01*
X0397965Y0089158D01*
X0404764Y0082360D01*
X0404659Y0082255D01*
X0403700Y0079940D01*
X0403700Y0077434D01*
X0404659Y0075118D01*
X0406431Y0073346D01*
X0408747Y0072387D01*
X0411253Y0072387D01*
X0413569Y0073346D01*
X0415341Y0075118D01*
X0416300Y0077434D01*
X0416300Y0079940D01*
X0415341Y0082255D01*
X0413569Y0084028D01*
X0411253Y0084987D01*
X0408925Y0084987D01*
X0407239Y0086673D01*
X0408747Y0086048D01*
X0411253Y0086048D01*
X0413569Y0087007D01*
X0415341Y0088779D01*
X0416300Y0091095D01*
X0416300Y0093601D01*
X0415341Y0095917D01*
X0413569Y0097689D01*
X0411253Y0098648D01*
X0408747Y0098648D01*
X0406431Y0097689D01*
X0404659Y0095917D01*
X0403700Y0093601D01*
X0403700Y0091095D01*
X0404325Y0089587D01*
X0402400Y0091511D01*
X0402400Y0112223D01*
X0404793Y0109830D01*
X0404659Y0109696D01*
X0403700Y0107381D01*
X0403700Y0104874D01*
X0404659Y0102559D01*
X0406431Y0100787D01*
X0408747Y0099828D01*
X0411253Y0099828D01*
X0413569Y0100787D01*
X0415341Y0102559D01*
X0416300Y0104874D01*
X0416300Y0107381D01*
X0415341Y0109696D01*
X0413569Y0111468D01*
X0411253Y0112428D01*
X0408984Y0112428D01*
X0407138Y0114274D01*
X0408747Y0113607D01*
X0411253Y0113607D01*
X0413569Y0114566D01*
X0415341Y0116338D01*
X0416300Y0118654D01*
X0416300Y0121160D01*
X0415341Y0123476D01*
X0413569Y0125248D01*
X0411253Y0126207D01*
X0408747Y0126207D01*
X0406431Y0125248D01*
X0404900Y0123717D01*
X0404900Y0128495D01*
X0404535Y0129377D01*
X0403859Y0130052D01*
X0402400Y0131511D01*
X0402400Y0138495D01*
X0402035Y0139377D01*
X0401359Y0140052D01*
X0390700Y0150711D01*
X0390700Y0153923D01*
X0406014Y0138610D01*
X0404659Y0137255D01*
X0403700Y0134940D01*
X0403700Y0132434D01*
X0404659Y0130118D01*
X0406431Y0128346D01*
X0408747Y0127387D01*
X0411253Y0127387D01*
X0413569Y0128346D01*
X0415341Y0130118D01*
X0416300Y0132434D01*
X0416300Y0134940D01*
X0415341Y0137255D01*
X0413569Y0139028D01*
X0411546Y0139865D01*
X0411359Y0140052D01*
X0410363Y0141048D01*
X0411253Y0141048D01*
X0413569Y0142007D01*
X0415341Y0143779D01*
X0416300Y0146095D01*
X0416300Y0148601D01*
X0415341Y0150917D01*
X0413569Y0152689D01*
X0411253Y0153648D01*
X0408747Y0153648D01*
X0406431Y0152689D01*
X0404659Y0150917D01*
X0403700Y0148601D01*
X0403700Y0147711D01*
X0390700Y0160711D01*
X0390700Y0165378D01*
X0388061Y0168017D01*
X0390661Y0170617D01*
X0399006Y0170617D01*
X0404793Y0164830D01*
X0404659Y0164696D01*
X0403700Y0162381D01*
X0403700Y0159874D01*
X0404659Y0157559D01*
X0406431Y0155787D01*
X0408747Y0154828D01*
X0411253Y0154828D01*
X0413569Y0155787D01*
X0415341Y0157559D01*
X0416300Y0159874D01*
X0416300Y0162381D01*
X0415341Y0164696D01*
X0413569Y0166468D01*
X0411253Y0167428D01*
X0408984Y0167428D01*
X0407138Y0169274D01*
X0408747Y0168607D01*
X0411253Y0168607D01*
X0413569Y0169566D01*
X0415341Y0171338D01*
X0416300Y0173654D01*
X0416300Y0176160D01*
X0415341Y0178476D01*
X0413569Y0180248D01*
X0411253Y0181207D01*
X0408747Y0181207D01*
X0406840Y0180417D01*
X0390461Y0180417D01*
X0390661Y0180617D01*
X0405477Y0180617D01*
X0406359Y0180983D01*
X0408051Y0182675D01*
X0408747Y0182387D01*
X0411253Y0182387D01*
X0413569Y0183346D01*
X0415341Y0185118D01*
X0416300Y0187434D01*
X0416300Y0189940D01*
X0415341Y0192255D01*
X0413569Y0194028D01*
X0411253Y0194987D01*
X0408747Y0194987D01*
X0407239Y0194362D01*
X0408925Y0196048D01*
X0411253Y0196048D01*
X0413569Y0197007D01*
X0415341Y0198779D01*
X0416300Y0201095D01*
X0416300Y0203601D01*
X0415341Y0205917D01*
X0413569Y0207689D01*
X0411253Y0208648D01*
X0408747Y0208648D01*
X0406431Y0207689D01*
X0404659Y0205917D01*
X0403700Y0203601D01*
X0403700Y0201095D01*
X0404659Y0198779D01*
X0404764Y0198675D01*
X0396506Y0190417D01*
X0390461Y0190417D01*
X0390700Y0190656D01*
X0390700Y0195323D01*
X0406297Y0210921D01*
X0406431Y0210787D01*
X0408747Y0209828D01*
X0411253Y0209828D01*
X0413569Y0210787D01*
X0415341Y0212559D01*
X0416300Y0214874D01*
X0416300Y0217381D01*
X0415341Y0219696D01*
X0413569Y0221468D01*
X0411253Y0222428D01*
X0408747Y0222428D01*
X0407138Y0221761D01*
X0408984Y0223607D01*
X0411253Y0223607D01*
X0413569Y0224566D01*
X0415341Y0226338D01*
X0416300Y0228654D01*
X0416300Y0231160D01*
X0415341Y0233476D01*
X0413569Y0235248D01*
X0411253Y0236207D01*
X0408747Y0236207D01*
X0406431Y0235248D01*
X0404659Y0233476D01*
X0403700Y0231160D01*
X0403700Y0228654D01*
X0404659Y0226338D01*
X0404793Y0226205D01*
X0402400Y0223811D01*
X0402400Y0232023D01*
X0408051Y0237675D01*
X0408747Y0237387D01*
X0411253Y0237387D01*
X0413569Y0238346D01*
X0415341Y0240118D01*
X0416300Y0242434D01*
X0416300Y0244940D01*
X0415341Y0247255D01*
X0413569Y0249028D01*
X0411253Y0249987D01*
X0408747Y0249987D01*
X0406431Y0249028D01*
X0404659Y0247255D01*
X0403700Y0244940D01*
X0403700Y0242434D01*
X0404380Y0240792D01*
X0399900Y0236311D01*
X0399900Y0257023D01*
X0408010Y0265133D01*
X0408747Y0264828D01*
X0411253Y0264828D01*
X0413569Y0265787D01*
X0415341Y0267559D01*
X0416300Y0269874D01*
X0416300Y0272381D01*
X0415341Y0274696D01*
X0413957Y0276080D01*
X0418859Y0280983D01*
X0418859Y0280983D01*
X0419535Y0281658D01*
X0419900Y0282540D01*
X0419900Y0290995D01*
X0419535Y0291877D01*
X0415620Y0295792D01*
X0416300Y0297434D01*
X0416300Y0299940D01*
X0415341Y0302255D01*
X0413569Y0304028D01*
X0411253Y0304987D01*
X0408747Y0304987D01*
X0406431Y0304028D01*
X0404659Y0302255D01*
X0403700Y0299940D01*
X0403700Y0297434D01*
X0404659Y0295118D01*
X0405831Y0293946D02*
X0054985Y0293946D01*
X0054984Y0292348D02*
X0412275Y0292348D01*
X0412358Y0290749D02*
X0413874Y0290749D01*
X0414666Y0289151D02*
X0415100Y0289151D01*
X0419900Y0289151D02*
X0430334Y0289151D01*
X0429659Y0288476D02*
X0428700Y0286160D01*
X0428700Y0283654D01*
X0429659Y0281338D01*
X0431431Y0279566D01*
X0433747Y0278607D01*
X0436253Y0278607D01*
X0438569Y0279566D01*
X0440341Y0281338D01*
X0441300Y0283654D01*
X0441300Y0286160D01*
X0440341Y0288476D01*
X0438569Y0290248D01*
X0436253Y0291207D01*
X0433747Y0291207D01*
X0431431Y0290248D01*
X0429659Y0288476D01*
X0429277Y0287552D02*
X0419900Y0287552D01*
X0419900Y0285954D02*
X0428700Y0285954D01*
X0428700Y0284355D02*
X0419900Y0284355D01*
X0419900Y0282757D02*
X0429072Y0282757D01*
X0429839Y0281158D02*
X0419035Y0281158D01*
X0417437Y0279560D02*
X0431447Y0279560D01*
X0431431Y0276468D02*
X0429659Y0274696D01*
X0428700Y0272381D01*
X0428700Y0269874D01*
X0429659Y0267559D01*
X0431431Y0265787D01*
X0433747Y0264828D01*
X0436253Y0264828D01*
X0438569Y0265787D01*
X0440341Y0267559D01*
X0441300Y0269874D01*
X0441300Y0272381D01*
X0440341Y0274696D01*
X0438569Y0276468D01*
X0436253Y0277428D01*
X0433747Y0277428D01*
X0431431Y0276468D01*
X0431326Y0276363D02*
X0414240Y0276363D01*
X0415273Y0274764D02*
X0429727Y0274764D01*
X0429025Y0273166D02*
X0415975Y0273166D01*
X0416300Y0271567D02*
X0428700Y0271567D01*
X0428700Y0269969D02*
X0416300Y0269969D01*
X0415677Y0268370D02*
X0429323Y0268370D01*
X0430446Y0266772D02*
X0414554Y0266772D01*
X0412088Y0265173D02*
X0432912Y0265173D01*
X0433570Y0263575D02*
X0411430Y0263575D01*
X0411253Y0263648D02*
X0408747Y0263648D01*
X0406431Y0262689D01*
X0404659Y0260917D01*
X0403700Y0258601D01*
X0403700Y0256095D01*
X0404659Y0253779D01*
X0406431Y0252007D01*
X0408747Y0251048D01*
X0411253Y0251048D01*
X0413569Y0252007D01*
X0415341Y0253779D01*
X0416300Y0256095D01*
X0416300Y0258601D01*
X0415341Y0260917D01*
X0413569Y0262689D01*
X0411253Y0263648D01*
X0408570Y0263575D02*
X0406451Y0263575D01*
X0405719Y0261976D02*
X0404853Y0261976D01*
X0404436Y0260378D02*
X0403254Y0260378D01*
X0403774Y0258779D02*
X0401656Y0258779D01*
X0400057Y0257181D02*
X0403700Y0257181D01*
X0403912Y0255582D02*
X0399900Y0255582D01*
X0399900Y0253984D02*
X0404575Y0253984D01*
X0406053Y0252385D02*
X0399900Y0252385D01*
X0399900Y0250787D02*
X0449095Y0250787D01*
X0449097Y0252385D02*
X0438947Y0252385D01*
X0438569Y0252007D02*
X0440341Y0253779D01*
X0441300Y0256095D01*
X0441300Y0258601D01*
X0440341Y0260917D01*
X0438569Y0262689D01*
X0436253Y0263648D01*
X0433747Y0263648D01*
X0431431Y0262689D01*
X0429659Y0260917D01*
X0428700Y0258601D01*
X0428700Y0256095D01*
X0429659Y0253779D01*
X0431431Y0252007D01*
X0433747Y0251048D01*
X0436253Y0251048D01*
X0438569Y0252007D01*
X0440425Y0253984D02*
X0449099Y0253984D01*
X0449101Y0255582D02*
X0441088Y0255582D01*
X0441300Y0257181D02*
X0449103Y0257181D01*
X0449105Y0258779D02*
X0441226Y0258779D01*
X0440564Y0260378D02*
X0449107Y0260378D01*
X0449109Y0261976D02*
X0439281Y0261976D01*
X0436430Y0263575D02*
X0449112Y0263575D01*
X0449114Y0265173D02*
X0437088Y0265173D01*
X0439554Y0266772D02*
X0449116Y0266772D01*
X0449118Y0268370D02*
X0440677Y0268370D01*
X0441300Y0269969D02*
X0449120Y0269969D01*
X0449122Y0271567D02*
X0441300Y0271567D01*
X0440975Y0273166D02*
X0449124Y0273166D01*
X0449126Y0274764D02*
X0440273Y0274764D01*
X0438674Y0276363D02*
X0449128Y0276363D01*
X0449130Y0277961D02*
X0415838Y0277961D01*
X0419900Y0290749D02*
X0432642Y0290749D01*
X0433747Y0292387D02*
X0431431Y0293346D01*
X0429659Y0295118D01*
X0428700Y0297434D01*
X0428700Y0299940D01*
X0429659Y0302255D01*
X0431431Y0304028D01*
X0433747Y0304987D01*
X0436253Y0304987D01*
X0438569Y0304028D01*
X0440341Y0302255D01*
X0441300Y0299940D01*
X0441300Y0297434D01*
X0440341Y0295118D01*
X0438569Y0293346D01*
X0436253Y0292387D01*
X0433747Y0292387D01*
X0430831Y0293946D02*
X0417465Y0293946D01*
X0419064Y0292348D02*
X0449148Y0292348D01*
X0449150Y0293946D02*
X0439169Y0293946D01*
X0440518Y0295545D02*
X0449152Y0295545D01*
X0449154Y0297143D02*
X0441180Y0297143D01*
X0441300Y0298742D02*
X0449156Y0298742D01*
X0449158Y0300340D02*
X0441134Y0300340D01*
X0440472Y0301939D02*
X0449160Y0301939D01*
X0449162Y0303538D02*
X0439059Y0303538D01*
X0430941Y0303538D02*
X0414059Y0303538D01*
X0415472Y0301939D02*
X0429528Y0301939D01*
X0428866Y0300340D02*
X0416134Y0300340D01*
X0416300Y0298742D02*
X0428700Y0298742D01*
X0428820Y0297143D02*
X0416180Y0297143D01*
X0415867Y0295545D02*
X0429482Y0295545D01*
X0437358Y0290749D02*
X0449146Y0290749D01*
X0449144Y0289151D02*
X0439666Y0289151D01*
X0440723Y0287552D02*
X0449142Y0287552D01*
X0449140Y0285954D02*
X0441300Y0285954D01*
X0441300Y0284355D02*
X0449138Y0284355D01*
X0449136Y0282757D02*
X0440928Y0282757D01*
X0440161Y0281158D02*
X0449134Y0281158D01*
X0449132Y0279560D02*
X0438553Y0279560D01*
X0430719Y0261976D02*
X0414281Y0261976D01*
X0415564Y0260378D02*
X0429436Y0260378D01*
X0428774Y0258779D02*
X0416226Y0258779D01*
X0416300Y0257181D02*
X0428700Y0257181D01*
X0428912Y0255582D02*
X0416088Y0255582D01*
X0415425Y0253984D02*
X0429575Y0253984D01*
X0431053Y0252385D02*
X0413947Y0252385D01*
X0413181Y0249188D02*
X0431819Y0249188D01*
X0431431Y0249028D02*
X0429659Y0247255D01*
X0428700Y0244940D01*
X0428700Y0242434D01*
X0429659Y0240118D01*
X0431431Y0238346D01*
X0433747Y0237387D01*
X0436253Y0237387D01*
X0438569Y0238346D01*
X0440341Y0240118D01*
X0441300Y0242434D01*
X0441300Y0244940D01*
X0440341Y0247255D01*
X0438569Y0249028D01*
X0436253Y0249987D01*
X0433747Y0249987D01*
X0431431Y0249028D01*
X0429993Y0247590D02*
X0415007Y0247590D01*
X0415865Y0245991D02*
X0429135Y0245991D01*
X0428700Y0244393D02*
X0416300Y0244393D01*
X0416300Y0242794D02*
X0428700Y0242794D01*
X0429213Y0241196D02*
X0415787Y0241196D01*
X0414820Y0239597D02*
X0430180Y0239597D01*
X0432270Y0237999D02*
X0412730Y0237999D01*
X0414015Y0234802D02*
X0430985Y0234802D01*
X0431431Y0235248D02*
X0429659Y0233476D01*
X0428700Y0231160D01*
X0428700Y0228654D01*
X0429659Y0226338D01*
X0431431Y0224566D01*
X0433747Y0223607D01*
X0436253Y0223607D01*
X0438569Y0224566D01*
X0440341Y0226338D01*
X0441300Y0228654D01*
X0441300Y0231160D01*
X0440341Y0233476D01*
X0438569Y0235248D01*
X0436253Y0236207D01*
X0433747Y0236207D01*
X0431431Y0235248D01*
X0429546Y0233203D02*
X0415454Y0233203D01*
X0416116Y0231604D02*
X0428884Y0231604D01*
X0428700Y0230006D02*
X0416300Y0230006D01*
X0416198Y0228407D02*
X0428802Y0228407D01*
X0429464Y0226809D02*
X0415536Y0226809D01*
X0414213Y0225210D02*
X0430787Y0225210D01*
X0433735Y0223612D02*
X0411265Y0223612D01*
X0412253Y0222013D02*
X0432747Y0222013D01*
X0433747Y0222428D02*
X0431431Y0221468D01*
X0429659Y0219696D01*
X0428700Y0217381D01*
X0428700Y0214874D01*
X0429659Y0212559D01*
X0431431Y0210787D01*
X0433747Y0209828D01*
X0436253Y0209828D01*
X0438569Y0210787D01*
X0440341Y0212559D01*
X0441300Y0214874D01*
X0441300Y0217381D01*
X0440341Y0219696D01*
X0438569Y0221468D01*
X0436253Y0222428D01*
X0433747Y0222428D01*
X0436265Y0223612D02*
X0449061Y0223612D01*
X0449063Y0225210D02*
X0439213Y0225210D01*
X0440536Y0226809D02*
X0449065Y0226809D01*
X0449067Y0228407D02*
X0441198Y0228407D01*
X0441300Y0230006D02*
X0449069Y0230006D01*
X0449071Y0231604D02*
X0441116Y0231604D01*
X0440454Y0233203D02*
X0449073Y0233203D01*
X0449075Y0234802D02*
X0439015Y0234802D01*
X0437730Y0237999D02*
X0449079Y0237999D01*
X0449081Y0239597D02*
X0439820Y0239597D01*
X0440787Y0241196D02*
X0449083Y0241196D01*
X0449085Y0242794D02*
X0441300Y0242794D01*
X0441300Y0244393D02*
X0449087Y0244393D01*
X0449089Y0245991D02*
X0440865Y0245991D01*
X0440007Y0247590D02*
X0449091Y0247590D01*
X0449093Y0249188D02*
X0438181Y0249188D01*
X0449077Y0236400D02*
X0406777Y0236400D01*
X0405985Y0234802D02*
X0405178Y0234802D01*
X0404546Y0233203D02*
X0403580Y0233203D01*
X0403884Y0231604D02*
X0402400Y0231604D01*
X0402400Y0230006D02*
X0403700Y0230006D01*
X0403802Y0228407D02*
X0402400Y0228407D01*
X0402400Y0226809D02*
X0404464Y0226809D01*
X0403799Y0225210D02*
X0402400Y0225210D01*
X0407390Y0222013D02*
X0407747Y0222013D01*
X0414622Y0220415D02*
X0430378Y0220415D01*
X0429295Y0218816D02*
X0415705Y0218816D01*
X0416300Y0217218D02*
X0428700Y0217218D01*
X0428700Y0215619D02*
X0416300Y0215619D01*
X0415946Y0214021D02*
X0429054Y0214021D01*
X0429796Y0212422D02*
X0415204Y0212422D01*
X0413606Y0210824D02*
X0431394Y0210824D01*
X0431431Y0207689D02*
X0429659Y0205917D01*
X0428700Y0203601D01*
X0428700Y0201095D01*
X0429659Y0198779D01*
X0431431Y0197007D01*
X0433747Y0196048D01*
X0436253Y0196048D01*
X0438569Y0197007D01*
X0440341Y0198779D01*
X0441300Y0201095D01*
X0441300Y0203601D01*
X0440341Y0205917D01*
X0438569Y0207689D01*
X0436253Y0208648D01*
X0433747Y0208648D01*
X0431431Y0207689D01*
X0431369Y0207627D02*
X0413631Y0207627D01*
X0415229Y0206028D02*
X0429771Y0206028D01*
X0429043Y0204430D02*
X0415957Y0204430D01*
X0416300Y0202831D02*
X0428700Y0202831D01*
X0428700Y0201233D02*
X0416300Y0201233D01*
X0415695Y0199634D02*
X0429305Y0199634D01*
X0430403Y0198036D02*
X0414597Y0198036D01*
X0412193Y0196437D02*
X0432807Y0196437D01*
X0433390Y0194839D02*
X0411610Y0194839D01*
X0414356Y0193240D02*
X0430644Y0193240D01*
X0431431Y0194028D02*
X0429659Y0192255D01*
X0428700Y0189940D01*
X0428700Y0187434D01*
X0429659Y0185118D01*
X0431431Y0183346D01*
X0433747Y0182387D01*
X0436253Y0182387D01*
X0438569Y0183346D01*
X0440341Y0185118D01*
X0441300Y0187434D01*
X0441300Y0189940D01*
X0440341Y0192255D01*
X0438569Y0194028D01*
X0436253Y0194987D01*
X0433747Y0194987D01*
X0431431Y0194028D01*
X0429405Y0191642D02*
X0415595Y0191642D01*
X0416257Y0190043D02*
X0428743Y0190043D01*
X0428700Y0188445D02*
X0416300Y0188445D01*
X0416057Y0186846D02*
X0428943Y0186846D01*
X0429605Y0185248D02*
X0415395Y0185248D01*
X0413872Y0183649D02*
X0431128Y0183649D01*
X0431924Y0180452D02*
X0413076Y0180452D01*
X0414963Y0178854D02*
X0430037Y0178854D01*
X0429659Y0178476D02*
X0428700Y0176160D01*
X0428700Y0173654D01*
X0429659Y0171338D01*
X0431431Y0169566D01*
X0433747Y0168607D01*
X0436253Y0168607D01*
X0438569Y0169566D01*
X0440341Y0171338D01*
X0441300Y0173654D01*
X0441300Y0176160D01*
X0440341Y0178476D01*
X0438569Y0180248D01*
X0436253Y0181207D01*
X0433747Y0181207D01*
X0431431Y0180248D01*
X0429659Y0178476D01*
X0429153Y0177255D02*
X0415847Y0177255D01*
X0416300Y0175657D02*
X0428700Y0175657D01*
X0428700Y0174058D02*
X0416300Y0174058D01*
X0415805Y0172460D02*
X0429195Y0172460D01*
X0430137Y0170861D02*
X0414863Y0170861D01*
X0412835Y0169263D02*
X0432165Y0169263D01*
X0433747Y0167428D02*
X0431431Y0166468D01*
X0429659Y0164696D01*
X0428700Y0162381D01*
X0428700Y0159874D01*
X0429659Y0157559D01*
X0431431Y0155787D01*
X0433747Y0154828D01*
X0436253Y0154828D01*
X0438569Y0155787D01*
X0440341Y0157559D01*
X0441300Y0159874D01*
X0441300Y0162381D01*
X0440341Y0164696D01*
X0438569Y0166468D01*
X0436253Y0167428D01*
X0433747Y0167428D01*
X0431028Y0166066D02*
X0413972Y0166066D01*
X0415436Y0164467D02*
X0429564Y0164467D01*
X0428902Y0162869D02*
X0416098Y0162869D01*
X0416300Y0161270D02*
X0428700Y0161270D01*
X0428784Y0159671D02*
X0416216Y0159671D01*
X0415554Y0158073D02*
X0429446Y0158073D01*
X0430744Y0156474D02*
X0414256Y0156474D01*
X0411370Y0154876D02*
X0433630Y0154876D01*
X0433747Y0153648D02*
X0431431Y0152689D01*
X0429659Y0150917D01*
X0428700Y0148601D01*
X0428700Y0146095D01*
X0429659Y0143779D01*
X0431431Y0142007D01*
X0433747Y0141048D01*
X0436253Y0141048D01*
X0438569Y0142007D01*
X0440341Y0143779D01*
X0441300Y0146095D01*
X0441300Y0148601D01*
X0440341Y0150917D01*
X0438569Y0152689D01*
X0436253Y0153648D01*
X0433747Y0153648D01*
X0432852Y0153277D02*
X0412148Y0153277D01*
X0414579Y0151679D02*
X0430421Y0151679D01*
X0429313Y0150080D02*
X0415687Y0150080D01*
X0416300Y0148482D02*
X0428700Y0148482D01*
X0428700Y0146883D02*
X0416300Y0146883D01*
X0415964Y0145285D02*
X0429036Y0145285D01*
X0429752Y0143686D02*
X0415248Y0143686D01*
X0413649Y0142088D02*
X0431351Y0142088D01*
X0431431Y0139028D02*
X0429659Y0137255D01*
X0428700Y0134940D01*
X0428700Y0132434D01*
X0429659Y0130118D01*
X0431431Y0128346D01*
X0433747Y0127387D01*
X0436253Y0127387D01*
X0438569Y0128346D01*
X0440341Y0130118D01*
X0441300Y0132434D01*
X0441300Y0134940D01*
X0440341Y0137255D01*
X0438569Y0139028D01*
X0436253Y0139987D01*
X0433747Y0139987D01*
X0431431Y0139028D01*
X0431295Y0138891D02*
X0413705Y0138891D01*
X0415304Y0137292D02*
X0429696Y0137292D01*
X0429012Y0135694D02*
X0415988Y0135694D01*
X0416300Y0134095D02*
X0428700Y0134095D01*
X0428700Y0132497D02*
X0416300Y0132497D01*
X0415664Y0130898D02*
X0429336Y0130898D01*
X0430477Y0129300D02*
X0414523Y0129300D01*
X0412013Y0127701D02*
X0432987Y0127701D01*
X0433747Y0126207D02*
X0431431Y0125248D01*
X0429659Y0123476D01*
X0428700Y0121160D01*
X0428700Y0118654D01*
X0429659Y0116338D01*
X0431431Y0114566D01*
X0433747Y0113607D01*
X0436253Y0113607D01*
X0438569Y0114566D01*
X0440341Y0116338D01*
X0441300Y0118654D01*
X0441300Y0121160D01*
X0440341Y0123476D01*
X0438569Y0125248D01*
X0436253Y0126207D01*
X0433747Y0126207D01*
X0433495Y0126103D02*
X0411505Y0126103D01*
X0408495Y0126103D02*
X0404900Y0126103D01*
X0404900Y0127701D02*
X0407987Y0127701D01*
X0405477Y0129300D02*
X0404567Y0129300D01*
X0404336Y0130898D02*
X0403013Y0130898D01*
X0402400Y0132497D02*
X0403700Y0132497D01*
X0403700Y0134095D02*
X0402400Y0134095D01*
X0402400Y0135694D02*
X0404012Y0135694D01*
X0404696Y0137292D02*
X0402400Y0137292D01*
X0402236Y0138891D02*
X0405732Y0138891D01*
X0404134Y0140489D02*
X0400922Y0140489D01*
X0399324Y0142088D02*
X0402535Y0142088D01*
X0400937Y0143686D02*
X0397725Y0143686D01*
X0396127Y0145285D02*
X0399338Y0145285D01*
X0397740Y0146883D02*
X0394528Y0146883D01*
X0392930Y0148482D02*
X0396141Y0148482D01*
X0394543Y0150080D02*
X0391331Y0150080D01*
X0390700Y0151679D02*
X0392944Y0151679D01*
X0391346Y0153277D02*
X0390700Y0153277D01*
X0394937Y0156474D02*
X0405744Y0156474D01*
X0404446Y0158073D02*
X0393338Y0158073D01*
X0391740Y0159671D02*
X0403784Y0159671D01*
X0403700Y0161270D02*
X0390700Y0161270D01*
X0390700Y0162869D02*
X0403902Y0162869D01*
X0404564Y0164467D02*
X0390700Y0164467D01*
X0390013Y0166066D02*
X0403558Y0166066D01*
X0401959Y0167664D02*
X0388414Y0167664D01*
X0389306Y0169263D02*
X0400361Y0169263D01*
X0407149Y0169263D02*
X0407165Y0169263D01*
X0408747Y0167664D02*
X0448990Y0167664D01*
X0448988Y0166066D02*
X0438972Y0166066D01*
X0440436Y0164467D02*
X0448986Y0164467D01*
X0448984Y0162869D02*
X0441098Y0162869D01*
X0441300Y0161270D02*
X0448982Y0161270D01*
X0448980Y0159671D02*
X0441216Y0159671D01*
X0440554Y0158073D02*
X0448978Y0158073D01*
X0448976Y0156474D02*
X0439256Y0156474D01*
X0436370Y0154876D02*
X0448974Y0154876D01*
X0448972Y0153277D02*
X0437148Y0153277D01*
X0439579Y0151679D02*
X0448970Y0151679D01*
X0448968Y0150080D02*
X0440687Y0150080D01*
X0441300Y0148482D02*
X0448966Y0148482D01*
X0448964Y0146883D02*
X0441300Y0146883D01*
X0440964Y0145285D02*
X0448962Y0145285D01*
X0448960Y0143686D02*
X0440248Y0143686D01*
X0438649Y0142088D02*
X0448958Y0142088D01*
X0448956Y0140489D02*
X0410922Y0140489D01*
X0403700Y0148482D02*
X0402930Y0148482D01*
X0404313Y0150080D02*
X0401331Y0150080D01*
X0399733Y0151679D02*
X0405421Y0151679D01*
X0407852Y0153277D02*
X0398134Y0153277D01*
X0396536Y0154876D02*
X0408630Y0154876D01*
X0392126Y0132497D02*
X0390700Y0132497D01*
X0390700Y0130898D02*
X0393725Y0130898D01*
X0395323Y0129300D02*
X0392112Y0129300D01*
X0393710Y0127701D02*
X0396922Y0127701D01*
X0397600Y0126103D02*
X0395309Y0126103D01*
X0396907Y0124504D02*
X0397600Y0124504D01*
X0397600Y0122906D02*
X0397400Y0122906D01*
X0397400Y0121307D02*
X0397600Y0121307D01*
X0397600Y0119709D02*
X0397400Y0119709D01*
X0397400Y0118110D02*
X0397600Y0118110D01*
X0397600Y0116512D02*
X0397400Y0116512D01*
X0397400Y0114913D02*
X0397600Y0114913D01*
X0397600Y0113315D02*
X0397400Y0113315D01*
X0397400Y0111716D02*
X0397600Y0111716D01*
X0397600Y0110118D02*
X0397400Y0110118D01*
X0397400Y0108519D02*
X0397600Y0108519D01*
X0397600Y0106921D02*
X0397400Y0106921D01*
X0397400Y0105322D02*
X0397600Y0105322D01*
X0397600Y0103724D02*
X0397400Y0103724D01*
X0397400Y0102125D02*
X0397600Y0102125D01*
X0397600Y0100527D02*
X0397400Y0100527D01*
X0397400Y0098928D02*
X0397600Y0098928D01*
X0397600Y0097330D02*
X0397400Y0097330D01*
X0397400Y0095731D02*
X0397600Y0095731D01*
X0397600Y0094133D02*
X0397400Y0094133D01*
X0397400Y0092534D02*
X0397600Y0092534D01*
X0397600Y0090935D02*
X0397400Y0090935D01*
X0397400Y0089337D02*
X0397891Y0089337D01*
X0397400Y0087738D02*
X0399385Y0087738D01*
X0400983Y0086140D02*
X0397400Y0086140D01*
X0397400Y0084541D02*
X0402582Y0084541D01*
X0404180Y0082943D02*
X0397400Y0082943D01*
X0397400Y0081344D02*
X0404282Y0081344D01*
X0403700Y0079746D02*
X0397400Y0079746D01*
X0397400Y0078147D02*
X0403700Y0078147D01*
X0404066Y0076549D02*
X0397400Y0076549D01*
X0397400Y0074950D02*
X0404827Y0074950D01*
X0406425Y0073352D02*
X0397400Y0073352D01*
X0397400Y0071753D02*
X0448869Y0071753D01*
X0448867Y0070155D02*
X0438662Y0070155D01*
X0438569Y0070248D02*
X0436253Y0071207D01*
X0433747Y0071207D01*
X0431431Y0070248D01*
X0429659Y0068476D01*
X0428700Y0066160D01*
X0428700Y0063654D01*
X0429659Y0061338D01*
X0431431Y0059566D01*
X0433747Y0058607D01*
X0436253Y0058607D01*
X0438569Y0059566D01*
X0440341Y0061338D01*
X0441300Y0063654D01*
X0441300Y0066160D01*
X0440341Y0068476D01*
X0438569Y0070248D01*
X0440260Y0068556D02*
X0448865Y0068556D01*
X0448863Y0066958D02*
X0440970Y0066958D01*
X0441300Y0065359D02*
X0448861Y0065359D01*
X0448859Y0063761D02*
X0441300Y0063761D01*
X0440682Y0062162D02*
X0448857Y0062162D01*
X0448855Y0060564D02*
X0439566Y0060564D01*
X0437118Y0058965D02*
X0448853Y0058965D01*
X0448851Y0057367D02*
X0436400Y0057367D01*
X0436253Y0057428D02*
X0433747Y0057428D01*
X0431431Y0056468D01*
X0429659Y0054696D01*
X0428700Y0052381D01*
X0428700Y0049874D01*
X0429659Y0047559D01*
X0431431Y0045787D01*
X0433747Y0044828D01*
X0436253Y0044828D01*
X0438569Y0045787D01*
X0440341Y0047559D01*
X0441300Y0049874D01*
X0441300Y0052381D01*
X0440341Y0054696D01*
X0438569Y0056468D01*
X0436253Y0057428D01*
X0433600Y0057367D02*
X0411400Y0057367D01*
X0412118Y0058965D02*
X0432882Y0058965D01*
X0430434Y0060564D02*
X0414566Y0060564D01*
X0415682Y0062162D02*
X0429318Y0062162D01*
X0428700Y0063761D02*
X0416300Y0063761D01*
X0416300Y0065359D02*
X0428700Y0065359D01*
X0429030Y0066958D02*
X0415970Y0066958D01*
X0415260Y0068556D02*
X0429740Y0068556D01*
X0431338Y0070155D02*
X0413662Y0070155D01*
X0413575Y0073352D02*
X0431425Y0073352D01*
X0431431Y0073346D02*
X0433747Y0072387D01*
X0436253Y0072387D01*
X0438569Y0073346D01*
X0440341Y0075118D01*
X0441300Y0077434D01*
X0441300Y0079940D01*
X0440341Y0082255D01*
X0438569Y0084028D01*
X0436253Y0084987D01*
X0433747Y0084987D01*
X0431431Y0084028D01*
X0429659Y0082255D01*
X0428700Y0079940D01*
X0428700Y0077434D01*
X0429659Y0075118D01*
X0431431Y0073346D01*
X0429827Y0074950D02*
X0415173Y0074950D01*
X0415934Y0076549D02*
X0429066Y0076549D01*
X0428700Y0078147D02*
X0416300Y0078147D01*
X0416300Y0079746D02*
X0428700Y0079746D01*
X0429282Y0081344D02*
X0415718Y0081344D01*
X0414653Y0082943D02*
X0430347Y0082943D01*
X0432672Y0084541D02*
X0412328Y0084541D01*
X0411475Y0086140D02*
X0433525Y0086140D01*
X0433747Y0086048D02*
X0436253Y0086048D01*
X0438569Y0087007D01*
X0440341Y0088779D01*
X0441300Y0091095D01*
X0441300Y0093601D01*
X0440341Y0095917D01*
X0438569Y0097689D01*
X0436253Y0098648D01*
X0433747Y0098648D01*
X0431431Y0097689D01*
X0429659Y0095917D01*
X0428700Y0093601D01*
X0428700Y0091095D01*
X0429659Y0088779D01*
X0431431Y0087007D01*
X0433747Y0086048D01*
X0436475Y0086140D02*
X0448887Y0086140D01*
X0448889Y0087738D02*
X0439300Y0087738D01*
X0440572Y0089337D02*
X0448891Y0089337D01*
X0448893Y0090935D02*
X0441234Y0090935D01*
X0441300Y0092534D02*
X0448895Y0092534D01*
X0448897Y0094133D02*
X0441080Y0094133D01*
X0440418Y0095731D02*
X0448899Y0095731D01*
X0448901Y0097330D02*
X0438928Y0097330D01*
X0437941Y0100527D02*
X0448905Y0100527D01*
X0448907Y0102125D02*
X0439907Y0102125D01*
X0440341Y0102559D02*
X0438569Y0100787D01*
X0436253Y0099828D01*
X0433747Y0099828D01*
X0431431Y0100787D01*
X0429659Y0102559D01*
X0428700Y0104874D01*
X0428700Y0107381D01*
X0429659Y0109696D01*
X0431431Y0111468D01*
X0433747Y0112428D01*
X0436253Y0112428D01*
X0438569Y0111468D01*
X0440341Y0109696D01*
X0441300Y0107381D01*
X0441300Y0104874D01*
X0440341Y0102559D01*
X0440823Y0103724D02*
X0448909Y0103724D01*
X0448911Y0105322D02*
X0441300Y0105322D01*
X0441300Y0106921D02*
X0448913Y0106921D01*
X0448915Y0108519D02*
X0440828Y0108519D01*
X0439920Y0110118D02*
X0448918Y0110118D01*
X0448920Y0111716D02*
X0437971Y0111716D01*
X0438916Y0114913D02*
X0448924Y0114913D01*
X0448922Y0113315D02*
X0408097Y0113315D01*
X0404506Y0110118D02*
X0402400Y0110118D01*
X0402400Y0111716D02*
X0402907Y0111716D01*
X0402400Y0108519D02*
X0404172Y0108519D01*
X0403700Y0106921D02*
X0402400Y0106921D01*
X0402400Y0105322D02*
X0403700Y0105322D01*
X0404177Y0103724D02*
X0402400Y0103724D01*
X0402400Y0102125D02*
X0405093Y0102125D01*
X0407059Y0100527D02*
X0402400Y0100527D01*
X0402400Y0098928D02*
X0448903Y0098928D01*
X0448885Y0084541D02*
X0437328Y0084541D01*
X0439653Y0082943D02*
X0448883Y0082943D01*
X0448881Y0081344D02*
X0440718Y0081344D01*
X0441300Y0079746D02*
X0448879Y0079746D01*
X0448877Y0078147D02*
X0441300Y0078147D01*
X0440934Y0076549D02*
X0448875Y0076549D01*
X0448873Y0074950D02*
X0440173Y0074950D01*
X0438575Y0073352D02*
X0448871Y0073352D01*
X0448849Y0055768D02*
X0439269Y0055768D01*
X0440559Y0054170D02*
X0448847Y0054170D01*
X0448845Y0052571D02*
X0441221Y0052571D01*
X0441300Y0050973D02*
X0448843Y0050973D01*
X0448841Y0049374D02*
X0441093Y0049374D01*
X0440431Y0047776D02*
X0448839Y0047776D01*
X0448837Y0046177D02*
X0438959Y0046177D01*
X0437866Y0042980D02*
X0448833Y0042980D01*
X0448831Y0041382D02*
X0439876Y0041382D01*
X0440341Y0040917D02*
X0438569Y0042689D01*
X0436253Y0043648D01*
X0433747Y0043648D01*
X0431431Y0042689D01*
X0429659Y0040917D01*
X0428700Y0038601D01*
X0428700Y0036095D01*
X0429659Y0033779D01*
X0431431Y0032007D01*
X0433747Y0031048D01*
X0436253Y0031048D01*
X0438569Y0032007D01*
X0440341Y0033779D01*
X0441300Y0036095D01*
X0441300Y0038601D01*
X0440341Y0040917D01*
X0440810Y0039783D02*
X0448829Y0039783D01*
X0448827Y0038185D02*
X0441300Y0038185D01*
X0441300Y0036586D02*
X0448825Y0036586D01*
X0448823Y0034988D02*
X0440841Y0034988D01*
X0439951Y0033389D02*
X0448821Y0033389D01*
X0448818Y0031791D02*
X0438046Y0031791D01*
X0431954Y0031791D02*
X0413046Y0031791D01*
X0413569Y0032007D02*
X0411253Y0031048D01*
X0408747Y0031048D01*
X0406431Y0032007D01*
X0404659Y0033779D01*
X0403700Y0036095D01*
X0403700Y0038601D01*
X0404659Y0040917D01*
X0406431Y0042689D01*
X0408747Y0043648D01*
X0411253Y0043648D01*
X0413569Y0042689D01*
X0415341Y0040917D01*
X0416300Y0038601D01*
X0416300Y0036095D01*
X0415341Y0033779D01*
X0413569Y0032007D01*
X0414951Y0033389D02*
X0430049Y0033389D01*
X0429159Y0034988D02*
X0415841Y0034988D01*
X0416300Y0036586D02*
X0428700Y0036586D01*
X0428700Y0038185D02*
X0416300Y0038185D01*
X0415810Y0039783D02*
X0429190Y0039783D01*
X0430124Y0041382D02*
X0414876Y0041382D01*
X0412866Y0042980D02*
X0432134Y0042980D01*
X0431041Y0046177D02*
X0413959Y0046177D01*
X0415431Y0047776D02*
X0429569Y0047776D01*
X0428907Y0049374D02*
X0416093Y0049374D01*
X0416300Y0050973D02*
X0428700Y0050973D01*
X0428779Y0052571D02*
X0416221Y0052571D01*
X0415559Y0054170D02*
X0429441Y0054170D01*
X0430731Y0055768D02*
X0414269Y0055768D01*
X0407882Y0058965D02*
X0407446Y0058965D01*
X0404318Y0062162D02*
X0404249Y0062162D01*
X0403700Y0063761D02*
X0402651Y0063761D01*
X0403700Y0065359D02*
X0401052Y0065359D01*
X0399454Y0066958D02*
X0404030Y0066958D01*
X0404740Y0068556D02*
X0397855Y0068556D01*
X0397400Y0070155D02*
X0406338Y0070155D01*
X0397461Y0062162D02*
X0380039Y0062162D01*
X0378441Y0060564D02*
X0399059Y0060564D01*
X0400658Y0058965D02*
X0376842Y0058965D01*
X0375243Y0057367D02*
X0402256Y0057367D01*
X0403855Y0055768D02*
X0373645Y0055768D01*
X0372046Y0054170D02*
X0404441Y0054170D01*
X0403779Y0052571D02*
X0370448Y0052571D01*
X0368849Y0050973D02*
X0403700Y0050973D01*
X0403907Y0049374D02*
X0367251Y0049374D01*
X0367101Y0048358D02*
X0365328Y0046586D01*
X0364369Y0044271D01*
X0364369Y0041764D01*
X0365328Y0039449D01*
X0367101Y0037676D01*
X0369416Y0036717D01*
X0371922Y0036717D01*
X0374238Y0037676D01*
X0376010Y0039449D01*
X0376969Y0041764D01*
X0376969Y0044271D01*
X0376010Y0046586D01*
X0374238Y0048358D01*
X0371922Y0049317D01*
X0369416Y0049317D01*
X0367101Y0048358D01*
X0366518Y0047776D02*
X0365652Y0047776D01*
X0365159Y0046177D02*
X0364054Y0046177D01*
X0364497Y0044579D02*
X0363062Y0044579D01*
X0363190Y0042980D02*
X0364369Y0042980D01*
X0364528Y0041382D02*
X0363031Y0041382D01*
X0362369Y0039783D02*
X0365190Y0039783D01*
X0366592Y0038185D02*
X0360967Y0038185D01*
X0352813Y0038185D02*
X0347187Y0038185D01*
X0348590Y0039783D02*
X0351410Y0039783D01*
X0350748Y0041382D02*
X0349252Y0041382D01*
X0349410Y0042980D02*
X0350590Y0042980D01*
X0350717Y0044579D02*
X0349955Y0044579D01*
X0338959Y0047776D02*
X0338152Y0047776D01*
X0337600Y0046177D02*
X0336554Y0046177D01*
X0336938Y0044579D02*
X0335503Y0044579D01*
X0335631Y0042980D02*
X0336810Y0042980D01*
X0336969Y0041382D02*
X0335472Y0041382D01*
X0334810Y0039783D02*
X0337631Y0039783D01*
X0339033Y0038185D02*
X0333407Y0038185D01*
X0325254Y0038185D02*
X0319746Y0038185D01*
X0321149Y0039783D02*
X0323851Y0039783D01*
X0323189Y0041382D02*
X0321811Y0041382D01*
X0321969Y0042980D02*
X0323031Y0042980D01*
X0323158Y0044579D02*
X0321842Y0044579D01*
X0321180Y0046177D02*
X0323820Y0046177D01*
X0325180Y0047776D02*
X0319820Y0047776D01*
X0311518Y0047776D02*
X0306041Y0047776D01*
X0307400Y0046177D02*
X0310159Y0046177D01*
X0309497Y0044579D02*
X0308062Y0044579D01*
X0308190Y0042980D02*
X0309369Y0042980D01*
X0309528Y0041382D02*
X0308031Y0041382D01*
X0307369Y0039783D02*
X0310190Y0039783D01*
X0311592Y0038185D02*
X0305967Y0038185D01*
X0297813Y0038185D02*
X0292187Y0038185D01*
X0293590Y0039783D02*
X0296410Y0039783D01*
X0295748Y0041382D02*
X0294252Y0041382D01*
X0294410Y0042980D02*
X0295590Y0042980D01*
X0295717Y0044579D02*
X0294955Y0044579D01*
X0292963Y0049374D02*
X0272251Y0049374D01*
X0268660Y0052571D02*
X0260448Y0052571D01*
X0258849Y0050973D02*
X0267061Y0050973D01*
X0265463Y0049374D02*
X0257251Y0049374D01*
X0256518Y0047776D02*
X0255652Y0047776D01*
X0255159Y0046177D02*
X0254054Y0046177D01*
X0254497Y0044579D02*
X0253062Y0044579D01*
X0253190Y0042980D02*
X0254369Y0042980D01*
X0254528Y0041382D02*
X0253031Y0041382D01*
X0252369Y0039783D02*
X0255190Y0039783D01*
X0256592Y0038185D02*
X0250967Y0038185D01*
X0242813Y0038185D02*
X0237187Y0038185D01*
X0238590Y0039783D02*
X0241410Y0039783D01*
X0240748Y0041382D02*
X0239258Y0041382D01*
X0229033Y0038185D02*
X0223407Y0038185D01*
X0224810Y0039783D02*
X0227631Y0039783D01*
X0226969Y0041382D02*
X0225472Y0041382D01*
X0225631Y0042980D02*
X0226810Y0042980D01*
X0226938Y0044579D02*
X0225503Y0044579D01*
X0224841Y0046177D02*
X0227600Y0046177D01*
X0228959Y0047776D02*
X0223482Y0047776D01*
X0215180Y0047776D02*
X0209820Y0047776D01*
X0211180Y0046177D02*
X0213820Y0046177D01*
X0213158Y0044579D02*
X0211842Y0044579D01*
X0211969Y0042980D02*
X0213031Y0042980D01*
X0213189Y0041382D02*
X0211811Y0041382D01*
X0211149Y0039783D02*
X0213851Y0039783D01*
X0215254Y0038185D02*
X0209746Y0038185D01*
X0201592Y0038185D02*
X0195967Y0038185D01*
X0197369Y0039783D02*
X0200190Y0039783D01*
X0199528Y0041382D02*
X0198031Y0041382D01*
X0198190Y0042980D02*
X0199369Y0042980D01*
X0199497Y0044579D02*
X0198062Y0044579D01*
X0197400Y0046177D02*
X0200159Y0046177D01*
X0201518Y0047776D02*
X0196041Y0047776D01*
X0185717Y0044579D02*
X0184955Y0044579D01*
X0184410Y0042980D02*
X0185590Y0042980D01*
X0185748Y0041382D02*
X0184252Y0041382D01*
X0183590Y0039783D02*
X0186410Y0039783D01*
X0187813Y0038185D02*
X0182187Y0038185D01*
X0174033Y0038185D02*
X0168407Y0038185D01*
X0169810Y0039783D02*
X0172631Y0039783D01*
X0171969Y0041382D02*
X0170472Y0041382D01*
X0170631Y0042980D02*
X0171810Y0042980D01*
X0171938Y0044579D02*
X0170503Y0044579D01*
X0171554Y0046177D02*
X0172600Y0046177D01*
X0173152Y0047776D02*
X0173959Y0047776D01*
X0174751Y0049374D02*
X0182963Y0049374D01*
X0191954Y0066958D02*
X0200879Y0066958D01*
X0203477Y0068556D02*
X0190355Y0068556D01*
X0188611Y0070155D02*
X0357600Y0070155D01*
X0357600Y0071753D02*
X0102400Y0071753D01*
X0102400Y0070155D02*
X0131389Y0070155D01*
X0129645Y0068556D02*
X0102400Y0068556D01*
X0102400Y0066958D02*
X0128046Y0066958D01*
X0126448Y0065359D02*
X0102400Y0065359D01*
X0102400Y0063761D02*
X0124849Y0063761D01*
X0123251Y0062162D02*
X0102400Y0062162D01*
X0102400Y0061274D02*
X0102400Y0079761D01*
X0103391Y0080752D01*
X0104000Y0082222D01*
X0104000Y0083813D01*
X0103391Y0085283D01*
X0102266Y0086408D01*
X0100796Y0087017D01*
X0099204Y0087017D01*
X0097734Y0086408D01*
X0096609Y0085283D01*
X0096000Y0083813D01*
X0096000Y0082222D01*
X0096609Y0080752D01*
X0097600Y0079761D01*
X0097600Y0061274D01*
X0096609Y0060283D01*
X0096000Y0058813D01*
X0096000Y0057222D01*
X0096609Y0055752D01*
X0097734Y0054626D01*
X0099204Y0054017D01*
X0100796Y0054017D01*
X0102266Y0054626D01*
X0103391Y0055752D01*
X0104000Y0057222D01*
X0104000Y0058813D01*
X0103391Y0060283D01*
X0102400Y0061274D01*
X0103110Y0060564D02*
X0121652Y0060564D01*
X0120054Y0058965D02*
X0103937Y0058965D01*
X0104000Y0057367D02*
X0118455Y0057367D01*
X0116857Y0055768D02*
X0103398Y0055768D01*
X0101163Y0054170D02*
X0115258Y0054170D01*
X0113660Y0052571D02*
X0094900Y0052571D01*
X0094900Y0054170D02*
X0098837Y0054170D01*
X0096602Y0055768D02*
X0094900Y0055768D01*
X0094900Y0057367D02*
X0096000Y0057367D01*
X0096063Y0058965D02*
X0094900Y0058965D01*
X0094900Y0060564D02*
X0096890Y0060564D01*
X0097600Y0062162D02*
X0094900Y0062162D01*
X0094900Y0063761D02*
X0097600Y0063761D01*
X0097600Y0065359D02*
X0094900Y0065359D01*
X0094900Y0066958D02*
X0097600Y0066958D01*
X0097600Y0068556D02*
X0094900Y0068556D01*
X0094900Y0070155D02*
X0097600Y0070155D01*
X0097600Y0071753D02*
X0094900Y0071753D01*
X0094900Y0073352D02*
X0097600Y0073352D01*
X0097600Y0074950D02*
X0094900Y0074950D01*
X0094900Y0076549D02*
X0097600Y0076549D01*
X0097600Y0078147D02*
X0094900Y0078147D01*
X0094900Y0079746D02*
X0097600Y0079746D01*
X0096363Y0081344D02*
X0094900Y0081344D01*
X0094900Y0082943D02*
X0096000Y0082943D01*
X0096302Y0084541D02*
X0094900Y0084541D01*
X0094900Y0086140D02*
X0097466Y0086140D01*
X0095378Y0087738D02*
X0119800Y0087738D01*
X0119800Y0086140D02*
X0102534Y0086140D01*
X0103698Y0084541D02*
X0121122Y0084541D01*
X0122572Y0082943D02*
X0104000Y0082943D01*
X0103637Y0081344D02*
X0120973Y0081344D01*
X0119800Y0079746D02*
X0102400Y0079746D01*
X0102400Y0078147D02*
X0119800Y0078147D01*
X0119800Y0076549D02*
X0102400Y0076549D01*
X0102400Y0074950D02*
X0120713Y0074950D01*
X0122312Y0073352D02*
X0102400Y0073352D01*
X0090100Y0073352D02*
X0081175Y0073352D01*
X0081300Y0073654D02*
X0080341Y0071338D01*
X0078569Y0069566D01*
X0076253Y0068607D01*
X0073747Y0068607D01*
X0071431Y0069566D01*
X0069659Y0071338D01*
X0068700Y0073654D01*
X0068700Y0076160D01*
X0069659Y0078476D01*
X0071431Y0080248D01*
X0073747Y0081207D01*
X0076253Y0081207D01*
X0078569Y0080248D01*
X0080341Y0078476D01*
X0081300Y0076160D01*
X0081300Y0073654D01*
X0081300Y0074950D02*
X0090100Y0074950D01*
X0090100Y0076549D02*
X0081139Y0076549D01*
X0080477Y0078147D02*
X0090100Y0078147D01*
X0090100Y0079746D02*
X0079071Y0079746D01*
X0077596Y0082943D02*
X0090100Y0082943D01*
X0090100Y0084541D02*
X0079764Y0084541D01*
X0080764Y0086140D02*
X0090100Y0086140D01*
X0089622Y0087738D02*
X0081300Y0087738D01*
X0078315Y0094133D02*
X0090775Y0094133D01*
X0094225Y0094133D02*
X0113753Y0094133D01*
X0113747Y0095731D02*
X0054861Y0095731D01*
X0054860Y0094133D02*
X0071685Y0094133D01*
X0069938Y0092534D02*
X0054859Y0092534D01*
X0054858Y0090935D02*
X0069112Y0090935D01*
X0068700Y0089337D02*
X0054857Y0089337D01*
X0054856Y0087738D02*
X0068700Y0087738D01*
X0069236Y0086140D02*
X0054855Y0086140D01*
X0054854Y0084541D02*
X0070236Y0084541D01*
X0072404Y0082943D02*
X0054853Y0082943D01*
X0054852Y0081344D02*
X0090100Y0081344D01*
X0090100Y0071753D02*
X0080513Y0071753D01*
X0079157Y0070155D02*
X0090100Y0070155D01*
X0090100Y0068556D02*
X0054844Y0068556D01*
X0054843Y0066958D02*
X0072613Y0066958D01*
X0073747Y0067428D02*
X0071431Y0066468D01*
X0069659Y0064696D01*
X0068700Y0062381D01*
X0068700Y0059874D01*
X0069659Y0057559D01*
X0071431Y0055787D01*
X0073747Y0054828D01*
X0076253Y0054828D01*
X0078569Y0055787D01*
X0080341Y0057559D01*
X0081300Y0059874D01*
X0081300Y0062381D01*
X0080341Y0064696D01*
X0078569Y0066468D01*
X0076253Y0067428D01*
X0073747Y0067428D01*
X0077387Y0066958D02*
X0090100Y0066958D01*
X0090100Y0065359D02*
X0079678Y0065359D01*
X0080728Y0063761D02*
X0090100Y0063761D01*
X0090100Y0062162D02*
X0081300Y0062162D01*
X0081300Y0060564D02*
X0090100Y0060564D01*
X0090100Y0058965D02*
X0080923Y0058965D01*
X0080149Y0057367D02*
X0090100Y0057367D01*
X0090100Y0055768D02*
X0078524Y0055768D01*
X0077342Y0053001D02*
X0076428Y0053298D01*
X0075480Y0053448D01*
X0075184Y0053448D01*
X0075184Y0047532D01*
X0081100Y0047532D01*
X0081100Y0047828D01*
X0080950Y0048777D01*
X0080653Y0049690D01*
X0080217Y0050545D01*
X0079653Y0051322D01*
X0078974Y0052001D01*
X0078197Y0052565D01*
X0077342Y0053001D01*
X0078185Y0052571D02*
X0090100Y0052571D01*
X0090100Y0050973D02*
X0079907Y0050973D01*
X0080756Y0049374D02*
X0090376Y0049374D01*
X0091848Y0047776D02*
X0081100Y0047776D01*
X0081100Y0047164D02*
X0075184Y0047164D01*
X0075184Y0041248D01*
X0075480Y0041248D01*
X0076428Y0041398D01*
X0077342Y0041695D01*
X0078197Y0042131D01*
X0078974Y0042695D01*
X0079653Y0043374D01*
X0080217Y0044151D01*
X0080653Y0045006D01*
X0080950Y0045920D01*
X0081100Y0046868D01*
X0081100Y0047164D01*
X0080991Y0046177D02*
X0093446Y0046177D01*
X0095045Y0044579D02*
X0080435Y0044579D01*
X0079259Y0042980D02*
X0096643Y0042980D01*
X0098242Y0041382D02*
X0076323Y0041382D01*
X0075184Y0041382D02*
X0074816Y0041382D01*
X0074816Y0041248D02*
X0074816Y0047164D01*
X0075184Y0047164D01*
X0075184Y0047532D01*
X0074816Y0047532D01*
X0074816Y0047164D01*
X0068900Y0047164D01*
X0068900Y0046868D01*
X0069050Y0045920D01*
X0069347Y0045006D01*
X0069783Y0044151D01*
X0070347Y0043374D01*
X0071026Y0042695D01*
X0071803Y0042131D01*
X0072658Y0041695D01*
X0073572Y0041398D01*
X0074520Y0041248D01*
X0074816Y0041248D01*
X0073677Y0041382D02*
X0054827Y0041382D01*
X0054828Y0042980D02*
X0070741Y0042980D01*
X0069565Y0044579D02*
X0054829Y0044579D01*
X0054830Y0046177D02*
X0069009Y0046177D01*
X0068900Y0047532D02*
X0074816Y0047532D01*
X0074816Y0053448D01*
X0074520Y0053448D01*
X0073572Y0053298D01*
X0072658Y0053001D01*
X0071803Y0052565D01*
X0071026Y0052001D01*
X0070347Y0051322D01*
X0069783Y0050545D01*
X0069347Y0049690D01*
X0069050Y0048777D01*
X0068900Y0047828D01*
X0068900Y0047532D01*
X0068900Y0047776D02*
X0054831Y0047776D01*
X0054832Y0049374D02*
X0069244Y0049374D01*
X0070093Y0050973D02*
X0054833Y0050973D01*
X0054834Y0052571D02*
X0071815Y0052571D01*
X0074816Y0052571D02*
X0075184Y0052571D01*
X0075184Y0050973D02*
X0074816Y0050973D01*
X0074816Y0049374D02*
X0075184Y0049374D01*
X0075184Y0047776D02*
X0074816Y0047776D01*
X0074816Y0046177D02*
X0075184Y0046177D01*
X0075184Y0044579D02*
X0074816Y0044579D01*
X0074816Y0042980D02*
X0075184Y0042980D01*
X0070131Y0036586D02*
X0089869Y0036586D01*
X0089917Y0036621D02*
X0089217Y0036113D01*
X0088605Y0035500D01*
X0088096Y0034800D01*
X0087703Y0034029D01*
X0087435Y0033205D01*
X0087300Y0032350D01*
X0087300Y0032117D01*
X0092600Y0032117D01*
X0092600Y0031717D01*
X0093000Y0031717D01*
X0093000Y0026417D01*
X0093233Y0026417D01*
X0094088Y0026553D01*
X0094911Y0026820D01*
X0095683Y0027213D01*
X0096383Y0027722D01*
X0096995Y0028334D01*
X0097504Y0029035D01*
X0097897Y0029806D01*
X0098165Y0030629D01*
X0098300Y0031484D01*
X0098300Y0031717D01*
X0093000Y0031717D01*
X0093000Y0032117D01*
X0098300Y0032117D01*
X0098300Y0032350D01*
X0098165Y0033205D01*
X0097897Y0034029D01*
X0097504Y0034800D01*
X0096995Y0035500D01*
X0096383Y0036113D01*
X0095683Y0036621D01*
X0094911Y0037014D01*
X0094088Y0037282D01*
X0093233Y0037417D01*
X0093000Y0037417D01*
X0093000Y0032117D01*
X0092600Y0032117D01*
X0092600Y0037417D01*
X0092367Y0037417D01*
X0091512Y0037282D01*
X0090689Y0037014D01*
X0089917Y0036621D01*
X0088232Y0034988D02*
X0071768Y0034988D01*
X0071904Y0034800D02*
X0071395Y0035500D01*
X0070783Y0036113D01*
X0070083Y0036621D01*
X0069311Y0037014D01*
X0068488Y0037282D01*
X0067633Y0037417D01*
X0067400Y0037417D01*
X0067400Y0032117D01*
X0072700Y0032117D01*
X0072700Y0032350D01*
X0072565Y0033205D01*
X0072297Y0034029D01*
X0071904Y0034800D01*
X0072505Y0033389D02*
X0087495Y0033389D01*
X0087300Y0031717D02*
X0087300Y0031484D01*
X0087435Y0030629D01*
X0087703Y0029806D01*
X0088096Y0029035D01*
X0088605Y0028334D01*
X0089217Y0027722D01*
X0089917Y0027213D01*
X0090689Y0026820D01*
X0091512Y0026553D01*
X0092367Y0026417D01*
X0092600Y0026417D01*
X0092600Y0031717D01*
X0087300Y0031717D01*
X0087578Y0030192D02*
X0072422Y0030192D01*
X0072297Y0029806D02*
X0072565Y0030629D01*
X0072700Y0031484D01*
X0072700Y0031717D01*
X0067400Y0031717D01*
X0067400Y0026417D01*
X0067633Y0026417D01*
X0068488Y0026553D01*
X0069311Y0026820D01*
X0070083Y0027213D01*
X0070783Y0027722D01*
X0071395Y0028334D01*
X0071904Y0029035D01*
X0072297Y0029806D01*
X0071583Y0028594D02*
X0088417Y0028594D01*
X0090346Y0026995D02*
X0069654Y0026995D01*
X0067400Y0026995D02*
X0067000Y0026995D01*
X0067000Y0026417D02*
X0067000Y0031717D01*
X0067400Y0031717D01*
X0067400Y0032117D01*
X0067000Y0032117D01*
X0067000Y0031717D01*
X0061700Y0031717D01*
X0061700Y0031484D01*
X0061835Y0030629D01*
X0062103Y0029806D01*
X0062496Y0029035D01*
X0063005Y0028334D01*
X0063617Y0027722D01*
X0064317Y0027213D01*
X0065089Y0026820D01*
X0065912Y0026553D01*
X0066767Y0026417D01*
X0067000Y0026417D01*
X0067000Y0028594D02*
X0067400Y0028594D01*
X0067400Y0030192D02*
X0067000Y0030192D01*
X0067000Y0031791D02*
X0054821Y0031791D01*
X0054822Y0033389D02*
X0061895Y0033389D01*
X0061835Y0033205D02*
X0061700Y0032350D01*
X0061700Y0032117D01*
X0067000Y0032117D01*
X0067000Y0037417D01*
X0066767Y0037417D01*
X0065912Y0037282D01*
X0065089Y0037014D01*
X0064317Y0036621D01*
X0063617Y0036113D01*
X0063005Y0035500D01*
X0062496Y0034800D01*
X0062103Y0034029D01*
X0061835Y0033205D01*
X0062632Y0034988D02*
X0054823Y0034988D01*
X0054824Y0036586D02*
X0064269Y0036586D01*
X0067000Y0036586D02*
X0067400Y0036586D01*
X0067400Y0034988D02*
X0067000Y0034988D01*
X0067000Y0033389D02*
X0067400Y0033389D01*
X0067400Y0031791D02*
X0092600Y0031791D01*
X0093000Y0031791D02*
X0107833Y0031791D01*
X0106234Y0033389D02*
X0098105Y0033389D01*
X0097368Y0034988D02*
X0104636Y0034988D01*
X0103037Y0036586D02*
X0095731Y0036586D01*
X0093000Y0036586D02*
X0092600Y0036586D01*
X0092600Y0034988D02*
X0093000Y0034988D01*
X0093000Y0033389D02*
X0092600Y0033389D01*
X0092600Y0030192D02*
X0093000Y0030192D01*
X0093000Y0028594D02*
X0092600Y0028594D01*
X0092600Y0026995D02*
X0093000Y0026995D01*
X0095254Y0026995D02*
X0112628Y0026995D01*
X0111030Y0028594D02*
X0097183Y0028594D01*
X0098022Y0030192D02*
X0109431Y0030192D01*
X0113022Y0033389D02*
X0405049Y0033389D01*
X0404159Y0034988D02*
X0111424Y0034988D01*
X0109825Y0036586D02*
X0403700Y0036586D01*
X0403700Y0038185D02*
X0374746Y0038185D01*
X0376149Y0039783D02*
X0404190Y0039783D01*
X0405124Y0041382D02*
X0376811Y0041382D01*
X0376969Y0042980D02*
X0407134Y0042980D01*
X0406041Y0046177D02*
X0376180Y0046177D01*
X0376842Y0044579D02*
X0448835Y0044579D01*
X0448816Y0030192D02*
X0116219Y0030192D01*
X0114621Y0031791D02*
X0406954Y0031791D01*
X0409548Y0023670D02*
X0408693Y0023235D01*
X0407916Y0022670D01*
X0407237Y0021991D01*
X0406673Y0021214D01*
X0406237Y0020359D01*
X0405940Y0019446D01*
X0405790Y0018497D01*
X0405790Y0018202D01*
X0411705Y0018202D01*
X0411705Y0024117D01*
X0411410Y0024117D01*
X0410461Y0023967D01*
X0409548Y0023670D01*
X0409941Y0023798D02*
X0400059Y0023798D01*
X0398294Y0023798D02*
X0397926Y0023798D01*
X0397926Y0022200D02*
X0398294Y0022200D01*
X0398294Y0020601D02*
X0397926Y0020601D01*
X0397926Y0019002D02*
X0398294Y0019002D01*
X0402555Y0022200D02*
X0407445Y0022200D01*
X0406360Y0020601D02*
X0403640Y0020601D01*
X0404130Y0019002D02*
X0405870Y0019002D01*
X0405811Y0017404D02*
X0404189Y0017404D01*
X0403805Y0015805D02*
X0406195Y0015805D01*
X0407118Y0014207D02*
X0402882Y0014207D01*
X0395212Y0009411D02*
X0096155Y0009411D01*
X0096029Y0009285D02*
X0097632Y0010889D01*
X0098500Y0012984D01*
X0098500Y0015251D01*
X0097632Y0017346D01*
X0096029Y0018950D01*
X0093934Y0019817D01*
X0091666Y0019817D01*
X0089571Y0018950D01*
X0088539Y0017917D01*
X0071461Y0017917D01*
X0070429Y0018950D01*
X0068334Y0019817D01*
X0066066Y0019817D01*
X0063971Y0018950D01*
X0062368Y0017346D01*
X0061500Y0015251D01*
X0061500Y0012984D01*
X0062368Y0010889D01*
X0063971Y0009285D01*
X0066066Y0008417D01*
X0068334Y0008417D01*
X0070429Y0009285D01*
X0072032Y0010889D01*
X0072900Y0012984D01*
X0072900Y0013117D01*
X0087100Y0013117D01*
X0087100Y0012984D01*
X0087968Y0010889D01*
X0089571Y0009285D01*
X0091666Y0008417D01*
X0093934Y0008417D01*
X0096029Y0009285D01*
X0097682Y0011010D02*
X0393613Y0011010D01*
X0392015Y0012608D02*
X0387735Y0012608D01*
X0389430Y0014207D02*
X0390416Y0014207D01*
X0390080Y0020601D02*
X0392580Y0020601D01*
X0393666Y0022200D02*
X0389058Y0022200D01*
X0386838Y0023798D02*
X0396161Y0023798D01*
X0381824Y0023798D02*
X0380113Y0023798D01*
X0378515Y0025397D02*
X0448810Y0025397D01*
X0448812Y0026995D02*
X0376916Y0026995D01*
X0376522Y0020601D02*
X0376418Y0020601D01*
X0376969Y0019002D02*
X0378031Y0019002D01*
X0378031Y0017404D02*
X0376969Y0017404D01*
X0376572Y0015805D02*
X0378428Y0015805D01*
X0379232Y0014207D02*
X0375768Y0014207D01*
X0374074Y0012608D02*
X0380926Y0012608D01*
X0367265Y0012608D02*
X0360294Y0012608D01*
X0361989Y0014207D02*
X0365570Y0014207D01*
X0364766Y0015805D02*
X0362793Y0015805D01*
X0363190Y0017404D02*
X0364369Y0017404D01*
X0364369Y0019002D02*
X0363190Y0019002D01*
X0362639Y0020601D02*
X0364920Y0020601D01*
X0365942Y0022200D02*
X0361617Y0022200D01*
X0352162Y0022200D02*
X0347838Y0022200D01*
X0348859Y0020601D02*
X0351141Y0020601D01*
X0350590Y0019002D02*
X0349410Y0019002D01*
X0349410Y0017404D02*
X0350590Y0017404D01*
X0350987Y0015805D02*
X0349013Y0015805D01*
X0348209Y0014207D02*
X0351791Y0014207D01*
X0353485Y0012608D02*
X0346515Y0012608D01*
X0339706Y0012608D02*
X0332735Y0012608D01*
X0334430Y0014207D02*
X0338011Y0014207D01*
X0337207Y0015805D02*
X0335234Y0015805D01*
X0335631Y0017404D02*
X0336810Y0017404D01*
X0336810Y0019002D02*
X0335631Y0019002D01*
X0335080Y0020601D02*
X0337361Y0020601D01*
X0338383Y0022200D02*
X0334058Y0022200D01*
X0324603Y0022200D02*
X0320397Y0022200D01*
X0321418Y0020601D02*
X0323582Y0020601D01*
X0323031Y0019002D02*
X0321969Y0019002D01*
X0321969Y0017404D02*
X0323031Y0017404D01*
X0323428Y0015805D02*
X0321572Y0015805D01*
X0320768Y0014207D02*
X0324232Y0014207D01*
X0325926Y0012608D02*
X0319074Y0012608D01*
X0312265Y0012608D02*
X0305294Y0012608D01*
X0306989Y0014207D02*
X0310570Y0014207D01*
X0309766Y0015805D02*
X0307793Y0015805D01*
X0308190Y0017404D02*
X0309369Y0017404D01*
X0309369Y0019002D02*
X0308190Y0019002D01*
X0307639Y0020601D02*
X0309920Y0020601D01*
X0310942Y0022200D02*
X0306617Y0022200D01*
X0297162Y0022200D02*
X0292838Y0022200D01*
X0293859Y0020601D02*
X0296141Y0020601D01*
X0295590Y0019002D02*
X0294410Y0019002D01*
X0294410Y0017404D02*
X0295590Y0017404D01*
X0295987Y0015805D02*
X0294013Y0015805D01*
X0293209Y0014207D02*
X0296791Y0014207D01*
X0298485Y0012608D02*
X0291515Y0012608D01*
X0284706Y0012608D02*
X0277735Y0012608D01*
X0279430Y0014207D02*
X0283011Y0014207D01*
X0282207Y0015805D02*
X0280234Y0015805D01*
X0280631Y0017404D02*
X0281810Y0017404D01*
X0281810Y0019002D02*
X0280631Y0019002D01*
X0280080Y0020601D02*
X0282361Y0020601D01*
X0283383Y0022200D02*
X0279058Y0022200D01*
X0269603Y0022200D02*
X0265397Y0022200D01*
X0266418Y0020601D02*
X0268582Y0020601D01*
X0268031Y0019002D02*
X0266969Y0019002D01*
X0266969Y0017404D02*
X0268031Y0017404D01*
X0268428Y0015805D02*
X0266572Y0015805D01*
X0265768Y0014207D02*
X0269232Y0014207D01*
X0270926Y0012608D02*
X0264074Y0012608D01*
X0257265Y0012608D02*
X0250294Y0012608D01*
X0251989Y0014207D02*
X0255570Y0014207D01*
X0254766Y0015805D02*
X0252793Y0015805D01*
X0253190Y0017404D02*
X0254369Y0017404D01*
X0254369Y0019002D02*
X0253190Y0019002D01*
X0252639Y0020601D02*
X0254920Y0020601D01*
X0255942Y0022200D02*
X0251617Y0022200D01*
X0242162Y0022200D02*
X0237838Y0022200D01*
X0238859Y0020601D02*
X0241141Y0020601D01*
X0240590Y0019002D02*
X0239410Y0019002D01*
X0239410Y0017404D02*
X0240590Y0017404D01*
X0240987Y0015805D02*
X0239013Y0015805D01*
X0238209Y0014207D02*
X0241791Y0014207D01*
X0243485Y0012608D02*
X0236515Y0012608D01*
X0229706Y0012608D02*
X0222735Y0012608D01*
X0224430Y0014207D02*
X0228011Y0014207D01*
X0227207Y0015805D02*
X0225234Y0015805D01*
X0225631Y0017404D02*
X0226810Y0017404D01*
X0226810Y0019002D02*
X0225631Y0019002D01*
X0225080Y0020601D02*
X0227361Y0020601D01*
X0228383Y0022200D02*
X0224058Y0022200D01*
X0214603Y0022200D02*
X0210397Y0022200D01*
X0211418Y0020601D02*
X0213582Y0020601D01*
X0213031Y0019002D02*
X0211969Y0019002D01*
X0211969Y0017404D02*
X0213031Y0017404D01*
X0213428Y0015805D02*
X0211572Y0015805D01*
X0210768Y0014207D02*
X0214232Y0014207D01*
X0215926Y0012608D02*
X0209074Y0012608D01*
X0202265Y0012608D02*
X0195294Y0012608D01*
X0196989Y0014207D02*
X0200570Y0014207D01*
X0199766Y0015805D02*
X0197793Y0015805D01*
X0198190Y0017404D02*
X0199369Y0017404D01*
X0199369Y0019002D02*
X0198190Y0019002D01*
X0197639Y0020601D02*
X0199920Y0020601D01*
X0200942Y0022200D02*
X0196617Y0022200D01*
X0187162Y0022200D02*
X0182838Y0022200D01*
X0183859Y0020601D02*
X0186141Y0020601D01*
X0185590Y0019002D02*
X0184410Y0019002D01*
X0184410Y0017404D02*
X0185590Y0017404D01*
X0185987Y0015805D02*
X0184013Y0015805D01*
X0183209Y0014207D02*
X0186791Y0014207D01*
X0188485Y0012608D02*
X0181515Y0012608D01*
X0174706Y0012608D02*
X0167735Y0012608D01*
X0169430Y0014207D02*
X0173011Y0014207D01*
X0172207Y0015805D02*
X0170234Y0015805D01*
X0170631Y0017404D02*
X0171810Y0017404D01*
X0171810Y0019002D02*
X0170631Y0019002D01*
X0170080Y0020601D02*
X0172361Y0020601D01*
X0173383Y0022200D02*
X0169058Y0022200D01*
X0159603Y0022200D02*
X0155397Y0022200D01*
X0156418Y0020601D02*
X0158582Y0020601D01*
X0158031Y0019002D02*
X0156969Y0019002D01*
X0156969Y0017404D02*
X0158031Y0017404D01*
X0158428Y0015805D02*
X0156572Y0015805D01*
X0155768Y0014207D02*
X0159232Y0014207D01*
X0160926Y0012608D02*
X0154074Y0012608D01*
X0147265Y0012608D02*
X0140294Y0012608D01*
X0141989Y0014207D02*
X0145570Y0014207D01*
X0144766Y0015805D02*
X0142793Y0015805D01*
X0143190Y0017404D02*
X0144369Y0017404D01*
X0144369Y0019002D02*
X0143190Y0019002D01*
X0142639Y0020601D02*
X0144920Y0020601D01*
X0145942Y0022200D02*
X0141617Y0022200D01*
X0132162Y0022200D02*
X0127838Y0022200D01*
X0128859Y0020601D02*
X0131141Y0020601D01*
X0130590Y0019002D02*
X0129410Y0019002D01*
X0129410Y0017404D02*
X0130590Y0017404D01*
X0130987Y0015805D02*
X0129013Y0015805D01*
X0128209Y0014207D02*
X0131791Y0014207D01*
X0133485Y0012608D02*
X0126515Y0012608D01*
X0119706Y0012608D02*
X0112735Y0012608D01*
X0112899Y0012676D02*
X0110584Y0011717D01*
X0108078Y0011717D01*
X0105762Y0012676D01*
X0103990Y0014449D01*
X0103031Y0016764D01*
X0103031Y0019271D01*
X0103990Y0021586D01*
X0105762Y0023358D01*
X0108078Y0024317D01*
X0110584Y0024317D01*
X0112899Y0023358D01*
X0114672Y0021586D01*
X0115631Y0019271D01*
X0115631Y0016764D01*
X0114672Y0014449D01*
X0112899Y0012676D01*
X0114430Y0014207D02*
X0118011Y0014207D01*
X0117207Y0015805D02*
X0115234Y0015805D01*
X0115631Y0017404D02*
X0116810Y0017404D01*
X0116810Y0019002D02*
X0115631Y0019002D01*
X0115080Y0020601D02*
X0117361Y0020601D01*
X0118383Y0022200D02*
X0114058Y0022200D01*
X0115825Y0023798D02*
X0111838Y0023798D01*
X0114227Y0025397D02*
X0054817Y0025397D01*
X0054818Y0026995D02*
X0064746Y0026995D01*
X0062817Y0028594D02*
X0054819Y0028594D01*
X0054820Y0030192D02*
X0061978Y0030192D01*
X0054816Y0023798D02*
X0106824Y0023798D01*
X0104603Y0022200D02*
X0054815Y0022200D01*
X0054814Y0020601D02*
X0103582Y0020601D01*
X0103031Y0019002D02*
X0095901Y0019002D01*
X0097574Y0017404D02*
X0103031Y0017404D01*
X0103428Y0015805D02*
X0098270Y0015805D01*
X0098500Y0014207D02*
X0104232Y0014207D01*
X0105926Y0012608D02*
X0098345Y0012608D01*
X0089445Y0009411D02*
X0070555Y0009411D01*
X0072082Y0011010D02*
X0087917Y0011010D01*
X0087255Y0012608D02*
X0072745Y0012608D01*
X0070301Y0019002D02*
X0089699Y0019002D01*
X0064099Y0019002D02*
X0054813Y0019002D01*
X0054812Y0017404D02*
X0062426Y0017404D01*
X0061730Y0015805D02*
X0054811Y0015805D01*
X0054810Y0014207D02*
X0061500Y0014207D01*
X0061655Y0012608D02*
X0054809Y0012608D01*
X0054808Y0011010D02*
X0062317Y0011010D01*
X0063845Y0009411D02*
X0054807Y0009411D01*
X0054806Y0007813D02*
X0448788Y0007813D01*
X0448790Y0009411D02*
X0419788Y0009411D01*
X0421387Y0011010D02*
X0448792Y0011010D01*
X0448794Y0012608D02*
X0429074Y0012608D01*
X0430768Y0014207D02*
X0448796Y0014207D01*
X0448798Y0015805D02*
X0431572Y0015805D01*
X0431969Y0017404D02*
X0448800Y0017404D01*
X0448802Y0019002D02*
X0431969Y0019002D01*
X0431418Y0020601D02*
X0448804Y0020601D01*
X0448806Y0022200D02*
X0430397Y0022200D01*
X0428176Y0023798D02*
X0448808Y0023798D01*
X0448814Y0028594D02*
X0117818Y0028594D01*
X0121857Y0036717D02*
X0119542Y0037676D01*
X0117769Y0039449D01*
X0116810Y0041764D01*
X0116810Y0044271D01*
X0117769Y0046586D01*
X0119542Y0048358D01*
X0121857Y0049317D01*
X0124363Y0049317D01*
X0126679Y0048358D01*
X0128451Y0046586D01*
X0129410Y0044271D01*
X0129410Y0041764D01*
X0128451Y0039449D01*
X0126679Y0037676D01*
X0124363Y0036717D01*
X0121857Y0036717D01*
X0119033Y0038185D02*
X0113407Y0038185D01*
X0114810Y0039783D02*
X0117631Y0039783D01*
X0116969Y0041382D02*
X0115472Y0041382D01*
X0115631Y0042980D02*
X0116810Y0042980D01*
X0116938Y0044579D02*
X0115503Y0044579D01*
X0114841Y0046177D02*
X0117600Y0046177D01*
X0118959Y0047776D02*
X0115652Y0047776D01*
X0117251Y0049374D02*
X0140463Y0049374D01*
X0142061Y0050973D02*
X0118849Y0050973D01*
X0120448Y0052571D02*
X0143660Y0052571D01*
X0145258Y0054170D02*
X0122046Y0054170D01*
X0123645Y0055768D02*
X0146857Y0055768D01*
X0146253Y0057367D02*
X0148455Y0057367D01*
X0149009Y0058965D02*
X0150054Y0058965D01*
X0152046Y0054170D02*
X0160258Y0054170D01*
X0158660Y0052571D02*
X0150448Y0052571D01*
X0148849Y0050973D02*
X0157061Y0050973D01*
X0155463Y0049374D02*
X0147251Y0049374D01*
X0146518Y0047776D02*
X0145652Y0047776D01*
X0145159Y0046177D02*
X0144054Y0046177D01*
X0144497Y0044579D02*
X0143062Y0044579D01*
X0143190Y0042980D02*
X0144369Y0042980D01*
X0144528Y0041382D02*
X0143031Y0041382D01*
X0142369Y0039783D02*
X0145190Y0039783D01*
X0146592Y0038185D02*
X0140967Y0038185D01*
X0132813Y0038185D02*
X0127187Y0038185D01*
X0128590Y0039783D02*
X0131410Y0039783D01*
X0130748Y0041382D02*
X0129252Y0041382D01*
X0129410Y0042980D02*
X0130590Y0042980D01*
X0130717Y0044579D02*
X0129283Y0044579D01*
X0128620Y0046177D02*
X0131380Y0046177D01*
X0132739Y0047776D02*
X0127261Y0047776D01*
X0125243Y0057367D02*
X0133747Y0057367D01*
X0136253Y0057367D02*
X0143747Y0057367D01*
X0140991Y0058965D02*
X0139009Y0058965D01*
X0130991Y0058965D02*
X0126842Y0058965D01*
X0128441Y0060564D02*
X0129847Y0060564D01*
X0127688Y0073352D02*
X0132312Y0073352D01*
X0130713Y0074950D02*
X0129287Y0074950D01*
X0137688Y0073352D02*
X0142312Y0073352D01*
X0140713Y0074950D02*
X0139287Y0074950D01*
X0147688Y0073352D02*
X0152312Y0073352D01*
X0150713Y0074950D02*
X0149287Y0074950D01*
X0157688Y0073352D02*
X0162312Y0073352D01*
X0160713Y0074950D02*
X0159287Y0074950D01*
X0167688Y0073352D02*
X0172312Y0073352D01*
X0170713Y0074950D02*
X0169287Y0074950D01*
X0177688Y0073352D02*
X0182312Y0073352D01*
X0180713Y0074950D02*
X0179287Y0074950D01*
X0187688Y0073352D02*
X0192312Y0073352D01*
X0190713Y0074950D02*
X0189287Y0074950D01*
X0197688Y0073352D02*
X0202312Y0073352D01*
X0200713Y0074950D02*
X0199287Y0074950D01*
X0207688Y0073352D02*
X0212312Y0073352D01*
X0210713Y0074950D02*
X0209287Y0074950D01*
X0206523Y0068556D02*
X0213477Y0068556D01*
X0216523Y0068556D02*
X0223477Y0068556D01*
X0226523Y0068556D02*
X0233477Y0068556D01*
X0236523Y0068556D02*
X0243477Y0068556D01*
X0246523Y0068556D02*
X0253477Y0068556D01*
X0256523Y0068556D02*
X0263477Y0068556D01*
X0266523Y0068556D02*
X0273477Y0068556D01*
X0276523Y0068556D02*
X0293477Y0068556D01*
X0296523Y0068556D02*
X0303477Y0068556D01*
X0306523Y0068556D02*
X0313477Y0068556D01*
X0316523Y0068556D02*
X0323477Y0068556D01*
X0326523Y0068556D02*
X0333477Y0068556D01*
X0336523Y0068556D02*
X0343477Y0068556D01*
X0346523Y0068556D02*
X0353477Y0068556D01*
X0356523Y0068556D02*
X0357600Y0068556D01*
X0352312Y0073352D02*
X0347688Y0073352D01*
X0349287Y0074950D02*
X0350713Y0074950D01*
X0342312Y0073352D02*
X0337688Y0073352D01*
X0339287Y0074950D02*
X0340713Y0074950D01*
X0332312Y0073352D02*
X0327688Y0073352D01*
X0329287Y0074950D02*
X0330713Y0074950D01*
X0322312Y0073352D02*
X0317688Y0073352D01*
X0319287Y0074950D02*
X0320713Y0074950D01*
X0312312Y0073352D02*
X0307688Y0073352D01*
X0309287Y0074950D02*
X0310713Y0074950D01*
X0302312Y0073352D02*
X0297688Y0073352D01*
X0299287Y0074950D02*
X0300713Y0074950D01*
X0292312Y0073352D02*
X0287688Y0073352D01*
X0289287Y0074950D02*
X0290713Y0074950D01*
X0282312Y0073352D02*
X0277688Y0073352D01*
X0279287Y0074950D02*
X0280713Y0074950D01*
X0272312Y0073352D02*
X0267688Y0073352D01*
X0269287Y0074950D02*
X0270713Y0074950D01*
X0262312Y0073352D02*
X0257688Y0073352D01*
X0259287Y0074950D02*
X0260713Y0074950D01*
X0252312Y0073352D02*
X0247688Y0073352D01*
X0249287Y0074950D02*
X0250713Y0074950D01*
X0242312Y0073352D02*
X0237688Y0073352D01*
X0239287Y0074950D02*
X0240713Y0074950D01*
X0232312Y0073352D02*
X0227688Y0073352D01*
X0229287Y0074950D02*
X0230713Y0074950D01*
X0222312Y0073352D02*
X0217688Y0073352D01*
X0219287Y0074950D02*
X0220713Y0074950D01*
X0220879Y0066958D02*
X0219121Y0066958D01*
X0210879Y0066958D02*
X0209121Y0066958D01*
X0229121Y0066958D02*
X0230879Y0066958D01*
X0239121Y0066958D02*
X0240879Y0066958D01*
X0249121Y0066958D02*
X0250879Y0066958D01*
X0259121Y0066958D02*
X0260879Y0066958D01*
X0269121Y0066958D02*
X0270879Y0066958D01*
X0279121Y0066958D02*
X0290879Y0066958D01*
X0289800Y0065359D02*
X0280200Y0065359D01*
X0280700Y0063761D02*
X0289300Y0063761D01*
X0289300Y0062162D02*
X0280700Y0062162D01*
X0280153Y0060564D02*
X0289847Y0060564D01*
X0299121Y0066958D02*
X0300879Y0066958D01*
X0309121Y0066958D02*
X0310879Y0066958D01*
X0319121Y0066958D02*
X0320879Y0066958D01*
X0329121Y0066958D02*
X0330879Y0066958D01*
X0339121Y0066958D02*
X0340879Y0066958D01*
X0349121Y0066958D02*
X0350879Y0066958D01*
X0372400Y0066958D02*
X0378046Y0066958D01*
X0376448Y0065359D02*
X0372400Y0065359D01*
X0372400Y0063761D02*
X0374849Y0063761D01*
X0373251Y0062162D02*
X0372400Y0062162D01*
X0372400Y0061311D02*
X0372400Y0077925D01*
X0373866Y0077317D01*
X0376134Y0077317D01*
X0378229Y0078185D01*
X0379832Y0079789D01*
X0380119Y0080482D01*
X0380296Y0080135D01*
X0380805Y0079434D01*
X0381417Y0078822D01*
X0382117Y0078313D01*
X0382889Y0077920D01*
X0383712Y0077653D01*
X0384567Y0077517D01*
X0384800Y0077517D01*
X0384800Y0082817D01*
X0385200Y0082817D01*
X0385200Y0077517D01*
X0385433Y0077517D01*
X0386288Y0077653D01*
X0387111Y0077920D01*
X0387600Y0078169D01*
X0387600Y0076511D01*
X0372400Y0061311D01*
X0372400Y0068556D02*
X0379645Y0068556D01*
X0381243Y0070155D02*
X0372400Y0070155D01*
X0372400Y0071753D02*
X0382842Y0071753D01*
X0384440Y0073352D02*
X0372400Y0073352D01*
X0372400Y0074950D02*
X0386039Y0074950D01*
X0387600Y0076549D02*
X0372400Y0076549D01*
X0378138Y0078147D02*
X0382443Y0078147D01*
X0384800Y0078147D02*
X0385200Y0078147D01*
X0385200Y0079746D02*
X0384800Y0079746D01*
X0384800Y0081344D02*
X0385200Y0081344D01*
X0387557Y0078147D02*
X0387600Y0078147D01*
X0380578Y0079746D02*
X0379790Y0079746D01*
X0389630Y0071753D02*
X0392600Y0071753D01*
X0392600Y0070155D02*
X0388032Y0070155D01*
X0386433Y0068556D02*
X0392600Y0068556D01*
X0392841Y0066958D02*
X0384835Y0066958D01*
X0383236Y0065359D02*
X0394264Y0065359D01*
X0395862Y0063761D02*
X0381638Y0063761D01*
X0391229Y0073352D02*
X0392600Y0073352D01*
X0392600Y0074950D02*
X0392363Y0074950D01*
X0392400Y0076549D02*
X0392600Y0076549D01*
X0392600Y0078147D02*
X0392400Y0078147D01*
X0392400Y0079746D02*
X0392600Y0079746D01*
X0392600Y0081344D02*
X0392400Y0081344D01*
X0392400Y0082943D02*
X0392600Y0082943D01*
X0392600Y0084541D02*
X0392400Y0084541D01*
X0392400Y0086140D02*
X0392600Y0086140D01*
X0392600Y0087738D02*
X0392400Y0087738D01*
X0392400Y0089337D02*
X0392600Y0089337D01*
X0392600Y0090935D02*
X0392400Y0090935D01*
X0392400Y0092534D02*
X0392600Y0092534D01*
X0392600Y0094133D02*
X0392400Y0094133D01*
X0392400Y0095731D02*
X0392600Y0095731D01*
X0392600Y0097330D02*
X0392400Y0097330D01*
X0392400Y0098928D02*
X0392600Y0098928D01*
X0392600Y0100527D02*
X0392400Y0100527D01*
X0392400Y0102125D02*
X0392600Y0102125D01*
X0392600Y0103724D02*
X0392400Y0103724D01*
X0392400Y0105322D02*
X0392600Y0105322D01*
X0392600Y0106921D02*
X0392400Y0106921D01*
X0392390Y0108519D02*
X0392600Y0108519D01*
X0392600Y0110118D02*
X0391294Y0110118D01*
X0390700Y0111716D02*
X0392600Y0111716D01*
X0392600Y0113315D02*
X0390700Y0113315D01*
X0390700Y0114913D02*
X0392600Y0114913D01*
X0392600Y0116512D02*
X0389567Y0116512D01*
X0389535Y0116658D02*
X0389535Y0116658D01*
X0390987Y0118110D02*
X0392600Y0118110D01*
X0392600Y0119709D02*
X0392263Y0119709D01*
X0392400Y0121307D02*
X0392600Y0121307D01*
X0404900Y0124504D02*
X0405688Y0124504D01*
X0414312Y0124504D02*
X0430688Y0124504D01*
X0429423Y0122906D02*
X0415577Y0122906D01*
X0416239Y0121307D02*
X0428761Y0121307D01*
X0428700Y0119709D02*
X0416300Y0119709D01*
X0416075Y0118110D02*
X0428925Y0118110D01*
X0429587Y0116512D02*
X0415413Y0116512D01*
X0413916Y0114913D02*
X0431084Y0114913D01*
X0432029Y0111716D02*
X0412971Y0111716D01*
X0414920Y0110118D02*
X0430080Y0110118D01*
X0429172Y0108519D02*
X0415828Y0108519D01*
X0416300Y0106921D02*
X0428700Y0106921D01*
X0428700Y0105322D02*
X0416300Y0105322D01*
X0415823Y0103724D02*
X0429177Y0103724D01*
X0430093Y0102125D02*
X0414907Y0102125D01*
X0412941Y0100527D02*
X0432059Y0100527D01*
X0431072Y0097330D02*
X0413928Y0097330D01*
X0415418Y0095731D02*
X0429582Y0095731D01*
X0428920Y0094133D02*
X0416080Y0094133D01*
X0416300Y0092534D02*
X0428700Y0092534D01*
X0428766Y0090935D02*
X0416234Y0090935D01*
X0415572Y0089337D02*
X0429428Y0089337D01*
X0430700Y0087738D02*
X0414300Y0087738D01*
X0408525Y0086140D02*
X0407771Y0086140D01*
X0403766Y0090935D02*
X0402976Y0090935D01*
X0402400Y0092534D02*
X0403700Y0092534D01*
X0403920Y0094133D02*
X0402400Y0094133D01*
X0402400Y0095731D02*
X0404582Y0095731D01*
X0406072Y0097330D02*
X0402400Y0097330D01*
X0370248Y0119709D02*
X0360253Y0119709D01*
X0360500Y0118110D02*
X0369199Y0118110D01*
X0367600Y0116512D02*
X0360329Y0116512D01*
X0359667Y0114913D02*
X0366002Y0114913D01*
X0364403Y0113315D02*
X0358019Y0113315D01*
X0358655Y0111716D02*
X0362805Y0111716D01*
X0361206Y0110118D02*
X0360200Y0110118D01*
X0359488Y0121307D02*
X0369300Y0121307D01*
X0369300Y0122906D02*
X0357571Y0122906D01*
X0352429Y0122906D02*
X0347571Y0122906D01*
X0349488Y0121307D02*
X0350512Y0121307D01*
X0342429Y0122906D02*
X0337571Y0122906D01*
X0339488Y0121307D02*
X0340512Y0121307D01*
X0332429Y0122906D02*
X0327571Y0122906D01*
X0329488Y0121307D02*
X0330512Y0121307D01*
X0322429Y0122906D02*
X0317571Y0122906D01*
X0319488Y0121307D02*
X0320512Y0121307D01*
X0312429Y0122906D02*
X0307571Y0122906D01*
X0309488Y0121307D02*
X0310512Y0121307D01*
X0302429Y0122906D02*
X0297571Y0122906D01*
X0299488Y0121307D02*
X0300512Y0121307D01*
X0292429Y0122906D02*
X0287571Y0122906D01*
X0289488Y0121307D02*
X0290512Y0121307D01*
X0282429Y0122906D02*
X0277571Y0122906D01*
X0279488Y0121307D02*
X0280512Y0121307D01*
X0272429Y0122906D02*
X0267571Y0122906D01*
X0269488Y0121307D02*
X0270512Y0121307D01*
X0262429Y0122906D02*
X0257571Y0122906D01*
X0259488Y0121307D02*
X0260512Y0121307D01*
X0252429Y0122906D02*
X0247571Y0122906D01*
X0249488Y0121307D02*
X0250512Y0121307D01*
X0242429Y0122906D02*
X0237571Y0122906D01*
X0239488Y0121307D02*
X0240512Y0121307D01*
X0232429Y0122906D02*
X0227571Y0122906D01*
X0229488Y0121307D02*
X0230512Y0121307D01*
X0222429Y0122906D02*
X0217571Y0122906D01*
X0219488Y0121307D02*
X0220512Y0121307D01*
X0212429Y0122906D02*
X0207571Y0122906D01*
X0209488Y0121307D02*
X0210512Y0121307D01*
X0202429Y0122906D02*
X0197571Y0122906D01*
X0199488Y0121307D02*
X0200512Y0121307D01*
X0192429Y0122906D02*
X0187571Y0122906D01*
X0189488Y0121307D02*
X0190512Y0121307D01*
X0182429Y0122906D02*
X0177571Y0122906D01*
X0179488Y0121307D02*
X0180512Y0121307D01*
X0172429Y0122906D02*
X0167571Y0122906D01*
X0169488Y0121307D02*
X0170512Y0121307D01*
X0162429Y0122906D02*
X0118656Y0122906D01*
X0118650Y0124504D02*
X0369300Y0124504D01*
X0370024Y0126103D02*
X0118645Y0126103D01*
X0118640Y0127701D02*
X0137159Y0127701D01*
X0136175Y0129300D02*
X0118634Y0129300D01*
X0118629Y0130898D02*
X0136000Y0130898D01*
X0136490Y0132497D02*
X0118623Y0132497D01*
X0118618Y0134095D02*
X0138185Y0134095D01*
X0141815Y0134095D02*
X0369300Y0134095D01*
X0369615Y0135694D02*
X0118613Y0135694D01*
X0118607Y0137292D02*
X0371214Y0137292D01*
X0371066Y0138891D02*
X0118602Y0138891D01*
X0118597Y0140489D02*
X0141974Y0140489D01*
X0142054Y0140409D02*
X0143966Y0139617D01*
X0146034Y0139617D01*
X0147946Y0140409D01*
X0149408Y0141872D01*
X0150000Y0143300D01*
X0150592Y0141872D01*
X0152054Y0140409D01*
X0153966Y0139617D01*
X0156034Y0139617D01*
X0157946Y0140409D01*
X0159408Y0141872D01*
X0160000Y0143300D01*
X0160592Y0141872D01*
X0162054Y0140409D01*
X0163966Y0139617D01*
X0166034Y0139617D01*
X0167946Y0140409D01*
X0169408Y0141872D01*
X0170000Y0143300D01*
X0170592Y0141872D01*
X0172054Y0140409D01*
X0173966Y0139617D01*
X0176034Y0139617D01*
X0177946Y0140409D01*
X0179408Y0141872D01*
X0180000Y0143300D01*
X0180592Y0141872D01*
X0182054Y0140409D01*
X0183966Y0139617D01*
X0186034Y0139617D01*
X0187946Y0140409D01*
X0189408Y0141872D01*
X0190000Y0143300D01*
X0190592Y0141872D01*
X0192054Y0140409D01*
X0193966Y0139617D01*
X0196034Y0139617D01*
X0197946Y0140409D01*
X0199408Y0141872D01*
X0200000Y0143300D01*
X0200592Y0141872D01*
X0202054Y0140409D01*
X0203966Y0139617D01*
X0206034Y0139617D01*
X0207946Y0140409D01*
X0209408Y0141872D01*
X0210000Y0143300D01*
X0210592Y0141872D01*
X0212054Y0140409D01*
X0213966Y0139617D01*
X0216034Y0139617D01*
X0217946Y0140409D01*
X0219408Y0141872D01*
X0220000Y0143300D01*
X0220592Y0141872D01*
X0222054Y0140409D01*
X0223966Y0139617D01*
X0226034Y0139617D01*
X0227946Y0140409D01*
X0229408Y0141872D01*
X0230000Y0143300D01*
X0230592Y0141872D01*
X0232054Y0140409D01*
X0233966Y0139617D01*
X0236034Y0139617D01*
X0237946Y0140409D01*
X0239408Y0141872D01*
X0240000Y0143300D01*
X0240592Y0141872D01*
X0242054Y0140409D01*
X0243966Y0139617D01*
X0246034Y0139617D01*
X0247946Y0140409D01*
X0249408Y0141872D01*
X0250000Y0143300D01*
X0250592Y0141872D01*
X0252054Y0140409D01*
X0253966Y0139617D01*
X0256034Y0139617D01*
X0257946Y0140409D01*
X0259408Y0141872D01*
X0260000Y0143300D01*
X0260592Y0141872D01*
X0262054Y0140409D01*
X0263966Y0139617D01*
X0266034Y0139617D01*
X0267946Y0140409D01*
X0269408Y0141872D01*
X0270000Y0143300D01*
X0270592Y0141872D01*
X0272054Y0140409D01*
X0273966Y0139617D01*
X0276034Y0139617D01*
X0277946Y0140409D01*
X0279408Y0141872D01*
X0280000Y0143300D01*
X0280592Y0141872D01*
X0282054Y0140409D01*
X0283966Y0139617D01*
X0286034Y0139617D01*
X0287946Y0140409D01*
X0289408Y0141872D01*
X0290000Y0143300D01*
X0290592Y0141872D01*
X0292054Y0140409D01*
X0293966Y0139617D01*
X0296034Y0139617D01*
X0297946Y0140409D01*
X0299408Y0141872D01*
X0300000Y0143300D01*
X0300592Y0141872D01*
X0302054Y0140409D01*
X0303966Y0139617D01*
X0306034Y0139617D01*
X0307946Y0140409D01*
X0309408Y0141872D01*
X0310000Y0143300D01*
X0310592Y0141872D01*
X0312054Y0140409D01*
X0313966Y0139617D01*
X0316034Y0139617D01*
X0317946Y0140409D01*
X0319408Y0141872D01*
X0320000Y0143300D01*
X0320592Y0141872D01*
X0322054Y0140409D01*
X0323966Y0139617D01*
X0326034Y0139617D01*
X0327946Y0140409D01*
X0329408Y0141872D01*
X0330000Y0143300D01*
X0330592Y0141872D01*
X0332054Y0140409D01*
X0333966Y0139617D01*
X0336034Y0139617D01*
X0337946Y0140409D01*
X0339408Y0141872D01*
X0340200Y0143783D01*
X0340200Y0152252D01*
X0339408Y0154163D01*
X0338054Y0155517D01*
X0339408Y0156872D01*
X0340200Y0158783D01*
X0340200Y0167252D01*
X0339408Y0169163D01*
X0337946Y0170626D01*
X0336034Y0171417D01*
X0333966Y0171417D01*
X0332054Y0170626D01*
X0330592Y0169163D01*
X0330000Y0167735D01*
X0329408Y0169163D01*
X0327946Y0170626D01*
X0326034Y0171417D01*
X0323966Y0171417D01*
X0322054Y0170626D01*
X0320592Y0169163D01*
X0320000Y0167735D01*
X0319408Y0169163D01*
X0317946Y0170626D01*
X0316034Y0171417D01*
X0313966Y0171417D01*
X0312054Y0170626D01*
X0310592Y0169163D01*
X0310000Y0167735D01*
X0309408Y0169163D01*
X0307946Y0170626D01*
X0306034Y0171417D01*
X0303966Y0171417D01*
X0302054Y0170626D01*
X0300592Y0169163D01*
X0300000Y0167735D01*
X0299408Y0169163D01*
X0297946Y0170626D01*
X0296034Y0171417D01*
X0293966Y0171417D01*
X0292054Y0170626D01*
X0290592Y0169163D01*
X0290000Y0167735D01*
X0289408Y0169163D01*
X0287946Y0170626D01*
X0286034Y0171417D01*
X0283966Y0171417D01*
X0282054Y0170626D01*
X0280592Y0169163D01*
X0280000Y0167735D01*
X0279408Y0169163D01*
X0277946Y0170626D01*
X0276034Y0171417D01*
X0273966Y0171417D01*
X0272054Y0170626D01*
X0270592Y0169163D01*
X0270000Y0167735D01*
X0269408Y0169163D01*
X0267946Y0170626D01*
X0266034Y0171417D01*
X0263966Y0171417D01*
X0262054Y0170626D01*
X0260592Y0169163D01*
X0260000Y0167735D01*
X0259408Y0169163D01*
X0257946Y0170626D01*
X0256034Y0171417D01*
X0253966Y0171417D01*
X0252054Y0170626D01*
X0250592Y0169163D01*
X0250000Y0167735D01*
X0249408Y0169163D01*
X0247946Y0170626D01*
X0246034Y0171417D01*
X0243966Y0171417D01*
X0242054Y0170626D01*
X0240592Y0169163D01*
X0240000Y0167735D01*
X0239408Y0169163D01*
X0237946Y0170626D01*
X0236034Y0171417D01*
X0233966Y0171417D01*
X0232054Y0170626D01*
X0230592Y0169163D01*
X0230000Y0167735D01*
X0229408Y0169163D01*
X0227946Y0170626D01*
X0226034Y0171417D01*
X0223966Y0171417D01*
X0222054Y0170626D01*
X0220592Y0169163D01*
X0220000Y0167735D01*
X0219408Y0169163D01*
X0217946Y0170626D01*
X0216034Y0171417D01*
X0213966Y0171417D01*
X0212054Y0170626D01*
X0210592Y0169163D01*
X0210000Y0167735D01*
X0209408Y0169163D01*
X0207946Y0170626D01*
X0206034Y0171417D01*
X0203966Y0171417D01*
X0202054Y0170626D01*
X0200592Y0169163D01*
X0200000Y0167735D01*
X0199408Y0169163D01*
X0197946Y0170626D01*
X0196034Y0171417D01*
X0193966Y0171417D01*
X0192054Y0170626D01*
X0190592Y0169163D01*
X0190000Y0167735D01*
X0189408Y0169163D01*
X0187946Y0170626D01*
X0186034Y0171417D01*
X0183966Y0171417D01*
X0182054Y0170626D01*
X0180592Y0169163D01*
X0180000Y0167735D01*
X0179408Y0169163D01*
X0177946Y0170626D01*
X0176034Y0171417D01*
X0173966Y0171417D01*
X0172054Y0170626D01*
X0170592Y0169163D01*
X0170000Y0167735D01*
X0169408Y0169163D01*
X0167946Y0170626D01*
X0166034Y0171417D01*
X0163966Y0171417D01*
X0162054Y0170626D01*
X0160592Y0169163D01*
X0160000Y0167735D01*
X0159408Y0169163D01*
X0157946Y0170626D01*
X0156034Y0171417D01*
X0153966Y0171417D01*
X0152054Y0170626D01*
X0150592Y0169163D01*
X0149868Y0167416D01*
X0149634Y0168137D01*
X0149276Y0168838D01*
X0148814Y0169475D01*
X0148257Y0170031D01*
X0147621Y0170494D01*
X0146919Y0170851D01*
X0146171Y0171094D01*
X0145394Y0171217D01*
X0145200Y0171217D01*
X0145200Y0165795D01*
X0144800Y0165795D01*
X0144800Y0171217D01*
X0144606Y0171217D01*
X0143829Y0171094D01*
X0143081Y0170851D01*
X0142379Y0170494D01*
X0141743Y0170031D01*
X0141186Y0169475D01*
X0140724Y0168838D01*
X0140366Y0168137D01*
X0140123Y0167388D01*
X0140000Y0166611D01*
X0140000Y0163217D01*
X0141866Y0163217D01*
X0141866Y0162817D01*
X0140000Y0162817D01*
X0140000Y0159424D01*
X0140123Y0158647D01*
X0140366Y0157898D01*
X0140724Y0157197D01*
X0141186Y0156560D01*
X0141743Y0156004D01*
X0142187Y0155681D01*
X0142054Y0155626D01*
X0140592Y0154163D01*
X0139800Y0152252D01*
X0139800Y0143783D01*
X0140592Y0141872D01*
X0142054Y0140409D01*
X0140502Y0142088D02*
X0118591Y0142088D01*
X0118586Y0143686D02*
X0139840Y0143686D01*
X0139800Y0145285D02*
X0118580Y0145285D01*
X0118575Y0146883D02*
X0139800Y0146883D01*
X0139800Y0148482D02*
X0118570Y0148482D01*
X0118564Y0150080D02*
X0139800Y0150080D01*
X0139800Y0151679D02*
X0118559Y0151679D01*
X0118553Y0153277D02*
X0140225Y0153277D01*
X0141305Y0154876D02*
X0118548Y0154876D01*
X0118543Y0156474D02*
X0141272Y0156474D01*
X0140309Y0158073D02*
X0118537Y0158073D01*
X0118532Y0159671D02*
X0140000Y0159671D01*
X0140000Y0161270D02*
X0118526Y0161270D01*
X0118521Y0162869D02*
X0141866Y0162869D01*
X0140000Y0164467D02*
X0118516Y0164467D01*
X0118510Y0166066D02*
X0140000Y0166066D01*
X0140213Y0167664D02*
X0118505Y0167664D01*
X0118500Y0169263D02*
X0141032Y0169263D01*
X0143111Y0170861D02*
X0118494Y0170861D01*
X0118489Y0172460D02*
X0369300Y0172460D01*
X0369300Y0174058D02*
X0119647Y0174058D01*
X0120153Y0175657D02*
X0369578Y0175657D01*
X0371177Y0177255D02*
X0120153Y0177255D01*
X0120153Y0178854D02*
X0371103Y0178854D01*
X0369504Y0180452D02*
X0120153Y0180452D01*
X0111790Y0180452D02*
X0054914Y0180452D01*
X0054913Y0178854D02*
X0111790Y0178854D01*
X0111790Y0177255D02*
X0054912Y0177255D01*
X0054911Y0175657D02*
X0111790Y0175657D01*
X0112296Y0174058D02*
X0054910Y0174058D01*
X0054909Y0172460D02*
X0113489Y0172460D01*
X0113494Y0170861D02*
X0054908Y0170861D01*
X0054907Y0169263D02*
X0113500Y0169263D01*
X0113505Y0167664D02*
X0054906Y0167664D01*
X0054905Y0166066D02*
X0113510Y0166066D01*
X0113516Y0164467D02*
X0054904Y0164467D01*
X0054903Y0162869D02*
X0113521Y0162869D01*
X0113526Y0161270D02*
X0054902Y0161270D01*
X0054901Y0159671D02*
X0113532Y0159671D01*
X0113537Y0158073D02*
X0054900Y0158073D01*
X0054899Y0156474D02*
X0113543Y0156474D01*
X0113548Y0154876D02*
X0054898Y0154876D01*
X0054897Y0153277D02*
X0113553Y0153277D01*
X0113559Y0151679D02*
X0054896Y0151679D01*
X0054895Y0150080D02*
X0113564Y0150080D01*
X0113570Y0148482D02*
X0054894Y0148482D01*
X0054893Y0146883D02*
X0113575Y0146883D01*
X0113580Y0145285D02*
X0054892Y0145285D01*
X0054891Y0143686D02*
X0113586Y0143686D01*
X0113591Y0142088D02*
X0054890Y0142088D01*
X0054889Y0140489D02*
X0113596Y0140489D01*
X0113602Y0138891D02*
X0054888Y0138891D01*
X0054887Y0137292D02*
X0113607Y0137292D01*
X0113613Y0135694D02*
X0054886Y0135694D01*
X0054885Y0134095D02*
X0113618Y0134095D01*
X0113623Y0132497D02*
X0054884Y0132497D01*
X0054883Y0130898D02*
X0113629Y0130898D01*
X0113634Y0129300D02*
X0054882Y0129300D01*
X0054881Y0127701D02*
X0113640Y0127701D01*
X0113645Y0126103D02*
X0054880Y0126103D01*
X0054879Y0124504D02*
X0113650Y0124504D01*
X0113656Y0122906D02*
X0095439Y0122906D01*
X0095760Y0122773D02*
X0093996Y0123503D01*
X0092087Y0123503D01*
X0090323Y0122773D01*
X0088972Y0121422D01*
X0088241Y0119658D01*
X0088241Y0117749D01*
X0088972Y0115984D01*
X0090323Y0114634D01*
X0092087Y0113903D01*
X0093996Y0113903D01*
X0095760Y0114634D01*
X0097111Y0115984D01*
X0097841Y0117749D01*
X0097841Y0119658D01*
X0097111Y0121422D01*
X0095760Y0122773D01*
X0097158Y0121307D02*
X0113661Y0121307D01*
X0113666Y0119709D02*
X0097821Y0119709D01*
X0097841Y0118110D02*
X0113672Y0118110D01*
X0113677Y0116512D02*
X0097329Y0116512D01*
X0096040Y0114913D02*
X0113683Y0114913D01*
X0113688Y0113315D02*
X0054872Y0113315D01*
X0054873Y0114913D02*
X0071043Y0114913D01*
X0071323Y0114634D02*
X0073087Y0113903D01*
X0074996Y0113903D01*
X0076760Y0114634D01*
X0078111Y0115984D01*
X0078841Y0117749D01*
X0078841Y0119658D01*
X0078111Y0121422D01*
X0076760Y0122773D01*
X0074996Y0123503D01*
X0073087Y0123503D01*
X0071323Y0122773D01*
X0069972Y0121422D01*
X0069241Y0119658D01*
X0069241Y0117749D01*
X0069972Y0115984D01*
X0071323Y0114634D01*
X0069754Y0116512D02*
X0054874Y0116512D01*
X0054875Y0118110D02*
X0069241Y0118110D01*
X0069262Y0119709D02*
X0054876Y0119709D01*
X0054877Y0121307D02*
X0069925Y0121307D01*
X0071644Y0122906D02*
X0054878Y0122906D01*
X0054871Y0111716D02*
X0113693Y0111716D01*
X0113699Y0110118D02*
X0054870Y0110118D01*
X0054869Y0108519D02*
X0113704Y0108519D01*
X0113710Y0106921D02*
X0054868Y0106921D01*
X0054867Y0105322D02*
X0113715Y0105322D01*
X0113720Y0103724D02*
X0054866Y0103724D01*
X0054865Y0102125D02*
X0113726Y0102125D01*
X0113731Y0100527D02*
X0054864Y0100527D01*
X0054863Y0098928D02*
X0113737Y0098928D01*
X0113742Y0097330D02*
X0054862Y0097330D01*
X0077040Y0114913D02*
X0090043Y0114913D01*
X0088754Y0116512D02*
X0078329Y0116512D01*
X0078841Y0118110D02*
X0088241Y0118110D01*
X0088262Y0119709D02*
X0078821Y0119709D01*
X0078158Y0121307D02*
X0088925Y0121307D01*
X0090644Y0122906D02*
X0076439Y0122906D01*
X0118661Y0121307D02*
X0160512Y0121307D01*
X0159747Y0119709D02*
X0118667Y0119709D01*
X0118672Y0118110D02*
X0159500Y0118110D01*
X0159671Y0116512D02*
X0118677Y0116512D01*
X0118683Y0114913D02*
X0160333Y0114913D01*
X0161981Y0113315D02*
X0118688Y0113315D01*
X0118693Y0111716D02*
X0121345Y0111716D01*
X0119800Y0110118D02*
X0118699Y0110118D01*
X0118704Y0108519D02*
X0119800Y0108519D01*
X0119800Y0106921D02*
X0118710Y0106921D01*
X0118715Y0105322D02*
X0120341Y0105322D01*
X0121940Y0103724D02*
X0118720Y0103724D01*
X0118726Y0102125D02*
X0121754Y0102125D01*
X0120155Y0100527D02*
X0118731Y0100527D01*
X0118737Y0098928D02*
X0119800Y0098928D01*
X0119800Y0097330D02*
X0118742Y0097330D01*
X0118747Y0095731D02*
X0119932Y0095731D01*
X0118753Y0094133D02*
X0121531Y0094133D01*
X0122163Y0092534D02*
X0118758Y0092534D01*
X0118763Y0090935D02*
X0120564Y0090935D01*
X0119800Y0089337D02*
X0118406Y0089337D01*
X0128655Y0111716D02*
X0131345Y0111716D01*
X0138655Y0111716D02*
X0141345Y0111716D01*
X0148655Y0111716D02*
X0151345Y0111716D01*
X0158655Y0111716D02*
X0161345Y0111716D01*
X0142841Y0127701D02*
X0369422Y0127701D01*
X0369467Y0140489D02*
X0338026Y0140489D01*
X0339498Y0142088D02*
X0369300Y0142088D01*
X0369300Y0143686D02*
X0340160Y0143686D01*
X0340200Y0145285D02*
X0369300Y0145285D01*
X0370805Y0146883D02*
X0340200Y0146883D01*
X0340200Y0148482D02*
X0371474Y0148482D01*
X0369876Y0150080D02*
X0340200Y0150080D01*
X0340200Y0151679D02*
X0369300Y0151679D01*
X0369300Y0153277D02*
X0339775Y0153277D01*
X0338695Y0154876D02*
X0369300Y0154876D01*
X0370396Y0156474D02*
X0339011Y0156474D01*
X0339906Y0158073D02*
X0371883Y0158073D01*
X0370285Y0159671D02*
X0340200Y0159671D01*
X0340200Y0161270D02*
X0369300Y0161270D01*
X0369300Y0162869D02*
X0340200Y0162869D01*
X0340200Y0164467D02*
X0369300Y0164467D01*
X0369987Y0166066D02*
X0340200Y0166066D01*
X0340029Y0167664D02*
X0371586Y0167664D01*
X0370694Y0169263D02*
X0339309Y0169263D01*
X0337377Y0170861D02*
X0369300Y0170861D01*
X0369300Y0182051D02*
X0077083Y0182051D01*
X0072917Y0182051D02*
X0054915Y0182051D01*
X0054916Y0183649D02*
X0071444Y0183649D01*
X0071000Y0185248D02*
X0054917Y0185248D01*
X0054918Y0186846D02*
X0071221Y0186846D01*
X0072270Y0188445D02*
X0054919Y0188445D01*
X0054920Y0190043D02*
X0106132Y0190043D01*
X0107730Y0191642D02*
X0054921Y0191642D01*
X0054922Y0193240D02*
X0067282Y0193240D01*
X0067805Y0192717D02*
X0064700Y0195822D01*
X0064700Y0200213D01*
X0067805Y0203317D01*
X0072195Y0203317D01*
X0075141Y0200371D01*
X0077888Y0203117D01*
X0080000Y0203117D01*
X0080000Y0198017D01*
X0080000Y0192917D01*
X0080000Y0198017D01*
X0080000Y0198017D01*
X0080000Y0198017D01*
X0085100Y0198017D01*
X0085100Y0195905D01*
X0082112Y0192917D01*
X0080000Y0192917D01*
X0077888Y0192917D01*
X0075141Y0195663D01*
X0072195Y0192717D01*
X0067805Y0192717D01*
X0065683Y0194839D02*
X0054923Y0194839D01*
X0054924Y0196437D02*
X0064700Y0196437D01*
X0064700Y0198036D02*
X0054925Y0198036D01*
X0054926Y0199634D02*
X0064700Y0199634D01*
X0065720Y0201233D02*
X0054927Y0201233D01*
X0054928Y0202831D02*
X0067319Y0202831D01*
X0072681Y0202831D02*
X0077601Y0202831D01*
X0076003Y0201233D02*
X0074280Y0201233D01*
X0080000Y0201233D02*
X0080000Y0201233D01*
X0080000Y0202831D02*
X0080000Y0202831D01*
X0080000Y0203117D02*
X0082112Y0203117D01*
X0085100Y0200130D01*
X0085100Y0198017D01*
X0080000Y0198017D01*
X0080000Y0198017D01*
X0080000Y0203117D01*
X0082399Y0202831D02*
X0092319Y0202831D01*
X0092805Y0203317D02*
X0089700Y0200213D01*
X0089700Y0195822D01*
X0092805Y0192717D01*
X0097195Y0192717D01*
X0100141Y0195663D01*
X0102888Y0192917D01*
X0105000Y0192917D01*
X0105000Y0198017D01*
X0105000Y0192917D01*
X0107112Y0192917D01*
X0110100Y0195905D01*
X0110100Y0198017D01*
X0105000Y0198017D01*
X0105000Y0198017D01*
X0105000Y0198017D01*
X0110100Y0198017D01*
X0110100Y0200130D01*
X0107112Y0203117D01*
X0105000Y0203117D01*
X0102888Y0203117D01*
X0100141Y0200371D01*
X0097195Y0203317D01*
X0092805Y0203317D01*
X0090720Y0201233D02*
X0083997Y0201233D01*
X0085100Y0199634D02*
X0089700Y0199634D01*
X0089700Y0198036D02*
X0085100Y0198036D01*
X0085100Y0196437D02*
X0089700Y0196437D01*
X0090683Y0194839D02*
X0084034Y0194839D01*
X0082435Y0193240D02*
X0092282Y0193240D01*
X0097718Y0193240D02*
X0102565Y0193240D01*
X0100966Y0194839D02*
X0099317Y0194839D01*
X0105000Y0194839D02*
X0105000Y0194839D01*
X0105000Y0196437D02*
X0105000Y0196437D01*
X0105000Y0198017D02*
X0105000Y0203117D01*
X0105000Y0198017D01*
X0105000Y0198017D01*
X0105000Y0198036D02*
X0105000Y0198036D01*
X0105000Y0199634D02*
X0105000Y0199634D01*
X0105000Y0201233D02*
X0105000Y0201233D01*
X0105000Y0202831D02*
X0105000Y0202831D01*
X0107399Y0202831D02*
X0118920Y0202831D01*
X0117321Y0201233D02*
X0108997Y0201233D01*
X0110100Y0199634D02*
X0115723Y0199634D01*
X0114124Y0198036D02*
X0110100Y0198036D01*
X0110100Y0196437D02*
X0112526Y0196437D01*
X0110927Y0194839D02*
X0109034Y0194839D01*
X0109329Y0193240D02*
X0107435Y0193240D01*
X0105000Y0193240D02*
X0105000Y0193240D01*
X0104533Y0188445D02*
X0077730Y0188445D01*
X0077565Y0193240D02*
X0072718Y0193240D01*
X0074317Y0194839D02*
X0075966Y0194839D01*
X0080000Y0194839D02*
X0080000Y0194839D01*
X0080000Y0196437D02*
X0080000Y0196437D01*
X0080000Y0198036D02*
X0080000Y0198036D01*
X0080000Y0199634D02*
X0080000Y0199634D01*
X0080000Y0193240D02*
X0080000Y0193240D01*
X0097681Y0202831D02*
X0102601Y0202831D01*
X0101003Y0201233D02*
X0099280Y0201233D01*
X0112920Y0190043D02*
X0159886Y0190043D01*
X0159500Y0188445D02*
X0111321Y0188445D01*
X0109723Y0186846D02*
X0159532Y0186846D01*
X0160194Y0185248D02*
X0108124Y0185248D01*
X0107035Y0184158D02*
X0107035Y0184158D01*
X0106526Y0183649D02*
X0161590Y0183649D01*
X0168410Y0183649D02*
X0171590Y0183649D01*
X0170194Y0185248D02*
X0169806Y0185248D01*
X0178410Y0183649D02*
X0181590Y0183649D01*
X0180194Y0185248D02*
X0179806Y0185248D01*
X0188410Y0183649D02*
X0191590Y0183649D01*
X0190194Y0185248D02*
X0189806Y0185248D01*
X0198410Y0183649D02*
X0201590Y0183649D01*
X0200194Y0185248D02*
X0199806Y0185248D01*
X0208410Y0183649D02*
X0211590Y0183649D01*
X0210194Y0185248D02*
X0209806Y0185248D01*
X0218410Y0183649D02*
X0221590Y0183649D01*
X0220194Y0185248D02*
X0219806Y0185248D01*
X0228410Y0183649D02*
X0231590Y0183649D01*
X0230194Y0185248D02*
X0229806Y0185248D01*
X0238410Y0183649D02*
X0241590Y0183649D01*
X0240194Y0185248D02*
X0239806Y0185248D01*
X0248410Y0183649D02*
X0251590Y0183649D01*
X0250194Y0185248D02*
X0249806Y0185248D01*
X0258410Y0183649D02*
X0261590Y0183649D01*
X0260194Y0185248D02*
X0259806Y0185248D01*
X0268410Y0183649D02*
X0271590Y0183649D01*
X0270194Y0185248D02*
X0269806Y0185248D01*
X0278410Y0183649D02*
X0281590Y0183649D01*
X0280194Y0185248D02*
X0279806Y0185248D01*
X0288410Y0183649D02*
X0291590Y0183649D01*
X0290194Y0185248D02*
X0289806Y0185248D01*
X0298410Y0183649D02*
X0301590Y0183649D01*
X0300194Y0185248D02*
X0299806Y0185248D01*
X0308410Y0183649D02*
X0311590Y0183649D01*
X0310194Y0185248D02*
X0309806Y0185248D01*
X0318410Y0183649D02*
X0321590Y0183649D01*
X0320194Y0185248D02*
X0319806Y0185248D01*
X0328410Y0183649D02*
X0331590Y0183649D01*
X0330194Y0185248D02*
X0329806Y0185248D01*
X0338410Y0183649D02*
X0341590Y0183649D01*
X0340194Y0185248D02*
X0339806Y0185248D01*
X0348410Y0183649D02*
X0351590Y0183649D01*
X0350194Y0185248D02*
X0349806Y0185248D01*
X0358410Y0183649D02*
X0369300Y0183649D01*
X0369300Y0185248D02*
X0359806Y0185248D01*
X0360468Y0186846D02*
X0370768Y0186846D01*
X0371512Y0188445D02*
X0360500Y0188445D01*
X0360114Y0190043D02*
X0369913Y0190043D01*
X0369300Y0191642D02*
X0359154Y0191642D01*
X0357577Y0193240D02*
X0369300Y0193240D01*
X0369300Y0194839D02*
X0359175Y0194839D01*
X0360200Y0196437D02*
X0370359Y0196437D01*
X0371921Y0198036D02*
X0360200Y0198036D01*
X0360200Y0199634D02*
X0370322Y0199634D01*
X0369300Y0201233D02*
X0369109Y0201233D01*
X0390700Y0194839D02*
X0400927Y0194839D01*
X0402526Y0196437D02*
X0391814Y0196437D01*
X0393412Y0198036D02*
X0404124Y0198036D01*
X0404305Y0199634D02*
X0395011Y0199634D01*
X0396610Y0201233D02*
X0403700Y0201233D01*
X0403700Y0202831D02*
X0398208Y0202831D01*
X0399807Y0204430D02*
X0404043Y0204430D01*
X0404771Y0206028D02*
X0401405Y0206028D01*
X0403004Y0207627D02*
X0406369Y0207627D01*
X0404602Y0209225D02*
X0449043Y0209225D01*
X0449041Y0207627D02*
X0438631Y0207627D01*
X0440229Y0206028D02*
X0449039Y0206028D01*
X0449037Y0204430D02*
X0440957Y0204430D01*
X0441300Y0202831D02*
X0449035Y0202831D01*
X0449033Y0201233D02*
X0441300Y0201233D01*
X0440695Y0199634D02*
X0449031Y0199634D01*
X0449029Y0198036D02*
X0439597Y0198036D01*
X0437193Y0196437D02*
X0449027Y0196437D01*
X0449025Y0194839D02*
X0436610Y0194839D01*
X0439356Y0193240D02*
X0449023Y0193240D01*
X0449021Y0191642D02*
X0440595Y0191642D01*
X0441257Y0190043D02*
X0449019Y0190043D01*
X0449017Y0188445D02*
X0441300Y0188445D01*
X0441057Y0186846D02*
X0449015Y0186846D01*
X0449012Y0185248D02*
X0440395Y0185248D01*
X0438872Y0183649D02*
X0449010Y0183649D01*
X0449008Y0182051D02*
X0407427Y0182051D01*
X0406924Y0180452D02*
X0390496Y0180452D01*
X0390700Y0191642D02*
X0397730Y0191642D01*
X0399329Y0193240D02*
X0390700Y0193240D01*
X0407715Y0194839D02*
X0408390Y0194839D01*
X0406394Y0210824D02*
X0406201Y0210824D01*
X0437253Y0222013D02*
X0449059Y0222013D01*
X0449057Y0220415D02*
X0439622Y0220415D01*
X0440705Y0218816D02*
X0449055Y0218816D01*
X0449053Y0217218D02*
X0441300Y0217218D01*
X0441300Y0215619D02*
X0449051Y0215619D01*
X0449049Y0214021D02*
X0440946Y0214021D01*
X0440204Y0212422D02*
X0449047Y0212422D01*
X0449045Y0210824D02*
X0438606Y0210824D01*
X0438076Y0180452D02*
X0449006Y0180452D01*
X0449004Y0178854D02*
X0439963Y0178854D01*
X0440847Y0177255D02*
X0449002Y0177255D01*
X0449000Y0175657D02*
X0441300Y0175657D01*
X0441300Y0174058D02*
X0448998Y0174058D01*
X0448996Y0172460D02*
X0440805Y0172460D01*
X0439863Y0170861D02*
X0448994Y0170861D01*
X0448992Y0169263D02*
X0437835Y0169263D01*
X0438705Y0138891D02*
X0448954Y0138891D01*
X0448952Y0137292D02*
X0440304Y0137292D01*
X0440988Y0135694D02*
X0448950Y0135694D01*
X0448948Y0134095D02*
X0441300Y0134095D01*
X0441300Y0132497D02*
X0448946Y0132497D01*
X0448944Y0130898D02*
X0440664Y0130898D01*
X0439523Y0129300D02*
X0448942Y0129300D01*
X0448940Y0127701D02*
X0437013Y0127701D01*
X0436505Y0126103D02*
X0448938Y0126103D01*
X0448936Y0124504D02*
X0439312Y0124504D01*
X0440577Y0122906D02*
X0448934Y0122906D01*
X0448932Y0121307D02*
X0441239Y0121307D01*
X0441300Y0119709D02*
X0448930Y0119709D01*
X0448928Y0118110D02*
X0441075Y0118110D01*
X0440413Y0116512D02*
X0448926Y0116512D01*
X0404569Y0047776D02*
X0374820Y0047776D01*
X0411705Y0023798D02*
X0412074Y0023798D01*
X0412074Y0024117D02*
X0412074Y0018202D01*
X0417990Y0018202D01*
X0417990Y0018497D01*
X0417840Y0019446D01*
X0417543Y0020359D01*
X0417107Y0021214D01*
X0416543Y0021991D01*
X0415864Y0022670D01*
X0415087Y0023235D01*
X0414231Y0023670D01*
X0413318Y0023967D01*
X0412370Y0024117D01*
X0412074Y0024117D01*
X0413839Y0023798D02*
X0423162Y0023798D01*
X0420942Y0022200D02*
X0416334Y0022200D01*
X0417420Y0020601D02*
X0419920Y0020601D01*
X0419369Y0019002D02*
X0417910Y0019002D01*
X0417969Y0017404D02*
X0419369Y0017404D01*
X0419394Y0015805D02*
X0417585Y0015805D01*
X0417795Y0014207D02*
X0416661Y0014207D01*
X0412074Y0019002D02*
X0411705Y0019002D01*
X0411705Y0020601D02*
X0412074Y0020601D01*
X0412074Y0022200D02*
X0411705Y0022200D01*
X0448786Y0006214D02*
X0054805Y0006214D01*
X0054825Y0038185D02*
X0101439Y0038185D01*
X0099840Y0039783D02*
X0054826Y0039783D01*
X0054835Y0054170D02*
X0090100Y0054170D01*
X0095439Y0050973D02*
X0112061Y0050973D01*
X0110463Y0049374D02*
X0097037Y0049374D01*
X0098636Y0047776D02*
X0105179Y0047776D01*
X0103820Y0046177D02*
X0100234Y0046177D01*
X0101833Y0044579D02*
X0103158Y0044579D01*
X0071476Y0055768D02*
X0054836Y0055768D01*
X0054837Y0057367D02*
X0069851Y0057367D01*
X0069077Y0058965D02*
X0054838Y0058965D01*
X0054839Y0060564D02*
X0068700Y0060564D01*
X0068700Y0062162D02*
X0054840Y0062162D01*
X0054841Y0063761D02*
X0069272Y0063761D01*
X0070322Y0065359D02*
X0054842Y0065359D01*
X0054845Y0070155D02*
X0070843Y0070155D01*
X0069487Y0071753D02*
X0054846Y0071753D01*
X0054847Y0073352D02*
X0068825Y0073352D01*
X0068700Y0074950D02*
X0054848Y0074950D01*
X0054849Y0076549D02*
X0068861Y0076549D01*
X0069523Y0078147D02*
X0054850Y0078147D01*
X0054851Y0079746D02*
X0070929Y0079746D01*
X0157455Y0044579D02*
X0158158Y0044579D01*
X0158031Y0042980D02*
X0156969Y0042980D01*
X0156811Y0041382D02*
X0158189Y0041382D01*
X0158851Y0039783D02*
X0156149Y0039783D01*
X0154746Y0038185D02*
X0160254Y0038185D01*
X0264746Y0038185D02*
X0270254Y0038185D01*
X0268851Y0039783D02*
X0266149Y0039783D01*
X0266811Y0041382D02*
X0268189Y0041382D01*
X0268031Y0042980D02*
X0266969Y0042980D01*
X0267455Y0044579D02*
X0268158Y0044579D01*
X0278482Y0047776D02*
X0283959Y0047776D01*
X0282600Y0046177D02*
X0279841Y0046177D01*
X0280503Y0044579D02*
X0281938Y0044579D01*
X0281810Y0042980D02*
X0280631Y0042980D01*
X0280472Y0041382D02*
X0281969Y0041382D01*
X0282631Y0039783D02*
X0279810Y0039783D01*
X0278407Y0038185D02*
X0284033Y0038185D01*
X0281974Y0140489D02*
X0278026Y0140489D01*
X0279498Y0142088D02*
X0280502Y0142088D01*
X0288026Y0140489D02*
X0291974Y0140489D01*
X0290502Y0142088D02*
X0289498Y0142088D01*
X0298026Y0140489D02*
X0301974Y0140489D01*
X0300502Y0142088D02*
X0299498Y0142088D01*
X0308026Y0140489D02*
X0311974Y0140489D01*
X0310502Y0142088D02*
X0309498Y0142088D01*
X0318026Y0140489D02*
X0321974Y0140489D01*
X0320502Y0142088D02*
X0319498Y0142088D01*
X0328026Y0140489D02*
X0331974Y0140489D01*
X0330502Y0142088D02*
X0329498Y0142088D01*
X0335093Y0148067D02*
X0145153Y0148067D01*
X0149498Y0142088D02*
X0150502Y0142088D01*
X0151974Y0140489D02*
X0148026Y0140489D01*
X0158026Y0140489D02*
X0161974Y0140489D01*
X0160502Y0142088D02*
X0159498Y0142088D01*
X0168026Y0140489D02*
X0171974Y0140489D01*
X0170502Y0142088D02*
X0169498Y0142088D01*
X0178026Y0140489D02*
X0181974Y0140489D01*
X0180502Y0142088D02*
X0179498Y0142088D01*
X0188026Y0140489D02*
X0191974Y0140489D01*
X0190502Y0142088D02*
X0189498Y0142088D01*
X0198026Y0140489D02*
X0201974Y0140489D01*
X0200502Y0142088D02*
X0199498Y0142088D01*
X0208026Y0140489D02*
X0211974Y0140489D01*
X0210502Y0142088D02*
X0209498Y0142088D01*
X0218026Y0140489D02*
X0221974Y0140489D01*
X0220502Y0142088D02*
X0219498Y0142088D01*
X0228026Y0140489D02*
X0231974Y0140489D01*
X0230502Y0142088D02*
X0229498Y0142088D01*
X0238026Y0140489D02*
X0241974Y0140489D01*
X0240502Y0142088D02*
X0239498Y0142088D01*
X0248026Y0140489D02*
X0251974Y0140489D01*
X0250502Y0142088D02*
X0249498Y0142088D01*
X0258026Y0140489D02*
X0261974Y0140489D01*
X0260502Y0142088D02*
X0259498Y0142088D01*
X0268026Y0140489D02*
X0271974Y0140489D01*
X0270502Y0142088D02*
X0269498Y0142088D01*
X0269309Y0169263D02*
X0270691Y0169263D01*
X0272623Y0170861D02*
X0267377Y0170861D01*
X0262623Y0170861D02*
X0257377Y0170861D01*
X0259309Y0169263D02*
X0260691Y0169263D01*
X0252623Y0170861D02*
X0247377Y0170861D01*
X0249309Y0169263D02*
X0250691Y0169263D01*
X0242623Y0170861D02*
X0237377Y0170861D01*
X0239309Y0169263D02*
X0240691Y0169263D01*
X0232623Y0170861D02*
X0227377Y0170861D01*
X0229309Y0169263D02*
X0230691Y0169263D01*
X0222623Y0170861D02*
X0217377Y0170861D01*
X0219309Y0169263D02*
X0220691Y0169263D01*
X0212623Y0170861D02*
X0207377Y0170861D01*
X0209309Y0169263D02*
X0210691Y0169263D01*
X0202623Y0170861D02*
X0197377Y0170861D01*
X0199309Y0169263D02*
X0200691Y0169263D01*
X0192623Y0170861D02*
X0187377Y0170861D01*
X0189309Y0169263D02*
X0190691Y0169263D01*
X0182623Y0170861D02*
X0177377Y0170861D01*
X0179309Y0169263D02*
X0180691Y0169263D01*
X0172623Y0170861D02*
X0167377Y0170861D01*
X0169309Y0169263D02*
X0170691Y0169263D01*
X0162623Y0170861D02*
X0157377Y0170861D01*
X0159309Y0169263D02*
X0160691Y0169263D01*
X0152623Y0170861D02*
X0146889Y0170861D01*
X0145200Y0170861D02*
X0144800Y0170861D01*
X0144800Y0169263D02*
X0145200Y0169263D01*
X0145200Y0167664D02*
X0144800Y0167664D01*
X0144800Y0166066D02*
X0145200Y0166066D01*
X0144666Y0162995D02*
X0335093Y0162995D01*
X0330691Y0169263D02*
X0329309Y0169263D01*
X0327377Y0170861D02*
X0332623Y0170861D01*
X0322623Y0170861D02*
X0317377Y0170861D01*
X0319309Y0169263D02*
X0320691Y0169263D01*
X0312623Y0170861D02*
X0307377Y0170861D01*
X0309309Y0169263D02*
X0310691Y0169263D01*
X0302623Y0170861D02*
X0297377Y0170861D01*
X0299309Y0169263D02*
X0300691Y0169263D01*
X0292623Y0170861D02*
X0287377Y0170861D01*
X0289309Y0169263D02*
X0290691Y0169263D01*
X0282623Y0170861D02*
X0277377Y0170861D01*
X0279309Y0169263D02*
X0280691Y0169263D01*
X0281233Y0231604D02*
X0278767Y0231604D01*
X0277168Y0233203D02*
X0282832Y0233203D01*
X0287168Y0233203D02*
X0292832Y0233203D01*
X0291233Y0231604D02*
X0288767Y0231604D01*
X0297168Y0233203D02*
X0302832Y0233203D01*
X0301233Y0231604D02*
X0298767Y0231604D01*
X0307168Y0233203D02*
X0312832Y0233203D01*
X0311233Y0231604D02*
X0308767Y0231604D01*
X0317168Y0233203D02*
X0322832Y0233203D01*
X0321233Y0231604D02*
X0318767Y0231604D01*
X0327168Y0233203D02*
X0332832Y0233203D01*
X0331233Y0231604D02*
X0328767Y0231604D01*
X0332977Y0238117D02*
X0333859Y0238483D01*
X0334535Y0239158D01*
X0343037Y0247661D01*
X0343866Y0247317D01*
X0346134Y0247317D01*
X0348229Y0248185D01*
X0349832Y0249789D01*
X0350700Y0251884D01*
X0350700Y0254151D01*
X0349832Y0256246D01*
X0348229Y0257850D01*
X0346134Y0258717D01*
X0343866Y0258717D01*
X0341771Y0257850D01*
X0340168Y0256246D01*
X0340000Y0255841D01*
X0339832Y0256246D01*
X0338229Y0257850D01*
X0337400Y0258193D01*
X0337400Y0270995D01*
X0337035Y0271877D01*
X0336569Y0272342D01*
X0338078Y0271717D01*
X0340584Y0271717D01*
X0342899Y0272676D01*
X0344672Y0274449D01*
X0345631Y0276764D01*
X0345631Y0279271D01*
X0344672Y0281586D01*
X0342899Y0283358D01*
X0340584Y0284317D01*
X0338078Y0284317D01*
X0335762Y0283358D01*
X0333990Y0281586D01*
X0333031Y0279271D01*
X0333031Y0276764D01*
X0333655Y0275256D01*
X0331969Y0276942D01*
X0331969Y0279271D01*
X0331010Y0281586D01*
X0329238Y0283358D01*
X0326922Y0284317D01*
X0324416Y0284317D01*
X0322101Y0283358D01*
X0320328Y0281586D01*
X0319369Y0279271D01*
X0319369Y0276764D01*
X0320328Y0274449D01*
X0322101Y0272676D01*
X0324416Y0271717D01*
X0326922Y0271717D01*
X0329238Y0272676D01*
X0329342Y0272781D01*
X0332600Y0269523D01*
X0332600Y0258193D01*
X0331771Y0257850D01*
X0330168Y0256246D01*
X0330000Y0255841D01*
X0329832Y0256246D01*
X0328229Y0257850D01*
X0327400Y0258193D01*
X0327400Y0265995D01*
X0327035Y0266877D01*
X0317884Y0276027D01*
X0318190Y0276764D01*
X0318190Y0279271D01*
X0317231Y0281586D01*
X0315458Y0283358D01*
X0313143Y0284317D01*
X0310637Y0284317D01*
X0308321Y0283358D01*
X0306549Y0281586D01*
X0305590Y0279271D01*
X0305590Y0276764D01*
X0306256Y0275155D01*
X0304410Y0277001D01*
X0304410Y0279271D01*
X0303451Y0281586D01*
X0301679Y0283358D01*
X0299363Y0284317D01*
X0296857Y0284317D01*
X0294542Y0283358D01*
X0292769Y0281586D01*
X0291810Y0279271D01*
X0291810Y0276764D01*
X0292769Y0274449D01*
X0294542Y0272676D01*
X0296857Y0271717D01*
X0299363Y0271717D01*
X0301679Y0272676D01*
X0301813Y0272810D01*
X0312600Y0262023D01*
X0312600Y0258193D01*
X0311771Y0257850D01*
X0310168Y0256246D01*
X0310000Y0255841D01*
X0309832Y0256246D01*
X0308229Y0257850D01*
X0307400Y0258193D01*
X0307400Y0258495D01*
X0307035Y0259377D01*
X0290343Y0276069D01*
X0290631Y0276764D01*
X0290631Y0279271D01*
X0289672Y0281586D01*
X0287899Y0283358D01*
X0285584Y0284317D01*
X0283078Y0284317D01*
X0280762Y0283358D01*
X0278990Y0281586D01*
X0278031Y0279271D01*
X0278031Y0276764D01*
X0278990Y0274449D01*
X0280762Y0272676D01*
X0283078Y0271717D01*
X0285584Y0271717D01*
X0287226Y0272397D01*
X0301773Y0257850D01*
X0301771Y0257850D01*
X0300168Y0256246D01*
X0300000Y0255841D01*
X0299832Y0256246D01*
X0298229Y0257850D01*
X0296134Y0258717D01*
X0293866Y0258717D01*
X0293037Y0258374D01*
X0276289Y0275122D01*
X0276969Y0276764D01*
X0276969Y0279271D01*
X0276010Y0281586D01*
X0274238Y0283358D01*
X0271922Y0284317D01*
X0269416Y0284317D01*
X0267101Y0283358D01*
X0265328Y0281586D01*
X0264369Y0279271D01*
X0264369Y0277042D01*
X0263190Y0278222D01*
X0263190Y0279271D01*
X0262231Y0281586D01*
X0260458Y0283358D01*
X0258143Y0284317D01*
X0255637Y0284317D01*
X0253321Y0283358D01*
X0251549Y0281586D01*
X0250590Y0279271D01*
X0250590Y0276764D01*
X0251256Y0275155D01*
X0249410Y0277001D01*
X0249410Y0279271D01*
X0248451Y0281586D01*
X0246679Y0283358D01*
X0244363Y0284317D01*
X0241857Y0284317D01*
X0239542Y0283358D01*
X0237769Y0281586D01*
X0236810Y0279271D01*
X0236810Y0276764D01*
X0237769Y0274449D01*
X0239542Y0272676D01*
X0241857Y0271717D01*
X0244363Y0271717D01*
X0246679Y0272676D01*
X0246813Y0272810D01*
X0268641Y0250983D01*
X0269523Y0250617D01*
X0269824Y0250617D01*
X0270168Y0249789D01*
X0271771Y0248185D01*
X0273866Y0247317D01*
X0276134Y0247317D01*
X0278229Y0248185D01*
X0279832Y0249789D01*
X0280000Y0250194D01*
X0280168Y0249789D01*
X0281771Y0248185D01*
X0283866Y0247317D01*
X0286134Y0247317D01*
X0288229Y0248185D01*
X0289832Y0249789D01*
X0290000Y0250194D01*
X0290168Y0249789D01*
X0291771Y0248185D01*
X0293866Y0247317D01*
X0296134Y0247317D01*
X0298229Y0248185D01*
X0299832Y0249789D01*
X0300000Y0250194D01*
X0300168Y0249789D01*
X0301771Y0248185D01*
X0303866Y0247317D01*
X0306134Y0247317D01*
X0308229Y0248185D01*
X0309832Y0249789D01*
X0310000Y0250194D01*
X0310168Y0249789D01*
X0311771Y0248185D01*
X0313866Y0247317D01*
X0316134Y0247317D01*
X0318229Y0248185D01*
X0319832Y0249789D01*
X0320000Y0250194D01*
X0320168Y0249789D01*
X0321771Y0248185D01*
X0323866Y0247317D01*
X0326134Y0247317D01*
X0328229Y0248185D01*
X0329832Y0249789D01*
X0330000Y0250194D01*
X0330168Y0249789D01*
X0331771Y0248185D01*
X0333866Y0247317D01*
X0335906Y0247317D01*
X0331506Y0242917D01*
X0092061Y0242917D01*
X0091029Y0243950D01*
X0088934Y0244817D01*
X0086666Y0244817D01*
X0084571Y0243950D01*
X0082968Y0242346D01*
X0082100Y0240251D01*
X0082100Y0237984D01*
X0082968Y0235889D01*
X0084571Y0234285D01*
X0086666Y0233417D01*
X0088934Y0233417D01*
X0091029Y0234285D01*
X0092632Y0235889D01*
X0093500Y0237984D01*
X0093500Y0238117D01*
X0332977Y0238117D01*
X0334974Y0239597D02*
X0357600Y0239597D01*
X0357600Y0237999D02*
X0093500Y0237999D01*
X0092844Y0236400D02*
X0357600Y0236400D01*
X0357600Y0234802D02*
X0091545Y0234802D01*
X0084055Y0234802D02*
X0065945Y0234802D01*
X0065429Y0234285D02*
X0067032Y0235889D01*
X0067900Y0237984D01*
X0067900Y0240251D01*
X0067032Y0242346D01*
X0065429Y0243950D01*
X0063334Y0244817D01*
X0061066Y0244817D01*
X0058971Y0243950D01*
X0057368Y0242346D01*
X0056500Y0240251D01*
X0056500Y0237984D01*
X0057368Y0235889D01*
X0058971Y0234285D01*
X0061066Y0233417D01*
X0063334Y0233417D01*
X0065429Y0234285D01*
X0067244Y0236400D02*
X0082756Y0236400D01*
X0082100Y0237999D02*
X0067900Y0237999D01*
X0067900Y0239597D02*
X0082100Y0239597D01*
X0082491Y0241196D02*
X0067509Y0241196D01*
X0066584Y0242794D02*
X0083416Y0242794D01*
X0085641Y0244393D02*
X0064359Y0244393D01*
X0060041Y0244393D02*
X0054954Y0244393D01*
X0054955Y0245991D02*
X0334580Y0245991D01*
X0333209Y0247590D02*
X0326791Y0247590D01*
X0329232Y0249188D02*
X0330768Y0249188D01*
X0332981Y0244393D02*
X0089959Y0244393D01*
X0094768Y0249188D02*
X0054957Y0249188D01*
X0054956Y0247590D02*
X0097209Y0247590D01*
X0097866Y0247317D02*
X0100134Y0247317D01*
X0102229Y0248185D01*
X0103832Y0249789D01*
X0104000Y0250194D01*
X0104168Y0249789D01*
X0105771Y0248185D01*
X0107866Y0247317D01*
X0110134Y0247317D01*
X0112229Y0248185D01*
X0113832Y0249789D01*
X0114000Y0250194D01*
X0114168Y0249789D01*
X0115771Y0248185D01*
X0117866Y0247317D01*
X0120134Y0247317D01*
X0122229Y0248185D01*
X0123832Y0249789D01*
X0124000Y0250194D01*
X0124168Y0249789D01*
X0125771Y0248185D01*
X0127866Y0247317D01*
X0130134Y0247317D01*
X0132229Y0248185D01*
X0133832Y0249789D01*
X0134000Y0250194D01*
X0134168Y0249789D01*
X0135771Y0248185D01*
X0137866Y0247317D01*
X0140134Y0247317D01*
X0142229Y0248185D01*
X0143832Y0249789D01*
X0144000Y0250194D01*
X0144168Y0249789D01*
X0145771Y0248185D01*
X0147866Y0247317D01*
X0150134Y0247317D01*
X0152229Y0248185D01*
X0153832Y0249789D01*
X0154000Y0250194D01*
X0154168Y0249789D01*
X0155771Y0248185D01*
X0157866Y0247317D01*
X0160134Y0247317D01*
X0162229Y0248185D01*
X0163832Y0249789D01*
X0164000Y0250194D01*
X0164168Y0249789D01*
X0165771Y0248185D01*
X0167866Y0247317D01*
X0170134Y0247317D01*
X0172229Y0248185D01*
X0173832Y0249789D01*
X0174700Y0251884D01*
X0174700Y0254151D01*
X0173832Y0256246D01*
X0172229Y0257850D01*
X0170134Y0258717D01*
X0167866Y0258717D01*
X0165771Y0257850D01*
X0164168Y0256246D01*
X0164000Y0255841D01*
X0163832Y0256246D01*
X0162229Y0257850D01*
X0160134Y0258717D01*
X0157866Y0258717D01*
X0155977Y0257935D01*
X0142035Y0271877D01*
X0141359Y0272552D01*
X0140477Y0272917D01*
X0136920Y0272917D01*
X0138451Y0274449D01*
X0139410Y0276764D01*
X0139410Y0279271D01*
X0138451Y0281586D01*
X0136679Y0283358D01*
X0134363Y0284317D01*
X0131857Y0284317D01*
X0129542Y0283358D01*
X0127769Y0281586D01*
X0126810Y0279271D01*
X0126810Y0276764D01*
X0127769Y0274449D01*
X0129301Y0272917D01*
X0123140Y0272917D01*
X0124672Y0274449D01*
X0125631Y0276764D01*
X0125631Y0279271D01*
X0124672Y0281586D01*
X0122899Y0283358D01*
X0120584Y0284317D01*
X0118078Y0284317D01*
X0115762Y0283358D01*
X0113990Y0281586D01*
X0113031Y0279271D01*
X0113031Y0276764D01*
X0113655Y0275256D01*
X0111969Y0276942D01*
X0111969Y0279271D01*
X0111010Y0281586D01*
X0109238Y0283358D01*
X0106922Y0284317D01*
X0104416Y0284317D01*
X0102101Y0283358D01*
X0100328Y0281586D01*
X0099369Y0279271D01*
X0099369Y0276764D01*
X0100328Y0274449D01*
X0101860Y0272917D01*
X0095699Y0272917D01*
X0097231Y0274449D01*
X0098190Y0276764D01*
X0098190Y0279271D01*
X0097231Y0281586D01*
X0095458Y0283358D01*
X0093143Y0284317D01*
X0090637Y0284317D01*
X0088321Y0283358D01*
X0086549Y0281586D01*
X0085590Y0279271D01*
X0085590Y0276764D01*
X0086549Y0274449D01*
X0088080Y0272917D01*
X0081920Y0272917D01*
X0083451Y0274449D01*
X0084410Y0276764D01*
X0084410Y0279271D01*
X0083451Y0281586D01*
X0081679Y0283358D01*
X0079363Y0284317D01*
X0076857Y0284317D01*
X0074542Y0283358D01*
X0072769Y0281586D01*
X0071810Y0279271D01*
X0071810Y0276764D01*
X0072769Y0274449D01*
X0074301Y0272917D01*
X0073494Y0272917D01*
X0070343Y0276069D01*
X0070631Y0276764D01*
X0070631Y0279271D01*
X0069672Y0281586D01*
X0067899Y0283358D01*
X0065584Y0284317D01*
X0063078Y0284317D01*
X0060762Y0283358D01*
X0058990Y0281586D01*
X0058031Y0279271D01*
X0058031Y0276764D01*
X0058990Y0274449D01*
X0060762Y0272676D01*
X0063078Y0271717D01*
X0065584Y0271717D01*
X0067226Y0272397D01*
X0071141Y0268483D01*
X0072023Y0268117D01*
X0109006Y0268117D01*
X0118406Y0258717D01*
X0117866Y0258717D01*
X0115771Y0257850D01*
X0114168Y0256246D01*
X0114000Y0255841D01*
X0113832Y0256246D01*
X0112229Y0257850D01*
X0110134Y0258717D01*
X0107866Y0258717D01*
X0105771Y0257850D01*
X0104168Y0256246D01*
X0104000Y0255841D01*
X0103832Y0256246D01*
X0102229Y0257850D01*
X0100134Y0258717D01*
X0097866Y0258717D01*
X0095771Y0257850D01*
X0094168Y0256246D01*
X0093300Y0254151D01*
X0093300Y0251884D01*
X0094168Y0249789D01*
X0095771Y0248185D01*
X0097866Y0247317D01*
X0100791Y0247590D02*
X0107209Y0247590D01*
X0104768Y0249188D02*
X0103232Y0249188D01*
X0110791Y0247590D02*
X0117209Y0247590D01*
X0114768Y0249188D02*
X0113232Y0249188D01*
X0120791Y0247590D02*
X0127209Y0247590D01*
X0124768Y0249188D02*
X0123232Y0249188D01*
X0130791Y0247590D02*
X0137209Y0247590D01*
X0134768Y0249188D02*
X0133232Y0249188D01*
X0140791Y0247590D02*
X0147209Y0247590D01*
X0144768Y0249188D02*
X0143232Y0249188D01*
X0150791Y0247590D02*
X0157209Y0247590D01*
X0154768Y0249188D02*
X0153232Y0249188D01*
X0160791Y0247590D02*
X0167209Y0247590D01*
X0164768Y0249188D02*
X0163232Y0249188D01*
X0170791Y0247590D02*
X0183209Y0247590D01*
X0183866Y0247317D02*
X0186134Y0247317D01*
X0188229Y0248185D01*
X0189832Y0249789D01*
X0190000Y0250194D01*
X0190168Y0249789D01*
X0191771Y0248185D01*
X0193866Y0247317D01*
X0196134Y0247317D01*
X0198229Y0248185D01*
X0199832Y0249789D01*
X0200000Y0250194D01*
X0200168Y0249789D01*
X0201771Y0248185D01*
X0203866Y0247317D01*
X0206134Y0247317D01*
X0208229Y0248185D01*
X0209832Y0249789D01*
X0210000Y0250194D01*
X0210168Y0249789D01*
X0211771Y0248185D01*
X0213866Y0247317D01*
X0216134Y0247317D01*
X0218229Y0248185D01*
X0219832Y0249789D01*
X0220000Y0250194D01*
X0220168Y0249789D01*
X0221771Y0248185D01*
X0223866Y0247317D01*
X0226134Y0247317D01*
X0228229Y0248185D01*
X0229832Y0249789D01*
X0230000Y0250194D01*
X0230168Y0249789D01*
X0231771Y0248185D01*
X0233866Y0247317D01*
X0236134Y0247317D01*
X0238229Y0248185D01*
X0239832Y0249789D01*
X0240000Y0250194D01*
X0240168Y0249789D01*
X0241771Y0248185D01*
X0243866Y0247317D01*
X0246134Y0247317D01*
X0248229Y0248185D01*
X0249832Y0249789D01*
X0250000Y0250194D01*
X0250168Y0249789D01*
X0251771Y0248185D01*
X0253866Y0247317D01*
X0256134Y0247317D01*
X0258229Y0248185D01*
X0259832Y0249789D01*
X0260700Y0251884D01*
X0260700Y0254151D01*
X0259832Y0256246D01*
X0258229Y0257850D01*
X0256134Y0258717D01*
X0253866Y0258717D01*
X0253037Y0258374D01*
X0235343Y0276069D01*
X0235631Y0276764D01*
X0235631Y0279271D01*
X0234672Y0281586D01*
X0232899Y0283358D01*
X0230584Y0284317D01*
X0228078Y0284317D01*
X0225762Y0283358D01*
X0223990Y0281586D01*
X0223031Y0279271D01*
X0223031Y0278381D01*
X0222035Y0279377D01*
X0221848Y0279564D01*
X0221010Y0281586D01*
X0219238Y0283358D01*
X0216922Y0284317D01*
X0214416Y0284317D01*
X0212101Y0283358D01*
X0210328Y0281586D01*
X0209369Y0279271D01*
X0209369Y0276764D01*
X0210328Y0274449D01*
X0212101Y0272676D01*
X0214416Y0271717D01*
X0216922Y0271717D01*
X0219238Y0272676D01*
X0220592Y0274031D01*
X0235906Y0258717D01*
X0233866Y0258717D01*
X0231771Y0257850D01*
X0230168Y0256246D01*
X0230000Y0255841D01*
X0229832Y0256246D01*
X0228229Y0257850D01*
X0226134Y0258717D01*
X0223866Y0258717D01*
X0221771Y0257850D01*
X0220168Y0256246D01*
X0220000Y0255841D01*
X0219832Y0256246D01*
X0218229Y0257850D01*
X0216134Y0258717D01*
X0213866Y0258717D01*
X0213037Y0258374D01*
X0199535Y0271877D01*
X0199028Y0272384D01*
X0200637Y0271717D01*
X0203143Y0271717D01*
X0205458Y0272676D01*
X0207231Y0274449D01*
X0208190Y0276764D01*
X0208190Y0279271D01*
X0207231Y0281586D01*
X0205458Y0283358D01*
X0203143Y0284317D01*
X0200637Y0284317D01*
X0198321Y0283358D01*
X0196549Y0281586D01*
X0195590Y0279271D01*
X0195590Y0276764D01*
X0196549Y0274449D01*
X0198153Y0272845D01*
X0197977Y0272917D01*
X0191920Y0272917D01*
X0193451Y0274449D01*
X0194410Y0276764D01*
X0194410Y0279271D01*
X0193451Y0281586D01*
X0191679Y0283358D01*
X0189363Y0284317D01*
X0186857Y0284317D01*
X0184542Y0283358D01*
X0182769Y0281586D01*
X0181810Y0279271D01*
X0181810Y0276764D01*
X0182769Y0274449D01*
X0184301Y0272917D01*
X0183494Y0272917D01*
X0180343Y0276069D01*
X0180631Y0276764D01*
X0180631Y0279271D01*
X0179672Y0281586D01*
X0177899Y0283358D01*
X0175584Y0284317D01*
X0173078Y0284317D01*
X0170762Y0283358D01*
X0168990Y0281586D01*
X0168031Y0279271D01*
X0168031Y0276764D01*
X0168990Y0274449D01*
X0170521Y0272917D01*
X0164479Y0272917D01*
X0166010Y0274449D01*
X0166969Y0276764D01*
X0166969Y0279271D01*
X0166010Y0281586D01*
X0164238Y0283358D01*
X0161922Y0284317D01*
X0159416Y0284317D01*
X0157101Y0283358D01*
X0155328Y0281586D01*
X0154369Y0279271D01*
X0154369Y0276764D01*
X0155328Y0274449D01*
X0156860Y0272917D01*
X0155994Y0272917D01*
X0152884Y0276027D01*
X0153190Y0276764D01*
X0153190Y0279271D01*
X0152231Y0281586D01*
X0150458Y0283358D01*
X0148143Y0284317D01*
X0145637Y0284317D01*
X0143321Y0283358D01*
X0141549Y0281586D01*
X0140590Y0279271D01*
X0140590Y0276764D01*
X0141549Y0274449D01*
X0143321Y0272676D01*
X0145637Y0271717D01*
X0148143Y0271717D01*
X0149743Y0272380D01*
X0153641Y0268483D01*
X0154523Y0268117D01*
X0176506Y0268117D01*
X0185906Y0258717D01*
X0183866Y0258717D01*
X0181771Y0257850D01*
X0180168Y0256246D01*
X0179300Y0254151D01*
X0179300Y0251884D01*
X0180168Y0249789D01*
X0181771Y0248185D01*
X0183866Y0247317D01*
X0186791Y0247590D02*
X0193209Y0247590D01*
X0190768Y0249188D02*
X0189232Y0249188D01*
X0180768Y0249188D02*
X0173232Y0249188D01*
X0174246Y0250787D02*
X0179754Y0250787D01*
X0179300Y0252385D02*
X0174700Y0252385D01*
X0174700Y0253984D02*
X0179300Y0253984D01*
X0179893Y0255582D02*
X0174107Y0255582D01*
X0172898Y0257181D02*
X0181102Y0257181D01*
X0184246Y0260378D02*
X0153534Y0260378D01*
X0151935Y0261976D02*
X0182647Y0261976D01*
X0181049Y0263575D02*
X0150337Y0263575D01*
X0148738Y0265173D02*
X0179450Y0265173D01*
X0177852Y0266772D02*
X0147140Y0266772D01*
X0145541Y0268370D02*
X0153912Y0268370D01*
X0152154Y0269969D02*
X0143943Y0269969D01*
X0142344Y0271567D02*
X0150556Y0271567D01*
X0154147Y0274764D02*
X0155198Y0274764D01*
X0155746Y0273166D02*
X0156611Y0273166D01*
X0154536Y0276363D02*
X0153023Y0276363D01*
X0153190Y0277961D02*
X0154369Y0277961D01*
X0154489Y0279560D02*
X0153070Y0279560D01*
X0152408Y0281158D02*
X0155151Y0281158D01*
X0156499Y0282757D02*
X0151060Y0282757D01*
X0142720Y0282757D02*
X0137280Y0282757D01*
X0138628Y0281158D02*
X0141372Y0281158D01*
X0140710Y0279560D02*
X0139290Y0279560D01*
X0139410Y0277961D02*
X0140590Y0277961D01*
X0140756Y0276363D02*
X0139244Y0276363D01*
X0138582Y0274764D02*
X0141418Y0274764D01*
X0142832Y0273166D02*
X0137168Y0273166D01*
X0129052Y0273166D02*
X0123389Y0273166D01*
X0124802Y0274764D02*
X0127639Y0274764D01*
X0126977Y0276363D02*
X0125464Y0276363D01*
X0125631Y0277961D02*
X0126810Y0277961D01*
X0126930Y0279560D02*
X0125511Y0279560D01*
X0124849Y0281158D02*
X0127592Y0281158D01*
X0128940Y0282757D02*
X0123501Y0282757D01*
X0115161Y0282757D02*
X0109839Y0282757D01*
X0111187Y0281158D02*
X0113813Y0281158D01*
X0113151Y0279560D02*
X0111849Y0279560D01*
X0111969Y0277961D02*
X0113031Y0277961D01*
X0113197Y0276363D02*
X0112549Y0276363D01*
X0101611Y0273166D02*
X0095948Y0273166D01*
X0097361Y0274764D02*
X0100198Y0274764D01*
X0099536Y0276363D02*
X0098023Y0276363D01*
X0098190Y0277961D02*
X0099369Y0277961D01*
X0099489Y0279560D02*
X0098070Y0279560D01*
X0097408Y0281158D02*
X0100151Y0281158D01*
X0101499Y0282757D02*
X0096060Y0282757D01*
X0087720Y0282757D02*
X0082280Y0282757D01*
X0083628Y0281158D02*
X0086372Y0281158D01*
X0085710Y0279560D02*
X0084290Y0279560D01*
X0084410Y0277961D02*
X0085590Y0277961D01*
X0085756Y0276363D02*
X0084244Y0276363D01*
X0083582Y0274764D02*
X0086418Y0274764D01*
X0087832Y0273166D02*
X0082168Y0273166D01*
X0074052Y0273166D02*
X0073246Y0273166D01*
X0072639Y0274764D02*
X0071647Y0274764D01*
X0071977Y0276363D02*
X0070464Y0276363D01*
X0070631Y0277961D02*
X0071810Y0277961D01*
X0071930Y0279560D02*
X0070511Y0279560D01*
X0069849Y0281158D02*
X0072592Y0281158D01*
X0073940Y0282757D02*
X0068501Y0282757D01*
X0060161Y0282757D02*
X0054978Y0282757D01*
X0054979Y0284355D02*
X0360444Y0284355D01*
X0358845Y0282757D02*
X0357280Y0282757D01*
X0362042Y0285954D02*
X0054980Y0285954D01*
X0054981Y0287552D02*
X0363641Y0287552D01*
X0365637Y0296717D02*
X0368143Y0296717D01*
X0370458Y0297676D01*
X0372231Y0299449D01*
X0373190Y0301764D01*
X0373190Y0304271D01*
X0372231Y0306586D01*
X0370458Y0308358D01*
X0368143Y0309317D01*
X0365637Y0309317D01*
X0363321Y0308358D01*
X0361549Y0306586D01*
X0360590Y0304271D01*
X0360590Y0301764D01*
X0361549Y0299449D01*
X0363321Y0297676D01*
X0365637Y0296717D01*
X0364608Y0297143D02*
X0355392Y0297143D01*
X0354363Y0296717D02*
X0356679Y0297676D01*
X0358451Y0299449D01*
X0359410Y0301764D01*
X0359410Y0304271D01*
X0358451Y0306586D01*
X0356679Y0308358D01*
X0354363Y0309317D01*
X0351857Y0309317D01*
X0349542Y0308358D01*
X0347769Y0306586D01*
X0346810Y0304271D01*
X0346810Y0301764D01*
X0347769Y0299449D01*
X0349542Y0297676D01*
X0351857Y0296717D01*
X0354363Y0296717D01*
X0350828Y0297143D02*
X0341613Y0297143D01*
X0340584Y0296717D02*
X0342899Y0297676D01*
X0344672Y0299449D01*
X0345631Y0301764D01*
X0345631Y0304271D01*
X0344672Y0306586D01*
X0342899Y0308358D01*
X0340584Y0309317D01*
X0338078Y0309317D01*
X0335762Y0308358D01*
X0333990Y0306586D01*
X0333031Y0304271D01*
X0333031Y0301764D01*
X0333990Y0299449D01*
X0335762Y0297676D01*
X0338078Y0296717D01*
X0340584Y0296717D01*
X0337049Y0297143D02*
X0327951Y0297143D01*
X0326922Y0296717D02*
X0329238Y0297676D01*
X0331010Y0299449D01*
X0331969Y0301764D01*
X0331969Y0304271D01*
X0331010Y0306586D01*
X0329238Y0308358D01*
X0326922Y0309317D01*
X0324416Y0309317D01*
X0322101Y0308358D01*
X0320328Y0306586D01*
X0319369Y0304271D01*
X0319369Y0301764D01*
X0320328Y0299449D01*
X0322101Y0297676D01*
X0324416Y0296717D01*
X0326922Y0296717D01*
X0323387Y0297143D02*
X0314172Y0297143D01*
X0313143Y0296717D02*
X0315458Y0297676D01*
X0317231Y0299449D01*
X0318190Y0301764D01*
X0318190Y0304271D01*
X0317231Y0306586D01*
X0315458Y0308358D01*
X0313143Y0309317D01*
X0310637Y0309317D01*
X0308321Y0308358D01*
X0306549Y0306586D01*
X0305590Y0304271D01*
X0305590Y0301764D01*
X0306549Y0299449D01*
X0308321Y0297676D01*
X0310637Y0296717D01*
X0313143Y0296717D01*
X0309608Y0297143D02*
X0300392Y0297143D01*
X0299363Y0296717D02*
X0301679Y0297676D01*
X0303451Y0299449D01*
X0304410Y0301764D01*
X0304410Y0304271D01*
X0303451Y0306586D01*
X0301679Y0308358D01*
X0299363Y0309317D01*
X0296857Y0309317D01*
X0294542Y0308358D01*
X0292769Y0306586D01*
X0291810Y0304271D01*
X0291810Y0301764D01*
X0292769Y0299449D01*
X0294542Y0297676D01*
X0296857Y0296717D01*
X0299363Y0296717D01*
X0295828Y0297143D02*
X0286613Y0297143D01*
X0285584Y0296717D02*
X0287899Y0297676D01*
X0289672Y0299449D01*
X0290631Y0301764D01*
X0290631Y0304271D01*
X0289672Y0306586D01*
X0287899Y0308358D01*
X0285584Y0309317D01*
X0283078Y0309317D01*
X0280762Y0308358D01*
X0278990Y0306586D01*
X0278031Y0304271D01*
X0278031Y0301764D01*
X0278990Y0299449D01*
X0280762Y0297676D01*
X0283078Y0296717D01*
X0285584Y0296717D01*
X0282049Y0297143D02*
X0272951Y0297143D01*
X0271922Y0296717D02*
X0274238Y0297676D01*
X0276010Y0299449D01*
X0276969Y0301764D01*
X0276969Y0304271D01*
X0276010Y0306586D01*
X0274238Y0308358D01*
X0271922Y0309317D01*
X0269416Y0309317D01*
X0267101Y0308358D01*
X0265328Y0306586D01*
X0264369Y0304271D01*
X0264369Y0301764D01*
X0265328Y0299449D01*
X0267101Y0297676D01*
X0269416Y0296717D01*
X0271922Y0296717D01*
X0268387Y0297143D02*
X0259172Y0297143D01*
X0258143Y0296717D02*
X0260458Y0297676D01*
X0262231Y0299449D01*
X0263190Y0301764D01*
X0263190Y0304271D01*
X0262231Y0306586D01*
X0260458Y0308358D01*
X0258143Y0309317D01*
X0255637Y0309317D01*
X0253321Y0308358D01*
X0251549Y0306586D01*
X0250590Y0304271D01*
X0250590Y0301764D01*
X0251549Y0299449D01*
X0253321Y0297676D01*
X0255637Y0296717D01*
X0258143Y0296717D01*
X0254608Y0297143D02*
X0245392Y0297143D01*
X0244363Y0296717D02*
X0246679Y0297676D01*
X0248451Y0299449D01*
X0249410Y0301764D01*
X0249410Y0304271D01*
X0248451Y0306586D01*
X0246679Y0308358D01*
X0244363Y0309317D01*
X0241857Y0309317D01*
X0239542Y0308358D01*
X0237769Y0306586D01*
X0236810Y0304271D01*
X0236810Y0301764D01*
X0237769Y0299449D01*
X0239542Y0297676D01*
X0241857Y0296717D01*
X0244363Y0296717D01*
X0240828Y0297143D02*
X0231612Y0297143D01*
X0230584Y0296717D02*
X0232899Y0297676D01*
X0234672Y0299449D01*
X0235631Y0301764D01*
X0235631Y0304271D01*
X0234672Y0306586D01*
X0232899Y0308358D01*
X0230584Y0309317D01*
X0228078Y0309317D01*
X0225762Y0308358D01*
X0223990Y0306586D01*
X0223031Y0304271D01*
X0223031Y0301764D01*
X0223990Y0299449D01*
X0225762Y0297676D01*
X0228078Y0296717D01*
X0230584Y0296717D01*
X0227049Y0297143D02*
X0217951Y0297143D01*
X0216922Y0296717D02*
X0219238Y0297676D01*
X0221010Y0299449D01*
X0221969Y0301764D01*
X0221969Y0304271D01*
X0221010Y0306586D01*
X0219238Y0308358D01*
X0216922Y0309317D01*
X0214416Y0309317D01*
X0212101Y0308358D01*
X0210328Y0306586D01*
X0209369Y0304271D01*
X0209369Y0301764D01*
X0210328Y0299449D01*
X0212101Y0297676D01*
X0214416Y0296717D01*
X0216922Y0296717D01*
X0213387Y0297143D02*
X0204172Y0297143D01*
X0203143Y0296717D02*
X0205458Y0297676D01*
X0207231Y0299449D01*
X0208190Y0301764D01*
X0208190Y0304271D01*
X0207231Y0306586D01*
X0205458Y0308358D01*
X0203143Y0309317D01*
X0200637Y0309317D01*
X0198321Y0308358D01*
X0196549Y0306586D01*
X0195590Y0304271D01*
X0195590Y0301764D01*
X0196549Y0299449D01*
X0198321Y0297676D01*
X0200637Y0296717D01*
X0203143Y0296717D01*
X0199608Y0297143D02*
X0190392Y0297143D01*
X0189363Y0296717D02*
X0191679Y0297676D01*
X0193451Y0299449D01*
X0194410Y0301764D01*
X0194410Y0304271D01*
X0193451Y0306586D01*
X0191679Y0308358D01*
X0189363Y0309317D01*
X0186857Y0309317D01*
X0184542Y0308358D01*
X0182769Y0306586D01*
X0181810Y0304271D01*
X0181810Y0301764D01*
X0182769Y0299449D01*
X0184542Y0297676D01*
X0186857Y0296717D01*
X0189363Y0296717D01*
X0185828Y0297143D02*
X0176612Y0297143D01*
X0175584Y0296717D02*
X0177899Y0297676D01*
X0179672Y0299449D01*
X0180631Y0301764D01*
X0180631Y0304271D01*
X0179672Y0306586D01*
X0177899Y0308358D01*
X0175584Y0309317D01*
X0173078Y0309317D01*
X0170762Y0308358D01*
X0168990Y0306586D01*
X0168031Y0304271D01*
X0168031Y0301764D01*
X0168990Y0299449D01*
X0170762Y0297676D01*
X0173078Y0296717D01*
X0175584Y0296717D01*
X0172049Y0297143D02*
X0162951Y0297143D01*
X0161922Y0296717D02*
X0164238Y0297676D01*
X0166010Y0299449D01*
X0166969Y0301764D01*
X0166969Y0304271D01*
X0166010Y0306586D01*
X0164238Y0308358D01*
X0161922Y0309317D01*
X0159416Y0309317D01*
X0157101Y0308358D01*
X0155328Y0306586D01*
X0154369Y0304271D01*
X0154369Y0301764D01*
X0155328Y0299449D01*
X0157101Y0297676D01*
X0159416Y0296717D01*
X0161922Y0296717D01*
X0158387Y0297143D02*
X0149172Y0297143D01*
X0148143Y0296717D02*
X0150458Y0297676D01*
X0152231Y0299449D01*
X0153190Y0301764D01*
X0153190Y0304271D01*
X0152231Y0306586D01*
X0150458Y0308358D01*
X0148143Y0309317D01*
X0145637Y0309317D01*
X0143321Y0308358D01*
X0141549Y0306586D01*
X0140590Y0304271D01*
X0140590Y0301764D01*
X0141549Y0299449D01*
X0143321Y0297676D01*
X0145637Y0296717D01*
X0148143Y0296717D01*
X0144608Y0297143D02*
X0135392Y0297143D01*
X0134363Y0296717D02*
X0136679Y0297676D01*
X0138451Y0299449D01*
X0139410Y0301764D01*
X0139410Y0304271D01*
X0138451Y0306586D01*
X0136679Y0308358D01*
X0134363Y0309317D01*
X0131857Y0309317D01*
X0129542Y0308358D01*
X0127769Y0306586D01*
X0126810Y0304271D01*
X0126810Y0301764D01*
X0127769Y0299449D01*
X0129542Y0297676D01*
X0131857Y0296717D01*
X0134363Y0296717D01*
X0130828Y0297143D02*
X0121612Y0297143D01*
X0120584Y0296717D02*
X0122899Y0297676D01*
X0124672Y0299449D01*
X0125631Y0301764D01*
X0125631Y0304271D01*
X0124672Y0306586D01*
X0122899Y0308358D01*
X0120584Y0309317D01*
X0118078Y0309317D01*
X0115762Y0308358D01*
X0113990Y0306586D01*
X0113031Y0304271D01*
X0113031Y0301764D01*
X0113990Y0299449D01*
X0115762Y0297676D01*
X0118078Y0296717D01*
X0120584Y0296717D01*
X0117049Y0297143D02*
X0107951Y0297143D01*
X0106922Y0296717D02*
X0109238Y0297676D01*
X0111010Y0299449D01*
X0111969Y0301764D01*
X0111969Y0304271D01*
X0111010Y0306586D01*
X0109238Y0308358D01*
X0106922Y0309317D01*
X0104416Y0309317D01*
X0102101Y0308358D01*
X0100328Y0306586D01*
X0099369Y0304271D01*
X0099369Y0301764D01*
X0100328Y0299449D01*
X0102101Y0297676D01*
X0104416Y0296717D01*
X0106922Y0296717D01*
X0103387Y0297143D02*
X0094172Y0297143D01*
X0093143Y0296717D02*
X0095458Y0297676D01*
X0097231Y0299449D01*
X0098190Y0301764D01*
X0098190Y0304271D01*
X0097231Y0306586D01*
X0095458Y0308358D01*
X0093143Y0309317D01*
X0090637Y0309317D01*
X0088321Y0308358D01*
X0086549Y0306586D01*
X0085590Y0304271D01*
X0085590Y0301764D01*
X0086549Y0299449D01*
X0088321Y0297676D01*
X0090637Y0296717D01*
X0093143Y0296717D01*
X0089608Y0297143D02*
X0080392Y0297143D01*
X0079363Y0296717D02*
X0081679Y0297676D01*
X0083451Y0299449D01*
X0084410Y0301764D01*
X0084410Y0304271D01*
X0083451Y0306586D01*
X0081679Y0308358D01*
X0079363Y0309317D01*
X0076857Y0309317D01*
X0074542Y0308358D01*
X0072769Y0306586D01*
X0071810Y0304271D01*
X0071810Y0301764D01*
X0072769Y0299449D01*
X0074542Y0297676D01*
X0076857Y0296717D01*
X0079363Y0296717D01*
X0075828Y0297143D02*
X0066613Y0297143D01*
X0068965Y0298742D02*
X0073476Y0298742D01*
X0072400Y0300340D02*
X0070041Y0300340D01*
X0070631Y0301939D02*
X0071810Y0301939D01*
X0071810Y0303538D02*
X0070631Y0303538D01*
X0070272Y0305136D02*
X0072169Y0305136D01*
X0072918Y0306735D02*
X0069523Y0306735D01*
X0067925Y0308333D02*
X0074516Y0308333D01*
X0081704Y0308333D02*
X0088296Y0308333D01*
X0086697Y0306735D02*
X0083303Y0306735D01*
X0084052Y0305136D02*
X0085948Y0305136D01*
X0085590Y0303538D02*
X0084410Y0303538D01*
X0084410Y0301939D02*
X0085590Y0301939D01*
X0086179Y0300340D02*
X0083820Y0300340D01*
X0082744Y0298742D02*
X0087256Y0298742D01*
X0096524Y0298742D02*
X0101035Y0298742D01*
X0099959Y0300340D02*
X0097600Y0300340D01*
X0098190Y0301939D02*
X0099369Y0301939D01*
X0099369Y0303538D02*
X0098190Y0303538D01*
X0097831Y0305136D02*
X0099728Y0305136D01*
X0100477Y0306735D02*
X0097082Y0306735D01*
X0095484Y0308333D02*
X0102075Y0308333D01*
X0109263Y0308333D02*
X0115737Y0308333D01*
X0114138Y0306735D02*
X0110862Y0306735D01*
X0111611Y0305136D02*
X0113389Y0305136D01*
X0113031Y0303538D02*
X0111969Y0303538D01*
X0111969Y0301939D02*
X0113031Y0301939D01*
X0113620Y0300340D02*
X0111380Y0300340D01*
X0110303Y0298742D02*
X0114697Y0298742D01*
X0123965Y0298742D02*
X0128476Y0298742D01*
X0127400Y0300340D02*
X0125041Y0300340D01*
X0125631Y0301939D02*
X0126810Y0301939D01*
X0126810Y0303538D02*
X0125631Y0303538D01*
X0125272Y0305136D02*
X0127169Y0305136D01*
X0127918Y0306735D02*
X0124523Y0306735D01*
X0122925Y0308333D02*
X0129516Y0308333D01*
X0136704Y0308333D02*
X0143296Y0308333D01*
X0141697Y0306735D02*
X0138303Y0306735D01*
X0139052Y0305136D02*
X0140948Y0305136D01*
X0140590Y0303538D02*
X0139410Y0303538D01*
X0139410Y0301939D02*
X0140590Y0301939D01*
X0141179Y0300340D02*
X0138820Y0300340D01*
X0137744Y0298742D02*
X0142256Y0298742D01*
X0151524Y0298742D02*
X0156035Y0298742D01*
X0154959Y0300340D02*
X0152600Y0300340D01*
X0153190Y0301939D02*
X0154369Y0301939D01*
X0154369Y0303538D02*
X0153190Y0303538D01*
X0152831Y0305136D02*
X0154728Y0305136D01*
X0155477Y0306735D02*
X0152082Y0306735D01*
X0150484Y0308333D02*
X0157075Y0308333D01*
X0164263Y0308333D02*
X0170737Y0308333D01*
X0169138Y0306735D02*
X0165862Y0306735D01*
X0166611Y0305136D02*
X0168389Y0305136D01*
X0168031Y0303538D02*
X0166969Y0303538D01*
X0166969Y0301939D02*
X0168031Y0301939D01*
X0168620Y0300340D02*
X0166380Y0300340D01*
X0165303Y0298742D02*
X0169697Y0298742D01*
X0178965Y0298742D02*
X0183476Y0298742D01*
X0182400Y0300340D02*
X0180041Y0300340D01*
X0180631Y0301939D02*
X0181810Y0301939D01*
X0181810Y0303538D02*
X0180631Y0303538D01*
X0180272Y0305136D02*
X0182169Y0305136D01*
X0182918Y0306735D02*
X0179523Y0306735D01*
X0177925Y0308333D02*
X0184516Y0308333D01*
X0191704Y0308333D02*
X0198296Y0308333D01*
X0196697Y0306735D02*
X0193303Y0306735D01*
X0194052Y0305136D02*
X0195948Y0305136D01*
X0195590Y0303538D02*
X0194410Y0303538D01*
X0194410Y0301939D02*
X0195590Y0301939D01*
X0196179Y0300340D02*
X0193820Y0300340D01*
X0192744Y0298742D02*
X0197256Y0298742D01*
X0206524Y0298742D02*
X0211035Y0298742D01*
X0209959Y0300340D02*
X0207600Y0300340D01*
X0208190Y0301939D02*
X0209369Y0301939D01*
X0209369Y0303538D02*
X0208190Y0303538D01*
X0207831Y0305136D02*
X0209728Y0305136D01*
X0210477Y0306735D02*
X0207082Y0306735D01*
X0205484Y0308333D02*
X0212075Y0308333D01*
X0219263Y0308333D02*
X0225737Y0308333D01*
X0224138Y0306735D02*
X0220862Y0306735D01*
X0221611Y0305136D02*
X0223389Y0305136D01*
X0223031Y0303538D02*
X0221969Y0303538D01*
X0221969Y0301939D02*
X0223031Y0301939D01*
X0223620Y0300340D02*
X0221380Y0300340D01*
X0220303Y0298742D02*
X0224697Y0298742D01*
X0233965Y0298742D02*
X0238476Y0298742D01*
X0237400Y0300340D02*
X0235041Y0300340D01*
X0235631Y0301939D02*
X0236810Y0301939D01*
X0236810Y0303538D02*
X0235631Y0303538D01*
X0235272Y0305136D02*
X0237169Y0305136D01*
X0237918Y0306735D02*
X0234523Y0306735D01*
X0232925Y0308333D02*
X0239516Y0308333D01*
X0246704Y0308333D02*
X0253296Y0308333D01*
X0251697Y0306735D02*
X0248303Y0306735D01*
X0249052Y0305136D02*
X0250948Y0305136D01*
X0250590Y0303538D02*
X0249410Y0303538D01*
X0249410Y0301939D02*
X0250590Y0301939D01*
X0251179Y0300340D02*
X0248820Y0300340D01*
X0247744Y0298742D02*
X0252256Y0298742D01*
X0261524Y0298742D02*
X0266035Y0298742D01*
X0264959Y0300340D02*
X0262600Y0300340D01*
X0263190Y0301939D02*
X0264369Y0301939D01*
X0264369Y0303538D02*
X0263190Y0303538D01*
X0262831Y0305136D02*
X0264728Y0305136D01*
X0265477Y0306735D02*
X0262082Y0306735D01*
X0260484Y0308333D02*
X0267075Y0308333D01*
X0274263Y0308333D02*
X0280737Y0308333D01*
X0279138Y0306735D02*
X0275862Y0306735D01*
X0276611Y0305136D02*
X0278389Y0305136D01*
X0278031Y0303538D02*
X0276969Y0303538D01*
X0276969Y0301939D02*
X0278031Y0301939D01*
X0278620Y0300340D02*
X0276380Y0300340D01*
X0275303Y0298742D02*
X0279697Y0298742D01*
X0288965Y0298742D02*
X0293476Y0298742D01*
X0292400Y0300340D02*
X0290041Y0300340D01*
X0290631Y0301939D02*
X0291810Y0301939D01*
X0291810Y0303538D02*
X0290631Y0303538D01*
X0290272Y0305136D02*
X0292169Y0305136D01*
X0292918Y0306735D02*
X0289523Y0306735D01*
X0287925Y0308333D02*
X0294516Y0308333D01*
X0301704Y0308333D02*
X0308296Y0308333D01*
X0306697Y0306735D02*
X0303303Y0306735D01*
X0304052Y0305136D02*
X0305948Y0305136D01*
X0305590Y0303538D02*
X0304410Y0303538D01*
X0304410Y0301939D02*
X0305590Y0301939D01*
X0306179Y0300340D02*
X0303820Y0300340D01*
X0302744Y0298742D02*
X0307256Y0298742D01*
X0316524Y0298742D02*
X0321035Y0298742D01*
X0319959Y0300340D02*
X0317600Y0300340D01*
X0318190Y0301939D02*
X0319369Y0301939D01*
X0319369Y0303538D02*
X0318190Y0303538D01*
X0317831Y0305136D02*
X0319728Y0305136D01*
X0320477Y0306735D02*
X0317082Y0306735D01*
X0315484Y0308333D02*
X0322075Y0308333D01*
X0329263Y0308333D02*
X0335737Y0308333D01*
X0334138Y0306735D02*
X0330862Y0306735D01*
X0331611Y0305136D02*
X0333389Y0305136D01*
X0333031Y0303538D02*
X0331969Y0303538D01*
X0331969Y0301939D02*
X0333031Y0301939D01*
X0333620Y0300340D02*
X0331380Y0300340D01*
X0330303Y0298742D02*
X0334697Y0298742D01*
X0343965Y0298742D02*
X0348476Y0298742D01*
X0347400Y0300340D02*
X0345041Y0300340D01*
X0345631Y0301939D02*
X0346810Y0301939D01*
X0346810Y0303538D02*
X0345631Y0303538D01*
X0345272Y0305136D02*
X0347169Y0305136D01*
X0347918Y0306735D02*
X0344523Y0306735D01*
X0342925Y0308333D02*
X0349516Y0308333D01*
X0356704Y0308333D02*
X0363296Y0308333D01*
X0361697Y0306735D02*
X0358303Y0306735D01*
X0359052Y0305136D02*
X0360948Y0305136D01*
X0360590Y0303538D02*
X0359410Y0303538D01*
X0359410Y0301939D02*
X0360590Y0301939D01*
X0361179Y0300340D02*
X0358820Y0300340D01*
X0357744Y0298742D02*
X0362256Y0298742D01*
X0369172Y0297143D02*
X0378387Y0297143D01*
X0379416Y0296717D02*
X0377101Y0297676D01*
X0375328Y0299449D01*
X0374369Y0301764D01*
X0374369Y0304271D01*
X0375328Y0306586D01*
X0377101Y0308358D01*
X0379416Y0309317D01*
X0381922Y0309317D01*
X0384238Y0308358D01*
X0386010Y0306586D01*
X0386969Y0304271D01*
X0386969Y0301764D01*
X0386010Y0299449D01*
X0384238Y0297676D01*
X0381922Y0296717D01*
X0379416Y0296717D01*
X0382951Y0297143D02*
X0403820Y0297143D01*
X0403700Y0298742D02*
X0385303Y0298742D01*
X0386380Y0300340D02*
X0403866Y0300340D01*
X0404528Y0301939D02*
X0386969Y0301939D01*
X0386969Y0303538D02*
X0405941Y0303538D01*
X0407642Y0290749D02*
X0054983Y0290749D01*
X0054982Y0289151D02*
X0405334Y0289151D01*
X0386611Y0305136D02*
X0449164Y0305136D01*
X0449166Y0306735D02*
X0385862Y0306735D01*
X0384263Y0308333D02*
X0449168Y0308333D01*
X0377075Y0308333D02*
X0370484Y0308333D01*
X0372082Y0306735D02*
X0375477Y0306735D01*
X0374728Y0305136D02*
X0372831Y0305136D01*
X0373190Y0303538D02*
X0374369Y0303538D01*
X0374369Y0301939D02*
X0373190Y0301939D01*
X0372600Y0300340D02*
X0374959Y0300340D01*
X0376035Y0298742D02*
X0371524Y0298742D01*
X0348940Y0282757D02*
X0343501Y0282757D01*
X0344849Y0281158D02*
X0347592Y0281158D01*
X0346930Y0279560D02*
X0345511Y0279560D01*
X0345631Y0277961D02*
X0346810Y0277961D01*
X0346977Y0276363D02*
X0345464Y0276363D01*
X0344802Y0274764D02*
X0347639Y0274764D01*
X0349052Y0273166D02*
X0343389Y0273166D01*
X0337163Y0271567D02*
X0357600Y0271567D01*
X0357600Y0269969D02*
X0337400Y0269969D01*
X0337400Y0268370D02*
X0357600Y0268370D01*
X0357600Y0266772D02*
X0337400Y0266772D01*
X0337400Y0265173D02*
X0357600Y0265173D01*
X0357600Y0263575D02*
X0337400Y0263575D01*
X0337400Y0261976D02*
X0357600Y0261976D01*
X0357600Y0260378D02*
X0337400Y0260378D01*
X0337400Y0258779D02*
X0357600Y0258779D01*
X0357600Y0257181D02*
X0348898Y0257181D01*
X0350107Y0255582D02*
X0357600Y0255582D01*
X0357600Y0253984D02*
X0350700Y0253984D01*
X0350700Y0252385D02*
X0357600Y0252385D01*
X0357600Y0250787D02*
X0350246Y0250787D01*
X0349232Y0249188D02*
X0357600Y0249188D01*
X0357600Y0247590D02*
X0346791Y0247590D01*
X0343209Y0247590D02*
X0342966Y0247590D01*
X0341368Y0245991D02*
X0357600Y0245991D01*
X0357600Y0244393D02*
X0339769Y0244393D01*
X0338171Y0242794D02*
X0357600Y0242794D01*
X0357600Y0241196D02*
X0336572Y0241196D01*
X0337168Y0233203D02*
X0342832Y0233203D01*
X0341233Y0231604D02*
X0338767Y0231604D01*
X0347168Y0233203D02*
X0352832Y0233203D01*
X0351233Y0231604D02*
X0348767Y0231604D01*
X0357168Y0233203D02*
X0357600Y0233203D01*
X0341102Y0257181D02*
X0338898Y0257181D01*
X0332600Y0258779D02*
X0327400Y0258779D01*
X0327400Y0260378D02*
X0332600Y0260378D01*
X0332600Y0261976D02*
X0327400Y0261976D01*
X0327400Y0263575D02*
X0332600Y0263575D01*
X0332600Y0265173D02*
X0327400Y0265173D01*
X0327078Y0266772D02*
X0332600Y0266772D01*
X0332600Y0268370D02*
X0325541Y0268370D01*
X0323943Y0269969D02*
X0332154Y0269969D01*
X0330556Y0271567D02*
X0322344Y0271567D01*
X0321611Y0273166D02*
X0320746Y0273166D01*
X0320198Y0274764D02*
X0319147Y0274764D01*
X0319536Y0276363D02*
X0318023Y0276363D01*
X0318190Y0277961D02*
X0319369Y0277961D01*
X0319489Y0279560D02*
X0318070Y0279560D01*
X0317408Y0281158D02*
X0320151Y0281158D01*
X0321499Y0282757D02*
X0316060Y0282757D01*
X0307720Y0282757D02*
X0302280Y0282757D01*
X0303628Y0281158D02*
X0306372Y0281158D01*
X0305710Y0279560D02*
X0304290Y0279560D01*
X0304410Y0277961D02*
X0305590Y0277961D01*
X0305756Y0276363D02*
X0305049Y0276363D01*
X0303056Y0271567D02*
X0294844Y0271567D01*
X0294052Y0273166D02*
X0293246Y0273166D01*
X0292639Y0274764D02*
X0291647Y0274764D01*
X0291977Y0276363D02*
X0290464Y0276363D01*
X0290631Y0277961D02*
X0291810Y0277961D01*
X0291930Y0279560D02*
X0290511Y0279560D01*
X0289849Y0281158D02*
X0292592Y0281158D01*
X0293940Y0282757D02*
X0288501Y0282757D01*
X0280161Y0282757D02*
X0274839Y0282757D01*
X0276187Y0281158D02*
X0278813Y0281158D01*
X0278151Y0279560D02*
X0276849Y0279560D01*
X0276969Y0277961D02*
X0278031Y0277961D01*
X0278197Y0276363D02*
X0276803Y0276363D01*
X0276647Y0274764D02*
X0278859Y0274764D01*
X0278246Y0273166D02*
X0280273Y0273166D01*
X0279844Y0271567D02*
X0288056Y0271567D01*
X0289655Y0269969D02*
X0281443Y0269969D01*
X0283041Y0268370D02*
X0291253Y0268370D01*
X0292852Y0266772D02*
X0284640Y0266772D01*
X0286238Y0265173D02*
X0294450Y0265173D01*
X0296049Y0263575D02*
X0287837Y0263575D01*
X0289435Y0261976D02*
X0297647Y0261976D01*
X0299246Y0260378D02*
X0291034Y0260378D01*
X0292632Y0258779D02*
X0300844Y0258779D01*
X0301102Y0257181D02*
X0298898Y0257181D01*
X0304435Y0261976D02*
X0312600Y0261976D01*
X0312600Y0260378D02*
X0306034Y0260378D01*
X0307282Y0258779D02*
X0312600Y0258779D01*
X0311102Y0257181D02*
X0308898Y0257181D01*
X0311049Y0263575D02*
X0302837Y0263575D01*
X0301238Y0265173D02*
X0309450Y0265173D01*
X0307852Y0266772D02*
X0299640Y0266772D01*
X0298041Y0268370D02*
X0306253Y0268370D01*
X0304654Y0269969D02*
X0296443Y0269969D01*
X0266499Y0282757D02*
X0261060Y0282757D01*
X0262408Y0281158D02*
X0265151Y0281158D01*
X0264489Y0279560D02*
X0263070Y0279560D01*
X0263450Y0277961D02*
X0264369Y0277961D01*
X0252720Y0282757D02*
X0247280Y0282757D01*
X0248628Y0281158D02*
X0251372Y0281158D01*
X0250710Y0279560D02*
X0249290Y0279560D01*
X0249410Y0277961D02*
X0250590Y0277961D01*
X0250756Y0276363D02*
X0250049Y0276363D01*
X0248056Y0271567D02*
X0239844Y0271567D01*
X0239052Y0273166D02*
X0238246Y0273166D01*
X0237639Y0274764D02*
X0236647Y0274764D01*
X0236977Y0276363D02*
X0235464Y0276363D01*
X0235631Y0277961D02*
X0236810Y0277961D01*
X0236930Y0279560D02*
X0235511Y0279560D01*
X0234849Y0281158D02*
X0237592Y0281158D01*
X0238940Y0282757D02*
X0233501Y0282757D01*
X0225161Y0282757D02*
X0219839Y0282757D01*
X0221187Y0281158D02*
X0223813Y0281158D01*
X0223151Y0279560D02*
X0221852Y0279560D01*
X0221457Y0273166D02*
X0219727Y0273166D01*
X0223056Y0271567D02*
X0199844Y0271567D01*
X0201443Y0269969D02*
X0224654Y0269969D01*
X0226253Y0268370D02*
X0203041Y0268370D01*
X0204640Y0266772D02*
X0227852Y0266772D01*
X0229450Y0265173D02*
X0206238Y0265173D01*
X0207837Y0263575D02*
X0231049Y0263575D01*
X0232647Y0261976D02*
X0209435Y0261976D01*
X0211034Y0260378D02*
X0234246Y0260378D01*
X0235844Y0258779D02*
X0212632Y0258779D01*
X0218898Y0257181D02*
X0221102Y0257181D01*
X0228898Y0257181D02*
X0231102Y0257181D01*
X0230768Y0249188D02*
X0229232Y0249188D01*
X0226791Y0247590D02*
X0233209Y0247590D01*
X0236791Y0247590D02*
X0243209Y0247590D01*
X0240768Y0249188D02*
X0239232Y0249188D01*
X0246791Y0247590D02*
X0253209Y0247590D01*
X0250768Y0249188D02*
X0249232Y0249188D01*
X0256791Y0247590D02*
X0273209Y0247590D01*
X0270768Y0249188D02*
X0259232Y0249188D01*
X0260246Y0250787D02*
X0269114Y0250787D01*
X0267238Y0252385D02*
X0260700Y0252385D01*
X0260700Y0253984D02*
X0265640Y0253984D01*
X0264041Y0255582D02*
X0260107Y0255582D01*
X0258898Y0257181D02*
X0262443Y0257181D01*
X0260844Y0258779D02*
X0252632Y0258779D01*
X0251034Y0260378D02*
X0259246Y0260378D01*
X0257647Y0261976D02*
X0249435Y0261976D01*
X0247837Y0263575D02*
X0256049Y0263575D01*
X0254450Y0265173D02*
X0246238Y0265173D01*
X0244640Y0266772D02*
X0252852Y0266772D01*
X0251253Y0268370D02*
X0243041Y0268370D01*
X0241443Y0269969D02*
X0249654Y0269969D01*
X0223209Y0247590D02*
X0216791Y0247590D01*
X0219232Y0249188D02*
X0220768Y0249188D01*
X0213209Y0247590D02*
X0206791Y0247590D01*
X0209232Y0249188D02*
X0210768Y0249188D01*
X0203209Y0247590D02*
X0196791Y0247590D01*
X0199232Y0249188D02*
X0200768Y0249188D01*
X0185844Y0258779D02*
X0155132Y0258779D01*
X0162898Y0257181D02*
X0165102Y0257181D01*
X0164727Y0273166D02*
X0170273Y0273166D01*
X0168859Y0274764D02*
X0166141Y0274764D01*
X0166803Y0276363D02*
X0168197Y0276363D01*
X0168031Y0277961D02*
X0166969Y0277961D01*
X0166849Y0279560D02*
X0168151Y0279560D01*
X0168813Y0281158D02*
X0166187Y0281158D01*
X0164839Y0282757D02*
X0170161Y0282757D01*
X0178501Y0282757D02*
X0183940Y0282757D01*
X0182592Y0281158D02*
X0179849Y0281158D01*
X0180511Y0279560D02*
X0181930Y0279560D01*
X0181810Y0277961D02*
X0180631Y0277961D01*
X0180464Y0276363D02*
X0181977Y0276363D01*
X0181647Y0274764D02*
X0182639Y0274764D01*
X0183246Y0273166D02*
X0184052Y0273166D01*
X0192168Y0273166D02*
X0197832Y0273166D01*
X0196418Y0274764D02*
X0193582Y0274764D01*
X0194244Y0276363D02*
X0195756Y0276363D01*
X0195590Y0277961D02*
X0194410Y0277961D01*
X0194290Y0279560D02*
X0195710Y0279560D01*
X0196372Y0281158D02*
X0193628Y0281158D01*
X0192280Y0282757D02*
X0197720Y0282757D01*
X0206060Y0282757D02*
X0211499Y0282757D01*
X0210151Y0281158D02*
X0207408Y0281158D01*
X0208070Y0279560D02*
X0209489Y0279560D01*
X0209369Y0277961D02*
X0208190Y0277961D01*
X0208023Y0276363D02*
X0209536Y0276363D01*
X0210198Y0274764D02*
X0207361Y0274764D01*
X0205948Y0273166D02*
X0211611Y0273166D01*
X0212832Y0233203D02*
X0207168Y0233203D01*
X0208767Y0231604D02*
X0211233Y0231604D01*
X0217168Y0233203D02*
X0222832Y0233203D01*
X0221233Y0231604D02*
X0218767Y0231604D01*
X0227168Y0233203D02*
X0232832Y0233203D01*
X0231233Y0231604D02*
X0228767Y0231604D01*
X0237168Y0233203D02*
X0242832Y0233203D01*
X0241233Y0231604D02*
X0238767Y0231604D01*
X0247168Y0233203D02*
X0252832Y0233203D01*
X0251233Y0231604D02*
X0248767Y0231604D01*
X0257168Y0233203D02*
X0262832Y0233203D01*
X0261233Y0231604D02*
X0258767Y0231604D01*
X0267168Y0233203D02*
X0272832Y0233203D01*
X0271233Y0231604D02*
X0268767Y0231604D01*
X0276791Y0247590D02*
X0283209Y0247590D01*
X0280768Y0249188D02*
X0279232Y0249188D01*
X0286791Y0247590D02*
X0293209Y0247590D01*
X0290768Y0249188D02*
X0289232Y0249188D01*
X0296791Y0247590D02*
X0303209Y0247590D01*
X0300768Y0249188D02*
X0299232Y0249188D01*
X0306791Y0247590D02*
X0313209Y0247590D01*
X0310768Y0249188D02*
X0309232Y0249188D01*
X0316791Y0247590D02*
X0323209Y0247590D01*
X0320768Y0249188D02*
X0319232Y0249188D01*
X0328898Y0257181D02*
X0331102Y0257181D01*
X0332549Y0276363D02*
X0333197Y0276363D01*
X0333031Y0277961D02*
X0331969Y0277961D01*
X0331849Y0279560D02*
X0333151Y0279560D01*
X0333813Y0281158D02*
X0331187Y0281158D01*
X0329839Y0282757D02*
X0335161Y0282757D01*
X0357168Y0273166D02*
X0357600Y0273166D01*
X0399900Y0249188D02*
X0406819Y0249188D01*
X0404993Y0247590D02*
X0399900Y0247590D01*
X0399900Y0245991D02*
X0404135Y0245991D01*
X0403700Y0244393D02*
X0399900Y0244393D01*
X0399900Y0242794D02*
X0403700Y0242794D01*
X0404213Y0241196D02*
X0399900Y0241196D01*
X0399900Y0239597D02*
X0403186Y0239597D01*
X0401587Y0237999D02*
X0399900Y0237999D01*
X0399900Y0236400D02*
X0399989Y0236400D01*
X0202832Y0233203D02*
X0197168Y0233203D01*
X0198767Y0231604D02*
X0201233Y0231604D01*
X0192832Y0233203D02*
X0187168Y0233203D01*
X0188767Y0231604D02*
X0191233Y0231604D01*
X0182832Y0233203D02*
X0177168Y0233203D01*
X0178767Y0231604D02*
X0181233Y0231604D01*
X0172832Y0233203D02*
X0167168Y0233203D01*
X0168767Y0231604D02*
X0171233Y0231604D01*
X0162832Y0233203D02*
X0157168Y0233203D01*
X0158767Y0231604D02*
X0161233Y0231604D01*
X0152832Y0233203D02*
X0147168Y0233203D01*
X0148767Y0231604D02*
X0151233Y0231604D01*
X0142832Y0233203D02*
X0137168Y0233203D01*
X0138767Y0231604D02*
X0141233Y0231604D01*
X0132832Y0233203D02*
X0127168Y0233203D01*
X0128767Y0231604D02*
X0131233Y0231604D01*
X0122832Y0233203D02*
X0054947Y0233203D01*
X0054946Y0231604D02*
X0121233Y0231604D01*
X0119800Y0230006D02*
X0054945Y0230006D01*
X0054944Y0228407D02*
X0119800Y0228407D01*
X0119800Y0226809D02*
X0054943Y0226809D01*
X0054942Y0225210D02*
X0120453Y0225210D01*
X0122052Y0223612D02*
X0054941Y0223612D01*
X0054940Y0222013D02*
X0121642Y0222013D01*
X0120044Y0220415D02*
X0054939Y0220415D01*
X0054938Y0218816D02*
X0119800Y0218816D01*
X0119800Y0217218D02*
X0054937Y0217218D01*
X0054936Y0215619D02*
X0120044Y0215619D01*
X0121643Y0214021D02*
X0054935Y0214021D01*
X0054934Y0212422D02*
X0122051Y0212422D01*
X0120453Y0210824D02*
X0054933Y0210824D01*
X0054932Y0209225D02*
X0119800Y0209225D01*
X0119800Y0207627D02*
X0054931Y0207627D01*
X0054930Y0206028D02*
X0119800Y0206028D01*
X0120518Y0204430D02*
X0054929Y0204430D01*
X0054948Y0234802D02*
X0058455Y0234802D01*
X0057156Y0236400D02*
X0054949Y0236400D01*
X0054950Y0237999D02*
X0056500Y0237999D01*
X0056500Y0239597D02*
X0054951Y0239597D01*
X0054952Y0241196D02*
X0056891Y0241196D01*
X0057816Y0242794D02*
X0054953Y0242794D01*
X0054958Y0250787D02*
X0093754Y0250787D01*
X0093300Y0252385D02*
X0090919Y0252385D01*
X0090683Y0252213D02*
X0091383Y0252722D01*
X0091995Y0253334D01*
X0092504Y0254035D01*
X0092897Y0254806D01*
X0093165Y0255629D01*
X0093300Y0256484D01*
X0093300Y0256717D01*
X0088000Y0256717D01*
X0088000Y0251417D01*
X0088233Y0251417D01*
X0089088Y0251553D01*
X0089911Y0251820D01*
X0090683Y0252213D01*
X0092467Y0253984D02*
X0093300Y0253984D01*
X0093149Y0255582D02*
X0093893Y0255582D01*
X0093300Y0257117D02*
X0088000Y0257117D01*
X0088000Y0256717D01*
X0087600Y0256717D01*
X0087600Y0251417D01*
X0087367Y0251417D01*
X0086512Y0251553D01*
X0085689Y0251820D01*
X0084917Y0252213D01*
X0084217Y0252722D01*
X0083605Y0253334D01*
X0083096Y0254035D01*
X0082703Y0254806D01*
X0082435Y0255629D01*
X0082300Y0256484D01*
X0082300Y0256717D01*
X0087600Y0256717D01*
X0087600Y0257117D01*
X0082300Y0257117D01*
X0082300Y0257350D01*
X0082435Y0258205D01*
X0082703Y0259029D01*
X0083096Y0259800D01*
X0083605Y0260500D01*
X0084217Y0261113D01*
X0084917Y0261621D01*
X0085689Y0262014D01*
X0086512Y0262282D01*
X0087367Y0262417D01*
X0087600Y0262417D01*
X0087600Y0257117D01*
X0088000Y0257117D01*
X0088000Y0262417D01*
X0088233Y0262417D01*
X0089088Y0262282D01*
X0089911Y0262014D01*
X0090683Y0261621D01*
X0091383Y0261113D01*
X0091995Y0260500D01*
X0092504Y0259800D01*
X0092897Y0259029D01*
X0093165Y0258205D01*
X0093300Y0257350D01*
X0093300Y0257117D01*
X0093300Y0257181D02*
X0095102Y0257181D01*
X0092978Y0258779D02*
X0118344Y0258779D01*
X0116746Y0260378D02*
X0092084Y0260378D01*
X0089986Y0261976D02*
X0115147Y0261976D01*
X0113549Y0263575D02*
X0054966Y0263575D01*
X0054967Y0265173D02*
X0111950Y0265173D01*
X0110352Y0266772D02*
X0054968Y0266772D01*
X0054969Y0268370D02*
X0071412Y0268370D01*
X0069654Y0269969D02*
X0054970Y0269969D01*
X0054971Y0271567D02*
X0068056Y0271567D01*
X0060273Y0273166D02*
X0054972Y0273166D01*
X0054973Y0274764D02*
X0058859Y0274764D01*
X0058197Y0276363D02*
X0054974Y0276363D01*
X0054975Y0277961D02*
X0058031Y0277961D01*
X0058151Y0279560D02*
X0054976Y0279560D01*
X0054977Y0281158D02*
X0058813Y0281158D01*
X0061767Y0262417D02*
X0060912Y0262282D01*
X0060089Y0262014D01*
X0059317Y0261621D01*
X0058617Y0261113D01*
X0058005Y0260500D01*
X0057496Y0259800D01*
X0057103Y0259029D01*
X0056835Y0258205D01*
X0056700Y0257350D01*
X0056700Y0257117D01*
X0062000Y0257117D01*
X0062000Y0256717D01*
X0062400Y0256717D01*
X0062400Y0251417D01*
X0062633Y0251417D01*
X0063488Y0251553D01*
X0064311Y0251820D01*
X0065083Y0252213D01*
X0065783Y0252722D01*
X0066395Y0253334D01*
X0066904Y0254035D01*
X0067297Y0254806D01*
X0067565Y0255629D01*
X0067700Y0256484D01*
X0067700Y0256717D01*
X0062400Y0256717D01*
X0062400Y0257117D01*
X0067700Y0257117D01*
X0067700Y0257350D01*
X0067565Y0258205D01*
X0067297Y0259029D01*
X0066904Y0259800D01*
X0066395Y0260500D01*
X0065783Y0261113D01*
X0065083Y0261621D01*
X0064311Y0262014D01*
X0063488Y0262282D01*
X0062633Y0262417D01*
X0062400Y0262417D01*
X0062400Y0257117D01*
X0062000Y0257117D01*
X0062000Y0262417D01*
X0061767Y0262417D01*
X0062000Y0261976D02*
X0062400Y0261976D01*
X0062400Y0260378D02*
X0062000Y0260378D01*
X0062000Y0258779D02*
X0062400Y0258779D01*
X0062400Y0257181D02*
X0062000Y0257181D01*
X0062000Y0256717D02*
X0056700Y0256717D01*
X0056700Y0256484D01*
X0056835Y0255629D01*
X0057103Y0254806D01*
X0057496Y0254035D01*
X0058005Y0253334D01*
X0058617Y0252722D01*
X0059317Y0252213D01*
X0060089Y0251820D01*
X0060912Y0251553D01*
X0061767Y0251417D01*
X0062000Y0251417D01*
X0062000Y0256717D01*
X0062000Y0255582D02*
X0062400Y0255582D01*
X0062400Y0253984D02*
X0062000Y0253984D01*
X0062000Y0252385D02*
X0062400Y0252385D01*
X0065319Y0252385D02*
X0084681Y0252385D01*
X0083133Y0253984D02*
X0066867Y0253984D01*
X0067549Y0255582D02*
X0082451Y0255582D01*
X0082300Y0257181D02*
X0067700Y0257181D01*
X0067378Y0258779D02*
X0082622Y0258779D01*
X0083516Y0260378D02*
X0066484Y0260378D01*
X0064386Y0261976D02*
X0085614Y0261976D01*
X0087600Y0261976D02*
X0088000Y0261976D01*
X0088000Y0260378D02*
X0087600Y0260378D01*
X0087600Y0258779D02*
X0088000Y0258779D01*
X0088000Y0257181D02*
X0087600Y0257181D01*
X0087600Y0255582D02*
X0088000Y0255582D01*
X0088000Y0253984D02*
X0087600Y0253984D01*
X0087600Y0252385D02*
X0088000Y0252385D01*
X0102898Y0257181D02*
X0105102Y0257181D01*
X0112898Y0257181D02*
X0115102Y0257181D01*
X0060014Y0261976D02*
X0054965Y0261976D01*
X0054964Y0260378D02*
X0057916Y0260378D01*
X0057022Y0258779D02*
X0054963Y0258779D01*
X0054962Y0257181D02*
X0056700Y0257181D01*
X0056851Y0255582D02*
X0054961Y0255582D01*
X0054960Y0253984D02*
X0057533Y0253984D01*
X0059081Y0252385D02*
X0054959Y0252385D01*
X0119314Y0196437D02*
X0119800Y0196437D01*
X0120825Y0194839D02*
X0117715Y0194839D01*
X0116117Y0193240D02*
X0122423Y0193240D01*
X0127577Y0193240D02*
X0132423Y0193240D01*
X0130825Y0194839D02*
X0129175Y0194839D01*
X0137577Y0193240D02*
X0142423Y0193240D01*
X0140825Y0194839D02*
X0139175Y0194839D01*
X0147577Y0193240D02*
X0152423Y0193240D01*
X0150825Y0194839D02*
X0149175Y0194839D01*
X0157577Y0193240D02*
X0162423Y0193240D01*
X0160846Y0191642D02*
X0114518Y0191642D01*
X0148968Y0169263D02*
X0150691Y0169263D01*
X0149971Y0167664D02*
X0149787Y0167664D01*
X0159175Y0194839D02*
X0160825Y0194839D01*
D22*
X0115972Y0177573D03*
D23*
X0116264Y0090709D01*
X0092500Y0090517D01*
D24*
X0144666Y0162631D02*
X0144666Y0162995D01*
M02*
