%
M48
M72
T01C0.01200
T02C0.02000
T03C0.03200
T04C0.03937
T05C0.04000
T06C0.12598
%
T01
X368800Y210598
X380200Y190798
X407200Y202798
X374200Y260398
X393400Y297598
T02
X140000Y131698
X100000Y84198
X100000Y59198
X75000Y186698
T03
X70000Y199198
X80000Y199198
X95000Y199198
X105000Y199198
X93041Y119884
X74041Y119884
T04
X75000Y89867
X75000Y76088
X75000Y62308
X75000Y48529
X109331Y44198
X123110Y44198
X136890Y44198
X150669Y44198
X164331Y44198
X178110Y44198
X191890Y44198
X205669Y44198
X219331Y44198
X233110Y44198
X246890Y44198
X260669Y44198
X274331Y44198
X288110Y44198
X301890Y44198
X315669Y44198
X329331Y44198
X343110Y44198
X356890Y44198
X370669Y44198
X401819Y40781
X411819Y35781
X401819Y30781
X411819Y25781
X412459Y15423
X426238Y15423
X398679Y15423
X384900Y15423
X370669Y19198
X356890Y19198
X343110Y19198
X329331Y19198
X315669Y19198
X301890Y19198
X288110Y19198
X274331Y19198
X260669Y19198
X246890Y19198
X233110Y19198
X219331Y19198
X205669Y19198
X191890Y19198
X178110Y19198
X164331Y19198
X150669Y19198
X136890Y19198
X123110Y19198
X109331Y19198
X398280Y91585
X408280Y86585
X408280Y96585
X398280Y101585
X408280Y106585
X398280Y111585
X398280Y121585
X408280Y116585
X408264Y147485
X398264Y152485
X408264Y157485
X398264Y162485
X408264Y167485
X408264Y177485
X398264Y172485
X398264Y182485
X408200Y208517
X398200Y213517
X408200Y218517
X398200Y223517
X408200Y228517
X398200Y233517
X398200Y243517
X408200Y238517
X408327Y269372
X398327Y274372
X408327Y279372
X398327Y284372
X408327Y289372
X408327Y299372
X398327Y294372
X398327Y304372
X381064Y279514
X371064Y279514
X361064Y279514
X351064Y279514
X356064Y269514
X366064Y269514
X376064Y269514
X346064Y269514
X325669Y279198
X311890Y279198
X298110Y279198
X284331Y279198
X270669Y279198
X256890Y279198
X243110Y279198
X229331Y279198
X215669Y279198
X201890Y279198
X188110Y279198
X174331Y279198
X160669Y279198
X146890Y279198
X133110Y279198
X119331Y279198
X105669Y279198
X91890Y279198
X78110Y279198
X64331Y279198
X64331Y304198
X78110Y304198
X91890Y304198
X105669Y304198
X119331Y304198
X133110Y304198
X146890Y304198
X160669Y304198
X174331Y304198
X188110Y304198
X201890Y304198
X215669Y304198
X229331Y304198
X243110Y304198
X256890Y304198
X270669Y304198
X284331Y304198
X298110Y304198
X311890Y304198
X325669Y304198
X401819Y60781
X411819Y55781
X401819Y50781
X411819Y45781
T05
X67200Y15298
X67200Y33098
X92800Y33098
X92800Y15298
X135000Y64198
X145000Y64198
X155000Y64198
X165000Y64198
X175000Y64198
X185000Y64198
X205000Y64198
X215000Y64198
X225000Y64198
X235000Y64198
X245000Y64198
X255000Y64198
X265000Y64198
X275000Y64198
X295000Y64198
X305000Y64198
X315000Y64198
X325000Y64198
X335000Y64198
X345000Y64198
X355000Y64198
X365000Y64198
X375000Y84198
X385000Y84198
X385000Y94198
X375000Y94198
X375000Y104198
X385000Y104198
X385000Y114198
X375000Y114198
X375000Y124198
X385000Y124198
X385000Y134198
X375000Y134198
X375000Y144198
X385000Y144198
X385000Y154198
X375000Y154198
X375000Y164198
X385000Y164198
X385000Y174198
X375000Y174198
X375000Y184198
X385000Y184198
X385000Y194198
X375000Y194198
X375000Y204198
X385000Y204198
X385000Y214198
X375000Y214198
X375000Y224198
X385000Y224198
X385000Y234198
X375000Y234198
X375000Y244198
X385000Y244198
X385000Y254198
X375000Y254198
X345000Y254198
X335000Y254198
X325000Y254198
X315000Y254198
X305000Y254198
X295000Y254198
X285000Y254198
X275000Y254198
X255000Y254198
X245000Y254198
X235000Y254198
X225000Y254198
X215000Y254198
X205000Y254198
X195000Y254198
X185000Y254198
X169000Y254198
X159000Y254198
X149000Y254198
X139000Y254198
X129000Y254198
X119000Y254198
X109000Y254198
X99000Y254198
X87800Y258098
X87800Y240298
X62200Y240298
X62200Y258098
X125000Y229198
X135000Y229198
X145000Y229198
X155000Y229198
X165000Y229198
X175000Y229198
X185000Y229198
X195000Y229198
X205000Y229198
X215000Y229198
X225000Y229198
X235000Y229198
X245000Y229198
X245000Y219198
X245000Y209198
X235000Y209198
X225000Y209198
X215000Y209198
X205000Y209198
X195000Y209198
X185000Y209198
X175000Y209198
X165000Y209198
X155000Y209198
X145000Y209198
X135000Y209198
X125000Y209198
X125000Y219198
X135000Y219198
X145000Y219198
X155000Y219198
X165000Y219198
X175000Y219198
X185000Y219198
X195000Y219198
X205000Y219198
X215000Y219198
X225000Y219198
X235000Y219198
X235000Y199198
X225000Y199198
X215000Y199198
X205000Y199198
X195000Y199198
X185000Y199198
X175000Y199198
X165000Y199198
X155000Y199198
X145000Y199198
X135000Y199198
X125000Y199198
X165000Y189198
X175000Y189198
X185000Y189198
X195000Y189198
X205000Y189198
X215000Y189198
X225000Y189198
X235000Y189198
X245000Y189198
X255000Y189198
X265000Y189198
X275000Y189198
X285000Y189198
X295000Y189198
X305000Y189198
X315000Y189198
X325000Y189198
X335000Y189198
X345000Y189198
X355000Y189198
X355000Y199198
X345000Y199198
X335000Y199198
X325000Y199198
X315000Y199198
X305000Y199198
X295000Y199198
X285000Y199198
X275000Y199198
X265000Y199198
X255000Y199198
X245000Y199198
X255000Y209198
X265000Y209198
X275000Y209198
X285000Y209198
X295000Y209198
X305000Y209198
X315000Y209198
X325000Y209198
X335000Y209198
X345000Y209198
X355000Y209198
X355000Y219198
X345000Y219198
X335000Y219198
X325000Y219198
X315000Y219198
X305000Y219198
X295000Y219198
X285000Y219198
X275000Y219198
X265000Y219198
X255000Y219198
X255000Y229198
X265000Y229198
X275000Y229198
X285000Y229198
X295000Y229198
X305000Y229198
X315000Y229198
X325000Y229198
X335000Y229198
X345000Y229198
X355000Y229198
X335000Y164198
X325000Y164198
X315000Y164198
X305000Y164198
X295000Y164198
X285000Y164198
X275000Y164198
X265000Y164198
X255000Y164198
X245000Y164198
X235000Y164198
X225000Y164198
X215000Y164198
X205000Y164198
X195000Y164198
X185000Y164198
X175000Y164198
X165000Y164198
X155000Y164198
X145000Y164198
X145000Y149198
X155000Y149198
X165000Y149198
X175000Y149198
X185000Y149198
X195000Y149198
X205000Y149198
X215000Y149198
X225000Y149198
X235000Y149198
X245000Y149198
X255000Y149198
X265000Y149198
X275000Y149198
X285000Y149198
X295000Y149198
X305000Y149198
X315000Y149198
X325000Y149198
X335000Y149198
X335000Y125327
X325000Y125327
X315000Y125327
X305000Y125327
X295000Y125327
X285000Y125327
X275000Y125327
X265000Y125327
X255000Y125327
X255000Y115327
X265000Y115327
X275000Y115327
X285000Y115327
X295000Y115327
X305000Y115327
X315000Y115327
X325000Y115327
X335000Y115327
X345000Y115327
X345000Y125327
X355000Y125327
X355000Y115327
X355000Y105327
X345000Y105327
X335000Y105327
X325000Y105327
X315000Y105327
X305000Y105327
X295000Y105327
X285000Y105327
X275000Y105327
X265000Y105327
X255000Y105327
X245000Y105327
X235000Y105327
X225000Y105327
X215000Y105327
X205000Y105327
X195000Y105327
X185000Y105327
X175000Y105327
X165000Y105327
X155000Y105327
X145000Y105327
X135000Y105327
X125000Y105327
X125000Y115327
X135000Y115327
X145000Y115327
X155000Y115327
X165000Y115327
X165000Y125327
X175000Y125327
X185000Y125327
X195000Y125327
X205000Y125327
X215000Y125327
X225000Y125327
X235000Y125327
X245000Y125327
X245000Y115327
X235000Y115327
X225000Y115327
X215000Y115327
X205000Y115327
X195000Y115327
X185000Y115327
X175000Y115327
X175000Y95327
X165000Y95327
X155000Y95327
X145000Y95327
X135000Y95327
X125000Y95327
X125000Y85327
X135000Y85327
X145000Y85327
X155000Y85327
X165000Y85327
X175000Y85327
X185000Y85327
X195000Y85327
X205000Y85327
X215000Y85327
X225000Y85327
X235000Y85327
X245000Y85327
X245000Y95327
X235000Y95327
X225000Y95327
X215000Y95327
X205000Y95327
X195000Y95327
X185000Y95327
X255000Y95327
X265000Y95327
X275000Y95327
X285000Y95327
X295000Y95327
X305000Y95327
X315000Y95327
X325000Y95327
X335000Y95327
X345000Y95327
X355000Y95327
X355000Y85327
X345000Y85327
X335000Y85327
X325000Y85327
X315000Y85327
X305000Y85327
X295000Y85327
X285000Y85327
X275000Y85327
X265000Y85327
X255000Y85327
T06
X433280Y81585
X436819Y65781
X436819Y20781
X433280Y126585
X433264Y142485
X433264Y187485
X433200Y203517
X433200Y248517
X433327Y264372
X386064Y304514
X341064Y304514
X433327Y309372
M30
