G75*
%MOIN*%
%OFA0B0*%
%FSLAX25Y25*%
%IPPOS*%
%LPD*%
%AMOC8*
5,1,8,0,0,1.08239X$1,22.5*
%
%ADD10C,0.06000*%
%ADD11R,0.03150X0.04724*%
%ADD12C,0.08600*%
%ADD13OC8,0.06000*%
%ADD14OC8,0.06600*%
%ADD15R,0.05118X0.06299*%
%ADD16C,0.07400*%
%ADD17R,0.02600X0.08000*%
%ADD18R,0.08700X0.02400*%
%ADD19OC8,0.07400*%
%ADD20C,0.07000*%
%ADD21C,0.05200*%
%ADD22R,0.04724X0.03150*%
%ADD23R,0.06299X0.05118*%
%ADD24R,0.07400X0.07400*%
%ADD25C,0.00800*%
%ADD26C,0.03200*%
%ADD27C,0.01200*%
%ADD28C,0.01600*%
%ADD29C,0.00600*%
%ADD30C,0.02400*%
D10*
X0145000Y0146198D02*
X0145000Y0152198D01*
X0155000Y0152198D02*
X0155000Y0146198D01*
X0165000Y0146198D02*
X0165000Y0152198D01*
X0175000Y0152198D02*
X0175000Y0146198D01*
X0185000Y0146198D02*
X0185000Y0152198D01*
X0195000Y0152198D02*
X0195000Y0146198D01*
X0205000Y0146198D02*
X0205000Y0152198D01*
X0215000Y0152198D02*
X0215000Y0146198D01*
X0225000Y0146198D02*
X0225000Y0152198D01*
X0235000Y0152198D02*
X0235000Y0146198D01*
X0245000Y0146198D02*
X0245000Y0152198D01*
X0245000Y0161198D02*
X0245000Y0167198D01*
X0235000Y0167198D02*
X0235000Y0161198D01*
X0225000Y0161198D02*
X0225000Y0167198D01*
X0215000Y0167198D02*
X0215000Y0161198D01*
X0205000Y0161198D02*
X0205000Y0167198D01*
X0195000Y0167198D02*
X0195000Y0161198D01*
X0185000Y0161198D02*
X0185000Y0167198D01*
X0175000Y0167198D02*
X0175000Y0161198D01*
X0165000Y0161198D02*
X0165000Y0167198D01*
X0155000Y0167198D02*
X0155000Y0161198D01*
X0145000Y0161198D02*
X0145000Y0167198D01*
X0255000Y0167198D02*
X0255000Y0161198D01*
X0265000Y0161198D02*
X0265000Y0167198D01*
X0275000Y0167198D02*
X0275000Y0161198D01*
X0285000Y0161198D02*
X0285000Y0167198D01*
X0295000Y0167198D02*
X0295000Y0161198D01*
X0305000Y0161198D02*
X0305000Y0167198D01*
X0315000Y0167198D02*
X0315000Y0161198D01*
X0325000Y0161198D02*
X0325000Y0167198D01*
X0335000Y0167198D02*
X0335000Y0161198D01*
X0335000Y0152198D02*
X0335000Y0146198D01*
X0325000Y0146198D02*
X0325000Y0152198D01*
X0315000Y0152198D02*
X0315000Y0146198D01*
X0305000Y0146198D02*
X0305000Y0152198D01*
X0295000Y0152198D02*
X0295000Y0146198D01*
X0285000Y0146198D02*
X0285000Y0152198D01*
X0275000Y0152198D02*
X0275000Y0146198D01*
X0265000Y0146198D02*
X0265000Y0152198D01*
X0255000Y0152198D02*
X0255000Y0146198D01*
D11*
X0088543Y0104198D03*
X0081457Y0104198D03*
X0073543Y0104198D03*
X0066457Y0104198D03*
D12*
X0075000Y0089867D03*
X0075000Y0076088D03*
X0075000Y0062308D03*
X0075000Y0048529D03*
X0109331Y0044198D03*
X0123110Y0044198D03*
X0136890Y0044198D03*
X0150669Y0044198D03*
X0164331Y0044198D03*
X0178110Y0044198D03*
X0191890Y0044198D03*
X0205669Y0044198D03*
X0219331Y0044198D03*
X0233110Y0044198D03*
X0246890Y0044198D03*
X0260669Y0044198D03*
X0274331Y0044198D03*
X0288110Y0044198D03*
X0301890Y0044198D03*
X0315669Y0044198D03*
X0329331Y0044198D03*
X0343110Y0044198D03*
X0356890Y0044198D03*
X0370669Y0044198D03*
X0370669Y0019198D03*
X0356890Y0019198D03*
X0343110Y0019198D03*
X0329331Y0019198D03*
X0315669Y0019198D03*
X0301890Y0019198D03*
X0288110Y0019198D03*
X0274331Y0019198D03*
X0260669Y0019198D03*
X0246890Y0019198D03*
X0233110Y0019198D03*
X0219331Y0019198D03*
X0205669Y0019198D03*
X0191890Y0019198D03*
X0178110Y0019198D03*
X0164331Y0019198D03*
X0150669Y0019198D03*
X0136890Y0019198D03*
X0123110Y0019198D03*
X0109331Y0019198D03*
X0384900Y0015423D03*
X0398679Y0015423D03*
X0412459Y0015423D03*
X0426238Y0015423D03*
X0325669Y0279198D03*
X0311890Y0279198D03*
X0298110Y0279198D03*
X0284331Y0279198D03*
X0270669Y0279198D03*
X0256890Y0279198D03*
X0243110Y0279198D03*
X0229331Y0279198D03*
X0215669Y0279198D03*
X0201890Y0279198D03*
X0188110Y0279198D03*
X0174331Y0279198D03*
X0160669Y0279198D03*
X0146890Y0279198D03*
X0133110Y0279198D03*
X0119331Y0279198D03*
X0105669Y0279198D03*
X0091890Y0279198D03*
X0078110Y0279198D03*
X0064331Y0279198D03*
X0064331Y0304198D03*
X0078110Y0304198D03*
X0091890Y0304198D03*
X0105669Y0304198D03*
X0119331Y0304198D03*
X0133110Y0304198D03*
X0146890Y0304198D03*
X0160669Y0304198D03*
X0174331Y0304198D03*
X0188110Y0304198D03*
X0201890Y0304198D03*
X0215669Y0304198D03*
X0229331Y0304198D03*
X0243110Y0304198D03*
X0256890Y0304198D03*
X0270669Y0304198D03*
X0284331Y0304198D03*
X0298110Y0304198D03*
X0311890Y0304198D03*
X0325669Y0304198D03*
D13*
X0325000Y0229198D03*
X0315000Y0229198D03*
X0305000Y0229198D03*
X0295000Y0229198D03*
X0285000Y0229198D03*
X0275000Y0229198D03*
X0265000Y0229198D03*
X0255000Y0229198D03*
X0255000Y0219198D03*
X0255000Y0209198D03*
X0265000Y0209198D03*
X0275000Y0209198D03*
X0285000Y0209198D03*
X0295000Y0209198D03*
X0305000Y0209198D03*
X0315000Y0209198D03*
X0325000Y0209198D03*
X0335000Y0209198D03*
X0345000Y0209198D03*
X0355000Y0209198D03*
X0355000Y0219198D03*
X0345000Y0219198D03*
X0335000Y0219198D03*
X0325000Y0219198D03*
X0315000Y0219198D03*
X0305000Y0219198D03*
X0295000Y0219198D03*
X0285000Y0219198D03*
X0275000Y0219198D03*
X0265000Y0219198D03*
X0265000Y0199198D03*
X0255000Y0199198D03*
X0245000Y0199198D03*
X0235000Y0199198D03*
X0225000Y0199198D03*
X0215000Y0199198D03*
X0205000Y0199198D03*
X0195000Y0199198D03*
X0185000Y0199198D03*
X0175000Y0199198D03*
X0165000Y0199198D03*
X0155000Y0199198D03*
X0145000Y0199198D03*
X0135000Y0199198D03*
X0125000Y0199198D03*
X0125000Y0209198D03*
X0135000Y0209198D03*
X0145000Y0209198D03*
X0155000Y0209198D03*
X0165000Y0209198D03*
X0175000Y0209198D03*
X0185000Y0209198D03*
X0195000Y0209198D03*
X0205000Y0209198D03*
X0215000Y0209198D03*
X0225000Y0209198D03*
X0235000Y0209198D03*
X0245000Y0209198D03*
X0245000Y0219198D03*
X0235000Y0219198D03*
X0225000Y0219198D03*
X0215000Y0219198D03*
X0205000Y0219198D03*
X0195000Y0219198D03*
X0185000Y0219198D03*
X0175000Y0219198D03*
X0165000Y0219198D03*
X0155000Y0219198D03*
X0145000Y0219198D03*
X0135000Y0219198D03*
X0125000Y0219198D03*
X0125000Y0229198D03*
X0135000Y0229198D03*
X0145000Y0229198D03*
X0155000Y0229198D03*
X0165000Y0229198D03*
X0175000Y0229198D03*
X0185000Y0229198D03*
X0195000Y0229198D03*
X0205000Y0229198D03*
X0215000Y0229198D03*
X0225000Y0229198D03*
X0235000Y0229198D03*
X0245000Y0229198D03*
X0275000Y0199198D03*
X0285000Y0199198D03*
X0295000Y0199198D03*
X0305000Y0199198D03*
X0315000Y0199198D03*
X0325000Y0199198D03*
X0335000Y0199198D03*
X0345000Y0199198D03*
X0355000Y0199198D03*
X0355000Y0229198D03*
X0345000Y0229198D03*
X0335000Y0229198D03*
X0335000Y0115327D03*
X0325000Y0115327D03*
X0315000Y0115327D03*
X0305000Y0115327D03*
X0295000Y0115327D03*
X0285000Y0115327D03*
X0275000Y0115327D03*
X0265000Y0115327D03*
X0255000Y0115327D03*
X0245000Y0115327D03*
X0235000Y0115327D03*
X0225000Y0115327D03*
X0215000Y0115327D03*
X0205000Y0115327D03*
X0195000Y0115327D03*
X0185000Y0115327D03*
X0175000Y0115327D03*
X0165000Y0115327D03*
X0155000Y0115327D03*
X0145000Y0115327D03*
X0135000Y0115327D03*
X0125000Y0115327D03*
X0125000Y0105327D03*
X0135000Y0105327D03*
X0145000Y0105327D03*
X0155000Y0105327D03*
X0165000Y0105327D03*
X0175000Y0105327D03*
X0185000Y0105327D03*
X0195000Y0105327D03*
X0205000Y0105327D03*
X0215000Y0105327D03*
X0225000Y0105327D03*
X0235000Y0105327D03*
X0245000Y0105327D03*
X0255000Y0105327D03*
X0265000Y0105327D03*
X0275000Y0105327D03*
X0285000Y0105327D03*
X0295000Y0105327D03*
X0305000Y0105327D03*
X0315000Y0105327D03*
X0325000Y0105327D03*
X0335000Y0105327D03*
X0345000Y0105327D03*
X0355000Y0105327D03*
X0355000Y0115327D03*
X0345000Y0115327D03*
X0345000Y0095327D03*
X0335000Y0095327D03*
X0325000Y0095327D03*
X0315000Y0095327D03*
X0305000Y0095327D03*
X0295000Y0095327D03*
X0285000Y0095327D03*
X0275000Y0095327D03*
X0265000Y0095327D03*
X0255000Y0095327D03*
X0245000Y0095327D03*
X0235000Y0095327D03*
X0225000Y0095327D03*
X0215000Y0095327D03*
X0205000Y0095327D03*
X0195000Y0095327D03*
X0185000Y0095327D03*
X0175000Y0095327D03*
X0165000Y0095327D03*
X0155000Y0095327D03*
X0145000Y0095327D03*
X0135000Y0095327D03*
X0125000Y0095327D03*
X0125000Y0085327D03*
X0135000Y0085327D03*
X0145000Y0085327D03*
X0155000Y0085327D03*
X0165000Y0085327D03*
X0175000Y0085327D03*
X0185000Y0085327D03*
X0195000Y0085327D03*
X0205000Y0085327D03*
X0215000Y0085327D03*
X0225000Y0085327D03*
X0235000Y0085327D03*
X0245000Y0085327D03*
X0255000Y0085327D03*
X0265000Y0085327D03*
X0275000Y0085327D03*
X0285000Y0085327D03*
X0295000Y0085327D03*
X0305000Y0085327D03*
X0315000Y0085327D03*
X0325000Y0085327D03*
X0335000Y0085327D03*
X0345000Y0085327D03*
X0355000Y0085327D03*
X0355000Y0095327D03*
D14*
X0105000Y0199198D03*
X0095000Y0199198D03*
X0080000Y0199198D03*
X0070000Y0199198D03*
D15*
X0071260Y0214198D03*
X0078740Y0214198D03*
X0091260Y0224198D03*
X0098740Y0224198D03*
X0078740Y0229198D03*
X0071260Y0229198D03*
D16*
X0062200Y0240298D03*
X0062200Y0258098D03*
X0087800Y0258098D03*
X0099000Y0254198D03*
X0109000Y0254198D03*
X0119000Y0254198D03*
X0129000Y0254198D03*
X0139000Y0254198D03*
X0149000Y0254198D03*
X0159000Y0254198D03*
X0169000Y0254198D03*
X0185000Y0254198D03*
X0195000Y0254198D03*
X0205000Y0254198D03*
X0215000Y0254198D03*
X0225000Y0254198D03*
X0235000Y0254198D03*
X0245000Y0254198D03*
X0255000Y0254198D03*
X0275000Y0254198D03*
X0285000Y0254198D03*
X0295000Y0254198D03*
X0305000Y0254198D03*
X0315000Y0254198D03*
X0325000Y0254198D03*
X0335000Y0254198D03*
X0345000Y0254198D03*
X0346064Y0269514D03*
X0356064Y0269514D03*
X0366064Y0269514D03*
X0376064Y0269514D03*
X0371064Y0279514D03*
X0361064Y0279514D03*
X0351064Y0279514D03*
X0375000Y0254198D03*
X0385000Y0254198D03*
X0398200Y0243517D03*
X0398200Y0233517D03*
X0408200Y0228517D03*
X0398200Y0223517D03*
X0408200Y0218517D03*
X0398200Y0213517D03*
X0408200Y0238517D03*
X0398327Y0274372D03*
X0408327Y0279372D03*
X0398327Y0284372D03*
X0408327Y0289372D03*
X0408327Y0299372D03*
X0398327Y0294372D03*
X0398327Y0304372D03*
X0398264Y0182485D03*
X0408264Y0177485D03*
X0408264Y0167485D03*
X0398264Y0162485D03*
X0408264Y0157485D03*
X0398264Y0152485D03*
X0398264Y0172485D03*
X0398280Y0121585D03*
X0398280Y0111585D03*
X0408280Y0106585D03*
X0398280Y0101585D03*
X0408280Y0096585D03*
X0398280Y0091585D03*
X0385000Y0084198D03*
X0375000Y0084198D03*
X0365000Y0064198D03*
X0355000Y0064198D03*
X0345000Y0064198D03*
X0335000Y0064198D03*
X0325000Y0064198D03*
X0315000Y0064198D03*
X0305000Y0064198D03*
X0295000Y0064198D03*
X0275000Y0064198D03*
X0265000Y0064198D03*
X0255000Y0064198D03*
X0245000Y0064198D03*
X0235000Y0064198D03*
X0225000Y0064198D03*
X0215000Y0064198D03*
X0205000Y0064198D03*
X0185000Y0064198D03*
X0175000Y0064198D03*
X0165000Y0064198D03*
X0155000Y0064198D03*
X0145000Y0064198D03*
X0135000Y0064198D03*
X0092800Y0033098D03*
X0092800Y0015298D03*
X0067200Y0015298D03*
X0067200Y0033098D03*
X0087800Y0240298D03*
X0401819Y0060781D03*
X0411819Y0055781D03*
X0401819Y0050781D03*
X0411819Y0045781D03*
X0401819Y0040781D03*
X0411819Y0035781D03*
X0401819Y0030781D03*
X0408280Y0116585D03*
D17*
X0105000Y0139898D03*
X0100000Y0139898D03*
X0095000Y0139898D03*
X0090000Y0139898D03*
X0085000Y0139898D03*
X0080000Y0139898D03*
X0075000Y0139898D03*
X0070000Y0139898D03*
X0065000Y0139898D03*
X0065000Y0178498D03*
X0070000Y0178498D03*
X0075000Y0178498D03*
X0080000Y0178498D03*
X0085000Y0178498D03*
X0090000Y0178498D03*
X0095000Y0178498D03*
X0100000Y0178498D03*
X0105000Y0178498D03*
D18*
X0110300Y0076698D03*
X0110300Y0071698D03*
X0110300Y0066698D03*
X0110300Y0061698D03*
X0089700Y0061698D03*
X0089700Y0066698D03*
X0089700Y0071698D03*
X0089700Y0076698D03*
D19*
X0375000Y0094198D03*
X0385000Y0094198D03*
X0385000Y0104198D03*
X0375000Y0104198D03*
X0375000Y0114198D03*
X0385000Y0114198D03*
X0385000Y0124198D03*
X0375000Y0124198D03*
X0375000Y0134198D03*
X0385000Y0134198D03*
X0385000Y0144198D03*
X0375000Y0144198D03*
X0375000Y0154198D03*
X0385000Y0154198D03*
X0385000Y0164198D03*
X0375000Y0164198D03*
X0375000Y0174198D03*
X0385000Y0174198D03*
X0385000Y0184198D03*
X0375000Y0184198D03*
X0375000Y0194198D03*
X0385000Y0194198D03*
X0385000Y0204198D03*
X0375000Y0204198D03*
X0375000Y0214198D03*
X0385000Y0214198D03*
X0385000Y0224198D03*
X0375000Y0224198D03*
X0375000Y0234198D03*
X0385000Y0234198D03*
X0385000Y0244198D03*
X0375000Y0244198D03*
D20*
X0355000Y0189198D03*
X0345000Y0189198D03*
X0335000Y0189198D03*
X0325000Y0189198D03*
X0315000Y0189198D03*
X0305000Y0189198D03*
X0295000Y0189198D03*
X0285000Y0189198D03*
X0275000Y0189198D03*
X0265000Y0189198D03*
X0255000Y0189198D03*
X0245000Y0189198D03*
X0235000Y0189198D03*
X0225000Y0189198D03*
X0215000Y0189198D03*
X0205000Y0189198D03*
X0195000Y0189198D03*
X0185000Y0189198D03*
X0175000Y0189198D03*
X0165000Y0189198D03*
X0165000Y0125327D03*
X0175000Y0125327D03*
X0185000Y0125327D03*
X0195000Y0125327D03*
X0205000Y0125327D03*
X0215000Y0125327D03*
X0225000Y0125327D03*
X0235000Y0125327D03*
X0245000Y0125327D03*
X0255000Y0125327D03*
X0265000Y0125327D03*
X0275000Y0125327D03*
X0285000Y0125327D03*
X0295000Y0125327D03*
X0305000Y0125327D03*
X0315000Y0125327D03*
X0325000Y0125327D03*
X0335000Y0125327D03*
X0345000Y0125327D03*
X0355000Y0125327D03*
D21*
X0093041Y0119884D03*
X0074041Y0119884D03*
D22*
X0112190Y0126126D03*
X0112190Y0133212D03*
X0122662Y0066216D03*
X0122662Y0059129D03*
D23*
X0116519Y0166453D03*
X0116519Y0173933D03*
D24*
X0381064Y0279514D03*
X0408327Y0269372D03*
X0408200Y0208517D03*
X0408264Y0147485D03*
X0408280Y0086585D03*
X0411819Y0025781D03*
D25*
X0365000Y0064198D02*
X0352500Y0051698D01*
X0325000Y0051698D01*
X0317500Y0044198D01*
X0315669Y0044198D01*
X0312500Y0054198D02*
X0302500Y0044198D01*
X0301890Y0044198D01*
X0312500Y0054198D02*
X0345000Y0054198D01*
X0355000Y0064198D01*
X0335000Y0064198D02*
X0327500Y0056698D01*
X0287500Y0056698D01*
X0275000Y0044198D01*
X0274331Y0044198D01*
X0270000Y0051698D02*
X0227500Y0051698D01*
X0220000Y0044198D01*
X0219331Y0044198D01*
X0209650Y0046348D02*
X0207500Y0044198D01*
X0205669Y0044198D01*
X0209650Y0046348D02*
X0217500Y0054198D01*
X0265000Y0054198D01*
X0275000Y0064198D01*
X0282500Y0064198D02*
X0270000Y0051698D01*
X0257500Y0056698D02*
X0205000Y0056698D01*
X0195250Y0046948D01*
X0192500Y0044198D01*
X0191890Y0044198D01*
X0210000Y0059198D02*
X0158800Y0059198D01*
X0140000Y0059198D01*
X0125000Y0044198D01*
X0123110Y0044198D01*
X0115000Y0044198D02*
X0115000Y0036698D01*
X0095000Y0016698D01*
X0092800Y0015298D01*
X0115000Y0044198D02*
X0135000Y0064198D01*
X0110300Y0061698D02*
X0110000Y0061698D01*
X0107500Y0059198D01*
X0100000Y0059198D01*
X0089700Y0066698D02*
X0077500Y0066698D01*
X0075000Y0064198D01*
X0075000Y0062308D01*
X0077500Y0071698D02*
X0075000Y0074198D01*
X0075000Y0076088D01*
X0077500Y0071698D02*
X0089700Y0071698D01*
X0105000Y0081698D02*
X0110000Y0076698D01*
X0110300Y0076698D01*
X0105000Y0081698D02*
X0105000Y0139898D01*
X0100000Y0139898D02*
X0100000Y0084198D01*
X0082500Y0104198D02*
X0081457Y0104198D01*
X0073543Y0104198D02*
X0072500Y0104198D01*
X0107500Y0115448D02*
X0122500Y0100448D01*
X0368750Y0100448D01*
X0375000Y0094198D01*
X0375000Y0104198D02*
X0368750Y0110448D01*
X0142500Y0110448D01*
X0140000Y0112948D01*
X0140000Y0116698D01*
X0090000Y0166698D01*
X0090000Y0178498D01*
X0085000Y0178498D02*
X0085000Y0181698D01*
X0087500Y0184198D01*
X0092500Y0184198D01*
X0092500Y0172948D01*
X0145000Y0120448D01*
X0361250Y0120448D01*
X0372500Y0109198D01*
X0380000Y0109198D01*
X0385000Y0104198D01*
X0380000Y0151137D02*
X0380000Y0151698D01*
X0377500Y0199198D02*
X0372500Y0199198D01*
X0367500Y0204198D01*
X0120000Y0204198D01*
X0100000Y0224198D01*
X0098740Y0224198D01*
X0092500Y0224198D02*
X0091260Y0224198D01*
X0092500Y0224198D02*
X0092500Y0201698D01*
X0095000Y0199198D01*
X0105000Y0199198D02*
X0140000Y0164198D01*
X0145000Y0164198D01*
X0116250Y0172948D02*
X0116519Y0173933D01*
X0116250Y0172948D02*
X0101250Y0172948D01*
X0100000Y0174198D01*
X0100000Y0178498D01*
X0095000Y0178498D02*
X0094979Y0176141D01*
X0140000Y0131698D01*
X0107500Y0145448D02*
X0107500Y0115448D01*
X0107500Y0145448D02*
X0080000Y0172948D01*
X0080000Y0178498D01*
X0075000Y0186698D02*
X0065000Y0196698D01*
X0065000Y0201698D01*
X0070000Y0206698D01*
X0070000Y0214198D01*
X0071260Y0214198D01*
X0077500Y0214198D02*
X0077500Y0206698D01*
X0070000Y0199198D01*
X0077500Y0214198D02*
X0078740Y0214198D01*
X0078750Y0219198D02*
X0081250Y0219198D01*
X0087500Y0212948D01*
X0087500Y0189198D01*
X0098750Y0189198D01*
X0105000Y0182948D01*
X0105000Y0178498D01*
X0078750Y0219198D02*
X0078750Y0229198D01*
X0078740Y0229198D01*
X0071260Y0229198D02*
X0070000Y0229198D01*
X0060000Y0239198D01*
X0062200Y0240298D01*
X0062500Y0241698D01*
X0087500Y0241698D01*
X0087800Y0240298D01*
X0090000Y0269198D02*
X0080000Y0279198D01*
X0078110Y0279198D01*
X0091890Y0279198D02*
X0092500Y0279198D01*
X0100000Y0271698D01*
X0130000Y0271698D01*
X0147500Y0254198D01*
X0149000Y0254198D01*
X0139000Y0254198D02*
X0137500Y0254198D01*
X0122500Y0269198D01*
X0090000Y0269198D01*
X0119331Y0279198D02*
X0125000Y0279198D01*
X0135000Y0269198D01*
X0152500Y0269198D01*
X0167500Y0254198D01*
X0169000Y0254198D01*
X0177500Y0254198D02*
X0160000Y0271698D01*
X0155200Y0271698D01*
X0142500Y0271698D01*
X0135000Y0279198D01*
X0133110Y0279198D01*
X0160669Y0279198D02*
X0162500Y0279198D01*
X0170000Y0271698D01*
X0187500Y0271698D01*
X0205000Y0254198D01*
X0207500Y0271698D02*
X0225000Y0254198D01*
X0235000Y0254198D02*
X0217500Y0271698D01*
X0210000Y0271698D01*
X0202500Y0279198D01*
X0201890Y0279198D01*
X0197500Y0271698D02*
X0190000Y0279198D01*
X0188110Y0279198D01*
X0197500Y0271698D02*
X0207500Y0271698D01*
X0185000Y0254198D02*
X0177500Y0254198D01*
X0065000Y0139898D02*
X0065000Y0134198D01*
X0210000Y0059198D02*
X0215000Y0064198D01*
X0257500Y0056698D02*
X0265000Y0064198D01*
X0282500Y0064198D02*
X0295000Y0064198D01*
X0377500Y0199198D02*
X0380000Y0201698D01*
X0380000Y0239198D01*
X0385000Y0244198D01*
D26*
X0140000Y0131698D03*
X0100000Y0084198D03*
X0100000Y0059198D03*
X0075000Y0186698D03*
D27*
X0075000Y0139898D02*
X0075544Y0132761D01*
X0081437Y0130371D01*
X0081457Y0104198D01*
X0082500Y0104198D02*
X0082500Y0109343D01*
X0093041Y0119884D01*
X0074041Y0119884D02*
X0070000Y0139898D01*
X0065000Y0134198D02*
X0065033Y0115715D01*
X0061052Y0106634D01*
X0061211Y0099465D01*
X0071085Y0099146D01*
X0073543Y0104198D01*
X0066457Y0104198D02*
X0066457Y0112299D01*
X0074041Y0119884D01*
D28*
X0056478Y0006888D02*
X0056478Y0316746D01*
X0429442Y0316746D01*
X0428626Y0316408D01*
X0426291Y0314073D01*
X0425028Y0311023D01*
X0425028Y0307722D01*
X0426291Y0304671D01*
X0428626Y0302337D01*
X0431676Y0301073D01*
X0434978Y0301073D01*
X0438028Y0302337D01*
X0440362Y0304671D01*
X0441626Y0307722D01*
X0441626Y0311023D01*
X0440362Y0314073D01*
X0438028Y0316408D01*
X0437211Y0316746D01*
X0446691Y0316746D01*
X0448187Y0122843D01*
X0448187Y0006888D01*
X0056478Y0006888D01*
X0056478Y0007395D02*
X0448187Y0007395D01*
X0448187Y0008994D02*
X0056478Y0008994D01*
X0056478Y0010592D02*
X0063845Y0010592D01*
X0063971Y0010466D02*
X0066066Y0009598D01*
X0068334Y0009598D01*
X0070429Y0010466D01*
X0072032Y0012069D01*
X0072900Y0014164D01*
X0072900Y0016432D01*
X0072032Y0018527D01*
X0070429Y0020130D01*
X0068334Y0020998D01*
X0066066Y0020998D01*
X0063971Y0020130D01*
X0062368Y0018527D01*
X0061500Y0016432D01*
X0061500Y0014164D01*
X0062368Y0012069D01*
X0063971Y0010466D01*
X0062317Y0012191D02*
X0056478Y0012191D01*
X0056478Y0013789D02*
X0061655Y0013789D01*
X0061500Y0015388D02*
X0056478Y0015388D01*
X0056478Y0016986D02*
X0061730Y0016986D01*
X0062426Y0018585D02*
X0056478Y0018585D01*
X0056478Y0020183D02*
X0064099Y0020183D01*
X0070301Y0020183D02*
X0089699Y0020183D01*
X0089571Y0020130D02*
X0087968Y0018527D01*
X0087100Y0016432D01*
X0087100Y0014164D01*
X0087968Y0012069D01*
X0089571Y0010466D01*
X0091666Y0009598D01*
X0093934Y0009598D01*
X0096029Y0010466D01*
X0097632Y0012069D01*
X0098500Y0014164D01*
X0098500Y0016432D01*
X0098391Y0016695D01*
X0103655Y0021960D01*
X0103031Y0020451D01*
X0103031Y0017945D01*
X0103990Y0015630D01*
X0105762Y0013857D01*
X0108078Y0012898D01*
X0110584Y0012898D01*
X0112899Y0013857D01*
X0114672Y0015630D01*
X0115631Y0017945D01*
X0115631Y0020451D01*
X0114672Y0022767D01*
X0112899Y0024539D01*
X0110584Y0025498D01*
X0108078Y0025498D01*
X0106569Y0024873D01*
X0117035Y0035339D01*
X0117400Y0036221D01*
X0117400Y0041521D01*
X0117769Y0040630D01*
X0119542Y0038857D01*
X0121857Y0037898D01*
X0124363Y0037898D01*
X0126679Y0038857D01*
X0128451Y0040630D01*
X0129410Y0042945D01*
X0129410Y0045214D01*
X0131256Y0047060D01*
X0130590Y0045451D01*
X0130590Y0042945D01*
X0131549Y0040630D01*
X0133321Y0038857D01*
X0135637Y0037898D01*
X0138143Y0037898D01*
X0140458Y0038857D01*
X0142231Y0040630D01*
X0143190Y0042945D01*
X0143190Y0045451D01*
X0142231Y0047767D01*
X0140458Y0049539D01*
X0138143Y0050498D01*
X0135637Y0050498D01*
X0134028Y0049832D01*
X0140994Y0056798D01*
X0156500Y0056798D01*
X0156500Y0046584D01*
X0156010Y0047767D01*
X0154238Y0049539D01*
X0151922Y0050498D01*
X0149416Y0050498D01*
X0147101Y0049539D01*
X0145328Y0047767D01*
X0144369Y0045451D01*
X0144369Y0042945D01*
X0145328Y0040630D01*
X0147101Y0038857D01*
X0149416Y0037898D01*
X0151922Y0037898D01*
X0154238Y0038857D01*
X0156010Y0040630D01*
X0156500Y0041812D01*
X0156500Y0041046D01*
X0168647Y0028898D01*
X0396429Y0028898D01*
X0396986Y0027552D01*
X0398590Y0025949D01*
X0400685Y0025081D01*
X0402952Y0025081D01*
X0405047Y0025949D01*
X0406119Y0027020D01*
X0406119Y0021253D01*
X0407290Y0020081D01*
X0408492Y0020081D01*
X0408485Y0020076D01*
X0407806Y0019397D01*
X0407242Y0018620D01*
X0406806Y0017765D01*
X0406509Y0016852D01*
X0406359Y0015903D01*
X0406359Y0015607D01*
X0412274Y0015607D01*
X0412274Y0015239D01*
X0406359Y0015239D01*
X0406359Y0014943D01*
X0406509Y0013995D01*
X0406806Y0013082D01*
X0407242Y0012226D01*
X0407806Y0011449D01*
X0408485Y0010770D01*
X0409262Y0010206D01*
X0410117Y0009770D01*
X0411030Y0009473D01*
X0411979Y0009323D01*
X0412274Y0009323D01*
X0412274Y0015239D01*
X0412643Y0015239D01*
X0412643Y0015607D01*
X0418559Y0015607D01*
X0418559Y0015903D01*
X0418409Y0016852D01*
X0418112Y0017765D01*
X0417676Y0018620D01*
X0417112Y0019397D01*
X0416433Y0020076D01*
X0416380Y0020114D01*
X0417519Y0021253D01*
X0417519Y0030309D01*
X0416347Y0031481D01*
X0415580Y0031481D01*
X0416651Y0032552D01*
X0417519Y0034647D01*
X0417519Y0036915D01*
X0416651Y0039010D01*
X0415047Y0040613D01*
X0414642Y0040781D01*
X0415047Y0040949D01*
X0416651Y0042552D01*
X0417519Y0044647D01*
X0417519Y0046915D01*
X0416651Y0049010D01*
X0415047Y0050613D01*
X0414642Y0050781D01*
X0415047Y0050949D01*
X0416651Y0052552D01*
X0417519Y0054647D01*
X0417519Y0056915D01*
X0416651Y0059010D01*
X0415047Y0060613D01*
X0412952Y0061481D01*
X0410685Y0061481D01*
X0408590Y0060613D01*
X0407444Y0059468D01*
X0407519Y0059647D01*
X0407519Y0061915D01*
X0406651Y0064010D01*
X0405047Y0065613D01*
X0402952Y0066481D01*
X0400685Y0066481D01*
X0398590Y0065613D01*
X0396986Y0064010D01*
X0396526Y0062898D01*
X0393647Y0062898D01*
X0376744Y0045995D01*
X0376010Y0047767D01*
X0374238Y0049539D01*
X0372509Y0050255D01*
X0403446Y0081191D01*
X0403752Y0080885D01*
X0412809Y0080885D01*
X0413980Y0082057D01*
X0413980Y0091113D01*
X0412809Y0092285D01*
X0412041Y0092285D01*
X0413113Y0093356D01*
X0413980Y0095451D01*
X0413980Y0097719D01*
X0413113Y0099814D01*
X0411509Y0101417D01*
X0411104Y0101585D01*
X0411509Y0101753D01*
X0413113Y0103356D01*
X0413980Y0105451D01*
X0413980Y0107719D01*
X0413113Y0109814D01*
X0411509Y0111417D01*
X0411104Y0111585D01*
X0411509Y0111753D01*
X0413113Y0113356D01*
X0413980Y0115451D01*
X0413980Y0117719D01*
X0413113Y0119814D01*
X0411509Y0121417D01*
X0409414Y0122285D01*
X0407566Y0122285D01*
X0402300Y0127551D01*
X0400953Y0128898D01*
X0395447Y0128898D01*
X0390700Y0124151D01*
X0390700Y0126559D01*
X0390657Y0126602D01*
X0405840Y0141785D01*
X0412792Y0141785D01*
X0413964Y0142957D01*
X0413964Y0152013D01*
X0412792Y0153185D01*
X0412025Y0153185D01*
X0413096Y0154256D01*
X0413964Y0156351D01*
X0413964Y0158619D01*
X0413096Y0160714D01*
X0411493Y0162317D01*
X0411088Y0162485D01*
X0411493Y0162653D01*
X0413096Y0164256D01*
X0413964Y0166351D01*
X0413964Y0168619D01*
X0413096Y0170714D01*
X0411493Y0172317D01*
X0411088Y0172485D01*
X0411493Y0172653D01*
X0413096Y0174256D01*
X0413964Y0176351D01*
X0413964Y0178619D01*
X0413096Y0180714D01*
X0411493Y0182317D01*
X0409398Y0183185D01*
X0407130Y0183185D01*
X0405035Y0182317D01*
X0403890Y0181172D01*
X0403964Y0181351D01*
X0403964Y0183619D01*
X0403096Y0185714D01*
X0401493Y0187317D01*
X0400276Y0187821D01*
X0412353Y0199898D01*
X0413553Y0199898D01*
X0415353Y0201698D01*
X0416700Y0203046D01*
X0416700Y0240351D01*
X0412500Y0244551D01*
X0411153Y0245898D01*
X0403847Y0245898D01*
X0403519Y0245570D01*
X0403032Y0246746D01*
X0401429Y0248350D01*
X0400139Y0248884D01*
X0415500Y0264246D01*
X0415500Y0275151D01*
X0413554Y0277097D01*
X0414027Y0278239D01*
X0414027Y0280506D01*
X0413159Y0282601D01*
X0411556Y0284205D01*
X0411150Y0284372D01*
X0411556Y0284540D01*
X0413159Y0286144D01*
X0414027Y0288239D01*
X0414027Y0290506D01*
X0413159Y0292601D01*
X0411556Y0294205D01*
X0411150Y0294372D01*
X0411556Y0294540D01*
X0413159Y0296144D01*
X0414027Y0298239D01*
X0414027Y0300506D01*
X0413159Y0302601D01*
X0411556Y0304205D01*
X0409461Y0305072D01*
X0407193Y0305072D01*
X0405098Y0304205D01*
X0403952Y0303059D01*
X0404027Y0303239D01*
X0404027Y0305506D01*
X0403159Y0307601D01*
X0401556Y0309205D01*
X0399461Y0310072D01*
X0397193Y0310072D01*
X0395098Y0309205D01*
X0393688Y0307794D01*
X0393099Y0309215D01*
X0390765Y0311550D01*
X0387715Y0312813D01*
X0384413Y0312813D01*
X0381363Y0311550D01*
X0379028Y0309215D01*
X0377765Y0306165D01*
X0377765Y0302863D01*
X0379028Y0299813D01*
X0381363Y0297478D01*
X0384413Y0296215D01*
X0387715Y0296215D01*
X0388700Y0296623D01*
X0388700Y0278751D01*
X0386764Y0276815D01*
X0386764Y0284042D01*
X0385592Y0285214D01*
X0376535Y0285214D01*
X0375364Y0284042D01*
X0375364Y0283275D01*
X0374293Y0284346D01*
X0372198Y0285214D01*
X0369930Y0285214D01*
X0367835Y0284346D01*
X0366232Y0282743D01*
X0366064Y0282338D01*
X0365896Y0282743D01*
X0364293Y0284346D01*
X0362198Y0285214D01*
X0359930Y0285214D01*
X0357835Y0284346D01*
X0357170Y0283681D01*
X0354300Y0286551D01*
X0352953Y0287898D01*
X0152447Y0287898D01*
X0149490Y0284940D01*
X0148143Y0285498D01*
X0145637Y0285498D01*
X0143321Y0284539D01*
X0141549Y0282767D01*
X0140590Y0280451D01*
X0140590Y0277945D01*
X0141256Y0276336D01*
X0139410Y0278182D01*
X0139410Y0280451D01*
X0138451Y0282767D01*
X0136679Y0284539D01*
X0134363Y0285498D01*
X0131857Y0285498D01*
X0129542Y0284539D01*
X0127769Y0282767D01*
X0126907Y0280685D01*
X0126359Y0281233D01*
X0125477Y0281598D01*
X0125156Y0281598D01*
X0124672Y0282767D01*
X0122899Y0284539D01*
X0120584Y0285498D01*
X0118078Y0285498D01*
X0115762Y0284539D01*
X0113990Y0282767D01*
X0113031Y0280451D01*
X0113031Y0277945D01*
X0113990Y0275630D01*
X0115521Y0274098D01*
X0109479Y0274098D01*
X0111010Y0275630D01*
X0111969Y0277945D01*
X0111969Y0280451D01*
X0111010Y0282767D01*
X0109238Y0284539D01*
X0106922Y0285498D01*
X0104416Y0285498D01*
X0102101Y0284539D01*
X0100328Y0282767D01*
X0099369Y0280451D01*
X0099369Y0277945D01*
X0100328Y0275630D01*
X0101860Y0274098D01*
X0100994Y0274098D01*
X0097884Y0277208D01*
X0098190Y0277945D01*
X0098190Y0280451D01*
X0097231Y0282767D01*
X0095458Y0284539D01*
X0093143Y0285498D01*
X0090637Y0285498D01*
X0088321Y0284539D01*
X0086549Y0282767D01*
X0085590Y0280451D01*
X0085590Y0277945D01*
X0086256Y0276336D01*
X0084410Y0278182D01*
X0084410Y0280451D01*
X0083451Y0282767D01*
X0081679Y0284539D01*
X0079363Y0285498D01*
X0076857Y0285498D01*
X0074542Y0284539D01*
X0072769Y0282767D01*
X0071810Y0280451D01*
X0071810Y0277945D01*
X0072769Y0275630D01*
X0074542Y0273857D01*
X0076857Y0272898D01*
X0079363Y0272898D01*
X0081679Y0273857D01*
X0081813Y0273991D01*
X0088641Y0267164D01*
X0089523Y0266798D01*
X0121506Y0266798D01*
X0128406Y0259898D01*
X0127866Y0259898D01*
X0125771Y0259030D01*
X0124168Y0257427D01*
X0124000Y0257022D01*
X0123832Y0257427D01*
X0122229Y0259030D01*
X0120134Y0259898D01*
X0117866Y0259898D01*
X0115771Y0259030D01*
X0114168Y0257427D01*
X0113881Y0256734D01*
X0113704Y0257081D01*
X0113195Y0257781D01*
X0112583Y0258393D01*
X0111883Y0258902D01*
X0111111Y0259295D01*
X0110288Y0259563D01*
X0109433Y0259698D01*
X0109200Y0259698D01*
X0109200Y0254398D01*
X0108800Y0254398D01*
X0108800Y0259698D01*
X0108567Y0259698D01*
X0107712Y0259563D01*
X0106889Y0259295D01*
X0106117Y0258902D01*
X0105417Y0258393D01*
X0104805Y0257781D01*
X0104296Y0257081D01*
X0104119Y0256734D01*
X0103832Y0257427D01*
X0102229Y0259030D01*
X0100134Y0259898D01*
X0097866Y0259898D01*
X0095771Y0259030D01*
X0094168Y0257427D01*
X0093300Y0255332D01*
X0093300Y0253064D01*
X0094168Y0250969D01*
X0095771Y0249366D01*
X0097866Y0248498D01*
X0100134Y0248498D01*
X0102229Y0249366D01*
X0103832Y0250969D01*
X0104119Y0251662D01*
X0104296Y0251316D01*
X0104805Y0250615D01*
X0105417Y0250003D01*
X0106117Y0249494D01*
X0106889Y0249101D01*
X0107712Y0248834D01*
X0108567Y0248698D01*
X0108800Y0248698D01*
X0108800Y0253998D01*
X0109200Y0253998D01*
X0109200Y0248698D01*
X0109433Y0248698D01*
X0110288Y0248834D01*
X0111111Y0249101D01*
X0111883Y0249494D01*
X0112583Y0250003D01*
X0113195Y0250615D01*
X0113704Y0251316D01*
X0113881Y0251662D01*
X0114168Y0250969D01*
X0115771Y0249366D01*
X0117866Y0248498D01*
X0120134Y0248498D01*
X0122229Y0249366D01*
X0123832Y0250969D01*
X0124000Y0251374D01*
X0124168Y0250969D01*
X0125771Y0249366D01*
X0127866Y0248498D01*
X0130134Y0248498D01*
X0132229Y0249366D01*
X0133832Y0250969D01*
X0134000Y0251374D01*
X0134168Y0250969D01*
X0135771Y0249366D01*
X0137866Y0248498D01*
X0140134Y0248498D01*
X0142229Y0249366D01*
X0143832Y0250969D01*
X0144000Y0251374D01*
X0144168Y0250969D01*
X0145771Y0249366D01*
X0147866Y0248498D01*
X0150134Y0248498D01*
X0152229Y0249366D01*
X0153832Y0250969D01*
X0154000Y0251374D01*
X0154168Y0250969D01*
X0155771Y0249366D01*
X0157866Y0248498D01*
X0160134Y0248498D01*
X0161063Y0248883D01*
X0163847Y0246098D01*
X0348247Y0246098D01*
X0337847Y0235698D01*
X0091261Y0235698D01*
X0092632Y0237069D01*
X0093500Y0239164D01*
X0093500Y0241432D01*
X0092632Y0243527D01*
X0091029Y0245130D01*
X0088934Y0245998D01*
X0086666Y0245998D01*
X0084571Y0245130D01*
X0083539Y0244098D01*
X0066461Y0244098D01*
X0065429Y0245130D01*
X0063334Y0245998D01*
X0061066Y0245998D01*
X0058971Y0245130D01*
X0057368Y0243527D01*
X0056500Y0241432D01*
X0056500Y0239164D01*
X0057368Y0237069D01*
X0058971Y0235466D01*
X0061066Y0234598D01*
X0061206Y0234598D01*
X0066701Y0229103D01*
X0066701Y0225220D01*
X0067872Y0224049D01*
X0074647Y0224049D01*
X0075000Y0224401D01*
X0075353Y0224049D01*
X0076350Y0224049D01*
X0076350Y0219348D01*
X0075353Y0219348D01*
X0075000Y0218995D01*
X0074647Y0219348D01*
X0067872Y0219348D01*
X0066701Y0218176D01*
X0066701Y0210220D01*
X0067600Y0209321D01*
X0067600Y0207692D01*
X0063641Y0203733D01*
X0062965Y0203058D01*
X0062600Y0202176D01*
X0062600Y0196221D01*
X0062965Y0195339D01*
X0071400Y0186904D01*
X0071400Y0185982D01*
X0071948Y0184659D01*
X0072109Y0184498D01*
X0067872Y0184498D01*
X0067500Y0184127D01*
X0067128Y0184498D01*
X0062872Y0184498D01*
X0061700Y0183327D01*
X0061700Y0173670D01*
X0062872Y0172498D01*
X0067128Y0172498D01*
X0067500Y0172870D01*
X0067872Y0172498D01*
X0072128Y0172498D01*
X0072500Y0172870D01*
X0072872Y0172498D01*
X0074900Y0172498D01*
X0074900Y0149751D01*
X0071447Y0146298D01*
X0071047Y0145898D01*
X0067872Y0145898D01*
X0067346Y0145373D01*
X0066995Y0145576D01*
X0066537Y0145698D01*
X0065000Y0145698D01*
X0065000Y0139898D01*
X0065000Y0134098D01*
X0066537Y0134098D01*
X0066995Y0134221D01*
X0067346Y0134424D01*
X0067872Y0133898D01*
X0068559Y0133898D01*
X0070742Y0123090D01*
X0070142Y0122490D01*
X0069441Y0120799D01*
X0069441Y0118969D01*
X0069444Y0118963D01*
X0064253Y0113772D01*
X0063857Y0112817D01*
X0063857Y0108364D01*
X0062882Y0107389D01*
X0062882Y0101008D01*
X0064053Y0099836D01*
X0068860Y0099836D01*
X0070031Y0101008D01*
X0070031Y0107389D01*
X0069057Y0108364D01*
X0069057Y0111222D01*
X0073121Y0115287D01*
X0073126Y0115284D01*
X0074956Y0115284D01*
X0075500Y0115509D01*
X0075500Y0108322D01*
X0075355Y0108360D01*
X0073543Y0108360D01*
X0071732Y0108360D01*
X0071274Y0108238D01*
X0070863Y0108001D01*
X0070528Y0107666D01*
X0070291Y0107255D01*
X0070169Y0106797D01*
X0070168Y0104198D01*
X0070169Y0104198D02*
X0070169Y0101599D01*
X0070291Y0101141D01*
X0070528Y0100731D01*
X0070863Y0100396D01*
X0071274Y0100159D01*
X0071732Y0100036D01*
X0073543Y0100036D01*
X0073543Y0104198D01*
X0070169Y0104198D01*
X0070168Y0104198D02*
X0073543Y0104198D01*
X0073543Y0104198D01*
X0073543Y0104198D01*
X0073543Y0100036D01*
X0075355Y0100036D01*
X0075500Y0100075D01*
X0075500Y0096167D01*
X0073747Y0096167D01*
X0071431Y0095208D01*
X0069659Y0093436D01*
X0068700Y0091121D01*
X0068700Y0088614D01*
X0069659Y0086299D01*
X0071431Y0084527D01*
X0073747Y0083567D01*
X0076253Y0083567D01*
X0078569Y0084527D01*
X0080341Y0086299D01*
X0080672Y0087098D01*
X0084647Y0087098D01*
X0092047Y0079698D01*
X0089700Y0079698D01*
X0089700Y0076698D01*
X0083550Y0076698D01*
X0083550Y0075261D01*
X0083673Y0074803D01*
X0083910Y0074393D01*
X0083963Y0074340D01*
X0083722Y0074098D01*
X0080995Y0074098D01*
X0081300Y0074835D01*
X0081300Y0077341D01*
X0080341Y0079657D01*
X0078569Y0081429D01*
X0076253Y0082388D01*
X0073747Y0082388D01*
X0071431Y0081429D01*
X0069659Y0079657D01*
X0068700Y0077341D01*
X0068700Y0074835D01*
X0069659Y0072519D01*
X0071431Y0070747D01*
X0073747Y0069788D01*
X0076016Y0069788D01*
X0076141Y0069664D01*
X0077023Y0069298D01*
X0083722Y0069298D01*
X0083822Y0069198D01*
X0083722Y0069098D01*
X0077023Y0069098D01*
X0076141Y0068733D01*
X0076016Y0068608D01*
X0073747Y0068608D01*
X0071431Y0067649D01*
X0069659Y0065877D01*
X0068700Y0063562D01*
X0068700Y0061055D01*
X0069659Y0058740D01*
X0071431Y0056968D01*
X0073747Y0056008D01*
X0076253Y0056008D01*
X0078569Y0056968D01*
X0080341Y0058740D01*
X0081300Y0061055D01*
X0081300Y0063562D01*
X0080995Y0064298D01*
X0083722Y0064298D01*
X0083822Y0064198D01*
X0083350Y0063727D01*
X0083350Y0059670D01*
X0084522Y0058498D01*
X0094878Y0058498D01*
X0096050Y0059670D01*
X0096050Y0063727D01*
X0095578Y0064198D01*
X0096050Y0064670D01*
X0096050Y0068727D01*
X0095578Y0069198D01*
X0096050Y0069670D01*
X0096050Y0073727D01*
X0095437Y0074340D01*
X0095490Y0074393D01*
X0095727Y0074803D01*
X0095850Y0075261D01*
X0095850Y0075896D01*
X0103700Y0068046D01*
X0103950Y0067796D01*
X0103950Y0064670D01*
X0104422Y0064198D01*
X0103950Y0063727D01*
X0103950Y0061598D01*
X0102691Y0061598D01*
X0102039Y0062250D01*
X0100716Y0062798D01*
X0099284Y0062798D01*
X0097961Y0062250D01*
X0096948Y0061237D01*
X0096400Y0059914D01*
X0096400Y0058482D01*
X0096948Y0057159D01*
X0097961Y0056146D01*
X0099284Y0055598D01*
X0100716Y0055598D01*
X0102039Y0056146D01*
X0102691Y0056798D01*
X0107977Y0056798D01*
X0108859Y0057164D01*
X0110194Y0058498D01*
X0115478Y0058498D01*
X0116650Y0059670D01*
X0116650Y0063727D01*
X0116178Y0064198D01*
X0116650Y0064670D01*
X0116650Y0066698D01*
X0118300Y0066698D01*
X0118300Y0063812D01*
X0119472Y0062641D01*
X0125853Y0062641D01*
X0127025Y0063812D01*
X0127025Y0064298D01*
X0129300Y0064298D01*
X0129300Y0063064D01*
X0129643Y0062236D01*
X0126825Y0059417D01*
X0126825Y0060941D01*
X0126702Y0061398D01*
X0126465Y0061809D01*
X0126130Y0062144D01*
X0125719Y0062381D01*
X0125262Y0062504D01*
X0122662Y0062504D01*
X0120063Y0062504D01*
X0119605Y0062381D01*
X0119195Y0062144D01*
X0118860Y0061809D01*
X0118623Y0061398D01*
X0118500Y0060941D01*
X0118500Y0059129D01*
X0122662Y0059129D01*
X0122662Y0059129D01*
X0118500Y0059129D01*
X0118500Y0057317D01*
X0118623Y0056859D01*
X0118860Y0056449D01*
X0119195Y0056114D01*
X0119605Y0055877D01*
X0120063Y0055754D01*
X0122662Y0055754D01*
X0122662Y0059129D01*
X0122662Y0062504D01*
X0122662Y0059129D01*
X0122662Y0059129D01*
X0122662Y0059129D01*
X0122662Y0055754D01*
X0123162Y0055754D01*
X0114819Y0047411D01*
X0114672Y0047767D01*
X0112899Y0049539D01*
X0110584Y0050498D01*
X0108078Y0050498D01*
X0105762Y0049539D01*
X0103990Y0047767D01*
X0103031Y0045451D01*
X0103031Y0042945D01*
X0103990Y0040630D01*
X0105762Y0038857D01*
X0108078Y0037898D01*
X0110584Y0037898D01*
X0112600Y0038733D01*
X0112600Y0037692D01*
X0095328Y0020421D01*
X0093934Y0020998D01*
X0091666Y0020998D01*
X0089571Y0020130D01*
X0088026Y0018585D02*
X0071974Y0018585D01*
X0072670Y0016986D02*
X0087330Y0016986D01*
X0087100Y0015388D02*
X0072900Y0015388D01*
X0072745Y0013789D02*
X0087255Y0013789D01*
X0087917Y0012191D02*
X0072082Y0012191D01*
X0070555Y0010592D02*
X0089445Y0010592D01*
X0096155Y0010592D02*
X0380821Y0010592D01*
X0381331Y0010082D02*
X0383647Y0009123D01*
X0386153Y0009123D01*
X0388468Y0010082D01*
X0390241Y0011855D01*
X0391200Y0014170D01*
X0391200Y0016676D01*
X0390241Y0018992D01*
X0388468Y0020764D01*
X0386153Y0021723D01*
X0383647Y0021723D01*
X0381331Y0020764D01*
X0379559Y0018992D01*
X0378600Y0016676D01*
X0378600Y0014170D01*
X0379559Y0011855D01*
X0381331Y0010082D01*
X0379420Y0012191D02*
X0097682Y0012191D01*
X0098345Y0013789D02*
X0105926Y0013789D01*
X0104232Y0015388D02*
X0098500Y0015388D01*
X0098682Y0016986D02*
X0103428Y0016986D01*
X0103031Y0018585D02*
X0100281Y0018585D01*
X0101879Y0020183D02*
X0103031Y0020183D01*
X0103478Y0021782D02*
X0103582Y0021782D01*
X0106675Y0024979D02*
X0106824Y0024979D01*
X0108273Y0026577D02*
X0397961Y0026577D01*
X0396728Y0028176D02*
X0109872Y0028176D01*
X0111470Y0029774D02*
X0167771Y0029774D01*
X0166173Y0031373D02*
X0113069Y0031373D01*
X0114667Y0032971D02*
X0164574Y0032971D01*
X0162976Y0034570D02*
X0116266Y0034570D01*
X0117378Y0036168D02*
X0161377Y0036168D01*
X0159779Y0037767D02*
X0117400Y0037767D01*
X0117400Y0039365D02*
X0119033Y0039365D01*
X0117631Y0040964D02*
X0117400Y0040964D01*
X0112600Y0037767D02*
X0095731Y0037767D01*
X0095683Y0037802D02*
X0094911Y0038195D01*
X0094088Y0038463D01*
X0093233Y0038598D01*
X0093000Y0038598D01*
X0093000Y0033298D01*
X0098300Y0033298D01*
X0098300Y0033531D01*
X0098165Y0034386D01*
X0097897Y0035209D01*
X0097504Y0035981D01*
X0096995Y0036681D01*
X0096383Y0037293D01*
X0095683Y0037802D01*
X0097368Y0036168D02*
X0111076Y0036168D01*
X0109478Y0034570D02*
X0098105Y0034570D01*
X0098300Y0032898D02*
X0093000Y0032898D01*
X0093000Y0027598D01*
X0093233Y0027598D01*
X0094088Y0027734D01*
X0094911Y0028001D01*
X0095683Y0028394D01*
X0096383Y0028903D01*
X0096995Y0029515D01*
X0097504Y0030216D01*
X0097897Y0030987D01*
X0098165Y0031810D01*
X0098300Y0032665D01*
X0098300Y0032898D01*
X0098022Y0031373D02*
X0106281Y0031373D01*
X0107879Y0032971D02*
X0093000Y0032971D01*
X0093000Y0032898D02*
X0093000Y0033298D01*
X0092600Y0033298D01*
X0092600Y0032898D01*
X0093000Y0032898D01*
X0092600Y0032898D02*
X0092600Y0027598D01*
X0092367Y0027598D01*
X0091512Y0027734D01*
X0090689Y0028001D01*
X0089917Y0028394D01*
X0089217Y0028903D01*
X0088605Y0029515D01*
X0088096Y0030216D01*
X0087703Y0030987D01*
X0087435Y0031810D01*
X0087300Y0032665D01*
X0087300Y0032898D01*
X0092600Y0032898D01*
X0092600Y0032971D02*
X0067400Y0032971D01*
X0067400Y0032898D02*
X0067400Y0033298D01*
X0072700Y0033298D01*
X0072700Y0033531D01*
X0072565Y0034386D01*
X0072297Y0035209D01*
X0071904Y0035981D01*
X0071395Y0036681D01*
X0070783Y0037293D01*
X0070083Y0037802D01*
X0069311Y0038195D01*
X0068488Y0038463D01*
X0067633Y0038598D01*
X0067400Y0038598D01*
X0067400Y0033298D01*
X0067000Y0033298D01*
X0067000Y0032898D01*
X0067400Y0032898D01*
X0067400Y0027598D01*
X0067633Y0027598D01*
X0068488Y0027734D01*
X0069311Y0028001D01*
X0070083Y0028394D01*
X0070783Y0028903D01*
X0071395Y0029515D01*
X0071904Y0030216D01*
X0072297Y0030987D01*
X0072565Y0031810D01*
X0072700Y0032665D01*
X0072700Y0032898D01*
X0067400Y0032898D01*
X0067000Y0032898D02*
X0067000Y0027598D01*
X0066767Y0027598D01*
X0065912Y0027734D01*
X0065089Y0028001D01*
X0064317Y0028394D01*
X0063617Y0028903D01*
X0063005Y0029515D01*
X0062496Y0030216D01*
X0062103Y0030987D01*
X0061835Y0031810D01*
X0061700Y0032665D01*
X0061700Y0032898D01*
X0067000Y0032898D01*
X0067000Y0032971D02*
X0056478Y0032971D01*
X0056478Y0031373D02*
X0061978Y0031373D01*
X0062817Y0029774D02*
X0056478Y0029774D01*
X0056478Y0028176D02*
X0064746Y0028176D01*
X0067000Y0028176D02*
X0067400Y0028176D01*
X0067400Y0029774D02*
X0067000Y0029774D01*
X0067000Y0031373D02*
X0067400Y0031373D01*
X0067000Y0033298D02*
X0061700Y0033298D01*
X0061700Y0033531D01*
X0061835Y0034386D01*
X0062103Y0035209D01*
X0062496Y0035981D01*
X0063005Y0036681D01*
X0063617Y0037293D01*
X0064317Y0037802D01*
X0065089Y0038195D01*
X0065912Y0038463D01*
X0066767Y0038598D01*
X0067000Y0038598D01*
X0067000Y0033298D01*
X0067000Y0034570D02*
X0067400Y0034570D01*
X0067400Y0036168D02*
X0067000Y0036168D01*
X0067000Y0037767D02*
X0067400Y0037767D01*
X0070131Y0037767D02*
X0089869Y0037767D01*
X0089917Y0037802D02*
X0089217Y0037293D01*
X0088605Y0036681D01*
X0088096Y0035981D01*
X0087703Y0035209D01*
X0087435Y0034386D01*
X0087300Y0033531D01*
X0087300Y0033298D01*
X0092600Y0033298D01*
X0092600Y0038598D01*
X0092367Y0038598D01*
X0091512Y0038463D01*
X0090689Y0038195D01*
X0089917Y0037802D01*
X0088232Y0036168D02*
X0071768Y0036168D01*
X0072505Y0034570D02*
X0087495Y0034570D01*
X0087578Y0031373D02*
X0072422Y0031373D01*
X0071583Y0029774D02*
X0088417Y0029774D01*
X0090346Y0028176D02*
X0069654Y0028176D01*
X0061895Y0034570D02*
X0056478Y0034570D01*
X0056478Y0036168D02*
X0062632Y0036168D01*
X0064269Y0037767D02*
X0056478Y0037767D01*
X0056478Y0039365D02*
X0105254Y0039365D01*
X0103851Y0040964D02*
X0056478Y0040964D01*
X0056478Y0042562D02*
X0073677Y0042562D01*
X0073572Y0042579D02*
X0074520Y0042429D01*
X0074816Y0042429D01*
X0074816Y0048345D01*
X0068900Y0048345D01*
X0068900Y0048049D01*
X0069050Y0047100D01*
X0069347Y0046187D01*
X0069783Y0045332D01*
X0070347Y0044555D01*
X0071026Y0043876D01*
X0071803Y0043312D01*
X0072658Y0042876D01*
X0073572Y0042579D01*
X0074816Y0042562D02*
X0075184Y0042562D01*
X0075184Y0042429D02*
X0075480Y0042429D01*
X0076428Y0042579D01*
X0077342Y0042876D01*
X0078197Y0043312D01*
X0078974Y0043876D01*
X0079653Y0044555D01*
X0080217Y0045332D01*
X0080653Y0046187D01*
X0080950Y0047100D01*
X0081100Y0048049D01*
X0081100Y0048345D01*
X0075184Y0048345D01*
X0075184Y0048713D01*
X0074816Y0048713D01*
X0074816Y0048345D01*
X0075184Y0048345D01*
X0075184Y0042429D01*
X0076323Y0042562D02*
X0103189Y0042562D01*
X0103031Y0044161D02*
X0079259Y0044161D01*
X0080435Y0045759D02*
X0103158Y0045759D01*
X0103820Y0047358D02*
X0080991Y0047358D01*
X0081100Y0048713D02*
X0081100Y0049009D01*
X0080950Y0049957D01*
X0080653Y0050870D01*
X0080217Y0051726D01*
X0079653Y0052503D01*
X0078974Y0053182D01*
X0078197Y0053746D01*
X0077342Y0054182D01*
X0076428Y0054479D01*
X0075480Y0054629D01*
X0075184Y0054629D01*
X0075184Y0048713D01*
X0081100Y0048713D01*
X0081100Y0048957D02*
X0105179Y0048957D01*
X0113482Y0048957D02*
X0116364Y0048957D01*
X0117963Y0050555D02*
X0080756Y0050555D01*
X0079907Y0052154D02*
X0119561Y0052154D01*
X0121160Y0053752D02*
X0078185Y0053752D01*
X0075184Y0053752D02*
X0074816Y0053752D01*
X0074816Y0054629D02*
X0074520Y0054629D01*
X0073572Y0054479D01*
X0072658Y0054182D01*
X0071803Y0053746D01*
X0071026Y0053182D01*
X0070347Y0052503D01*
X0069783Y0051726D01*
X0069347Y0050870D01*
X0069050Y0049957D01*
X0068900Y0049009D01*
X0068900Y0048713D01*
X0074816Y0048713D01*
X0074816Y0054629D01*
X0074816Y0052154D02*
X0075184Y0052154D01*
X0075184Y0050555D02*
X0074816Y0050555D01*
X0074816Y0048957D02*
X0075184Y0048957D01*
X0075184Y0047358D02*
X0074816Y0047358D01*
X0074816Y0045759D02*
X0075184Y0045759D01*
X0075184Y0044161D02*
X0074816Y0044161D01*
X0070741Y0044161D02*
X0056478Y0044161D01*
X0056478Y0045759D02*
X0069565Y0045759D01*
X0069009Y0047358D02*
X0056478Y0047358D01*
X0056478Y0048957D02*
X0068900Y0048957D01*
X0069244Y0050555D02*
X0056478Y0050555D01*
X0056478Y0052154D02*
X0070093Y0052154D01*
X0071815Y0053752D02*
X0056478Y0053752D01*
X0056478Y0055351D02*
X0122758Y0055351D01*
X0122662Y0056949D02*
X0122662Y0056949D01*
X0122662Y0058548D02*
X0122662Y0058548D01*
X0122662Y0060146D02*
X0122662Y0060146D01*
X0122662Y0061745D02*
X0122662Y0061745D01*
X0118823Y0061745D02*
X0116650Y0061745D01*
X0116650Y0063343D02*
X0118769Y0063343D01*
X0118300Y0064942D02*
X0116650Y0064942D01*
X0116650Y0066540D02*
X0118300Y0066540D01*
X0116650Y0071298D02*
X0116650Y0073727D01*
X0116178Y0074198D01*
X0116650Y0074670D01*
X0116650Y0078727D01*
X0115478Y0079898D01*
X0110194Y0079898D01*
X0107400Y0082692D01*
X0107400Y0112154D01*
X0120465Y0099089D01*
X0121078Y0098476D01*
X0120000Y0097398D01*
X0120000Y0093256D01*
X0122929Y0090327D01*
X0127071Y0090327D01*
X0130000Y0093256D01*
X0132929Y0090327D01*
X0137071Y0090327D01*
X0140000Y0093256D01*
X0142929Y0090327D01*
X0147071Y0090327D01*
X0150000Y0093256D01*
X0152929Y0090327D01*
X0157071Y0090327D01*
X0160000Y0093256D01*
X0162929Y0090327D01*
X0167071Y0090327D01*
X0170000Y0093256D01*
X0172929Y0090327D01*
X0177071Y0090327D01*
X0180000Y0093256D01*
X0182929Y0090327D01*
X0187071Y0090327D01*
X0190000Y0093256D01*
X0192929Y0090327D01*
X0197071Y0090327D01*
X0200000Y0093256D01*
X0202929Y0090327D01*
X0207071Y0090327D01*
X0210000Y0093256D01*
X0212929Y0090327D01*
X0217071Y0090327D01*
X0220000Y0093256D01*
X0222929Y0090327D01*
X0227071Y0090327D01*
X0230000Y0093256D01*
X0232929Y0090327D01*
X0237071Y0090327D01*
X0240000Y0093256D01*
X0242929Y0090327D01*
X0247071Y0090327D01*
X0250000Y0093256D01*
X0252929Y0090327D01*
X0257071Y0090327D01*
X0260000Y0093256D01*
X0262929Y0090327D01*
X0267071Y0090327D01*
X0270000Y0093256D01*
X0272929Y0090327D01*
X0277071Y0090327D01*
X0280000Y0093256D01*
X0282929Y0090327D01*
X0287071Y0090327D01*
X0290000Y0093256D01*
X0292929Y0090327D01*
X0297071Y0090327D01*
X0300000Y0093256D01*
X0302929Y0090327D01*
X0307071Y0090327D01*
X0310000Y0093256D01*
X0312929Y0090327D01*
X0317071Y0090327D01*
X0320000Y0093256D01*
X0322929Y0090327D01*
X0327071Y0090327D01*
X0330000Y0093256D01*
X0332929Y0090327D01*
X0337071Y0090327D01*
X0340000Y0093256D01*
X0342929Y0090327D01*
X0347071Y0090327D01*
X0350000Y0093256D01*
X0352929Y0090327D01*
X0357071Y0090327D01*
X0360000Y0093256D01*
X0360000Y0097398D01*
X0359350Y0098048D01*
X0367756Y0098048D01*
X0369300Y0096504D01*
X0369300Y0091837D01*
X0371043Y0090094D01*
X0354047Y0073098D01*
X0352700Y0071751D01*
X0352700Y0069415D01*
X0351771Y0069030D01*
X0350168Y0067427D01*
X0350000Y0067022D01*
X0349832Y0067427D01*
X0348229Y0069030D01*
X0346134Y0069898D01*
X0343866Y0069898D01*
X0341771Y0069030D01*
X0340168Y0067427D01*
X0340000Y0067022D01*
X0339832Y0067427D01*
X0338229Y0069030D01*
X0336134Y0069898D01*
X0333866Y0069898D01*
X0331771Y0069030D01*
X0330168Y0067427D01*
X0330000Y0067022D01*
X0329832Y0067427D01*
X0328229Y0069030D01*
X0326134Y0069898D01*
X0323866Y0069898D01*
X0321771Y0069030D01*
X0320168Y0067427D01*
X0320000Y0067022D01*
X0319832Y0067427D01*
X0318229Y0069030D01*
X0316134Y0069898D01*
X0313866Y0069898D01*
X0311771Y0069030D01*
X0310168Y0067427D01*
X0310000Y0067022D01*
X0309832Y0067427D01*
X0308229Y0069030D01*
X0306134Y0069898D01*
X0303866Y0069898D01*
X0301771Y0069030D01*
X0300168Y0067427D01*
X0300000Y0067022D01*
X0299832Y0067427D01*
X0298229Y0069030D01*
X0296134Y0069898D01*
X0293866Y0069898D01*
X0291771Y0069030D01*
X0290168Y0067427D01*
X0289824Y0066598D01*
X0282023Y0066598D01*
X0281141Y0066233D01*
X0280565Y0065657D01*
X0279832Y0067427D01*
X0278229Y0069030D01*
X0276134Y0069898D01*
X0273866Y0069898D01*
X0271771Y0069030D01*
X0270168Y0067427D01*
X0270000Y0067022D01*
X0269832Y0067427D01*
X0268229Y0069030D01*
X0266134Y0069898D01*
X0263866Y0069898D01*
X0261771Y0069030D01*
X0260168Y0067427D01*
X0260000Y0067022D01*
X0259832Y0067427D01*
X0258229Y0069030D01*
X0256134Y0069898D01*
X0253866Y0069898D01*
X0251771Y0069030D01*
X0250168Y0067427D01*
X0250000Y0067022D01*
X0249832Y0067427D01*
X0248229Y0069030D01*
X0246134Y0069898D01*
X0243866Y0069898D01*
X0241771Y0069030D01*
X0240168Y0067427D01*
X0240000Y0067022D01*
X0239832Y0067427D01*
X0238229Y0069030D01*
X0236134Y0069898D01*
X0233866Y0069898D01*
X0231771Y0069030D01*
X0230168Y0067427D01*
X0230000Y0067022D01*
X0229832Y0067427D01*
X0228229Y0069030D01*
X0226134Y0069898D01*
X0223866Y0069898D01*
X0221771Y0069030D01*
X0220168Y0067427D01*
X0220000Y0067022D01*
X0219832Y0067427D01*
X0218229Y0069030D01*
X0216134Y0069898D01*
X0213866Y0069898D01*
X0211771Y0069030D01*
X0210168Y0067427D01*
X0210000Y0067022D01*
X0209832Y0067427D01*
X0208229Y0069030D01*
X0206134Y0069898D01*
X0203866Y0069898D01*
X0201771Y0069030D01*
X0200168Y0067427D01*
X0199300Y0065332D01*
X0199300Y0063064D01*
X0199907Y0061598D01*
X0190093Y0061598D01*
X0190700Y0063064D01*
X0190700Y0065332D01*
X0189832Y0067427D01*
X0188229Y0069030D01*
X0186134Y0069898D01*
X0183866Y0069898D01*
X0181771Y0069030D01*
X0180168Y0067427D01*
X0180000Y0067022D01*
X0179832Y0067427D01*
X0178229Y0069030D01*
X0176134Y0069898D01*
X0173866Y0069898D01*
X0171771Y0069030D01*
X0170168Y0067427D01*
X0169881Y0066734D01*
X0169704Y0067081D01*
X0169195Y0067781D01*
X0168583Y0068393D01*
X0167883Y0068902D01*
X0167111Y0069295D01*
X0166288Y0069563D01*
X0165433Y0069698D01*
X0165200Y0069698D01*
X0165200Y0064398D01*
X0164800Y0064398D01*
X0164800Y0069698D01*
X0164567Y0069698D01*
X0163712Y0069563D01*
X0162889Y0069295D01*
X0162117Y0068902D01*
X0161417Y0068393D01*
X0160805Y0067781D01*
X0160296Y0067081D01*
X0160119Y0066734D01*
X0159832Y0067427D01*
X0158229Y0069030D01*
X0156134Y0069898D01*
X0153866Y0069898D01*
X0152655Y0069396D01*
X0150753Y0071298D01*
X0132047Y0071298D01*
X0130700Y0069951D01*
X0129647Y0068898D01*
X0126745Y0068898D01*
X0125853Y0069790D01*
X0122261Y0069790D01*
X0120753Y0071298D01*
X0116650Y0071298D01*
X0116650Y0071336D02*
X0352700Y0071336D01*
X0352700Y0069737D02*
X0346523Y0069737D01*
X0343477Y0069737D02*
X0336523Y0069737D01*
X0333477Y0069737D02*
X0326523Y0069737D01*
X0323477Y0069737D02*
X0316523Y0069737D01*
X0313477Y0069737D02*
X0306523Y0069737D01*
X0303477Y0069737D02*
X0296523Y0069737D01*
X0293477Y0069737D02*
X0276523Y0069737D01*
X0273477Y0069737D02*
X0266523Y0069737D01*
X0263477Y0069737D02*
X0256523Y0069737D01*
X0253477Y0069737D02*
X0246523Y0069737D01*
X0243477Y0069737D02*
X0236523Y0069737D01*
X0233477Y0069737D02*
X0226523Y0069737D01*
X0223477Y0069737D02*
X0216523Y0069737D01*
X0213477Y0069737D02*
X0206523Y0069737D01*
X0203477Y0069737D02*
X0186523Y0069737D01*
X0183477Y0069737D02*
X0176523Y0069737D01*
X0173477Y0069737D02*
X0156523Y0069737D01*
X0153477Y0069737D02*
X0152314Y0069737D01*
X0159121Y0068139D02*
X0161162Y0068139D01*
X0164800Y0068139D02*
X0165200Y0068139D01*
X0165200Y0066540D02*
X0164800Y0066540D01*
X0164800Y0064942D02*
X0165200Y0064942D01*
X0168838Y0068139D02*
X0170879Y0068139D01*
X0179121Y0068139D02*
X0180879Y0068139D01*
X0189121Y0068139D02*
X0200879Y0068139D01*
X0199800Y0066540D02*
X0190200Y0066540D01*
X0190700Y0064942D02*
X0199300Y0064942D01*
X0199300Y0063343D02*
X0190700Y0063343D01*
X0190153Y0061745D02*
X0199847Y0061745D01*
X0209121Y0068139D02*
X0210879Y0068139D01*
X0219121Y0068139D02*
X0220879Y0068139D01*
X0229121Y0068139D02*
X0230879Y0068139D01*
X0239121Y0068139D02*
X0240879Y0068139D01*
X0249121Y0068139D02*
X0250879Y0068139D01*
X0259121Y0068139D02*
X0260879Y0068139D01*
X0269121Y0068139D02*
X0270879Y0068139D01*
X0279121Y0068139D02*
X0290879Y0068139D01*
X0299121Y0068139D02*
X0300879Y0068139D01*
X0309121Y0068139D02*
X0310879Y0068139D01*
X0319121Y0068139D02*
X0320879Y0068139D01*
X0329121Y0068139D02*
X0330879Y0068139D01*
X0339121Y0068139D02*
X0340879Y0068139D01*
X0349121Y0068139D02*
X0350879Y0068139D01*
X0353883Y0072934D02*
X0116650Y0072934D01*
X0116513Y0074533D02*
X0355482Y0074533D01*
X0357080Y0076131D02*
X0116650Y0076131D01*
X0116650Y0077730D02*
X0358679Y0077730D01*
X0360277Y0079328D02*
X0116048Y0079328D01*
X0120000Y0083256D02*
X0122929Y0080327D01*
X0127071Y0080327D01*
X0130000Y0083256D01*
X0130000Y0087398D01*
X0127071Y0090327D01*
X0122929Y0090327D01*
X0120000Y0087398D01*
X0120000Y0083256D01*
X0120000Y0084124D02*
X0107400Y0084124D01*
X0107400Y0085722D02*
X0120000Y0085722D01*
X0120000Y0087321D02*
X0107400Y0087321D01*
X0107400Y0088919D02*
X0121521Y0088919D01*
X0122738Y0090518D02*
X0107400Y0090518D01*
X0107400Y0092116D02*
X0121140Y0092116D01*
X0120000Y0093715D02*
X0107400Y0093715D01*
X0107400Y0095313D02*
X0120000Y0095313D01*
X0120000Y0096912D02*
X0107400Y0096912D01*
X0107400Y0098510D02*
X0121044Y0098510D01*
X0119445Y0100109D02*
X0107400Y0100109D01*
X0107400Y0101707D02*
X0117847Y0101707D01*
X0116248Y0103306D02*
X0107400Y0103306D01*
X0107400Y0104904D02*
X0114650Y0104904D01*
X0113051Y0106503D02*
X0107400Y0106503D01*
X0107400Y0108101D02*
X0111453Y0108101D01*
X0109854Y0109700D02*
X0107400Y0109700D01*
X0107400Y0111298D02*
X0108256Y0111298D01*
X0111847Y0114495D02*
X0120000Y0114495D01*
X0120000Y0113256D02*
X0122929Y0110327D01*
X0127071Y0110327D01*
X0130000Y0113256D01*
X0130000Y0117398D01*
X0127071Y0120327D01*
X0122929Y0120327D01*
X0120000Y0117398D01*
X0120000Y0113256D01*
X0120359Y0112897D02*
X0113445Y0112897D01*
X0115044Y0111298D02*
X0121957Y0111298D01*
X0122929Y0110327D02*
X0120000Y0107398D01*
X0120000Y0106342D01*
X0109900Y0116442D01*
X0109900Y0122751D01*
X0112189Y0122751D01*
X0112189Y0126126D01*
X0112189Y0129500D01*
X0109900Y0129500D01*
X0109900Y0129637D01*
X0115380Y0129637D01*
X0116552Y0130809D01*
X0116552Y0135616D01*
X0115380Y0136787D01*
X0114900Y0136787D01*
X0114900Y0137646D01*
X0115279Y0138025D01*
X0132977Y0120327D01*
X0132929Y0120327D01*
X0130000Y0117398D01*
X0130000Y0113256D01*
X0132929Y0110327D01*
X0137071Y0110327D01*
X0138149Y0111405D01*
X0140465Y0109089D01*
X0141078Y0108476D01*
X0140000Y0107398D01*
X0140000Y0103256D01*
X0139592Y0102848D01*
X0140408Y0102848D01*
X0140000Y0103256D01*
X0140000Y0107398D01*
X0137071Y0110327D01*
X0132929Y0110327D01*
X0130000Y0107398D01*
X0127071Y0110327D01*
X0122929Y0110327D01*
X0122302Y0109700D02*
X0116642Y0109700D01*
X0118241Y0108101D02*
X0120703Y0108101D01*
X0120000Y0106503D02*
X0119839Y0106503D01*
X0127698Y0109700D02*
X0132302Y0109700D01*
X0131957Y0111298D02*
X0128043Y0111298D01*
X0129641Y0112897D02*
X0130359Y0112897D01*
X0130000Y0114495D02*
X0130000Y0114495D01*
X0130000Y0116094D02*
X0130000Y0116094D01*
X0129705Y0117693D02*
X0130295Y0117693D01*
X0131893Y0119291D02*
X0128107Y0119291D01*
X0130816Y0122488D02*
X0109900Y0122488D01*
X0109900Y0120890D02*
X0132415Y0120890D01*
X0129218Y0124087D02*
X0116291Y0124087D01*
X0116352Y0124314D02*
X0116352Y0126126D01*
X0116352Y0127937D01*
X0116229Y0128395D01*
X0115992Y0128806D01*
X0115657Y0129141D01*
X0115246Y0129378D01*
X0114789Y0129500D01*
X0112190Y0129500D01*
X0112190Y0126126D01*
X0116352Y0126126D01*
X0112190Y0126126D01*
X0112190Y0126126D01*
X0112189Y0126126D01*
X0112190Y0126126D01*
X0112190Y0122751D01*
X0114789Y0122751D01*
X0115246Y0122874D01*
X0115657Y0123111D01*
X0115992Y0123446D01*
X0116229Y0123856D01*
X0116352Y0124314D01*
X0116352Y0125685D02*
X0127619Y0125685D01*
X0126021Y0127284D02*
X0116352Y0127284D01*
X0115916Y0128882D02*
X0124422Y0128882D01*
X0122823Y0130481D02*
X0116223Y0130481D01*
X0116552Y0132079D02*
X0121225Y0132079D01*
X0119626Y0133678D02*
X0116552Y0133678D01*
X0116552Y0135276D02*
X0118028Y0135276D01*
X0116429Y0136875D02*
X0114900Y0136875D01*
X0112190Y0128882D02*
X0112189Y0128882D01*
X0112189Y0127284D02*
X0112190Y0127284D01*
X0112189Y0125685D02*
X0112190Y0125685D01*
X0112189Y0124087D02*
X0112190Y0124087D01*
X0109900Y0119291D02*
X0121893Y0119291D01*
X0120295Y0117693D02*
X0109900Y0117693D01*
X0110248Y0116094D02*
X0120000Y0116094D01*
X0129296Y0108101D02*
X0130703Y0108101D01*
X0130000Y0107398D02*
X0130000Y0103256D01*
X0130000Y0107398D01*
X0130000Y0106503D02*
X0130000Y0106503D01*
X0130000Y0104904D02*
X0130000Y0104904D01*
X0130000Y0103306D02*
X0130000Y0103306D01*
X0130000Y0103256D02*
X0129592Y0102848D01*
X0130408Y0102848D01*
X0130000Y0103256D01*
X0129350Y0098048D02*
X0130650Y0098048D01*
X0130000Y0097398D01*
X0130000Y0093256D01*
X0130000Y0097398D01*
X0129350Y0098048D01*
X0130000Y0096912D02*
X0130000Y0096912D01*
X0130000Y0095313D02*
X0130000Y0095313D01*
X0130000Y0093715D02*
X0130000Y0093715D01*
X0128860Y0092116D02*
X0131140Y0092116D01*
X0132738Y0090518D02*
X0127262Y0090518D01*
X0128479Y0088919D02*
X0131521Y0088919D01*
X0132929Y0090327D02*
X0130000Y0087398D01*
X0130000Y0083256D01*
X0132929Y0080327D01*
X0137071Y0080327D01*
X0140000Y0083256D01*
X0140000Y0087398D01*
X0137071Y0090327D01*
X0132929Y0090327D01*
X0130000Y0087321D02*
X0130000Y0087321D01*
X0130000Y0085722D02*
X0130000Y0085722D01*
X0130000Y0084124D02*
X0130000Y0084124D01*
X0129269Y0082525D02*
X0130731Y0082525D01*
X0132329Y0080927D02*
X0127671Y0080927D01*
X0122329Y0080927D02*
X0109166Y0080927D01*
X0107567Y0082525D02*
X0120731Y0082525D01*
X0125906Y0069737D02*
X0130486Y0069737D01*
X0129300Y0063343D02*
X0126555Y0063343D01*
X0126502Y0061745D02*
X0129152Y0061745D01*
X0127554Y0060146D02*
X0126825Y0060146D01*
X0118500Y0060146D02*
X0116650Y0060146D01*
X0115528Y0058548D02*
X0118500Y0058548D01*
X0118599Y0056949D02*
X0108342Y0056949D01*
X0103950Y0061745D02*
X0102545Y0061745D01*
X0103950Y0063343D02*
X0096050Y0063343D01*
X0096050Y0061745D02*
X0097455Y0061745D01*
X0096496Y0060146D02*
X0096050Y0060146D01*
X0096400Y0058548D02*
X0094928Y0058548D01*
X0097158Y0056949D02*
X0078524Y0056949D01*
X0080149Y0058548D02*
X0084472Y0058548D01*
X0083350Y0060146D02*
X0080923Y0060146D01*
X0081300Y0061745D02*
X0083350Y0061745D01*
X0083350Y0063343D02*
X0081300Y0063343D01*
X0072613Y0068139D02*
X0056478Y0068139D01*
X0056478Y0069737D02*
X0076067Y0069737D01*
X0070843Y0071336D02*
X0056478Y0071336D01*
X0056478Y0072934D02*
X0069487Y0072934D01*
X0068825Y0074533D02*
X0056478Y0074533D01*
X0056478Y0076131D02*
X0068700Y0076131D01*
X0068861Y0077730D02*
X0056478Y0077730D01*
X0056478Y0079328D02*
X0069523Y0079328D01*
X0070929Y0080927D02*
X0056478Y0080927D01*
X0056478Y0082525D02*
X0089220Y0082525D01*
X0090819Y0080927D02*
X0079071Y0080927D01*
X0080477Y0079328D02*
X0084234Y0079328D01*
X0084245Y0079339D02*
X0083910Y0079003D01*
X0083673Y0078593D01*
X0083550Y0078135D01*
X0083550Y0076698D01*
X0089700Y0076698D01*
X0089700Y0076698D01*
X0089700Y0079698D01*
X0085113Y0079698D01*
X0084655Y0079576D01*
X0084245Y0079339D01*
X0083550Y0077730D02*
X0081139Y0077730D01*
X0081300Y0076131D02*
X0083550Y0076131D01*
X0083829Y0074533D02*
X0081175Y0074533D01*
X0089700Y0076698D02*
X0089700Y0076698D01*
X0089700Y0077730D02*
X0089700Y0077730D01*
X0089700Y0079328D02*
X0089700Y0079328D01*
X0095726Y0082525D02*
X0096796Y0082525D01*
X0096948Y0082159D02*
X0097961Y0081146D01*
X0099284Y0080598D01*
X0100716Y0080598D01*
X0102039Y0081146D01*
X0102600Y0081707D01*
X0102600Y0081221D01*
X0102965Y0080339D01*
X0104264Y0079040D01*
X0103950Y0078727D01*
X0103950Y0074670D01*
X0104422Y0074198D01*
X0104237Y0074014D01*
X0086553Y0091698D01*
X0081061Y0091698D01*
X0080341Y0093436D01*
X0080100Y0093677D01*
X0080100Y0099836D01*
X0083860Y0099836D01*
X0085031Y0101008D01*
X0085031Y0103516D01*
X0085100Y0103681D01*
X0085100Y0108266D01*
X0092121Y0115287D01*
X0092126Y0115284D01*
X0093956Y0115284D01*
X0095647Y0115984D01*
X0096941Y0117278D01*
X0097600Y0118869D01*
X0097600Y0086889D01*
X0096948Y0086237D01*
X0096400Y0084914D01*
X0096400Y0083482D01*
X0096948Y0082159D01*
X0097324Y0080927D02*
X0098491Y0080927D01*
X0098923Y0079328D02*
X0103976Y0079328D01*
X0103950Y0077730D02*
X0100521Y0077730D01*
X0102120Y0076131D02*
X0103950Y0076131D01*
X0104087Y0074533D02*
X0103718Y0074533D01*
X0100410Y0071336D02*
X0096050Y0071336D01*
X0096050Y0072934D02*
X0098811Y0072934D01*
X0097213Y0074533D02*
X0095571Y0074533D01*
X0096050Y0069737D02*
X0102008Y0069737D01*
X0103607Y0068139D02*
X0096050Y0068139D01*
X0096050Y0066540D02*
X0103950Y0066540D01*
X0103950Y0064942D02*
X0096050Y0064942D01*
X0101509Y0080927D02*
X0102722Y0080927D01*
X0096400Y0084124D02*
X0094127Y0084124D01*
X0092529Y0085722D02*
X0096735Y0085722D01*
X0097600Y0087321D02*
X0090930Y0087321D01*
X0089332Y0088919D02*
X0097600Y0088919D01*
X0097600Y0090518D02*
X0087733Y0090518D01*
X0086023Y0085722D02*
X0079764Y0085722D01*
X0077596Y0084124D02*
X0087622Y0084124D01*
X0080888Y0092116D02*
X0097600Y0092116D01*
X0097600Y0093715D02*
X0080100Y0093715D01*
X0080100Y0095313D02*
X0097600Y0095313D01*
X0097600Y0096912D02*
X0080100Y0096912D01*
X0080100Y0098510D02*
X0097600Y0098510D01*
X0097600Y0100109D02*
X0090627Y0100109D01*
X0090813Y0100159D02*
X0091223Y0100396D01*
X0091558Y0100731D01*
X0091795Y0101141D01*
X0091918Y0101599D01*
X0091918Y0104198D01*
X0088543Y0104198D01*
X0085169Y0104198D01*
X0085169Y0101599D01*
X0085291Y0101141D01*
X0085528Y0100731D01*
X0085863Y0100396D01*
X0086274Y0100159D01*
X0086732Y0100036D01*
X0088543Y0100036D01*
X0088543Y0104198D01*
X0088543Y0104198D01*
X0088543Y0104198D01*
X0085168Y0104198D01*
X0085169Y0106797D01*
X0085291Y0107255D01*
X0085528Y0107666D01*
X0085863Y0108001D01*
X0086274Y0108238D01*
X0086732Y0108360D01*
X0088543Y0108360D01*
X0088543Y0104198D01*
X0088543Y0100036D01*
X0090355Y0100036D01*
X0090813Y0100159D01*
X0091918Y0101707D02*
X0097600Y0101707D01*
X0097600Y0103306D02*
X0091918Y0103306D01*
X0091918Y0104198D02*
X0091918Y0106797D01*
X0091795Y0107255D01*
X0091558Y0107666D01*
X0091223Y0108001D01*
X0090813Y0108238D01*
X0090355Y0108360D01*
X0088543Y0108360D01*
X0088543Y0104198D01*
X0088543Y0104198D01*
X0088543Y0104198D01*
X0091918Y0104198D01*
X0091918Y0104904D02*
X0097600Y0104904D01*
X0097600Y0106503D02*
X0091918Y0106503D01*
X0091049Y0108101D02*
X0097600Y0108101D01*
X0097600Y0109700D02*
X0086534Y0109700D01*
X0086038Y0108101D02*
X0085100Y0108101D01*
X0085100Y0106503D02*
X0085169Y0106503D01*
X0085169Y0104904D02*
X0085100Y0104904D01*
X0085031Y0103306D02*
X0085169Y0103306D01*
X0085169Y0101707D02*
X0085031Y0101707D01*
X0084133Y0100109D02*
X0086459Y0100109D01*
X0088543Y0100109D02*
X0088543Y0100109D01*
X0088543Y0101707D02*
X0088543Y0101707D01*
X0088543Y0103306D02*
X0088543Y0103306D01*
X0088543Y0104904D02*
X0088543Y0104904D01*
X0088543Y0106503D02*
X0088543Y0106503D01*
X0088543Y0108101D02*
X0088543Y0108101D01*
X0088133Y0111298D02*
X0097600Y0111298D01*
X0097600Y0112897D02*
X0089731Y0112897D01*
X0091330Y0114495D02*
X0097600Y0114495D01*
X0097600Y0116094D02*
X0095757Y0116094D01*
X0097113Y0117693D02*
X0097600Y0117693D01*
X0075500Y0114495D02*
X0072330Y0114495D01*
X0070731Y0112897D02*
X0075500Y0112897D01*
X0075500Y0111298D02*
X0069133Y0111298D01*
X0069057Y0109700D02*
X0075500Y0109700D01*
X0073543Y0108360D02*
X0073543Y0104198D01*
X0073543Y0108360D01*
X0073543Y0108101D02*
X0073543Y0108101D01*
X0073543Y0106503D02*
X0073543Y0106503D01*
X0073543Y0104904D02*
X0073543Y0104904D01*
X0073543Y0104198D02*
X0073543Y0104198D01*
X0073543Y0103306D02*
X0073543Y0103306D01*
X0073543Y0101707D02*
X0073543Y0101707D01*
X0073543Y0100109D02*
X0073543Y0100109D01*
X0071459Y0100109D02*
X0069133Y0100109D01*
X0070031Y0101707D02*
X0070169Y0101707D01*
X0070169Y0103306D02*
X0070031Y0103306D01*
X0070031Y0104904D02*
X0070169Y0104904D01*
X0070169Y0106503D02*
X0070031Y0106503D01*
X0069319Y0108101D02*
X0071038Y0108101D01*
X0063857Y0109700D02*
X0056478Y0109700D01*
X0056478Y0111298D02*
X0063857Y0111298D01*
X0063890Y0112897D02*
X0056478Y0112897D01*
X0056478Y0114495D02*
X0064976Y0114495D01*
X0066574Y0116094D02*
X0056478Y0116094D01*
X0056478Y0117693D02*
X0068173Y0117693D01*
X0069441Y0119291D02*
X0056478Y0119291D01*
X0056478Y0120890D02*
X0069479Y0120890D01*
X0070141Y0122488D02*
X0056478Y0122488D01*
X0056478Y0124087D02*
X0070540Y0124087D01*
X0070218Y0125685D02*
X0056478Y0125685D01*
X0056478Y0127284D02*
X0069895Y0127284D01*
X0069572Y0128882D02*
X0056478Y0128882D01*
X0056478Y0130481D02*
X0069249Y0130481D01*
X0068926Y0132079D02*
X0056478Y0132079D01*
X0056478Y0133678D02*
X0068604Y0133678D01*
X0065000Y0134098D02*
X0065000Y0139898D01*
X0065000Y0139898D01*
X0061900Y0139898D01*
X0061900Y0135661D01*
X0062023Y0135203D01*
X0062260Y0134793D01*
X0062595Y0134458D01*
X0063005Y0134221D01*
X0063463Y0134098D01*
X0065000Y0134098D01*
X0065000Y0135276D02*
X0065000Y0135276D01*
X0065000Y0136875D02*
X0065000Y0136875D01*
X0065000Y0138473D02*
X0065000Y0138473D01*
X0065000Y0139898D02*
X0065000Y0139898D01*
X0061900Y0139898D01*
X0061900Y0144135D01*
X0062023Y0144593D01*
X0062260Y0145003D01*
X0062595Y0145339D01*
X0063005Y0145576D01*
X0063463Y0145698D01*
X0065000Y0145698D01*
X0065000Y0139898D01*
X0065000Y0139898D01*
X0065000Y0140072D02*
X0065000Y0140072D01*
X0065000Y0141670D02*
X0065000Y0141670D01*
X0065000Y0143269D02*
X0065000Y0143269D01*
X0065000Y0144867D02*
X0065000Y0144867D01*
X0062181Y0144867D02*
X0056478Y0144867D01*
X0056478Y0143269D02*
X0061900Y0143269D01*
X0061900Y0141670D02*
X0056478Y0141670D01*
X0056478Y0140072D02*
X0061900Y0140072D01*
X0061900Y0138473D02*
X0056478Y0138473D01*
X0056478Y0136875D02*
X0061900Y0136875D01*
X0062003Y0135276D02*
X0056478Y0135276D01*
X0056478Y0146466D02*
X0071615Y0146466D01*
X0073213Y0148064D02*
X0056478Y0148064D01*
X0056478Y0149663D02*
X0074812Y0149663D01*
X0074900Y0151261D02*
X0056478Y0151261D01*
X0056478Y0152860D02*
X0074900Y0152860D01*
X0074900Y0154458D02*
X0056478Y0154458D01*
X0056478Y0156057D02*
X0074900Y0156057D01*
X0074900Y0157655D02*
X0056478Y0157655D01*
X0056478Y0159254D02*
X0074900Y0159254D01*
X0074900Y0160852D02*
X0056478Y0160852D01*
X0056478Y0162451D02*
X0074900Y0162451D01*
X0074900Y0164049D02*
X0056478Y0164049D01*
X0056478Y0165648D02*
X0074900Y0165648D01*
X0074900Y0167246D02*
X0056478Y0167246D01*
X0056478Y0168845D02*
X0074900Y0168845D01*
X0074900Y0170443D02*
X0056478Y0170443D01*
X0056478Y0172042D02*
X0074900Y0172042D01*
X0061729Y0173640D02*
X0056478Y0173640D01*
X0056478Y0175239D02*
X0061700Y0175239D01*
X0061700Y0176837D02*
X0056478Y0176837D01*
X0056478Y0178436D02*
X0061700Y0178436D01*
X0061700Y0180034D02*
X0056478Y0180034D01*
X0056478Y0181633D02*
X0061700Y0181633D01*
X0061700Y0183231D02*
X0056478Y0183231D01*
X0056478Y0184830D02*
X0071877Y0184830D01*
X0071400Y0186428D02*
X0056478Y0186428D01*
X0056478Y0188027D02*
X0070277Y0188027D01*
X0068679Y0189626D02*
X0056478Y0189626D01*
X0056478Y0191224D02*
X0067080Y0191224D01*
X0065482Y0192823D02*
X0056478Y0192823D01*
X0056478Y0194421D02*
X0063883Y0194421D01*
X0062683Y0196020D02*
X0056478Y0196020D01*
X0056478Y0197618D02*
X0062600Y0197618D01*
X0062600Y0199217D02*
X0056478Y0199217D01*
X0056478Y0200815D02*
X0062600Y0200815D01*
X0062699Y0202414D02*
X0056478Y0202414D01*
X0056478Y0204012D02*
X0063920Y0204012D01*
X0065518Y0205611D02*
X0056478Y0205611D01*
X0056478Y0207209D02*
X0067117Y0207209D01*
X0067600Y0208808D02*
X0056478Y0208808D01*
X0056478Y0210406D02*
X0066701Y0210406D01*
X0066701Y0212005D02*
X0056478Y0212005D01*
X0056478Y0213603D02*
X0066701Y0213603D01*
X0066701Y0215202D02*
X0056478Y0215202D01*
X0056478Y0216800D02*
X0066701Y0216800D01*
X0066923Y0218399D02*
X0056478Y0218399D01*
X0056478Y0219997D02*
X0076350Y0219997D01*
X0076350Y0221596D02*
X0056478Y0221596D01*
X0056478Y0223194D02*
X0076350Y0223194D01*
X0067128Y0224793D02*
X0056478Y0224793D01*
X0056478Y0226391D02*
X0066701Y0226391D01*
X0066701Y0227990D02*
X0056478Y0227990D01*
X0056478Y0229588D02*
X0066216Y0229588D01*
X0064617Y0231187D02*
X0056478Y0231187D01*
X0056478Y0232785D02*
X0063019Y0232785D01*
X0061420Y0234384D02*
X0056478Y0234384D01*
X0056478Y0235982D02*
X0058455Y0235982D01*
X0057156Y0237581D02*
X0056478Y0237581D01*
X0056478Y0239179D02*
X0056500Y0239179D01*
X0056478Y0240778D02*
X0056500Y0240778D01*
X0056478Y0242376D02*
X0056891Y0242376D01*
X0056478Y0243975D02*
X0057816Y0243975D01*
X0056478Y0245573D02*
X0060041Y0245573D01*
X0056478Y0247172D02*
X0162774Y0247172D01*
X0161175Y0248770D02*
X0160791Y0248770D01*
X0157209Y0248770D02*
X0150791Y0248770D01*
X0153232Y0250369D02*
X0154768Y0250369D01*
X0147209Y0248770D02*
X0140791Y0248770D01*
X0143232Y0250369D02*
X0144768Y0250369D01*
X0137209Y0248770D02*
X0130791Y0248770D01*
X0133232Y0250369D02*
X0134768Y0250369D01*
X0127209Y0248770D02*
X0120791Y0248770D01*
X0123232Y0250369D02*
X0124768Y0250369D01*
X0117209Y0248770D02*
X0109889Y0248770D01*
X0109200Y0248770D02*
X0108800Y0248770D01*
X0108111Y0248770D02*
X0100791Y0248770D01*
X0103232Y0250369D02*
X0105051Y0250369D01*
X0108800Y0250369D02*
X0109200Y0250369D01*
X0109200Y0251967D02*
X0108800Y0251967D01*
X0108800Y0253566D02*
X0109200Y0253566D01*
X0109200Y0255164D02*
X0108800Y0255164D01*
X0108800Y0256763D02*
X0109200Y0256763D01*
X0109200Y0258362D02*
X0108800Y0258362D01*
X0105385Y0258362D02*
X0102898Y0258362D01*
X0104107Y0256763D02*
X0104134Y0256763D01*
X0112615Y0258362D02*
X0115102Y0258362D01*
X0113893Y0256763D02*
X0113866Y0256763D01*
X0114768Y0250369D02*
X0112949Y0250369D01*
X0122898Y0258362D02*
X0125102Y0258362D01*
X0126746Y0261559D02*
X0092084Y0261559D01*
X0091995Y0261681D02*
X0091383Y0262293D01*
X0090683Y0262802D01*
X0089911Y0263195D01*
X0089088Y0263463D01*
X0088233Y0263598D01*
X0088000Y0263598D01*
X0088000Y0258298D01*
X0093300Y0258298D01*
X0093300Y0258531D01*
X0093165Y0259386D01*
X0092897Y0260209D01*
X0092504Y0260981D01*
X0091995Y0261681D01*
X0092978Y0259960D02*
X0128344Y0259960D01*
X0125147Y0263157D02*
X0089986Y0263157D01*
X0088000Y0263157D02*
X0087600Y0263157D01*
X0087600Y0263598D02*
X0087367Y0263598D01*
X0086512Y0263463D01*
X0085689Y0263195D01*
X0084917Y0262802D01*
X0084217Y0262293D01*
X0083605Y0261681D01*
X0083096Y0260981D01*
X0082703Y0260209D01*
X0082435Y0259386D01*
X0082300Y0258531D01*
X0082300Y0258298D01*
X0087600Y0258298D01*
X0087600Y0257898D01*
X0088000Y0257898D01*
X0088000Y0252598D01*
X0088233Y0252598D01*
X0089088Y0252734D01*
X0089911Y0253001D01*
X0090683Y0253394D01*
X0091383Y0253903D01*
X0091995Y0254515D01*
X0092504Y0255216D01*
X0092897Y0255987D01*
X0093165Y0256810D01*
X0093300Y0257665D01*
X0093300Y0257898D01*
X0088000Y0257898D01*
X0088000Y0258298D01*
X0087600Y0258298D01*
X0087600Y0263598D01*
X0085614Y0263157D02*
X0064386Y0263157D01*
X0064311Y0263195D02*
X0063488Y0263463D01*
X0062633Y0263598D01*
X0062400Y0263598D01*
X0062400Y0258298D01*
X0067700Y0258298D01*
X0067700Y0258531D01*
X0067565Y0259386D01*
X0067297Y0260209D01*
X0066904Y0260981D01*
X0066395Y0261681D01*
X0065783Y0262293D01*
X0065083Y0262802D01*
X0064311Y0263195D01*
X0062400Y0263157D02*
X0062000Y0263157D01*
X0062000Y0263598D02*
X0061767Y0263598D01*
X0060912Y0263463D01*
X0060089Y0263195D01*
X0059317Y0262802D01*
X0058617Y0262293D01*
X0058005Y0261681D01*
X0057496Y0260981D01*
X0057103Y0260209D01*
X0056835Y0259386D01*
X0056700Y0258531D01*
X0056700Y0258298D01*
X0062000Y0258298D01*
X0062000Y0257898D01*
X0062400Y0257898D01*
X0062400Y0252598D01*
X0062633Y0252598D01*
X0063488Y0252734D01*
X0064311Y0253001D01*
X0065083Y0253394D01*
X0065783Y0253903D01*
X0066395Y0254515D01*
X0066904Y0255216D01*
X0067297Y0255987D01*
X0067565Y0256810D01*
X0067700Y0257665D01*
X0067700Y0257898D01*
X0062400Y0257898D01*
X0062400Y0258298D01*
X0062000Y0258298D01*
X0062000Y0263598D01*
X0060014Y0263157D02*
X0056478Y0263157D01*
X0056478Y0261559D02*
X0057916Y0261559D01*
X0057022Y0259960D02*
X0056478Y0259960D01*
X0056478Y0258362D02*
X0056700Y0258362D01*
X0056700Y0257898D02*
X0056700Y0257665D01*
X0056835Y0256810D01*
X0057103Y0255987D01*
X0057496Y0255216D01*
X0058005Y0254515D01*
X0058617Y0253903D01*
X0059317Y0253394D01*
X0060089Y0253001D01*
X0060912Y0252734D01*
X0061767Y0252598D01*
X0062000Y0252598D01*
X0062000Y0257898D01*
X0056700Y0257898D01*
X0056851Y0256763D02*
X0056478Y0256763D01*
X0056478Y0255164D02*
X0057533Y0255164D01*
X0056478Y0253566D02*
X0059081Y0253566D01*
X0062000Y0253566D02*
X0062400Y0253566D01*
X0062400Y0255164D02*
X0062000Y0255164D01*
X0062000Y0256763D02*
X0062400Y0256763D01*
X0062400Y0258362D02*
X0062000Y0258362D01*
X0062000Y0259960D02*
X0062400Y0259960D01*
X0062400Y0261559D02*
X0062000Y0261559D01*
X0066484Y0261559D02*
X0083516Y0261559D01*
X0082622Y0259960D02*
X0067378Y0259960D01*
X0067700Y0258362D02*
X0082300Y0258362D01*
X0082300Y0257898D02*
X0082300Y0257665D01*
X0082435Y0256810D01*
X0082703Y0255987D01*
X0083096Y0255216D01*
X0083605Y0254515D01*
X0084217Y0253903D01*
X0084917Y0253394D01*
X0085689Y0253001D01*
X0086512Y0252734D01*
X0087367Y0252598D01*
X0087600Y0252598D01*
X0087600Y0257898D01*
X0082300Y0257898D01*
X0082451Y0256763D02*
X0067549Y0256763D01*
X0066867Y0255164D02*
X0083133Y0255164D01*
X0084681Y0253566D02*
X0065319Y0253566D01*
X0064359Y0245573D02*
X0085641Y0245573D01*
X0089959Y0245573D02*
X0347723Y0245573D01*
X0346124Y0243975D02*
X0092184Y0243975D01*
X0093109Y0242376D02*
X0344526Y0242376D01*
X0342927Y0240778D02*
X0093500Y0240778D01*
X0093500Y0239179D02*
X0341328Y0239179D01*
X0339730Y0237581D02*
X0092844Y0237581D01*
X0091545Y0235982D02*
X0338131Y0235982D01*
X0359471Y0201798D02*
X0366506Y0201798D01*
X0370465Y0197839D01*
X0370465Y0197839D01*
X0370522Y0197782D01*
X0369300Y0196559D01*
X0369300Y0191837D01*
X0371939Y0189198D01*
X0369300Y0186559D01*
X0369300Y0181837D01*
X0371939Y0179198D01*
X0369300Y0176559D01*
X0369300Y0171837D01*
X0371939Y0169198D01*
X0369300Y0166559D01*
X0369300Y0161837D01*
X0371939Y0159198D01*
X0369300Y0156559D01*
X0369300Y0151837D01*
X0371939Y0149198D01*
X0369300Y0146559D01*
X0369300Y0141837D01*
X0371939Y0139198D01*
X0369300Y0136559D01*
X0369300Y0131837D01*
X0371939Y0129198D01*
X0369300Y0126559D01*
X0369300Y0121837D01*
X0371939Y0119198D01*
X0369300Y0116559D01*
X0369300Y0115792D01*
X0362609Y0122483D01*
X0361727Y0122848D01*
X0359926Y0122848D01*
X0360500Y0124233D01*
X0360500Y0126421D01*
X0359663Y0128442D01*
X0358115Y0129990D01*
X0356094Y0130827D01*
X0353906Y0130827D01*
X0351884Y0129990D01*
X0350337Y0128442D01*
X0350000Y0127628D01*
X0349663Y0128442D01*
X0348115Y0129990D01*
X0346094Y0130827D01*
X0343906Y0130827D01*
X0341884Y0129990D01*
X0340337Y0128442D01*
X0340000Y0127628D01*
X0339663Y0128442D01*
X0338115Y0129990D01*
X0336094Y0130827D01*
X0333906Y0130827D01*
X0331884Y0129990D01*
X0330337Y0128442D01*
X0330000Y0127628D01*
X0329663Y0128442D01*
X0328115Y0129990D01*
X0326094Y0130827D01*
X0323906Y0130827D01*
X0321884Y0129990D01*
X0320337Y0128442D01*
X0320000Y0127628D01*
X0319663Y0128442D01*
X0318115Y0129990D01*
X0316094Y0130827D01*
X0313906Y0130827D01*
X0311884Y0129990D01*
X0310337Y0128442D01*
X0310000Y0127628D01*
X0309663Y0128442D01*
X0308115Y0129990D01*
X0306094Y0130827D01*
X0303906Y0130827D01*
X0301884Y0129990D01*
X0300337Y0128442D01*
X0300000Y0127628D01*
X0299663Y0128442D01*
X0298115Y0129990D01*
X0296094Y0130827D01*
X0293906Y0130827D01*
X0291884Y0129990D01*
X0290337Y0128442D01*
X0290000Y0127628D01*
X0289663Y0128442D01*
X0288115Y0129990D01*
X0286094Y0130827D01*
X0283906Y0130827D01*
X0281884Y0129990D01*
X0280337Y0128442D01*
X0280000Y0127628D01*
X0279663Y0128442D01*
X0278115Y0129990D01*
X0276094Y0130827D01*
X0273906Y0130827D01*
X0271884Y0129990D01*
X0270337Y0128442D01*
X0270000Y0127628D01*
X0269663Y0128442D01*
X0268115Y0129990D01*
X0266094Y0130827D01*
X0263906Y0130827D01*
X0261884Y0129990D01*
X0260337Y0128442D01*
X0260000Y0127628D01*
X0259663Y0128442D01*
X0258115Y0129990D01*
X0256094Y0130827D01*
X0253906Y0130827D01*
X0251884Y0129990D01*
X0250337Y0128442D01*
X0250000Y0127628D01*
X0249663Y0128442D01*
X0248115Y0129990D01*
X0246094Y0130827D01*
X0243906Y0130827D01*
X0241884Y0129990D01*
X0240337Y0128442D01*
X0240000Y0127628D01*
X0239663Y0128442D01*
X0238115Y0129990D01*
X0236094Y0130827D01*
X0233906Y0130827D01*
X0231884Y0129990D01*
X0230337Y0128442D01*
X0230000Y0127628D01*
X0229663Y0128442D01*
X0228115Y0129990D01*
X0226094Y0130827D01*
X0223906Y0130827D01*
X0221884Y0129990D01*
X0220337Y0128442D01*
X0220000Y0127628D01*
X0219663Y0128442D01*
X0218115Y0129990D01*
X0216094Y0130827D01*
X0213906Y0130827D01*
X0211884Y0129990D01*
X0210337Y0128442D01*
X0210000Y0127628D01*
X0209663Y0128442D01*
X0208115Y0129990D01*
X0206094Y0130827D01*
X0203906Y0130827D01*
X0201884Y0129990D01*
X0200337Y0128442D01*
X0200000Y0127628D01*
X0199663Y0128442D01*
X0198115Y0129990D01*
X0196094Y0130827D01*
X0193906Y0130827D01*
X0191884Y0129990D01*
X0190337Y0128442D01*
X0190000Y0127628D01*
X0189663Y0128442D01*
X0188115Y0129990D01*
X0186094Y0130827D01*
X0183906Y0130827D01*
X0181884Y0129990D01*
X0180337Y0128442D01*
X0180000Y0127628D01*
X0179663Y0128442D01*
X0178115Y0129990D01*
X0176094Y0130827D01*
X0173906Y0130827D01*
X0171884Y0129990D01*
X0170337Y0128442D01*
X0170000Y0127628D01*
X0169663Y0128442D01*
X0168115Y0129990D01*
X0166094Y0130827D01*
X0163906Y0130827D01*
X0161884Y0129990D01*
X0160337Y0128442D01*
X0159500Y0126421D01*
X0159500Y0124233D01*
X0160074Y0122848D01*
X0145994Y0122848D01*
X0140736Y0128106D01*
X0142039Y0128646D01*
X0143052Y0129659D01*
X0143600Y0130982D01*
X0143600Y0132414D01*
X0143052Y0133737D01*
X0142039Y0134750D01*
X0140716Y0135298D01*
X0139769Y0135298D01*
X0112828Y0161894D01*
X0120497Y0161894D01*
X0121668Y0163065D01*
X0121668Y0168414D01*
X0121953Y0168698D01*
X0123300Y0170046D01*
X0123300Y0177951D01*
X0122100Y0179151D01*
X0120753Y0180498D01*
X0108300Y0180498D01*
X0108300Y0183327D01*
X0107128Y0184498D01*
X0106844Y0184498D01*
X0106359Y0184983D01*
X0100109Y0191233D01*
X0099227Y0191598D01*
X0089900Y0191598D01*
X0089900Y0196803D01*
X0092805Y0193898D01*
X0097195Y0193898D01*
X0100141Y0196844D01*
X0102888Y0194098D01*
X0105000Y0194098D01*
X0107112Y0194098D01*
X0110100Y0197086D01*
X0110100Y0199198D01*
X0105000Y0199198D01*
X0105000Y0194098D01*
X0105000Y0199198D01*
X0105000Y0199198D01*
X0105000Y0199198D01*
X0110100Y0199198D01*
X0110100Y0201311D01*
X0107112Y0204298D01*
X0105000Y0204298D01*
X0102888Y0204298D01*
X0100141Y0201552D01*
X0097195Y0204498D01*
X0094900Y0204498D01*
X0094900Y0219301D01*
X0095000Y0219401D01*
X0095353Y0219049D01*
X0101755Y0219049D01*
X0117965Y0202839D01*
X0117965Y0202839D01*
X0118641Y0202164D01*
X0119523Y0201798D01*
X0120529Y0201798D01*
X0120000Y0201269D01*
X0120000Y0197127D01*
X0122929Y0194198D01*
X0127071Y0194198D01*
X0130000Y0197127D01*
X0132929Y0194198D01*
X0137071Y0194198D01*
X0140000Y0197127D01*
X0142929Y0194198D01*
X0147071Y0194198D01*
X0150000Y0197127D01*
X0152929Y0194198D01*
X0157071Y0194198D01*
X0160000Y0197127D01*
X0162862Y0194266D01*
X0161884Y0193861D01*
X0160337Y0192314D01*
X0159500Y0190292D01*
X0159500Y0188104D01*
X0160337Y0186083D01*
X0161884Y0184536D01*
X0163906Y0183698D01*
X0166094Y0183698D01*
X0168115Y0184536D01*
X0169663Y0186083D01*
X0170000Y0186897D01*
X0170337Y0186083D01*
X0171884Y0184536D01*
X0173906Y0183698D01*
X0176094Y0183698D01*
X0178115Y0184536D01*
X0179663Y0186083D01*
X0180000Y0186897D01*
X0180337Y0186083D01*
X0181884Y0184536D01*
X0183906Y0183698D01*
X0186094Y0183698D01*
X0188115Y0184536D01*
X0189663Y0186083D01*
X0190000Y0186897D01*
X0190337Y0186083D01*
X0191884Y0184536D01*
X0193906Y0183698D01*
X0196094Y0183698D01*
X0198115Y0184536D01*
X0199663Y0186083D01*
X0200000Y0186897D01*
X0200337Y0186083D01*
X0201884Y0184536D01*
X0203906Y0183698D01*
X0206094Y0183698D01*
X0208115Y0184536D01*
X0209663Y0186083D01*
X0210000Y0186897D01*
X0210337Y0186083D01*
X0211884Y0184536D01*
X0213906Y0183698D01*
X0216094Y0183698D01*
X0218115Y0184536D01*
X0219663Y0186083D01*
X0220000Y0186897D01*
X0220337Y0186083D01*
X0221884Y0184536D01*
X0223906Y0183698D01*
X0226094Y0183698D01*
X0228115Y0184536D01*
X0229663Y0186083D01*
X0230000Y0186897D01*
X0230337Y0186083D01*
X0231884Y0184536D01*
X0233906Y0183698D01*
X0236094Y0183698D01*
X0238115Y0184536D01*
X0239663Y0186083D01*
X0240000Y0186897D01*
X0240337Y0186083D01*
X0241884Y0184536D01*
X0243906Y0183698D01*
X0246094Y0183698D01*
X0248115Y0184536D01*
X0249663Y0186083D01*
X0250000Y0186897D01*
X0250337Y0186083D01*
X0251884Y0184536D01*
X0253906Y0183698D01*
X0256094Y0183698D01*
X0258115Y0184536D01*
X0259663Y0186083D01*
X0260000Y0186897D01*
X0260337Y0186083D01*
X0261884Y0184536D01*
X0263906Y0183698D01*
X0266094Y0183698D01*
X0268115Y0184536D01*
X0269663Y0186083D01*
X0270000Y0186897D01*
X0270337Y0186083D01*
X0271884Y0184536D01*
X0273906Y0183698D01*
X0276094Y0183698D01*
X0278115Y0184536D01*
X0279663Y0186083D01*
X0280000Y0186897D01*
X0280337Y0186083D01*
X0281884Y0184536D01*
X0283906Y0183698D01*
X0286094Y0183698D01*
X0288115Y0184536D01*
X0289663Y0186083D01*
X0290000Y0186897D01*
X0290337Y0186083D01*
X0291884Y0184536D01*
X0293906Y0183698D01*
X0296094Y0183698D01*
X0298115Y0184536D01*
X0299663Y0186083D01*
X0300000Y0186897D01*
X0300337Y0186083D01*
X0301884Y0184536D01*
X0303906Y0183698D01*
X0306094Y0183698D01*
X0308115Y0184536D01*
X0309663Y0186083D01*
X0310000Y0186897D01*
X0310337Y0186083D01*
X0311884Y0184536D01*
X0313906Y0183698D01*
X0316094Y0183698D01*
X0318115Y0184536D01*
X0319663Y0186083D01*
X0320000Y0186897D01*
X0320337Y0186083D01*
X0321884Y0184536D01*
X0323906Y0183698D01*
X0326094Y0183698D01*
X0328115Y0184536D01*
X0329663Y0186083D01*
X0330000Y0186897D01*
X0330337Y0186083D01*
X0331884Y0184536D01*
X0333906Y0183698D01*
X0336094Y0183698D01*
X0338115Y0184536D01*
X0339663Y0186083D01*
X0340000Y0186897D01*
X0340337Y0186083D01*
X0341884Y0184536D01*
X0343906Y0183698D01*
X0346094Y0183698D01*
X0348115Y0184536D01*
X0349663Y0186083D01*
X0350000Y0186897D01*
X0350337Y0186083D01*
X0351884Y0184536D01*
X0353906Y0183698D01*
X0356094Y0183698D01*
X0358115Y0184536D01*
X0359663Y0186083D01*
X0360500Y0188104D01*
X0360500Y0190292D01*
X0359663Y0192314D01*
X0358115Y0193861D01*
X0357138Y0194266D01*
X0360000Y0197127D01*
X0360000Y0201269D01*
X0359471Y0201798D01*
X0360000Y0200815D02*
X0367489Y0200815D01*
X0369087Y0199217D02*
X0360000Y0199217D01*
X0360000Y0197618D02*
X0370359Y0197618D01*
X0369300Y0196020D02*
X0358892Y0196020D01*
X0357294Y0194421D02*
X0369300Y0194421D01*
X0369300Y0192823D02*
X0359154Y0192823D01*
X0360114Y0191224D02*
X0369913Y0191224D01*
X0371512Y0189626D02*
X0360500Y0189626D01*
X0360468Y0188027D02*
X0370768Y0188027D01*
X0369300Y0186428D02*
X0359806Y0186428D01*
X0358410Y0184830D02*
X0369300Y0184830D01*
X0369300Y0183231D02*
X0108300Y0183231D01*
X0108300Y0181633D02*
X0369504Y0181633D01*
X0371103Y0180034D02*
X0121216Y0180034D01*
X0122815Y0178436D02*
X0371177Y0178436D01*
X0369578Y0176837D02*
X0123300Y0176837D01*
X0123300Y0175239D02*
X0369300Y0175239D01*
X0369300Y0173640D02*
X0123300Y0173640D01*
X0123300Y0172042D02*
X0153628Y0172042D01*
X0154005Y0172198D02*
X0152168Y0171437D01*
X0150761Y0170030D01*
X0150000Y0168193D01*
X0150000Y0160204D01*
X0150761Y0158366D01*
X0152168Y0156959D01*
X0152798Y0156698D01*
X0152168Y0156437D01*
X0150761Y0155030D01*
X0150000Y0153193D01*
X0150000Y0145204D01*
X0150761Y0143366D01*
X0152168Y0141959D01*
X0154005Y0141198D01*
X0155995Y0141198D01*
X0157832Y0141959D01*
X0159239Y0143366D01*
X0160000Y0145204D01*
X0160761Y0143366D01*
X0162168Y0141959D01*
X0164005Y0141198D01*
X0165995Y0141198D01*
X0167832Y0141959D01*
X0169239Y0143366D01*
X0170000Y0145204D01*
X0170761Y0143366D01*
X0172168Y0141959D01*
X0174005Y0141198D01*
X0175995Y0141198D01*
X0177832Y0141959D01*
X0179239Y0143366D01*
X0180000Y0145204D01*
X0180761Y0143366D01*
X0182168Y0141959D01*
X0184005Y0141198D01*
X0185995Y0141198D01*
X0187832Y0141959D01*
X0189239Y0143366D01*
X0190000Y0145204D01*
X0190761Y0143366D01*
X0192168Y0141959D01*
X0194005Y0141198D01*
X0195995Y0141198D01*
X0197832Y0141959D01*
X0199239Y0143366D01*
X0200000Y0145204D01*
X0200761Y0143366D01*
X0202168Y0141959D01*
X0204005Y0141198D01*
X0205995Y0141198D01*
X0207832Y0141959D01*
X0209239Y0143366D01*
X0210000Y0145204D01*
X0210761Y0143366D01*
X0212168Y0141959D01*
X0214005Y0141198D01*
X0215995Y0141198D01*
X0217832Y0141959D01*
X0219239Y0143366D01*
X0220000Y0145204D01*
X0220761Y0143366D01*
X0222168Y0141959D01*
X0224005Y0141198D01*
X0225995Y0141198D01*
X0227832Y0141959D01*
X0229239Y0143366D01*
X0230000Y0145204D01*
X0230761Y0143366D01*
X0232168Y0141959D01*
X0234005Y0141198D01*
X0235995Y0141198D01*
X0237832Y0141959D01*
X0239239Y0143366D01*
X0240000Y0145204D01*
X0240761Y0143366D01*
X0242168Y0141959D01*
X0244005Y0141198D01*
X0245995Y0141198D01*
X0247832Y0141959D01*
X0249239Y0143366D01*
X0250000Y0145204D01*
X0250761Y0143366D01*
X0252168Y0141959D01*
X0254005Y0141198D01*
X0255995Y0141198D01*
X0257832Y0141959D01*
X0259239Y0143366D01*
X0260000Y0145204D01*
X0260761Y0143366D01*
X0262168Y0141959D01*
X0264005Y0141198D01*
X0265995Y0141198D01*
X0267832Y0141959D01*
X0269239Y0143366D01*
X0270000Y0145204D01*
X0270761Y0143366D01*
X0272168Y0141959D01*
X0274005Y0141198D01*
X0275995Y0141198D01*
X0277832Y0141959D01*
X0279239Y0143366D01*
X0280000Y0145204D01*
X0280761Y0143366D01*
X0282168Y0141959D01*
X0284005Y0141198D01*
X0285995Y0141198D01*
X0287832Y0141959D01*
X0289239Y0143366D01*
X0290000Y0145204D01*
X0290761Y0143366D01*
X0292168Y0141959D01*
X0294005Y0141198D01*
X0295995Y0141198D01*
X0297832Y0141959D01*
X0299239Y0143366D01*
X0300000Y0145204D01*
X0300761Y0143366D01*
X0302168Y0141959D01*
X0304005Y0141198D01*
X0305995Y0141198D01*
X0307832Y0141959D01*
X0309239Y0143366D01*
X0310000Y0145204D01*
X0310761Y0143366D01*
X0312168Y0141959D01*
X0314005Y0141198D01*
X0315995Y0141198D01*
X0317832Y0141959D01*
X0319239Y0143366D01*
X0320000Y0145204D01*
X0320761Y0143366D01*
X0322168Y0141959D01*
X0324005Y0141198D01*
X0325995Y0141198D01*
X0327832Y0141959D01*
X0329239Y0143366D01*
X0330000Y0145204D01*
X0330761Y0143366D01*
X0332168Y0141959D01*
X0334005Y0141198D01*
X0335995Y0141198D01*
X0337832Y0141959D01*
X0339239Y0143366D01*
X0340000Y0145204D01*
X0340000Y0153193D01*
X0339239Y0155030D01*
X0337832Y0156437D01*
X0337202Y0156698D01*
X0337832Y0156959D01*
X0339239Y0158366D01*
X0340000Y0160204D01*
X0340000Y0168193D01*
X0339239Y0170030D01*
X0337832Y0171437D01*
X0335995Y0172198D01*
X0334005Y0172198D01*
X0332168Y0171437D01*
X0330761Y0170030D01*
X0330000Y0168193D01*
X0330000Y0160204D01*
X0330761Y0158366D01*
X0332168Y0156959D01*
X0332798Y0156698D01*
X0332168Y0156437D01*
X0330761Y0155030D01*
X0330000Y0153193D01*
X0330000Y0145204D01*
X0330000Y0153193D01*
X0329239Y0155030D01*
X0327832Y0156437D01*
X0327202Y0156698D01*
X0327832Y0156959D01*
X0329239Y0158366D01*
X0330000Y0160204D01*
X0330000Y0168193D01*
X0329239Y0170030D01*
X0327832Y0171437D01*
X0325995Y0172198D01*
X0324005Y0172198D01*
X0322168Y0171437D01*
X0320761Y0170030D01*
X0320000Y0168193D01*
X0320000Y0160204D01*
X0320761Y0158366D01*
X0322168Y0156959D01*
X0322798Y0156698D01*
X0322168Y0156437D01*
X0320761Y0155030D01*
X0320000Y0153193D01*
X0320000Y0145204D01*
X0320000Y0153193D01*
X0319239Y0155030D01*
X0317832Y0156437D01*
X0317202Y0156698D01*
X0317832Y0156959D01*
X0319239Y0158366D01*
X0320000Y0160204D01*
X0320000Y0168193D01*
X0319239Y0170030D01*
X0317832Y0171437D01*
X0315995Y0172198D01*
X0314005Y0172198D01*
X0312168Y0171437D01*
X0310761Y0170030D01*
X0310000Y0168193D01*
X0310000Y0160204D01*
X0310761Y0158366D01*
X0312168Y0156959D01*
X0312798Y0156698D01*
X0312168Y0156437D01*
X0310761Y0155030D01*
X0310000Y0153193D01*
X0310000Y0145204D01*
X0310000Y0153193D01*
X0309239Y0155030D01*
X0307832Y0156437D01*
X0307202Y0156698D01*
X0307832Y0156959D01*
X0309239Y0158366D01*
X0310000Y0160204D01*
X0310000Y0168193D01*
X0309239Y0170030D01*
X0307832Y0171437D01*
X0305995Y0172198D01*
X0304005Y0172198D01*
X0302168Y0171437D01*
X0300761Y0170030D01*
X0300000Y0168193D01*
X0300000Y0160204D01*
X0300761Y0158366D01*
X0302168Y0156959D01*
X0302798Y0156698D01*
X0302168Y0156437D01*
X0300761Y0155030D01*
X0300000Y0153193D01*
X0300000Y0145204D01*
X0300000Y0153193D01*
X0299239Y0155030D01*
X0297832Y0156437D01*
X0297202Y0156698D01*
X0297832Y0156959D01*
X0299239Y0158366D01*
X0300000Y0160204D01*
X0300000Y0168193D01*
X0299239Y0170030D01*
X0297832Y0171437D01*
X0295995Y0172198D01*
X0294005Y0172198D01*
X0292168Y0171437D01*
X0290761Y0170030D01*
X0290000Y0168193D01*
X0290000Y0160204D01*
X0290761Y0158366D01*
X0292168Y0156959D01*
X0292798Y0156698D01*
X0292168Y0156437D01*
X0290761Y0155030D01*
X0290000Y0153193D01*
X0290000Y0145204D01*
X0290000Y0153193D01*
X0289239Y0155030D01*
X0287832Y0156437D01*
X0287202Y0156698D01*
X0287832Y0156959D01*
X0289239Y0158366D01*
X0290000Y0160204D01*
X0290000Y0168193D01*
X0289239Y0170030D01*
X0287832Y0171437D01*
X0285995Y0172198D01*
X0284005Y0172198D01*
X0282168Y0171437D01*
X0280761Y0170030D01*
X0280000Y0168193D01*
X0280000Y0160204D01*
X0280761Y0158366D01*
X0282168Y0156959D01*
X0282798Y0156698D01*
X0282168Y0156437D01*
X0280761Y0155030D01*
X0280000Y0153193D01*
X0280000Y0145204D01*
X0280000Y0153193D01*
X0279239Y0155030D01*
X0277832Y0156437D01*
X0277202Y0156698D01*
X0277832Y0156959D01*
X0279239Y0158366D01*
X0280000Y0160204D01*
X0280000Y0168193D01*
X0279239Y0170030D01*
X0277832Y0171437D01*
X0275995Y0172198D01*
X0274005Y0172198D01*
X0272168Y0171437D01*
X0270761Y0170030D01*
X0270000Y0168193D01*
X0270000Y0160204D01*
X0270761Y0158366D01*
X0272168Y0156959D01*
X0272798Y0156698D01*
X0272168Y0156437D01*
X0270761Y0155030D01*
X0270000Y0153193D01*
X0270000Y0145204D01*
X0270000Y0153193D01*
X0269239Y0155030D01*
X0267832Y0156437D01*
X0267202Y0156698D01*
X0267832Y0156959D01*
X0269239Y0158366D01*
X0270000Y0160204D01*
X0270000Y0168193D01*
X0269239Y0170030D01*
X0267832Y0171437D01*
X0265995Y0172198D01*
X0264005Y0172198D01*
X0262168Y0171437D01*
X0260761Y0170030D01*
X0260000Y0168193D01*
X0260000Y0160204D01*
X0260761Y0158366D01*
X0262168Y0156959D01*
X0262798Y0156698D01*
X0262168Y0156437D01*
X0260761Y0155030D01*
X0260000Y0153193D01*
X0260000Y0145204D01*
X0260000Y0153193D01*
X0259239Y0155030D01*
X0257832Y0156437D01*
X0257202Y0156698D01*
X0257832Y0156959D01*
X0259239Y0158366D01*
X0260000Y0160204D01*
X0260000Y0168193D01*
X0259239Y0170030D01*
X0257832Y0171437D01*
X0255995Y0172198D01*
X0254005Y0172198D01*
X0252168Y0171437D01*
X0250761Y0170030D01*
X0250000Y0168193D01*
X0250000Y0160204D01*
X0250761Y0158366D01*
X0252168Y0156959D01*
X0252798Y0156698D01*
X0252168Y0156437D01*
X0250761Y0155030D01*
X0250000Y0153193D01*
X0250000Y0145204D01*
X0250000Y0153193D01*
X0249239Y0155030D01*
X0247832Y0156437D01*
X0247202Y0156698D01*
X0247832Y0156959D01*
X0249239Y0158366D01*
X0250000Y0160204D01*
X0250000Y0168193D01*
X0249239Y0170030D01*
X0247832Y0171437D01*
X0245995Y0172198D01*
X0244005Y0172198D01*
X0242168Y0171437D01*
X0240761Y0170030D01*
X0240000Y0168193D01*
X0240000Y0160204D01*
X0240761Y0158366D01*
X0242168Y0156959D01*
X0242798Y0156698D01*
X0242168Y0156437D01*
X0240761Y0155030D01*
X0240000Y0153193D01*
X0240000Y0145204D01*
X0240000Y0153193D01*
X0239239Y0155030D01*
X0237832Y0156437D01*
X0237202Y0156698D01*
X0237832Y0156959D01*
X0239239Y0158366D01*
X0240000Y0160204D01*
X0240000Y0168193D01*
X0239239Y0170030D01*
X0237832Y0171437D01*
X0235995Y0172198D01*
X0234005Y0172198D01*
X0232168Y0171437D01*
X0230761Y0170030D01*
X0230000Y0168193D01*
X0230000Y0160204D01*
X0230761Y0158366D01*
X0232168Y0156959D01*
X0232798Y0156698D01*
X0232168Y0156437D01*
X0230761Y0155030D01*
X0230000Y0153193D01*
X0230000Y0145204D01*
X0230000Y0153193D01*
X0229239Y0155030D01*
X0227832Y0156437D01*
X0227202Y0156698D01*
X0227832Y0156959D01*
X0229239Y0158366D01*
X0230000Y0160204D01*
X0230000Y0168193D01*
X0229239Y0170030D01*
X0227832Y0171437D01*
X0225995Y0172198D01*
X0224005Y0172198D01*
X0222168Y0171437D01*
X0220761Y0170030D01*
X0220000Y0168193D01*
X0220000Y0160204D01*
X0220761Y0158366D01*
X0222168Y0156959D01*
X0222798Y0156698D01*
X0222168Y0156437D01*
X0220761Y0155030D01*
X0220000Y0153193D01*
X0220000Y0145204D01*
X0220000Y0153193D01*
X0219239Y0155030D01*
X0217832Y0156437D01*
X0217202Y0156698D01*
X0217832Y0156959D01*
X0219239Y0158366D01*
X0220000Y0160204D01*
X0220000Y0168193D01*
X0219239Y0170030D01*
X0217832Y0171437D01*
X0215995Y0172198D01*
X0214005Y0172198D01*
X0212168Y0171437D01*
X0210761Y0170030D01*
X0210000Y0168193D01*
X0210000Y0160204D01*
X0210761Y0158366D01*
X0212168Y0156959D01*
X0212798Y0156698D01*
X0212168Y0156437D01*
X0210761Y0155030D01*
X0210000Y0153193D01*
X0210000Y0145204D01*
X0210000Y0153193D01*
X0209239Y0155030D01*
X0207832Y0156437D01*
X0207202Y0156698D01*
X0207832Y0156959D01*
X0209239Y0158366D01*
X0210000Y0160204D01*
X0210000Y0168193D01*
X0209239Y0170030D01*
X0207832Y0171437D01*
X0205995Y0172198D01*
X0204005Y0172198D01*
X0202168Y0171437D01*
X0200761Y0170030D01*
X0200000Y0168193D01*
X0200000Y0160204D01*
X0200761Y0158366D01*
X0202168Y0156959D01*
X0202798Y0156698D01*
X0202168Y0156437D01*
X0200761Y0155030D01*
X0200000Y0153193D01*
X0200000Y0145204D01*
X0200000Y0153193D01*
X0199239Y0155030D01*
X0197832Y0156437D01*
X0197202Y0156698D01*
X0197832Y0156959D01*
X0199239Y0158366D01*
X0200000Y0160204D01*
X0200000Y0168193D01*
X0199239Y0170030D01*
X0197832Y0171437D01*
X0195995Y0172198D01*
X0194005Y0172198D01*
X0192168Y0171437D01*
X0190761Y0170030D01*
X0190000Y0168193D01*
X0190000Y0160204D01*
X0190761Y0158366D01*
X0192168Y0156959D01*
X0192798Y0156698D01*
X0192168Y0156437D01*
X0190761Y0155030D01*
X0190000Y0153193D01*
X0190000Y0145204D01*
X0190000Y0153193D01*
X0189239Y0155030D01*
X0187832Y0156437D01*
X0187202Y0156698D01*
X0187832Y0156959D01*
X0189239Y0158366D01*
X0190000Y0160204D01*
X0190000Y0168193D01*
X0189239Y0170030D01*
X0187832Y0171437D01*
X0185995Y0172198D01*
X0184005Y0172198D01*
X0182168Y0171437D01*
X0180761Y0170030D01*
X0180000Y0168193D01*
X0180000Y0160204D01*
X0180761Y0158366D01*
X0182168Y0156959D01*
X0182798Y0156698D01*
X0182168Y0156437D01*
X0180761Y0155030D01*
X0180000Y0153193D01*
X0180000Y0145204D01*
X0180000Y0153193D01*
X0179239Y0155030D01*
X0177832Y0156437D01*
X0177202Y0156698D01*
X0177832Y0156959D01*
X0179239Y0158366D01*
X0180000Y0160204D01*
X0180000Y0168193D01*
X0179239Y0170030D01*
X0177832Y0171437D01*
X0175995Y0172198D01*
X0174005Y0172198D01*
X0172168Y0171437D01*
X0170761Y0170030D01*
X0170000Y0168193D01*
X0170000Y0160204D01*
X0170761Y0158366D01*
X0172168Y0156959D01*
X0172798Y0156698D01*
X0172168Y0156437D01*
X0170761Y0155030D01*
X0170000Y0153193D01*
X0170000Y0145204D01*
X0170000Y0153193D01*
X0169239Y0155030D01*
X0167832Y0156437D01*
X0167202Y0156698D01*
X0167832Y0156959D01*
X0169239Y0158366D01*
X0170000Y0160204D01*
X0170000Y0168193D01*
X0169239Y0170030D01*
X0167832Y0171437D01*
X0165995Y0172198D01*
X0164005Y0172198D01*
X0162168Y0171437D01*
X0160761Y0170030D01*
X0160000Y0168193D01*
X0160000Y0160204D01*
X0160761Y0158366D01*
X0162168Y0156959D01*
X0162798Y0156698D01*
X0162168Y0156437D01*
X0160761Y0155030D01*
X0160000Y0153193D01*
X0160000Y0145204D01*
X0160000Y0153193D01*
X0159239Y0155030D01*
X0157832Y0156437D01*
X0157202Y0156698D01*
X0157832Y0156959D01*
X0159239Y0158366D01*
X0160000Y0160204D01*
X0160000Y0168193D01*
X0159239Y0170030D01*
X0157832Y0171437D01*
X0155995Y0172198D01*
X0154005Y0172198D01*
X0156372Y0172042D02*
X0163628Y0172042D01*
X0166372Y0172042D02*
X0173628Y0172042D01*
X0176372Y0172042D02*
X0183628Y0172042D01*
X0186372Y0172042D02*
X0193628Y0172042D01*
X0196372Y0172042D02*
X0203628Y0172042D01*
X0206372Y0172042D02*
X0213628Y0172042D01*
X0216372Y0172042D02*
X0223628Y0172042D01*
X0226372Y0172042D02*
X0233628Y0172042D01*
X0236372Y0172042D02*
X0243628Y0172042D01*
X0246372Y0172042D02*
X0253628Y0172042D01*
X0256372Y0172042D02*
X0263628Y0172042D01*
X0266372Y0172042D02*
X0273628Y0172042D01*
X0276372Y0172042D02*
X0283628Y0172042D01*
X0286372Y0172042D02*
X0293628Y0172042D01*
X0296372Y0172042D02*
X0303628Y0172042D01*
X0306372Y0172042D02*
X0313628Y0172042D01*
X0316372Y0172042D02*
X0323628Y0172042D01*
X0326372Y0172042D02*
X0333628Y0172042D01*
X0336372Y0172042D02*
X0369300Y0172042D01*
X0370694Y0170443D02*
X0338826Y0170443D01*
X0339730Y0168845D02*
X0371586Y0168845D01*
X0369987Y0167246D02*
X0340000Y0167246D01*
X0340000Y0165648D02*
X0369300Y0165648D01*
X0369300Y0164049D02*
X0340000Y0164049D01*
X0340000Y0162451D02*
X0369300Y0162451D01*
X0370285Y0160852D02*
X0340000Y0160852D01*
X0339607Y0159254D02*
X0371883Y0159254D01*
X0370396Y0157655D02*
X0338528Y0157655D01*
X0338212Y0156057D02*
X0369300Y0156057D01*
X0369300Y0154458D02*
X0339476Y0154458D01*
X0340000Y0152860D02*
X0369300Y0152860D01*
X0369876Y0151261D02*
X0340000Y0151261D01*
X0340000Y0149663D02*
X0371474Y0149663D01*
X0370805Y0148064D02*
X0340000Y0148064D01*
X0340000Y0146466D02*
X0369300Y0146466D01*
X0369300Y0144867D02*
X0339861Y0144867D01*
X0339142Y0143269D02*
X0369300Y0143269D01*
X0369467Y0141670D02*
X0337134Y0141670D01*
X0332866Y0141670D02*
X0327134Y0141670D01*
X0329142Y0143269D02*
X0330858Y0143269D01*
X0330139Y0144867D02*
X0329861Y0144867D01*
X0330000Y0146466D02*
X0330000Y0146466D01*
X0330000Y0148064D02*
X0330000Y0148064D01*
X0330000Y0149663D02*
X0330000Y0149663D01*
X0330000Y0151261D02*
X0330000Y0151261D01*
X0330000Y0152860D02*
X0330000Y0152860D01*
X0329476Y0154458D02*
X0330524Y0154458D01*
X0331788Y0156057D02*
X0328212Y0156057D01*
X0328528Y0157655D02*
X0331472Y0157655D01*
X0330393Y0159254D02*
X0329607Y0159254D01*
X0330000Y0160852D02*
X0330000Y0160852D01*
X0330000Y0162451D02*
X0330000Y0162451D01*
X0330000Y0164049D02*
X0330000Y0164049D01*
X0330000Y0165648D02*
X0330000Y0165648D01*
X0330000Y0167246D02*
X0330000Y0167246D01*
X0329730Y0168845D02*
X0330270Y0168845D01*
X0331174Y0170443D02*
X0328826Y0170443D01*
X0321174Y0170443D02*
X0318826Y0170443D01*
X0319730Y0168845D02*
X0320270Y0168845D01*
X0320000Y0167246D02*
X0320000Y0167246D01*
X0320000Y0165648D02*
X0320000Y0165648D01*
X0320000Y0164049D02*
X0320000Y0164049D01*
X0320000Y0162451D02*
X0320000Y0162451D01*
X0320000Y0160852D02*
X0320000Y0160852D01*
X0319607Y0159254D02*
X0320393Y0159254D01*
X0321472Y0157655D02*
X0318528Y0157655D01*
X0318212Y0156057D02*
X0321788Y0156057D01*
X0320524Y0154458D02*
X0319476Y0154458D01*
X0320000Y0152860D02*
X0320000Y0152860D01*
X0320000Y0151261D02*
X0320000Y0151261D01*
X0320000Y0149663D02*
X0320000Y0149663D01*
X0320000Y0148064D02*
X0320000Y0148064D01*
X0320000Y0146466D02*
X0320000Y0146466D01*
X0319861Y0144867D02*
X0320139Y0144867D01*
X0320858Y0143269D02*
X0319142Y0143269D01*
X0317134Y0141670D02*
X0322866Y0141670D01*
X0312866Y0141670D02*
X0307134Y0141670D01*
X0309142Y0143269D02*
X0310858Y0143269D01*
X0310139Y0144867D02*
X0309861Y0144867D01*
X0310000Y0146466D02*
X0310000Y0146466D01*
X0310000Y0148064D02*
X0310000Y0148064D01*
X0310000Y0149663D02*
X0310000Y0149663D01*
X0310000Y0151261D02*
X0310000Y0151261D01*
X0310000Y0152860D02*
X0310000Y0152860D01*
X0309476Y0154458D02*
X0310524Y0154458D01*
X0311788Y0156057D02*
X0308212Y0156057D01*
X0308528Y0157655D02*
X0311472Y0157655D01*
X0310393Y0159254D02*
X0309607Y0159254D01*
X0310000Y0160852D02*
X0310000Y0160852D01*
X0310000Y0162451D02*
X0310000Y0162451D01*
X0310000Y0164049D02*
X0310000Y0164049D01*
X0310000Y0165648D02*
X0310000Y0165648D01*
X0310000Y0167246D02*
X0310000Y0167246D01*
X0309730Y0168845D02*
X0310270Y0168845D01*
X0311174Y0170443D02*
X0308826Y0170443D01*
X0301174Y0170443D02*
X0298826Y0170443D01*
X0299730Y0168845D02*
X0300270Y0168845D01*
X0300000Y0167246D02*
X0300000Y0167246D01*
X0300000Y0165648D02*
X0300000Y0165648D01*
X0300000Y0164049D02*
X0300000Y0164049D01*
X0300000Y0162451D02*
X0300000Y0162451D01*
X0300000Y0160852D02*
X0300000Y0160852D01*
X0299607Y0159254D02*
X0300393Y0159254D01*
X0301472Y0157655D02*
X0298528Y0157655D01*
X0298212Y0156057D02*
X0301788Y0156057D01*
X0300524Y0154458D02*
X0299476Y0154458D01*
X0300000Y0152860D02*
X0300000Y0152860D01*
X0300000Y0151261D02*
X0300000Y0151261D01*
X0300000Y0149663D02*
X0300000Y0149663D01*
X0300000Y0148064D02*
X0300000Y0148064D01*
X0300000Y0146466D02*
X0300000Y0146466D01*
X0299861Y0144867D02*
X0300139Y0144867D01*
X0300858Y0143269D02*
X0299142Y0143269D01*
X0297134Y0141670D02*
X0302866Y0141670D01*
X0292866Y0141670D02*
X0287134Y0141670D01*
X0289142Y0143269D02*
X0290858Y0143269D01*
X0290139Y0144867D02*
X0289861Y0144867D01*
X0290000Y0146466D02*
X0290000Y0146466D01*
X0290000Y0148064D02*
X0290000Y0148064D01*
X0290000Y0149663D02*
X0290000Y0149663D01*
X0290000Y0151261D02*
X0290000Y0151261D01*
X0290000Y0152860D02*
X0290000Y0152860D01*
X0289476Y0154458D02*
X0290524Y0154458D01*
X0291788Y0156057D02*
X0288212Y0156057D01*
X0288528Y0157655D02*
X0291472Y0157655D01*
X0290393Y0159254D02*
X0289607Y0159254D01*
X0290000Y0160852D02*
X0290000Y0160852D01*
X0290000Y0162451D02*
X0290000Y0162451D01*
X0290000Y0164049D02*
X0290000Y0164049D01*
X0290000Y0165648D02*
X0290000Y0165648D01*
X0290000Y0167246D02*
X0290000Y0167246D01*
X0289730Y0168845D02*
X0290270Y0168845D01*
X0291174Y0170443D02*
X0288826Y0170443D01*
X0281174Y0170443D02*
X0278826Y0170443D01*
X0279730Y0168845D02*
X0280270Y0168845D01*
X0280000Y0167246D02*
X0280000Y0167246D01*
X0280000Y0165648D02*
X0280000Y0165648D01*
X0280000Y0164049D02*
X0280000Y0164049D01*
X0280000Y0162451D02*
X0280000Y0162451D01*
X0280000Y0160852D02*
X0280000Y0160852D01*
X0279607Y0159254D02*
X0280393Y0159254D01*
X0281472Y0157655D02*
X0278528Y0157655D01*
X0278212Y0156057D02*
X0281788Y0156057D01*
X0280524Y0154458D02*
X0279476Y0154458D01*
X0280000Y0152860D02*
X0280000Y0152860D01*
X0280000Y0151261D02*
X0280000Y0151261D01*
X0280000Y0149663D02*
X0280000Y0149663D01*
X0280000Y0148064D02*
X0280000Y0148064D01*
X0280000Y0146466D02*
X0280000Y0146466D01*
X0279861Y0144867D02*
X0280139Y0144867D01*
X0280858Y0143269D02*
X0279142Y0143269D01*
X0277134Y0141670D02*
X0282866Y0141670D01*
X0272866Y0141670D02*
X0267134Y0141670D01*
X0269142Y0143269D02*
X0270858Y0143269D01*
X0270139Y0144867D02*
X0269861Y0144867D01*
X0270000Y0146466D02*
X0270000Y0146466D01*
X0270000Y0148064D02*
X0270000Y0148064D01*
X0270000Y0149663D02*
X0270000Y0149663D01*
X0270000Y0151261D02*
X0270000Y0151261D01*
X0270000Y0152860D02*
X0270000Y0152860D01*
X0269476Y0154458D02*
X0270524Y0154458D01*
X0271788Y0156057D02*
X0268212Y0156057D01*
X0268528Y0157655D02*
X0271472Y0157655D01*
X0270393Y0159254D02*
X0269607Y0159254D01*
X0270000Y0160852D02*
X0270000Y0160852D01*
X0270000Y0162451D02*
X0270000Y0162451D01*
X0270000Y0164049D02*
X0270000Y0164049D01*
X0270000Y0165648D02*
X0270000Y0165648D01*
X0270000Y0167246D02*
X0270000Y0167246D01*
X0269730Y0168845D02*
X0270270Y0168845D01*
X0271174Y0170443D02*
X0268826Y0170443D01*
X0261174Y0170443D02*
X0258826Y0170443D01*
X0259730Y0168845D02*
X0260270Y0168845D01*
X0260000Y0167246D02*
X0260000Y0167246D01*
X0260000Y0165648D02*
X0260000Y0165648D01*
X0260000Y0164049D02*
X0260000Y0164049D01*
X0260000Y0162451D02*
X0260000Y0162451D01*
X0260000Y0160852D02*
X0260000Y0160852D01*
X0259607Y0159254D02*
X0260393Y0159254D01*
X0261472Y0157655D02*
X0258528Y0157655D01*
X0258212Y0156057D02*
X0261788Y0156057D01*
X0260524Y0154458D02*
X0259476Y0154458D01*
X0260000Y0152860D02*
X0260000Y0152860D01*
X0260000Y0151261D02*
X0260000Y0151261D01*
X0260000Y0149663D02*
X0260000Y0149663D01*
X0260000Y0148064D02*
X0260000Y0148064D01*
X0260000Y0146466D02*
X0260000Y0146466D01*
X0259861Y0144867D02*
X0260139Y0144867D01*
X0260858Y0143269D02*
X0259142Y0143269D01*
X0257134Y0141670D02*
X0262866Y0141670D01*
X0252866Y0141670D02*
X0247134Y0141670D01*
X0249142Y0143269D02*
X0250858Y0143269D01*
X0250139Y0144867D02*
X0249861Y0144867D01*
X0250000Y0146466D02*
X0250000Y0146466D01*
X0250000Y0148064D02*
X0250000Y0148064D01*
X0250000Y0149663D02*
X0250000Y0149663D01*
X0250000Y0151261D02*
X0250000Y0151261D01*
X0250000Y0152860D02*
X0250000Y0152860D01*
X0249476Y0154458D02*
X0250524Y0154458D01*
X0251788Y0156057D02*
X0248212Y0156057D01*
X0248528Y0157655D02*
X0251472Y0157655D01*
X0250393Y0159254D02*
X0249607Y0159254D01*
X0250000Y0160852D02*
X0250000Y0160852D01*
X0250000Y0162451D02*
X0250000Y0162451D01*
X0250000Y0164049D02*
X0250000Y0164049D01*
X0250000Y0165648D02*
X0250000Y0165648D01*
X0250000Y0167246D02*
X0250000Y0167246D01*
X0249730Y0168845D02*
X0250270Y0168845D01*
X0251174Y0170443D02*
X0248826Y0170443D01*
X0241174Y0170443D02*
X0238826Y0170443D01*
X0239730Y0168845D02*
X0240270Y0168845D01*
X0240000Y0167246D02*
X0240000Y0167246D01*
X0240000Y0165648D02*
X0240000Y0165648D01*
X0240000Y0164049D02*
X0240000Y0164049D01*
X0240000Y0162451D02*
X0240000Y0162451D01*
X0240000Y0160852D02*
X0240000Y0160852D01*
X0239607Y0159254D02*
X0240393Y0159254D01*
X0241472Y0157655D02*
X0238528Y0157655D01*
X0238212Y0156057D02*
X0241788Y0156057D01*
X0240524Y0154458D02*
X0239476Y0154458D01*
X0240000Y0152860D02*
X0240000Y0152860D01*
X0240000Y0151261D02*
X0240000Y0151261D01*
X0240000Y0149663D02*
X0240000Y0149663D01*
X0240000Y0148064D02*
X0240000Y0148064D01*
X0240000Y0146466D02*
X0240000Y0146466D01*
X0239861Y0144867D02*
X0240139Y0144867D01*
X0240858Y0143269D02*
X0239142Y0143269D01*
X0237134Y0141670D02*
X0242866Y0141670D01*
X0232866Y0141670D02*
X0227134Y0141670D01*
X0229142Y0143269D02*
X0230858Y0143269D01*
X0230139Y0144867D02*
X0229861Y0144867D01*
X0230000Y0146466D02*
X0230000Y0146466D01*
X0230000Y0148064D02*
X0230000Y0148064D01*
X0230000Y0149663D02*
X0230000Y0149663D01*
X0230000Y0151261D02*
X0230000Y0151261D01*
X0230000Y0152860D02*
X0230000Y0152860D01*
X0229476Y0154458D02*
X0230524Y0154458D01*
X0231788Y0156057D02*
X0228212Y0156057D01*
X0228528Y0157655D02*
X0231472Y0157655D01*
X0230393Y0159254D02*
X0229607Y0159254D01*
X0230000Y0160852D02*
X0230000Y0160852D01*
X0230000Y0162451D02*
X0230000Y0162451D01*
X0230000Y0164049D02*
X0230000Y0164049D01*
X0230000Y0165648D02*
X0230000Y0165648D01*
X0230000Y0167246D02*
X0230000Y0167246D01*
X0229730Y0168845D02*
X0230270Y0168845D01*
X0231174Y0170443D02*
X0228826Y0170443D01*
X0221174Y0170443D02*
X0218826Y0170443D01*
X0219730Y0168845D02*
X0220270Y0168845D01*
X0220000Y0167246D02*
X0220000Y0167246D01*
X0220000Y0165648D02*
X0220000Y0165648D01*
X0220000Y0164049D02*
X0220000Y0164049D01*
X0220000Y0162451D02*
X0220000Y0162451D01*
X0220000Y0160852D02*
X0220000Y0160852D01*
X0219607Y0159254D02*
X0220393Y0159254D01*
X0221472Y0157655D02*
X0218528Y0157655D01*
X0218212Y0156057D02*
X0221788Y0156057D01*
X0220524Y0154458D02*
X0219476Y0154458D01*
X0220000Y0152860D02*
X0220000Y0152860D01*
X0220000Y0151261D02*
X0220000Y0151261D01*
X0220000Y0149663D02*
X0220000Y0149663D01*
X0220000Y0148064D02*
X0220000Y0148064D01*
X0220000Y0146466D02*
X0220000Y0146466D01*
X0219861Y0144867D02*
X0220139Y0144867D01*
X0220858Y0143269D02*
X0219142Y0143269D01*
X0217134Y0141670D02*
X0222866Y0141670D01*
X0212866Y0141670D02*
X0207134Y0141670D01*
X0209142Y0143269D02*
X0210858Y0143269D01*
X0210139Y0144867D02*
X0209861Y0144867D01*
X0210000Y0146466D02*
X0210000Y0146466D01*
X0210000Y0148064D02*
X0210000Y0148064D01*
X0210000Y0149663D02*
X0210000Y0149663D01*
X0210000Y0151261D02*
X0210000Y0151261D01*
X0210000Y0152860D02*
X0210000Y0152860D01*
X0209476Y0154458D02*
X0210524Y0154458D01*
X0211788Y0156057D02*
X0208212Y0156057D01*
X0208528Y0157655D02*
X0211472Y0157655D01*
X0210393Y0159254D02*
X0209607Y0159254D01*
X0210000Y0160852D02*
X0210000Y0160852D01*
X0210000Y0162451D02*
X0210000Y0162451D01*
X0210000Y0164049D02*
X0210000Y0164049D01*
X0210000Y0165648D02*
X0210000Y0165648D01*
X0210000Y0167246D02*
X0210000Y0167246D01*
X0209730Y0168845D02*
X0210270Y0168845D01*
X0211174Y0170443D02*
X0208826Y0170443D01*
X0201174Y0170443D02*
X0198826Y0170443D01*
X0199730Y0168845D02*
X0200270Y0168845D01*
X0200000Y0167246D02*
X0200000Y0167246D01*
X0200000Y0165648D02*
X0200000Y0165648D01*
X0200000Y0164049D02*
X0200000Y0164049D01*
X0200000Y0162451D02*
X0200000Y0162451D01*
X0200000Y0160852D02*
X0200000Y0160852D01*
X0199607Y0159254D02*
X0200393Y0159254D01*
X0201472Y0157655D02*
X0198528Y0157655D01*
X0198212Y0156057D02*
X0201788Y0156057D01*
X0200524Y0154458D02*
X0199476Y0154458D01*
X0200000Y0152860D02*
X0200000Y0152860D01*
X0200000Y0151261D02*
X0200000Y0151261D01*
X0200000Y0149663D02*
X0200000Y0149663D01*
X0200000Y0148064D02*
X0200000Y0148064D01*
X0200000Y0146466D02*
X0200000Y0146466D01*
X0199861Y0144867D02*
X0200139Y0144867D01*
X0200858Y0143269D02*
X0199142Y0143269D01*
X0197134Y0141670D02*
X0202866Y0141670D01*
X0192866Y0141670D02*
X0187134Y0141670D01*
X0189142Y0143269D02*
X0190858Y0143269D01*
X0190139Y0144867D02*
X0189861Y0144867D01*
X0190000Y0146466D02*
X0190000Y0146466D01*
X0190000Y0148064D02*
X0190000Y0148064D01*
X0190000Y0149663D02*
X0190000Y0149663D01*
X0190000Y0151261D02*
X0190000Y0151261D01*
X0190000Y0152860D02*
X0190000Y0152860D01*
X0189476Y0154458D02*
X0190524Y0154458D01*
X0191788Y0156057D02*
X0188212Y0156057D01*
X0188528Y0157655D02*
X0191472Y0157655D01*
X0190393Y0159254D02*
X0189607Y0159254D01*
X0190000Y0160852D02*
X0190000Y0160852D01*
X0190000Y0162451D02*
X0190000Y0162451D01*
X0190000Y0164049D02*
X0190000Y0164049D01*
X0190000Y0165648D02*
X0190000Y0165648D01*
X0190000Y0167246D02*
X0190000Y0167246D01*
X0189730Y0168845D02*
X0190270Y0168845D01*
X0191174Y0170443D02*
X0188826Y0170443D01*
X0181174Y0170443D02*
X0178826Y0170443D01*
X0179730Y0168845D02*
X0180270Y0168845D01*
X0180000Y0167246D02*
X0180000Y0167246D01*
X0180000Y0165648D02*
X0180000Y0165648D01*
X0180000Y0164049D02*
X0180000Y0164049D01*
X0180000Y0162451D02*
X0180000Y0162451D01*
X0180000Y0160852D02*
X0180000Y0160852D01*
X0179607Y0159254D02*
X0180393Y0159254D01*
X0181472Y0157655D02*
X0178528Y0157655D01*
X0178212Y0156057D02*
X0181788Y0156057D01*
X0180524Y0154458D02*
X0179476Y0154458D01*
X0180000Y0152860D02*
X0180000Y0152860D01*
X0180000Y0151261D02*
X0180000Y0151261D01*
X0180000Y0149663D02*
X0180000Y0149663D01*
X0180000Y0148064D02*
X0180000Y0148064D01*
X0180000Y0146466D02*
X0180000Y0146466D01*
X0179861Y0144867D02*
X0180139Y0144867D01*
X0180858Y0143269D02*
X0179142Y0143269D01*
X0177134Y0141670D02*
X0182866Y0141670D01*
X0172866Y0141670D02*
X0167134Y0141670D01*
X0169142Y0143269D02*
X0170858Y0143269D01*
X0170139Y0144867D02*
X0169861Y0144867D01*
X0170000Y0146466D02*
X0170000Y0146466D01*
X0170000Y0148064D02*
X0170000Y0148064D01*
X0170000Y0149663D02*
X0170000Y0149663D01*
X0170000Y0151261D02*
X0170000Y0151261D01*
X0170000Y0152860D02*
X0170000Y0152860D01*
X0169476Y0154458D02*
X0170524Y0154458D01*
X0171788Y0156057D02*
X0168212Y0156057D01*
X0168528Y0157655D02*
X0171472Y0157655D01*
X0170393Y0159254D02*
X0169607Y0159254D01*
X0170000Y0160852D02*
X0170000Y0160852D01*
X0170000Y0162451D02*
X0170000Y0162451D01*
X0170000Y0164049D02*
X0170000Y0164049D01*
X0170000Y0165648D02*
X0170000Y0165648D01*
X0170000Y0167246D02*
X0170000Y0167246D01*
X0169730Y0168845D02*
X0170270Y0168845D01*
X0171174Y0170443D02*
X0168826Y0170443D01*
X0161174Y0170443D02*
X0158826Y0170443D01*
X0159730Y0168845D02*
X0160270Y0168845D01*
X0160000Y0167246D02*
X0160000Y0167246D01*
X0160000Y0165648D02*
X0160000Y0165648D01*
X0160000Y0164049D02*
X0160000Y0164049D01*
X0160000Y0162451D02*
X0160000Y0162451D01*
X0160000Y0160852D02*
X0160000Y0160852D01*
X0159607Y0159254D02*
X0160393Y0159254D01*
X0161472Y0157655D02*
X0158528Y0157655D01*
X0158212Y0156057D02*
X0161788Y0156057D01*
X0160524Y0154458D02*
X0159476Y0154458D01*
X0160000Y0152860D02*
X0160000Y0152860D01*
X0160000Y0151261D02*
X0160000Y0151261D01*
X0160000Y0149663D02*
X0160000Y0149663D01*
X0160000Y0148064D02*
X0160000Y0148064D01*
X0160000Y0146466D02*
X0160000Y0146466D01*
X0159861Y0144867D02*
X0160139Y0144867D01*
X0160858Y0143269D02*
X0159142Y0143269D01*
X0157134Y0141670D02*
X0162866Y0141670D01*
X0152866Y0141670D02*
X0147134Y0141670D01*
X0147832Y0141959D02*
X0149239Y0143366D01*
X0150000Y0145204D01*
X0150000Y0153193D01*
X0149239Y0155030D01*
X0147832Y0156437D01*
X0146948Y0156803D01*
X0147516Y0157093D01*
X0148127Y0157537D01*
X0148661Y0158071D01*
X0149105Y0158682D01*
X0149448Y0159356D01*
X0149682Y0160074D01*
X0149800Y0160820D01*
X0149800Y0163998D01*
X0145200Y0163998D01*
X0145200Y0164398D01*
X0149800Y0164398D01*
X0149800Y0167576D01*
X0149682Y0168322D01*
X0149448Y0169041D01*
X0149105Y0169714D01*
X0148661Y0170325D01*
X0148127Y0170859D01*
X0147516Y0171304D01*
X0146843Y0171647D01*
X0146124Y0171880D01*
X0145378Y0171998D01*
X0145200Y0171998D01*
X0145200Y0164398D01*
X0144800Y0164398D01*
X0144800Y0163998D01*
X0140200Y0163998D01*
X0140200Y0160820D01*
X0140318Y0160074D01*
X0140552Y0159356D01*
X0140895Y0158682D01*
X0141339Y0158071D01*
X0141873Y0157537D01*
X0142484Y0157093D01*
X0143052Y0156803D01*
X0142168Y0156437D01*
X0140761Y0155030D01*
X0140000Y0153193D01*
X0140000Y0145204D01*
X0140761Y0143366D01*
X0142168Y0141959D01*
X0144005Y0141198D01*
X0145995Y0141198D01*
X0147832Y0141959D01*
X0149142Y0143269D02*
X0150858Y0143269D01*
X0150139Y0144867D02*
X0149861Y0144867D01*
X0150000Y0146466D02*
X0150000Y0146466D01*
X0150000Y0148064D02*
X0150000Y0148064D01*
X0150000Y0149663D02*
X0150000Y0149663D01*
X0150000Y0151261D02*
X0150000Y0151261D01*
X0150000Y0152860D02*
X0150000Y0152860D01*
X0149476Y0154458D02*
X0150524Y0154458D01*
X0151788Y0156057D02*
X0148212Y0156057D01*
X0148245Y0157655D02*
X0151472Y0157655D01*
X0150393Y0159254D02*
X0149396Y0159254D01*
X0149800Y0160852D02*
X0150000Y0160852D01*
X0150000Y0162451D02*
X0149800Y0162451D01*
X0150000Y0164049D02*
X0145200Y0164049D01*
X0144800Y0164049D02*
X0121668Y0164049D01*
X0121668Y0165648D02*
X0140200Y0165648D01*
X0140200Y0164398D02*
X0144800Y0164398D01*
X0144800Y0171998D01*
X0144622Y0171998D01*
X0143876Y0171880D01*
X0143157Y0171647D01*
X0142484Y0171304D01*
X0141873Y0170859D01*
X0141339Y0170325D01*
X0140895Y0169714D01*
X0140552Y0169041D01*
X0140318Y0168322D01*
X0140200Y0167576D01*
X0140200Y0164398D01*
X0140200Y0162451D02*
X0121054Y0162451D01*
X0121668Y0167246D02*
X0140200Y0167246D01*
X0140488Y0168845D02*
X0122099Y0168845D01*
X0123300Y0170443D02*
X0141457Y0170443D01*
X0144800Y0170443D02*
X0145200Y0170443D01*
X0145200Y0168845D02*
X0144800Y0168845D01*
X0144800Y0167246D02*
X0145200Y0167246D01*
X0145200Y0165648D02*
X0144800Y0165648D01*
X0149800Y0165648D02*
X0150000Y0165648D01*
X0150000Y0167246D02*
X0149800Y0167246D01*
X0149512Y0168845D02*
X0150270Y0168845D01*
X0151174Y0170443D02*
X0148543Y0170443D01*
X0140200Y0160852D02*
X0113883Y0160852D01*
X0115502Y0159254D02*
X0140604Y0159254D01*
X0141755Y0157655D02*
X0117121Y0157655D01*
X0118741Y0156057D02*
X0141788Y0156057D01*
X0140524Y0154458D02*
X0120360Y0154458D01*
X0121979Y0152860D02*
X0140000Y0152860D01*
X0140000Y0151261D02*
X0123599Y0151261D01*
X0125218Y0149663D02*
X0140000Y0149663D01*
X0140000Y0148064D02*
X0126837Y0148064D01*
X0128457Y0146466D02*
X0140000Y0146466D01*
X0140139Y0144867D02*
X0130076Y0144867D01*
X0131695Y0143269D02*
X0140858Y0143269D01*
X0142866Y0141670D02*
X0133315Y0141670D01*
X0134934Y0140072D02*
X0371066Y0140072D01*
X0371214Y0138473D02*
X0136553Y0138473D01*
X0138172Y0136875D02*
X0369615Y0136875D01*
X0369300Y0135276D02*
X0140769Y0135276D01*
X0143077Y0133678D02*
X0369300Y0133678D01*
X0369300Y0132079D02*
X0143600Y0132079D01*
X0143392Y0130481D02*
X0163070Y0130481D01*
X0160777Y0128882D02*
X0142275Y0128882D01*
X0141559Y0127284D02*
X0159857Y0127284D01*
X0159500Y0125685D02*
X0143157Y0125685D01*
X0144756Y0124087D02*
X0159561Y0124087D01*
X0166930Y0130481D02*
X0173070Y0130481D01*
X0170777Y0128882D02*
X0169223Y0128882D01*
X0176930Y0130481D02*
X0183070Y0130481D01*
X0180777Y0128882D02*
X0179223Y0128882D01*
X0186930Y0130481D02*
X0193070Y0130481D01*
X0190777Y0128882D02*
X0189223Y0128882D01*
X0196930Y0130481D02*
X0203070Y0130481D01*
X0200777Y0128882D02*
X0199223Y0128882D01*
X0206930Y0130481D02*
X0213070Y0130481D01*
X0210777Y0128882D02*
X0209223Y0128882D01*
X0216930Y0130481D02*
X0223070Y0130481D01*
X0220777Y0128882D02*
X0219223Y0128882D01*
X0226930Y0130481D02*
X0233070Y0130481D01*
X0230777Y0128882D02*
X0229223Y0128882D01*
X0236930Y0130481D02*
X0243070Y0130481D01*
X0240777Y0128882D02*
X0239223Y0128882D01*
X0246930Y0130481D02*
X0253070Y0130481D01*
X0250777Y0128882D02*
X0249223Y0128882D01*
X0256930Y0130481D02*
X0263070Y0130481D01*
X0260777Y0128882D02*
X0259223Y0128882D01*
X0266930Y0130481D02*
X0273070Y0130481D01*
X0270777Y0128882D02*
X0269223Y0128882D01*
X0276930Y0130481D02*
X0283070Y0130481D01*
X0280777Y0128882D02*
X0279223Y0128882D01*
X0286930Y0130481D02*
X0293070Y0130481D01*
X0290777Y0128882D02*
X0289223Y0128882D01*
X0296930Y0130481D02*
X0303070Y0130481D01*
X0300777Y0128882D02*
X0299223Y0128882D01*
X0306930Y0130481D02*
X0313070Y0130481D01*
X0310777Y0128882D02*
X0309223Y0128882D01*
X0316930Y0130481D02*
X0323070Y0130481D01*
X0320777Y0128882D02*
X0319223Y0128882D01*
X0326930Y0130481D02*
X0333070Y0130481D01*
X0330777Y0128882D02*
X0329223Y0128882D01*
X0336930Y0130481D02*
X0343070Y0130481D01*
X0340777Y0128882D02*
X0339223Y0128882D01*
X0346930Y0130481D02*
X0353070Y0130481D01*
X0350777Y0128882D02*
X0349223Y0128882D01*
X0356930Y0130481D02*
X0370657Y0130481D01*
X0371623Y0128882D02*
X0359223Y0128882D01*
X0360143Y0127284D02*
X0370024Y0127284D01*
X0369300Y0125685D02*
X0360500Y0125685D01*
X0360439Y0124087D02*
X0369300Y0124087D01*
X0369300Y0122488D02*
X0362597Y0122488D01*
X0364203Y0120890D02*
X0370248Y0120890D01*
X0371846Y0119291D02*
X0365801Y0119291D01*
X0367400Y0117693D02*
X0370433Y0117693D01*
X0369300Y0116094D02*
X0368998Y0116094D01*
X0390700Y0125685D02*
X0392234Y0125685D01*
X0391338Y0127284D02*
X0393833Y0127284D01*
X0392937Y0128882D02*
X0395431Y0128882D01*
X0394535Y0130481D02*
X0425911Y0130481D01*
X0426245Y0131286D02*
X0424981Y0128236D01*
X0424981Y0124934D01*
X0426245Y0121884D01*
X0428579Y0119549D01*
X0431630Y0118286D01*
X0434931Y0118286D01*
X0437982Y0119549D01*
X0440316Y0121884D01*
X0441580Y0124934D01*
X0441580Y0128236D01*
X0440316Y0131286D01*
X0437982Y0133621D01*
X0435766Y0134538D01*
X0437965Y0135449D01*
X0440300Y0137784D01*
X0441563Y0140834D01*
X0441563Y0144136D01*
X0440300Y0147186D01*
X0437965Y0149521D01*
X0434915Y0150784D01*
X0431613Y0150784D01*
X0428563Y0149521D01*
X0426228Y0147186D01*
X0424965Y0144136D01*
X0424965Y0140834D01*
X0426228Y0137784D01*
X0428563Y0135449D01*
X0430778Y0134532D01*
X0428579Y0133621D01*
X0426245Y0131286D01*
X0427038Y0132079D02*
X0396134Y0132079D01*
X0397732Y0133678D02*
X0428717Y0133678D01*
X0428981Y0135276D02*
X0399331Y0135276D01*
X0400929Y0136875D02*
X0427137Y0136875D01*
X0425943Y0138473D02*
X0402528Y0138473D01*
X0404126Y0140072D02*
X0425281Y0140072D01*
X0424965Y0141670D02*
X0405725Y0141670D01*
X0413964Y0143269D02*
X0424965Y0143269D01*
X0425268Y0144867D02*
X0413964Y0144867D01*
X0413964Y0146466D02*
X0425930Y0146466D01*
X0427106Y0148064D02*
X0413964Y0148064D01*
X0413964Y0149663D02*
X0428905Y0149663D01*
X0437622Y0149663D02*
X0447980Y0149663D01*
X0447968Y0151261D02*
X0413964Y0151261D01*
X0413118Y0152860D02*
X0447956Y0152860D01*
X0447943Y0154458D02*
X0413180Y0154458D01*
X0413842Y0156057D02*
X0447931Y0156057D01*
X0447919Y0157655D02*
X0413964Y0157655D01*
X0413701Y0159254D02*
X0447906Y0159254D01*
X0447894Y0160852D02*
X0412958Y0160852D01*
X0411170Y0162451D02*
X0447882Y0162451D01*
X0447869Y0164049D02*
X0412889Y0164049D01*
X0413673Y0165648D02*
X0447857Y0165648D01*
X0447845Y0167246D02*
X0413964Y0167246D01*
X0413870Y0168845D02*
X0447832Y0168845D01*
X0447820Y0170443D02*
X0413208Y0170443D01*
X0411768Y0172042D02*
X0447808Y0172042D01*
X0447795Y0173640D02*
X0412480Y0173640D01*
X0413503Y0175239D02*
X0447783Y0175239D01*
X0447771Y0176837D02*
X0413964Y0176837D01*
X0413964Y0178436D02*
X0447758Y0178436D01*
X0447746Y0180034D02*
X0436963Y0180034D01*
X0437965Y0180449D02*
X0434915Y0179186D01*
X0431613Y0179186D01*
X0428563Y0180449D01*
X0426228Y0182784D01*
X0424965Y0185834D01*
X0424965Y0189136D01*
X0426228Y0192186D01*
X0428563Y0194521D01*
X0430898Y0195488D01*
X0428499Y0196482D01*
X0426164Y0198816D01*
X0424901Y0201867D01*
X0424901Y0205168D01*
X0426164Y0208219D01*
X0428499Y0210553D01*
X0431549Y0211817D01*
X0434851Y0211817D01*
X0437901Y0210553D01*
X0440236Y0208219D01*
X0441499Y0205168D01*
X0441499Y0201867D01*
X0440236Y0198816D01*
X0437901Y0196482D01*
X0435566Y0195515D01*
X0437965Y0194521D01*
X0440300Y0192186D01*
X0441563Y0189136D01*
X0441563Y0185834D01*
X0440300Y0182784D01*
X0437965Y0180449D01*
X0439149Y0181633D02*
X0447734Y0181633D01*
X0447721Y0183231D02*
X0440485Y0183231D01*
X0441147Y0184830D02*
X0447709Y0184830D01*
X0447697Y0186428D02*
X0441563Y0186428D01*
X0441563Y0188027D02*
X0447684Y0188027D01*
X0447672Y0189626D02*
X0441360Y0189626D01*
X0440698Y0191224D02*
X0447660Y0191224D01*
X0447647Y0192823D02*
X0439663Y0192823D01*
X0438065Y0194421D02*
X0447635Y0194421D01*
X0447623Y0196020D02*
X0436785Y0196020D01*
X0439037Y0197618D02*
X0447610Y0197618D01*
X0447598Y0199217D02*
X0440401Y0199217D01*
X0441063Y0200815D02*
X0447586Y0200815D01*
X0447573Y0202414D02*
X0441499Y0202414D01*
X0441499Y0204012D02*
X0447561Y0204012D01*
X0447549Y0205611D02*
X0441316Y0205611D01*
X0440654Y0207209D02*
X0447536Y0207209D01*
X0447524Y0208808D02*
X0439647Y0208808D01*
X0438048Y0210406D02*
X0447512Y0210406D01*
X0447499Y0212005D02*
X0416700Y0212005D01*
X0416700Y0213603D02*
X0447487Y0213603D01*
X0447475Y0215202D02*
X0416700Y0215202D01*
X0416700Y0216800D02*
X0447462Y0216800D01*
X0447450Y0218399D02*
X0416700Y0218399D01*
X0416700Y0219997D02*
X0447437Y0219997D01*
X0447425Y0221596D02*
X0416700Y0221596D01*
X0416700Y0223194D02*
X0447413Y0223194D01*
X0447400Y0224793D02*
X0416700Y0224793D01*
X0416700Y0226391D02*
X0447388Y0226391D01*
X0447376Y0227990D02*
X0416700Y0227990D01*
X0416700Y0229588D02*
X0447363Y0229588D01*
X0447351Y0231187D02*
X0416700Y0231187D01*
X0416700Y0232785D02*
X0447339Y0232785D01*
X0447326Y0234384D02*
X0416700Y0234384D01*
X0416700Y0235982D02*
X0447314Y0235982D01*
X0447302Y0237581D02*
X0416700Y0237581D01*
X0416700Y0239179D02*
X0447289Y0239179D01*
X0447277Y0240778D02*
X0436202Y0240778D01*
X0434851Y0240218D02*
X0431549Y0240218D01*
X0428499Y0241482D01*
X0426164Y0243816D01*
X0424901Y0246867D01*
X0424901Y0250168D01*
X0426164Y0253219D01*
X0428499Y0255553D01*
X0430715Y0256471D01*
X0428626Y0257337D01*
X0426291Y0259671D01*
X0425028Y0262722D01*
X0425028Y0266023D01*
X0426291Y0269073D01*
X0428626Y0271408D01*
X0431676Y0272672D01*
X0434978Y0272672D01*
X0438028Y0271408D01*
X0440362Y0269073D01*
X0441626Y0266023D01*
X0441626Y0262722D01*
X0440362Y0259671D01*
X0438028Y0257337D01*
X0435812Y0256419D01*
X0437901Y0255553D01*
X0440236Y0253219D01*
X0441499Y0250168D01*
X0441499Y0246867D01*
X0440236Y0243816D01*
X0437901Y0241482D01*
X0434851Y0240218D01*
X0438796Y0242376D02*
X0447265Y0242376D01*
X0447252Y0243975D02*
X0440301Y0243975D01*
X0440963Y0245573D02*
X0447240Y0245573D01*
X0447228Y0247172D02*
X0441499Y0247172D01*
X0441499Y0248770D02*
X0447215Y0248770D01*
X0447203Y0250369D02*
X0441416Y0250369D01*
X0440754Y0251967D02*
X0447191Y0251967D01*
X0447178Y0253566D02*
X0439888Y0253566D01*
X0438290Y0255164D02*
X0447166Y0255164D01*
X0447154Y0256763D02*
X0436643Y0256763D01*
X0439053Y0258362D02*
X0447141Y0258362D01*
X0447129Y0259960D02*
X0440482Y0259960D01*
X0441144Y0261559D02*
X0447117Y0261559D01*
X0447104Y0263157D02*
X0441626Y0263157D01*
X0441626Y0264756D02*
X0447092Y0264756D01*
X0447080Y0266354D02*
X0441489Y0266354D01*
X0440827Y0267953D02*
X0447067Y0267953D01*
X0447055Y0269551D02*
X0439885Y0269551D01*
X0438286Y0271150D02*
X0447043Y0271150D01*
X0447030Y0272748D02*
X0415500Y0272748D01*
X0415500Y0271150D02*
X0428367Y0271150D01*
X0426769Y0269551D02*
X0415500Y0269551D01*
X0415500Y0267953D02*
X0425827Y0267953D01*
X0425165Y0266354D02*
X0415500Y0266354D01*
X0415500Y0264756D02*
X0425028Y0264756D01*
X0425028Y0263157D02*
X0414412Y0263157D01*
X0412813Y0261559D02*
X0425509Y0261559D01*
X0426171Y0259960D02*
X0411214Y0259960D01*
X0409616Y0258362D02*
X0427601Y0258362D01*
X0430010Y0256763D02*
X0408017Y0256763D01*
X0406419Y0255164D02*
X0428110Y0255164D01*
X0426511Y0253566D02*
X0404820Y0253566D01*
X0403222Y0251967D02*
X0425646Y0251967D01*
X0424984Y0250369D02*
X0401623Y0250369D01*
X0400413Y0248770D02*
X0424901Y0248770D01*
X0424901Y0247172D02*
X0402606Y0247172D01*
X0403518Y0245573D02*
X0403523Y0245573D01*
X0411477Y0245573D02*
X0425436Y0245573D01*
X0426098Y0243975D02*
X0413076Y0243975D01*
X0414674Y0242376D02*
X0427604Y0242376D01*
X0430198Y0240778D02*
X0416273Y0240778D01*
X0416700Y0210406D02*
X0428352Y0210406D01*
X0426753Y0208808D02*
X0416700Y0208808D01*
X0416700Y0207209D02*
X0425746Y0207209D01*
X0425084Y0205611D02*
X0416700Y0205611D01*
X0416700Y0204012D02*
X0424901Y0204012D01*
X0424901Y0202414D02*
X0416068Y0202414D01*
X0414470Y0200815D02*
X0425336Y0200815D01*
X0425998Y0199217D02*
X0411671Y0199217D01*
X0410073Y0197618D02*
X0427362Y0197618D01*
X0429615Y0196020D02*
X0408474Y0196020D01*
X0406876Y0194421D02*
X0428463Y0194421D01*
X0426865Y0192823D02*
X0405277Y0192823D01*
X0403678Y0191224D02*
X0425830Y0191224D01*
X0425168Y0189626D02*
X0402080Y0189626D01*
X0400481Y0188027D02*
X0424965Y0188027D01*
X0424965Y0186428D02*
X0402382Y0186428D01*
X0403462Y0184830D02*
X0425381Y0184830D01*
X0426043Y0183231D02*
X0403964Y0183231D01*
X0403964Y0181633D02*
X0404351Y0181633D01*
X0412177Y0181633D02*
X0427379Y0181633D01*
X0429564Y0180034D02*
X0413378Y0180034D01*
X0439422Y0148064D02*
X0447993Y0148064D01*
X0448005Y0146466D02*
X0440598Y0146466D01*
X0441260Y0144867D02*
X0448017Y0144867D01*
X0448030Y0143269D02*
X0441563Y0143269D01*
X0441563Y0141670D02*
X0448042Y0141670D01*
X0448054Y0140072D02*
X0441247Y0140072D01*
X0440585Y0138473D02*
X0448067Y0138473D01*
X0448079Y0136875D02*
X0439390Y0136875D01*
X0437547Y0135276D02*
X0448091Y0135276D01*
X0448104Y0133678D02*
X0437844Y0133678D01*
X0439523Y0132079D02*
X0448116Y0132079D01*
X0448128Y0130481D02*
X0440650Y0130481D01*
X0441312Y0128882D02*
X0448141Y0128882D01*
X0448153Y0127284D02*
X0441580Y0127284D01*
X0441580Y0125685D02*
X0448165Y0125685D01*
X0448178Y0124087D02*
X0441228Y0124087D01*
X0440566Y0122488D02*
X0448187Y0122488D01*
X0448187Y0120890D02*
X0439322Y0120890D01*
X0437358Y0119291D02*
X0448187Y0119291D01*
X0448187Y0117693D02*
X0413980Y0117693D01*
X0413980Y0116094D02*
X0448187Y0116094D01*
X0448187Y0114495D02*
X0413585Y0114495D01*
X0412653Y0112897D02*
X0448187Y0112897D01*
X0448187Y0111298D02*
X0411628Y0111298D01*
X0413160Y0109700D02*
X0448187Y0109700D01*
X0448187Y0108101D02*
X0413822Y0108101D01*
X0413980Y0106503D02*
X0448187Y0106503D01*
X0448187Y0104904D02*
X0413754Y0104904D01*
X0413062Y0103306D02*
X0448187Y0103306D01*
X0448187Y0101707D02*
X0411400Y0101707D01*
X0412818Y0100109D02*
X0448187Y0100109D01*
X0448187Y0098510D02*
X0413653Y0098510D01*
X0413980Y0096912D02*
X0448187Y0096912D01*
X0448187Y0095313D02*
X0413923Y0095313D01*
X0413261Y0093715D02*
X0448187Y0093715D01*
X0448187Y0092116D02*
X0412978Y0092116D01*
X0413980Y0090518D02*
X0448187Y0090518D01*
X0448187Y0088919D02*
X0437261Y0088919D01*
X0437982Y0088621D02*
X0434931Y0089884D01*
X0431630Y0089884D01*
X0428579Y0088621D01*
X0426245Y0086286D01*
X0424981Y0083236D01*
X0424981Y0079934D01*
X0426245Y0076884D01*
X0428579Y0074549D01*
X0431630Y0073286D01*
X0433250Y0073286D01*
X0432117Y0072817D01*
X0429783Y0070482D01*
X0428519Y0067432D01*
X0428519Y0064130D01*
X0429783Y0061080D01*
X0432117Y0058745D01*
X0435168Y0057482D01*
X0438469Y0057482D01*
X0441520Y0058745D01*
X0443854Y0061080D01*
X0445118Y0064130D01*
X0445118Y0067432D01*
X0443854Y0070482D01*
X0441520Y0072817D01*
X0438469Y0074080D01*
X0436849Y0074080D01*
X0437982Y0074549D01*
X0440316Y0076884D01*
X0441580Y0079934D01*
X0441580Y0083236D01*
X0440316Y0086286D01*
X0437982Y0088621D01*
X0439282Y0087321D02*
X0448187Y0087321D01*
X0448187Y0085722D02*
X0440550Y0085722D01*
X0441212Y0084124D02*
X0448187Y0084124D01*
X0448187Y0082525D02*
X0441580Y0082525D01*
X0441580Y0080927D02*
X0448187Y0080927D01*
X0448187Y0079328D02*
X0441329Y0079328D01*
X0440666Y0077730D02*
X0448187Y0077730D01*
X0448187Y0076131D02*
X0439563Y0076131D01*
X0437941Y0074533D02*
X0448187Y0074533D01*
X0448187Y0072934D02*
X0441236Y0072934D01*
X0443001Y0071336D02*
X0448187Y0071336D01*
X0448187Y0069737D02*
X0444163Y0069737D01*
X0444825Y0068139D02*
X0448187Y0068139D01*
X0448187Y0066540D02*
X0445118Y0066540D01*
X0445118Y0064942D02*
X0448187Y0064942D01*
X0448187Y0063343D02*
X0444792Y0063343D01*
X0444130Y0061745D02*
X0448187Y0061745D01*
X0448187Y0060146D02*
X0442920Y0060146D01*
X0441042Y0058548D02*
X0448187Y0058548D01*
X0448187Y0056949D02*
X0417504Y0056949D01*
X0417519Y0055351D02*
X0448187Y0055351D01*
X0448187Y0053752D02*
X0417148Y0053752D01*
X0416252Y0052154D02*
X0448187Y0052154D01*
X0448187Y0050555D02*
X0415106Y0050555D01*
X0416673Y0048957D02*
X0448187Y0048957D01*
X0448187Y0047358D02*
X0417335Y0047358D01*
X0417519Y0045759D02*
X0448187Y0045759D01*
X0448187Y0044161D02*
X0417317Y0044161D01*
X0416655Y0042562D02*
X0448187Y0042562D01*
X0448187Y0040964D02*
X0415063Y0040964D01*
X0416295Y0039365D02*
X0448187Y0039365D01*
X0448187Y0037767D02*
X0417166Y0037767D01*
X0417519Y0036168D02*
X0448187Y0036168D01*
X0448187Y0034570D02*
X0417487Y0034570D01*
X0416824Y0032971D02*
X0448187Y0032971D01*
X0448187Y0031373D02*
X0416455Y0031373D01*
X0417519Y0029774D02*
X0448187Y0029774D01*
X0448187Y0028176D02*
X0440653Y0028176D01*
X0441520Y0027817D02*
X0438469Y0029080D01*
X0435168Y0029080D01*
X0432117Y0027817D01*
X0429783Y0025482D01*
X0428519Y0022432D01*
X0428519Y0021297D01*
X0427491Y0021723D01*
X0424985Y0021723D01*
X0422670Y0020764D01*
X0420897Y0018992D01*
X0419938Y0016676D01*
X0419938Y0014170D01*
X0420897Y0011855D01*
X0422670Y0010082D01*
X0424985Y0009123D01*
X0427491Y0009123D01*
X0429807Y0010082D01*
X0431579Y0011855D01*
X0432326Y0013659D01*
X0435168Y0012482D01*
X0438469Y0012482D01*
X0441520Y0013745D01*
X0443854Y0016080D01*
X0445118Y0019130D01*
X0445118Y0022432D01*
X0443854Y0025482D01*
X0441520Y0027817D01*
X0442759Y0026577D02*
X0448187Y0026577D01*
X0448187Y0024979D02*
X0444063Y0024979D01*
X0444725Y0023380D02*
X0448187Y0023380D01*
X0448187Y0021782D02*
X0445118Y0021782D01*
X0445118Y0020183D02*
X0448187Y0020183D01*
X0448187Y0018585D02*
X0444892Y0018585D01*
X0444230Y0016986D02*
X0448187Y0016986D01*
X0448187Y0015388D02*
X0443162Y0015388D01*
X0441564Y0013789D02*
X0448187Y0013789D01*
X0448187Y0012191D02*
X0431718Y0012191D01*
X0430317Y0010592D02*
X0448187Y0010592D01*
X0428519Y0021782D02*
X0417519Y0021782D01*
X0417519Y0023380D02*
X0428912Y0023380D01*
X0429574Y0024979D02*
X0417519Y0024979D01*
X0417519Y0026577D02*
X0430878Y0026577D01*
X0432984Y0028176D02*
X0417519Y0028176D01*
X0406119Y0026577D02*
X0405676Y0026577D01*
X0406119Y0024979D02*
X0373176Y0024979D01*
X0374238Y0024539D02*
X0371922Y0025498D01*
X0369416Y0025498D01*
X0367101Y0024539D01*
X0365328Y0022767D01*
X0364369Y0020451D01*
X0364369Y0017945D01*
X0365328Y0015630D01*
X0367101Y0013857D01*
X0369416Y0012898D01*
X0371922Y0012898D01*
X0374238Y0013857D01*
X0376010Y0015630D01*
X0376969Y0017945D01*
X0376969Y0020451D01*
X0376010Y0022767D01*
X0374238Y0024539D01*
X0375397Y0023380D02*
X0406119Y0023380D01*
X0406119Y0021782D02*
X0376418Y0021782D01*
X0376969Y0020183D02*
X0380750Y0020183D01*
X0379390Y0018585D02*
X0376969Y0018585D01*
X0376572Y0016986D02*
X0378728Y0016986D01*
X0378600Y0015388D02*
X0375768Y0015388D01*
X0374074Y0013789D02*
X0378757Y0013789D01*
X0388978Y0010592D02*
X0394951Y0010592D01*
X0394705Y0010770D02*
X0395482Y0010206D01*
X0396338Y0009770D01*
X0397251Y0009473D01*
X0398199Y0009323D01*
X0398495Y0009323D01*
X0398495Y0015239D01*
X0398863Y0015239D01*
X0398863Y0009323D01*
X0399159Y0009323D01*
X0400108Y0009473D01*
X0401021Y0009770D01*
X0401876Y0010206D01*
X0402653Y0010770D01*
X0403332Y0011449D01*
X0403896Y0012226D01*
X0404332Y0013082D01*
X0404629Y0013995D01*
X0404779Y0014943D01*
X0404779Y0015239D01*
X0398864Y0015239D01*
X0398864Y0015607D01*
X0404779Y0015607D01*
X0404779Y0015903D01*
X0404629Y0016852D01*
X0404332Y0017765D01*
X0403896Y0018620D01*
X0403332Y0019397D01*
X0402653Y0020076D01*
X0401876Y0020640D01*
X0401021Y0021076D01*
X0400108Y0021373D01*
X0399159Y0021523D01*
X0398863Y0021523D01*
X0398863Y0015608D01*
X0398495Y0015608D01*
X0398495Y0021523D01*
X0398199Y0021523D01*
X0397251Y0021373D01*
X0396338Y0021076D01*
X0395482Y0020640D01*
X0394705Y0020076D01*
X0394026Y0019397D01*
X0393462Y0018620D01*
X0393026Y0017765D01*
X0392729Y0016852D01*
X0392579Y0015903D01*
X0392579Y0015607D01*
X0398495Y0015607D01*
X0398495Y0015239D01*
X0392579Y0015239D01*
X0392579Y0014943D01*
X0392729Y0013995D01*
X0393026Y0013082D01*
X0393462Y0012226D01*
X0394026Y0011449D01*
X0394705Y0010770D01*
X0393488Y0012191D02*
X0390380Y0012191D01*
X0391042Y0013789D02*
X0392796Y0013789D01*
X0391200Y0015388D02*
X0398495Y0015388D01*
X0398864Y0015388D02*
X0412274Y0015388D01*
X0412643Y0015388D02*
X0419938Y0015388D01*
X0418559Y0015239D02*
X0412643Y0015239D01*
X0412643Y0009323D01*
X0412939Y0009323D01*
X0413887Y0009473D01*
X0414800Y0009770D01*
X0415656Y0010206D01*
X0416433Y0010770D01*
X0417112Y0011449D01*
X0417676Y0012226D01*
X0418112Y0013082D01*
X0418409Y0013995D01*
X0418559Y0014943D01*
X0418559Y0015239D01*
X0418342Y0013789D02*
X0420096Y0013789D01*
X0420758Y0012191D02*
X0417650Y0012191D01*
X0416187Y0010592D02*
X0422160Y0010592D01*
X0420067Y0016986D02*
X0418365Y0016986D01*
X0417694Y0018585D02*
X0420729Y0018585D01*
X0422089Y0020183D02*
X0416449Y0020183D01*
X0412643Y0013789D02*
X0412274Y0013789D01*
X0412274Y0012191D02*
X0412643Y0012191D01*
X0412643Y0010592D02*
X0412274Y0010592D01*
X0408730Y0010592D02*
X0402408Y0010592D01*
X0403871Y0012191D02*
X0407267Y0012191D01*
X0406576Y0013789D02*
X0404562Y0013789D01*
X0404585Y0016986D02*
X0406553Y0016986D01*
X0407223Y0018585D02*
X0403915Y0018585D01*
X0402505Y0020183D02*
X0407188Y0020183D01*
X0398863Y0020183D02*
X0398495Y0020183D01*
X0398495Y0018585D02*
X0398863Y0018585D01*
X0398863Y0016986D02*
X0398495Y0016986D01*
X0398495Y0013789D02*
X0398863Y0013789D01*
X0398863Y0012191D02*
X0398495Y0012191D01*
X0398495Y0010592D02*
X0398863Y0010592D01*
X0392773Y0016986D02*
X0391071Y0016986D01*
X0390409Y0018585D02*
X0393444Y0018585D01*
X0394853Y0020183D02*
X0389049Y0020183D01*
X0368162Y0024979D02*
X0359397Y0024979D01*
X0360458Y0024539D02*
X0358143Y0025498D01*
X0355637Y0025498D01*
X0353321Y0024539D01*
X0351549Y0022767D01*
X0350590Y0020451D01*
X0350590Y0017945D01*
X0351549Y0015630D01*
X0353321Y0013857D01*
X0355637Y0012898D01*
X0358143Y0012898D01*
X0360458Y0013857D01*
X0362231Y0015630D01*
X0363190Y0017945D01*
X0363190Y0020451D01*
X0362231Y0022767D01*
X0360458Y0024539D01*
X0361617Y0023380D02*
X0365942Y0023380D01*
X0364920Y0021782D02*
X0362639Y0021782D01*
X0363190Y0020183D02*
X0364369Y0020183D01*
X0364369Y0018585D02*
X0363190Y0018585D01*
X0362793Y0016986D02*
X0364766Y0016986D01*
X0365570Y0015388D02*
X0361989Y0015388D01*
X0360294Y0013789D02*
X0367265Y0013789D01*
X0353485Y0013789D02*
X0346515Y0013789D01*
X0346679Y0013857D02*
X0348451Y0015630D01*
X0349410Y0017945D01*
X0349410Y0020451D01*
X0348451Y0022767D01*
X0346679Y0024539D01*
X0344363Y0025498D01*
X0341857Y0025498D01*
X0339542Y0024539D01*
X0337769Y0022767D01*
X0336810Y0020451D01*
X0336810Y0017945D01*
X0337769Y0015630D01*
X0339542Y0013857D01*
X0341857Y0012898D01*
X0344363Y0012898D01*
X0346679Y0013857D01*
X0348209Y0015388D02*
X0351791Y0015388D01*
X0350987Y0016986D02*
X0349013Y0016986D01*
X0349410Y0018585D02*
X0350590Y0018585D01*
X0350590Y0020183D02*
X0349410Y0020183D01*
X0348859Y0021782D02*
X0351141Y0021782D01*
X0352162Y0023380D02*
X0347838Y0023380D01*
X0345617Y0024979D02*
X0354383Y0024979D01*
X0340603Y0024979D02*
X0331838Y0024979D01*
X0332899Y0024539D02*
X0330584Y0025498D01*
X0328078Y0025498D01*
X0325762Y0024539D01*
X0323990Y0022767D01*
X0323031Y0020451D01*
X0323031Y0017945D01*
X0323990Y0015630D01*
X0325762Y0013857D01*
X0328078Y0012898D01*
X0330584Y0012898D01*
X0332899Y0013857D01*
X0334672Y0015630D01*
X0335631Y0017945D01*
X0335631Y0020451D01*
X0334672Y0022767D01*
X0332899Y0024539D01*
X0334058Y0023380D02*
X0338383Y0023380D01*
X0337361Y0021782D02*
X0335080Y0021782D01*
X0335631Y0020183D02*
X0336810Y0020183D01*
X0336810Y0018585D02*
X0335631Y0018585D01*
X0335234Y0016986D02*
X0337207Y0016986D01*
X0338011Y0015388D02*
X0334430Y0015388D01*
X0332735Y0013789D02*
X0339706Y0013789D01*
X0325926Y0013789D02*
X0319074Y0013789D01*
X0319238Y0013857D02*
X0321010Y0015630D01*
X0321969Y0017945D01*
X0321969Y0020451D01*
X0321010Y0022767D01*
X0319238Y0024539D01*
X0316922Y0025498D01*
X0314416Y0025498D01*
X0312101Y0024539D01*
X0310328Y0022767D01*
X0309369Y0020451D01*
X0309369Y0017945D01*
X0310328Y0015630D01*
X0312101Y0013857D01*
X0314416Y0012898D01*
X0316922Y0012898D01*
X0319238Y0013857D01*
X0320768Y0015388D02*
X0324232Y0015388D01*
X0323428Y0016986D02*
X0321572Y0016986D01*
X0321969Y0018585D02*
X0323031Y0018585D01*
X0323031Y0020183D02*
X0321969Y0020183D01*
X0321418Y0021782D02*
X0323582Y0021782D01*
X0324603Y0023380D02*
X0320397Y0023380D01*
X0318176Y0024979D02*
X0326824Y0024979D01*
X0313162Y0024979D02*
X0304397Y0024979D01*
X0305458Y0024539D02*
X0303143Y0025498D01*
X0300637Y0025498D01*
X0298321Y0024539D01*
X0296549Y0022767D01*
X0295590Y0020451D01*
X0295590Y0017945D01*
X0296549Y0015630D01*
X0298321Y0013857D01*
X0300637Y0012898D01*
X0303143Y0012898D01*
X0305458Y0013857D01*
X0307231Y0015630D01*
X0308190Y0017945D01*
X0308190Y0020451D01*
X0307231Y0022767D01*
X0305458Y0024539D01*
X0306617Y0023380D02*
X0310942Y0023380D01*
X0309920Y0021782D02*
X0307639Y0021782D01*
X0308190Y0020183D02*
X0309369Y0020183D01*
X0309369Y0018585D02*
X0308190Y0018585D01*
X0307793Y0016986D02*
X0309766Y0016986D01*
X0310570Y0015388D02*
X0306989Y0015388D01*
X0305294Y0013789D02*
X0312265Y0013789D01*
X0298485Y0013789D02*
X0291515Y0013789D01*
X0291679Y0013857D02*
X0293451Y0015630D01*
X0294410Y0017945D01*
X0294410Y0020451D01*
X0293451Y0022767D01*
X0291679Y0024539D01*
X0289363Y0025498D01*
X0286857Y0025498D01*
X0284542Y0024539D01*
X0282769Y0022767D01*
X0281810Y0020451D01*
X0281810Y0017945D01*
X0282769Y0015630D01*
X0284542Y0013857D01*
X0286857Y0012898D01*
X0289363Y0012898D01*
X0291679Y0013857D01*
X0293209Y0015388D02*
X0296791Y0015388D01*
X0295987Y0016986D02*
X0294013Y0016986D01*
X0294410Y0018585D02*
X0295590Y0018585D01*
X0295590Y0020183D02*
X0294410Y0020183D01*
X0293859Y0021782D02*
X0296141Y0021782D01*
X0297162Y0023380D02*
X0292838Y0023380D01*
X0290617Y0024979D02*
X0299383Y0024979D01*
X0285603Y0024979D02*
X0276838Y0024979D01*
X0277899Y0024539D02*
X0275584Y0025498D01*
X0273078Y0025498D01*
X0270762Y0024539D01*
X0268990Y0022767D01*
X0268031Y0020451D01*
X0268031Y0017945D01*
X0268990Y0015630D01*
X0270762Y0013857D01*
X0273078Y0012898D01*
X0275584Y0012898D01*
X0277899Y0013857D01*
X0279672Y0015630D01*
X0280631Y0017945D01*
X0280631Y0020451D01*
X0279672Y0022767D01*
X0277899Y0024539D01*
X0279058Y0023380D02*
X0283383Y0023380D01*
X0282361Y0021782D02*
X0280080Y0021782D01*
X0280631Y0020183D02*
X0281810Y0020183D01*
X0281810Y0018585D02*
X0280631Y0018585D01*
X0280234Y0016986D02*
X0282207Y0016986D01*
X0283011Y0015388D02*
X0279430Y0015388D01*
X0277735Y0013789D02*
X0284706Y0013789D01*
X0270926Y0013789D02*
X0264074Y0013789D01*
X0264238Y0013857D02*
X0266010Y0015630D01*
X0266969Y0017945D01*
X0266969Y0020451D01*
X0266010Y0022767D01*
X0264238Y0024539D01*
X0261922Y0025498D01*
X0259416Y0025498D01*
X0257101Y0024539D01*
X0255328Y0022767D01*
X0254369Y0020451D01*
X0254369Y0017945D01*
X0255328Y0015630D01*
X0257101Y0013857D01*
X0259416Y0012898D01*
X0261922Y0012898D01*
X0264238Y0013857D01*
X0265768Y0015388D02*
X0269232Y0015388D01*
X0268428Y0016986D02*
X0266572Y0016986D01*
X0266969Y0018585D02*
X0268031Y0018585D01*
X0268031Y0020183D02*
X0266969Y0020183D01*
X0266418Y0021782D02*
X0268582Y0021782D01*
X0269603Y0023380D02*
X0265397Y0023380D01*
X0263176Y0024979D02*
X0271824Y0024979D01*
X0258162Y0024979D02*
X0249397Y0024979D01*
X0250458Y0024539D02*
X0248143Y0025498D01*
X0245637Y0025498D01*
X0243321Y0024539D01*
X0241549Y0022767D01*
X0240590Y0020451D01*
X0240590Y0017945D01*
X0241549Y0015630D01*
X0243321Y0013857D01*
X0245637Y0012898D01*
X0248143Y0012898D01*
X0250458Y0013857D01*
X0252231Y0015630D01*
X0253190Y0017945D01*
X0253190Y0020451D01*
X0252231Y0022767D01*
X0250458Y0024539D01*
X0251617Y0023380D02*
X0255942Y0023380D01*
X0254920Y0021782D02*
X0252639Y0021782D01*
X0253190Y0020183D02*
X0254369Y0020183D01*
X0254369Y0018585D02*
X0253190Y0018585D01*
X0252793Y0016986D02*
X0254766Y0016986D01*
X0255570Y0015388D02*
X0251989Y0015388D01*
X0250294Y0013789D02*
X0257265Y0013789D01*
X0243485Y0013789D02*
X0236515Y0013789D01*
X0236679Y0013857D02*
X0238451Y0015630D01*
X0239410Y0017945D01*
X0239410Y0020451D01*
X0238451Y0022767D01*
X0236679Y0024539D01*
X0234363Y0025498D01*
X0231857Y0025498D01*
X0229542Y0024539D01*
X0227769Y0022767D01*
X0226810Y0020451D01*
X0226810Y0017945D01*
X0227769Y0015630D01*
X0229542Y0013857D01*
X0231857Y0012898D01*
X0234363Y0012898D01*
X0236679Y0013857D01*
X0238209Y0015388D02*
X0241791Y0015388D01*
X0240987Y0016986D02*
X0239013Y0016986D01*
X0239410Y0018585D02*
X0240590Y0018585D01*
X0240590Y0020183D02*
X0239410Y0020183D01*
X0238859Y0021782D02*
X0241141Y0021782D01*
X0242162Y0023380D02*
X0237838Y0023380D01*
X0235617Y0024979D02*
X0244383Y0024979D01*
X0230603Y0024979D02*
X0221838Y0024979D01*
X0222899Y0024539D02*
X0220584Y0025498D01*
X0218078Y0025498D01*
X0215762Y0024539D01*
X0213990Y0022767D01*
X0213031Y0020451D01*
X0213031Y0017945D01*
X0213990Y0015630D01*
X0215762Y0013857D01*
X0218078Y0012898D01*
X0220584Y0012898D01*
X0222899Y0013857D01*
X0224672Y0015630D01*
X0225631Y0017945D01*
X0225631Y0020451D01*
X0224672Y0022767D01*
X0222899Y0024539D01*
X0224058Y0023380D02*
X0228383Y0023380D01*
X0227361Y0021782D02*
X0225080Y0021782D01*
X0225631Y0020183D02*
X0226810Y0020183D01*
X0226810Y0018585D02*
X0225631Y0018585D01*
X0225234Y0016986D02*
X0227207Y0016986D01*
X0228011Y0015388D02*
X0224430Y0015388D01*
X0222735Y0013789D02*
X0229706Y0013789D01*
X0215926Y0013789D02*
X0209074Y0013789D01*
X0209238Y0013857D02*
X0211010Y0015630D01*
X0211969Y0017945D01*
X0211969Y0020451D01*
X0211010Y0022767D01*
X0209238Y0024539D01*
X0206922Y0025498D01*
X0204416Y0025498D01*
X0202101Y0024539D01*
X0200328Y0022767D01*
X0199369Y0020451D01*
X0199369Y0017945D01*
X0200328Y0015630D01*
X0202101Y0013857D01*
X0204416Y0012898D01*
X0206922Y0012898D01*
X0209238Y0013857D01*
X0210768Y0015388D02*
X0214232Y0015388D01*
X0213428Y0016986D02*
X0211572Y0016986D01*
X0211969Y0018585D02*
X0213031Y0018585D01*
X0213031Y0020183D02*
X0211969Y0020183D01*
X0211418Y0021782D02*
X0213582Y0021782D01*
X0214603Y0023380D02*
X0210397Y0023380D01*
X0208176Y0024979D02*
X0216824Y0024979D01*
X0203162Y0024979D02*
X0194397Y0024979D01*
X0195458Y0024539D02*
X0193143Y0025498D01*
X0190637Y0025498D01*
X0188321Y0024539D01*
X0186549Y0022767D01*
X0185590Y0020451D01*
X0185590Y0017945D01*
X0186549Y0015630D01*
X0188321Y0013857D01*
X0190637Y0012898D01*
X0193143Y0012898D01*
X0195458Y0013857D01*
X0197231Y0015630D01*
X0198190Y0017945D01*
X0198190Y0020451D01*
X0197231Y0022767D01*
X0195458Y0024539D01*
X0196617Y0023380D02*
X0200942Y0023380D01*
X0199920Y0021782D02*
X0197639Y0021782D01*
X0198190Y0020183D02*
X0199369Y0020183D01*
X0199369Y0018585D02*
X0198190Y0018585D01*
X0197793Y0016986D02*
X0199766Y0016986D01*
X0200570Y0015388D02*
X0196989Y0015388D01*
X0195294Y0013789D02*
X0202265Y0013789D01*
X0188485Y0013789D02*
X0181515Y0013789D01*
X0181679Y0013857D02*
X0183451Y0015630D01*
X0184410Y0017945D01*
X0184410Y0020451D01*
X0183451Y0022767D01*
X0181679Y0024539D01*
X0179363Y0025498D01*
X0176857Y0025498D01*
X0174542Y0024539D01*
X0172769Y0022767D01*
X0171810Y0020451D01*
X0171810Y0017945D01*
X0172769Y0015630D01*
X0174542Y0013857D01*
X0176857Y0012898D01*
X0179363Y0012898D01*
X0181679Y0013857D01*
X0183209Y0015388D02*
X0186791Y0015388D01*
X0185987Y0016986D02*
X0184013Y0016986D01*
X0184410Y0018585D02*
X0185590Y0018585D01*
X0185590Y0020183D02*
X0184410Y0020183D01*
X0183859Y0021782D02*
X0186141Y0021782D01*
X0187162Y0023380D02*
X0182838Y0023380D01*
X0180617Y0024979D02*
X0189383Y0024979D01*
X0175603Y0024979D02*
X0166838Y0024979D01*
X0167899Y0024539D02*
X0165584Y0025498D01*
X0163078Y0025498D01*
X0160762Y0024539D01*
X0158990Y0022767D01*
X0158031Y0020451D01*
X0158031Y0017945D01*
X0158990Y0015630D01*
X0160762Y0013857D01*
X0163078Y0012898D01*
X0165584Y0012898D01*
X0167899Y0013857D01*
X0169672Y0015630D01*
X0170631Y0017945D01*
X0170631Y0020451D01*
X0169672Y0022767D01*
X0167899Y0024539D01*
X0169058Y0023380D02*
X0173383Y0023380D01*
X0172361Y0021782D02*
X0170080Y0021782D01*
X0170631Y0020183D02*
X0171810Y0020183D01*
X0171810Y0018585D02*
X0170631Y0018585D01*
X0170234Y0016986D02*
X0172207Y0016986D01*
X0173011Y0015388D02*
X0169430Y0015388D01*
X0167735Y0013789D02*
X0174706Y0013789D01*
X0160926Y0013789D02*
X0154074Y0013789D01*
X0154238Y0013857D02*
X0156010Y0015630D01*
X0156969Y0017945D01*
X0156969Y0020451D01*
X0156010Y0022767D01*
X0154238Y0024539D01*
X0151922Y0025498D01*
X0149416Y0025498D01*
X0147101Y0024539D01*
X0145328Y0022767D01*
X0144369Y0020451D01*
X0144369Y0017945D01*
X0145328Y0015630D01*
X0147101Y0013857D01*
X0149416Y0012898D01*
X0151922Y0012898D01*
X0154238Y0013857D01*
X0155768Y0015388D02*
X0159232Y0015388D01*
X0158428Y0016986D02*
X0156572Y0016986D01*
X0156969Y0018585D02*
X0158031Y0018585D01*
X0158031Y0020183D02*
X0156969Y0020183D01*
X0156418Y0021782D02*
X0158582Y0021782D01*
X0159603Y0023380D02*
X0155397Y0023380D01*
X0153176Y0024979D02*
X0161824Y0024979D01*
X0148162Y0024979D02*
X0139397Y0024979D01*
X0140458Y0024539D02*
X0138143Y0025498D01*
X0135637Y0025498D01*
X0133321Y0024539D01*
X0131549Y0022767D01*
X0130590Y0020451D01*
X0130590Y0017945D01*
X0131549Y0015630D01*
X0133321Y0013857D01*
X0135637Y0012898D01*
X0138143Y0012898D01*
X0140458Y0013857D01*
X0142231Y0015630D01*
X0143190Y0017945D01*
X0143190Y0020451D01*
X0142231Y0022767D01*
X0140458Y0024539D01*
X0141617Y0023380D02*
X0145942Y0023380D01*
X0144920Y0021782D02*
X0142639Y0021782D01*
X0143190Y0020183D02*
X0144369Y0020183D01*
X0144369Y0018585D02*
X0143190Y0018585D01*
X0142793Y0016986D02*
X0144766Y0016986D01*
X0145570Y0015388D02*
X0141989Y0015388D01*
X0140294Y0013789D02*
X0147265Y0013789D01*
X0133485Y0013789D02*
X0126515Y0013789D01*
X0126679Y0013857D02*
X0128451Y0015630D01*
X0129410Y0017945D01*
X0129410Y0020451D01*
X0128451Y0022767D01*
X0126679Y0024539D01*
X0124363Y0025498D01*
X0121857Y0025498D01*
X0119542Y0024539D01*
X0117769Y0022767D01*
X0116810Y0020451D01*
X0116810Y0017945D01*
X0117769Y0015630D01*
X0119542Y0013857D01*
X0121857Y0012898D01*
X0124363Y0012898D01*
X0126679Y0013857D01*
X0128209Y0015388D02*
X0131791Y0015388D01*
X0130987Y0016986D02*
X0129013Y0016986D01*
X0129410Y0018585D02*
X0130590Y0018585D01*
X0130590Y0020183D02*
X0129410Y0020183D01*
X0128859Y0021782D02*
X0131141Y0021782D01*
X0132162Y0023380D02*
X0127838Y0023380D01*
X0125617Y0024979D02*
X0134383Y0024979D01*
X0120603Y0024979D02*
X0111838Y0024979D01*
X0114058Y0023380D02*
X0118383Y0023380D01*
X0117361Y0021782D02*
X0115080Y0021782D01*
X0115631Y0020183D02*
X0116810Y0020183D01*
X0116810Y0018585D02*
X0115631Y0018585D01*
X0115234Y0016986D02*
X0117207Y0016986D01*
X0118011Y0015388D02*
X0114430Y0015388D01*
X0112735Y0013789D02*
X0119706Y0013789D01*
X0101485Y0026577D02*
X0056478Y0026577D01*
X0056478Y0024979D02*
X0099887Y0024979D01*
X0098288Y0023380D02*
X0056478Y0023380D01*
X0056478Y0021782D02*
X0096690Y0021782D01*
X0095254Y0028176D02*
X0103084Y0028176D01*
X0104682Y0029774D02*
X0097183Y0029774D01*
X0093000Y0029774D02*
X0092600Y0029774D01*
X0092600Y0028176D02*
X0093000Y0028176D01*
X0093000Y0031373D02*
X0092600Y0031373D01*
X0092600Y0034570D02*
X0093000Y0034570D01*
X0093000Y0036168D02*
X0092600Y0036168D01*
X0092600Y0037767D02*
X0093000Y0037767D01*
X0071476Y0056949D02*
X0056478Y0056949D01*
X0056478Y0058548D02*
X0069851Y0058548D01*
X0069077Y0060146D02*
X0056478Y0060146D01*
X0056478Y0061745D02*
X0068700Y0061745D01*
X0068700Y0063343D02*
X0056478Y0063343D01*
X0056478Y0064942D02*
X0069272Y0064942D01*
X0070322Y0066540D02*
X0056478Y0066540D01*
X0056478Y0084124D02*
X0072404Y0084124D01*
X0070236Y0085722D02*
X0056478Y0085722D01*
X0056478Y0087321D02*
X0069236Y0087321D01*
X0068700Y0088919D02*
X0056478Y0088919D01*
X0056478Y0090518D02*
X0068700Y0090518D01*
X0069112Y0092116D02*
X0056478Y0092116D01*
X0056478Y0093715D02*
X0069938Y0093715D01*
X0071685Y0095313D02*
X0056478Y0095313D01*
X0056478Y0096912D02*
X0075500Y0096912D01*
X0075500Y0098510D02*
X0056478Y0098510D01*
X0056478Y0100109D02*
X0063781Y0100109D01*
X0062882Y0101707D02*
X0056478Y0101707D01*
X0056478Y0103306D02*
X0062882Y0103306D01*
X0062882Y0104904D02*
X0056478Y0104904D01*
X0056478Y0106503D02*
X0062882Y0106503D01*
X0063595Y0108101D02*
X0056478Y0108101D01*
X0137698Y0109700D02*
X0139854Y0109700D01*
X0139296Y0108101D02*
X0140703Y0108101D01*
X0140000Y0106503D02*
X0140000Y0106503D01*
X0140000Y0104904D02*
X0140000Y0104904D01*
X0140000Y0103306D02*
X0140000Y0103306D01*
X0139350Y0098048D02*
X0140650Y0098048D01*
X0140000Y0097398D01*
X0140000Y0093256D01*
X0140000Y0097398D01*
X0139350Y0098048D01*
X0140000Y0096912D02*
X0140000Y0096912D01*
X0140000Y0095313D02*
X0140000Y0095313D01*
X0140000Y0093715D02*
X0140000Y0093715D01*
X0138860Y0092116D02*
X0141140Y0092116D01*
X0142738Y0090518D02*
X0137262Y0090518D01*
X0138479Y0088919D02*
X0141521Y0088919D01*
X0142929Y0090327D02*
X0140000Y0087398D01*
X0140000Y0083256D01*
X0142929Y0080327D01*
X0147071Y0080327D01*
X0150000Y0083256D01*
X0150000Y0087398D01*
X0147071Y0090327D01*
X0142929Y0090327D01*
X0140000Y0087321D02*
X0140000Y0087321D01*
X0140000Y0085722D02*
X0140000Y0085722D01*
X0140000Y0084124D02*
X0140000Y0084124D01*
X0139269Y0082525D02*
X0140731Y0082525D01*
X0142329Y0080927D02*
X0137671Y0080927D01*
X0147671Y0080927D02*
X0152329Y0080927D01*
X0152929Y0080327D02*
X0157071Y0080327D01*
X0160000Y0083256D01*
X0160000Y0087398D01*
X0157071Y0090327D01*
X0152929Y0090327D01*
X0150000Y0087398D01*
X0150000Y0083256D01*
X0152929Y0080327D01*
X0150731Y0082525D02*
X0149269Y0082525D01*
X0150000Y0084124D02*
X0150000Y0084124D01*
X0150000Y0085722D02*
X0150000Y0085722D01*
X0150000Y0087321D02*
X0150000Y0087321D01*
X0148479Y0088919D02*
X0151521Y0088919D01*
X0152738Y0090518D02*
X0147262Y0090518D01*
X0148860Y0092116D02*
X0151140Y0092116D01*
X0150000Y0093256D02*
X0150000Y0097398D01*
X0150650Y0098048D01*
X0149350Y0098048D01*
X0150000Y0097398D01*
X0150000Y0093256D01*
X0150000Y0093715D02*
X0150000Y0093715D01*
X0150000Y0095313D02*
X0150000Y0095313D01*
X0150000Y0096912D02*
X0150000Y0096912D01*
X0159350Y0098048D02*
X0160000Y0097398D01*
X0160000Y0093256D01*
X0160000Y0097398D01*
X0160650Y0098048D01*
X0159350Y0098048D01*
X0160000Y0096912D02*
X0160000Y0096912D01*
X0160000Y0095313D02*
X0160000Y0095313D01*
X0160000Y0093715D02*
X0160000Y0093715D01*
X0158860Y0092116D02*
X0161140Y0092116D01*
X0162738Y0090518D02*
X0157262Y0090518D01*
X0158479Y0088919D02*
X0161521Y0088919D01*
X0162929Y0090327D02*
X0160000Y0087398D01*
X0160000Y0083256D01*
X0162929Y0080327D01*
X0167071Y0080327D01*
X0170000Y0083256D01*
X0170000Y0087398D01*
X0167071Y0090327D01*
X0162929Y0090327D01*
X0160000Y0087321D02*
X0160000Y0087321D01*
X0160000Y0085722D02*
X0160000Y0085722D01*
X0160000Y0084124D02*
X0160000Y0084124D01*
X0159269Y0082525D02*
X0160731Y0082525D01*
X0162329Y0080927D02*
X0157671Y0080927D01*
X0167671Y0080927D02*
X0172329Y0080927D01*
X0172929Y0080327D02*
X0177071Y0080327D01*
X0180000Y0083256D01*
X0180000Y0087398D01*
X0177071Y0090327D01*
X0172929Y0090327D01*
X0170000Y0087398D01*
X0170000Y0083256D01*
X0172929Y0080327D01*
X0170731Y0082525D02*
X0169269Y0082525D01*
X0170000Y0084124D02*
X0170000Y0084124D01*
X0170000Y0085722D02*
X0170000Y0085722D01*
X0170000Y0087321D02*
X0170000Y0087321D01*
X0168479Y0088919D02*
X0171521Y0088919D01*
X0172738Y0090518D02*
X0167262Y0090518D01*
X0168860Y0092116D02*
X0171140Y0092116D01*
X0170000Y0093256D02*
X0170000Y0097398D01*
X0170650Y0098048D01*
X0169350Y0098048D01*
X0170000Y0097398D01*
X0170000Y0093256D01*
X0170000Y0093715D02*
X0170000Y0093715D01*
X0170000Y0095313D02*
X0170000Y0095313D01*
X0170000Y0096912D02*
X0170000Y0096912D01*
X0179350Y0098048D02*
X0180000Y0097398D01*
X0180000Y0093256D01*
X0180000Y0097398D01*
X0180650Y0098048D01*
X0179350Y0098048D01*
X0180000Y0096912D02*
X0180000Y0096912D01*
X0180000Y0095313D02*
X0180000Y0095313D01*
X0180000Y0093715D02*
X0180000Y0093715D01*
X0178860Y0092116D02*
X0181140Y0092116D01*
X0182738Y0090518D02*
X0177262Y0090518D01*
X0178479Y0088919D02*
X0181521Y0088919D01*
X0182929Y0090327D02*
X0180000Y0087398D01*
X0180000Y0083256D01*
X0182929Y0080327D01*
X0187071Y0080327D01*
X0190000Y0083256D01*
X0190000Y0087398D01*
X0187071Y0090327D01*
X0182929Y0090327D01*
X0180000Y0087321D02*
X0180000Y0087321D01*
X0180000Y0085722D02*
X0180000Y0085722D01*
X0180000Y0084124D02*
X0180000Y0084124D01*
X0179269Y0082525D02*
X0180731Y0082525D01*
X0182329Y0080927D02*
X0177671Y0080927D01*
X0187262Y0090518D02*
X0192738Y0090518D01*
X0192929Y0090327D02*
X0190000Y0087398D01*
X0190000Y0083256D01*
X0192929Y0080327D01*
X0197071Y0080327D01*
X0200000Y0083256D01*
X0200000Y0087398D01*
X0197071Y0090327D01*
X0192929Y0090327D01*
X0191521Y0088919D02*
X0188479Y0088919D01*
X0190000Y0087321D02*
X0190000Y0087321D01*
X0190000Y0085722D02*
X0190000Y0085722D01*
X0190000Y0084124D02*
X0190000Y0084124D01*
X0189269Y0082525D02*
X0190731Y0082525D01*
X0192329Y0080927D02*
X0187671Y0080927D01*
X0197671Y0080927D02*
X0202329Y0080927D01*
X0202929Y0080327D02*
X0207071Y0080327D01*
X0210000Y0083256D01*
X0210000Y0087398D01*
X0207071Y0090327D01*
X0202929Y0090327D01*
X0200000Y0087398D01*
X0200000Y0083256D01*
X0202929Y0080327D01*
X0200731Y0082525D02*
X0199269Y0082525D01*
X0200000Y0084124D02*
X0200000Y0084124D01*
X0200000Y0085722D02*
X0200000Y0085722D01*
X0200000Y0087321D02*
X0200000Y0087321D01*
X0198479Y0088919D02*
X0201521Y0088919D01*
X0202738Y0090518D02*
X0197262Y0090518D01*
X0198860Y0092116D02*
X0201140Y0092116D01*
X0200000Y0093256D02*
X0200000Y0097398D01*
X0200650Y0098048D01*
X0199350Y0098048D01*
X0200000Y0097398D01*
X0200000Y0093256D01*
X0200000Y0093715D02*
X0200000Y0093715D01*
X0200000Y0095313D02*
X0200000Y0095313D01*
X0200000Y0096912D02*
X0200000Y0096912D01*
X0209350Y0098048D02*
X0210000Y0097398D01*
X0210000Y0093256D01*
X0210000Y0097398D01*
X0210650Y0098048D01*
X0209350Y0098048D01*
X0210000Y0096912D02*
X0210000Y0096912D01*
X0210000Y0095313D02*
X0210000Y0095313D01*
X0210000Y0093715D02*
X0210000Y0093715D01*
X0208860Y0092116D02*
X0211140Y0092116D01*
X0212738Y0090518D02*
X0207262Y0090518D01*
X0208479Y0088919D02*
X0211521Y0088919D01*
X0212929Y0090327D02*
X0210000Y0087398D01*
X0210000Y0083256D01*
X0212929Y0080327D01*
X0217071Y0080327D01*
X0220000Y0083256D01*
X0220000Y0087398D01*
X0217071Y0090327D01*
X0212929Y0090327D01*
X0210000Y0087321D02*
X0210000Y0087321D01*
X0210000Y0085722D02*
X0210000Y0085722D01*
X0210000Y0084124D02*
X0210000Y0084124D01*
X0209269Y0082525D02*
X0210731Y0082525D01*
X0212329Y0080927D02*
X0207671Y0080927D01*
X0217671Y0080927D02*
X0222329Y0080927D01*
X0222929Y0080327D02*
X0227071Y0080327D01*
X0230000Y0083256D01*
X0230000Y0087398D01*
X0227071Y0090327D01*
X0222929Y0090327D01*
X0220000Y0087398D01*
X0220000Y0083256D01*
X0222929Y0080327D01*
X0220731Y0082525D02*
X0219269Y0082525D01*
X0220000Y0084124D02*
X0220000Y0084124D01*
X0220000Y0085722D02*
X0220000Y0085722D01*
X0220000Y0087321D02*
X0220000Y0087321D01*
X0218479Y0088919D02*
X0221521Y0088919D01*
X0222738Y0090518D02*
X0217262Y0090518D01*
X0218860Y0092116D02*
X0221140Y0092116D01*
X0220000Y0093256D02*
X0220000Y0097398D01*
X0220650Y0098048D01*
X0219350Y0098048D01*
X0220000Y0097398D01*
X0220000Y0093256D01*
X0220000Y0093715D02*
X0220000Y0093715D01*
X0220000Y0095313D02*
X0220000Y0095313D01*
X0220000Y0096912D02*
X0220000Y0096912D01*
X0229350Y0098048D02*
X0230000Y0097398D01*
X0230000Y0093256D01*
X0230000Y0097398D01*
X0230650Y0098048D01*
X0229350Y0098048D01*
X0230000Y0096912D02*
X0230000Y0096912D01*
X0230000Y0095313D02*
X0230000Y0095313D01*
X0230000Y0093715D02*
X0230000Y0093715D01*
X0228860Y0092116D02*
X0231140Y0092116D01*
X0232738Y0090518D02*
X0227262Y0090518D01*
X0228479Y0088919D02*
X0231521Y0088919D01*
X0232929Y0090327D02*
X0230000Y0087398D01*
X0230000Y0083256D01*
X0232929Y0080327D01*
X0237071Y0080327D01*
X0240000Y0083256D01*
X0240000Y0087398D01*
X0237071Y0090327D01*
X0232929Y0090327D01*
X0230000Y0087321D02*
X0230000Y0087321D01*
X0230000Y0085722D02*
X0230000Y0085722D01*
X0230000Y0084124D02*
X0230000Y0084124D01*
X0229269Y0082525D02*
X0230731Y0082525D01*
X0232329Y0080927D02*
X0227671Y0080927D01*
X0237671Y0080927D02*
X0242329Y0080927D01*
X0242929Y0080327D02*
X0247071Y0080327D01*
X0250000Y0083256D01*
X0250000Y0087398D01*
X0247071Y0090327D01*
X0242929Y0090327D01*
X0240000Y0087398D01*
X0240000Y0083256D01*
X0242929Y0080327D01*
X0240731Y0082525D02*
X0239269Y0082525D01*
X0240000Y0084124D02*
X0240000Y0084124D01*
X0240000Y0085722D02*
X0240000Y0085722D01*
X0240000Y0087321D02*
X0240000Y0087321D01*
X0238479Y0088919D02*
X0241521Y0088919D01*
X0242738Y0090518D02*
X0237262Y0090518D01*
X0238860Y0092116D02*
X0241140Y0092116D01*
X0240000Y0093256D02*
X0240000Y0097398D01*
X0240650Y0098048D01*
X0239350Y0098048D01*
X0240000Y0097398D01*
X0240000Y0093256D01*
X0240000Y0093715D02*
X0240000Y0093715D01*
X0240000Y0095313D02*
X0240000Y0095313D01*
X0240000Y0096912D02*
X0240000Y0096912D01*
X0249350Y0098048D02*
X0250650Y0098048D01*
X0250000Y0097398D01*
X0250000Y0093256D01*
X0250000Y0097398D01*
X0249350Y0098048D01*
X0250000Y0096912D02*
X0250000Y0096912D01*
X0250000Y0095313D02*
X0250000Y0095313D01*
X0250000Y0093715D02*
X0250000Y0093715D01*
X0248860Y0092116D02*
X0251140Y0092116D01*
X0252738Y0090518D02*
X0247262Y0090518D01*
X0248479Y0088919D02*
X0251521Y0088919D01*
X0252929Y0090327D02*
X0250000Y0087398D01*
X0250000Y0083256D01*
X0252929Y0080327D01*
X0257071Y0080327D01*
X0260000Y0083256D01*
X0260000Y0087398D01*
X0257071Y0090327D01*
X0252929Y0090327D01*
X0250000Y0087321D02*
X0250000Y0087321D01*
X0250000Y0085722D02*
X0250000Y0085722D01*
X0250000Y0084124D02*
X0250000Y0084124D01*
X0249269Y0082525D02*
X0250731Y0082525D01*
X0252329Y0080927D02*
X0247671Y0080927D01*
X0257671Y0080927D02*
X0262329Y0080927D01*
X0262929Y0080327D02*
X0267071Y0080327D01*
X0270000Y0083256D01*
X0270000Y0087398D01*
X0267071Y0090327D01*
X0262929Y0090327D01*
X0260000Y0087398D01*
X0260000Y0083256D01*
X0262929Y0080327D01*
X0260731Y0082525D02*
X0259269Y0082525D01*
X0260000Y0084124D02*
X0260000Y0084124D01*
X0260000Y0085722D02*
X0260000Y0085722D01*
X0260000Y0087321D02*
X0260000Y0087321D01*
X0258479Y0088919D02*
X0261521Y0088919D01*
X0262738Y0090518D02*
X0257262Y0090518D01*
X0258860Y0092116D02*
X0261140Y0092116D01*
X0260000Y0093256D02*
X0260000Y0097398D01*
X0260650Y0098048D01*
X0259350Y0098048D01*
X0260000Y0097398D01*
X0260000Y0093256D01*
X0260000Y0093715D02*
X0260000Y0093715D01*
X0260000Y0095313D02*
X0260000Y0095313D01*
X0260000Y0096912D02*
X0260000Y0096912D01*
X0268860Y0092116D02*
X0271140Y0092116D01*
X0270000Y0093256D02*
X0270000Y0097398D01*
X0270650Y0098048D01*
X0269350Y0098048D01*
X0270000Y0097398D01*
X0270000Y0093256D01*
X0270000Y0093715D02*
X0270000Y0093715D01*
X0270000Y0095313D02*
X0270000Y0095313D01*
X0270000Y0096912D02*
X0270000Y0096912D01*
X0267262Y0090518D02*
X0272738Y0090518D01*
X0272929Y0090327D02*
X0270000Y0087398D01*
X0270000Y0083256D01*
X0272929Y0080327D01*
X0277071Y0080327D01*
X0280000Y0083256D01*
X0280000Y0087398D01*
X0277071Y0090327D01*
X0272929Y0090327D01*
X0271521Y0088919D02*
X0268479Y0088919D01*
X0270000Y0087321D02*
X0270000Y0087321D01*
X0270000Y0085722D02*
X0270000Y0085722D01*
X0270000Y0084124D02*
X0270000Y0084124D01*
X0269269Y0082525D02*
X0270731Y0082525D01*
X0272329Y0080927D02*
X0267671Y0080927D01*
X0277671Y0080927D02*
X0282329Y0080927D01*
X0282929Y0080327D02*
X0287071Y0080327D01*
X0290000Y0083256D01*
X0290000Y0087398D01*
X0287071Y0090327D01*
X0282929Y0090327D01*
X0280000Y0087398D01*
X0280000Y0083256D01*
X0282929Y0080327D01*
X0280731Y0082525D02*
X0279269Y0082525D01*
X0280000Y0084124D02*
X0280000Y0084124D01*
X0280000Y0085722D02*
X0280000Y0085722D01*
X0280000Y0087321D02*
X0280000Y0087321D01*
X0278479Y0088919D02*
X0281521Y0088919D01*
X0282738Y0090518D02*
X0277262Y0090518D01*
X0278860Y0092116D02*
X0281140Y0092116D01*
X0280000Y0093256D02*
X0280000Y0097398D01*
X0280650Y0098048D01*
X0279350Y0098048D01*
X0280000Y0097398D01*
X0280000Y0093256D01*
X0280000Y0093715D02*
X0280000Y0093715D01*
X0280000Y0095313D02*
X0280000Y0095313D01*
X0280000Y0096912D02*
X0280000Y0096912D01*
X0289350Y0098048D02*
X0290000Y0097398D01*
X0290000Y0093256D01*
X0290000Y0097398D01*
X0290650Y0098048D01*
X0289350Y0098048D01*
X0290000Y0096912D02*
X0290000Y0096912D01*
X0290000Y0095313D02*
X0290000Y0095313D01*
X0290000Y0093715D02*
X0290000Y0093715D01*
X0288860Y0092116D02*
X0291140Y0092116D01*
X0292738Y0090518D02*
X0287262Y0090518D01*
X0288479Y0088919D02*
X0291521Y0088919D01*
X0292929Y0090327D02*
X0290000Y0087398D01*
X0290000Y0083256D01*
X0292929Y0080327D01*
X0297071Y0080327D01*
X0300000Y0083256D01*
X0300000Y0087398D01*
X0297071Y0090327D01*
X0292929Y0090327D01*
X0290000Y0087321D02*
X0290000Y0087321D01*
X0290000Y0085722D02*
X0290000Y0085722D01*
X0290000Y0084124D02*
X0290000Y0084124D01*
X0289269Y0082525D02*
X0290731Y0082525D01*
X0292329Y0080927D02*
X0287671Y0080927D01*
X0297671Y0080927D02*
X0302329Y0080927D01*
X0302929Y0080327D02*
X0300000Y0083256D01*
X0300000Y0087398D01*
X0302929Y0090327D01*
X0307071Y0090327D01*
X0310000Y0087398D01*
X0310000Y0083256D01*
X0307071Y0080327D01*
X0302929Y0080327D01*
X0300731Y0082525D02*
X0299269Y0082525D01*
X0300000Y0084124D02*
X0300000Y0084124D01*
X0300000Y0085722D02*
X0300000Y0085722D01*
X0300000Y0087321D02*
X0300000Y0087321D01*
X0298479Y0088919D02*
X0301521Y0088919D01*
X0302738Y0090518D02*
X0297262Y0090518D01*
X0298860Y0092116D02*
X0301140Y0092116D01*
X0300000Y0093256D02*
X0300000Y0097398D01*
X0300650Y0098048D01*
X0299350Y0098048D01*
X0300000Y0097398D01*
X0300000Y0093256D01*
X0300000Y0093715D02*
X0300000Y0093715D01*
X0300000Y0095313D02*
X0300000Y0095313D01*
X0300000Y0096912D02*
X0300000Y0096912D01*
X0309350Y0098048D02*
X0310000Y0097398D01*
X0310000Y0093256D01*
X0310000Y0097398D01*
X0310650Y0098048D01*
X0309350Y0098048D01*
X0310000Y0096912D02*
X0310000Y0096912D01*
X0310000Y0095313D02*
X0310000Y0095313D01*
X0310000Y0093715D02*
X0310000Y0093715D01*
X0308860Y0092116D02*
X0311140Y0092116D01*
X0312738Y0090518D02*
X0307262Y0090518D01*
X0308479Y0088919D02*
X0311521Y0088919D01*
X0312929Y0090327D02*
X0310000Y0087398D01*
X0310000Y0083256D01*
X0312929Y0080327D01*
X0317071Y0080327D01*
X0320000Y0083256D01*
X0320000Y0087398D01*
X0317071Y0090327D01*
X0312929Y0090327D01*
X0310000Y0087321D02*
X0310000Y0087321D01*
X0310000Y0085722D02*
X0310000Y0085722D01*
X0310000Y0084124D02*
X0310000Y0084124D01*
X0309269Y0082525D02*
X0310731Y0082525D01*
X0312329Y0080927D02*
X0307671Y0080927D01*
X0317262Y0090518D02*
X0322738Y0090518D01*
X0322929Y0090327D02*
X0320000Y0087398D01*
X0320000Y0083256D01*
X0322929Y0080327D01*
X0327071Y0080327D01*
X0330000Y0083256D01*
X0330000Y0087398D01*
X0327071Y0090327D01*
X0322929Y0090327D01*
X0321521Y0088919D02*
X0318479Y0088919D01*
X0320000Y0087321D02*
X0320000Y0087321D01*
X0320000Y0085722D02*
X0320000Y0085722D01*
X0320000Y0084124D02*
X0320000Y0084124D01*
X0319269Y0082525D02*
X0320731Y0082525D01*
X0322329Y0080927D02*
X0317671Y0080927D01*
X0327671Y0080927D02*
X0332329Y0080927D01*
X0332929Y0080327D02*
X0337071Y0080327D01*
X0340000Y0083256D01*
X0340000Y0087398D01*
X0337071Y0090327D01*
X0332929Y0090327D01*
X0330000Y0087398D01*
X0330000Y0083256D01*
X0332929Y0080327D01*
X0330731Y0082525D02*
X0329269Y0082525D01*
X0330000Y0084124D02*
X0330000Y0084124D01*
X0330000Y0085722D02*
X0330000Y0085722D01*
X0330000Y0087321D02*
X0330000Y0087321D01*
X0328479Y0088919D02*
X0331521Y0088919D01*
X0332738Y0090518D02*
X0327262Y0090518D01*
X0328860Y0092116D02*
X0331140Y0092116D01*
X0330000Y0093256D02*
X0330000Y0097398D01*
X0330650Y0098048D01*
X0329350Y0098048D01*
X0330000Y0097398D01*
X0330000Y0093256D01*
X0330000Y0093715D02*
X0330000Y0093715D01*
X0330000Y0095313D02*
X0330000Y0095313D01*
X0330000Y0096912D02*
X0330000Y0096912D01*
X0339350Y0098048D02*
X0340000Y0097398D01*
X0340000Y0093256D01*
X0340000Y0097398D01*
X0340650Y0098048D01*
X0339350Y0098048D01*
X0340000Y0096912D02*
X0340000Y0096912D01*
X0340000Y0095313D02*
X0340000Y0095313D01*
X0340000Y0093715D02*
X0340000Y0093715D01*
X0338860Y0092116D02*
X0341140Y0092116D01*
X0342738Y0090518D02*
X0337262Y0090518D01*
X0338479Y0088919D02*
X0341521Y0088919D01*
X0342929Y0090327D02*
X0340000Y0087398D01*
X0340000Y0083256D01*
X0342929Y0080327D01*
X0347071Y0080327D01*
X0350000Y0083256D01*
X0350000Y0087398D01*
X0347071Y0090327D01*
X0342929Y0090327D01*
X0340000Y0087321D02*
X0340000Y0087321D01*
X0340000Y0085722D02*
X0340000Y0085722D01*
X0340000Y0084124D02*
X0340000Y0084124D01*
X0339269Y0082525D02*
X0340731Y0082525D01*
X0342329Y0080927D02*
X0337671Y0080927D01*
X0347671Y0080927D02*
X0352329Y0080927D01*
X0352929Y0080327D02*
X0357071Y0080327D01*
X0360000Y0083256D01*
X0360000Y0087398D01*
X0357071Y0090327D01*
X0352929Y0090327D01*
X0350000Y0087398D01*
X0350000Y0083256D01*
X0352929Y0080327D01*
X0350731Y0082525D02*
X0349269Y0082525D01*
X0350000Y0084124D02*
X0350000Y0084124D01*
X0350000Y0085722D02*
X0350000Y0085722D01*
X0350000Y0087321D02*
X0350000Y0087321D01*
X0348479Y0088919D02*
X0351521Y0088919D01*
X0352738Y0090518D02*
X0347262Y0090518D01*
X0348860Y0092116D02*
X0351140Y0092116D01*
X0350000Y0093256D02*
X0350000Y0097398D01*
X0350650Y0098048D01*
X0349350Y0098048D01*
X0350000Y0097398D01*
X0350000Y0093256D01*
X0350000Y0093715D02*
X0350000Y0093715D01*
X0350000Y0095313D02*
X0350000Y0095313D01*
X0350000Y0096912D02*
X0350000Y0096912D01*
X0357262Y0090518D02*
X0370619Y0090518D01*
X0369868Y0088919D02*
X0358479Y0088919D01*
X0360000Y0087321D02*
X0368270Y0087321D01*
X0366671Y0085722D02*
X0360000Y0085722D01*
X0360000Y0084124D02*
X0365073Y0084124D01*
X0363474Y0082525D02*
X0359269Y0082525D01*
X0357671Y0080927D02*
X0361876Y0080927D01*
X0358860Y0092116D02*
X0369300Y0092116D01*
X0369300Y0093715D02*
X0360000Y0093715D01*
X0360000Y0095313D02*
X0369300Y0095313D01*
X0368892Y0096912D02*
X0360000Y0096912D01*
X0391992Y0069737D02*
X0429474Y0069737D01*
X0428812Y0068139D02*
X0390393Y0068139D01*
X0388795Y0066540D02*
X0428519Y0066540D01*
X0428519Y0064942D02*
X0405719Y0064942D01*
X0406927Y0063343D02*
X0428845Y0063343D01*
X0429508Y0061745D02*
X0407519Y0061745D01*
X0407519Y0060146D02*
X0408123Y0060146D01*
X0415515Y0060146D02*
X0430717Y0060146D01*
X0432595Y0058548D02*
X0416842Y0058548D01*
X0430636Y0071336D02*
X0393590Y0071336D01*
X0395189Y0072934D02*
X0432401Y0072934D01*
X0428619Y0074533D02*
X0396787Y0074533D01*
X0398386Y0076131D02*
X0426997Y0076131D01*
X0425894Y0077730D02*
X0399984Y0077730D01*
X0401583Y0079328D02*
X0425232Y0079328D01*
X0424981Y0080927D02*
X0412851Y0080927D01*
X0413980Y0082525D02*
X0424981Y0082525D01*
X0425349Y0084124D02*
X0413980Y0084124D01*
X0413980Y0085722D02*
X0426011Y0085722D01*
X0427279Y0087321D02*
X0413980Y0087321D01*
X0413980Y0088919D02*
X0429300Y0088919D01*
X0403710Y0080927D02*
X0403181Y0080927D01*
X0397918Y0064942D02*
X0387196Y0064942D01*
X0385598Y0063343D02*
X0396710Y0063343D01*
X0392494Y0061745D02*
X0383999Y0061745D01*
X0382401Y0060146D02*
X0390895Y0060146D01*
X0389297Y0058548D02*
X0380802Y0058548D01*
X0379204Y0056949D02*
X0387698Y0056949D01*
X0386100Y0055351D02*
X0377605Y0055351D01*
X0376007Y0053752D02*
X0384501Y0053752D01*
X0382903Y0052154D02*
X0374408Y0052154D01*
X0372809Y0050555D02*
X0381304Y0050555D01*
X0379706Y0048957D02*
X0374820Y0048957D01*
X0376180Y0047358D02*
X0378107Y0047358D01*
X0321140Y0092116D02*
X0318860Y0092116D01*
X0320000Y0093256D02*
X0320000Y0097398D01*
X0320000Y0093256D01*
X0320000Y0093715D02*
X0320000Y0093715D01*
X0320000Y0095313D02*
X0320000Y0095313D01*
X0320000Y0096912D02*
X0320000Y0096912D01*
X0320000Y0097398D02*
X0320650Y0098048D01*
X0319350Y0098048D01*
X0320000Y0097398D01*
X0281882Y0066540D02*
X0280200Y0066540D01*
X0191140Y0092116D02*
X0188860Y0092116D01*
X0190000Y0093256D02*
X0190000Y0097398D01*
X0190000Y0093256D01*
X0190000Y0093715D02*
X0190000Y0093715D01*
X0190000Y0095313D02*
X0190000Y0095313D01*
X0190000Y0096912D02*
X0190000Y0096912D01*
X0190000Y0097398D02*
X0190650Y0098048D01*
X0189350Y0098048D01*
X0190000Y0097398D01*
X0138256Y0111298D02*
X0138043Y0111298D01*
X0139546Y0055351D02*
X0156500Y0055351D01*
X0156500Y0053752D02*
X0137948Y0053752D01*
X0136349Y0052154D02*
X0156500Y0052154D01*
X0156500Y0050555D02*
X0134751Y0050555D01*
X0130717Y0045759D02*
X0129955Y0045759D01*
X0129410Y0044161D02*
X0130590Y0044161D01*
X0130748Y0042562D02*
X0129252Y0042562D01*
X0128590Y0040964D02*
X0131410Y0040964D01*
X0132813Y0039365D02*
X0127187Y0039365D01*
X0140967Y0039365D02*
X0146592Y0039365D01*
X0145190Y0040964D02*
X0142369Y0040964D01*
X0143031Y0042562D02*
X0144528Y0042562D01*
X0144369Y0044161D02*
X0143190Y0044161D01*
X0143062Y0045759D02*
X0144497Y0045759D01*
X0145159Y0047358D02*
X0142400Y0047358D01*
X0141041Y0048957D02*
X0146518Y0048957D01*
X0154820Y0048957D02*
X0156500Y0048957D01*
X0156500Y0047358D02*
X0156180Y0047358D01*
X0156149Y0040964D02*
X0156582Y0040964D01*
X0158180Y0039365D02*
X0154746Y0039365D01*
X0161590Y0184830D02*
X0106512Y0184830D01*
X0104914Y0186428D02*
X0160194Y0186428D01*
X0159532Y0188027D02*
X0103315Y0188027D01*
X0101717Y0189626D02*
X0159500Y0189626D01*
X0159886Y0191224D02*
X0100118Y0191224D01*
X0097718Y0194421D02*
X0102565Y0194421D01*
X0100966Y0196020D02*
X0099317Y0196020D01*
X0105000Y0196020D02*
X0105000Y0196020D01*
X0105000Y0197618D02*
X0105000Y0197618D01*
X0105000Y0199198D02*
X0105000Y0204298D01*
X0105000Y0199198D01*
X0105000Y0199198D01*
X0105000Y0199217D02*
X0105000Y0199217D01*
X0105000Y0200815D02*
X0105000Y0200815D01*
X0105000Y0202414D02*
X0105000Y0202414D01*
X0105000Y0204012D02*
X0105000Y0204012D01*
X0107399Y0204012D02*
X0116792Y0204012D01*
X0118390Y0202414D02*
X0108997Y0202414D01*
X0110100Y0200815D02*
X0120000Y0200815D01*
X0120000Y0199217D02*
X0110100Y0199217D01*
X0110100Y0197618D02*
X0120000Y0197618D01*
X0121108Y0196020D02*
X0109034Y0196020D01*
X0107435Y0194421D02*
X0122706Y0194421D01*
X0127294Y0194421D02*
X0132706Y0194421D01*
X0131108Y0196020D02*
X0128892Y0196020D01*
X0130000Y0197127D02*
X0130000Y0201269D01*
X0130529Y0201798D01*
X0129471Y0201798D01*
X0130000Y0201269D01*
X0130000Y0197127D01*
X0130000Y0197618D02*
X0130000Y0197618D01*
X0130000Y0199217D02*
X0130000Y0199217D01*
X0130000Y0200815D02*
X0130000Y0200815D01*
X0138892Y0196020D02*
X0141108Y0196020D01*
X0140000Y0197127D02*
X0140000Y0201269D01*
X0140529Y0201798D01*
X0139471Y0201798D01*
X0140000Y0201269D01*
X0140000Y0197127D01*
X0140000Y0197618D02*
X0140000Y0197618D01*
X0140000Y0199217D02*
X0140000Y0199217D01*
X0140000Y0200815D02*
X0140000Y0200815D01*
X0148892Y0196020D02*
X0151108Y0196020D01*
X0150000Y0197127D02*
X0150000Y0201269D01*
X0150529Y0201798D01*
X0149471Y0201798D01*
X0150000Y0201269D01*
X0150000Y0197127D01*
X0150000Y0197618D02*
X0150000Y0197618D01*
X0150000Y0199217D02*
X0150000Y0199217D01*
X0150000Y0200815D02*
X0150000Y0200815D01*
X0147294Y0194421D02*
X0152706Y0194421D01*
X0157294Y0194421D02*
X0162706Y0194421D01*
X0161108Y0196020D02*
X0158892Y0196020D01*
X0160000Y0197127D02*
X0160000Y0201269D01*
X0160529Y0201798D01*
X0159471Y0201798D01*
X0160000Y0201269D01*
X0160000Y0197127D01*
X0160000Y0197618D02*
X0160000Y0197618D01*
X0160000Y0199217D02*
X0160000Y0199217D01*
X0160000Y0200815D02*
X0160000Y0200815D01*
X0160846Y0192823D02*
X0089900Y0192823D01*
X0089900Y0194421D02*
X0092282Y0194421D01*
X0090683Y0196020D02*
X0089900Y0196020D01*
X0085100Y0196020D02*
X0084034Y0196020D01*
X0085100Y0197086D02*
X0085100Y0199198D01*
X0080000Y0199198D01*
X0080000Y0194098D01*
X0082112Y0194098D01*
X0085100Y0197086D01*
X0085100Y0197618D02*
X0085100Y0197618D01*
X0085100Y0199198D02*
X0080000Y0199198D01*
X0080000Y0199198D01*
X0080000Y0194098D01*
X0077888Y0194098D01*
X0075141Y0196844D01*
X0072195Y0193898D01*
X0071194Y0193898D01*
X0074794Y0190298D01*
X0075716Y0190298D01*
X0077039Y0189750D01*
X0078052Y0188737D01*
X0078600Y0187414D01*
X0078600Y0185982D01*
X0078565Y0185898D01*
X0081047Y0185898D01*
X0085100Y0189951D01*
X0085100Y0211954D01*
X0083299Y0213755D01*
X0083299Y0210220D01*
X0082128Y0209049D01*
X0079900Y0209049D01*
X0079900Y0206221D01*
X0079535Y0205339D01*
X0078494Y0204298D01*
X0080000Y0204298D01*
X0080000Y0199198D01*
X0080000Y0199198D01*
X0080000Y0199198D01*
X0080000Y0204298D01*
X0082112Y0204298D01*
X0085100Y0201311D01*
X0085100Y0199198D01*
X0085100Y0199217D02*
X0085100Y0199217D01*
X0085100Y0200815D02*
X0085100Y0200815D01*
X0085100Y0202414D02*
X0083997Y0202414D01*
X0085100Y0204012D02*
X0082399Y0204012D01*
X0080000Y0204012D02*
X0080000Y0204012D01*
X0080000Y0202414D02*
X0080000Y0202414D01*
X0080000Y0200815D02*
X0080000Y0200815D01*
X0080000Y0199217D02*
X0080000Y0199217D01*
X0080000Y0197618D02*
X0080000Y0197618D01*
X0080000Y0196020D02*
X0080000Y0196020D01*
X0080000Y0194421D02*
X0080000Y0194421D01*
X0082435Y0194421D02*
X0085100Y0194421D01*
X0085100Y0192823D02*
X0072270Y0192823D01*
X0072718Y0194421D02*
X0077565Y0194421D01*
X0075966Y0196020D02*
X0074317Y0196020D01*
X0073868Y0191224D02*
X0085100Y0191224D01*
X0084775Y0189626D02*
X0077164Y0189626D01*
X0078346Y0188027D02*
X0083176Y0188027D01*
X0081578Y0186428D02*
X0078600Y0186428D01*
X0097681Y0204012D02*
X0102601Y0204012D01*
X0101003Y0202414D02*
X0099280Y0202414D01*
X0094900Y0205611D02*
X0115193Y0205611D01*
X0113595Y0207209D02*
X0094900Y0207209D01*
X0094900Y0208808D02*
X0111996Y0208808D01*
X0110398Y0210406D02*
X0094900Y0210406D01*
X0094900Y0212005D02*
X0108799Y0212005D01*
X0107201Y0213603D02*
X0094900Y0213603D01*
X0094900Y0215202D02*
X0105602Y0215202D01*
X0104004Y0216800D02*
X0094900Y0216800D01*
X0094900Y0218399D02*
X0102405Y0218399D01*
X0085049Y0212005D02*
X0083299Y0212005D01*
X0083299Y0213603D02*
X0083451Y0213603D01*
X0083299Y0210406D02*
X0085100Y0210406D01*
X0085100Y0208808D02*
X0079900Y0208808D01*
X0079900Y0207209D02*
X0085100Y0207209D01*
X0085100Y0205611D02*
X0079647Y0205611D01*
X0105000Y0194421D02*
X0105000Y0194421D01*
X0137294Y0194421D02*
X0142706Y0194421D01*
X0168410Y0184830D02*
X0171590Y0184830D01*
X0170194Y0186428D02*
X0169806Y0186428D01*
X0178410Y0184830D02*
X0181590Y0184830D01*
X0180194Y0186428D02*
X0179806Y0186428D01*
X0188410Y0184830D02*
X0191590Y0184830D01*
X0190194Y0186428D02*
X0189806Y0186428D01*
X0198410Y0184830D02*
X0201590Y0184830D01*
X0200194Y0186428D02*
X0199806Y0186428D01*
X0208410Y0184830D02*
X0211590Y0184830D01*
X0210194Y0186428D02*
X0209806Y0186428D01*
X0218410Y0184830D02*
X0221590Y0184830D01*
X0220194Y0186428D02*
X0219806Y0186428D01*
X0228410Y0184830D02*
X0231590Y0184830D01*
X0230194Y0186428D02*
X0229806Y0186428D01*
X0238410Y0184830D02*
X0241590Y0184830D01*
X0240194Y0186428D02*
X0239806Y0186428D01*
X0248410Y0184830D02*
X0251590Y0184830D01*
X0250194Y0186428D02*
X0249806Y0186428D01*
X0258410Y0184830D02*
X0261590Y0184830D01*
X0260194Y0186428D02*
X0259806Y0186428D01*
X0268410Y0184830D02*
X0271590Y0184830D01*
X0270194Y0186428D02*
X0269806Y0186428D01*
X0278410Y0184830D02*
X0281590Y0184830D01*
X0280194Y0186428D02*
X0279806Y0186428D01*
X0288410Y0184830D02*
X0291590Y0184830D01*
X0290194Y0186428D02*
X0289806Y0186428D01*
X0298410Y0184830D02*
X0301590Y0184830D01*
X0300194Y0186428D02*
X0299806Y0186428D01*
X0308410Y0184830D02*
X0311590Y0184830D01*
X0310194Y0186428D02*
X0309806Y0186428D01*
X0318410Y0184830D02*
X0321590Y0184830D01*
X0320194Y0186428D02*
X0319806Y0186428D01*
X0328410Y0184830D02*
X0331590Y0184830D01*
X0330194Y0186428D02*
X0329806Y0186428D01*
X0338410Y0184830D02*
X0341590Y0184830D01*
X0340194Y0186428D02*
X0339806Y0186428D01*
X0348410Y0184830D02*
X0351590Y0184830D01*
X0350194Y0186428D02*
X0349806Y0186428D01*
X0400969Y0128882D02*
X0425249Y0128882D01*
X0424981Y0127284D02*
X0402567Y0127284D01*
X0404166Y0125685D02*
X0424981Y0125685D01*
X0425332Y0124087D02*
X0405764Y0124087D01*
X0407363Y0122488D02*
X0425994Y0122488D01*
X0427239Y0120890D02*
X0412037Y0120890D01*
X0413329Y0119291D02*
X0429203Y0119291D01*
X0415500Y0274347D02*
X0447018Y0274347D01*
X0447006Y0275945D02*
X0414706Y0275945D01*
X0413739Y0277544D02*
X0446993Y0277544D01*
X0446981Y0279142D02*
X0414027Y0279142D01*
X0413930Y0280741D02*
X0446969Y0280741D01*
X0446956Y0282339D02*
X0413267Y0282339D01*
X0411822Y0283938D02*
X0446944Y0283938D01*
X0446932Y0285536D02*
X0412552Y0285536D01*
X0413570Y0287135D02*
X0446919Y0287135D01*
X0446907Y0288733D02*
X0414027Y0288733D01*
X0414027Y0290332D02*
X0446895Y0290332D01*
X0446882Y0291930D02*
X0413437Y0291930D01*
X0412231Y0293529D02*
X0446870Y0293529D01*
X0446858Y0295127D02*
X0412143Y0295127D01*
X0413400Y0296726D02*
X0446845Y0296726D01*
X0446833Y0298324D02*
X0414027Y0298324D01*
X0414027Y0299923D02*
X0446821Y0299923D01*
X0446808Y0301521D02*
X0436060Y0301521D01*
X0438811Y0303120D02*
X0446796Y0303120D01*
X0446784Y0304718D02*
X0440382Y0304718D01*
X0441044Y0306317D02*
X0446771Y0306317D01*
X0446759Y0307915D02*
X0441626Y0307915D01*
X0441626Y0309514D02*
X0446747Y0309514D01*
X0446734Y0311112D02*
X0441589Y0311112D01*
X0440927Y0312711D02*
X0446722Y0312711D01*
X0446710Y0314309D02*
X0440127Y0314309D01*
X0438528Y0315908D02*
X0446697Y0315908D01*
X0428125Y0315908D02*
X0056478Y0315908D01*
X0056478Y0314309D02*
X0426527Y0314309D01*
X0425727Y0312711D02*
X0387961Y0312711D01*
X0391202Y0311112D02*
X0425064Y0311112D01*
X0425028Y0309514D02*
X0400809Y0309514D01*
X0402845Y0307915D02*
X0425028Y0307915D01*
X0425609Y0306317D02*
X0403691Y0306317D01*
X0404027Y0304718D02*
X0406338Y0304718D01*
X0404013Y0303120D02*
X0403978Y0303120D01*
X0410315Y0304718D02*
X0426271Y0304718D01*
X0427842Y0303120D02*
X0412640Y0303120D01*
X0413606Y0301521D02*
X0430594Y0301521D01*
X0395845Y0309514D02*
X0392801Y0309514D01*
X0393638Y0307915D02*
X0393809Y0307915D01*
X0384166Y0312711D02*
X0342961Y0312711D01*
X0342715Y0312813D02*
X0339413Y0312813D01*
X0336363Y0311550D01*
X0334028Y0309215D01*
X0332765Y0306165D01*
X0332765Y0302863D01*
X0334028Y0299813D01*
X0336363Y0297478D01*
X0339413Y0296215D01*
X0342715Y0296215D01*
X0345765Y0297478D01*
X0348099Y0299813D01*
X0349363Y0302863D01*
X0349363Y0306165D01*
X0348099Y0309215D01*
X0345765Y0311550D01*
X0342715Y0312813D01*
X0339166Y0312711D02*
X0056478Y0312711D01*
X0056478Y0311112D02*
X0335925Y0311112D01*
X0334327Y0309514D02*
X0329263Y0309514D01*
X0329238Y0309539D02*
X0326922Y0310498D01*
X0324416Y0310498D01*
X0322101Y0309539D01*
X0320328Y0307767D01*
X0319369Y0305451D01*
X0319369Y0302945D01*
X0320328Y0300630D01*
X0322101Y0298857D01*
X0324416Y0297898D01*
X0326922Y0297898D01*
X0329238Y0298857D01*
X0331010Y0300630D01*
X0331969Y0302945D01*
X0331969Y0305451D01*
X0331010Y0307767D01*
X0329238Y0309539D01*
X0330862Y0307915D02*
X0333490Y0307915D01*
X0332828Y0306317D02*
X0331611Y0306317D01*
X0331969Y0304718D02*
X0332765Y0304718D01*
X0332765Y0303120D02*
X0331969Y0303120D01*
X0331380Y0301521D02*
X0333320Y0301521D01*
X0333982Y0299923D02*
X0330303Y0299923D01*
X0327951Y0298324D02*
X0335516Y0298324D01*
X0338179Y0296726D02*
X0056478Y0296726D01*
X0056478Y0298324D02*
X0062049Y0298324D01*
X0063078Y0297898D02*
X0060762Y0298857D01*
X0058990Y0300630D01*
X0058031Y0302945D01*
X0058031Y0305451D01*
X0058990Y0307767D01*
X0060762Y0309539D01*
X0063078Y0310498D01*
X0065584Y0310498D01*
X0067899Y0309539D01*
X0069672Y0307767D01*
X0070631Y0305451D01*
X0070631Y0302945D01*
X0069672Y0300630D01*
X0067899Y0298857D01*
X0065584Y0297898D01*
X0063078Y0297898D01*
X0066613Y0298324D02*
X0075828Y0298324D01*
X0076857Y0297898D02*
X0079363Y0297898D01*
X0081679Y0298857D01*
X0083451Y0300630D01*
X0084410Y0302945D01*
X0084410Y0305451D01*
X0083451Y0307767D01*
X0081679Y0309539D01*
X0079363Y0310498D01*
X0076857Y0310498D01*
X0074542Y0309539D01*
X0072769Y0307767D01*
X0071810Y0305451D01*
X0071810Y0302945D01*
X0072769Y0300630D01*
X0074542Y0298857D01*
X0076857Y0297898D01*
X0080392Y0298324D02*
X0089608Y0298324D01*
X0090637Y0297898D02*
X0093143Y0297898D01*
X0095458Y0298857D01*
X0097231Y0300630D01*
X0098190Y0302945D01*
X0098190Y0305451D01*
X0097231Y0307767D01*
X0095458Y0309539D01*
X0093143Y0310498D01*
X0090637Y0310498D01*
X0088321Y0309539D01*
X0086549Y0307767D01*
X0085590Y0305451D01*
X0085590Y0302945D01*
X0086549Y0300630D01*
X0088321Y0298857D01*
X0090637Y0297898D01*
X0094172Y0298324D02*
X0103387Y0298324D01*
X0104416Y0297898D02*
X0106922Y0297898D01*
X0109238Y0298857D01*
X0111010Y0300630D01*
X0111969Y0302945D01*
X0111969Y0305451D01*
X0111010Y0307767D01*
X0109238Y0309539D01*
X0106922Y0310498D01*
X0104416Y0310498D01*
X0102101Y0309539D01*
X0100328Y0307767D01*
X0099369Y0305451D01*
X0099369Y0302945D01*
X0100328Y0300630D01*
X0102101Y0298857D01*
X0104416Y0297898D01*
X0107951Y0298324D02*
X0117049Y0298324D01*
X0118078Y0297898D02*
X0120584Y0297898D01*
X0122899Y0298857D01*
X0124672Y0300630D01*
X0125631Y0302945D01*
X0125631Y0305451D01*
X0124672Y0307767D01*
X0122899Y0309539D01*
X0120584Y0310498D01*
X0118078Y0310498D01*
X0115762Y0309539D01*
X0113990Y0307767D01*
X0113031Y0305451D01*
X0113031Y0302945D01*
X0113990Y0300630D01*
X0115762Y0298857D01*
X0118078Y0297898D01*
X0121612Y0298324D02*
X0130828Y0298324D01*
X0131857Y0297898D02*
X0134363Y0297898D01*
X0136679Y0298857D01*
X0138451Y0300630D01*
X0139410Y0302945D01*
X0139410Y0305451D01*
X0138451Y0307767D01*
X0136679Y0309539D01*
X0134363Y0310498D01*
X0131857Y0310498D01*
X0129542Y0309539D01*
X0127769Y0307767D01*
X0126810Y0305451D01*
X0126810Y0302945D01*
X0127769Y0300630D01*
X0129542Y0298857D01*
X0131857Y0297898D01*
X0135392Y0298324D02*
X0144608Y0298324D01*
X0145637Y0297898D02*
X0148143Y0297898D01*
X0150458Y0298857D01*
X0152231Y0300630D01*
X0153190Y0302945D01*
X0153190Y0305451D01*
X0152231Y0307767D01*
X0150458Y0309539D01*
X0148143Y0310498D01*
X0145637Y0310498D01*
X0143321Y0309539D01*
X0141549Y0307767D01*
X0140590Y0305451D01*
X0140590Y0302945D01*
X0141549Y0300630D01*
X0143321Y0298857D01*
X0145637Y0297898D01*
X0149172Y0298324D02*
X0158387Y0298324D01*
X0159416Y0297898D02*
X0157101Y0298857D01*
X0155328Y0300630D01*
X0154369Y0302945D01*
X0154369Y0305451D01*
X0155328Y0307767D01*
X0157101Y0309539D01*
X0159416Y0310498D01*
X0161922Y0310498D01*
X0164238Y0309539D01*
X0166010Y0307767D01*
X0166969Y0305451D01*
X0166969Y0302945D01*
X0166010Y0300630D01*
X0164238Y0298857D01*
X0161922Y0297898D01*
X0159416Y0297898D01*
X0162951Y0298324D02*
X0172049Y0298324D01*
X0173078Y0297898D02*
X0170762Y0298857D01*
X0168990Y0300630D01*
X0168031Y0302945D01*
X0168031Y0305451D01*
X0168990Y0307767D01*
X0170762Y0309539D01*
X0173078Y0310498D01*
X0175584Y0310498D01*
X0177899Y0309539D01*
X0179672Y0307767D01*
X0180631Y0305451D01*
X0180631Y0302945D01*
X0179672Y0300630D01*
X0177899Y0298857D01*
X0175584Y0297898D01*
X0173078Y0297898D01*
X0176612Y0298324D02*
X0185828Y0298324D01*
X0186857Y0297898D02*
X0189363Y0297898D01*
X0191679Y0298857D01*
X0193451Y0300630D01*
X0194410Y0302945D01*
X0194410Y0305451D01*
X0193451Y0307767D01*
X0191679Y0309539D01*
X0189363Y0310498D01*
X0186857Y0310498D01*
X0184542Y0309539D01*
X0182769Y0307767D01*
X0181810Y0305451D01*
X0181810Y0302945D01*
X0182769Y0300630D01*
X0184542Y0298857D01*
X0186857Y0297898D01*
X0190392Y0298324D02*
X0199608Y0298324D01*
X0200637Y0297898D02*
X0203143Y0297898D01*
X0205458Y0298857D01*
X0207231Y0300630D01*
X0208190Y0302945D01*
X0208190Y0305451D01*
X0207231Y0307767D01*
X0205458Y0309539D01*
X0203143Y0310498D01*
X0200637Y0310498D01*
X0198321Y0309539D01*
X0196549Y0307767D01*
X0195590Y0305451D01*
X0195590Y0302945D01*
X0196549Y0300630D01*
X0198321Y0298857D01*
X0200637Y0297898D01*
X0204172Y0298324D02*
X0213387Y0298324D01*
X0214416Y0297898D02*
X0216922Y0297898D01*
X0219238Y0298857D01*
X0221010Y0300630D01*
X0221969Y0302945D01*
X0221969Y0305451D01*
X0221010Y0307767D01*
X0219238Y0309539D01*
X0216922Y0310498D01*
X0214416Y0310498D01*
X0212101Y0309539D01*
X0210328Y0307767D01*
X0209369Y0305451D01*
X0209369Y0302945D01*
X0210328Y0300630D01*
X0212101Y0298857D01*
X0214416Y0297898D01*
X0217951Y0298324D02*
X0227049Y0298324D01*
X0228078Y0297898D02*
X0230584Y0297898D01*
X0232899Y0298857D01*
X0234672Y0300630D01*
X0235631Y0302945D01*
X0235631Y0305451D01*
X0234672Y0307767D01*
X0232899Y0309539D01*
X0230584Y0310498D01*
X0228078Y0310498D01*
X0225762Y0309539D01*
X0223990Y0307767D01*
X0223031Y0305451D01*
X0223031Y0302945D01*
X0223990Y0300630D01*
X0225762Y0298857D01*
X0228078Y0297898D01*
X0231612Y0298324D02*
X0240828Y0298324D01*
X0241857Y0297898D02*
X0244363Y0297898D01*
X0246679Y0298857D01*
X0248451Y0300630D01*
X0249410Y0302945D01*
X0249410Y0305451D01*
X0248451Y0307767D01*
X0246679Y0309539D01*
X0244363Y0310498D01*
X0241857Y0310498D01*
X0239542Y0309539D01*
X0237769Y0307767D01*
X0236810Y0305451D01*
X0236810Y0302945D01*
X0237769Y0300630D01*
X0239542Y0298857D01*
X0241857Y0297898D01*
X0245392Y0298324D02*
X0254608Y0298324D01*
X0255637Y0297898D02*
X0253321Y0298857D01*
X0251549Y0300630D01*
X0250590Y0302945D01*
X0250590Y0305451D01*
X0251549Y0307767D01*
X0253321Y0309539D01*
X0255637Y0310498D01*
X0258143Y0310498D01*
X0260458Y0309539D01*
X0262231Y0307767D01*
X0263190Y0305451D01*
X0263190Y0302945D01*
X0262231Y0300630D01*
X0260458Y0298857D01*
X0258143Y0297898D01*
X0255637Y0297898D01*
X0259172Y0298324D02*
X0268387Y0298324D01*
X0269416Y0297898D02*
X0267101Y0298857D01*
X0265328Y0300630D01*
X0264369Y0302945D01*
X0264369Y0305451D01*
X0265328Y0307767D01*
X0267101Y0309539D01*
X0269416Y0310498D01*
X0271922Y0310498D01*
X0274238Y0309539D01*
X0276010Y0307767D01*
X0276969Y0305451D01*
X0276969Y0302945D01*
X0276010Y0300630D01*
X0274238Y0298857D01*
X0271922Y0297898D01*
X0269416Y0297898D01*
X0272951Y0298324D02*
X0282049Y0298324D01*
X0283078Y0297898D02*
X0285584Y0297898D01*
X0287899Y0298857D01*
X0289672Y0300630D01*
X0290631Y0302945D01*
X0290631Y0305451D01*
X0289672Y0307767D01*
X0287899Y0309539D01*
X0285584Y0310498D01*
X0283078Y0310498D01*
X0280762Y0309539D01*
X0278990Y0307767D01*
X0278031Y0305451D01*
X0278031Y0302945D01*
X0278990Y0300630D01*
X0280762Y0298857D01*
X0283078Y0297898D01*
X0286613Y0298324D02*
X0295828Y0298324D01*
X0296857Y0297898D02*
X0299363Y0297898D01*
X0301679Y0298857D01*
X0303451Y0300630D01*
X0304410Y0302945D01*
X0304410Y0305451D01*
X0303451Y0307767D01*
X0301679Y0309539D01*
X0299363Y0310498D01*
X0296857Y0310498D01*
X0294542Y0309539D01*
X0292769Y0307767D01*
X0291810Y0305451D01*
X0291810Y0302945D01*
X0292769Y0300630D01*
X0294542Y0298857D01*
X0296857Y0297898D01*
X0300392Y0298324D02*
X0309608Y0298324D01*
X0310637Y0297898D02*
X0313143Y0297898D01*
X0315458Y0298857D01*
X0317231Y0300630D01*
X0318190Y0302945D01*
X0318190Y0305451D01*
X0317231Y0307767D01*
X0315458Y0309539D01*
X0313143Y0310498D01*
X0310637Y0310498D01*
X0308321Y0309539D01*
X0306549Y0307767D01*
X0305590Y0305451D01*
X0305590Y0302945D01*
X0306549Y0300630D01*
X0308321Y0298857D01*
X0310637Y0297898D01*
X0314172Y0298324D02*
X0323387Y0298324D01*
X0321035Y0299923D02*
X0316524Y0299923D01*
X0317600Y0301521D02*
X0319959Y0301521D01*
X0319369Y0303120D02*
X0318190Y0303120D01*
X0318190Y0304718D02*
X0319369Y0304718D01*
X0319728Y0306317D02*
X0317831Y0306317D01*
X0317082Y0307915D02*
X0320477Y0307915D01*
X0322075Y0309514D02*
X0315484Y0309514D01*
X0308296Y0309514D02*
X0301704Y0309514D01*
X0303303Y0307915D02*
X0306697Y0307915D01*
X0305948Y0306317D02*
X0304052Y0306317D01*
X0304410Y0304718D02*
X0305590Y0304718D01*
X0305590Y0303120D02*
X0304410Y0303120D01*
X0303820Y0301521D02*
X0306179Y0301521D01*
X0307256Y0299923D02*
X0302744Y0299923D01*
X0293476Y0299923D02*
X0288965Y0299923D01*
X0290041Y0301521D02*
X0292400Y0301521D01*
X0291810Y0303120D02*
X0290631Y0303120D01*
X0290631Y0304718D02*
X0291810Y0304718D01*
X0292169Y0306317D02*
X0290272Y0306317D01*
X0289523Y0307915D02*
X0292918Y0307915D01*
X0294516Y0309514D02*
X0287925Y0309514D01*
X0280737Y0309514D02*
X0274263Y0309514D01*
X0275862Y0307915D02*
X0279138Y0307915D01*
X0278389Y0306317D02*
X0276611Y0306317D01*
X0276969Y0304718D02*
X0278031Y0304718D01*
X0278031Y0303120D02*
X0276969Y0303120D01*
X0276380Y0301521D02*
X0278620Y0301521D01*
X0279697Y0299923D02*
X0275303Y0299923D01*
X0266035Y0299923D02*
X0261524Y0299923D01*
X0262600Y0301521D02*
X0264959Y0301521D01*
X0264369Y0303120D02*
X0263190Y0303120D01*
X0263190Y0304718D02*
X0264369Y0304718D01*
X0264728Y0306317D02*
X0262831Y0306317D01*
X0262082Y0307915D02*
X0265477Y0307915D01*
X0267075Y0309514D02*
X0260484Y0309514D01*
X0253296Y0309514D02*
X0246704Y0309514D01*
X0248303Y0307915D02*
X0251697Y0307915D01*
X0250948Y0306317D02*
X0249052Y0306317D01*
X0249410Y0304718D02*
X0250590Y0304718D01*
X0250590Y0303120D02*
X0249410Y0303120D01*
X0248820Y0301521D02*
X0251179Y0301521D01*
X0252256Y0299923D02*
X0247744Y0299923D01*
X0238476Y0299923D02*
X0233965Y0299923D01*
X0235041Y0301521D02*
X0237400Y0301521D01*
X0236810Y0303120D02*
X0235631Y0303120D01*
X0235631Y0304718D02*
X0236810Y0304718D01*
X0237169Y0306317D02*
X0235272Y0306317D01*
X0234523Y0307915D02*
X0237918Y0307915D01*
X0239516Y0309514D02*
X0232925Y0309514D01*
X0225737Y0309514D02*
X0219263Y0309514D01*
X0220862Y0307915D02*
X0224138Y0307915D01*
X0223389Y0306317D02*
X0221611Y0306317D01*
X0221969Y0304718D02*
X0223031Y0304718D01*
X0223031Y0303120D02*
X0221969Y0303120D01*
X0221380Y0301521D02*
X0223620Y0301521D01*
X0224697Y0299923D02*
X0220303Y0299923D01*
X0211035Y0299923D02*
X0206524Y0299923D01*
X0207600Y0301521D02*
X0209959Y0301521D01*
X0209369Y0303120D02*
X0208190Y0303120D01*
X0208190Y0304718D02*
X0209369Y0304718D01*
X0209728Y0306317D02*
X0207831Y0306317D01*
X0207082Y0307915D02*
X0210477Y0307915D01*
X0212075Y0309514D02*
X0205484Y0309514D01*
X0198296Y0309514D02*
X0191704Y0309514D01*
X0193303Y0307915D02*
X0196697Y0307915D01*
X0195948Y0306317D02*
X0194052Y0306317D01*
X0194410Y0304718D02*
X0195590Y0304718D01*
X0195590Y0303120D02*
X0194410Y0303120D01*
X0193820Y0301521D02*
X0196179Y0301521D01*
X0197256Y0299923D02*
X0192744Y0299923D01*
X0183476Y0299923D02*
X0178965Y0299923D01*
X0180041Y0301521D02*
X0182400Y0301521D01*
X0181810Y0303120D02*
X0180631Y0303120D01*
X0180631Y0304718D02*
X0181810Y0304718D01*
X0182169Y0306317D02*
X0180272Y0306317D01*
X0179523Y0307915D02*
X0182918Y0307915D01*
X0184516Y0309514D02*
X0177925Y0309514D01*
X0170737Y0309514D02*
X0164263Y0309514D01*
X0165862Y0307915D02*
X0169138Y0307915D01*
X0168389Y0306317D02*
X0166611Y0306317D01*
X0166969Y0304718D02*
X0168031Y0304718D01*
X0168031Y0303120D02*
X0166969Y0303120D01*
X0166380Y0301521D02*
X0168620Y0301521D01*
X0169697Y0299923D02*
X0165303Y0299923D01*
X0156035Y0299923D02*
X0151524Y0299923D01*
X0152600Y0301521D02*
X0154959Y0301521D01*
X0154369Y0303120D02*
X0153190Y0303120D01*
X0153190Y0304718D02*
X0154369Y0304718D01*
X0154728Y0306317D02*
X0152831Y0306317D01*
X0152082Y0307915D02*
X0155477Y0307915D01*
X0157075Y0309514D02*
X0150484Y0309514D01*
X0143296Y0309514D02*
X0136704Y0309514D01*
X0138303Y0307915D02*
X0141697Y0307915D01*
X0140948Y0306317D02*
X0139052Y0306317D01*
X0139410Y0304718D02*
X0140590Y0304718D01*
X0140590Y0303120D02*
X0139410Y0303120D01*
X0138820Y0301521D02*
X0141179Y0301521D01*
X0142256Y0299923D02*
X0137744Y0299923D01*
X0128476Y0299923D02*
X0123965Y0299923D01*
X0125041Y0301521D02*
X0127400Y0301521D01*
X0126810Y0303120D02*
X0125631Y0303120D01*
X0125631Y0304718D02*
X0126810Y0304718D01*
X0127169Y0306317D02*
X0125272Y0306317D01*
X0124523Y0307915D02*
X0127918Y0307915D01*
X0129516Y0309514D02*
X0122925Y0309514D01*
X0115737Y0309514D02*
X0109263Y0309514D01*
X0110862Y0307915D02*
X0114138Y0307915D01*
X0113389Y0306317D02*
X0111611Y0306317D01*
X0111969Y0304718D02*
X0113031Y0304718D01*
X0113031Y0303120D02*
X0111969Y0303120D01*
X0111380Y0301521D02*
X0113620Y0301521D01*
X0114697Y0299923D02*
X0110303Y0299923D01*
X0101035Y0299923D02*
X0096524Y0299923D01*
X0097600Y0301521D02*
X0099959Y0301521D01*
X0099369Y0303120D02*
X0098190Y0303120D01*
X0098190Y0304718D02*
X0099369Y0304718D01*
X0099728Y0306317D02*
X0097831Y0306317D01*
X0097082Y0307915D02*
X0100477Y0307915D01*
X0102075Y0309514D02*
X0095484Y0309514D01*
X0088296Y0309514D02*
X0081704Y0309514D01*
X0083303Y0307915D02*
X0086697Y0307915D01*
X0085948Y0306317D02*
X0084052Y0306317D01*
X0084410Y0304718D02*
X0085590Y0304718D01*
X0085590Y0303120D02*
X0084410Y0303120D01*
X0083820Y0301521D02*
X0086179Y0301521D01*
X0087256Y0299923D02*
X0082744Y0299923D01*
X0073476Y0299923D02*
X0068965Y0299923D01*
X0070041Y0301521D02*
X0072400Y0301521D01*
X0071810Y0303120D02*
X0070631Y0303120D01*
X0070631Y0304718D02*
X0071810Y0304718D01*
X0072169Y0306317D02*
X0070272Y0306317D01*
X0069523Y0307915D02*
X0072918Y0307915D01*
X0074516Y0309514D02*
X0067925Y0309514D01*
X0060737Y0309514D02*
X0056478Y0309514D01*
X0056478Y0307915D02*
X0059138Y0307915D01*
X0058389Y0306317D02*
X0056478Y0306317D01*
X0056478Y0304718D02*
X0058031Y0304718D01*
X0058031Y0303120D02*
X0056478Y0303120D01*
X0056478Y0301521D02*
X0058620Y0301521D01*
X0059697Y0299923D02*
X0056478Y0299923D01*
X0056478Y0295127D02*
X0388700Y0295127D01*
X0388700Y0293529D02*
X0056478Y0293529D01*
X0056478Y0291930D02*
X0388700Y0291930D01*
X0388700Y0290332D02*
X0056478Y0290332D01*
X0056478Y0288733D02*
X0388700Y0288733D01*
X0388700Y0287135D02*
X0353716Y0287135D01*
X0355315Y0285536D02*
X0388700Y0285536D01*
X0388700Y0283938D02*
X0386764Y0283938D01*
X0386764Y0282339D02*
X0388700Y0282339D01*
X0388700Y0280741D02*
X0386764Y0280741D01*
X0386764Y0279142D02*
X0388700Y0279142D01*
X0387493Y0277544D02*
X0386764Y0277544D01*
X0375364Y0283938D02*
X0374701Y0283938D01*
X0367427Y0283938D02*
X0364701Y0283938D01*
X0366063Y0282339D02*
X0366064Y0282339D01*
X0357427Y0283938D02*
X0356913Y0283938D01*
X0346611Y0298324D02*
X0380516Y0298324D01*
X0378982Y0299923D02*
X0348145Y0299923D01*
X0348807Y0301521D02*
X0378320Y0301521D01*
X0377765Y0303120D02*
X0349363Y0303120D01*
X0349363Y0304718D02*
X0377765Y0304718D01*
X0377828Y0306317D02*
X0349300Y0306317D01*
X0348638Y0307915D02*
X0378490Y0307915D01*
X0379327Y0309514D02*
X0347801Y0309514D01*
X0346202Y0311112D02*
X0380925Y0311112D01*
X0383179Y0296726D02*
X0343949Y0296726D01*
X0151684Y0287135D02*
X0056478Y0287135D01*
X0056478Y0285536D02*
X0150085Y0285536D01*
X0142720Y0283938D02*
X0137280Y0283938D01*
X0138628Y0282339D02*
X0141372Y0282339D01*
X0140710Y0280741D02*
X0139290Y0280741D01*
X0139410Y0279142D02*
X0140590Y0279142D01*
X0140756Y0277544D02*
X0140049Y0277544D01*
X0128940Y0283938D02*
X0123501Y0283938D01*
X0124849Y0282339D02*
X0127592Y0282339D01*
X0126930Y0280741D02*
X0126852Y0280741D01*
X0115161Y0283938D02*
X0109839Y0283938D01*
X0111187Y0282339D02*
X0113813Y0282339D01*
X0113151Y0280741D02*
X0111849Y0280741D01*
X0111969Y0279142D02*
X0113031Y0279142D01*
X0113197Y0277544D02*
X0111803Y0277544D01*
X0111141Y0275945D02*
X0113859Y0275945D01*
X0115273Y0274347D02*
X0109727Y0274347D01*
X0101611Y0274347D02*
X0100746Y0274347D01*
X0100198Y0275945D02*
X0099147Y0275945D01*
X0099536Y0277544D02*
X0098023Y0277544D01*
X0098190Y0279142D02*
X0099369Y0279142D01*
X0099489Y0280741D02*
X0098070Y0280741D01*
X0097408Y0282339D02*
X0100151Y0282339D01*
X0101499Y0283938D02*
X0096060Y0283938D01*
X0087720Y0283938D02*
X0082280Y0283938D01*
X0083628Y0282339D02*
X0086372Y0282339D01*
X0085710Y0280741D02*
X0084290Y0280741D01*
X0084410Y0279142D02*
X0085590Y0279142D01*
X0085756Y0277544D02*
X0085049Y0277544D01*
X0083056Y0272748D02*
X0056478Y0272748D01*
X0056478Y0271150D02*
X0084654Y0271150D01*
X0086253Y0269551D02*
X0056478Y0269551D01*
X0056478Y0267953D02*
X0087852Y0267953D01*
X0088000Y0261559D02*
X0087600Y0261559D01*
X0087600Y0259960D02*
X0088000Y0259960D01*
X0088000Y0258362D02*
X0087600Y0258362D01*
X0087600Y0256763D02*
X0088000Y0256763D01*
X0088000Y0255164D02*
X0087600Y0255164D01*
X0087600Y0253566D02*
X0088000Y0253566D01*
X0090919Y0253566D02*
X0093300Y0253566D01*
X0093300Y0255164D02*
X0092467Y0255164D01*
X0093149Y0256763D02*
X0093893Y0256763D01*
X0093300Y0258362D02*
X0095102Y0258362D01*
X0093754Y0251967D02*
X0056478Y0251967D01*
X0056478Y0250369D02*
X0094768Y0250369D01*
X0097209Y0248770D02*
X0056478Y0248770D01*
X0056478Y0264756D02*
X0123549Y0264756D01*
X0121950Y0266354D02*
X0056478Y0266354D01*
X0056478Y0274347D02*
X0060273Y0274347D01*
X0060762Y0273857D02*
X0063078Y0272898D01*
X0065584Y0272898D01*
X0067899Y0273857D01*
X0069672Y0275630D01*
X0070631Y0277945D01*
X0070631Y0280451D01*
X0069672Y0282767D01*
X0067899Y0284539D01*
X0065584Y0285498D01*
X0063078Y0285498D01*
X0060762Y0284539D01*
X0058990Y0282767D01*
X0058031Y0280451D01*
X0058031Y0277945D01*
X0058990Y0275630D01*
X0060762Y0273857D01*
X0058859Y0275945D02*
X0056478Y0275945D01*
X0056478Y0277544D02*
X0058197Y0277544D01*
X0058031Y0279142D02*
X0056478Y0279142D01*
X0056478Y0280741D02*
X0058151Y0280741D01*
X0058813Y0282339D02*
X0056478Y0282339D01*
X0056478Y0283938D02*
X0060161Y0283938D01*
X0068501Y0283938D02*
X0073940Y0283938D01*
X0072592Y0282339D02*
X0069849Y0282339D01*
X0070511Y0280741D02*
X0071930Y0280741D01*
X0071810Y0279142D02*
X0070631Y0279142D01*
X0070464Y0277544D02*
X0071977Y0277544D01*
X0072639Y0275945D02*
X0069802Y0275945D01*
X0068389Y0274347D02*
X0074052Y0274347D01*
D29*
X0083200Y0233398D02*
X0079000Y0229198D01*
X0078740Y0229198D01*
X0083200Y0233398D02*
X0338800Y0233398D01*
X0368200Y0262798D01*
X0374800Y0262798D01*
X0376600Y0260998D01*
X0376600Y0259798D01*
X0375400Y0258598D01*
X0375400Y0254398D01*
X0375000Y0254198D01*
X0370000Y0256198D02*
X0374200Y0260398D01*
X0370000Y0256198D02*
X0370000Y0222598D01*
X0374800Y0217798D01*
X0374800Y0214198D01*
X0375000Y0214198D01*
X0368800Y0210598D02*
X0374800Y0204598D01*
X0375000Y0204198D01*
X0383200Y0199198D02*
X0386800Y0199198D01*
X0392200Y0204598D01*
X0392200Y0237598D01*
X0397600Y0242998D01*
X0398200Y0243517D01*
X0393400Y0244198D02*
X0393400Y0245398D01*
X0413200Y0265198D01*
X0413200Y0274198D01*
X0408400Y0278998D01*
X0408327Y0279372D01*
X0403600Y0272998D02*
X0403600Y0294598D01*
X0407800Y0298798D01*
X0408327Y0299372D01*
X0398327Y0304372D02*
X0398200Y0304198D01*
X0397000Y0304198D01*
X0391000Y0298198D01*
X0391000Y0277798D01*
X0380200Y0266998D01*
X0380200Y0242398D01*
X0375400Y0237598D01*
X0375400Y0234598D01*
X0375000Y0234198D01*
X0385000Y0234198D02*
X0385000Y0237598D01*
X0392200Y0244798D01*
X0392200Y0261598D01*
X0403600Y0272998D01*
X0398327Y0274372D02*
X0398200Y0274798D01*
X0393400Y0279598D01*
X0393400Y0297598D01*
X0361064Y0279514D02*
X0361000Y0279598D01*
X0358000Y0279598D01*
X0352000Y0285598D01*
X0153400Y0285598D01*
X0147400Y0279598D01*
X0146890Y0279198D01*
X0155200Y0281398D02*
X0155200Y0271698D01*
X0155200Y0281398D02*
X0158200Y0284398D01*
X0338200Y0284398D01*
X0352600Y0269998D01*
X0355600Y0269998D01*
X0356064Y0269514D01*
X0361000Y0271198D02*
X0361000Y0267598D01*
X0358000Y0264598D01*
X0354400Y0264598D01*
X0349600Y0269398D01*
X0346600Y0269398D01*
X0346064Y0269514D01*
X0354400Y0259198D02*
X0266800Y0259198D01*
X0257200Y0249598D01*
X0209200Y0249598D01*
X0205000Y0253798D01*
X0205000Y0254198D01*
X0164800Y0248398D02*
X0159000Y0254198D01*
X0164800Y0248398D02*
X0352000Y0248398D01*
X0371200Y0267598D01*
X0371200Y0271198D01*
X0368200Y0274198D01*
X0364000Y0274198D01*
X0361000Y0271198D01*
X0364600Y0269398D02*
X0354400Y0259198D01*
X0364600Y0269398D02*
X0365800Y0269398D01*
X0366064Y0269514D01*
X0393400Y0244198D02*
X0391000Y0241798D01*
X0391000Y0223198D01*
X0385000Y0217198D01*
X0385000Y0214198D01*
X0393400Y0217798D02*
X0397600Y0213598D01*
X0398200Y0213517D01*
X0400000Y0208798D02*
X0403000Y0211798D01*
X0403000Y0233398D01*
X0407800Y0238198D01*
X0408200Y0238517D01*
X0410200Y0243598D02*
X0404800Y0243598D01*
X0399400Y0238198D01*
X0395800Y0238198D01*
X0393400Y0235798D01*
X0393400Y0217798D01*
X0399400Y0208798D02*
X0400000Y0208798D01*
X0399400Y0208798D02*
X0385000Y0194398D01*
X0385000Y0194198D01*
X0381400Y0190798D02*
X0382600Y0189598D01*
X0394000Y0189598D01*
X0407200Y0202798D01*
X0410800Y0203398D02*
X0412000Y0203398D01*
X0413200Y0204598D01*
X0413200Y0223198D01*
X0408400Y0227998D01*
X0408200Y0228517D01*
X0414400Y0239398D02*
X0410200Y0243598D01*
X0414400Y0239398D02*
X0414400Y0203998D01*
X0412600Y0202198D01*
X0411400Y0202198D01*
X0388600Y0179398D01*
X0383200Y0179398D01*
X0380200Y0176398D01*
X0380200Y0172798D01*
X0375400Y0167998D01*
X0375400Y0164398D01*
X0375000Y0164198D01*
X0380200Y0162598D02*
X0380200Y0166198D01*
X0383200Y0169198D01*
X0386800Y0169198D01*
X0398200Y0180598D01*
X0398200Y0182398D01*
X0398264Y0182485D01*
X0391600Y0184198D02*
X0410800Y0203398D01*
X0391600Y0184198D02*
X0385000Y0184198D01*
X0381400Y0190798D02*
X0380200Y0190798D01*
X0378400Y0194398D02*
X0383200Y0199198D01*
X0378400Y0194398D02*
X0375400Y0194398D01*
X0375000Y0194198D01*
X0400000Y0167398D02*
X0407800Y0175198D01*
X0407800Y0176998D01*
X0408264Y0177485D01*
X0400000Y0167398D02*
X0396400Y0167398D01*
X0385000Y0155998D01*
X0385000Y0154198D01*
X0375400Y0154198D02*
X0375000Y0154198D01*
X0375400Y0154198D02*
X0375400Y0157798D01*
X0380200Y0162598D01*
X0398200Y0152398D02*
X0398264Y0152485D01*
X0398200Y0152398D02*
X0398200Y0150598D01*
X0386800Y0139198D01*
X0383200Y0139198D01*
X0380200Y0136198D01*
X0380200Y0132598D01*
X0375400Y0127798D01*
X0375400Y0124198D01*
X0375000Y0124198D01*
X0385000Y0124198D02*
X0407800Y0146998D01*
X0408264Y0147485D01*
X0400000Y0126598D02*
X0396400Y0126598D01*
X0389800Y0119998D01*
X0389800Y0101998D01*
X0386800Y0098998D01*
X0383200Y0098998D01*
X0379600Y0095398D01*
X0379600Y0091798D01*
X0376600Y0088798D01*
X0373000Y0088798D01*
X0355000Y0070798D01*
X0355000Y0064198D01*
X0365000Y0064198D02*
X0371800Y0064198D01*
X0391000Y0083398D01*
X0391000Y0110998D01*
X0398200Y0118198D01*
X0398200Y0121198D01*
X0398280Y0121585D01*
X0400000Y0126598D02*
X0407800Y0118798D01*
X0407800Y0116998D01*
X0408280Y0116585D01*
X0408280Y0096585D02*
X0407800Y0095998D01*
X0407800Y0094798D01*
X0403000Y0089998D01*
X0403000Y0089398D01*
X0363400Y0049798D01*
X0355000Y0049798D01*
X0348400Y0043198D01*
X0348400Y0041998D01*
X0344200Y0037798D01*
X0237400Y0037798D01*
X0236200Y0038998D01*
X0230800Y0038998D01*
X0227800Y0041998D01*
X0227800Y0046798D01*
X0230800Y0049798D01*
X0241000Y0049798D01*
X0246400Y0044398D01*
X0246890Y0044198D01*
X0238000Y0038998D02*
X0233200Y0043798D01*
X0233110Y0044198D01*
X0238000Y0038998D02*
X0318400Y0038998D01*
X0321400Y0041998D01*
X0321400Y0043798D01*
X0327400Y0049798D01*
X0352600Y0049798D01*
X0353800Y0050998D01*
X0360400Y0050998D01*
X0398200Y0088798D01*
X0398200Y0091198D01*
X0398280Y0091585D01*
X0405400Y0086398D02*
X0362200Y0043198D01*
X0362200Y0041998D01*
X0356800Y0036598D01*
X0236800Y0036598D01*
X0235600Y0037798D01*
X0229600Y0037798D01*
X0221800Y0045598D01*
X0219331Y0044198D01*
X0220600Y0035398D02*
X0209650Y0046348D01*
X0208000Y0034198D02*
X0195250Y0046948D01*
X0208000Y0034198D02*
X0370000Y0034198D01*
X0391600Y0055798D01*
X0411400Y0055798D01*
X0411819Y0055781D01*
X0401800Y0060598D02*
X0401819Y0060781D01*
X0401800Y0060598D02*
X0394600Y0060598D01*
X0369400Y0035398D01*
X0220600Y0035398D01*
X0175600Y0032998D02*
X0164800Y0043798D01*
X0164331Y0044198D01*
X0158800Y0041998D02*
X0158800Y0059198D01*
X0158800Y0059398D01*
X0155000Y0064198D02*
X0154600Y0064198D01*
X0149800Y0068998D01*
X0133000Y0068998D01*
X0130600Y0066598D01*
X0122800Y0066598D01*
X0122662Y0066216D01*
X0122200Y0066598D01*
X0119800Y0068998D01*
X0106000Y0068998D01*
X0085600Y0089398D01*
X0077800Y0089398D01*
X0075000Y0089867D01*
X0075400Y0089398D01*
X0077800Y0089398D01*
X0077800Y0125998D01*
X0073600Y0130198D01*
X0073600Y0134398D01*
X0072400Y0135598D01*
X0072400Y0143998D01*
X0077200Y0148798D01*
X0077200Y0182398D01*
X0078400Y0183598D01*
X0082600Y0183598D01*
X0082600Y0172198D01*
X0113800Y0140998D01*
X0113800Y0139798D01*
X0112600Y0138598D01*
X0112600Y0133798D01*
X0112190Y0133212D01*
X0112190Y0126126D02*
X0112600Y0125998D01*
X0112189Y0125998D01*
X0116519Y0166453D02*
X0116800Y0166798D01*
X0121000Y0170998D01*
X0121000Y0176998D01*
X0119800Y0178198D01*
X0105400Y0178198D01*
X0105000Y0178498D01*
X0087400Y0188998D02*
X0087500Y0189198D01*
X0087400Y0188998D02*
X0082600Y0184198D01*
X0082600Y0183598D01*
X0158800Y0041998D02*
X0169600Y0031198D01*
X0401800Y0031198D01*
X0401819Y0030781D01*
X0411400Y0045598D02*
X0383200Y0045598D01*
X0370600Y0032998D01*
X0175600Y0032998D01*
X0405400Y0086398D02*
X0407800Y0086398D01*
X0408280Y0086585D01*
X0411819Y0045781D02*
X0411400Y0045598D01*
D30*
X0380200Y0190798D03*
X0407200Y0202798D03*
X0368800Y0210598D03*
X0374200Y0260398D03*
X0393400Y0297598D03*
M02*
