G75*
%MOIN*%
%OFA0B0*%
%FSLAX25Y25*%
%IPPOS*%
%LPD*%
%AMOC8*
5,1,8,0,0,1.08239X$1,22.5*
%
%ADD10C,0.00800*%
%ADD11C,0.00600*%
%ADD12C,0.00500*%
%ADD13C,0.00200*%
%ADD14R,0.02000X0.00500*%
%ADD15C,0.01200*%
D10*
X0103335Y0076298D02*
X0103337Y0076345D01*
X0103343Y0076392D01*
X0103353Y0076439D01*
X0103366Y0076484D01*
X0103384Y0076528D01*
X0103405Y0076570D01*
X0103429Y0076611D01*
X0103457Y0076649D01*
X0103488Y0076685D01*
X0103522Y0076718D01*
X0103558Y0076748D01*
X0103597Y0076775D01*
X0103638Y0076799D01*
X0103681Y0076819D01*
X0103725Y0076835D01*
X0103771Y0076848D01*
X0103817Y0076857D01*
X0103865Y0076862D01*
X0103912Y0076863D01*
X0103959Y0076860D01*
X0104006Y0076853D01*
X0104052Y0076842D01*
X0104097Y0076828D01*
X0104141Y0076809D01*
X0104182Y0076787D01*
X0104222Y0076762D01*
X0104260Y0076733D01*
X0104295Y0076702D01*
X0104328Y0076667D01*
X0104357Y0076630D01*
X0104383Y0076591D01*
X0104406Y0076549D01*
X0104425Y0076506D01*
X0104441Y0076461D01*
X0104453Y0076415D01*
X0104461Y0076369D01*
X0104465Y0076322D01*
X0104465Y0076274D01*
X0104461Y0076227D01*
X0104453Y0076181D01*
X0104441Y0076135D01*
X0104425Y0076090D01*
X0104406Y0076047D01*
X0104383Y0076005D01*
X0104357Y0075966D01*
X0104328Y0075929D01*
X0104295Y0075894D01*
X0104260Y0075863D01*
X0104222Y0075834D01*
X0104183Y0075809D01*
X0104141Y0075787D01*
X0104097Y0075768D01*
X0104052Y0075754D01*
X0104006Y0075743D01*
X0103959Y0075736D01*
X0103912Y0075733D01*
X0103865Y0075734D01*
X0103817Y0075739D01*
X0103771Y0075748D01*
X0103725Y0075761D01*
X0103681Y0075777D01*
X0103638Y0075797D01*
X0103597Y0075821D01*
X0103558Y0075848D01*
X0103522Y0075878D01*
X0103488Y0075911D01*
X0103457Y0075947D01*
X0103429Y0075985D01*
X0103405Y0076026D01*
X0103384Y0076068D01*
X0103366Y0076112D01*
X0103353Y0076157D01*
X0103343Y0076204D01*
X0103337Y0076251D01*
X0103335Y0076298D01*
X0089307Y0094270D02*
X0087906Y0094270D01*
X0087205Y0094970D01*
X0089307Y0094270D02*
X0090008Y0094970D01*
X0090008Y0097773D01*
X0089307Y0098473D01*
X0087906Y0098473D01*
X0087205Y0097773D01*
X0085404Y0096371D02*
X0082601Y0096371D01*
X0083302Y0094270D02*
X0083302Y0098473D01*
X0085404Y0096371D01*
X0068984Y0095413D02*
X0068284Y0094712D01*
X0066883Y0094712D01*
X0066182Y0095413D01*
X0064380Y0095413D02*
X0063680Y0094712D01*
X0062279Y0094712D01*
X0061578Y0095413D01*
X0061578Y0096114D01*
X0062279Y0096814D01*
X0062979Y0096814D01*
X0062279Y0096814D02*
X0061578Y0097515D01*
X0061578Y0098215D01*
X0062279Y0098916D01*
X0063680Y0098916D01*
X0064380Y0098215D01*
X0066182Y0098215D02*
X0066883Y0098916D01*
X0068284Y0098916D01*
X0068984Y0098215D01*
X0068984Y0095413D01*
X0109632Y0115860D02*
X0112434Y0115860D01*
X0109632Y0118662D01*
X0109632Y0119363D01*
X0110332Y0120063D01*
X0111733Y0120063D01*
X0112434Y0119363D01*
X0114236Y0119363D02*
X0114936Y0120063D01*
X0116337Y0120063D01*
X0117038Y0119363D01*
X0117038Y0116560D01*
X0116337Y0115860D01*
X0114936Y0115860D01*
X0114236Y0116560D01*
X0150118Y0135548D02*
X0150919Y0134747D01*
X0152520Y0134747D01*
X0153321Y0135548D01*
X0153321Y0138751D01*
X0152520Y0139551D01*
X0150919Y0139551D01*
X0150118Y0138751D01*
X0155275Y0138751D02*
X0156075Y0139551D01*
X0157677Y0139551D01*
X0158478Y0138751D01*
X0158478Y0135548D01*
X0157677Y0134747D01*
X0156075Y0134747D01*
X0155275Y0135548D01*
X0160431Y0136349D02*
X0160431Y0139551D01*
X0160431Y0136349D02*
X0162033Y0134747D01*
X0163634Y0136349D01*
X0163634Y0139551D01*
X0162519Y0173730D02*
X0160917Y0173730D01*
X0160117Y0174531D01*
X0160117Y0176132D01*
X0161718Y0176132D01*
X0163319Y0177733D02*
X0163319Y0174531D01*
X0162519Y0173730D01*
X0158163Y0173730D02*
X0158163Y0178534D01*
X0154960Y0173730D01*
X0154960Y0178534D01*
X0153007Y0178534D02*
X0150604Y0178534D01*
X0149804Y0177733D01*
X0149804Y0174531D01*
X0150604Y0173730D01*
X0153007Y0173730D01*
X0153007Y0178534D01*
X0160117Y0177733D02*
X0160917Y0178534D01*
X0162519Y0178534D01*
X0163319Y0177733D01*
X0119334Y0181386D02*
X0118633Y0180686D01*
X0117232Y0180686D01*
X0116531Y0181386D01*
X0114730Y0180686D02*
X0111927Y0180686D01*
X0113328Y0180686D02*
X0113328Y0184889D01*
X0114730Y0183488D01*
X0116531Y0184189D02*
X0117232Y0184889D01*
X0118633Y0184889D01*
X0119334Y0184189D01*
X0119334Y0181386D01*
X0065159Y0211030D02*
X0065159Y0215233D01*
X0063058Y0215233D01*
X0062357Y0214533D01*
X0062357Y0213132D01*
X0063058Y0212431D01*
X0065159Y0212431D01*
X0063758Y0212431D02*
X0062357Y0211030D01*
X0060555Y0211030D02*
X0057753Y0211030D01*
X0059154Y0211030D02*
X0059154Y0215233D01*
X0060555Y0213832D01*
X0070849Y0234937D02*
X0072251Y0234937D01*
X0072951Y0235638D01*
X0074753Y0234937D02*
X0076154Y0236338D01*
X0075453Y0236338D02*
X0077555Y0236338D01*
X0077555Y0234937D02*
X0077555Y0239141D01*
X0075453Y0239141D01*
X0074753Y0238440D01*
X0074753Y0237039D01*
X0075453Y0236338D01*
X0072951Y0238440D02*
X0072251Y0239141D01*
X0070849Y0239141D01*
X0070149Y0238440D01*
X0070149Y0237740D01*
X0070849Y0237039D01*
X0070149Y0236338D01*
X0070149Y0235638D01*
X0070849Y0234937D01*
X0070849Y0237039D02*
X0071550Y0237039D01*
X0089890Y0233843D02*
X0089890Y0233142D01*
X0092693Y0230340D01*
X0089890Y0230340D01*
X0089890Y0233843D02*
X0090591Y0234543D01*
X0091992Y0234543D01*
X0092693Y0233843D01*
X0094494Y0233843D02*
X0094494Y0232442D01*
X0095195Y0231741D01*
X0097297Y0231741D01*
X0097297Y0230340D02*
X0097297Y0234543D01*
X0095195Y0234543D01*
X0094494Y0233843D01*
X0095895Y0231741D02*
X0094494Y0230340D01*
X0106400Y0232399D02*
X0106400Y0234000D01*
X0107201Y0234801D01*
X0108802Y0234801D01*
X0108802Y0233200D01*
X0110403Y0234801D02*
X0111204Y0234000D01*
X0111204Y0232399D01*
X0110403Y0231598D01*
X0107201Y0231598D01*
X0106400Y0232399D01*
X0106400Y0236755D02*
X0111204Y0236755D01*
X0106400Y0239957D01*
X0111204Y0239957D01*
X0111204Y0241911D02*
X0106400Y0241911D01*
X0106400Y0244313D01*
X0107201Y0245114D01*
X0110403Y0245114D01*
X0111204Y0244313D01*
X0111204Y0241911D01*
X0116300Y0242242D02*
X0117101Y0241442D01*
X0116300Y0242242D02*
X0116300Y0243844D01*
X0117101Y0244645D01*
X0117901Y0244645D01*
X0118702Y0243844D01*
X0118702Y0243043D01*
X0118702Y0243844D02*
X0119503Y0244645D01*
X0120303Y0244645D01*
X0121104Y0243844D01*
X0121104Y0242242D01*
X0120303Y0241442D01*
X0121104Y0237887D02*
X0116300Y0237887D01*
X0116300Y0239488D02*
X0116300Y0236285D01*
X0119503Y0236285D02*
X0121104Y0237887D01*
X0126300Y0237887D02*
X0131104Y0237887D01*
X0129503Y0236285D01*
X0126300Y0236285D02*
X0126300Y0239488D01*
X0126300Y0241442D02*
X0129503Y0244645D01*
X0130303Y0244645D01*
X0131104Y0243844D01*
X0131104Y0242242D01*
X0130303Y0241442D01*
X0126300Y0241442D02*
X0126300Y0244645D01*
X0136300Y0244645D02*
X0136300Y0241442D01*
X0136300Y0243043D02*
X0141104Y0243043D01*
X0139503Y0241442D01*
X0136300Y0239488D02*
X0136300Y0236285D01*
X0136300Y0237887D02*
X0141104Y0237887D01*
X0139503Y0236285D01*
X0146300Y0236285D02*
X0146300Y0239488D01*
X0146300Y0237887D02*
X0151104Y0237887D01*
X0149503Y0236285D01*
X0150303Y0241442D02*
X0147101Y0241442D01*
X0150303Y0244645D01*
X0147101Y0244645D01*
X0146300Y0243844D01*
X0146300Y0242242D01*
X0147101Y0241442D01*
X0150303Y0241442D02*
X0151104Y0242242D01*
X0151104Y0243844D01*
X0150303Y0244645D01*
X0156300Y0243844D02*
X0157101Y0244645D01*
X0160303Y0244645D01*
X0161104Y0243844D01*
X0161104Y0242242D01*
X0160303Y0241442D01*
X0159503Y0241442D01*
X0158702Y0242242D01*
X0158702Y0244645D01*
X0156300Y0243844D02*
X0156300Y0242242D01*
X0157101Y0241442D01*
X0166300Y0242242D02*
X0167101Y0241442D01*
X0167901Y0241442D01*
X0168702Y0242242D01*
X0168702Y0243844D01*
X0167901Y0244645D01*
X0167101Y0244645D01*
X0166300Y0243844D01*
X0166300Y0242242D01*
X0168702Y0242242D02*
X0169503Y0241442D01*
X0170303Y0241442D01*
X0171104Y0242242D01*
X0171104Y0243844D01*
X0170303Y0244645D01*
X0169503Y0244645D01*
X0168702Y0243844D01*
X0181300Y0241442D02*
X0182101Y0241442D01*
X0185303Y0244645D01*
X0186104Y0244645D01*
X0186104Y0241442D01*
X0191300Y0242242D02*
X0191300Y0243844D01*
X0192101Y0244645D01*
X0192901Y0244645D01*
X0193702Y0243844D01*
X0193702Y0241442D01*
X0192101Y0241442D01*
X0191300Y0242242D01*
X0193702Y0241442D02*
X0195303Y0243043D01*
X0196104Y0244645D01*
X0201300Y0243844D02*
X0201300Y0242242D01*
X0202101Y0241442D01*
X0203702Y0241442D02*
X0204503Y0243043D01*
X0204503Y0243844D01*
X0203702Y0244645D01*
X0202101Y0244645D01*
X0201300Y0243844D01*
X0203702Y0241442D02*
X0206104Y0241442D01*
X0206104Y0244645D01*
X0211300Y0243844D02*
X0216104Y0243844D01*
X0213702Y0241442D01*
X0213702Y0244645D01*
X0221300Y0243844D02*
X0221300Y0242242D01*
X0222101Y0241442D01*
X0223702Y0243043D02*
X0223702Y0243844D01*
X0222901Y0244645D01*
X0222101Y0244645D01*
X0221300Y0243844D01*
X0223702Y0243844D02*
X0224503Y0244645D01*
X0225303Y0244645D01*
X0226104Y0243844D01*
X0226104Y0242242D01*
X0225303Y0241442D01*
X0231300Y0241442D02*
X0234503Y0244645D01*
X0235303Y0244645D01*
X0236104Y0243844D01*
X0236104Y0242242D01*
X0235303Y0241442D01*
X0231300Y0241442D02*
X0231300Y0244645D01*
X0241300Y0244645D02*
X0241300Y0241442D01*
X0241300Y0243043D02*
X0246104Y0243043D01*
X0244503Y0241442D01*
X0251300Y0242242D02*
X0252101Y0241442D01*
X0255303Y0244645D01*
X0252101Y0244645D01*
X0251300Y0243844D01*
X0251300Y0242242D01*
X0252101Y0241442D02*
X0255303Y0241442D01*
X0256104Y0242242D01*
X0256104Y0243844D01*
X0255303Y0244645D01*
X0271300Y0242988D02*
X0271300Y0239785D01*
X0271300Y0241387D02*
X0276104Y0241387D01*
X0274503Y0239785D01*
X0281300Y0239785D02*
X0281300Y0242988D01*
X0281300Y0241387D02*
X0286104Y0241387D01*
X0284503Y0239785D01*
X0291300Y0239785D02*
X0291300Y0242988D01*
X0291300Y0241387D02*
X0296104Y0241387D01*
X0294503Y0239785D01*
X0301300Y0239785D02*
X0301300Y0242988D01*
X0301300Y0241387D02*
X0306104Y0241387D01*
X0304503Y0239785D01*
X0311300Y0239785D02*
X0311300Y0242988D01*
X0311300Y0241387D02*
X0316104Y0241387D01*
X0314503Y0239785D01*
X0321300Y0239785D02*
X0321300Y0242988D01*
X0321300Y0241387D02*
X0326104Y0241387D01*
X0324503Y0239785D01*
X0331300Y0239785D02*
X0331300Y0242988D01*
X0332101Y0244942D02*
X0331300Y0245742D01*
X0331300Y0247344D01*
X0332101Y0248145D01*
X0335303Y0248145D01*
X0332101Y0244942D01*
X0335303Y0244942D01*
X0336104Y0245742D01*
X0336104Y0247344D01*
X0335303Y0248145D01*
X0341300Y0248145D02*
X0341300Y0244942D01*
X0341300Y0246543D02*
X0346104Y0246543D01*
X0344503Y0244942D01*
X0344503Y0242988D02*
X0345303Y0242988D01*
X0346104Y0242187D01*
X0346104Y0240586D01*
X0345303Y0239785D01*
X0344503Y0242988D02*
X0341300Y0239785D01*
X0341300Y0242988D01*
X0336104Y0242187D02*
X0336104Y0240586D01*
X0335303Y0239785D01*
X0336104Y0242187D02*
X0335303Y0242988D01*
X0334503Y0242988D01*
X0331300Y0239785D01*
X0326104Y0245742D02*
X0325303Y0244942D01*
X0324503Y0244942D01*
X0323702Y0245742D01*
X0323702Y0248145D01*
X0322101Y0248145D02*
X0325303Y0248145D01*
X0326104Y0247344D01*
X0326104Y0245742D01*
X0322101Y0244942D02*
X0321300Y0245742D01*
X0321300Y0247344D01*
X0322101Y0248145D01*
X0316104Y0247344D02*
X0315303Y0248145D01*
X0314503Y0248145D01*
X0313702Y0247344D01*
X0313702Y0245742D01*
X0314503Y0244942D01*
X0315303Y0244942D01*
X0316104Y0245742D01*
X0316104Y0247344D01*
X0313702Y0247344D02*
X0312901Y0248145D01*
X0312101Y0248145D01*
X0311300Y0247344D01*
X0311300Y0245742D01*
X0312101Y0244942D01*
X0312901Y0244942D01*
X0313702Y0245742D01*
X0306104Y0244942D02*
X0306104Y0248145D01*
X0305303Y0248145D01*
X0302101Y0244942D01*
X0301300Y0244942D01*
X0296104Y0248145D02*
X0295303Y0246543D01*
X0293702Y0244942D01*
X0293702Y0247344D01*
X0292901Y0248145D01*
X0292101Y0248145D01*
X0291300Y0247344D01*
X0291300Y0245742D01*
X0292101Y0244942D01*
X0293702Y0244942D01*
X0286104Y0244942D02*
X0283702Y0244942D01*
X0284503Y0246543D01*
X0284503Y0247344D01*
X0283702Y0248145D01*
X0282101Y0248145D01*
X0281300Y0247344D01*
X0281300Y0245742D01*
X0282101Y0244942D01*
X0286104Y0244942D02*
X0286104Y0248145D01*
X0276104Y0247344D02*
X0273702Y0244942D01*
X0273702Y0248145D01*
X0271300Y0247344D02*
X0276104Y0247344D01*
X0358141Y0245602D02*
X0358942Y0246402D01*
X0360543Y0246402D01*
X0361344Y0245602D01*
X0363297Y0245602D02*
X0364098Y0246402D01*
X0365699Y0246402D01*
X0366500Y0245602D01*
X0363297Y0245602D02*
X0363297Y0244801D01*
X0366500Y0241598D01*
X0363297Y0241598D01*
X0361344Y0241598D02*
X0358141Y0244801D01*
X0358141Y0245602D01*
X0358141Y0241598D02*
X0361344Y0241598D01*
X0358942Y0236402D02*
X0361344Y0234000D01*
X0358141Y0234000D01*
X0358942Y0231598D02*
X0358942Y0236402D01*
X0363297Y0235602D02*
X0364098Y0236402D01*
X0365699Y0236402D01*
X0366500Y0235602D01*
X0363297Y0235602D02*
X0363297Y0234801D01*
X0366500Y0231598D01*
X0363297Y0231598D01*
X0364098Y0226402D02*
X0365699Y0226402D01*
X0366500Y0225602D01*
X0364098Y0226402D02*
X0363297Y0225602D01*
X0363297Y0224801D01*
X0366500Y0221598D01*
X0363297Y0221598D01*
X0361344Y0222399D02*
X0360543Y0221598D01*
X0358942Y0221598D01*
X0358141Y0222399D01*
X0358141Y0223200D01*
X0358942Y0224000D01*
X0361344Y0224000D01*
X0361344Y0222399D01*
X0361344Y0224000D02*
X0359742Y0225602D01*
X0358141Y0226402D01*
X0358942Y0216402D02*
X0358141Y0215602D01*
X0358141Y0214801D01*
X0358942Y0214000D01*
X0360543Y0214000D01*
X0361344Y0214801D01*
X0361344Y0215602D01*
X0360543Y0216402D01*
X0358942Y0216402D01*
X0358942Y0214000D02*
X0358141Y0213200D01*
X0358141Y0212399D01*
X0358942Y0211598D01*
X0360543Y0211598D01*
X0361344Y0212399D01*
X0361344Y0213200D01*
X0360543Y0214000D01*
X0363297Y0214801D02*
X0363297Y0215602D01*
X0364098Y0216402D01*
X0365699Y0216402D01*
X0366500Y0215602D01*
X0363297Y0214801D02*
X0366500Y0211598D01*
X0363297Y0211598D01*
X0364098Y0206402D02*
X0363297Y0205602D01*
X0363297Y0204801D01*
X0364098Y0204000D01*
X0363297Y0203200D01*
X0363297Y0202399D01*
X0364098Y0201598D01*
X0365699Y0201598D01*
X0366500Y0202399D01*
X0364899Y0204000D02*
X0364098Y0204000D01*
X0364098Y0206402D02*
X0365699Y0206402D01*
X0366500Y0205602D01*
X0361344Y0205602D02*
X0361344Y0202399D01*
X0358141Y0205602D01*
X0358141Y0202399D01*
X0358942Y0201598D01*
X0360543Y0201598D01*
X0361344Y0202399D01*
X0361344Y0205602D02*
X0360543Y0206402D01*
X0358942Y0206402D01*
X0358141Y0205602D01*
X0358942Y0196402D02*
X0360543Y0196402D01*
X0361344Y0195602D01*
X0363297Y0195602D02*
X0363297Y0194801D01*
X0364098Y0194000D01*
X0363297Y0193200D01*
X0363297Y0192399D01*
X0364098Y0191598D01*
X0365699Y0191598D01*
X0366500Y0192399D01*
X0364899Y0194000D02*
X0364098Y0194000D01*
X0363297Y0195602D02*
X0364098Y0196402D01*
X0365699Y0196402D01*
X0366500Y0195602D01*
X0361344Y0191598D02*
X0358141Y0191598D01*
X0361344Y0191598D02*
X0358141Y0194801D01*
X0358141Y0195602D01*
X0358942Y0196402D01*
X0358942Y0186402D02*
X0361344Y0184000D01*
X0358141Y0184000D01*
X0358942Y0181598D02*
X0358942Y0186402D01*
X0363297Y0185602D02*
X0363297Y0184801D01*
X0364098Y0184000D01*
X0363297Y0183200D01*
X0363297Y0182399D01*
X0364098Y0181598D01*
X0365699Y0181598D01*
X0366500Y0182399D01*
X0364899Y0184000D02*
X0364098Y0184000D01*
X0363297Y0185602D02*
X0364098Y0186402D01*
X0365699Y0186402D01*
X0366500Y0185602D01*
X0365699Y0176402D02*
X0364098Y0176402D01*
X0363297Y0175602D01*
X0363297Y0174801D01*
X0364098Y0174000D01*
X0363297Y0173200D01*
X0363297Y0172399D01*
X0364098Y0171598D01*
X0365699Y0171598D01*
X0366500Y0172399D01*
X0364899Y0174000D02*
X0364098Y0174000D01*
X0361344Y0174000D02*
X0358942Y0174000D01*
X0358141Y0173200D01*
X0358141Y0172399D01*
X0358942Y0171598D01*
X0360543Y0171598D01*
X0361344Y0172399D01*
X0361344Y0174000D01*
X0359742Y0175602D01*
X0358141Y0176402D01*
X0365699Y0176402D02*
X0366500Y0175602D01*
X0365699Y0166402D02*
X0364098Y0166402D01*
X0363297Y0165602D01*
X0363297Y0164801D01*
X0364098Y0164000D01*
X0363297Y0163200D01*
X0363297Y0162399D01*
X0364098Y0161598D01*
X0365699Y0161598D01*
X0366500Y0162399D01*
X0364899Y0164000D02*
X0364098Y0164000D01*
X0361344Y0163200D02*
X0360543Y0164000D01*
X0358942Y0164000D01*
X0358141Y0163200D01*
X0358141Y0162399D01*
X0358942Y0161598D01*
X0360543Y0161598D01*
X0361344Y0162399D01*
X0361344Y0163200D01*
X0360543Y0164000D02*
X0361344Y0164801D01*
X0361344Y0165602D01*
X0360543Y0166402D01*
X0358942Y0166402D01*
X0358141Y0165602D01*
X0358141Y0164801D01*
X0358942Y0164000D01*
X0365699Y0166402D02*
X0366500Y0165602D01*
X0364098Y0156402D02*
X0366500Y0154000D01*
X0363297Y0154000D01*
X0361344Y0152399D02*
X0361344Y0155602D01*
X0360543Y0156402D01*
X0358942Y0156402D01*
X0358141Y0155602D01*
X0361344Y0152399D01*
X0360543Y0151598D01*
X0358942Y0151598D01*
X0358141Y0152399D01*
X0358141Y0155602D01*
X0364098Y0156402D02*
X0364098Y0151598D01*
X0364098Y0146402D02*
X0366500Y0144000D01*
X0363297Y0144000D01*
X0361344Y0145602D02*
X0360543Y0146402D01*
X0358942Y0146402D01*
X0358141Y0145602D01*
X0358141Y0144801D01*
X0361344Y0141598D01*
X0358141Y0141598D01*
X0358942Y0136402D02*
X0361344Y0134000D01*
X0358141Y0134000D01*
X0358942Y0131598D02*
X0358942Y0136402D01*
X0363297Y0134000D02*
X0366500Y0134000D01*
X0364098Y0136402D01*
X0364098Y0131598D01*
X0364098Y0126402D02*
X0366500Y0124000D01*
X0363297Y0124000D01*
X0361344Y0124000D02*
X0358942Y0124000D01*
X0358141Y0123200D01*
X0358141Y0122399D01*
X0358942Y0121598D01*
X0360543Y0121598D01*
X0361344Y0122399D01*
X0361344Y0124000D01*
X0359742Y0125602D01*
X0358141Y0126402D01*
X0364098Y0126402D02*
X0364098Y0121598D01*
X0364098Y0116402D02*
X0366500Y0114000D01*
X0363297Y0114000D01*
X0361344Y0113200D02*
X0360543Y0114000D01*
X0358942Y0114000D01*
X0358141Y0113200D01*
X0358141Y0112399D01*
X0358942Y0111598D01*
X0360543Y0111598D01*
X0361344Y0112399D01*
X0361344Y0113200D01*
X0360543Y0114000D02*
X0361344Y0114801D01*
X0361344Y0115602D01*
X0360543Y0116402D01*
X0358942Y0116402D01*
X0358141Y0115602D01*
X0358141Y0114801D01*
X0358942Y0114000D01*
X0364098Y0111598D02*
X0364098Y0116402D01*
X0363297Y0106402D02*
X0366500Y0106402D01*
X0366500Y0104000D01*
X0364899Y0104801D01*
X0364098Y0104801D01*
X0363297Y0104000D01*
X0363297Y0102399D01*
X0364098Y0101598D01*
X0365699Y0101598D01*
X0366500Y0102399D01*
X0361344Y0102399D02*
X0361344Y0105602D01*
X0360543Y0106402D01*
X0358942Y0106402D01*
X0358141Y0105602D01*
X0361344Y0102399D01*
X0360543Y0101598D01*
X0358942Y0101598D01*
X0358141Y0102399D01*
X0358141Y0105602D01*
X0358942Y0096402D02*
X0360543Y0096402D01*
X0361344Y0095602D01*
X0363297Y0096402D02*
X0366500Y0096402D01*
X0366500Y0094000D01*
X0364899Y0094801D01*
X0364098Y0094801D01*
X0363297Y0094000D01*
X0363297Y0092399D01*
X0364098Y0091598D01*
X0365699Y0091598D01*
X0366500Y0092399D01*
X0361344Y0091598D02*
X0358141Y0094801D01*
X0358141Y0095602D01*
X0358942Y0096402D01*
X0358141Y0091598D02*
X0361344Y0091598D01*
X0363101Y0084545D02*
X0362300Y0083744D01*
X0362300Y0082142D01*
X0363101Y0081342D01*
X0364702Y0081342D02*
X0365503Y0082943D01*
X0365503Y0083744D01*
X0364702Y0084545D01*
X0363101Y0084545D01*
X0364702Y0081342D02*
X0367104Y0081342D01*
X0367104Y0084545D01*
X0367104Y0077787D02*
X0362300Y0077787D01*
X0362300Y0079388D02*
X0362300Y0076185D01*
X0362300Y0074232D02*
X0365503Y0074232D01*
X0367104Y0072630D01*
X0365503Y0071029D01*
X0362300Y0071029D01*
X0364702Y0071029D02*
X0364702Y0074232D01*
X0365503Y0076185D02*
X0367104Y0077787D01*
X0357604Y0077787D02*
X0356003Y0076185D01*
X0356003Y0074232D02*
X0352800Y0074232D01*
X0352800Y0076185D02*
X0352800Y0079388D01*
X0352800Y0077787D02*
X0357604Y0077787D01*
X0356003Y0074232D02*
X0357604Y0072630D01*
X0356003Y0071029D01*
X0352800Y0071029D01*
X0355202Y0071029D02*
X0355202Y0074232D01*
X0347604Y0072630D02*
X0346003Y0074232D01*
X0342800Y0074232D01*
X0342800Y0076185D02*
X0342800Y0079388D01*
X0342800Y0077787D02*
X0347604Y0077787D01*
X0346003Y0076185D01*
X0345202Y0074232D02*
X0345202Y0071029D01*
X0346003Y0071029D02*
X0347604Y0072630D01*
X0346003Y0071029D02*
X0342800Y0071029D01*
X0337604Y0072630D02*
X0336003Y0074232D01*
X0332800Y0074232D01*
X0332800Y0076185D02*
X0332800Y0079388D01*
X0332800Y0077787D02*
X0337604Y0077787D01*
X0336003Y0076185D01*
X0335202Y0074232D02*
X0335202Y0071029D01*
X0336003Y0071029D02*
X0337604Y0072630D01*
X0336003Y0071029D02*
X0332800Y0071029D01*
X0327604Y0072630D02*
X0326003Y0074232D01*
X0322800Y0074232D01*
X0322800Y0076185D02*
X0322800Y0079388D01*
X0322800Y0077787D02*
X0327604Y0077787D01*
X0326003Y0076185D01*
X0325202Y0074232D02*
X0325202Y0071029D01*
X0326003Y0071029D02*
X0327604Y0072630D01*
X0326003Y0071029D02*
X0322800Y0071029D01*
X0317604Y0072630D02*
X0316003Y0074232D01*
X0312800Y0074232D01*
X0312800Y0076185D02*
X0312800Y0079388D01*
X0312800Y0077787D02*
X0317604Y0077787D01*
X0316003Y0076185D01*
X0315202Y0074232D02*
X0315202Y0071029D01*
X0316003Y0071029D02*
X0317604Y0072630D01*
X0316003Y0071029D02*
X0312800Y0071029D01*
X0307604Y0072787D02*
X0306003Y0074388D01*
X0302800Y0074388D01*
X0303601Y0076342D02*
X0302800Y0077142D01*
X0302800Y0078744D01*
X0303601Y0079545D01*
X0306803Y0079545D01*
X0307604Y0078744D01*
X0307604Y0077142D01*
X0306803Y0076342D01*
X0306003Y0076342D01*
X0305202Y0077142D01*
X0305202Y0079545D01*
X0305202Y0074388D02*
X0305202Y0071185D01*
X0306003Y0071185D02*
X0307604Y0072787D01*
X0306003Y0071185D02*
X0302800Y0071185D01*
X0297604Y0072787D02*
X0296003Y0074388D01*
X0292800Y0074388D01*
X0293601Y0076342D02*
X0292800Y0077142D01*
X0292800Y0078744D01*
X0293601Y0079545D01*
X0294401Y0079545D01*
X0295202Y0078744D01*
X0295202Y0077142D01*
X0296003Y0076342D01*
X0296803Y0076342D01*
X0297604Y0077142D01*
X0297604Y0078744D01*
X0296803Y0079545D01*
X0296003Y0079545D01*
X0295202Y0078744D01*
X0295202Y0077142D02*
X0294401Y0076342D01*
X0293601Y0076342D01*
X0295202Y0074388D02*
X0295202Y0071185D01*
X0296003Y0071185D02*
X0297604Y0072787D01*
X0296003Y0071185D02*
X0292800Y0071185D01*
X0277604Y0072787D02*
X0276003Y0074388D01*
X0272800Y0074388D01*
X0272800Y0076342D02*
X0273601Y0076342D01*
X0276803Y0079545D01*
X0277604Y0079545D01*
X0277604Y0076342D01*
X0275202Y0074388D02*
X0275202Y0071185D01*
X0276003Y0071185D02*
X0277604Y0072787D01*
X0276003Y0071185D02*
X0272800Y0071185D01*
X0266303Y0077943D02*
X0264702Y0076342D01*
X0264702Y0078744D01*
X0263901Y0079545D01*
X0263101Y0079545D01*
X0262300Y0078744D01*
X0262300Y0077142D01*
X0263101Y0076342D01*
X0264702Y0076342D01*
X0266303Y0077943D02*
X0267104Y0079545D01*
X0257104Y0079545D02*
X0257104Y0076342D01*
X0254702Y0076342D01*
X0255503Y0077943D01*
X0255503Y0078744D01*
X0254702Y0079545D01*
X0253101Y0079545D01*
X0252300Y0078744D01*
X0252300Y0077142D01*
X0253101Y0076342D01*
X0252300Y0074388D02*
X0255503Y0074388D01*
X0257104Y0072787D01*
X0255503Y0071185D01*
X0252300Y0071185D01*
X0254702Y0071185D02*
X0254702Y0074388D01*
X0247604Y0072787D02*
X0246003Y0074388D01*
X0242800Y0074388D01*
X0245202Y0074388D02*
X0245202Y0071185D01*
X0246003Y0071185D02*
X0247604Y0072787D01*
X0246003Y0071185D02*
X0242800Y0071185D01*
X0237604Y0072787D02*
X0236003Y0074388D01*
X0232800Y0074388D01*
X0233601Y0076342D02*
X0232800Y0077142D01*
X0232800Y0078744D01*
X0233601Y0079545D01*
X0234401Y0079545D01*
X0235202Y0078744D01*
X0235202Y0077943D01*
X0235202Y0078744D02*
X0236003Y0079545D01*
X0236803Y0079545D01*
X0237604Y0078744D01*
X0237604Y0077142D01*
X0236803Y0076342D01*
X0235202Y0074388D02*
X0235202Y0071185D01*
X0236003Y0071185D02*
X0232800Y0071185D01*
X0236003Y0071185D02*
X0237604Y0072787D01*
X0242800Y0078744D02*
X0247604Y0078744D01*
X0245202Y0076342D01*
X0245202Y0079545D01*
X0227604Y0078744D02*
X0227604Y0077142D01*
X0226803Y0076342D01*
X0226003Y0074388D02*
X0222800Y0074388D01*
X0222800Y0076342D02*
X0226003Y0079545D01*
X0226803Y0079545D01*
X0227604Y0078744D01*
X0226003Y0074388D02*
X0227604Y0072787D01*
X0226003Y0071185D01*
X0222800Y0071185D01*
X0225202Y0071185D02*
X0225202Y0074388D01*
X0222800Y0076342D02*
X0222800Y0079545D01*
X0216604Y0077943D02*
X0211800Y0077943D01*
X0211800Y0076342D02*
X0211800Y0079545D01*
X0207604Y0078744D02*
X0206803Y0079545D01*
X0203601Y0076342D01*
X0202800Y0077142D01*
X0202800Y0078744D01*
X0203601Y0079545D01*
X0206803Y0079545D01*
X0207604Y0078744D02*
X0207604Y0077142D01*
X0206803Y0076342D01*
X0203601Y0076342D01*
X0202800Y0074388D02*
X0206003Y0074388D01*
X0207604Y0072787D01*
X0206003Y0071185D01*
X0202800Y0071185D01*
X0205202Y0071185D02*
X0205202Y0074388D01*
X0211800Y0074388D02*
X0215003Y0074388D01*
X0216604Y0072787D01*
X0215003Y0071185D01*
X0211800Y0071185D01*
X0214202Y0071185D02*
X0214202Y0074388D01*
X0215003Y0076342D02*
X0216604Y0077943D01*
X0312800Y0082142D02*
X0313601Y0081342D01*
X0316803Y0084545D01*
X0313601Y0084545D01*
X0312800Y0083744D01*
X0312800Y0082142D01*
X0313601Y0081342D02*
X0316803Y0081342D01*
X0317604Y0082142D01*
X0317604Y0083744D01*
X0316803Y0084545D01*
X0322800Y0084545D02*
X0322800Y0081342D01*
X0322800Y0082943D02*
X0327604Y0082943D01*
X0326003Y0081342D01*
X0332800Y0081342D02*
X0336003Y0084545D01*
X0336803Y0084545D01*
X0337604Y0083744D01*
X0337604Y0082142D01*
X0336803Y0081342D01*
X0332800Y0081342D02*
X0332800Y0084545D01*
X0342800Y0083744D02*
X0342800Y0082142D01*
X0343601Y0081342D01*
X0345202Y0082943D02*
X0345202Y0083744D01*
X0344401Y0084545D01*
X0343601Y0084545D01*
X0342800Y0083744D01*
X0345202Y0083744D02*
X0346003Y0084545D01*
X0346803Y0084545D01*
X0347604Y0083744D01*
X0347604Y0082142D01*
X0346803Y0081342D01*
X0352800Y0083744D02*
X0357604Y0083744D01*
X0355202Y0081342D01*
X0355202Y0084545D01*
X0393741Y0092499D02*
X0394542Y0091698D01*
X0396143Y0091698D01*
X0396944Y0092499D01*
X0398897Y0092499D02*
X0399698Y0091698D01*
X0401299Y0091698D01*
X0402100Y0092499D01*
X0402100Y0094100D02*
X0400499Y0094901D01*
X0399698Y0094901D01*
X0398897Y0094100D01*
X0398897Y0092499D01*
X0402100Y0094100D02*
X0402100Y0096502D01*
X0398897Y0096502D01*
X0396944Y0095702D02*
X0396143Y0096502D01*
X0394542Y0096502D01*
X0393741Y0095702D01*
X0393741Y0094901D01*
X0394542Y0094100D01*
X0393741Y0093300D01*
X0393741Y0092499D01*
X0394542Y0094100D02*
X0395342Y0094100D01*
X0395342Y0101698D02*
X0395342Y0106502D01*
X0396944Y0104901D01*
X0398897Y0104100D02*
X0398897Y0102499D01*
X0399698Y0101698D01*
X0401299Y0101698D01*
X0402100Y0102499D01*
X0402100Y0104100D02*
X0400499Y0104901D01*
X0399698Y0104901D01*
X0398897Y0104100D01*
X0398897Y0106502D02*
X0402100Y0106502D01*
X0402100Y0104100D01*
X0396944Y0101698D02*
X0393741Y0101698D01*
X0394542Y0111698D02*
X0393741Y0112499D01*
X0393741Y0115702D01*
X0394542Y0116502D01*
X0396143Y0116502D01*
X0396944Y0115702D01*
X0396944Y0114901D01*
X0396143Y0114100D01*
X0393741Y0114100D01*
X0394542Y0111698D02*
X0396143Y0111698D01*
X0396944Y0112499D01*
X0398897Y0114100D02*
X0402100Y0114100D01*
X0399698Y0116502D01*
X0399698Y0111698D01*
X0399698Y0121698D02*
X0399698Y0126502D01*
X0402100Y0124100D01*
X0398897Y0124100D01*
X0396944Y0122499D02*
X0396944Y0121698D01*
X0396944Y0122499D02*
X0393741Y0125702D01*
X0393741Y0126502D01*
X0396944Y0126502D01*
X0396143Y0131698D02*
X0396944Y0132499D01*
X0396143Y0131698D02*
X0394542Y0131698D01*
X0393741Y0132499D01*
X0393741Y0134100D01*
X0394542Y0134901D01*
X0395342Y0134901D01*
X0396944Y0134100D01*
X0396944Y0136502D01*
X0393741Y0136502D01*
X0394542Y0141698D02*
X0393741Y0142499D01*
X0393741Y0143300D01*
X0394542Y0144100D01*
X0395342Y0144100D01*
X0394542Y0144100D02*
X0393741Y0144901D01*
X0393741Y0145702D01*
X0394542Y0146502D01*
X0396143Y0146502D01*
X0396944Y0145702D01*
X0398897Y0144100D02*
X0402100Y0144100D01*
X0399698Y0146502D01*
X0399698Y0141698D01*
X0396944Y0142499D02*
X0396143Y0141698D01*
X0394542Y0141698D01*
X0399698Y0136502D02*
X0402100Y0134100D01*
X0398897Y0134100D01*
X0399698Y0131698D02*
X0399698Y0136502D01*
X0399698Y0151698D02*
X0399698Y0156502D01*
X0402100Y0154100D01*
X0398897Y0154100D01*
X0396944Y0154901D02*
X0395342Y0156502D01*
X0395342Y0151698D01*
X0393741Y0151698D02*
X0396944Y0151698D01*
X0396143Y0161698D02*
X0394542Y0161698D01*
X0393741Y0162499D01*
X0393741Y0165702D01*
X0394542Y0166502D01*
X0396143Y0166502D01*
X0396944Y0165702D01*
X0396944Y0164901D01*
X0396143Y0164100D01*
X0393741Y0164100D01*
X0396143Y0161698D02*
X0396944Y0162499D01*
X0398897Y0162499D02*
X0399698Y0161698D01*
X0401299Y0161698D01*
X0402100Y0162499D01*
X0400499Y0164100D02*
X0399698Y0164100D01*
X0398897Y0163300D01*
X0398897Y0162499D01*
X0399698Y0164100D02*
X0398897Y0164901D01*
X0398897Y0165702D01*
X0399698Y0166502D01*
X0401299Y0166502D01*
X0402100Y0165702D01*
X0401299Y0171698D02*
X0402100Y0172499D01*
X0401299Y0171698D02*
X0399698Y0171698D01*
X0398897Y0172499D01*
X0398897Y0173300D01*
X0399698Y0174100D01*
X0400499Y0174100D01*
X0399698Y0174100D02*
X0398897Y0174901D01*
X0398897Y0175702D01*
X0399698Y0176502D01*
X0401299Y0176502D01*
X0402100Y0175702D01*
X0396944Y0176502D02*
X0393741Y0176502D01*
X0393741Y0175702D01*
X0396944Y0172499D01*
X0396944Y0171698D01*
X0396143Y0181698D02*
X0396944Y0182499D01*
X0396143Y0181698D02*
X0394542Y0181698D01*
X0393741Y0182499D01*
X0393741Y0184100D01*
X0394542Y0184901D01*
X0395342Y0184901D01*
X0396944Y0184100D01*
X0396944Y0186502D01*
X0393741Y0186502D01*
X0398897Y0185702D02*
X0398897Y0184901D01*
X0399698Y0184100D01*
X0398897Y0183300D01*
X0398897Y0182499D01*
X0399698Y0181698D01*
X0401299Y0181698D01*
X0402100Y0182499D01*
X0400499Y0184100D02*
X0399698Y0184100D01*
X0398897Y0185702D02*
X0399698Y0186502D01*
X0401299Y0186502D01*
X0402100Y0185702D01*
X0401299Y0191698D02*
X0402100Y0192499D01*
X0401299Y0191698D02*
X0399698Y0191698D01*
X0398897Y0192499D01*
X0398897Y0193300D01*
X0399698Y0194100D01*
X0400499Y0194100D01*
X0399698Y0194100D02*
X0398897Y0194901D01*
X0398897Y0195702D01*
X0399698Y0196502D01*
X0401299Y0196502D01*
X0402100Y0195702D01*
X0396944Y0195702D02*
X0396143Y0196502D01*
X0394542Y0196502D01*
X0393741Y0195702D01*
X0393741Y0194901D01*
X0394542Y0194100D01*
X0393741Y0193300D01*
X0393741Y0192499D01*
X0394542Y0191698D01*
X0396143Y0191698D01*
X0396944Y0192499D01*
X0395342Y0194100D02*
X0394542Y0194100D01*
X0395342Y0201698D02*
X0395342Y0206502D01*
X0396944Y0204901D01*
X0398897Y0204901D02*
X0399698Y0204100D01*
X0398897Y0203300D01*
X0398897Y0202499D01*
X0399698Y0201698D01*
X0401299Y0201698D01*
X0402100Y0202499D01*
X0400499Y0204100D02*
X0399698Y0204100D01*
X0398897Y0204901D02*
X0398897Y0205702D01*
X0399698Y0206502D01*
X0401299Y0206502D01*
X0402100Y0205702D01*
X0396944Y0201698D02*
X0393741Y0201698D01*
X0364098Y0146402D02*
X0364098Y0141598D01*
D11*
X0107098Y0059899D02*
X0092902Y0059899D01*
X0092902Y0078497D02*
X0107098Y0078497D01*
X0120300Y0063853D02*
X0120300Y0061491D01*
X0125025Y0061491D02*
X0125025Y0063853D01*
X0133300Y0072982D02*
X0136703Y0072982D01*
X0136703Y0074684D01*
X0136136Y0075251D01*
X0135001Y0075251D01*
X0134434Y0074684D01*
X0134434Y0072982D01*
X0134434Y0074117D02*
X0133300Y0075251D01*
X0133300Y0076666D02*
X0133300Y0078934D01*
X0133867Y0080349D02*
X0133300Y0080916D01*
X0133300Y0082050D01*
X0133867Y0082617D01*
X0134434Y0082617D01*
X0135001Y0082050D01*
X0135001Y0080916D01*
X0135569Y0080349D01*
X0136136Y0080349D01*
X0136703Y0080916D01*
X0136703Y0082050D01*
X0136136Y0082617D01*
X0136703Y0084032D02*
X0133300Y0084032D01*
X0133300Y0086301D01*
X0135001Y0085166D02*
X0135001Y0084032D01*
X0136703Y0084032D02*
X0136703Y0086301D01*
X0136703Y0087715D02*
X0136703Y0089984D01*
X0136703Y0088849D02*
X0133300Y0088849D01*
X0136703Y0078934D02*
X0136703Y0076666D01*
X0133300Y0076666D01*
X0135001Y0076666D02*
X0135001Y0077800D01*
X0143300Y0078849D02*
X0144434Y0079984D01*
X0146703Y0079984D01*
X0146703Y0077715D02*
X0144434Y0077715D01*
X0143300Y0078849D01*
X0143867Y0076301D02*
X0143300Y0075733D01*
X0143300Y0074599D01*
X0143867Y0074032D01*
X0145001Y0074032D02*
X0145569Y0075166D01*
X0145569Y0075733D01*
X0145001Y0076301D01*
X0143867Y0076301D01*
X0145001Y0074032D02*
X0146703Y0074032D01*
X0146703Y0076301D01*
X0153300Y0075733D02*
X0153300Y0074599D01*
X0153867Y0074032D01*
X0155001Y0074032D02*
X0155569Y0075166D01*
X0155569Y0075733D01*
X0155001Y0076301D01*
X0153867Y0076301D01*
X0153300Y0075733D01*
X0154434Y0077715D02*
X0153300Y0078849D01*
X0154434Y0079984D01*
X0156703Y0079984D01*
X0156703Y0077715D02*
X0154434Y0077715D01*
X0156703Y0076301D02*
X0156703Y0074032D01*
X0155001Y0074032D01*
X0163300Y0074032D02*
X0166703Y0074032D01*
X0163300Y0076301D01*
X0166703Y0076301D01*
X0166703Y0077715D02*
X0163300Y0077715D01*
X0163300Y0079417D01*
X0163867Y0079984D01*
X0166136Y0079984D01*
X0166703Y0079417D01*
X0166703Y0077715D01*
X0166136Y0072617D02*
X0166703Y0072050D01*
X0166703Y0070916D01*
X0166136Y0070349D01*
X0163867Y0070349D01*
X0163300Y0070916D01*
X0163300Y0072050D01*
X0163867Y0072617D01*
X0165001Y0072617D01*
X0165001Y0071483D01*
X0173300Y0070916D02*
X0173300Y0072050D01*
X0173867Y0072617D01*
X0175001Y0072617D01*
X0175001Y0071483D01*
X0173867Y0070349D02*
X0173300Y0070916D01*
X0173867Y0070349D02*
X0176136Y0070349D01*
X0176703Y0070916D01*
X0176703Y0072050D01*
X0176136Y0072617D01*
X0176703Y0074032D02*
X0173300Y0076301D01*
X0176703Y0076301D01*
X0176703Y0077715D02*
X0176703Y0079417D01*
X0176136Y0079984D01*
X0173867Y0079984D01*
X0173300Y0079417D01*
X0173300Y0077715D01*
X0176703Y0077715D01*
X0176703Y0074032D02*
X0173300Y0074032D01*
X0183300Y0075260D02*
X0183300Y0076394D01*
X0183300Y0075827D02*
X0185569Y0075827D01*
X0185569Y0075260D01*
X0186703Y0075827D02*
X0187270Y0075827D01*
X0186703Y0073845D02*
X0184434Y0073845D01*
X0183300Y0072711D01*
X0184434Y0071576D01*
X0186703Y0071576D01*
X0185569Y0077715D02*
X0185569Y0079416D01*
X0185001Y0079984D01*
X0183300Y0079984D01*
X0183300Y0077715D02*
X0185569Y0077715D01*
X0189659Y0036767D02*
X0190793Y0036200D01*
X0191927Y0035066D01*
X0190226Y0035066D01*
X0189659Y0034499D01*
X0189659Y0033931D01*
X0190226Y0033364D01*
X0191360Y0033364D01*
X0191927Y0033931D01*
X0191927Y0035066D01*
X0193342Y0035066D02*
X0195611Y0035066D01*
X0195611Y0035633D02*
X0194476Y0036767D01*
X0193342Y0035633D01*
X0193342Y0033364D01*
X0195611Y0033364D02*
X0195611Y0035633D01*
X0204659Y0036200D02*
X0206927Y0033931D01*
X0206927Y0033364D01*
X0208342Y0033364D02*
X0208342Y0035633D01*
X0209476Y0036767D01*
X0210611Y0035633D01*
X0210611Y0033364D01*
X0210611Y0035066D02*
X0208342Y0035066D01*
X0206927Y0036767D02*
X0204659Y0036767D01*
X0204659Y0036200D01*
X0219659Y0036200D02*
X0219659Y0035633D01*
X0220226Y0035066D01*
X0221360Y0035066D01*
X0221927Y0035633D01*
X0221927Y0036200D01*
X0221360Y0036767D01*
X0220226Y0036767D01*
X0219659Y0036200D01*
X0220226Y0035066D02*
X0219659Y0034499D01*
X0219659Y0033931D01*
X0220226Y0033364D01*
X0221360Y0033364D01*
X0221927Y0033931D01*
X0221927Y0034499D01*
X0221360Y0035066D01*
X0223342Y0035066D02*
X0225611Y0035066D01*
X0225611Y0035633D02*
X0224476Y0036767D01*
X0223342Y0035633D01*
X0223342Y0033364D01*
X0225611Y0033364D02*
X0225611Y0035633D01*
X0229659Y0036200D02*
X0229659Y0033931D01*
X0230226Y0033364D01*
X0231360Y0033364D01*
X0231927Y0033931D01*
X0231360Y0035066D02*
X0229659Y0035066D01*
X0229659Y0036200D02*
X0230226Y0036767D01*
X0231360Y0036767D01*
X0231927Y0036200D01*
X0231927Y0035633D01*
X0231360Y0035066D01*
X0233342Y0035066D02*
X0235611Y0035066D01*
X0235611Y0035633D02*
X0234476Y0036767D01*
X0233342Y0035633D01*
X0233342Y0033364D01*
X0235611Y0033364D02*
X0235611Y0035633D01*
X0239884Y0036419D02*
X0242153Y0034150D01*
X0241586Y0033583D01*
X0240451Y0033583D01*
X0239884Y0034150D01*
X0239884Y0036419D01*
X0240451Y0036986D01*
X0241586Y0036986D01*
X0242153Y0036419D01*
X0242153Y0034150D01*
X0243567Y0033583D02*
X0245836Y0033583D01*
X0244702Y0033583D02*
X0244702Y0036986D01*
X0245836Y0035851D01*
X0247251Y0035851D02*
X0247251Y0033583D01*
X0247251Y0035284D02*
X0249519Y0035284D01*
X0249519Y0035851D02*
X0248385Y0036986D01*
X0247251Y0035851D01*
X0249519Y0035851D02*
X0249519Y0033583D01*
X0252285Y0033146D02*
X0254554Y0033146D01*
X0253420Y0033146D02*
X0253420Y0036549D01*
X0254554Y0035414D01*
X0255969Y0033146D02*
X0258237Y0033146D01*
X0257103Y0033146D02*
X0257103Y0036549D01*
X0258237Y0035414D01*
X0259652Y0035414D02*
X0259652Y0033146D01*
X0259652Y0034847D02*
X0261920Y0034847D01*
X0261920Y0035414D02*
X0260786Y0036549D01*
X0259652Y0035414D01*
X0261920Y0035414D02*
X0261920Y0033146D01*
X0266631Y0033364D02*
X0268899Y0033364D01*
X0266631Y0035633D01*
X0266631Y0036200D01*
X0267198Y0036767D01*
X0268332Y0036767D01*
X0268899Y0036200D01*
X0271448Y0036767D02*
X0271448Y0033364D01*
X0272582Y0033364D02*
X0270314Y0033364D01*
X0272582Y0035633D02*
X0271448Y0036767D01*
X0273997Y0035633D02*
X0273997Y0033364D01*
X0273997Y0035066D02*
X0276265Y0035066D01*
X0276265Y0035633D02*
X0275131Y0036767D01*
X0273997Y0035633D01*
X0276265Y0035633D02*
X0276265Y0033364D01*
X0280976Y0033931D02*
X0281543Y0033364D01*
X0282677Y0033364D01*
X0283244Y0033931D01*
X0284659Y0033364D02*
X0286927Y0033364D01*
X0285793Y0033364D02*
X0285793Y0036767D01*
X0286927Y0035633D01*
X0288342Y0035633D02*
X0288342Y0033364D01*
X0288342Y0035066D02*
X0290611Y0035066D01*
X0290611Y0035633D02*
X0289476Y0036767D01*
X0288342Y0035633D01*
X0290611Y0035633D02*
X0290611Y0033364D01*
X0295976Y0035066D02*
X0298244Y0035066D01*
X0296543Y0036767D01*
X0296543Y0033364D01*
X0299659Y0033364D02*
X0301927Y0033364D01*
X0300793Y0033364D02*
X0300793Y0036767D01*
X0301927Y0035633D01*
X0303342Y0035633D02*
X0303342Y0033364D01*
X0303342Y0035066D02*
X0305611Y0035066D01*
X0305611Y0035633D02*
X0304476Y0036767D01*
X0303342Y0035633D01*
X0305611Y0035633D02*
X0305611Y0033364D01*
X0309448Y0034150D02*
X0309448Y0035284D01*
X0310015Y0035851D01*
X0310582Y0035851D01*
X0311716Y0035284D01*
X0311716Y0036986D01*
X0309448Y0036986D01*
X0309448Y0034150D02*
X0310015Y0033583D01*
X0311149Y0033583D01*
X0311716Y0034150D01*
X0313131Y0033583D02*
X0315399Y0033583D01*
X0314265Y0033583D02*
X0314265Y0036986D01*
X0315399Y0035851D01*
X0316814Y0035851D02*
X0316814Y0033583D01*
X0316814Y0035284D02*
X0319083Y0035284D01*
X0319083Y0035851D02*
X0317948Y0036986D01*
X0316814Y0035851D01*
X0319083Y0035851D02*
X0319083Y0033583D01*
X0327258Y0036637D02*
X0329526Y0034368D01*
X0329526Y0033801D01*
X0331508Y0033801D02*
X0331508Y0037204D01*
X0333209Y0035503D01*
X0330941Y0035503D01*
X0329526Y0037204D02*
X0327258Y0037204D01*
X0327258Y0036637D01*
X0339659Y0036200D02*
X0339659Y0035633D01*
X0340226Y0035066D01*
X0341360Y0035066D01*
X0341927Y0035633D01*
X0341927Y0036200D01*
X0341360Y0036767D01*
X0340226Y0036767D01*
X0339659Y0036200D01*
X0340226Y0035066D02*
X0339659Y0034499D01*
X0339659Y0033931D01*
X0340226Y0033364D01*
X0341360Y0033364D01*
X0341927Y0033931D01*
X0341927Y0034499D01*
X0341360Y0035066D01*
X0343342Y0035066D02*
X0345611Y0035066D01*
X0343909Y0036767D01*
X0343909Y0033364D01*
X0354659Y0033931D02*
X0354659Y0036200D01*
X0355226Y0036767D01*
X0356360Y0036767D01*
X0356927Y0036200D01*
X0356927Y0035633D01*
X0356360Y0035066D01*
X0354659Y0035066D01*
X0354659Y0033931D02*
X0355226Y0033364D01*
X0356360Y0033364D01*
X0356927Y0033931D01*
X0358342Y0035066D02*
X0360611Y0035066D01*
X0358909Y0036767D01*
X0358909Y0033364D01*
X0393132Y0081598D02*
X0392565Y0082165D01*
X0392565Y0084434D01*
X0393132Y0085001D01*
X0394834Y0085001D01*
X0394834Y0081598D01*
X0393132Y0081598D01*
X0396248Y0081598D02*
X0396248Y0085001D01*
X0398517Y0085001D02*
X0396248Y0081598D01*
X0398517Y0081598D02*
X0398517Y0085001D01*
X0399931Y0084434D02*
X0400499Y0085001D01*
X0401633Y0085001D01*
X0402200Y0084434D01*
X0402200Y0082165D01*
X0401633Y0081598D01*
X0400499Y0081598D01*
X0399931Y0082165D01*
X0399931Y0083300D01*
X0401066Y0083300D01*
X0283244Y0036200D02*
X0282677Y0036767D01*
X0281543Y0036767D01*
X0280976Y0036200D01*
X0280976Y0035633D01*
X0281543Y0035066D01*
X0280976Y0034499D01*
X0280976Y0033931D01*
X0281543Y0035066D02*
X0282110Y0035066D01*
X0180611Y0035066D02*
X0178342Y0035066D01*
X0178342Y0035633D02*
X0178342Y0033364D01*
X0176927Y0033931D02*
X0176360Y0033364D01*
X0175226Y0033364D01*
X0174659Y0033931D01*
X0174659Y0035066D01*
X0175226Y0035633D01*
X0175793Y0035633D01*
X0176927Y0035066D01*
X0176927Y0036767D01*
X0174659Y0036767D01*
X0178342Y0035633D02*
X0179476Y0036767D01*
X0180611Y0035633D01*
X0180611Y0033364D01*
X0167183Y0033364D02*
X0167183Y0035633D01*
X0166049Y0036767D01*
X0164914Y0035633D01*
X0164914Y0033364D01*
X0164914Y0035066D02*
X0167183Y0035066D01*
X0163500Y0035066D02*
X0161231Y0035066D01*
X0161798Y0036767D02*
X0163500Y0035066D01*
X0161798Y0033364D02*
X0161798Y0036767D01*
X0152969Y0035633D02*
X0152969Y0033364D01*
X0152969Y0035066D02*
X0150701Y0035066D01*
X0150701Y0035633D02*
X0150701Y0033364D01*
X0149286Y0033931D02*
X0148719Y0033364D01*
X0147585Y0033364D01*
X0147017Y0033931D01*
X0147017Y0034499D01*
X0147585Y0035066D01*
X0148152Y0035066D01*
X0147585Y0035066D02*
X0147017Y0035633D01*
X0147017Y0036200D01*
X0147585Y0036767D01*
X0148719Y0036767D01*
X0149286Y0036200D01*
X0150701Y0035633D02*
X0151835Y0036767D01*
X0152969Y0035633D01*
X0139280Y0035895D02*
X0139280Y0033627D01*
X0139280Y0035328D02*
X0137011Y0035328D01*
X0137011Y0035895D02*
X0137011Y0033627D01*
X0135596Y0033627D02*
X0133328Y0035895D01*
X0133328Y0036462D01*
X0133895Y0037029D01*
X0135029Y0037029D01*
X0135596Y0036462D01*
X0137011Y0035895D02*
X0138145Y0037029D01*
X0139280Y0035895D01*
X0135596Y0033627D02*
X0133328Y0033627D01*
X0125873Y0033364D02*
X0125873Y0035633D01*
X0124738Y0036767D01*
X0123604Y0035633D01*
X0123604Y0033364D01*
X0122189Y0033364D02*
X0119921Y0033364D01*
X0121055Y0033364D02*
X0121055Y0036767D01*
X0122189Y0035633D01*
X0123604Y0035066D02*
X0125873Y0035066D01*
X0111659Y0035066D02*
X0109390Y0035066D01*
X0109390Y0035633D02*
X0109390Y0033364D01*
X0107976Y0033931D02*
X0105707Y0036200D01*
X0105707Y0033931D01*
X0106274Y0033364D01*
X0107409Y0033364D01*
X0107976Y0033931D01*
X0107976Y0036200D01*
X0107409Y0036767D01*
X0106274Y0036767D01*
X0105707Y0036200D01*
X0109390Y0035633D02*
X0110525Y0036767D01*
X0111659Y0035633D01*
X0111659Y0033364D01*
X0086181Y0101836D02*
X0083819Y0101836D01*
X0083819Y0106560D02*
X0086181Y0106560D01*
X0071181Y0106560D02*
X0068819Y0106560D01*
X0068819Y0101836D02*
X0071181Y0101836D01*
X0109827Y0128488D02*
X0109827Y0130850D01*
X0114552Y0130850D02*
X0114552Y0128488D01*
X0106500Y0144498D02*
X0063500Y0144498D01*
X0063424Y0144500D01*
X0063348Y0144506D01*
X0063273Y0144515D01*
X0063198Y0144529D01*
X0063124Y0144546D01*
X0063051Y0144567D01*
X0062979Y0144591D01*
X0062908Y0144620D01*
X0062839Y0144651D01*
X0062772Y0144686D01*
X0062707Y0144725D01*
X0062643Y0144767D01*
X0062582Y0144812D01*
X0062523Y0144860D01*
X0062467Y0144911D01*
X0062413Y0144965D01*
X0062362Y0145021D01*
X0062314Y0145080D01*
X0062269Y0145141D01*
X0062227Y0145205D01*
X0062188Y0145270D01*
X0062153Y0145337D01*
X0062122Y0145406D01*
X0062093Y0145477D01*
X0062069Y0145549D01*
X0062048Y0145622D01*
X0062031Y0145696D01*
X0062017Y0145771D01*
X0062008Y0145846D01*
X0062002Y0145922D01*
X0062000Y0145998D01*
X0062000Y0172398D01*
X0062002Y0172474D01*
X0062008Y0172550D01*
X0062017Y0172625D01*
X0062031Y0172700D01*
X0062048Y0172774D01*
X0062069Y0172847D01*
X0062093Y0172919D01*
X0062122Y0172990D01*
X0062153Y0173059D01*
X0062188Y0173126D01*
X0062227Y0173191D01*
X0062269Y0173255D01*
X0062314Y0173316D01*
X0062362Y0173375D01*
X0062413Y0173431D01*
X0062467Y0173485D01*
X0062523Y0173536D01*
X0062582Y0173584D01*
X0062643Y0173629D01*
X0062707Y0173671D01*
X0062772Y0173710D01*
X0062839Y0173745D01*
X0062908Y0173776D01*
X0062979Y0173805D01*
X0063051Y0173829D01*
X0063124Y0173850D01*
X0063198Y0173867D01*
X0063273Y0173881D01*
X0063348Y0173890D01*
X0063424Y0173896D01*
X0063500Y0173898D01*
X0106500Y0173898D01*
X0106576Y0173896D01*
X0106652Y0173890D01*
X0106727Y0173881D01*
X0106802Y0173867D01*
X0106876Y0173850D01*
X0106949Y0173829D01*
X0107021Y0173805D01*
X0107092Y0173776D01*
X0107161Y0173745D01*
X0107228Y0173710D01*
X0107293Y0173671D01*
X0107357Y0173629D01*
X0107418Y0173584D01*
X0107477Y0173536D01*
X0107533Y0173485D01*
X0107587Y0173431D01*
X0107638Y0173375D01*
X0107686Y0173316D01*
X0107731Y0173255D01*
X0107773Y0173191D01*
X0107812Y0173126D01*
X0107847Y0173059D01*
X0107878Y0172990D01*
X0107907Y0172919D01*
X0107931Y0172847D01*
X0107952Y0172774D01*
X0107969Y0172700D01*
X0107983Y0172625D01*
X0107992Y0172550D01*
X0107998Y0172474D01*
X0108000Y0172398D01*
X0108000Y0145998D01*
X0107998Y0145922D01*
X0107992Y0145846D01*
X0107983Y0145771D01*
X0107969Y0145696D01*
X0107952Y0145622D01*
X0107931Y0145549D01*
X0107907Y0145477D01*
X0107878Y0145406D01*
X0107847Y0145337D01*
X0107812Y0145270D01*
X0107773Y0145205D01*
X0107731Y0145141D01*
X0107686Y0145080D01*
X0107638Y0145021D01*
X0107587Y0144965D01*
X0107533Y0144911D01*
X0107477Y0144860D01*
X0107418Y0144812D01*
X0107357Y0144767D01*
X0107293Y0144725D01*
X0107228Y0144686D01*
X0107161Y0144651D01*
X0107092Y0144620D01*
X0107021Y0144591D01*
X0106949Y0144567D01*
X0106876Y0144546D01*
X0106802Y0144529D01*
X0106727Y0144515D01*
X0106652Y0144506D01*
X0106576Y0144500D01*
X0106500Y0144498D01*
X0108000Y0154198D02*
X0107860Y0154200D01*
X0107720Y0154206D01*
X0107580Y0154216D01*
X0107440Y0154229D01*
X0107301Y0154247D01*
X0107162Y0154269D01*
X0107025Y0154294D01*
X0106887Y0154323D01*
X0106751Y0154356D01*
X0106616Y0154393D01*
X0106482Y0154434D01*
X0106349Y0154479D01*
X0106217Y0154527D01*
X0106087Y0154579D01*
X0105958Y0154634D01*
X0105831Y0154693D01*
X0105705Y0154756D01*
X0105581Y0154822D01*
X0105460Y0154891D01*
X0105340Y0154964D01*
X0105222Y0155041D01*
X0105107Y0155120D01*
X0104993Y0155203D01*
X0104883Y0155289D01*
X0104774Y0155378D01*
X0104668Y0155470D01*
X0104565Y0155565D01*
X0104464Y0155662D01*
X0104367Y0155763D01*
X0104272Y0155866D01*
X0104180Y0155972D01*
X0104091Y0156081D01*
X0104005Y0156191D01*
X0103922Y0156305D01*
X0103843Y0156420D01*
X0103766Y0156538D01*
X0103693Y0156658D01*
X0103624Y0156779D01*
X0103558Y0156903D01*
X0103495Y0157029D01*
X0103436Y0157156D01*
X0103381Y0157285D01*
X0103329Y0157415D01*
X0103281Y0157547D01*
X0103236Y0157680D01*
X0103195Y0157814D01*
X0103158Y0157949D01*
X0103125Y0158085D01*
X0103096Y0158223D01*
X0103071Y0158360D01*
X0103049Y0158499D01*
X0103031Y0158638D01*
X0103018Y0158778D01*
X0103008Y0158918D01*
X0103002Y0159058D01*
X0103000Y0159198D01*
X0103002Y0159338D01*
X0103008Y0159478D01*
X0103018Y0159618D01*
X0103031Y0159758D01*
X0103049Y0159897D01*
X0103071Y0160036D01*
X0103096Y0160173D01*
X0103125Y0160311D01*
X0103158Y0160447D01*
X0103195Y0160582D01*
X0103236Y0160716D01*
X0103281Y0160849D01*
X0103329Y0160981D01*
X0103381Y0161111D01*
X0103436Y0161240D01*
X0103495Y0161367D01*
X0103558Y0161493D01*
X0103624Y0161617D01*
X0103693Y0161738D01*
X0103766Y0161858D01*
X0103843Y0161976D01*
X0103922Y0162091D01*
X0104005Y0162205D01*
X0104091Y0162315D01*
X0104180Y0162424D01*
X0104272Y0162530D01*
X0104367Y0162633D01*
X0104464Y0162734D01*
X0104565Y0162831D01*
X0104668Y0162926D01*
X0104774Y0163018D01*
X0104883Y0163107D01*
X0104993Y0163193D01*
X0105107Y0163276D01*
X0105222Y0163355D01*
X0105340Y0163432D01*
X0105460Y0163505D01*
X0105581Y0163574D01*
X0105705Y0163640D01*
X0105831Y0163703D01*
X0105958Y0163762D01*
X0106087Y0163817D01*
X0106217Y0163869D01*
X0106349Y0163917D01*
X0106482Y0163962D01*
X0106616Y0164003D01*
X0106751Y0164040D01*
X0106887Y0164073D01*
X0107025Y0164102D01*
X0107162Y0164127D01*
X0107301Y0164149D01*
X0107440Y0164167D01*
X0107580Y0164180D01*
X0107720Y0164190D01*
X0107860Y0164196D01*
X0108000Y0164198D01*
X0118122Y0287522D02*
X0118689Y0287522D01*
X0119256Y0288089D01*
X0119256Y0289223D01*
X0118689Y0289790D01*
X0118122Y0289790D01*
X0117555Y0289223D01*
X0117555Y0288089D01*
X0118122Y0287522D01*
X0119256Y0288089D02*
X0119823Y0287522D01*
X0120390Y0287522D01*
X0120958Y0288089D01*
X0120958Y0289223D01*
X0120390Y0289790D01*
X0119823Y0289790D01*
X0119256Y0289223D01*
X0107887Y0289384D02*
X0107320Y0288817D01*
X0106753Y0288817D01*
X0106186Y0289384D01*
X0106186Y0291086D01*
X0107320Y0291086D02*
X0107887Y0290519D01*
X0107887Y0289384D01*
X0107320Y0291086D02*
X0105051Y0291086D01*
X0104484Y0290519D01*
X0104484Y0289384D01*
X0105051Y0288817D01*
X0094246Y0290133D02*
X0093112Y0288999D01*
X0094246Y0290133D02*
X0090843Y0290133D01*
X0090843Y0288999D02*
X0090843Y0291268D01*
X0091410Y0292682D02*
X0090843Y0293249D01*
X0090843Y0294384D01*
X0091410Y0294951D01*
X0093679Y0294951D01*
X0091410Y0292682D01*
X0093679Y0292682D01*
X0094246Y0293249D01*
X0094246Y0294384D01*
X0093679Y0294951D01*
X0079867Y0293249D02*
X0078733Y0292115D01*
X0079867Y0293249D02*
X0076464Y0293249D01*
X0076464Y0292115D02*
X0076464Y0294384D01*
X0076464Y0290700D02*
X0076464Y0288432D01*
X0076464Y0289566D02*
X0079867Y0289566D01*
X0078733Y0288432D01*
X0066408Y0288842D02*
X0063005Y0288842D01*
X0063005Y0289976D02*
X0063005Y0287707D01*
X0065274Y0287707D02*
X0066408Y0288842D01*
X0065841Y0291391D02*
X0066408Y0291958D01*
X0066408Y0293092D01*
X0065841Y0293659D01*
X0065274Y0293659D01*
X0063005Y0291391D01*
X0063005Y0293659D01*
X0131584Y0287154D02*
X0132151Y0287154D01*
X0134420Y0289423D01*
X0134987Y0289423D01*
X0134987Y0287154D01*
X0145582Y0288267D02*
X0145582Y0289402D01*
X0146149Y0289969D01*
X0146716Y0289969D01*
X0147283Y0289402D01*
X0147283Y0287700D01*
X0146149Y0287700D01*
X0145582Y0288267D01*
X0147283Y0287700D02*
X0148417Y0288835D01*
X0148985Y0289969D01*
X0158519Y0289614D02*
X0158519Y0288480D01*
X0159087Y0287913D01*
X0160221Y0287913D02*
X0160788Y0289047D01*
X0160788Y0289614D01*
X0160221Y0290182D01*
X0159087Y0290182D01*
X0158519Y0289614D01*
X0160221Y0287913D02*
X0161922Y0287913D01*
X0161922Y0290182D01*
X0172922Y0289797D02*
X0176325Y0289797D01*
X0174623Y0288095D01*
X0174623Y0290364D01*
X0187122Y0289841D02*
X0187122Y0288707D01*
X0187689Y0288139D01*
X0188824Y0289274D02*
X0188824Y0289841D01*
X0188256Y0290408D01*
X0187689Y0290408D01*
X0187122Y0289841D01*
X0188824Y0289841D02*
X0189391Y0290408D01*
X0189958Y0290408D01*
X0190525Y0289841D01*
X0190525Y0288707D01*
X0189958Y0288139D01*
X0200376Y0288139D02*
X0202644Y0290408D01*
X0203211Y0290408D01*
X0203779Y0289841D01*
X0203779Y0288707D01*
X0203211Y0288139D01*
X0200376Y0288139D02*
X0200376Y0290408D01*
X0214979Y0290543D02*
X0218382Y0290543D01*
X0217248Y0289408D01*
X0214979Y0289408D02*
X0214979Y0291677D01*
X0228769Y0290807D02*
X0228769Y0289672D01*
X0229336Y0289105D01*
X0231605Y0291374D01*
X0229336Y0291374D01*
X0228769Y0290807D01*
X0229336Y0289105D02*
X0231605Y0289105D01*
X0232172Y0289672D01*
X0232172Y0290807D01*
X0231605Y0291374D01*
X0242104Y0291071D02*
X0242104Y0288802D01*
X0242104Y0289936D02*
X0245507Y0289936D01*
X0244373Y0288802D01*
X0243806Y0292485D02*
X0243806Y0294754D01*
X0242104Y0294187D02*
X0245507Y0294187D01*
X0243806Y0292485D01*
X0255807Y0291710D02*
X0255807Y0289442D01*
X0255807Y0290576D02*
X0259210Y0290576D01*
X0258076Y0289442D01*
X0257509Y0293125D02*
X0258076Y0294259D01*
X0258076Y0294826D01*
X0257509Y0295393D01*
X0256374Y0295393D01*
X0255807Y0294826D01*
X0255807Y0293692D01*
X0256374Y0293125D01*
X0257509Y0293125D02*
X0259210Y0293125D01*
X0259210Y0295393D01*
X0269994Y0294462D02*
X0270561Y0295030D01*
X0271128Y0295030D01*
X0271695Y0294462D01*
X0271695Y0292761D01*
X0270561Y0292761D01*
X0269994Y0293328D01*
X0269994Y0294462D01*
X0271695Y0292761D02*
X0272829Y0293895D01*
X0273397Y0295030D01*
X0273397Y0290212D02*
X0269994Y0290212D01*
X0269994Y0289078D02*
X0269994Y0291346D01*
X0272262Y0289078D02*
X0273397Y0290212D01*
X0283816Y0290212D02*
X0287219Y0290212D01*
X0286085Y0289078D01*
X0283816Y0289078D02*
X0283816Y0291346D01*
X0283816Y0292761D02*
X0284384Y0292761D01*
X0286652Y0295030D01*
X0287219Y0295030D01*
X0287219Y0292761D01*
X0297639Y0293510D02*
X0298206Y0292943D01*
X0298774Y0292943D01*
X0299341Y0293510D01*
X0299341Y0294644D01*
X0298774Y0295211D01*
X0298206Y0295211D01*
X0297639Y0294644D01*
X0297639Y0293510D01*
X0299341Y0293510D02*
X0299908Y0292943D01*
X0300475Y0292943D01*
X0301042Y0293510D01*
X0301042Y0294644D01*
X0300475Y0295211D01*
X0299908Y0295211D01*
X0299341Y0294644D01*
X0297639Y0291528D02*
X0297639Y0289260D01*
X0297639Y0290394D02*
X0301042Y0290394D01*
X0299908Y0289260D01*
X0311280Y0289442D02*
X0311280Y0291710D01*
X0311280Y0290576D02*
X0314683Y0290576D01*
X0313549Y0289442D01*
X0313549Y0293125D02*
X0312982Y0293692D01*
X0312982Y0295393D01*
X0314116Y0295393D02*
X0314683Y0294826D01*
X0314683Y0293692D01*
X0314116Y0293125D01*
X0313549Y0293125D01*
X0311847Y0293125D02*
X0311280Y0293692D01*
X0311280Y0294826D01*
X0311847Y0295393D01*
X0314116Y0295393D01*
X0324557Y0294644D02*
X0324557Y0293510D01*
X0325124Y0292943D01*
X0327393Y0295211D01*
X0325124Y0295211D01*
X0324557Y0294644D01*
X0325124Y0292943D02*
X0327393Y0292943D01*
X0327960Y0293510D01*
X0327960Y0294644D01*
X0327393Y0295211D01*
X0327393Y0291528D02*
X0326826Y0291528D01*
X0324557Y0289260D01*
X0324557Y0291528D01*
X0327393Y0291528D02*
X0327960Y0290961D01*
X0327960Y0289827D01*
X0327393Y0289260D01*
D12*
X0332559Y0290025D02*
X0332559Y0294356D01*
X0277441Y0294356D01*
X0277441Y0317584D01*
X0332559Y0317584D01*
X0332559Y0294356D01*
X0332559Y0290025D02*
X0277441Y0290025D01*
X0277441Y0294356D01*
X0277559Y0294356D02*
X0222441Y0294356D01*
X0222441Y0317584D01*
X0277559Y0317584D01*
X0277559Y0294356D01*
X0277559Y0290025D01*
X0222441Y0290025D01*
X0222441Y0294356D01*
X0222559Y0294356D02*
X0167441Y0294356D01*
X0167441Y0317584D01*
X0222559Y0317584D01*
X0222559Y0294356D01*
X0222559Y0290025D01*
X0167441Y0290025D01*
X0167441Y0294356D01*
X0167559Y0294356D02*
X0112441Y0294356D01*
X0112441Y0317584D01*
X0167559Y0317584D01*
X0167559Y0294356D01*
X0167559Y0290025D01*
X0112441Y0290025D01*
X0112441Y0294356D01*
X0112559Y0294356D02*
X0057441Y0294356D01*
X0057441Y0317584D01*
X0112559Y0317584D01*
X0112559Y0294356D01*
X0112559Y0290025D01*
X0057441Y0290025D01*
X0057441Y0294356D01*
X0102441Y0032584D02*
X0157559Y0032584D01*
X0157559Y0009356D01*
X0102441Y0009356D01*
X0102441Y0032584D01*
X0102441Y0009356D02*
X0102441Y0005025D01*
X0157559Y0005025D01*
X0157559Y0009356D01*
X0157441Y0009356D02*
X0212559Y0009356D01*
X0212559Y0005025D01*
X0157441Y0005025D01*
X0157441Y0009356D01*
X0157441Y0032584D01*
X0212559Y0032584D01*
X0212559Y0009356D01*
X0212441Y0009356D02*
X0267559Y0009356D01*
X0267559Y0005025D01*
X0212441Y0005025D01*
X0212441Y0009356D01*
X0212441Y0032584D01*
X0267559Y0032584D01*
X0267559Y0009356D01*
X0267441Y0009356D02*
X0322559Y0009356D01*
X0322559Y0005025D01*
X0267441Y0005025D01*
X0267441Y0009356D01*
X0267441Y0032584D01*
X0322559Y0032584D01*
X0322559Y0009356D01*
X0322441Y0009356D02*
X0377559Y0009356D01*
X0377559Y0005025D01*
X0322441Y0005025D01*
X0322441Y0009356D01*
X0322441Y0032584D01*
X0377559Y0032584D01*
X0377559Y0009356D01*
D13*
X0108000Y0145898D02*
X0062000Y0145898D01*
D14*
X0065000Y0144248D03*
X0070000Y0144248D03*
X0075000Y0144248D03*
X0080000Y0144248D03*
X0085000Y0144248D03*
X0090000Y0144248D03*
X0095000Y0144248D03*
X0100000Y0144248D03*
X0105000Y0144248D03*
X0105000Y0174148D03*
X0100000Y0174148D03*
X0095000Y0174148D03*
X0090000Y0174148D03*
X0085000Y0174148D03*
X0080000Y0174148D03*
X0075000Y0174148D03*
X0070000Y0174148D03*
X0065000Y0174148D03*
D15*
X0393200Y0079198D02*
X0405000Y0079198D01*
M02*
