G75*
%MOIN*%
%OFA0B0*%
%FSLAX25Y25*%
%IPPOS*%
%LPD*%
%AMOC8*
5,1,8,0,0,1.08239X$1,22.5*
%
%ADD10C,0.06400*%
%ADD11R,0.03550X0.05124*%
%ADD12C,0.09000*%
%ADD13OC8,0.06400*%
%ADD14OC8,0.07000*%
%ADD15R,0.05518X0.06699*%
%ADD16C,0.07800*%
%ADD17R,0.03000X0.08400*%
%ADD18R,0.09100X0.02800*%
%ADD19OC8,0.07800*%
%ADD20C,0.07400*%
%ADD21C,0.05600*%
%ADD22R,0.05124X0.03550*%
%ADD23R,0.06699X0.05518*%
%ADD24R,0.07800X0.07800*%
%ADD25C,0.12998*%
D10*
X0145000Y0146198D02*
X0145000Y0152198D01*
X0155000Y0152198D02*
X0155000Y0146198D01*
X0165000Y0146198D02*
X0165000Y0152198D01*
X0175000Y0152198D02*
X0175000Y0146198D01*
X0185000Y0146198D02*
X0185000Y0152198D01*
X0195000Y0152198D02*
X0195000Y0146198D01*
X0205000Y0146198D02*
X0205000Y0152198D01*
X0215000Y0152198D02*
X0215000Y0146198D01*
X0225000Y0146198D02*
X0225000Y0152198D01*
X0235000Y0152198D02*
X0235000Y0146198D01*
X0245000Y0146198D02*
X0245000Y0152198D01*
X0245000Y0161198D02*
X0245000Y0167198D01*
X0235000Y0167198D02*
X0235000Y0161198D01*
X0225000Y0161198D02*
X0225000Y0167198D01*
X0215000Y0167198D02*
X0215000Y0161198D01*
X0205000Y0161198D02*
X0205000Y0167198D01*
X0195000Y0167198D02*
X0195000Y0161198D01*
X0185000Y0161198D02*
X0185000Y0167198D01*
X0175000Y0167198D02*
X0175000Y0161198D01*
X0165000Y0161198D02*
X0165000Y0167198D01*
X0155000Y0167198D02*
X0155000Y0161198D01*
X0145000Y0161198D02*
X0145000Y0167198D01*
X0255000Y0167198D02*
X0255000Y0161198D01*
X0265000Y0161198D02*
X0265000Y0167198D01*
X0275000Y0167198D02*
X0275000Y0161198D01*
X0285000Y0161198D02*
X0285000Y0167198D01*
X0295000Y0167198D02*
X0295000Y0161198D01*
X0305000Y0161198D02*
X0305000Y0167198D01*
X0315000Y0167198D02*
X0315000Y0161198D01*
X0325000Y0161198D02*
X0325000Y0167198D01*
X0335000Y0167198D02*
X0335000Y0161198D01*
X0335000Y0152198D02*
X0335000Y0146198D01*
X0325000Y0146198D02*
X0325000Y0152198D01*
X0315000Y0152198D02*
X0315000Y0146198D01*
X0305000Y0146198D02*
X0305000Y0152198D01*
X0295000Y0152198D02*
X0295000Y0146198D01*
X0285000Y0146198D02*
X0285000Y0152198D01*
X0275000Y0152198D02*
X0275000Y0146198D01*
X0265000Y0146198D02*
X0265000Y0152198D01*
X0255000Y0152198D02*
X0255000Y0146198D01*
D11*
X0088543Y0104198D03*
X0081457Y0104198D03*
X0073543Y0104198D03*
X0066457Y0104198D03*
D12*
X0075000Y0089867D03*
X0075000Y0076088D03*
X0075000Y0062308D03*
X0075000Y0048529D03*
X0109331Y0044198D03*
X0123110Y0044198D03*
X0136890Y0044198D03*
X0150669Y0044198D03*
X0164331Y0044198D03*
X0178110Y0044198D03*
X0191890Y0044198D03*
X0205669Y0044198D03*
X0219331Y0044198D03*
X0233110Y0044198D03*
X0246890Y0044198D03*
X0260669Y0044198D03*
X0274331Y0044198D03*
X0288110Y0044198D03*
X0301890Y0044198D03*
X0315669Y0044198D03*
X0329331Y0044198D03*
X0343110Y0044198D03*
X0356890Y0044198D03*
X0370669Y0044198D03*
X0370669Y0019198D03*
X0356890Y0019198D03*
X0343110Y0019198D03*
X0329331Y0019198D03*
X0315669Y0019198D03*
X0301890Y0019198D03*
X0288110Y0019198D03*
X0274331Y0019198D03*
X0260669Y0019198D03*
X0246890Y0019198D03*
X0233110Y0019198D03*
X0219331Y0019198D03*
X0205669Y0019198D03*
X0191890Y0019198D03*
X0178110Y0019198D03*
X0164331Y0019198D03*
X0150669Y0019198D03*
X0136890Y0019198D03*
X0123110Y0019198D03*
X0109331Y0019198D03*
X0384900Y0015423D03*
X0398679Y0015423D03*
X0412459Y0015423D03*
X0426238Y0015423D03*
X0325669Y0279198D03*
X0311890Y0279198D03*
X0298110Y0279198D03*
X0284331Y0279198D03*
X0270669Y0279198D03*
X0256890Y0279198D03*
X0243110Y0279198D03*
X0229331Y0279198D03*
X0215669Y0279198D03*
X0201890Y0279198D03*
X0188110Y0279198D03*
X0174331Y0279198D03*
X0160669Y0279198D03*
X0146890Y0279198D03*
X0133110Y0279198D03*
X0119331Y0279198D03*
X0105669Y0279198D03*
X0091890Y0279198D03*
X0078110Y0279198D03*
X0064331Y0279198D03*
X0064331Y0304198D03*
X0078110Y0304198D03*
X0091890Y0304198D03*
X0105669Y0304198D03*
X0119331Y0304198D03*
X0133110Y0304198D03*
X0146890Y0304198D03*
X0160669Y0304198D03*
X0174331Y0304198D03*
X0188110Y0304198D03*
X0201890Y0304198D03*
X0215669Y0304198D03*
X0229331Y0304198D03*
X0243110Y0304198D03*
X0256890Y0304198D03*
X0270669Y0304198D03*
X0284331Y0304198D03*
X0298110Y0304198D03*
X0311890Y0304198D03*
X0325669Y0304198D03*
D13*
X0325000Y0229198D03*
X0315000Y0229198D03*
X0305000Y0229198D03*
X0295000Y0229198D03*
X0285000Y0229198D03*
X0275000Y0229198D03*
X0265000Y0229198D03*
X0255000Y0229198D03*
X0255000Y0219198D03*
X0255000Y0209198D03*
X0265000Y0209198D03*
X0275000Y0209198D03*
X0285000Y0209198D03*
X0295000Y0209198D03*
X0305000Y0209198D03*
X0315000Y0209198D03*
X0325000Y0209198D03*
X0335000Y0209198D03*
X0345000Y0209198D03*
X0355000Y0209198D03*
X0355000Y0219198D03*
X0345000Y0219198D03*
X0335000Y0219198D03*
X0325000Y0219198D03*
X0315000Y0219198D03*
X0305000Y0219198D03*
X0295000Y0219198D03*
X0285000Y0219198D03*
X0275000Y0219198D03*
X0265000Y0219198D03*
X0265000Y0199198D03*
X0255000Y0199198D03*
X0245000Y0199198D03*
X0235000Y0199198D03*
X0225000Y0199198D03*
X0215000Y0199198D03*
X0205000Y0199198D03*
X0195000Y0199198D03*
X0185000Y0199198D03*
X0175000Y0199198D03*
X0165000Y0199198D03*
X0155000Y0199198D03*
X0145000Y0199198D03*
X0135000Y0199198D03*
X0125000Y0199198D03*
X0125000Y0209198D03*
X0135000Y0209198D03*
X0145000Y0209198D03*
X0155000Y0209198D03*
X0165000Y0209198D03*
X0175000Y0209198D03*
X0185000Y0209198D03*
X0195000Y0209198D03*
X0205000Y0209198D03*
X0215000Y0209198D03*
X0225000Y0209198D03*
X0235000Y0209198D03*
X0245000Y0209198D03*
X0245000Y0219198D03*
X0235000Y0219198D03*
X0225000Y0219198D03*
X0215000Y0219198D03*
X0205000Y0219198D03*
X0195000Y0219198D03*
X0185000Y0219198D03*
X0175000Y0219198D03*
X0165000Y0219198D03*
X0155000Y0219198D03*
X0145000Y0219198D03*
X0135000Y0219198D03*
X0125000Y0219198D03*
X0125000Y0229198D03*
X0135000Y0229198D03*
X0145000Y0229198D03*
X0155000Y0229198D03*
X0165000Y0229198D03*
X0175000Y0229198D03*
X0185000Y0229198D03*
X0195000Y0229198D03*
X0205000Y0229198D03*
X0215000Y0229198D03*
X0225000Y0229198D03*
X0235000Y0229198D03*
X0245000Y0229198D03*
X0275000Y0199198D03*
X0285000Y0199198D03*
X0295000Y0199198D03*
X0305000Y0199198D03*
X0315000Y0199198D03*
X0325000Y0199198D03*
X0335000Y0199198D03*
X0345000Y0199198D03*
X0355000Y0199198D03*
X0355000Y0229198D03*
X0345000Y0229198D03*
X0335000Y0229198D03*
X0335000Y0115327D03*
X0325000Y0115327D03*
X0315000Y0115327D03*
X0305000Y0115327D03*
X0295000Y0115327D03*
X0285000Y0115327D03*
X0275000Y0115327D03*
X0265000Y0115327D03*
X0255000Y0115327D03*
X0245000Y0115327D03*
X0235000Y0115327D03*
X0225000Y0115327D03*
X0215000Y0115327D03*
X0205000Y0115327D03*
X0195000Y0115327D03*
X0185000Y0115327D03*
X0175000Y0115327D03*
X0165000Y0115327D03*
X0155000Y0115327D03*
X0145000Y0115327D03*
X0135000Y0115327D03*
X0125000Y0115327D03*
X0125000Y0105327D03*
X0135000Y0105327D03*
X0145000Y0105327D03*
X0155000Y0105327D03*
X0165000Y0105327D03*
X0175000Y0105327D03*
X0185000Y0105327D03*
X0195000Y0105327D03*
X0205000Y0105327D03*
X0215000Y0105327D03*
X0225000Y0105327D03*
X0235000Y0105327D03*
X0245000Y0105327D03*
X0255000Y0105327D03*
X0265000Y0105327D03*
X0275000Y0105327D03*
X0285000Y0105327D03*
X0295000Y0105327D03*
X0305000Y0105327D03*
X0315000Y0105327D03*
X0325000Y0105327D03*
X0335000Y0105327D03*
X0345000Y0105327D03*
X0355000Y0105327D03*
X0355000Y0115327D03*
X0345000Y0115327D03*
X0345000Y0095327D03*
X0335000Y0095327D03*
X0325000Y0095327D03*
X0315000Y0095327D03*
X0305000Y0095327D03*
X0295000Y0095327D03*
X0285000Y0095327D03*
X0275000Y0095327D03*
X0265000Y0095327D03*
X0255000Y0095327D03*
X0245000Y0095327D03*
X0235000Y0095327D03*
X0225000Y0095327D03*
X0215000Y0095327D03*
X0205000Y0095327D03*
X0195000Y0095327D03*
X0185000Y0095327D03*
X0175000Y0095327D03*
X0165000Y0095327D03*
X0155000Y0095327D03*
X0145000Y0095327D03*
X0135000Y0095327D03*
X0125000Y0095327D03*
X0125000Y0085327D03*
X0135000Y0085327D03*
X0145000Y0085327D03*
X0155000Y0085327D03*
X0165000Y0085327D03*
X0175000Y0085327D03*
X0185000Y0085327D03*
X0195000Y0085327D03*
X0205000Y0085327D03*
X0215000Y0085327D03*
X0225000Y0085327D03*
X0235000Y0085327D03*
X0245000Y0085327D03*
X0255000Y0085327D03*
X0265000Y0085327D03*
X0275000Y0085327D03*
X0285000Y0085327D03*
X0295000Y0085327D03*
X0305000Y0085327D03*
X0315000Y0085327D03*
X0325000Y0085327D03*
X0335000Y0085327D03*
X0345000Y0085327D03*
X0355000Y0085327D03*
X0355000Y0095327D03*
D14*
X0105000Y0199198D03*
X0095000Y0199198D03*
X0080000Y0199198D03*
X0070000Y0199198D03*
D15*
X0071260Y0214198D03*
X0078740Y0214198D03*
X0091260Y0224198D03*
X0098740Y0224198D03*
X0078740Y0229198D03*
X0071260Y0229198D03*
D16*
X0067200Y0015298D03*
X0067200Y0033098D03*
X0092800Y0033098D03*
X0092800Y0015298D03*
X0135000Y0064198D03*
X0145000Y0064198D03*
X0155000Y0064198D03*
X0165000Y0064198D03*
X0175000Y0064198D03*
X0185000Y0064198D03*
X0205000Y0064198D03*
X0215000Y0064198D03*
X0225000Y0064198D03*
X0235000Y0064198D03*
X0245000Y0064198D03*
X0255000Y0064198D03*
X0265000Y0064198D03*
X0275000Y0064198D03*
X0295000Y0064198D03*
X0305000Y0064198D03*
X0315000Y0064198D03*
X0325000Y0064198D03*
X0335000Y0064198D03*
X0345000Y0064198D03*
X0355000Y0064198D03*
X0365000Y0064198D03*
X0375000Y0084198D03*
X0385000Y0084198D03*
X0398280Y0091585D03*
X0408280Y0096585D03*
X0398280Y0101585D03*
X0408280Y0106585D03*
X0398280Y0111585D03*
X0398280Y0121585D03*
X0408280Y0116585D03*
X0398264Y0152485D03*
X0408264Y0157485D03*
X0398264Y0162485D03*
X0408264Y0167485D03*
X0408264Y0177485D03*
X0398264Y0172485D03*
X0398264Y0182485D03*
X0398200Y0213517D03*
X0408200Y0218517D03*
X0398200Y0223517D03*
X0408200Y0228517D03*
X0398200Y0233517D03*
X0398200Y0243517D03*
X0408200Y0238517D03*
X0385000Y0254198D03*
X0375000Y0254198D03*
X0376064Y0269514D03*
X0366064Y0269514D03*
X0356064Y0269514D03*
X0346064Y0269514D03*
X0351064Y0279514D03*
X0361064Y0279514D03*
X0371064Y0279514D03*
X0398327Y0284372D03*
X0408327Y0279372D03*
X0398327Y0274372D03*
X0408327Y0289372D03*
X0408327Y0299372D03*
X0398327Y0294372D03*
X0398327Y0304372D03*
X0345000Y0254198D03*
X0335000Y0254198D03*
X0325000Y0254198D03*
X0315000Y0254198D03*
X0305000Y0254198D03*
X0295000Y0254198D03*
X0285000Y0254198D03*
X0275000Y0254198D03*
X0255000Y0254198D03*
X0245000Y0254198D03*
X0235000Y0254198D03*
X0225000Y0254198D03*
X0215000Y0254198D03*
X0205000Y0254198D03*
X0195000Y0254198D03*
X0185000Y0254198D03*
X0169000Y0254198D03*
X0159000Y0254198D03*
X0149000Y0254198D03*
X0139000Y0254198D03*
X0129000Y0254198D03*
X0119000Y0254198D03*
X0109000Y0254198D03*
X0099000Y0254198D03*
X0087800Y0258098D03*
X0087800Y0240298D03*
X0062200Y0240298D03*
X0062200Y0258098D03*
X0401819Y0060781D03*
X0411819Y0055781D03*
X0401819Y0050781D03*
X0411819Y0045781D03*
X0401819Y0040781D03*
X0411819Y0035781D03*
X0401819Y0030781D03*
D17*
X0105000Y0139898D03*
X0100000Y0139898D03*
X0095000Y0139898D03*
X0090000Y0139898D03*
X0085000Y0139898D03*
X0080000Y0139898D03*
X0075000Y0139898D03*
X0070000Y0139898D03*
X0065000Y0139898D03*
X0065000Y0178498D03*
X0070000Y0178498D03*
X0075000Y0178498D03*
X0080000Y0178498D03*
X0085000Y0178498D03*
X0090000Y0178498D03*
X0095000Y0178498D03*
X0100000Y0178498D03*
X0105000Y0178498D03*
D18*
X0110300Y0076698D03*
X0110300Y0071698D03*
X0110300Y0066698D03*
X0110300Y0061698D03*
X0089700Y0061698D03*
X0089700Y0066698D03*
X0089700Y0071698D03*
X0089700Y0076698D03*
D19*
X0375000Y0094198D03*
X0385000Y0094198D03*
X0385000Y0104198D03*
X0375000Y0104198D03*
X0375000Y0114198D03*
X0385000Y0114198D03*
X0385000Y0124198D03*
X0375000Y0124198D03*
X0375000Y0134198D03*
X0385000Y0134198D03*
X0385000Y0144198D03*
X0375000Y0144198D03*
X0375000Y0154198D03*
X0385000Y0154198D03*
X0385000Y0164198D03*
X0375000Y0164198D03*
X0375000Y0174198D03*
X0385000Y0174198D03*
X0385000Y0184198D03*
X0375000Y0184198D03*
X0375000Y0194198D03*
X0385000Y0194198D03*
X0385000Y0204198D03*
X0375000Y0204198D03*
X0375000Y0214198D03*
X0385000Y0214198D03*
X0385000Y0224198D03*
X0375000Y0224198D03*
X0375000Y0234198D03*
X0385000Y0234198D03*
X0385000Y0244198D03*
X0375000Y0244198D03*
D20*
X0355000Y0189198D03*
X0345000Y0189198D03*
X0335000Y0189198D03*
X0325000Y0189198D03*
X0315000Y0189198D03*
X0305000Y0189198D03*
X0295000Y0189198D03*
X0285000Y0189198D03*
X0275000Y0189198D03*
X0265000Y0189198D03*
X0255000Y0189198D03*
X0245000Y0189198D03*
X0235000Y0189198D03*
X0225000Y0189198D03*
X0215000Y0189198D03*
X0205000Y0189198D03*
X0195000Y0189198D03*
X0185000Y0189198D03*
X0175000Y0189198D03*
X0165000Y0189198D03*
X0165000Y0125327D03*
X0175000Y0125327D03*
X0185000Y0125327D03*
X0195000Y0125327D03*
X0205000Y0125327D03*
X0215000Y0125327D03*
X0225000Y0125327D03*
X0235000Y0125327D03*
X0245000Y0125327D03*
X0255000Y0125327D03*
X0265000Y0125327D03*
X0275000Y0125327D03*
X0285000Y0125327D03*
X0295000Y0125327D03*
X0305000Y0125327D03*
X0315000Y0125327D03*
X0325000Y0125327D03*
X0335000Y0125327D03*
X0345000Y0125327D03*
X0355000Y0125327D03*
D21*
X0093041Y0119884D03*
X0074041Y0119884D03*
D22*
X0112190Y0126126D03*
X0112190Y0133212D03*
X0122662Y0066216D03*
X0122662Y0059129D03*
D23*
X0116519Y0166453D03*
X0116519Y0173933D03*
D24*
X0381064Y0279514D03*
X0408327Y0269372D03*
X0408200Y0208517D03*
X0408264Y0147485D03*
X0408280Y0086585D03*
X0411819Y0025781D03*
D25*
X0436819Y0020781D03*
X0436819Y0065781D03*
X0433280Y0081585D03*
X0433280Y0126585D03*
X0433264Y0142485D03*
X0433264Y0187485D03*
X0433200Y0203517D03*
X0433200Y0248517D03*
X0433327Y0264372D03*
X0386064Y0304514D03*
X0341064Y0304514D03*
X0433327Y0309372D03*
M02*
