G75*
%MOIN*%
%OFA0B0*%
%FSLAX25Y25*%
%IPPOS*%
%LPD*%
%AMOC8*
5,1,8,0,0,1.08239X$1,22.5*
%
%ADD10C,0.06400*%
%ADD11C,0.09000*%
%ADD12OC8,0.06400*%
%ADD13OC8,0.07000*%
%ADD14C,0.07800*%
%ADD15OC8,0.07800*%
%ADD16C,0.07400*%
%ADD17C,0.05600*%
D10*
X0145000Y0145124D02*
X0145000Y0151124D01*
X0145000Y0160124D02*
X0145000Y0166124D01*
X0155000Y0166124D02*
X0155000Y0160124D01*
X0155000Y0151124D02*
X0155000Y0145124D01*
X0165000Y0145124D02*
X0165000Y0151124D01*
X0165000Y0160124D02*
X0165000Y0166124D01*
X0175000Y0166124D02*
X0175000Y0160124D01*
X0175000Y0151124D02*
X0175000Y0145124D01*
X0185000Y0145124D02*
X0185000Y0151124D01*
X0185000Y0160124D02*
X0185000Y0166124D01*
X0195000Y0166124D02*
X0195000Y0160124D01*
X0195000Y0151124D02*
X0195000Y0145124D01*
X0205000Y0145124D02*
X0205000Y0151124D01*
X0205000Y0160124D02*
X0205000Y0166124D01*
X0215000Y0166124D02*
X0215000Y0160124D01*
X0215000Y0151124D02*
X0215000Y0145124D01*
X0225000Y0145124D02*
X0225000Y0151124D01*
X0225000Y0160124D02*
X0225000Y0166124D01*
X0235000Y0166124D02*
X0235000Y0160124D01*
X0235000Y0151124D02*
X0235000Y0145124D01*
X0245000Y0145124D02*
X0245000Y0151124D01*
X0245000Y0160124D02*
X0245000Y0166124D01*
X0255000Y0166124D02*
X0255000Y0160124D01*
X0255000Y0151124D02*
X0255000Y0145124D01*
X0265000Y0145124D02*
X0265000Y0151124D01*
X0265000Y0160124D02*
X0265000Y0166124D01*
X0275000Y0166124D02*
X0275000Y0160124D01*
X0275000Y0151124D02*
X0275000Y0145124D01*
X0285000Y0145124D02*
X0285000Y0151124D01*
X0285000Y0160124D02*
X0285000Y0166124D01*
X0295000Y0166124D02*
X0295000Y0160124D01*
X0295000Y0151124D02*
X0295000Y0145124D01*
X0305000Y0145124D02*
X0305000Y0151124D01*
X0305000Y0160124D02*
X0305000Y0166124D01*
X0315000Y0166124D02*
X0315000Y0160124D01*
X0315000Y0151124D02*
X0315000Y0145124D01*
X0325000Y0145124D02*
X0325000Y0151124D01*
X0325000Y0160124D02*
X0325000Y0166124D01*
X0335000Y0166124D02*
X0335000Y0160124D01*
X0335000Y0151124D02*
X0335000Y0145124D01*
D11*
X0410000Y0147455D03*
X0410000Y0133794D03*
X0410000Y0120014D03*
X0410000Y0106235D03*
X0410000Y0092455D03*
X0410000Y0078794D03*
X0410000Y0065014D03*
X0410000Y0051235D03*
X0410000Y0037455D03*
X0435000Y0037455D03*
X0435000Y0051235D03*
X0435000Y0065014D03*
X0435000Y0078794D03*
X0435000Y0092455D03*
X0435000Y0106235D03*
X0435000Y0120014D03*
X0435000Y0133794D03*
X0435000Y0147455D03*
X0435000Y0161235D03*
X0435000Y0175014D03*
X0435000Y0188794D03*
X0435000Y0202455D03*
X0435000Y0216235D03*
X0435000Y0230014D03*
X0435000Y0243794D03*
X0435000Y0257455D03*
X0435000Y0271235D03*
X0435000Y0285014D03*
X0435000Y0298794D03*
X0410000Y0298794D03*
X0410000Y0285014D03*
X0410000Y0271235D03*
X0410000Y0257455D03*
X0410000Y0243794D03*
X0410000Y0230014D03*
X0410000Y0216235D03*
X0410000Y0202455D03*
X0410000Y0188794D03*
X0410000Y0175014D03*
X0410000Y0161235D03*
X0380669Y0278124D03*
X0366890Y0278124D03*
X0353110Y0278124D03*
X0339331Y0278124D03*
X0325669Y0278124D03*
X0311890Y0278124D03*
X0298110Y0278124D03*
X0284331Y0278124D03*
X0270669Y0278124D03*
X0256890Y0278124D03*
X0243110Y0278124D03*
X0229331Y0278124D03*
X0215669Y0278124D03*
X0201890Y0278124D03*
X0188110Y0278124D03*
X0174331Y0278124D03*
X0160669Y0278124D03*
X0146890Y0278124D03*
X0133110Y0278124D03*
X0119331Y0278124D03*
X0105669Y0278124D03*
X0091890Y0278124D03*
X0078110Y0278124D03*
X0064331Y0278124D03*
X0064331Y0303124D03*
X0078110Y0303124D03*
X0091890Y0303124D03*
X0105669Y0303124D03*
X0119331Y0303124D03*
X0133110Y0303124D03*
X0146890Y0303124D03*
X0160669Y0303124D03*
X0174331Y0303124D03*
X0188110Y0303124D03*
X0201890Y0303124D03*
X0215669Y0303124D03*
X0229331Y0303124D03*
X0243110Y0303124D03*
X0256890Y0303124D03*
X0270669Y0303124D03*
X0284331Y0303124D03*
X0298110Y0303124D03*
X0311890Y0303124D03*
X0325669Y0303124D03*
X0339331Y0303124D03*
X0353110Y0303124D03*
X0366890Y0303124D03*
X0380669Y0303124D03*
X0075000Y0088794D03*
X0075000Y0075014D03*
X0075000Y0061235D03*
X0075000Y0047455D03*
X0109331Y0043124D03*
X0123110Y0043124D03*
X0136890Y0043124D03*
X0150669Y0043124D03*
X0164331Y0043124D03*
X0178110Y0043124D03*
X0191890Y0043124D03*
X0205669Y0043124D03*
X0219331Y0043124D03*
X0233110Y0043124D03*
X0246890Y0043124D03*
X0260669Y0043124D03*
X0274331Y0043124D03*
X0288110Y0043124D03*
X0301890Y0043124D03*
X0315669Y0043124D03*
X0329331Y0043124D03*
X0343110Y0043124D03*
X0356890Y0043124D03*
X0370669Y0043124D03*
X0370669Y0018124D03*
X0384331Y0018124D03*
X0398110Y0018124D03*
X0411890Y0018124D03*
X0425669Y0018124D03*
X0356890Y0018124D03*
X0343110Y0018124D03*
X0329331Y0018124D03*
X0315669Y0018124D03*
X0301890Y0018124D03*
X0288110Y0018124D03*
X0274331Y0018124D03*
X0260669Y0018124D03*
X0246890Y0018124D03*
X0233110Y0018124D03*
X0219331Y0018124D03*
X0205669Y0018124D03*
X0191890Y0018124D03*
X0178110Y0018124D03*
X0164331Y0018124D03*
X0150669Y0018124D03*
X0136890Y0018124D03*
X0123110Y0018124D03*
X0109331Y0018124D03*
D12*
X0125000Y0084253D03*
X0135000Y0084253D03*
X0145000Y0084253D03*
X0155000Y0084253D03*
X0165000Y0084253D03*
X0175000Y0084253D03*
X0185000Y0084253D03*
X0195000Y0084253D03*
X0205000Y0084253D03*
X0215000Y0084253D03*
X0225000Y0084253D03*
X0235000Y0084253D03*
X0245000Y0084253D03*
X0255000Y0084253D03*
X0265000Y0084253D03*
X0275000Y0084253D03*
X0285000Y0084253D03*
X0295000Y0084253D03*
X0305000Y0084253D03*
X0315000Y0084253D03*
X0325000Y0084253D03*
X0335000Y0084253D03*
X0345000Y0084253D03*
X0355000Y0084253D03*
X0355000Y0094253D03*
X0345000Y0094253D03*
X0335000Y0094253D03*
X0325000Y0094253D03*
X0315000Y0094253D03*
X0305000Y0094253D03*
X0295000Y0094253D03*
X0285000Y0094253D03*
X0275000Y0094253D03*
X0265000Y0094253D03*
X0255000Y0094253D03*
X0245000Y0094253D03*
X0235000Y0094253D03*
X0225000Y0094253D03*
X0215000Y0094253D03*
X0205000Y0094253D03*
X0195000Y0094253D03*
X0185000Y0094253D03*
X0175000Y0094253D03*
X0165000Y0094253D03*
X0155000Y0094253D03*
X0145000Y0094253D03*
X0135000Y0094253D03*
X0125000Y0094253D03*
X0125000Y0104253D03*
X0135000Y0104253D03*
X0145000Y0104253D03*
X0155000Y0104253D03*
X0165000Y0104253D03*
X0175000Y0104253D03*
X0185000Y0104253D03*
X0195000Y0104253D03*
X0205000Y0104253D03*
X0215000Y0104253D03*
X0225000Y0104253D03*
X0235000Y0104253D03*
X0245000Y0104253D03*
X0255000Y0104253D03*
X0265000Y0104253D03*
X0275000Y0104253D03*
X0285000Y0104253D03*
X0295000Y0104253D03*
X0305000Y0104253D03*
X0315000Y0104253D03*
X0325000Y0104253D03*
X0335000Y0104253D03*
X0345000Y0104253D03*
X0355000Y0104253D03*
X0355000Y0114253D03*
X0345000Y0114253D03*
X0335000Y0114253D03*
X0325000Y0114253D03*
X0315000Y0114253D03*
X0305000Y0114253D03*
X0295000Y0114253D03*
X0285000Y0114253D03*
X0275000Y0114253D03*
X0265000Y0114253D03*
X0255000Y0114253D03*
X0245000Y0114253D03*
X0235000Y0114253D03*
X0225000Y0114253D03*
X0215000Y0114253D03*
X0205000Y0114253D03*
X0195000Y0114253D03*
X0185000Y0114253D03*
X0175000Y0114253D03*
X0165000Y0114253D03*
X0155000Y0114253D03*
X0145000Y0114253D03*
X0135000Y0114253D03*
X0125000Y0114253D03*
X0125000Y0198124D03*
X0135000Y0198124D03*
X0145000Y0198124D03*
X0155000Y0198124D03*
X0165000Y0198124D03*
X0175000Y0198124D03*
X0185000Y0198124D03*
X0195000Y0198124D03*
X0205000Y0198124D03*
X0215000Y0198124D03*
X0225000Y0198124D03*
X0235000Y0198124D03*
X0245000Y0198124D03*
X0255000Y0198124D03*
X0265000Y0198124D03*
X0275000Y0198124D03*
X0285000Y0198124D03*
X0295000Y0198124D03*
X0305000Y0198124D03*
X0315000Y0198124D03*
X0325000Y0198124D03*
X0335000Y0198124D03*
X0345000Y0198124D03*
X0355000Y0198124D03*
X0355000Y0208124D03*
X0345000Y0208124D03*
X0335000Y0208124D03*
X0325000Y0208124D03*
X0315000Y0208124D03*
X0305000Y0208124D03*
X0295000Y0208124D03*
X0285000Y0208124D03*
X0275000Y0208124D03*
X0265000Y0208124D03*
X0255000Y0208124D03*
X0245000Y0208124D03*
X0235000Y0208124D03*
X0225000Y0208124D03*
X0215000Y0208124D03*
X0205000Y0208124D03*
X0195000Y0208124D03*
X0185000Y0208124D03*
X0175000Y0208124D03*
X0165000Y0208124D03*
X0155000Y0208124D03*
X0145000Y0208124D03*
X0135000Y0208124D03*
X0125000Y0208124D03*
X0125000Y0218124D03*
X0135000Y0218124D03*
X0145000Y0218124D03*
X0155000Y0218124D03*
X0165000Y0218124D03*
X0175000Y0218124D03*
X0185000Y0218124D03*
X0195000Y0218124D03*
X0205000Y0218124D03*
X0215000Y0218124D03*
X0225000Y0218124D03*
X0235000Y0218124D03*
X0245000Y0218124D03*
X0255000Y0218124D03*
X0265000Y0218124D03*
X0275000Y0218124D03*
X0285000Y0218124D03*
X0295000Y0218124D03*
X0305000Y0218124D03*
X0315000Y0218124D03*
X0325000Y0218124D03*
X0335000Y0218124D03*
X0345000Y0218124D03*
X0355000Y0218124D03*
X0355000Y0228124D03*
X0345000Y0228124D03*
X0335000Y0228124D03*
X0325000Y0228124D03*
X0315000Y0228124D03*
X0305000Y0228124D03*
X0295000Y0228124D03*
X0285000Y0228124D03*
X0275000Y0228124D03*
X0265000Y0228124D03*
X0255000Y0228124D03*
X0245000Y0228124D03*
X0235000Y0228124D03*
X0225000Y0228124D03*
X0215000Y0228124D03*
X0205000Y0228124D03*
X0195000Y0228124D03*
X0185000Y0228124D03*
X0175000Y0228124D03*
X0165000Y0228124D03*
X0155000Y0228124D03*
X0145000Y0228124D03*
X0135000Y0228124D03*
X0125000Y0228124D03*
D13*
X0105000Y0198124D03*
X0095000Y0198124D03*
X0080000Y0198124D03*
X0070000Y0198124D03*
D14*
X0067200Y0014224D03*
X0067200Y0032024D03*
X0092800Y0032024D03*
X0092800Y0014224D03*
X0135000Y0063124D03*
X0145000Y0063124D03*
X0155000Y0063124D03*
X0165000Y0063124D03*
X0175000Y0063124D03*
X0185000Y0063124D03*
X0205000Y0063124D03*
X0215000Y0063124D03*
X0225000Y0063124D03*
X0235000Y0063124D03*
X0245000Y0063124D03*
X0255000Y0063124D03*
X0265000Y0063124D03*
X0275000Y0063124D03*
X0295000Y0063124D03*
X0305000Y0063124D03*
X0315000Y0063124D03*
X0325000Y0063124D03*
X0335000Y0063124D03*
X0345000Y0063124D03*
X0355000Y0063124D03*
X0365000Y0063124D03*
X0375000Y0083124D03*
X0385000Y0083124D03*
X0385000Y0253124D03*
X0375000Y0253124D03*
X0345000Y0253124D03*
X0335000Y0253124D03*
X0325000Y0253124D03*
X0315000Y0253124D03*
X0305000Y0253124D03*
X0295000Y0253124D03*
X0285000Y0253124D03*
X0275000Y0253124D03*
X0255000Y0253124D03*
X0245000Y0253124D03*
X0235000Y0253124D03*
X0225000Y0253124D03*
X0215000Y0253124D03*
X0205000Y0253124D03*
X0195000Y0253124D03*
X0185000Y0253124D03*
X0169000Y0253124D03*
X0159000Y0253124D03*
X0149000Y0253124D03*
X0139000Y0253124D03*
X0129000Y0253124D03*
X0119000Y0253124D03*
X0109000Y0253124D03*
X0099000Y0253124D03*
X0087800Y0257024D03*
X0087800Y0239224D03*
X0062200Y0239224D03*
X0062200Y0257024D03*
D15*
X0375000Y0243124D03*
X0385000Y0243124D03*
X0385000Y0233124D03*
X0375000Y0233124D03*
X0375000Y0223124D03*
X0385000Y0223124D03*
X0385000Y0213124D03*
X0375000Y0213124D03*
X0375000Y0203124D03*
X0385000Y0203124D03*
X0385000Y0193124D03*
X0375000Y0193124D03*
X0375000Y0183124D03*
X0385000Y0183124D03*
X0385000Y0173124D03*
X0375000Y0173124D03*
X0375000Y0163124D03*
X0385000Y0163124D03*
X0385000Y0153124D03*
X0375000Y0153124D03*
X0375000Y0143124D03*
X0385000Y0143124D03*
X0385000Y0133124D03*
X0375000Y0133124D03*
X0375000Y0123124D03*
X0385000Y0123124D03*
X0385000Y0113124D03*
X0375000Y0113124D03*
X0375000Y0103124D03*
X0385000Y0103124D03*
X0385000Y0093124D03*
X0375000Y0093124D03*
D16*
X0355000Y0124253D03*
X0345000Y0124253D03*
X0335000Y0124253D03*
X0325000Y0124253D03*
X0315000Y0124253D03*
X0305000Y0124253D03*
X0295000Y0124253D03*
X0285000Y0124253D03*
X0275000Y0124253D03*
X0265000Y0124253D03*
X0255000Y0124253D03*
X0245000Y0124253D03*
X0235000Y0124253D03*
X0225000Y0124253D03*
X0215000Y0124253D03*
X0205000Y0124253D03*
X0195000Y0124253D03*
X0185000Y0124253D03*
X0175000Y0124253D03*
X0165000Y0124253D03*
X0165000Y0188124D03*
X0175000Y0188124D03*
X0185000Y0188124D03*
X0195000Y0188124D03*
X0205000Y0188124D03*
X0215000Y0188124D03*
X0225000Y0188124D03*
X0235000Y0188124D03*
X0245000Y0188124D03*
X0255000Y0188124D03*
X0265000Y0188124D03*
X0275000Y0188124D03*
X0285000Y0188124D03*
X0295000Y0188124D03*
X0305000Y0188124D03*
X0315000Y0188124D03*
X0325000Y0188124D03*
X0335000Y0188124D03*
X0345000Y0188124D03*
X0355000Y0188124D03*
D17*
X0093041Y0118810D03*
X0074041Y0118810D03*
M02*
