G75*
%MOIN*%
%OFA0B0*%
%FSLAX25Y25*%
%IPPOS*%
%LPD*%
%AMOC8*
5,1,8,0,0,1.08239X$1,22.5*
%
%ADD10C,0.00300*%
%ADD11C,0.00100*%
%ADD12R,0.01800X0.03000*%
%ADD13C,0.00600*%
%ADD14C,0.00200*%
%ADD15C,0.00800*%
%ADD16C,0.01000*%
D10*
X0007833Y0009364D02*
X0008450Y0009364D01*
X0009068Y0009982D01*
X0009068Y0013068D01*
X0007216Y0013068D01*
X0006599Y0012450D01*
X0006599Y0011216D01*
X0007216Y0010599D01*
X0009068Y0010599D01*
X0010282Y0010599D02*
X0010282Y0013068D01*
X0012134Y0013068D01*
X0012751Y0012450D01*
X0012751Y0010599D01*
X0013965Y0011216D02*
X0013965Y0012450D01*
X0014582Y0013068D01*
X0016434Y0013068D01*
X0016434Y0014302D02*
X0016434Y0010599D01*
X0014582Y0010599D01*
X0013965Y0011216D01*
D11*
X0011225Y0017749D02*
X0011475Y0017999D01*
X0011475Y0019000D01*
X0011225Y0019250D01*
X0010474Y0019250D01*
X0010474Y0017749D01*
X0011225Y0017749D01*
X0010002Y0017749D02*
X0010002Y0019250D01*
X0009001Y0019250D02*
X0010002Y0017749D01*
X0009001Y0017749D02*
X0009001Y0019250D01*
X0008529Y0019000D02*
X0008279Y0019250D01*
X0007778Y0019250D01*
X0007528Y0019000D01*
X0007528Y0017999D01*
X0007778Y0017749D01*
X0008279Y0017749D01*
X0008529Y0017999D01*
X0008529Y0018500D01*
X0008028Y0018500D01*
X0028552Y0021899D02*
X0028803Y0021649D01*
X0029303Y0021649D01*
X0029553Y0021899D01*
X0030026Y0021649D02*
X0031026Y0021649D01*
X0030526Y0021649D02*
X0030526Y0023150D01*
X0030026Y0022650D01*
X0029553Y0022900D02*
X0029303Y0023150D01*
X0028803Y0023150D01*
X0028552Y0022900D01*
X0028552Y0021899D01*
X0028803Y0013150D02*
X0028552Y0012900D01*
X0028552Y0011899D01*
X0028803Y0011649D01*
X0029303Y0011649D01*
X0029553Y0011899D01*
X0030026Y0011649D02*
X0031026Y0012650D01*
X0031026Y0012900D01*
X0030776Y0013150D01*
X0030276Y0013150D01*
X0030026Y0012900D01*
X0029553Y0012900D02*
X0029303Y0013150D01*
X0028803Y0013150D01*
X0030026Y0011649D02*
X0031026Y0011649D01*
X0051647Y0011475D02*
X0052648Y0011475D01*
X0053148Y0010975D01*
X0052648Y0010474D01*
X0051647Y0010474D01*
X0051647Y0010002D02*
X0051897Y0009502D01*
X0052398Y0009001D01*
X0052398Y0009752D01*
X0052648Y0010002D01*
X0052898Y0010002D01*
X0053148Y0009752D01*
X0053148Y0009251D01*
X0052898Y0009001D01*
X0052398Y0009001D01*
X0052398Y0008529D02*
X0052898Y0008529D01*
X0053148Y0008278D01*
X0053148Y0007778D01*
X0052898Y0007528D01*
X0052898Y0007041D02*
X0053148Y0007041D01*
X0053148Y0006791D01*
X0052898Y0006791D01*
X0052898Y0007041D01*
X0052398Y0007528D02*
X0052148Y0008028D01*
X0052148Y0008278D01*
X0052398Y0008529D01*
X0051647Y0008529D02*
X0051647Y0007528D01*
X0052398Y0007528D01*
X0052148Y0006319D02*
X0051897Y0006319D01*
X0051647Y0006069D01*
X0051647Y0005568D01*
X0051897Y0005318D01*
X0052148Y0006319D02*
X0053148Y0005318D01*
X0053148Y0006319D01*
X0059748Y0005997D02*
X0061249Y0006997D01*
X0061249Y0007470D02*
X0061249Y0008471D01*
X0061249Y0007970D02*
X0059748Y0007970D01*
X0060248Y0007470D01*
X0059748Y0006997D02*
X0061249Y0005997D01*
X0060999Y0005524D02*
X0059748Y0005524D01*
X0059748Y0004523D02*
X0060999Y0004523D01*
X0061249Y0004773D01*
X0061249Y0005274D01*
X0060999Y0005524D01*
X0061249Y0004051D02*
X0060248Y0004051D01*
X0059748Y0003550D01*
X0060248Y0003050D01*
X0061249Y0003050D01*
X0060499Y0003050D02*
X0060499Y0004051D01*
X0060999Y0008943D02*
X0059998Y0009944D01*
X0060999Y0009944D01*
X0061249Y0009694D01*
X0061249Y0009193D01*
X0060999Y0008943D01*
X0059998Y0008943D01*
X0059748Y0009193D01*
X0059748Y0009694D01*
X0059998Y0009944D01*
X0074579Y0003400D02*
X0074579Y0001899D01*
X0074579Y0002399D02*
X0075330Y0002399D01*
X0075580Y0002649D01*
X0075580Y0003150D01*
X0075330Y0003400D01*
X0074579Y0003400D01*
X0075079Y0002399D02*
X0075580Y0001899D01*
X0076052Y0001899D02*
X0077053Y0001899D01*
X0077526Y0001899D02*
X0078526Y0002900D01*
X0078526Y0003150D01*
X0078276Y0003400D01*
X0077776Y0003400D01*
X0077526Y0003150D01*
X0076553Y0003400D02*
X0076553Y0001899D01*
X0077526Y0001899D02*
X0078526Y0001899D01*
X0076553Y0003400D02*
X0076052Y0002900D01*
X0087647Y0007528D02*
X0087647Y0008279D01*
X0087897Y0008529D01*
X0088398Y0008529D01*
X0088648Y0008279D01*
X0088648Y0007528D01*
X0088648Y0008028D02*
X0089148Y0008529D01*
X0088898Y0009001D02*
X0089148Y0009251D01*
X0089148Y0009752D01*
X0088898Y0010002D01*
X0088648Y0010002D01*
X0088398Y0009752D01*
X0088398Y0009251D01*
X0088148Y0009001D01*
X0087897Y0009001D01*
X0087647Y0009251D01*
X0087647Y0009752D01*
X0087897Y0010002D01*
X0087647Y0010474D02*
X0087647Y0011475D01*
X0087647Y0010975D02*
X0089148Y0010975D01*
X0089148Y0007528D02*
X0087647Y0007528D01*
X0094647Y0007055D02*
X0094647Y0006055D01*
X0094647Y0005582D02*
X0096148Y0004581D01*
X0096148Y0005582D02*
X0094647Y0004581D01*
X0094647Y0006555D02*
X0096148Y0006555D01*
X0096148Y0007528D02*
X0095148Y0007528D01*
X0094647Y0008028D01*
X0095148Y0008529D01*
X0096148Y0008529D01*
X0096148Y0009001D02*
X0096148Y0010002D01*
X0096148Y0010474D02*
X0096148Y0011475D01*
X0096148Y0010975D02*
X0094647Y0010975D01*
X0095148Y0010474D01*
X0094647Y0009001D02*
X0096148Y0009001D01*
X0095398Y0008529D02*
X0095398Y0007528D01*
X0101647Y0007528D02*
X0101647Y0008529D01*
X0101898Y0008472D02*
X0102398Y0007972D01*
X0102398Y0008723D01*
X0102648Y0008973D01*
X0102899Y0008973D01*
X0103149Y0008723D01*
X0103149Y0008222D01*
X0102899Y0007972D01*
X0102398Y0007972D01*
X0101898Y0007500D02*
X0101648Y0007249D01*
X0101648Y0006749D01*
X0101898Y0006499D01*
X0102899Y0006499D01*
X0103149Y0006749D01*
X0103149Y0007249D01*
X0102899Y0007500D01*
X0103148Y0007055D02*
X0101647Y0006055D01*
X0101647Y0007055D02*
X0103148Y0006055D01*
X0103148Y0008028D02*
X0101647Y0008028D01*
X0101898Y0008472D02*
X0101648Y0008973D01*
X0102148Y0009001D02*
X0101647Y0009502D01*
X0102148Y0010002D01*
X0103148Y0010002D01*
X0103148Y0010474D02*
X0103148Y0011475D01*
X0103148Y0010474D02*
X0101647Y0010474D01*
X0102398Y0010002D02*
X0102398Y0009001D01*
X0102148Y0009001D02*
X0103148Y0009001D01*
X0109648Y0008973D02*
X0109648Y0007972D01*
X0110398Y0007972D01*
X0110148Y0008472D01*
X0110148Y0008723D01*
X0110398Y0008973D01*
X0110899Y0008973D01*
X0111149Y0008723D01*
X0111149Y0008222D01*
X0110899Y0007972D01*
X0110899Y0007500D02*
X0111149Y0007249D01*
X0111149Y0006749D01*
X0110899Y0006499D01*
X0109898Y0006499D01*
X0109648Y0006749D01*
X0109648Y0007249D01*
X0109898Y0007500D01*
X0114179Y0014749D02*
X0114179Y0015750D01*
X0114680Y0016250D01*
X0115180Y0015750D01*
X0115180Y0014749D01*
X0115653Y0014749D02*
X0116403Y0014749D01*
X0116653Y0014999D01*
X0116653Y0015250D01*
X0116403Y0015500D01*
X0115653Y0015500D01*
X0115180Y0015500D02*
X0114179Y0015500D01*
X0115653Y0016250D02*
X0115653Y0014749D01*
X0116403Y0015500D02*
X0116653Y0015750D01*
X0116653Y0016000D01*
X0116403Y0016250D01*
X0115653Y0016250D01*
X0117126Y0016250D02*
X0117877Y0016250D01*
X0118127Y0016000D01*
X0118127Y0015500D01*
X0117877Y0015250D01*
X0117126Y0015250D01*
X0117626Y0015250D02*
X0118127Y0014749D01*
X0118599Y0014749D02*
X0118599Y0016250D01*
X0118849Y0015500D02*
X0119600Y0014749D01*
X0120072Y0014749D02*
X0121073Y0014749D01*
X0121546Y0014749D02*
X0122046Y0014749D01*
X0121796Y0014749D02*
X0121796Y0016250D01*
X0121546Y0016250D02*
X0122046Y0016250D01*
X0122528Y0016000D02*
X0122528Y0014999D01*
X0122778Y0014749D01*
X0123278Y0014749D01*
X0123529Y0014999D01*
X0123529Y0015500D01*
X0123028Y0015500D01*
X0122528Y0016000D02*
X0122778Y0016250D01*
X0123278Y0016250D01*
X0123529Y0016000D01*
X0124001Y0016250D02*
X0124001Y0014749D01*
X0124001Y0015500D02*
X0125002Y0015500D01*
X0125002Y0016250D02*
X0125002Y0014749D01*
X0125975Y0014749D02*
X0125975Y0016250D01*
X0126475Y0016250D02*
X0125474Y0016250D01*
X0120072Y0016250D02*
X0120072Y0014749D01*
X0118599Y0015250D02*
X0119600Y0016250D01*
X0117126Y0016250D02*
X0117126Y0014749D01*
X0117126Y0022749D02*
X0117126Y0024250D01*
X0117877Y0024250D01*
X0118127Y0024000D01*
X0118127Y0023500D01*
X0117877Y0023250D01*
X0117126Y0023250D01*
X0116653Y0023250D02*
X0116653Y0022999D01*
X0116403Y0022749D01*
X0115653Y0022749D01*
X0115653Y0024250D01*
X0116403Y0024250D01*
X0116653Y0024000D01*
X0116653Y0023750D01*
X0116403Y0023500D01*
X0115653Y0023500D01*
X0115180Y0023750D02*
X0114930Y0023500D01*
X0114179Y0023500D01*
X0114179Y0024250D02*
X0114930Y0024250D01*
X0115180Y0024000D01*
X0115180Y0023750D01*
X0114930Y0023500D02*
X0115180Y0023250D01*
X0115180Y0022999D01*
X0114930Y0022749D01*
X0114179Y0022749D01*
X0114179Y0024250D01*
X0116403Y0023500D02*
X0116653Y0023250D01*
X0117626Y0023250D02*
X0118127Y0022749D01*
X0118599Y0022749D02*
X0118599Y0024250D01*
X0118849Y0023500D02*
X0119600Y0022749D01*
X0120072Y0022749D02*
X0121073Y0022749D01*
X0121546Y0022749D02*
X0122046Y0022749D01*
X0121796Y0022749D02*
X0121796Y0024250D01*
X0121546Y0024250D02*
X0122046Y0024250D01*
X0122528Y0024000D02*
X0122528Y0022999D01*
X0122778Y0022749D01*
X0123278Y0022749D01*
X0123529Y0022999D01*
X0123529Y0023500D01*
X0123028Y0023500D01*
X0122528Y0024000D02*
X0122778Y0024250D01*
X0123278Y0024250D01*
X0123529Y0024000D01*
X0124001Y0024250D02*
X0124001Y0022749D01*
X0124001Y0023500D02*
X0125002Y0023500D01*
X0125002Y0024250D02*
X0125002Y0022749D01*
X0125975Y0022749D02*
X0125975Y0024250D01*
X0126475Y0024250D02*
X0125474Y0024250D01*
X0120072Y0024250D02*
X0120072Y0022749D01*
X0118599Y0023250D02*
X0119600Y0024250D01*
X0119600Y0030749D02*
X0118599Y0030749D01*
X0118599Y0032250D01*
X0118127Y0032000D02*
X0118127Y0031750D01*
X0117877Y0031500D01*
X0117126Y0031500D01*
X0117126Y0032250D02*
X0117126Y0030749D01*
X0117877Y0030749D01*
X0118127Y0030999D01*
X0118127Y0031250D01*
X0117877Y0031500D01*
X0118127Y0032000D02*
X0117877Y0032250D01*
X0117126Y0032250D01*
X0120072Y0032250D02*
X0120573Y0032250D01*
X0120323Y0032250D02*
X0120323Y0030749D01*
X0120573Y0030749D02*
X0120072Y0030749D01*
X0121055Y0030749D02*
X0121055Y0032250D01*
X0122055Y0030749D01*
X0122055Y0032250D01*
X0122528Y0032250D02*
X0122528Y0030749D01*
X0122528Y0031250D02*
X0123529Y0032250D01*
X0124001Y0031500D02*
X0125002Y0031500D01*
X0125474Y0031250D02*
X0126225Y0031250D01*
X0126475Y0031500D01*
X0126475Y0032000D01*
X0126225Y0032250D01*
X0125474Y0032250D01*
X0125474Y0030749D01*
X0125975Y0031250D02*
X0126475Y0030749D01*
X0123529Y0030749D02*
X0122778Y0031500D01*
X0122528Y0038749D02*
X0122528Y0040250D01*
X0122055Y0040250D02*
X0122055Y0038749D01*
X0121055Y0040250D01*
X0121055Y0038749D01*
X0120573Y0038749D02*
X0120072Y0038749D01*
X0120323Y0038749D02*
X0120323Y0040250D01*
X0120573Y0040250D02*
X0120072Y0040250D01*
X0118599Y0040250D02*
X0118599Y0038749D01*
X0119600Y0038749D01*
X0118127Y0038999D02*
X0117877Y0038749D01*
X0117126Y0038749D01*
X0117126Y0040250D01*
X0117877Y0040250D01*
X0118127Y0040000D01*
X0118127Y0039750D01*
X0117877Y0039500D01*
X0117126Y0039500D01*
X0117877Y0039500D02*
X0118127Y0039250D01*
X0118127Y0038999D01*
X0122528Y0039250D02*
X0123529Y0040250D01*
X0124001Y0039500D02*
X0125002Y0039500D01*
X0125474Y0040250D02*
X0125474Y0038749D01*
X0126475Y0038749D01*
X0123529Y0038749D02*
X0122778Y0039500D01*
X0122778Y0046749D02*
X0123278Y0046749D01*
X0123529Y0046999D01*
X0123529Y0048250D01*
X0124001Y0048250D02*
X0125002Y0046749D01*
X0125474Y0046749D02*
X0125474Y0046999D01*
X0126475Y0048000D01*
X0126475Y0048250D01*
X0125474Y0048250D01*
X0125002Y0048250D02*
X0124001Y0046749D01*
X0122778Y0046749D02*
X0122528Y0046999D01*
X0122528Y0048250D01*
X0122055Y0047750D02*
X0122055Y0046749D01*
X0122055Y0047500D02*
X0121055Y0047500D01*
X0121055Y0047750D02*
X0121555Y0048250D01*
X0122055Y0047750D01*
X0121055Y0047750D02*
X0121055Y0046749D01*
X0121055Y0053749D02*
X0121055Y0054750D01*
X0121555Y0055250D01*
X0122055Y0054750D01*
X0122055Y0053749D01*
X0122528Y0053999D02*
X0122778Y0053749D01*
X0123278Y0053749D01*
X0123529Y0053999D01*
X0123529Y0055250D01*
X0124001Y0055250D02*
X0125002Y0053749D01*
X0125474Y0053999D02*
X0125474Y0054250D01*
X0125725Y0054500D01*
X0126225Y0054500D01*
X0126475Y0054250D01*
X0126475Y0053999D01*
X0126225Y0053749D01*
X0125725Y0053749D01*
X0125474Y0053999D01*
X0125725Y0054500D02*
X0125474Y0054750D01*
X0125474Y0055000D01*
X0125725Y0055250D01*
X0126225Y0055250D01*
X0126475Y0055000D01*
X0126475Y0054750D01*
X0126225Y0054500D01*
X0125002Y0055250D02*
X0124001Y0053749D01*
X0122528Y0053999D02*
X0122528Y0055250D01*
X0122055Y0054500D02*
X0121055Y0054500D01*
X0121055Y0064749D02*
X0121055Y0065750D01*
X0121555Y0066250D01*
X0122055Y0065750D01*
X0122055Y0064749D01*
X0122528Y0064999D02*
X0122778Y0064749D01*
X0123278Y0064749D01*
X0123529Y0064999D01*
X0123529Y0066250D01*
X0124001Y0066250D02*
X0125002Y0064749D01*
X0125474Y0064999D02*
X0125725Y0064749D01*
X0126225Y0064749D01*
X0126475Y0064999D01*
X0126475Y0065250D01*
X0126225Y0065500D01*
X0125474Y0065500D01*
X0125474Y0064999D01*
X0125474Y0065500D02*
X0125975Y0066000D01*
X0126475Y0066250D01*
X0125002Y0066250D02*
X0124001Y0064749D01*
X0122528Y0064999D02*
X0122528Y0066250D01*
X0122055Y0065500D02*
X0121055Y0065500D01*
X0121055Y0071749D02*
X0121055Y0072750D01*
X0121555Y0073250D01*
X0122055Y0072750D01*
X0122055Y0071749D01*
X0122528Y0071999D02*
X0122778Y0071749D01*
X0123278Y0071749D01*
X0123529Y0071999D01*
X0123529Y0073250D01*
X0124001Y0073250D02*
X0125002Y0071749D01*
X0125474Y0071999D02*
X0125725Y0071749D01*
X0126225Y0071749D01*
X0126475Y0071999D01*
X0126475Y0072500D01*
X0126225Y0072750D01*
X0125975Y0072750D01*
X0125474Y0072500D01*
X0125474Y0073250D01*
X0126475Y0073250D01*
X0125002Y0073250D02*
X0124001Y0071749D01*
X0122528Y0071999D02*
X0122528Y0073250D01*
X0122055Y0072500D02*
X0121055Y0072500D01*
X0115148Y0084055D02*
X0114148Y0084055D01*
X0113647Y0084555D01*
X0114148Y0085055D01*
X0115148Y0085055D01*
X0114898Y0085528D02*
X0115148Y0085778D01*
X0115148Y0086278D01*
X0114898Y0086529D01*
X0113647Y0086529D01*
X0113647Y0087001D02*
X0115148Y0088002D01*
X0114898Y0088474D02*
X0115148Y0088725D01*
X0115148Y0089225D01*
X0114898Y0089475D01*
X0114648Y0089475D01*
X0114398Y0089225D01*
X0114398Y0088975D01*
X0114398Y0089225D02*
X0114148Y0089475D01*
X0113897Y0089475D01*
X0113647Y0089225D01*
X0113647Y0088725D01*
X0113897Y0088474D01*
X0114050Y0088648D02*
X0114050Y0089649D01*
X0114550Y0090150D01*
X0115051Y0089649D01*
X0115051Y0088648D01*
X0115523Y0088899D02*
X0115773Y0088648D01*
X0116274Y0088648D01*
X0116524Y0088899D01*
X0116524Y0090150D01*
X0116997Y0090150D02*
X0117997Y0088648D01*
X0118470Y0089399D02*
X0119471Y0089399D01*
X0119220Y0088648D02*
X0119220Y0090150D01*
X0118470Y0089399D01*
X0117997Y0090150D02*
X0116997Y0088648D01*
X0115523Y0088899D02*
X0115523Y0090150D01*
X0115051Y0089399D02*
X0114050Y0089399D01*
X0113647Y0088002D02*
X0115148Y0087001D01*
X0114898Y0085528D02*
X0113647Y0085528D01*
X0114398Y0085055D02*
X0114398Y0084055D01*
X0107148Y0084055D02*
X0106148Y0084055D01*
X0105647Y0084555D01*
X0106148Y0085055D01*
X0107148Y0085055D01*
X0106898Y0085528D02*
X0107148Y0085778D01*
X0107148Y0086278D01*
X0106898Y0086529D01*
X0105647Y0086529D01*
X0105647Y0087001D02*
X0107148Y0088002D01*
X0107148Y0088474D02*
X0106148Y0089475D01*
X0105897Y0089475D01*
X0105647Y0089225D01*
X0105647Y0088725D01*
X0105897Y0088474D01*
X0105647Y0088002D02*
X0107148Y0087001D01*
X0107148Y0088474D02*
X0107148Y0089475D01*
X0106898Y0085528D02*
X0105647Y0085528D01*
X0106398Y0085055D02*
X0106398Y0084055D01*
X0100148Y0084055D02*
X0099148Y0084055D01*
X0098647Y0084555D01*
X0099148Y0085055D01*
X0100148Y0085055D01*
X0099898Y0085528D02*
X0100148Y0085778D01*
X0100148Y0086278D01*
X0099898Y0086529D01*
X0098647Y0086529D01*
X0098647Y0087001D02*
X0100148Y0088002D01*
X0100148Y0088474D02*
X0100148Y0089475D01*
X0100148Y0088975D02*
X0098647Y0088975D01*
X0099148Y0088474D01*
X0098647Y0088002D02*
X0100148Y0087001D01*
X0099898Y0085528D02*
X0098647Y0085528D01*
X0099398Y0085055D02*
X0099398Y0084055D01*
X0085148Y0084073D02*
X0085148Y0083072D01*
X0083647Y0083072D01*
X0083647Y0084546D02*
X0083647Y0085046D01*
X0083647Y0084796D02*
X0085148Y0084796D01*
X0085148Y0084546D02*
X0085148Y0085046D01*
X0084898Y0085528D02*
X0085148Y0085778D01*
X0085148Y0086278D01*
X0084898Y0086529D01*
X0084398Y0086529D01*
X0084398Y0086028D01*
X0083897Y0085528D02*
X0084898Y0085528D01*
X0083897Y0085528D02*
X0083647Y0085778D01*
X0083647Y0086278D01*
X0083897Y0086529D01*
X0083647Y0087001D02*
X0085148Y0087001D01*
X0084398Y0087001D02*
X0084398Y0088002D01*
X0085148Y0088002D02*
X0083647Y0088002D01*
X0083647Y0088474D02*
X0083647Y0089475D01*
X0083647Y0088975D02*
X0085148Y0088975D01*
X0075148Y0088725D02*
X0075148Y0089225D01*
X0074898Y0089475D01*
X0073897Y0089475D01*
X0073647Y0089225D01*
X0073647Y0088725D01*
X0073897Y0088474D01*
X0074148Y0088474D01*
X0074398Y0088725D01*
X0074398Y0089475D01*
X0075148Y0088725D02*
X0074898Y0088474D01*
X0075148Y0088002D02*
X0073647Y0087001D01*
X0073647Y0086529D02*
X0074898Y0086529D01*
X0075148Y0086278D01*
X0075148Y0085778D01*
X0074898Y0085528D01*
X0073647Y0085528D01*
X0074148Y0085055D02*
X0075148Y0085055D01*
X0074398Y0085055D02*
X0074398Y0084055D01*
X0074148Y0084055D02*
X0073647Y0084555D01*
X0074148Y0085055D01*
X0074148Y0084055D02*
X0075148Y0084055D01*
X0075148Y0087001D02*
X0073647Y0088002D01*
X0056446Y0083000D02*
X0056446Y0081499D01*
X0056946Y0081499D02*
X0055945Y0081499D01*
X0055473Y0081499D02*
X0054472Y0081499D01*
X0054000Y0081499D02*
X0053499Y0081999D01*
X0053749Y0081999D02*
X0052999Y0081999D01*
X0052999Y0081499D02*
X0052999Y0083000D01*
X0053749Y0083000D01*
X0054000Y0082750D01*
X0054000Y0082249D01*
X0053749Y0081999D01*
X0054472Y0082500D02*
X0054972Y0083000D01*
X0054972Y0081499D01*
X0055945Y0082500D02*
X0056446Y0083000D01*
X0043526Y0075150D02*
X0042526Y0074149D01*
X0042776Y0073899D01*
X0043276Y0073899D01*
X0043526Y0074149D01*
X0043526Y0075150D01*
X0043276Y0075400D01*
X0042776Y0075400D01*
X0042526Y0075150D01*
X0042526Y0074149D01*
X0042053Y0073899D02*
X0041052Y0073899D01*
X0040580Y0073899D02*
X0040079Y0074399D01*
X0040330Y0074399D02*
X0039579Y0074399D01*
X0039579Y0073899D02*
X0039579Y0075400D01*
X0040330Y0075400D01*
X0040580Y0075150D01*
X0040580Y0074649D01*
X0040330Y0074399D01*
X0041052Y0074900D02*
X0041553Y0075400D01*
X0041553Y0073899D01*
X0041999Y0065000D02*
X0042749Y0065000D01*
X0043000Y0064750D01*
X0043000Y0064249D01*
X0042749Y0063999D01*
X0041999Y0063999D01*
X0041999Y0063499D02*
X0041999Y0065000D01*
X0042499Y0063999D02*
X0043000Y0063499D01*
X0043472Y0063749D02*
X0043722Y0063499D01*
X0044223Y0063499D01*
X0044473Y0063749D01*
X0044473Y0064249D01*
X0044223Y0064500D01*
X0043972Y0064500D01*
X0043472Y0064249D01*
X0043472Y0065000D01*
X0044473Y0065000D01*
X0046052Y0065400D02*
X0046803Y0065400D01*
X0047053Y0065150D01*
X0047053Y0064649D01*
X0046803Y0064399D01*
X0046052Y0064399D01*
X0046052Y0063899D02*
X0046052Y0065400D01*
X0046553Y0064399D02*
X0047053Y0063899D01*
X0047526Y0064649D02*
X0048526Y0064649D01*
X0048276Y0063899D02*
X0048276Y0065400D01*
X0047526Y0064649D01*
X0035473Y0052500D02*
X0034972Y0052250D01*
X0034472Y0051749D01*
X0035223Y0051749D01*
X0035473Y0051499D01*
X0035473Y0051249D01*
X0035223Y0050999D01*
X0034722Y0050999D01*
X0034472Y0051249D01*
X0034472Y0051749D01*
X0034000Y0051249D02*
X0034000Y0052500D01*
X0032999Y0052500D02*
X0032999Y0051249D01*
X0033249Y0050999D01*
X0033749Y0050999D01*
X0034000Y0051249D01*
X0028526Y0055149D02*
X0028276Y0054899D01*
X0027776Y0054899D01*
X0027526Y0055149D01*
X0027053Y0054899D02*
X0026553Y0055399D01*
X0026803Y0055399D02*
X0026052Y0055399D01*
X0026052Y0054899D02*
X0026052Y0056400D01*
X0026803Y0056400D01*
X0027053Y0056150D01*
X0027053Y0055649D01*
X0026803Y0055399D01*
X0027526Y0056150D02*
X0027776Y0056400D01*
X0028276Y0056400D01*
X0028526Y0056150D01*
X0028526Y0055900D01*
X0028276Y0055649D01*
X0028526Y0055399D01*
X0028526Y0055149D01*
X0028276Y0055649D02*
X0028026Y0055649D01*
X0019473Y0052250D02*
X0019473Y0052000D01*
X0019223Y0051749D01*
X0019473Y0051499D01*
X0019473Y0051249D01*
X0019223Y0050999D01*
X0018722Y0050999D01*
X0018472Y0051249D01*
X0018000Y0051249D02*
X0018000Y0052500D01*
X0018472Y0052250D02*
X0018722Y0052500D01*
X0019223Y0052500D01*
X0019473Y0052250D01*
X0019223Y0051749D02*
X0018972Y0051749D01*
X0018000Y0051249D02*
X0017749Y0050999D01*
X0017249Y0050999D01*
X0016999Y0051249D01*
X0016999Y0052500D01*
X0010975Y0060749D02*
X0011475Y0061250D01*
X0011475Y0062250D01*
X0010474Y0062250D02*
X0010474Y0061250D01*
X0010975Y0060749D01*
X0010002Y0060999D02*
X0009752Y0060749D01*
X0009251Y0060749D01*
X0009001Y0060999D01*
X0008515Y0060999D02*
X0008515Y0060749D01*
X0008264Y0060749D01*
X0008264Y0060999D01*
X0008515Y0060999D01*
X0007792Y0060999D02*
X0007542Y0060749D01*
X0007041Y0060749D01*
X0006791Y0060999D01*
X0007292Y0061500D02*
X0007542Y0061500D01*
X0007792Y0061250D01*
X0007792Y0060999D01*
X0007542Y0061500D02*
X0007792Y0061750D01*
X0007792Y0062000D01*
X0007542Y0062250D01*
X0007041Y0062250D01*
X0006791Y0062000D01*
X0009001Y0062000D02*
X0009251Y0062250D01*
X0009752Y0062250D01*
X0010002Y0062000D01*
X0010002Y0061750D01*
X0009752Y0061500D01*
X0010002Y0061250D01*
X0010002Y0060999D01*
X0009752Y0061500D02*
X0009502Y0061500D01*
X0009752Y0068749D02*
X0010002Y0068999D01*
X0010002Y0070000D01*
X0009752Y0070250D01*
X0009001Y0070250D01*
X0009001Y0068749D01*
X0009752Y0068749D01*
X0010474Y0068749D02*
X0010474Y0070250D01*
X0011225Y0070250D01*
X0011475Y0070000D01*
X0011475Y0069500D01*
X0011225Y0069250D01*
X0010474Y0069250D01*
X0010975Y0069250D02*
X0011475Y0068749D01*
X0008529Y0068749D02*
X0007528Y0068749D01*
X0007528Y0070250D01*
X0021999Y0070499D02*
X0023000Y0070499D01*
X0022499Y0070499D02*
X0022499Y0072000D01*
X0021999Y0071500D01*
X0023472Y0071750D02*
X0023722Y0072000D01*
X0024223Y0072000D01*
X0024473Y0071750D01*
X0023472Y0070749D01*
X0023722Y0070499D01*
X0024223Y0070499D01*
X0024473Y0070749D01*
X0024473Y0071750D01*
X0024945Y0072000D02*
X0024945Y0070499D01*
X0024945Y0070999D02*
X0025946Y0072000D01*
X0025196Y0071249D02*
X0025946Y0070499D01*
X0023472Y0070749D02*
X0023472Y0071750D01*
X0024803Y0076649D02*
X0025303Y0076649D01*
X0025553Y0076899D01*
X0026026Y0077399D02*
X0027026Y0077399D01*
X0026776Y0076649D02*
X0026776Y0078150D01*
X0026026Y0077399D01*
X0025553Y0077900D02*
X0025303Y0078150D01*
X0024803Y0078150D01*
X0024552Y0077900D01*
X0024552Y0076899D01*
X0024803Y0076649D01*
X0009973Y0084999D02*
X0009723Y0084749D01*
X0009222Y0084749D01*
X0008972Y0084999D01*
X0008500Y0084999D02*
X0008249Y0084749D01*
X0007749Y0084749D01*
X0007499Y0084999D01*
X0007499Y0086000D01*
X0007749Y0086250D01*
X0008249Y0086250D01*
X0008500Y0086000D01*
X0008972Y0086000D02*
X0009222Y0086250D01*
X0009723Y0086250D01*
X0009973Y0086000D01*
X0009973Y0085750D01*
X0009723Y0085499D01*
X0009973Y0085249D01*
X0009973Y0084999D01*
X0009723Y0085499D02*
X0009472Y0085499D01*
X0060295Y0043046D02*
X0061180Y0042161D01*
X0061534Y0042161D01*
X0061888Y0042515D01*
X0061888Y0042869D01*
X0061003Y0043753D01*
X0061691Y0043733D02*
X0061691Y0044441D01*
X0062753Y0043380D01*
X0063106Y0043733D02*
X0062399Y0043026D01*
D12*
X0045449Y0060449D03*
X0045449Y0068449D03*
X0040449Y0078449D03*
X0056449Y0078449D03*
X0025449Y0067449D03*
X0025449Y0059449D03*
X0075449Y0006449D03*
D13*
X0104087Y0008268D02*
X0104087Y0010630D01*
X0108811Y0010630D02*
X0108811Y0008268D01*
X0112087Y0008268D02*
X0112087Y0010630D01*
X0116811Y0010630D02*
X0116811Y0008268D01*
X0029630Y0014087D02*
X0027268Y0014087D01*
X0027268Y0018811D02*
X0029630Y0018811D01*
X0029630Y0024087D02*
X0027268Y0024087D01*
X0027268Y0028811D02*
X0029630Y0028811D01*
X0025630Y0079087D02*
X0023268Y0079087D01*
X0023268Y0083811D02*
X0025630Y0083811D01*
X0011630Y0083811D02*
X0009268Y0083811D01*
X0009268Y0079087D02*
X0011630Y0079087D01*
D14*
X0092751Y0072681D02*
X0094308Y0074238D01*
X0095087Y0073459D01*
X0095087Y0072941D01*
X0094568Y0072422D01*
X0094049Y0072422D01*
X0093270Y0073200D01*
X0093789Y0072681D02*
X0093789Y0071643D01*
X0094573Y0071378D02*
X0094573Y0070859D01*
X0095092Y0070340D01*
X0095611Y0070340D01*
X0096649Y0071378D01*
X0096649Y0071897D01*
X0096130Y0072416D01*
X0095611Y0072416D01*
X0095352Y0072156D01*
X0095352Y0071637D01*
X0096130Y0070859D01*
X0103751Y0062681D02*
X0105308Y0064238D01*
X0106087Y0063459D01*
X0106087Y0062941D01*
X0105568Y0062422D01*
X0105049Y0062422D01*
X0104270Y0063200D01*
X0104789Y0062681D02*
X0104789Y0061643D01*
X0105314Y0061118D02*
X0105573Y0061378D01*
X0107649Y0061378D01*
X0107909Y0061637D01*
X0106871Y0062675D01*
X0105556Y0032505D02*
X0105815Y0032245D01*
X0105815Y0031726D01*
X0105296Y0031207D01*
X0104777Y0031207D01*
X0104518Y0031467D01*
X0104518Y0031986D01*
X0105037Y0032505D01*
X0105556Y0032505D01*
X0105815Y0031726D02*
X0106334Y0031726D01*
X0106594Y0031467D01*
X0106594Y0030948D01*
X0106075Y0030429D01*
X0105556Y0030429D01*
X0105296Y0030688D01*
X0105296Y0031207D01*
X0104512Y0030423D02*
X0104512Y0029904D01*
X0103734Y0029126D01*
X0104253Y0029645D02*
X0105291Y0029645D01*
X0104512Y0030423D02*
X0103993Y0030942D01*
X0103474Y0030942D01*
X0102696Y0030164D01*
X0104253Y0028607D01*
D15*
X0106061Y0044335D02*
X0081562Y0019837D01*
X0079335Y0019837D01*
X0054837Y0044335D01*
X0054837Y0046562D01*
X0079335Y0071061D01*
X0081562Y0071061D01*
X0106061Y0046562D01*
X0106061Y0044335D01*
X0042049Y0044139D02*
X0042049Y0040758D01*
X0037506Y0045639D02*
X0035392Y0045639D01*
X0030849Y0044139D02*
X0030849Y0040758D01*
X0026049Y0040758D02*
X0026049Y0044139D01*
X0021506Y0045639D02*
X0019392Y0045639D01*
X0014849Y0044139D02*
X0014849Y0040758D01*
D16*
X0057065Y0045449D02*
X0057067Y0045516D01*
X0057073Y0045582D01*
X0057083Y0045648D01*
X0057097Y0045713D01*
X0057114Y0045777D01*
X0057136Y0045840D01*
X0057161Y0045902D01*
X0057190Y0045962D01*
X0057223Y0046020D01*
X0057258Y0046076D01*
X0057298Y0046130D01*
X0057340Y0046181D01*
X0057385Y0046230D01*
X0057433Y0046276D01*
X0057484Y0046319D01*
X0057537Y0046359D01*
X0057593Y0046396D01*
X0057651Y0046429D01*
X0057710Y0046459D01*
X0057771Y0046485D01*
X0057834Y0046508D01*
X0057898Y0046526D01*
X0057963Y0046541D01*
X0058029Y0046552D01*
X0058095Y0046559D01*
X0058161Y0046562D01*
X0058228Y0046561D01*
X0058294Y0046556D01*
X0058360Y0046547D01*
X0058426Y0046534D01*
X0058490Y0046517D01*
X0058553Y0046497D01*
X0058615Y0046472D01*
X0058676Y0046444D01*
X0058735Y0046413D01*
X0058791Y0046378D01*
X0058846Y0046340D01*
X0058898Y0046298D01*
X0058947Y0046253D01*
X0058994Y0046206D01*
X0059038Y0046156D01*
X0059078Y0046103D01*
X0059116Y0046048D01*
X0059150Y0045991D01*
X0059181Y0045932D01*
X0059208Y0045871D01*
X0059231Y0045809D01*
X0059251Y0045745D01*
X0059267Y0045680D01*
X0059279Y0045615D01*
X0059287Y0045549D01*
X0059291Y0045482D01*
X0059291Y0045416D01*
X0059287Y0045349D01*
X0059279Y0045283D01*
X0059267Y0045218D01*
X0059251Y0045153D01*
X0059231Y0045089D01*
X0059208Y0045027D01*
X0059181Y0044966D01*
X0059150Y0044907D01*
X0059116Y0044850D01*
X0059078Y0044795D01*
X0059038Y0044742D01*
X0058994Y0044692D01*
X0058947Y0044645D01*
X0058898Y0044600D01*
X0058846Y0044558D01*
X0058791Y0044520D01*
X0058734Y0044485D01*
X0058676Y0044454D01*
X0058615Y0044426D01*
X0058553Y0044401D01*
X0058490Y0044381D01*
X0058426Y0044364D01*
X0058360Y0044351D01*
X0058294Y0044342D01*
X0058228Y0044337D01*
X0058161Y0044336D01*
X0058095Y0044339D01*
X0058029Y0044346D01*
X0057963Y0044357D01*
X0057898Y0044372D01*
X0057834Y0044390D01*
X0057771Y0044413D01*
X0057710Y0044439D01*
X0057651Y0044469D01*
X0057593Y0044502D01*
X0057537Y0044539D01*
X0057484Y0044579D01*
X0057433Y0044622D01*
X0057385Y0044668D01*
X0057340Y0044717D01*
X0057298Y0044768D01*
X0057258Y0044822D01*
X0057223Y0044878D01*
X0057190Y0044936D01*
X0057161Y0044996D01*
X0057136Y0045058D01*
X0057114Y0045121D01*
X0057097Y0045185D01*
X0057083Y0045250D01*
X0057073Y0045316D01*
X0057067Y0045382D01*
X0057065Y0045449D01*
M02*
