G75*
%MOIN*%
%OFA0B0*%
%FSLAX25Y25*%
%IPPOS*%
%LPD*%
%AMOC8*
5,1,8,0,0,1.08239X$1,22.5*
%
%ADD10C,0.00000*%
%ADD11C,0.01600*%
%ADD12R,0.04331X0.03937*%
%ADD13R,0.05000X0.10000*%
%ADD14R,0.10000X0.05000*%
%ADD15R,0.03150X0.04724*%
%ADD16R,0.01969X0.02559*%
%ADD17R,0.05906X0.01969*%
%ADD18R,0.01969X0.05906*%
%ADD19R,0.02165X0.04724*%
%ADD20C,0.00600*%
%ADD21C,0.02400*%
%ADD22R,0.03562X0.03562*%
D10*
X0001800Y0091800D02*
X0001800Y0316761D01*
X0390501Y0316761D01*
X0390501Y0001800D01*
X0126800Y0001800D01*
D11*
X0001800Y0001800D02*
X0001800Y0091800D01*
X0126800Y0091800D01*
X0126800Y0001800D01*
X0001800Y0001800D01*
D12*
X0006454Y0049800D03*
X0013146Y0049800D03*
X0021454Y0059800D03*
X0028146Y0059800D03*
X0041454Y0059800D03*
X0048146Y0059800D03*
X0048146Y0069800D03*
X0041454Y0069800D03*
X0043146Y0079800D03*
X0036454Y0079800D03*
X0051454Y0079800D03*
X0058146Y0079800D03*
D13*
X0069800Y0084800D03*
X0079800Y0084800D03*
X0089800Y0084800D03*
X0104800Y0084800D03*
X0114800Y0084800D03*
X0109800Y0008800D03*
X0098800Y0008800D03*
X0089800Y0008800D03*
X0080800Y0008800D03*
X0063800Y0008800D03*
X0039800Y0008800D03*
D14*
X0009800Y0019800D03*
X0009800Y0064800D03*
X0009800Y0074800D03*
X0119800Y0074800D03*
X0119800Y0044800D03*
X0119800Y0034800D03*
X0119800Y0024800D03*
X0119800Y0014800D03*
D15*
X0033343Y0019800D03*
X0026257Y0019800D03*
X0026257Y0007800D03*
X0033343Y0007800D03*
X0028343Y0084800D03*
X0021257Y0084800D03*
X0013343Y0084800D03*
X0006257Y0084800D03*
D16*
G36*
X0094511Y0074801D02*
X0093119Y0076193D01*
X0094927Y0078001D01*
X0096319Y0076609D01*
X0094511Y0074801D01*
G37*
G36*
X0096739Y0072574D02*
X0095347Y0073966D01*
X0097155Y0075774D01*
X0098547Y0074382D01*
X0096739Y0072574D01*
G37*
G36*
X0098966Y0070347D02*
X0097574Y0071739D01*
X0099382Y0073547D01*
X0100774Y0072155D01*
X0098966Y0070347D01*
G37*
G36*
X0101193Y0068119D02*
X0099801Y0069511D01*
X0101609Y0071319D01*
X0103001Y0069927D01*
X0101193Y0068119D01*
G37*
G36*
X0104673Y0071599D02*
X0103281Y0072991D01*
X0105089Y0074799D01*
X0106481Y0073407D01*
X0104673Y0071599D01*
G37*
G36*
X0102445Y0073826D02*
X0101053Y0075218D01*
X0102861Y0077026D01*
X0104253Y0075634D01*
X0102445Y0073826D01*
G37*
G36*
X0100218Y0076053D02*
X0098826Y0077445D01*
X0100634Y0079253D01*
X0102026Y0077861D01*
X0100218Y0076053D01*
G37*
G36*
X0097991Y0078281D02*
X0096599Y0079673D01*
X0098407Y0081481D01*
X0099799Y0080089D01*
X0097991Y0078281D01*
G37*
G36*
X0112991Y0063281D02*
X0111599Y0064673D01*
X0113407Y0066481D01*
X0114799Y0065089D01*
X0112991Y0063281D01*
G37*
G36*
X0115218Y0061053D02*
X0113826Y0062445D01*
X0115634Y0064253D01*
X0117026Y0062861D01*
X0115218Y0061053D01*
G37*
G36*
X0117445Y0058826D02*
X0116053Y0060218D01*
X0117861Y0062026D01*
X0119253Y0060634D01*
X0117445Y0058826D01*
G37*
G36*
X0119673Y0056599D02*
X0118281Y0057991D01*
X0120089Y0059799D01*
X0121481Y0058407D01*
X0119673Y0056599D01*
G37*
G36*
X0116193Y0053119D02*
X0114801Y0054511D01*
X0116609Y0056319D01*
X0118001Y0054927D01*
X0116193Y0053119D01*
G37*
G36*
X0113966Y0055347D02*
X0112574Y0056739D01*
X0114382Y0058547D01*
X0115774Y0057155D01*
X0113966Y0055347D01*
G37*
G36*
X0111739Y0057574D02*
X0110347Y0058966D01*
X0112155Y0060774D01*
X0113547Y0059382D01*
X0111739Y0057574D01*
G37*
G36*
X0109511Y0059801D02*
X0108119Y0061193D01*
X0109927Y0063001D01*
X0111319Y0061609D01*
X0109511Y0059801D01*
G37*
G36*
X0106801Y0029089D02*
X0108193Y0030481D01*
X0110001Y0028673D01*
X0108609Y0027281D01*
X0106801Y0029089D01*
G37*
G36*
X0104574Y0026861D02*
X0105966Y0028253D01*
X0107774Y0026445D01*
X0106382Y0025053D01*
X0104574Y0026861D01*
G37*
G36*
X0102347Y0024634D02*
X0103739Y0026026D01*
X0105547Y0024218D01*
X0104155Y0022826D01*
X0102347Y0024634D01*
G37*
G36*
X0100119Y0022407D02*
X0101511Y0023799D01*
X0103319Y0021991D01*
X0101927Y0020599D01*
X0100119Y0022407D01*
G37*
G36*
X0103599Y0018927D02*
X0104991Y0020319D01*
X0106799Y0018511D01*
X0105407Y0017119D01*
X0103599Y0018927D01*
G37*
G36*
X0105826Y0021155D02*
X0107218Y0022547D01*
X0109026Y0020739D01*
X0107634Y0019347D01*
X0105826Y0021155D01*
G37*
G36*
X0108053Y0023382D02*
X0109445Y0024774D01*
X0111253Y0022966D01*
X0109861Y0021574D01*
X0108053Y0023382D01*
G37*
G36*
X0110281Y0025609D02*
X0111673Y0027001D01*
X0113481Y0025193D01*
X0112089Y0023801D01*
X0110281Y0025609D01*
G37*
D17*
G36*
X0109865Y0051203D02*
X0105690Y0047028D01*
X0104299Y0048419D01*
X0108474Y0052594D01*
X0109865Y0051203D01*
G37*
G36*
X0107638Y0053430D02*
X0103463Y0049255D01*
X0102072Y0050646D01*
X0106247Y0054821D01*
X0107638Y0053430D01*
G37*
G36*
X0105411Y0055657D02*
X0101236Y0051482D01*
X0099845Y0052873D01*
X0104020Y0057048D01*
X0105411Y0055657D01*
G37*
G36*
X0103184Y0057884D02*
X0099009Y0053709D01*
X0097618Y0055100D01*
X0101793Y0059275D01*
X0103184Y0057884D01*
G37*
G36*
X0100957Y0060111D02*
X0096782Y0055936D01*
X0095391Y0057327D01*
X0099566Y0061502D01*
X0100957Y0060111D01*
G37*
G36*
X0098730Y0062339D02*
X0094555Y0058164D01*
X0093164Y0059555D01*
X0097339Y0063730D01*
X0098730Y0062339D01*
G37*
G36*
X0096502Y0064566D02*
X0092327Y0060391D01*
X0090936Y0061782D01*
X0095111Y0065957D01*
X0096502Y0064566D01*
G37*
G36*
X0094275Y0066793D02*
X0090100Y0062618D01*
X0088709Y0064009D01*
X0092884Y0068184D01*
X0094275Y0066793D01*
G37*
G36*
X0092048Y0069020D02*
X0087873Y0064845D01*
X0086482Y0066236D01*
X0090657Y0070411D01*
X0092048Y0069020D01*
G37*
G36*
X0089821Y0071247D02*
X0085646Y0067072D01*
X0084255Y0068463D01*
X0088430Y0072638D01*
X0089821Y0071247D01*
G37*
G36*
X0087594Y0073474D02*
X0083419Y0069299D01*
X0082028Y0070690D01*
X0086203Y0074865D01*
X0087594Y0073474D01*
G37*
G36*
X0055301Y0041181D02*
X0051126Y0037006D01*
X0049735Y0038397D01*
X0053910Y0042572D01*
X0055301Y0041181D01*
G37*
G36*
X0057528Y0038954D02*
X0053353Y0034779D01*
X0051962Y0036170D01*
X0056137Y0040345D01*
X0057528Y0038954D01*
G37*
G36*
X0059755Y0036727D02*
X0055580Y0032552D01*
X0054189Y0033943D01*
X0058364Y0038118D01*
X0059755Y0036727D01*
G37*
G36*
X0061982Y0034500D02*
X0057807Y0030325D01*
X0056416Y0031716D01*
X0060591Y0035891D01*
X0061982Y0034500D01*
G37*
G36*
X0064209Y0032273D02*
X0060034Y0028098D01*
X0058643Y0029489D01*
X0062818Y0033664D01*
X0064209Y0032273D01*
G37*
G36*
X0066436Y0030045D02*
X0062261Y0025870D01*
X0060870Y0027261D01*
X0065045Y0031436D01*
X0066436Y0030045D01*
G37*
G36*
X0068664Y0027818D02*
X0064489Y0023643D01*
X0063098Y0025034D01*
X0067273Y0029209D01*
X0068664Y0027818D01*
G37*
G36*
X0070891Y0025591D02*
X0066716Y0021416D01*
X0065325Y0022807D01*
X0069500Y0026982D01*
X0070891Y0025591D01*
G37*
G36*
X0073118Y0023364D02*
X0068943Y0019189D01*
X0067552Y0020580D01*
X0071727Y0024755D01*
X0073118Y0023364D01*
G37*
G36*
X0075345Y0021137D02*
X0071170Y0016962D01*
X0069779Y0018353D01*
X0073954Y0022528D01*
X0075345Y0021137D01*
G37*
G36*
X0077572Y0018910D02*
X0073397Y0014735D01*
X0072006Y0016126D01*
X0076181Y0020301D01*
X0077572Y0018910D01*
G37*
D18*
G36*
X0087594Y0016126D02*
X0086203Y0014735D01*
X0082028Y0018910D01*
X0083419Y0020301D01*
X0087594Y0016126D01*
G37*
G36*
X0089821Y0018353D02*
X0088430Y0016962D01*
X0084255Y0021137D01*
X0085646Y0022528D01*
X0089821Y0018353D01*
G37*
G36*
X0092048Y0020580D02*
X0090657Y0019189D01*
X0086482Y0023364D01*
X0087873Y0024755D01*
X0092048Y0020580D01*
G37*
G36*
X0094275Y0022807D02*
X0092884Y0021416D01*
X0088709Y0025591D01*
X0090100Y0026982D01*
X0094275Y0022807D01*
G37*
G36*
X0096502Y0025034D02*
X0095111Y0023643D01*
X0090936Y0027818D01*
X0092327Y0029209D01*
X0096502Y0025034D01*
G37*
G36*
X0098730Y0027261D02*
X0097339Y0025870D01*
X0093164Y0030045D01*
X0094555Y0031436D01*
X0098730Y0027261D01*
G37*
G36*
X0100957Y0029489D02*
X0099566Y0028098D01*
X0095391Y0032273D01*
X0096782Y0033664D01*
X0100957Y0029489D01*
G37*
G36*
X0103184Y0031716D02*
X0101793Y0030325D01*
X0097618Y0034500D01*
X0099009Y0035891D01*
X0103184Y0031716D01*
G37*
G36*
X0105411Y0033943D02*
X0104020Y0032552D01*
X0099845Y0036727D01*
X0101236Y0038118D01*
X0105411Y0033943D01*
G37*
G36*
X0107638Y0036170D02*
X0106247Y0034779D01*
X0102072Y0038954D01*
X0103463Y0040345D01*
X0107638Y0036170D01*
G37*
G36*
X0109865Y0038397D02*
X0108474Y0037006D01*
X0104299Y0041181D01*
X0105690Y0042572D01*
X0109865Y0038397D01*
G37*
G36*
X0077572Y0070690D02*
X0076181Y0069299D01*
X0072006Y0073474D01*
X0073397Y0074865D01*
X0077572Y0070690D01*
G37*
G36*
X0075345Y0068463D02*
X0073954Y0067072D01*
X0069779Y0071247D01*
X0071170Y0072638D01*
X0075345Y0068463D01*
G37*
G36*
X0073118Y0066236D02*
X0071727Y0064845D01*
X0067552Y0069020D01*
X0068943Y0070411D01*
X0073118Y0066236D01*
G37*
G36*
X0070891Y0064009D02*
X0069500Y0062618D01*
X0065325Y0066793D01*
X0066716Y0068184D01*
X0070891Y0064009D01*
G37*
G36*
X0068664Y0061782D02*
X0067273Y0060391D01*
X0063098Y0064566D01*
X0064489Y0065957D01*
X0068664Y0061782D01*
G37*
G36*
X0066436Y0059555D02*
X0065045Y0058164D01*
X0060870Y0062339D01*
X0062261Y0063730D01*
X0066436Y0059555D01*
G37*
G36*
X0064209Y0057327D02*
X0062818Y0055936D01*
X0058643Y0060111D01*
X0060034Y0061502D01*
X0064209Y0057327D01*
G37*
G36*
X0061982Y0055100D02*
X0060591Y0053709D01*
X0056416Y0057884D01*
X0057807Y0059275D01*
X0061982Y0055100D01*
G37*
G36*
X0059755Y0052873D02*
X0058364Y0051482D01*
X0054189Y0055657D01*
X0055580Y0057048D01*
X0059755Y0052873D01*
G37*
G36*
X0057528Y0050646D02*
X0056137Y0049255D01*
X0051962Y0053430D01*
X0053353Y0054821D01*
X0057528Y0050646D01*
G37*
G36*
X0055301Y0048419D02*
X0053910Y0047028D01*
X0049735Y0051203D01*
X0051126Y0052594D01*
X0055301Y0048419D01*
G37*
D19*
X0043540Y0039919D03*
X0036060Y0039919D03*
X0036060Y0029681D03*
X0039800Y0029681D03*
X0043540Y0029681D03*
X0023540Y0029681D03*
X0019800Y0029681D03*
X0016060Y0029681D03*
X0016060Y0039919D03*
X0023540Y0039919D03*
D20*
X0023800Y0040200D01*
X0030400Y0040200D01*
X0035800Y0040200D02*
X0036060Y0039919D01*
X0036400Y0040200D01*
X0038800Y0040200D01*
X0048400Y0049800D01*
X0052000Y0049800D01*
X0052518Y0049811D01*
X0052600Y0049800D01*
X0054400Y0048000D01*
X0058600Y0048000D01*
X0054745Y0052038D02*
X0054400Y0052200D01*
X0052600Y0054000D01*
X0048400Y0054000D01*
X0043000Y0059400D01*
X0041800Y0059400D01*
X0041454Y0059800D01*
X0041200Y0059400D01*
X0033400Y0059400D01*
X0030400Y0056400D01*
X0025000Y0056400D01*
X0022000Y0059400D01*
X0021454Y0059800D01*
X0021400Y0059400D01*
X0015400Y0059400D01*
X0010000Y0054000D01*
X0009400Y0054600D01*
X0010000Y0054000D02*
X0007000Y0051000D01*
X0007000Y0049800D01*
X0006454Y0049800D01*
X0007000Y0049800D02*
X0007000Y0048600D01*
X0009400Y0046200D01*
X0009400Y0019800D01*
X0009800Y0019800D01*
X0010000Y0019800D01*
X0013600Y0016200D01*
X0019600Y0016200D01*
X0021400Y0018000D01*
X0021400Y0019200D01*
X0020200Y0020400D01*
X0020200Y0025200D01*
X0020200Y0029400D01*
X0019800Y0029681D01*
X0020200Y0030000D01*
X0020200Y0031200D01*
X0023200Y0034200D01*
X0032800Y0034200D01*
X0044200Y0034200D01*
X0046000Y0032400D01*
X0046000Y0025800D01*
X0055000Y0025800D01*
X0059800Y0030600D01*
X0061000Y0030600D01*
X0061426Y0030881D01*
X0059199Y0033108D02*
X0058600Y0033600D01*
X0055000Y0030000D01*
X0056800Y0034800D02*
X0056972Y0035335D01*
X0056800Y0034800D02*
X0050200Y0028200D01*
X0046000Y0025800D02*
X0041800Y0025800D01*
X0039400Y0028200D01*
X0039800Y0029681D01*
X0039400Y0029400D01*
X0039400Y0028200D01*
X0034600Y0023400D01*
X0030400Y0023400D01*
X0026800Y0019800D01*
X0026257Y0019800D01*
X0026200Y0019800D01*
X0026200Y0007800D01*
X0026257Y0007800D01*
X0029200Y0010200D02*
X0031600Y0007800D01*
X0028000Y0004200D01*
X0024400Y0004200D01*
X0023200Y0005400D01*
X0023200Y0029400D01*
X0023540Y0029681D01*
X0023800Y0030000D01*
X0035200Y0030000D01*
X0036060Y0029681D01*
X0035800Y0030000D01*
X0035200Y0030000D01*
X0038200Y0033000D01*
X0041200Y0033000D01*
X0043000Y0031200D01*
X0043000Y0030000D01*
X0043540Y0029681D01*
X0049000Y0036600D02*
X0052000Y0039600D01*
X0052518Y0039789D01*
X0054745Y0037562D02*
X0055000Y0037800D01*
X0056200Y0037800D01*
X0058000Y0039600D01*
X0058600Y0039600D01*
X0067600Y0030600D01*
X0067600Y0028200D01*
X0066400Y0027000D01*
X0065881Y0026426D01*
X0068200Y0024600D02*
X0068108Y0024199D01*
X0068200Y0024600D02*
X0073600Y0030000D01*
X0076600Y0032400D02*
X0076600Y0025200D01*
X0073000Y0021600D01*
X0073000Y0019800D01*
X0072562Y0019745D01*
X0074800Y0019200D02*
X0074800Y0018000D01*
X0074789Y0017518D01*
X0074800Y0019200D02*
X0077800Y0022200D01*
X0077800Y0022800D01*
X0080200Y0019800D02*
X0072200Y0011800D01*
X0071800Y0011800D01*
X0065800Y0017800D01*
X0039800Y0017800D01*
X0039800Y0009200D01*
X0040000Y0009000D01*
X0039800Y0008800D01*
X0033343Y0007800D02*
X0031600Y0007800D01*
X0029200Y0010200D02*
X0029200Y0013800D01*
X0033343Y0019800D02*
X0055000Y0019800D01*
X0063400Y0028200D01*
X0063653Y0028653D01*
X0070600Y0022200D02*
X0074200Y0025800D01*
X0070600Y0022200D02*
X0070335Y0021972D01*
X0077800Y0014800D02*
X0084811Y0017518D01*
X0087038Y0019745D02*
X0087400Y0019800D01*
X0089200Y0021600D01*
X0089265Y0021972D01*
X0089200Y0022200D01*
X0085000Y0026400D01*
X0085000Y0027600D01*
X0086800Y0029400D01*
X0063400Y0052800D01*
X0059199Y0056492D02*
X0058600Y0057000D01*
X0057400Y0057000D01*
X0055000Y0059400D01*
X0048400Y0059400D01*
X0048146Y0059800D01*
X0048400Y0060000D01*
X0048400Y0069600D01*
X0048146Y0069800D01*
X0047800Y0075600D02*
X0059800Y0063600D01*
X0059200Y0063600D01*
X0059800Y0063600D02*
X0061000Y0063600D01*
X0063400Y0061200D01*
X0063653Y0060947D01*
X0065881Y0063174D02*
X0065800Y0063600D01*
X0064600Y0064800D01*
X0061000Y0064800D01*
X0046000Y0079800D01*
X0043146Y0079800D01*
X0040000Y0083400D02*
X0063200Y0083400D01*
X0065800Y0079800D02*
X0067000Y0078600D01*
X0073600Y0078600D01*
X0079800Y0084800D01*
X0089800Y0084800D02*
X0089800Y0084600D01*
X0094000Y0080400D01*
X0097600Y0080400D01*
X0098199Y0079881D01*
X0100600Y0079200D02*
X0104800Y0083400D01*
X0104800Y0084800D01*
X0107200Y0078600D02*
X0108400Y0078600D01*
X0114400Y0084600D01*
X0114800Y0084800D01*
X0107200Y0078600D02*
X0104200Y0075600D01*
X0103000Y0075600D01*
X0102653Y0075426D01*
X0100426Y0077653D02*
X0100600Y0078000D01*
X0100600Y0079200D01*
X0096947Y0074174D02*
X0096400Y0073800D01*
X0089800Y0067200D01*
X0089265Y0067628D01*
X0091600Y0066000D02*
X0091492Y0065401D01*
X0091600Y0066000D02*
X0097000Y0071400D01*
X0098800Y0071400D01*
X0099174Y0071947D01*
X0100000Y0069600D02*
X0094000Y0063600D01*
X0093719Y0063174D01*
X0095947Y0060947D02*
X0096400Y0061200D01*
X0098200Y0063000D01*
X0099400Y0063000D01*
X0100600Y0061800D01*
X0109600Y0061800D01*
X0109719Y0061401D01*
X0111400Y0058800D02*
X0111947Y0059174D01*
X0111400Y0058800D02*
X0105400Y0058800D01*
X0103600Y0060600D01*
X0100000Y0060600D01*
X0098200Y0058800D01*
X0098174Y0058719D01*
X0100600Y0057000D02*
X0100401Y0056492D01*
X0100600Y0057000D02*
X0101800Y0058200D01*
X0104200Y0058200D01*
X0104800Y0057600D01*
X0108400Y0057600D01*
X0109600Y0056400D01*
X0113800Y0056400D01*
X0114174Y0056947D01*
X0115000Y0054600D02*
X0114400Y0054000D01*
X0110200Y0054000D01*
X0108400Y0055800D01*
X0104200Y0055800D01*
X0103000Y0054600D01*
X0102628Y0054265D01*
X0104855Y0052038D02*
X0105400Y0052200D01*
X0106600Y0052200D01*
X0108400Y0054000D01*
X0110800Y0051600D01*
X0110800Y0050400D01*
X0089800Y0029400D01*
X0086800Y0029400D01*
X0087400Y0027000D02*
X0089800Y0024600D01*
X0091000Y0024600D01*
X0091492Y0024199D01*
X0098174Y0030881D02*
X0100800Y0028254D01*
X0100800Y0022199D01*
X0101719Y0022199D01*
X0103600Y0024600D02*
X0103947Y0024426D01*
X0103600Y0024600D02*
X0103600Y0028800D01*
X0100600Y0031800D01*
X0100600Y0033000D01*
X0100401Y0033108D01*
X0103000Y0034800D02*
X0102628Y0035335D01*
X0103000Y0034800D02*
X0104200Y0033600D01*
X0104200Y0030000D01*
X0106000Y0028200D01*
X0106000Y0027000D01*
X0106174Y0026653D01*
X0108401Y0028881D02*
X0108400Y0029400D01*
X0108400Y0034200D01*
X0105400Y0037200D01*
X0104855Y0037562D01*
X0113800Y0040800D02*
X0119800Y0034800D01*
X0121600Y0029400D02*
X0121600Y0027000D01*
X0119800Y0025200D01*
X0119800Y0024800D01*
X0119200Y0019200D02*
X0119200Y0015600D01*
X0119800Y0015000D01*
X0119800Y0014800D01*
X0112600Y0011400D02*
X0110200Y0009000D01*
X0109800Y0008800D01*
X0112600Y0011400D02*
X0112600Y0023400D01*
X0112000Y0024000D01*
X0112000Y0025200D01*
X0111881Y0025401D01*
X0110200Y0022800D02*
X0109653Y0023174D01*
X0110200Y0022800D02*
X0110200Y0018000D01*
X0106000Y0013800D01*
X0106000Y0006600D01*
X0104200Y0004800D01*
X0102400Y0004800D01*
X0098800Y0008400D01*
X0098800Y0008800D01*
X0103600Y0007200D02*
X0104800Y0008400D01*
X0104800Y0018600D01*
X0105199Y0018719D01*
X0106000Y0021000D02*
X0105400Y0021600D01*
X0104800Y0021600D01*
X0098200Y0015000D01*
X0095800Y0015000D01*
X0089800Y0009000D01*
X0089800Y0008800D01*
X0080800Y0008800D02*
X0080800Y0008400D01*
X0079600Y0007200D01*
X0076000Y0007200D01*
X0071800Y0008800D02*
X0077800Y0014800D01*
X0080200Y0019800D02*
X0080200Y0031800D01*
X0077200Y0034800D01*
X0076600Y0034800D01*
X0057400Y0054000D01*
X0056972Y0054265D01*
X0061000Y0058800D02*
X0061426Y0058719D01*
X0061000Y0058800D02*
X0058000Y0061800D01*
X0054400Y0061800D01*
X0065800Y0066000D02*
X0067600Y0066000D01*
X0068108Y0065401D01*
X0065800Y0066000D02*
X0052000Y0079800D01*
X0051454Y0079800D01*
X0058146Y0079800D02*
X0065800Y0079800D01*
X0061600Y0076200D02*
X0070000Y0067800D01*
X0070335Y0067628D01*
X0072562Y0069855D02*
X0073000Y0069600D01*
X0075400Y0067200D01*
X0075400Y0066600D01*
X0077200Y0064800D01*
X0078400Y0064800D01*
X0080800Y0067200D01*
X0080800Y0066600D01*
X0080800Y0067200D02*
X0082000Y0068400D01*
X0102400Y0048000D01*
X0103600Y0048000D01*
X0105400Y0049800D01*
X0106600Y0049800D01*
X0107082Y0049811D01*
X0113800Y0048000D02*
X0113800Y0040800D01*
X0119800Y0044800D02*
X0119800Y0045000D01*
X0120400Y0045600D01*
X0120400Y0057600D01*
X0119881Y0058199D01*
X0117400Y0058800D02*
X0116800Y0058200D01*
X0116800Y0057600D01*
X0119200Y0055200D01*
X0119200Y0053400D01*
X0113800Y0048000D01*
X0115000Y0054600D02*
X0116200Y0054600D01*
X0116401Y0054719D01*
X0117400Y0058800D02*
X0117400Y0060000D01*
X0117653Y0060426D01*
X0115426Y0062653D02*
X0115600Y0063000D01*
X0119800Y0063000D01*
X0121600Y0061200D01*
X0119200Y0065400D02*
X0113200Y0065400D01*
X0113199Y0064881D01*
X0118600Y0073200D02*
X0105400Y0073200D01*
X0104881Y0073199D01*
X0101401Y0069719D02*
X0101200Y0069600D01*
X0100000Y0069600D01*
X0094600Y0076200D02*
X0093400Y0076200D01*
X0087400Y0070200D01*
X0087038Y0069855D01*
X0084400Y0070800D02*
X0084400Y0072000D01*
X0084811Y0072082D01*
X0084400Y0070800D02*
X0082000Y0068400D01*
X0077800Y0067800D02*
X0074800Y0070800D01*
X0074800Y0072000D01*
X0074789Y0072082D01*
X0077800Y0067800D02*
X0077800Y0067200D01*
X0094600Y0076200D02*
X0094719Y0076401D01*
X0118600Y0073200D02*
X0119800Y0074400D01*
X0119800Y0074800D01*
X0068800Y0085800D02*
X0039400Y0085800D01*
X0037000Y0083400D01*
X0037000Y0079800D01*
X0036454Y0079800D01*
X0034600Y0084600D02*
X0033400Y0084600D01*
X0031000Y0087000D01*
X0031000Y0087600D01*
X0030400Y0088200D01*
X0026200Y0088200D01*
X0023800Y0085800D01*
X0023800Y0067800D01*
X0021400Y0065400D01*
X0016600Y0065400D01*
X0016600Y0061800D02*
X0011800Y0066600D01*
X0009800Y0064800D01*
X0010000Y0064800D01*
X0011800Y0066600D01*
X0019000Y0073800D01*
X0019000Y0076200D01*
X0016600Y0078600D01*
X0014200Y0078600D01*
X0008200Y0084600D01*
X0006400Y0084600D01*
X0006257Y0084800D01*
X0013343Y0084800D02*
X0013600Y0085200D01*
X0020800Y0085200D01*
X0021257Y0084800D01*
X0020800Y0084600D01*
X0020800Y0080400D01*
X0016600Y0075600D02*
X0010600Y0075600D01*
X0009800Y0074800D01*
X0021400Y0065400D02*
X0026800Y0060000D01*
X0028000Y0060000D01*
X0028146Y0059800D01*
X0025600Y0053400D02*
X0020200Y0053400D01*
X0016600Y0057000D01*
X0014800Y0057000D01*
X0010000Y0052200D01*
X0010000Y0047400D01*
X0010600Y0046800D01*
X0010600Y0030000D01*
X0019000Y0021600D01*
X0019000Y0018600D01*
X0007000Y0025200D02*
X0007000Y0035400D01*
X0013600Y0042600D02*
X0016000Y0040200D01*
X0016060Y0039919D01*
X0013600Y0042600D02*
X0013600Y0049800D01*
X0013146Y0049800D01*
X0018400Y0052200D02*
X0023800Y0052200D01*
X0035800Y0040200D01*
X0049000Y0036600D02*
X0022000Y0036600D01*
X0016600Y0031200D01*
X0016600Y0030000D01*
X0016060Y0029681D01*
X0041454Y0069800D02*
X0041200Y0070200D01*
X0037000Y0070200D01*
X0037600Y0073200D02*
X0035800Y0073200D01*
X0033400Y0075600D01*
X0029200Y0075600D01*
X0035200Y0075600D02*
X0047800Y0075600D01*
X0035200Y0075600D02*
X0028600Y0082200D01*
X0028600Y0084600D01*
X0028343Y0084800D01*
X0031600Y0089400D02*
X0034000Y0087000D01*
X0034600Y0084600D02*
X0038200Y0088200D01*
X0049600Y0088200D01*
X0031600Y0089400D02*
X0024400Y0089400D01*
X0023800Y0088800D01*
X0106000Y0021000D02*
X0107200Y0021000D01*
X0107426Y0020947D01*
X0071800Y0008800D02*
X0063800Y0008800D01*
D21*
X0076000Y0007200D03*
X0077800Y0022800D03*
X0074200Y0025800D03*
X0073600Y0030000D03*
X0076600Y0032400D03*
X0087400Y0027000D03*
X0103600Y0007200D03*
X0119200Y0019200D03*
X0121600Y0029400D03*
X0121600Y0061200D03*
X0119200Y0065400D03*
X0080800Y0066600D03*
X0077800Y0067200D03*
X0061600Y0076200D03*
X0063200Y0083400D03*
X0049600Y0088200D03*
X0040000Y0083400D03*
X0034000Y0087000D03*
X0023800Y0088800D03*
X0020800Y0080400D03*
X0016600Y0075600D03*
X0016600Y0065400D03*
X0016600Y0061800D03*
X0016600Y0057000D03*
X0018400Y0052200D03*
X0025600Y0053400D03*
X0030400Y0040200D03*
X0032800Y0034200D03*
X0020200Y0025200D03*
X0019000Y0018600D03*
X0029200Y0013800D03*
X0050200Y0028200D03*
X0055000Y0030000D03*
X0058600Y0048000D03*
X0063400Y0052800D03*
X0054400Y0061800D03*
X0059200Y0063600D03*
X0037000Y0070200D03*
X0037600Y0073200D03*
X0029200Y0075600D03*
X0009400Y0054600D03*
X0007000Y0035400D03*
X0007000Y0025200D03*
D22*
X0068800Y0085800D03*
M02*
