G75*
%MOIN*%
%OFA0B0*%
%FSLAX25Y25*%
%IPPOS*%
%LPD*%
%AMOC8*
5,1,8,0,0,1.08239X$1,22.5*
%
%ADD10C,0.00000*%
%ADD11C,0.01600*%
%ADD12R,0.04331X0.03937*%
%ADD13R,0.05000X0.06000*%
%ADD14R,0.06000X0.05000*%
%ADD15R,0.03150X0.04724*%
%ADD16R,0.01969X0.02559*%
%ADD17R,0.05906X0.01969*%
%ADD18R,0.01969X0.05906*%
%ADD19R,0.02165X0.04724*%
%ADD20R,0.04724X0.03150*%
%ADD21C,0.00600*%
%ADD22C,0.02400*%
D10*
X0002449Y0090449D02*
X0002449Y0317409D01*
X0391150Y0317409D01*
X0391150Y0002449D01*
X0127449Y0002449D01*
D11*
X0002449Y0002449D02*
X0002449Y0090449D01*
X0127449Y0090449D01*
X0127449Y0002449D01*
X0002449Y0002449D01*
D12*
X0022102Y0059449D03*
X0028795Y0059449D03*
X0028795Y0067449D03*
X0022102Y0067449D03*
X0037102Y0078449D03*
X0043795Y0078449D03*
X0053102Y0078449D03*
X0059795Y0078449D03*
X0048795Y0068449D03*
X0042102Y0068449D03*
X0042102Y0060449D03*
X0048795Y0060449D03*
X0072102Y0006449D03*
X0078795Y0006449D03*
D13*
X0084449Y0007449D03*
X0091449Y0007449D03*
X0098449Y0007449D03*
X0064449Y0007449D03*
X0048449Y0007449D03*
X0070449Y0085449D03*
X0080449Y0085449D03*
X0095449Y0085449D03*
X0102449Y0085449D03*
X0110449Y0085449D03*
D14*
X0118449Y0085449D03*
X0122449Y0076449D03*
X0122449Y0069449D03*
X0122449Y0058449D03*
X0122449Y0051449D03*
X0122449Y0043449D03*
X0122449Y0035449D03*
X0122449Y0027449D03*
X0122449Y0019449D03*
X0007449Y0022449D03*
X0007449Y0065449D03*
X0007449Y0073449D03*
D15*
X0006906Y0081449D03*
X0013992Y0081449D03*
X0020906Y0081449D03*
X0027992Y0081449D03*
X0024906Y0026449D03*
X0031992Y0026449D03*
X0031992Y0016449D03*
X0024906Y0016449D03*
D16*
G36*
X0096160Y0074450D02*
X0094768Y0075842D01*
X0096576Y0077650D01*
X0097968Y0076258D01*
X0096160Y0074450D01*
G37*
G36*
X0098387Y0072222D02*
X0096995Y0073614D01*
X0098803Y0075422D01*
X0100195Y0074030D01*
X0098387Y0072222D01*
G37*
G36*
X0100614Y0069995D02*
X0099222Y0071387D01*
X0101030Y0073195D01*
X0102422Y0071803D01*
X0100614Y0069995D01*
G37*
G36*
X0102842Y0067768D02*
X0101450Y0069160D01*
X0103258Y0070968D01*
X0104650Y0069576D01*
X0102842Y0067768D01*
G37*
G36*
X0107160Y0064450D02*
X0105768Y0065842D01*
X0107576Y0067650D01*
X0108968Y0066258D01*
X0107160Y0064450D01*
G37*
G36*
X0109387Y0062222D02*
X0107995Y0063614D01*
X0109803Y0065422D01*
X0111195Y0064030D01*
X0109387Y0062222D01*
G37*
G36*
X0111614Y0059995D02*
X0110222Y0061387D01*
X0112030Y0063195D01*
X0113422Y0061803D01*
X0111614Y0059995D01*
G37*
G36*
X0113842Y0057768D02*
X0112450Y0059160D01*
X0114258Y0060968D01*
X0115650Y0059576D01*
X0113842Y0057768D01*
G37*
G36*
X0117321Y0061248D02*
X0115929Y0062640D01*
X0117737Y0064448D01*
X0119129Y0063056D01*
X0117321Y0061248D01*
G37*
G36*
X0115094Y0063475D02*
X0113702Y0064867D01*
X0115510Y0066675D01*
X0116902Y0065283D01*
X0115094Y0063475D01*
G37*
G36*
X0112867Y0065702D02*
X0111475Y0067094D01*
X0113283Y0068902D01*
X0114675Y0067510D01*
X0112867Y0065702D01*
G37*
G36*
X0110640Y0067929D02*
X0109248Y0069321D01*
X0111056Y0071129D01*
X0112448Y0069737D01*
X0110640Y0067929D01*
G37*
G36*
X0106321Y0071248D02*
X0104929Y0072640D01*
X0106737Y0074448D01*
X0108129Y0073056D01*
X0106321Y0071248D01*
G37*
G36*
X0104094Y0073475D02*
X0102702Y0074867D01*
X0104510Y0076675D01*
X0105902Y0075283D01*
X0104094Y0073475D01*
G37*
G36*
X0101867Y0075702D02*
X0100475Y0077094D01*
X0102283Y0078902D01*
X0103675Y0077510D01*
X0101867Y0075702D01*
G37*
G36*
X0099640Y0077929D02*
X0098248Y0079321D01*
X0100056Y0081129D01*
X0101448Y0079737D01*
X0099640Y0077929D01*
G37*
G36*
X0107450Y0029737D02*
X0108842Y0031129D01*
X0110650Y0029321D01*
X0109258Y0027929D01*
X0107450Y0029737D01*
G37*
G36*
X0105222Y0027510D02*
X0106614Y0028902D01*
X0108422Y0027094D01*
X0107030Y0025702D01*
X0105222Y0027510D01*
G37*
G36*
X0102995Y0025283D02*
X0104387Y0026675D01*
X0106195Y0024867D01*
X0104803Y0023475D01*
X0102995Y0025283D01*
G37*
G36*
X0100768Y0023056D02*
X0102160Y0024448D01*
X0103968Y0022640D01*
X0102576Y0021248D01*
X0100768Y0023056D01*
G37*
G36*
X0104248Y0019576D02*
X0105640Y0020968D01*
X0107448Y0019160D01*
X0106056Y0017768D01*
X0104248Y0019576D01*
G37*
G36*
X0106475Y0021803D02*
X0107867Y0023195D01*
X0109675Y0021387D01*
X0108283Y0019995D01*
X0106475Y0021803D01*
G37*
G36*
X0108702Y0024030D02*
X0110094Y0025422D01*
X0111902Y0023614D01*
X0110510Y0022222D01*
X0108702Y0024030D01*
G37*
G36*
X0110929Y0026258D02*
X0112321Y0027650D01*
X0114129Y0025842D01*
X0112737Y0024450D01*
X0110929Y0026258D01*
G37*
D17*
G36*
X0110514Y0051852D02*
X0106339Y0047677D01*
X0104948Y0049068D01*
X0109123Y0053243D01*
X0110514Y0051852D01*
G37*
G36*
X0108287Y0054079D02*
X0104112Y0049904D01*
X0102721Y0051295D01*
X0106896Y0055470D01*
X0108287Y0054079D01*
G37*
G36*
X0106060Y0056306D02*
X0101885Y0052131D01*
X0100494Y0053522D01*
X0104669Y0057697D01*
X0106060Y0056306D01*
G37*
G36*
X0103833Y0058533D02*
X0099658Y0054358D01*
X0098267Y0055749D01*
X0102442Y0059924D01*
X0103833Y0058533D01*
G37*
G36*
X0101605Y0060760D02*
X0097430Y0056585D01*
X0096039Y0057976D01*
X0100214Y0062151D01*
X0101605Y0060760D01*
G37*
G36*
X0099378Y0062987D02*
X0095203Y0058812D01*
X0093812Y0060203D01*
X0097987Y0064378D01*
X0099378Y0062987D01*
G37*
G36*
X0097151Y0065214D02*
X0092976Y0061039D01*
X0091585Y0062430D01*
X0095760Y0066605D01*
X0097151Y0065214D01*
G37*
G36*
X0094924Y0067442D02*
X0090749Y0063267D01*
X0089358Y0064658D01*
X0093533Y0068833D01*
X0094924Y0067442D01*
G37*
G36*
X0092697Y0069669D02*
X0088522Y0065494D01*
X0087131Y0066885D01*
X0091306Y0071060D01*
X0092697Y0069669D01*
G37*
G36*
X0090470Y0071896D02*
X0086295Y0067721D01*
X0084904Y0069112D01*
X0089079Y0073287D01*
X0090470Y0071896D01*
G37*
G36*
X0088243Y0074123D02*
X0084068Y0069948D01*
X0082677Y0071339D01*
X0086852Y0075514D01*
X0088243Y0074123D01*
G37*
G36*
X0055950Y0041830D02*
X0051775Y0037655D01*
X0050384Y0039046D01*
X0054559Y0043221D01*
X0055950Y0041830D01*
G37*
G36*
X0058177Y0039603D02*
X0054002Y0035428D01*
X0052611Y0036819D01*
X0056786Y0040994D01*
X0058177Y0039603D01*
G37*
G36*
X0060404Y0037376D02*
X0056229Y0033201D01*
X0054838Y0034592D01*
X0059013Y0038767D01*
X0060404Y0037376D01*
G37*
G36*
X0062631Y0035148D02*
X0058456Y0030973D01*
X0057065Y0032364D01*
X0061240Y0036539D01*
X0062631Y0035148D01*
G37*
G36*
X0064858Y0032921D02*
X0060683Y0028746D01*
X0059292Y0030137D01*
X0063467Y0034312D01*
X0064858Y0032921D01*
G37*
G36*
X0067085Y0030694D02*
X0062910Y0026519D01*
X0061519Y0027910D01*
X0065694Y0032085D01*
X0067085Y0030694D01*
G37*
G36*
X0069312Y0028467D02*
X0065137Y0024292D01*
X0063746Y0025683D01*
X0067921Y0029858D01*
X0069312Y0028467D01*
G37*
G36*
X0071539Y0026240D02*
X0067364Y0022065D01*
X0065973Y0023456D01*
X0070148Y0027631D01*
X0071539Y0026240D01*
G37*
G36*
X0073767Y0024013D02*
X0069592Y0019838D01*
X0068201Y0021229D01*
X0072376Y0025404D01*
X0073767Y0024013D01*
G37*
G36*
X0075994Y0021786D02*
X0071819Y0017611D01*
X0070428Y0019002D01*
X0074603Y0023177D01*
X0075994Y0021786D01*
G37*
G36*
X0078221Y0019559D02*
X0074046Y0015384D01*
X0072655Y0016775D01*
X0076830Y0020950D01*
X0078221Y0019559D01*
G37*
D18*
G36*
X0088243Y0016775D02*
X0086852Y0015384D01*
X0082677Y0019559D01*
X0084068Y0020950D01*
X0088243Y0016775D01*
G37*
G36*
X0090470Y0019002D02*
X0089079Y0017611D01*
X0084904Y0021786D01*
X0086295Y0023177D01*
X0090470Y0019002D01*
G37*
G36*
X0092697Y0021229D02*
X0091306Y0019838D01*
X0087131Y0024013D01*
X0088522Y0025404D01*
X0092697Y0021229D01*
G37*
G36*
X0094924Y0023456D02*
X0093533Y0022065D01*
X0089358Y0026240D01*
X0090749Y0027631D01*
X0094924Y0023456D01*
G37*
G36*
X0097151Y0025683D02*
X0095760Y0024292D01*
X0091585Y0028467D01*
X0092976Y0029858D01*
X0097151Y0025683D01*
G37*
G36*
X0099378Y0027910D02*
X0097987Y0026519D01*
X0093812Y0030694D01*
X0095203Y0032085D01*
X0099378Y0027910D01*
G37*
G36*
X0101605Y0030137D02*
X0100214Y0028746D01*
X0096039Y0032921D01*
X0097430Y0034312D01*
X0101605Y0030137D01*
G37*
G36*
X0103833Y0032364D02*
X0102442Y0030973D01*
X0098267Y0035148D01*
X0099658Y0036539D01*
X0103833Y0032364D01*
G37*
G36*
X0106060Y0034592D02*
X0104669Y0033201D01*
X0100494Y0037376D01*
X0101885Y0038767D01*
X0106060Y0034592D01*
G37*
G36*
X0108287Y0036819D02*
X0106896Y0035428D01*
X0102721Y0039603D01*
X0104112Y0040994D01*
X0108287Y0036819D01*
G37*
G36*
X0110514Y0039046D02*
X0109123Y0037655D01*
X0104948Y0041830D01*
X0106339Y0043221D01*
X0110514Y0039046D01*
G37*
G36*
X0078221Y0071339D02*
X0076830Y0069948D01*
X0072655Y0074123D01*
X0074046Y0075514D01*
X0078221Y0071339D01*
G37*
G36*
X0075994Y0069112D02*
X0074603Y0067721D01*
X0070428Y0071896D01*
X0071819Y0073287D01*
X0075994Y0069112D01*
G37*
G36*
X0073767Y0066885D02*
X0072376Y0065494D01*
X0068201Y0069669D01*
X0069592Y0071060D01*
X0073767Y0066885D01*
G37*
G36*
X0071539Y0064658D02*
X0070148Y0063267D01*
X0065973Y0067442D01*
X0067364Y0068833D01*
X0071539Y0064658D01*
G37*
G36*
X0069312Y0062430D02*
X0067921Y0061039D01*
X0063746Y0065214D01*
X0065137Y0066605D01*
X0069312Y0062430D01*
G37*
G36*
X0067085Y0060203D02*
X0065694Y0058812D01*
X0061519Y0062987D01*
X0062910Y0064378D01*
X0067085Y0060203D01*
G37*
G36*
X0064858Y0057976D02*
X0063467Y0056585D01*
X0059292Y0060760D01*
X0060683Y0062151D01*
X0064858Y0057976D01*
G37*
G36*
X0062631Y0055749D02*
X0061240Y0054358D01*
X0057065Y0058533D01*
X0058456Y0059924D01*
X0062631Y0055749D01*
G37*
G36*
X0060404Y0053522D02*
X0059013Y0052131D01*
X0054838Y0056306D01*
X0056229Y0057697D01*
X0060404Y0053522D01*
G37*
G36*
X0058177Y0051295D02*
X0056786Y0049904D01*
X0052611Y0054079D01*
X0054002Y0055470D01*
X0058177Y0051295D01*
G37*
G36*
X0055950Y0049068D02*
X0054559Y0047677D01*
X0050384Y0051852D01*
X0051775Y0053243D01*
X0055950Y0049068D01*
G37*
D19*
X0040189Y0047567D03*
X0032709Y0047567D03*
X0024189Y0047567D03*
X0016709Y0047567D03*
X0016709Y0037330D03*
X0020449Y0037330D03*
X0024189Y0037330D03*
X0032709Y0037330D03*
X0036449Y0037330D03*
X0040189Y0037330D03*
D20*
X0106449Y0012992D03*
X0114449Y0012992D03*
X0114449Y0005906D03*
X0106449Y0005906D03*
D21*
X0106649Y0006049D01*
X0114449Y0006049D01*
X0114449Y0005906D01*
X0114449Y0006049D02*
X0117449Y0009049D01*
X0118049Y0009049D01*
X0114449Y0012649D02*
X0114449Y0012992D01*
X0114449Y0012649D02*
X0112049Y0012649D01*
X0109049Y0015649D01*
X0106649Y0015649D01*
X0099449Y0022849D01*
X0099449Y0025249D01*
X0097049Y0027649D01*
X0097049Y0028849D01*
X0096595Y0029302D01*
X0094649Y0027049D02*
X0094368Y0027075D01*
X0094649Y0027049D02*
X0094649Y0025249D01*
X0096449Y0023449D01*
X0096449Y0012649D01*
X0091649Y0007849D01*
X0091449Y0007449D01*
X0089249Y0012649D02*
X0084449Y0007849D01*
X0084449Y0007449D01*
X0084449Y0007249D01*
X0083849Y0006649D01*
X0079049Y0006649D01*
X0078795Y0006449D01*
X0072102Y0006449D02*
X0071849Y0006649D01*
X0071849Y0007849D01*
X0061649Y0018049D01*
X0061049Y0020449D02*
X0062249Y0020449D01*
X0068249Y0014449D01*
X0074849Y0014449D01*
X0078449Y0018049D01*
X0085049Y0018049D01*
X0085460Y0018167D01*
X0088049Y0018649D02*
X0088049Y0019849D01*
X0087687Y0020394D01*
X0088049Y0018649D02*
X0089249Y0017449D01*
X0089249Y0012649D01*
X0096449Y0012649D02*
X0106049Y0012649D01*
X0106449Y0012992D01*
X0107249Y0008449D02*
X0111449Y0012649D01*
X0112049Y0012649D01*
X0107249Y0008449D02*
X0099449Y0008449D01*
X0098449Y0007449D01*
X0107849Y0018649D02*
X0121649Y0018649D01*
X0122449Y0019449D01*
X0116249Y0021049D02*
X0122249Y0027049D01*
X0122449Y0027449D01*
X0117449Y0031249D02*
X0112649Y0026449D01*
X0112529Y0026050D01*
X0110249Y0025249D02*
X0109649Y0025849D01*
X0109649Y0026449D01*
X0118649Y0035449D01*
X0122449Y0035449D01*
X0117449Y0038449D02*
X0122449Y0043449D01*
X0122449Y0051449D02*
X0118049Y0055849D01*
X0118049Y0058849D01*
X0114449Y0062449D01*
X0115049Y0063049D01*
X0115049Y0064849D01*
X0115302Y0065075D01*
X0113075Y0067302D02*
X0113249Y0067849D01*
X0121049Y0067849D01*
X0122249Y0069049D01*
X0122449Y0069449D01*
X0122249Y0076249D02*
X0119249Y0076249D01*
X0112649Y0069649D01*
X0110849Y0069649D01*
X0110848Y0069529D01*
X0107368Y0066050D02*
X0107249Y0066049D01*
X0101249Y0066049D01*
X0097049Y0061849D01*
X0096595Y0061595D01*
X0098849Y0059449D02*
X0098822Y0059368D01*
X0098849Y0059449D02*
X0100649Y0061249D01*
X0105449Y0061249D01*
X0107849Y0063649D01*
X0109049Y0063649D01*
X0109595Y0063822D01*
X0111822Y0061595D02*
X0111449Y0061249D01*
X0107249Y0061249D01*
X0104849Y0058849D01*
X0102449Y0058849D01*
X0101249Y0057649D01*
X0101050Y0057141D01*
X0103277Y0054914D02*
X0103649Y0055249D01*
X0107249Y0058849D01*
X0113849Y0058849D01*
X0114050Y0059368D01*
X0112649Y0055849D02*
X0110249Y0055849D01*
X0107249Y0052849D01*
X0106049Y0052849D01*
X0105504Y0052687D01*
X0107249Y0050449D02*
X0107731Y0050460D01*
X0107249Y0050449D02*
X0103049Y0046249D01*
X0082049Y0067249D01*
X0080849Y0068449D01*
X0085049Y0072649D01*
X0085460Y0072731D01*
X0087687Y0070504D02*
X0088049Y0070849D01*
X0092849Y0075649D01*
X0095849Y0075649D01*
X0096368Y0076050D01*
X0095249Y0073249D02*
X0090449Y0068449D01*
X0089914Y0068277D01*
X0092249Y0066649D02*
X0092141Y0066050D01*
X0092249Y0066649D02*
X0093449Y0067849D01*
X0095849Y0067849D01*
X0099449Y0071449D01*
X0100649Y0071449D01*
X0100822Y0071595D01*
X0099449Y0069049D02*
X0094649Y0064249D01*
X0094368Y0063822D01*
X0099449Y0069049D02*
X0103049Y0069049D01*
X0103050Y0069368D01*
X0106529Y0072848D02*
X0106649Y0073249D01*
X0118649Y0085249D01*
X0118449Y0085449D01*
X0110449Y0085449D02*
X0104849Y0079849D01*
X0104849Y0075649D01*
X0104302Y0075075D01*
X0102449Y0077449D02*
X0102075Y0077302D01*
X0102449Y0077449D02*
X0102449Y0085449D01*
X0099449Y0081649D02*
X0095849Y0085249D01*
X0095449Y0085449D01*
X0099449Y0081649D02*
X0099449Y0079849D01*
X0099848Y0079529D01*
X0098595Y0073822D02*
X0098249Y0073249D01*
X0095249Y0073249D01*
X0085049Y0082849D02*
X0075449Y0073249D01*
X0075438Y0072731D01*
X0074849Y0070249D02*
X0076649Y0068449D01*
X0080849Y0068449D01*
X0074849Y0070249D02*
X0073649Y0070249D01*
X0073211Y0070504D01*
X0070984Y0068277D02*
X0070649Y0068449D01*
X0069449Y0068449D01*
X0063449Y0074449D01*
X0058049Y0074449D01*
X0059795Y0078449D02*
X0059849Y0078649D01*
X0073649Y0078649D01*
X0080449Y0085449D01*
X0070449Y0085449D02*
X0070049Y0085249D01*
X0044249Y0085249D01*
X0037649Y0078649D01*
X0037102Y0078449D01*
X0036449Y0072649D02*
X0051449Y0072649D01*
X0058049Y0066049D01*
X0058649Y0066049D01*
X0059849Y0066049D01*
X0064049Y0061849D01*
X0064302Y0061595D01*
X0062075Y0059368D02*
X0061649Y0059449D01*
X0057449Y0063649D01*
X0053249Y0063649D01*
X0055649Y0060049D02*
X0049049Y0060049D01*
X0048795Y0060449D01*
X0049049Y0060649D01*
X0049049Y0068449D01*
X0048795Y0068449D01*
X0045449Y0070849D02*
X0045449Y0061849D01*
X0043649Y0060049D01*
X0042102Y0060449D01*
X0041849Y0060049D01*
X0038249Y0056449D01*
X0032249Y0062449D01*
X0025649Y0062449D01*
X0022649Y0059449D01*
X0022102Y0059449D01*
X0022049Y0059449D01*
X0020249Y0061249D01*
X0019649Y0061249D01*
X0019049Y0061849D01*
X0019049Y0061249D01*
X0017849Y0060049D01*
X0019049Y0061849D02*
X0017849Y0063049D01*
X0017849Y0064249D01*
X0020849Y0067249D01*
X0022049Y0067249D01*
X0022102Y0067449D01*
X0023849Y0063649D02*
X0027449Y0067249D01*
X0028649Y0067249D01*
X0028795Y0067449D01*
X0031049Y0070849D02*
X0019649Y0070849D01*
X0013049Y0064249D01*
X0013049Y0036049D01*
X0015449Y0033649D01*
X0022049Y0033649D01*
X0023849Y0035449D01*
X0023849Y0037249D01*
X0024189Y0037330D01*
X0024449Y0037849D01*
X0026849Y0040249D01*
X0029849Y0040249D01*
X0032249Y0037849D01*
X0032709Y0037330D01*
X0032249Y0037249D01*
X0032249Y0033649D01*
X0037649Y0033649D01*
X0040049Y0036049D01*
X0040049Y0037249D01*
X0040189Y0037330D01*
X0036449Y0037330D02*
X0036449Y0038449D01*
X0038849Y0040849D01*
X0046649Y0040849D01*
X0057449Y0030049D01*
X0057449Y0028849D01*
X0057449Y0030049D02*
X0059249Y0030049D01*
X0060449Y0031249D01*
X0061649Y0031249D01*
X0062075Y0031529D01*
X0064302Y0029302D02*
X0064049Y0028849D01*
X0061649Y0026449D01*
X0031992Y0026449D01*
X0029249Y0029449D02*
X0029249Y0023449D01*
X0031649Y0021049D01*
X0031649Y0016849D01*
X0031992Y0016449D01*
X0025049Y0016849D02*
X0025049Y0022849D01*
X0007649Y0022849D01*
X0007449Y0022449D01*
X0007049Y0022849D01*
X0007049Y0027049D01*
X0007049Y0045049D01*
X0005249Y0046849D01*
X0005249Y0056449D01*
X0011849Y0063049D01*
X0011849Y0066049D01*
X0016049Y0070249D01*
X0016049Y0081649D01*
X0014249Y0081649D01*
X0013992Y0081449D01*
X0016049Y0081649D02*
X0020849Y0081649D01*
X0020906Y0081449D01*
X0021449Y0081049D01*
X0022649Y0081049D01*
X0032249Y0071449D01*
X0044849Y0071449D01*
X0045449Y0070849D01*
X0042102Y0068449D02*
X0037649Y0068449D01*
X0033449Y0068449D01*
X0031049Y0070849D01*
X0036449Y0072649D02*
X0028049Y0081049D01*
X0027992Y0081449D01*
X0014849Y0073249D02*
X0014849Y0070849D01*
X0009449Y0065449D01*
X0007449Y0065449D01*
X0009449Y0071449D02*
X0007449Y0073449D01*
X0009449Y0071449D02*
X0012449Y0071449D01*
X0014849Y0073249D02*
X0011849Y0076249D01*
X0012449Y0076249D01*
X0011849Y0076249D02*
X0007049Y0081049D01*
X0006906Y0081449D01*
X0015449Y0062449D02*
X0014249Y0061249D01*
X0014249Y0045049D01*
X0015449Y0043849D01*
X0017849Y0043849D01*
X0021449Y0047449D01*
X0023849Y0047449D01*
X0024189Y0047567D01*
X0020849Y0042649D02*
X0050849Y0042649D01*
X0052649Y0040849D01*
X0053167Y0040438D01*
X0055394Y0038211D02*
X0055649Y0038449D01*
X0056849Y0038449D01*
X0061649Y0043249D01*
X0062849Y0043249D01*
X0068249Y0037849D01*
X0068249Y0028849D01*
X0067049Y0027649D01*
X0066529Y0027075D01*
X0068849Y0025249D02*
X0068756Y0024848D01*
X0068849Y0025249D02*
X0070649Y0025249D01*
X0075449Y0030049D01*
X0077849Y0030049D01*
X0079049Y0028849D01*
X0082049Y0028849D02*
X0073649Y0020449D01*
X0073211Y0020394D01*
X0075449Y0018649D02*
X0075438Y0018167D01*
X0075449Y0018649D02*
X0080849Y0024049D01*
X0076049Y0027649D02*
X0071249Y0022849D01*
X0070984Y0022621D01*
X0061049Y0020449D02*
X0059249Y0018649D01*
X0059249Y0012649D01*
X0064449Y0007449D01*
X0052049Y0011449D02*
X0048449Y0007849D01*
X0048449Y0007449D01*
X0052049Y0011449D02*
X0052049Y0024049D01*
X0053849Y0030649D02*
X0046049Y0038449D01*
X0044249Y0038449D01*
X0036449Y0038449D02*
X0033449Y0041449D01*
X0023249Y0041449D01*
X0020849Y0039049D01*
X0020849Y0037849D01*
X0020449Y0037330D01*
X0017249Y0037849D02*
X0017249Y0039049D01*
X0020849Y0042649D01*
X0016709Y0047567D02*
X0017249Y0048049D01*
X0028649Y0059449D01*
X0028795Y0059449D01*
X0023849Y0063649D02*
X0020249Y0063649D01*
X0007649Y0054049D02*
X0007649Y0046249D01*
X0010649Y0043249D01*
X0010649Y0035449D01*
X0013649Y0032449D01*
X0029249Y0032449D01*
X0029249Y0037849D01*
X0032249Y0033649D02*
X0032249Y0032449D01*
X0029249Y0029449D01*
X0025049Y0026449D02*
X0024906Y0026449D01*
X0025049Y0026449D02*
X0025049Y0022849D01*
X0025049Y0016849D02*
X0024906Y0016449D01*
X0016709Y0037330D02*
X0017249Y0037849D01*
X0032709Y0047567D02*
X0032849Y0048049D01*
X0035849Y0048049D01*
X0038849Y0051049D01*
X0052649Y0051049D01*
X0053167Y0050460D01*
X0053249Y0050449D01*
X0053249Y0046249D01*
X0059249Y0043849D02*
X0059249Y0051649D01*
X0058049Y0052849D01*
X0058049Y0054649D01*
X0057621Y0054914D01*
X0058049Y0057649D02*
X0055649Y0060049D01*
X0058049Y0057649D02*
X0059249Y0057649D01*
X0059848Y0057141D01*
X0055394Y0052687D02*
X0055049Y0052849D01*
X0053249Y0054649D01*
X0049049Y0054649D01*
X0043649Y0060049D01*
X0042449Y0060049D01*
X0042102Y0060449D01*
X0038249Y0056449D02*
X0036449Y0054649D01*
X0036449Y0051649D01*
X0036449Y0037849D02*
X0036449Y0037330D01*
X0057449Y0036049D02*
X0057621Y0035984D01*
X0057449Y0036049D02*
X0062249Y0040849D01*
X0062849Y0037849D02*
X0059249Y0034249D01*
X0059848Y0033756D01*
X0066449Y0047449D02*
X0089849Y0024049D01*
X0089849Y0022849D01*
X0089914Y0022621D01*
X0091649Y0025249D02*
X0091649Y0027049D01*
X0090449Y0028249D01*
X0090449Y0033649D01*
X0103049Y0046249D01*
X0105504Y0038211D02*
X0106049Y0037849D01*
X0109049Y0034849D01*
X0109049Y0030049D01*
X0109050Y0029529D01*
X0106649Y0028849D02*
X0104849Y0030649D01*
X0104849Y0034249D01*
X0103649Y0035449D01*
X0103277Y0035984D01*
X0101249Y0033649D02*
X0101050Y0033756D01*
X0101249Y0033649D02*
X0101249Y0032449D01*
X0104249Y0029449D01*
X0104249Y0025249D01*
X0104595Y0025075D01*
X0102368Y0022848D02*
X0101849Y0022849D01*
X0101849Y0028249D01*
X0098849Y0031249D01*
X0098822Y0031529D01*
X0106649Y0028849D02*
X0106649Y0027649D01*
X0106822Y0027302D01*
X0110249Y0025249D02*
X0110249Y0024049D01*
X0110302Y0023822D01*
X0108075Y0021595D02*
X0108449Y0021049D01*
X0116249Y0021049D01*
X0107849Y0018649D02*
X0107249Y0019249D01*
X0106049Y0019249D01*
X0105848Y0019368D01*
X0092141Y0024848D02*
X0091649Y0025249D01*
X0122249Y0058249D02*
X0122449Y0058449D01*
X0122249Y0058249D02*
X0118049Y0062449D01*
X0117529Y0062848D01*
X0122249Y0076249D02*
X0122449Y0076449D01*
X0068756Y0066050D02*
X0068249Y0066649D01*
X0067049Y0067849D01*
X0061649Y0067849D01*
X0053249Y0076249D01*
X0053249Y0078049D01*
X0053102Y0078449D01*
X0047849Y0078049D02*
X0057449Y0068449D01*
X0059249Y0068449D01*
X0062249Y0065449D01*
X0065249Y0065449D01*
X0066449Y0064249D01*
X0066529Y0063822D01*
X0047849Y0078049D02*
X0044249Y0078049D01*
X0043795Y0078449D01*
D22*
X0037649Y0068449D03*
X0053249Y0063649D03*
X0058649Y0066049D03*
X0058049Y0074449D03*
X0082049Y0067249D03*
X0085049Y0082849D03*
X0112649Y0055849D03*
X0117449Y0038449D03*
X0117449Y0031249D03*
X0118049Y0009049D03*
X0080849Y0024049D03*
X0076049Y0027649D03*
X0079049Y0028849D03*
X0082049Y0028849D03*
X0062849Y0037849D03*
X0062249Y0040849D03*
X0059249Y0043849D03*
X0066449Y0047449D03*
X0053249Y0046249D03*
X0044249Y0038449D03*
X0053849Y0030649D03*
X0057449Y0028849D03*
X0052049Y0024049D03*
X0061649Y0018049D03*
X0029249Y0032449D03*
X0029249Y0037849D03*
X0013049Y0036049D03*
X0007049Y0027049D03*
X0007649Y0054049D03*
X0015449Y0062449D03*
X0017849Y0060049D03*
X0020249Y0063649D03*
X0012449Y0071449D03*
X0012449Y0076249D03*
X0036449Y0051649D03*
M02*
