G75*
%MOIN*%
%OFA0B0*%
%FSLAX25Y25*%
%IPPOS*%
%LPD*%
%AMOC8*
5,1,8,0,0,1.08239X$1,22.5*
%
%ADD10C,0.00000*%
%ADD11C,0.01200*%
%ADD12R,0.04331X0.03937*%
%ADD13R,0.06000X0.05000*%
%ADD14R,0.05000X0.06000*%
%ADD15R,0.03150X0.04724*%
%ADD16R,0.01969X0.02559*%
%ADD17R,0.05906X0.01969*%
%ADD18R,0.01969X0.05906*%
%ADD19R,0.02165X0.04724*%
%ADD20C,0.01772*%
%ADD21C,0.01000*%
%ADD22C,0.00600*%
%ADD23C,0.02400*%
D10*
X0003449Y0076076D02*
X0003449Y0319461D01*
X0389150Y0319461D01*
X0389150Y0004500D01*
X0123131Y0004500D01*
D11*
X0003449Y0004500D02*
X0003449Y0076076D01*
X0123131Y0076076D01*
X0123131Y0004500D01*
X0003449Y0004500D01*
D12*
X0034102Y0053500D03*
X0035102Y0059500D03*
X0041795Y0059500D03*
X0040795Y0053500D03*
X0038102Y0065500D03*
X0044795Y0065500D03*
X0047102Y0073500D03*
X0053795Y0073500D03*
X0025795Y0060500D03*
X0025795Y0054500D03*
X0019102Y0054500D03*
X0019102Y0060500D03*
X0083102Y0007500D03*
X0089795Y0007500D03*
D13*
X0119449Y0008500D03*
X0119449Y0015500D03*
X0119449Y0022500D03*
X0119449Y0029500D03*
X0119449Y0038500D03*
X0119449Y0045500D03*
X0119449Y0057500D03*
X0119449Y0064500D03*
X0007449Y0063500D03*
X0007449Y0054500D03*
X0007449Y0022500D03*
X0007449Y0013500D03*
D14*
X0054449Y0008500D03*
X0074555Y0008288D03*
X0061449Y0072500D03*
X0038449Y0072500D03*
X0089449Y0072500D03*
X0105449Y0072500D03*
X0112449Y0072500D03*
X0119449Y0072500D03*
D15*
X0029992Y0072500D03*
X0022906Y0072500D03*
X0015992Y0072500D03*
X0008906Y0072500D03*
X0021906Y0015500D03*
X0021906Y0008500D03*
X0028992Y0008500D03*
X0028992Y0015500D03*
D16*
G36*
X0093414Y0064882D02*
X0092022Y0066274D01*
X0093830Y0068082D01*
X0095222Y0066690D01*
X0093414Y0064882D01*
G37*
G36*
X0095641Y0062655D02*
X0094249Y0064047D01*
X0096057Y0065855D01*
X0097449Y0064463D01*
X0095641Y0062655D01*
G37*
G36*
X0097869Y0060428D02*
X0096477Y0061820D01*
X0098285Y0063628D01*
X0099677Y0062236D01*
X0097869Y0060428D01*
G37*
G36*
X0100096Y0058201D02*
X0098704Y0059593D01*
X0100512Y0061401D01*
X0101904Y0060009D01*
X0100096Y0058201D01*
G37*
G36*
X0103287Y0054501D02*
X0101895Y0055893D01*
X0103703Y0057701D01*
X0105095Y0056309D01*
X0103287Y0054501D01*
G37*
G36*
X0105514Y0052274D02*
X0104122Y0053666D01*
X0105930Y0055474D01*
X0107322Y0054082D01*
X0105514Y0052274D01*
G37*
G36*
X0107741Y0050047D02*
X0106349Y0051439D01*
X0108157Y0053247D01*
X0109549Y0051855D01*
X0107741Y0050047D01*
G37*
G36*
X0109969Y0047819D02*
X0108577Y0049211D01*
X0110385Y0051019D01*
X0111777Y0049627D01*
X0109969Y0047819D01*
G37*
G36*
X0113448Y0051299D02*
X0112056Y0052691D01*
X0113864Y0054499D01*
X0115256Y0053107D01*
X0113448Y0051299D01*
G37*
G36*
X0111221Y0053526D02*
X0109829Y0054918D01*
X0111637Y0056726D01*
X0113029Y0055334D01*
X0111221Y0053526D01*
G37*
G36*
X0108994Y0055753D02*
X0107602Y0057145D01*
X0109410Y0058953D01*
X0110802Y0057561D01*
X0108994Y0055753D01*
G37*
G36*
X0106767Y0057981D02*
X0105375Y0059373D01*
X0107183Y0061181D01*
X0108575Y0059789D01*
X0106767Y0057981D01*
G37*
G36*
X0103576Y0061680D02*
X0102184Y0063072D01*
X0103992Y0064880D01*
X0105384Y0063488D01*
X0103576Y0061680D01*
G37*
G36*
X0101348Y0063908D02*
X0099956Y0065300D01*
X0101764Y0067108D01*
X0103156Y0065716D01*
X0101348Y0063908D01*
G37*
G36*
X0099121Y0066135D02*
X0097729Y0067527D01*
X0099537Y0069335D01*
X0100929Y0067943D01*
X0099121Y0066135D01*
G37*
G36*
X0096894Y0068362D02*
X0095502Y0069754D01*
X0097310Y0071562D01*
X0098702Y0070170D01*
X0096894Y0068362D01*
G37*
G36*
X0105450Y0029789D02*
X0106842Y0031181D01*
X0108650Y0029373D01*
X0107258Y0027981D01*
X0105450Y0029789D01*
G37*
G36*
X0103222Y0027561D02*
X0104614Y0028953D01*
X0106422Y0027145D01*
X0105030Y0025753D01*
X0103222Y0027561D01*
G37*
G36*
X0100995Y0025334D02*
X0102387Y0026726D01*
X0104195Y0024918D01*
X0102803Y0023526D01*
X0100995Y0025334D01*
G37*
G36*
X0098768Y0023107D02*
X0100160Y0024499D01*
X0101968Y0022691D01*
X0100576Y0021299D01*
X0098768Y0023107D01*
G37*
G36*
X0102248Y0019627D02*
X0103640Y0021019D01*
X0105448Y0019211D01*
X0104056Y0017819D01*
X0102248Y0019627D01*
G37*
G36*
X0104475Y0021855D02*
X0105867Y0023247D01*
X0107675Y0021439D01*
X0106283Y0020047D01*
X0104475Y0021855D01*
G37*
G36*
X0106702Y0024082D02*
X0108094Y0025474D01*
X0109902Y0023666D01*
X0108510Y0022274D01*
X0106702Y0024082D01*
G37*
G36*
X0108929Y0026309D02*
X0110321Y0027701D01*
X0112129Y0025893D01*
X0110737Y0024501D01*
X0108929Y0026309D01*
G37*
D17*
G36*
X0104514Y0047903D02*
X0100339Y0043728D01*
X0098948Y0045119D01*
X0103123Y0049294D01*
X0104514Y0047903D01*
G37*
G36*
X0102287Y0050130D02*
X0098112Y0045955D01*
X0096721Y0047346D01*
X0100896Y0051521D01*
X0102287Y0050130D01*
G37*
G36*
X0100060Y0052357D02*
X0095885Y0048182D01*
X0094494Y0049573D01*
X0098669Y0053748D01*
X0100060Y0052357D01*
G37*
G36*
X0097833Y0054584D02*
X0093658Y0050409D01*
X0092267Y0051800D01*
X0096442Y0055975D01*
X0097833Y0054584D01*
G37*
G36*
X0095605Y0056811D02*
X0091430Y0052636D01*
X0090039Y0054027D01*
X0094214Y0058202D01*
X0095605Y0056811D01*
G37*
G36*
X0093378Y0059039D02*
X0089203Y0054864D01*
X0087812Y0056255D01*
X0091987Y0060430D01*
X0093378Y0059039D01*
G37*
G36*
X0091151Y0061266D02*
X0086976Y0057091D01*
X0085585Y0058482D01*
X0089760Y0062657D01*
X0091151Y0061266D01*
G37*
G36*
X0088924Y0063493D02*
X0084749Y0059318D01*
X0083358Y0060709D01*
X0087533Y0064884D01*
X0088924Y0063493D01*
G37*
G36*
X0086697Y0065720D02*
X0082522Y0061545D01*
X0081131Y0062936D01*
X0085306Y0067111D01*
X0086697Y0065720D01*
G37*
G36*
X0084470Y0067947D02*
X0080295Y0063772D01*
X0078904Y0065163D01*
X0083079Y0069338D01*
X0084470Y0067947D01*
G37*
G36*
X0082243Y0070174D02*
X0078068Y0065999D01*
X0076677Y0067390D01*
X0080852Y0071565D01*
X0082243Y0070174D01*
G37*
G36*
X0049950Y0037881D02*
X0045775Y0033706D01*
X0044384Y0035097D01*
X0048559Y0039272D01*
X0049950Y0037881D01*
G37*
G36*
X0052177Y0035654D02*
X0048002Y0031479D01*
X0046611Y0032870D01*
X0050786Y0037045D01*
X0052177Y0035654D01*
G37*
G36*
X0054404Y0033427D02*
X0050229Y0029252D01*
X0048838Y0030643D01*
X0053013Y0034818D01*
X0054404Y0033427D01*
G37*
G36*
X0056631Y0031200D02*
X0052456Y0027025D01*
X0051065Y0028416D01*
X0055240Y0032591D01*
X0056631Y0031200D01*
G37*
G36*
X0058858Y0028973D02*
X0054683Y0024798D01*
X0053292Y0026189D01*
X0057467Y0030364D01*
X0058858Y0028973D01*
G37*
G36*
X0061085Y0026745D02*
X0056910Y0022570D01*
X0055519Y0023961D01*
X0059694Y0028136D01*
X0061085Y0026745D01*
G37*
G36*
X0063312Y0024518D02*
X0059137Y0020343D01*
X0057746Y0021734D01*
X0061921Y0025909D01*
X0063312Y0024518D01*
G37*
G36*
X0065539Y0022291D02*
X0061364Y0018116D01*
X0059973Y0019507D01*
X0064148Y0023682D01*
X0065539Y0022291D01*
G37*
G36*
X0067767Y0020064D02*
X0063592Y0015889D01*
X0062201Y0017280D01*
X0066376Y0021455D01*
X0067767Y0020064D01*
G37*
G36*
X0069994Y0017837D02*
X0065819Y0013662D01*
X0064428Y0015053D01*
X0068603Y0019228D01*
X0069994Y0017837D01*
G37*
G36*
X0072221Y0015610D02*
X0068046Y0011435D01*
X0066655Y0012826D01*
X0070830Y0017001D01*
X0072221Y0015610D01*
G37*
D18*
G36*
X0082243Y0012826D02*
X0080852Y0011435D01*
X0076677Y0015610D01*
X0078068Y0017001D01*
X0082243Y0012826D01*
G37*
G36*
X0084470Y0015053D02*
X0083079Y0013662D01*
X0078904Y0017837D01*
X0080295Y0019228D01*
X0084470Y0015053D01*
G37*
G36*
X0086697Y0017280D02*
X0085306Y0015889D01*
X0081131Y0020064D01*
X0082522Y0021455D01*
X0086697Y0017280D01*
G37*
G36*
X0088924Y0019507D02*
X0087533Y0018116D01*
X0083358Y0022291D01*
X0084749Y0023682D01*
X0088924Y0019507D01*
G37*
G36*
X0091151Y0021734D02*
X0089760Y0020343D01*
X0085585Y0024518D01*
X0086976Y0025909D01*
X0091151Y0021734D01*
G37*
G36*
X0093378Y0023961D02*
X0091987Y0022570D01*
X0087812Y0026745D01*
X0089203Y0028136D01*
X0093378Y0023961D01*
G37*
G36*
X0095605Y0026189D02*
X0094214Y0024798D01*
X0090039Y0028973D01*
X0091430Y0030364D01*
X0095605Y0026189D01*
G37*
G36*
X0097833Y0028416D02*
X0096442Y0027025D01*
X0092267Y0031200D01*
X0093658Y0032591D01*
X0097833Y0028416D01*
G37*
G36*
X0100060Y0030643D02*
X0098669Y0029252D01*
X0094494Y0033427D01*
X0095885Y0034818D01*
X0100060Y0030643D01*
G37*
G36*
X0102287Y0032870D02*
X0100896Y0031479D01*
X0096721Y0035654D01*
X0098112Y0037045D01*
X0102287Y0032870D01*
G37*
G36*
X0104514Y0035097D02*
X0103123Y0033706D01*
X0098948Y0037881D01*
X0100339Y0039272D01*
X0104514Y0035097D01*
G37*
G36*
X0069994Y0065163D02*
X0068603Y0063772D01*
X0064428Y0067947D01*
X0065819Y0069338D01*
X0069994Y0065163D01*
G37*
G36*
X0072221Y0067390D02*
X0070830Y0065999D01*
X0066655Y0070174D01*
X0068046Y0071565D01*
X0072221Y0067390D01*
G37*
G36*
X0067767Y0062936D02*
X0066376Y0061545D01*
X0062201Y0065720D01*
X0063592Y0067111D01*
X0067767Y0062936D01*
G37*
G36*
X0065539Y0060709D02*
X0064148Y0059318D01*
X0059973Y0063493D01*
X0061364Y0064884D01*
X0065539Y0060709D01*
G37*
G36*
X0063312Y0058482D02*
X0061921Y0057091D01*
X0057746Y0061266D01*
X0059137Y0062657D01*
X0063312Y0058482D01*
G37*
G36*
X0061085Y0056255D02*
X0059694Y0054864D01*
X0055519Y0059039D01*
X0056910Y0060430D01*
X0061085Y0056255D01*
G37*
G36*
X0058858Y0054027D02*
X0057467Y0052636D01*
X0053292Y0056811D01*
X0054683Y0058202D01*
X0058858Y0054027D01*
G37*
G36*
X0056631Y0051800D02*
X0055240Y0050409D01*
X0051065Y0054584D01*
X0052456Y0055975D01*
X0056631Y0051800D01*
G37*
G36*
X0054404Y0049573D02*
X0053013Y0048182D01*
X0048838Y0052357D01*
X0050229Y0053748D01*
X0054404Y0049573D01*
G37*
G36*
X0052177Y0047346D02*
X0050786Y0045955D01*
X0046611Y0050130D01*
X0048002Y0051521D01*
X0052177Y0047346D01*
G37*
G36*
X0049950Y0045119D02*
X0048559Y0043728D01*
X0044384Y0047903D01*
X0045775Y0049294D01*
X0049950Y0045119D01*
G37*
D19*
X0037189Y0037619D03*
X0029709Y0037619D03*
X0022189Y0037619D03*
X0014709Y0037619D03*
X0014709Y0027381D03*
X0018449Y0027381D03*
X0022189Y0027381D03*
X0029709Y0027381D03*
X0033449Y0027381D03*
X0037189Y0027381D03*
D20*
X0096724Y0012364D02*
X0096724Y0006636D01*
X0101449Y0006636D02*
X0101449Y0012364D01*
X0106173Y0012364D02*
X0106173Y0006636D01*
D21*
X0106173Y0005500D02*
X0106173Y0009500D01*
X0106173Y0013500D01*
X0101449Y0013500D02*
X0101449Y0009500D01*
X0101449Y0005500D01*
X0096724Y0005500D02*
X0096724Y0009500D01*
X0096724Y0013500D01*
D22*
X0096249Y0013500D02*
X0096724Y0009500D01*
X0089795Y0007500D02*
X0089649Y0007500D01*
X0089649Y0012900D01*
X0084249Y0018300D01*
X0083914Y0018672D01*
X0083649Y0018900D01*
X0078249Y0024300D01*
X0078249Y0044100D01*
X0078249Y0058500D01*
X0077049Y0059700D01*
X0078249Y0060900D01*
X0077049Y0059700D02*
X0069849Y0066900D01*
X0069849Y0068700D01*
X0069438Y0068782D01*
X0066849Y0068700D02*
X0065649Y0069900D01*
X0065649Y0070500D01*
X0068049Y0072900D01*
X0071649Y0072900D01*
X0077649Y0066900D01*
X0079460Y0068782D01*
X0079449Y0068700D01*
X0077649Y0066900D01*
X0077649Y0065100D01*
X0080649Y0062100D01*
X0080649Y0060300D01*
X0079449Y0059100D01*
X0079449Y0055500D01*
X0080649Y0054300D01*
X0080649Y0030300D01*
X0080649Y0027900D01*
X0086049Y0022500D01*
X0086049Y0021300D01*
X0086141Y0020899D01*
X0088449Y0021300D02*
X0096249Y0013500D01*
X0101049Y0013500D02*
X0101049Y0017700D01*
X0096849Y0021900D01*
X0098649Y0023100D02*
X0094449Y0027300D01*
X0093249Y0027300D01*
X0092822Y0027581D01*
X0090249Y0027300D02*
X0089049Y0028500D01*
X0089049Y0030900D01*
X0090849Y0032700D01*
X0095049Y0031500D02*
X0081849Y0044700D01*
X0081849Y0056100D01*
X0084849Y0056100D02*
X0088449Y0059700D01*
X0088368Y0059874D01*
X0086141Y0062101D02*
X0086649Y0062700D01*
X0087849Y0063900D01*
X0090249Y0063900D01*
X0092649Y0061500D01*
X0098049Y0061500D01*
X0098077Y0062028D01*
X0100449Y0060300D02*
X0100304Y0059801D01*
X0100449Y0060300D02*
X0104649Y0060300D01*
X0106449Y0062100D01*
X0108849Y0062100D01*
X0107049Y0063300D02*
X0111849Y0068100D01*
X0114849Y0068100D01*
X0119049Y0072300D01*
X0119449Y0072500D01*
X0112449Y0072500D02*
X0112449Y0072300D01*
X0108249Y0068100D01*
X0105849Y0068100D01*
X0103449Y0065700D01*
X0101649Y0065700D01*
X0101556Y0065508D01*
X0101049Y0068100D02*
X0105449Y0072500D01*
X0101049Y0068100D02*
X0099849Y0068100D01*
X0099329Y0067735D01*
X0097102Y0069962D02*
X0096849Y0070500D01*
X0091449Y0070500D01*
X0089449Y0072500D01*
X0089649Y0068100D02*
X0083049Y0068100D01*
X0081849Y0066900D01*
X0081687Y0066555D01*
X0083914Y0064328D02*
X0084249Y0064500D01*
X0086049Y0066300D01*
X0089649Y0066300D01*
X0092049Y0063900D01*
X0095649Y0063900D01*
X0095849Y0064255D01*
X0093622Y0066482D02*
X0093249Y0066900D01*
X0090849Y0066900D01*
X0089649Y0068100D01*
X0092649Y0059700D02*
X0090595Y0057647D01*
X0092649Y0059700D02*
X0096249Y0059700D01*
X0099249Y0056700D01*
X0103449Y0056700D01*
X0103495Y0056101D01*
X0104049Y0053700D02*
X0103449Y0053100D01*
X0101049Y0053100D01*
X0096849Y0057300D01*
X0095049Y0057300D01*
X0093249Y0055500D01*
X0092822Y0055419D01*
X0095050Y0053192D02*
X0095049Y0053100D01*
X0091449Y0049500D01*
X0091449Y0048300D01*
X0090849Y0048300D01*
X0091449Y0048300D02*
X0091449Y0043500D01*
X0094449Y0040500D01*
X0097449Y0040500D01*
X0098649Y0041700D01*
X0099849Y0041700D01*
X0107649Y0049500D01*
X0107649Y0051300D01*
X0107949Y0051647D01*
X0105722Y0053874D02*
X0105249Y0053700D01*
X0104049Y0053700D01*
X0106449Y0056700D02*
X0113049Y0050100D01*
X0113049Y0048300D01*
X0114249Y0050700D02*
X0114249Y0052500D01*
X0113656Y0052899D01*
X0114249Y0050700D02*
X0119449Y0045500D01*
X0114249Y0043500D02*
X0119049Y0038700D01*
X0119449Y0038500D01*
X0119449Y0029500D02*
X0116649Y0026700D01*
X0110649Y0026700D01*
X0110529Y0026101D01*
X0110049Y0023700D02*
X0108849Y0023700D01*
X0108302Y0023874D01*
X0110049Y0023700D02*
X0111249Y0022500D01*
X0119449Y0022500D01*
X0113649Y0021300D02*
X0119449Y0015500D01*
X0119049Y0008700D02*
X0119449Y0008500D01*
X0119049Y0008700D02*
X0108849Y0018900D01*
X0104049Y0018900D01*
X0103848Y0019419D01*
X0101049Y0019500D02*
X0105849Y0014700D01*
X0105849Y0013500D01*
X0106173Y0009500D01*
X0101449Y0009500D02*
X0101049Y0013500D01*
X0101049Y0019500D02*
X0101049Y0020100D01*
X0110049Y0029100D01*
X0110049Y0030900D01*
X0100449Y0040500D01*
X0099849Y0040500D01*
X0095649Y0036300D01*
X0094449Y0036300D01*
X0099504Y0034262D02*
X0099849Y0033900D01*
X0101049Y0033900D01*
X0105249Y0029700D01*
X0107049Y0029700D01*
X0107050Y0029581D01*
X0104649Y0027900D02*
X0104822Y0027353D01*
X0104649Y0027900D02*
X0101049Y0027900D01*
X0097449Y0031500D01*
X0097277Y0032035D01*
X0095049Y0031500D02*
X0095049Y0030300D01*
X0095050Y0029808D01*
X0095649Y0029700D01*
X0099849Y0025500D01*
X0102249Y0025500D01*
X0102595Y0025126D01*
X0100368Y0022899D02*
X0099849Y0023100D01*
X0098649Y0023100D01*
X0106075Y0021647D02*
X0106449Y0021300D01*
X0113649Y0021300D01*
X0090595Y0025353D02*
X0090249Y0025500D01*
X0090249Y0027300D01*
X0088449Y0023100D02*
X0088368Y0023126D01*
X0088449Y0023100D02*
X0088449Y0021300D01*
X0081687Y0016445D02*
X0081849Y0015900D01*
X0081849Y0014700D01*
X0083649Y0012900D01*
X0083649Y0007500D01*
X0083102Y0007500D01*
X0075249Y0007500D01*
X0074649Y0008100D01*
X0074555Y0008288D01*
X0072249Y0014100D02*
X0066849Y0008700D01*
X0054849Y0008700D01*
X0054449Y0008500D01*
X0048849Y0015900D02*
X0058302Y0025353D01*
X0060849Y0024900D02*
X0062049Y0026100D01*
X0062049Y0028500D01*
X0060849Y0024900D02*
X0060849Y0023700D01*
X0060529Y0023126D01*
X0062756Y0020899D02*
X0063249Y0021300D01*
X0064449Y0021300D01*
X0068649Y0025500D01*
X0068649Y0022500D02*
X0065049Y0018900D01*
X0064984Y0018672D01*
X0067449Y0018300D02*
X0072849Y0023700D01*
X0072849Y0024900D01*
X0075849Y0026100D02*
X0075849Y0021900D01*
X0069849Y0015900D01*
X0069849Y0014700D01*
X0069438Y0014218D01*
X0072249Y0014100D02*
X0079449Y0014100D01*
X0079460Y0014218D01*
X0067449Y0016500D02*
X0067211Y0016445D01*
X0067449Y0016500D02*
X0067449Y0018300D01*
X0056649Y0027900D02*
X0056075Y0027581D01*
X0056049Y0027300D01*
X0054249Y0027300D01*
X0050049Y0023100D01*
X0036249Y0023100D01*
X0033249Y0026100D01*
X0033449Y0027381D01*
X0033249Y0027300D01*
X0033249Y0026100D01*
X0022449Y0015300D01*
X0021906Y0015500D01*
X0021849Y0013500D01*
X0007449Y0013500D01*
X0011649Y0018300D02*
X0017649Y0018300D01*
X0018849Y0020100D02*
X0021849Y0017100D01*
X0021849Y0015900D01*
X0021906Y0015500D01*
X0021849Y0015300D01*
X0021849Y0013500D01*
X0021849Y0008700D01*
X0021906Y0008500D01*
X0025449Y0008700D02*
X0028449Y0008700D01*
X0028992Y0008500D01*
X0028992Y0015500D02*
X0029049Y0015900D01*
X0048849Y0015900D01*
X0049449Y0025500D02*
X0044049Y0025500D01*
X0047649Y0027900D02*
X0051249Y0031500D01*
X0051621Y0032035D01*
X0053649Y0029700D02*
X0053848Y0029808D01*
X0053649Y0029700D02*
X0049449Y0025500D01*
X0056649Y0027900D02*
X0069249Y0040500D01*
X0069249Y0063300D01*
X0067449Y0065100D01*
X0067449Y0066300D01*
X0067211Y0066555D01*
X0066849Y0066900D01*
X0066849Y0068700D01*
X0064984Y0064328D02*
X0064449Y0064500D01*
X0063249Y0064500D01*
X0059649Y0068100D01*
X0056649Y0068100D01*
X0055449Y0069300D01*
X0054849Y0066300D02*
X0059049Y0066300D01*
X0062649Y0062700D01*
X0062756Y0062101D01*
X0060249Y0060300D02*
X0060529Y0059874D01*
X0060249Y0060300D02*
X0055449Y0065100D01*
X0045249Y0065100D01*
X0044795Y0065500D01*
X0046449Y0059100D02*
X0042249Y0059100D01*
X0041795Y0059500D01*
X0041649Y0059100D01*
X0040449Y0059100D01*
X0037449Y0056100D01*
X0036849Y0056100D01*
X0034449Y0053700D01*
X0034102Y0053500D01*
X0029649Y0054900D02*
X0029649Y0042300D01*
X0029649Y0038100D02*
X0025449Y0042300D01*
X0023649Y0042300D01*
X0022189Y0037619D02*
X0021849Y0037500D01*
X0018249Y0033900D01*
X0012249Y0033900D01*
X0009849Y0037500D02*
X0009849Y0027300D01*
X0013449Y0023700D01*
X0018849Y0023700D01*
X0018849Y0027300D01*
X0018449Y0027381D01*
X0015249Y0027900D02*
X0015249Y0029100D01*
X0018849Y0032700D01*
X0043449Y0032700D01*
X0047049Y0036300D01*
X0047167Y0036489D01*
X0049449Y0034500D02*
X0049394Y0034262D01*
X0051249Y0036300D01*
X0054249Y0036300D01*
X0051249Y0036300D02*
X0049449Y0034500D01*
X0051249Y0036300D02*
X0051249Y0038100D01*
X0048849Y0040500D01*
X0048249Y0040500D01*
X0041649Y0033900D01*
X0028449Y0033900D01*
X0024849Y0037500D01*
X0022449Y0037500D01*
X0022189Y0037619D01*
X0015249Y0038100D02*
X0014709Y0037619D01*
X0015249Y0038100D02*
X0025449Y0048300D01*
X0025449Y0054300D01*
X0025795Y0054500D01*
X0029649Y0054900D02*
X0033849Y0059100D01*
X0035049Y0059100D01*
X0035102Y0059500D01*
X0038102Y0065500D02*
X0038049Y0065700D01*
X0038049Y0072300D01*
X0038449Y0072500D01*
X0029992Y0072500D02*
X0029649Y0072300D01*
X0029049Y0071700D01*
X0029049Y0066300D01*
X0026049Y0066300D02*
X0026049Y0060900D01*
X0025795Y0060500D01*
X0019449Y0060300D02*
X0019449Y0054900D01*
X0019102Y0054500D01*
X0018849Y0054300D01*
X0018849Y0046500D01*
X0009849Y0037500D01*
X0015249Y0046500D02*
X0015849Y0046500D01*
X0015249Y0046500D02*
X0007449Y0054300D01*
X0007449Y0054500D01*
X0007449Y0054900D01*
X0014649Y0062100D01*
X0014649Y0066900D01*
X0009249Y0072300D01*
X0008906Y0072500D01*
X0009849Y0066300D02*
X0007449Y0063900D01*
X0007449Y0063500D01*
X0009849Y0066300D02*
X0012249Y0066300D01*
X0019102Y0060500D02*
X0019449Y0060900D01*
X0019449Y0072900D01*
X0016449Y0072900D01*
X0015992Y0072500D01*
X0019449Y0072900D02*
X0022449Y0072900D01*
X0022906Y0072500D01*
X0019102Y0060500D02*
X0019449Y0060300D01*
X0040795Y0053500D02*
X0041049Y0053100D01*
X0044649Y0053100D01*
X0045249Y0053700D01*
X0044649Y0053100D02*
X0048849Y0048900D01*
X0049394Y0048738D01*
X0051849Y0050700D02*
X0051621Y0050965D01*
X0051849Y0050700D02*
X0053649Y0048900D01*
X0053649Y0047100D01*
X0048849Y0042300D01*
X0047049Y0042300D01*
X0044649Y0044700D02*
X0044649Y0046500D01*
X0041049Y0046500D01*
X0032649Y0038100D01*
X0030249Y0038100D01*
X0029709Y0037619D01*
X0029649Y0038100D01*
X0032049Y0030900D02*
X0029049Y0027900D01*
X0029709Y0027381D01*
X0029649Y0027900D01*
X0029049Y0027900D01*
X0022449Y0027900D01*
X0022189Y0027381D01*
X0022449Y0027300D01*
X0022449Y0022500D01*
X0018849Y0023700D02*
X0018849Y0020100D01*
X0011649Y0018300D02*
X0007449Y0022500D01*
X0014709Y0027381D02*
X0015249Y0027900D01*
X0032049Y0030900D02*
X0035049Y0030900D01*
X0036849Y0029100D01*
X0036849Y0027900D01*
X0037189Y0027381D01*
X0044649Y0046500D02*
X0047049Y0046500D01*
X0047167Y0046511D01*
X0051849Y0053700D02*
X0046449Y0059100D01*
X0050649Y0057900D02*
X0051849Y0057900D01*
X0054249Y0055500D01*
X0056049Y0055500D01*
X0056075Y0055419D01*
X0053649Y0053700D02*
X0053848Y0053192D01*
X0053649Y0053700D02*
X0051849Y0053700D01*
X0057849Y0057900D02*
X0058302Y0057647D01*
X0057849Y0057900D02*
X0053049Y0062700D01*
X0054849Y0066300D02*
X0047649Y0073500D01*
X0047102Y0073500D01*
X0053795Y0073500D02*
X0060849Y0073500D01*
X0061449Y0072900D01*
X0061449Y0072500D01*
X0093849Y0047100D02*
X0097449Y0050700D01*
X0097277Y0050965D01*
X0098049Y0048300D02*
X0093849Y0044100D01*
X0096849Y0042900D02*
X0100449Y0046500D01*
X0101649Y0046500D01*
X0101731Y0046511D01*
X0099249Y0048300D02*
X0099504Y0048738D01*
X0099249Y0048300D02*
X0098049Y0048300D01*
X0105249Y0044100D02*
X0110049Y0048900D01*
X0110177Y0049419D01*
X0116649Y0051300D02*
X0116649Y0053100D01*
X0114249Y0055500D01*
X0111849Y0055500D01*
X0111429Y0055126D01*
X0109202Y0057353D02*
X0109449Y0057900D01*
X0119049Y0057900D01*
X0119449Y0057500D01*
X0114249Y0060300D02*
X0118449Y0064500D01*
X0119449Y0064500D01*
X0107049Y0063300D02*
X0104049Y0063300D01*
X0103784Y0063280D01*
X0106975Y0059581D02*
X0106449Y0059100D01*
X0106449Y0056700D01*
D23*
X0108849Y0062100D03*
X0114249Y0060300D03*
X0116649Y0051300D03*
X0113049Y0048300D03*
X0114249Y0043500D03*
X0105249Y0044100D03*
X0096849Y0042900D03*
X0093849Y0044100D03*
X0093849Y0047100D03*
X0090849Y0048300D03*
X0084849Y0056100D03*
X0081849Y0056100D03*
X0078249Y0060900D03*
X0078249Y0044100D03*
X0090849Y0032700D03*
X0094449Y0036300D03*
X0080649Y0030300D03*
X0075849Y0026100D03*
X0072849Y0024900D03*
X0068649Y0025500D03*
X0068649Y0022500D03*
X0062049Y0028500D03*
X0054249Y0036300D03*
X0047049Y0042300D03*
X0044649Y0044700D03*
X0045249Y0053700D03*
X0050649Y0057900D03*
X0053049Y0062700D03*
X0055449Y0069300D03*
X0029049Y0066300D03*
X0026049Y0066300D03*
X0012249Y0066300D03*
X0015849Y0046500D03*
X0023649Y0042300D03*
X0029649Y0042300D03*
X0012249Y0033900D03*
X0022449Y0022500D03*
X0017649Y0018300D03*
X0011649Y0018300D03*
X0025449Y0008700D03*
X0044049Y0025500D03*
X0047649Y0027900D03*
X0096849Y0021900D03*
M02*
