G75*
%MOIN*%
%OFA0B0*%
%FSLAX25Y25*%
%IPPOS*%
%LPD*%
%AMOC8*
5,1,8,0,0,1.08239X$1,22.5*
%
%ADD10C,0.00200*%
%ADD11C,0.00000*%
%ADD12R,0.03000X0.01800*%
%ADD13C,0.00600*%
%ADD14R,0.01800X0.03000*%
%ADD15C,0.00800*%
D10*
X0003884Y0007600D02*
X0004618Y0007600D01*
X0004985Y0007967D01*
X0003517Y0009435D01*
X0003517Y0007967D01*
X0003884Y0007600D01*
X0004985Y0007967D02*
X0004985Y0009435D01*
X0004618Y0009802D01*
X0003884Y0009802D01*
X0003517Y0009435D01*
X0005723Y0007967D02*
X0005723Y0007600D01*
X0006090Y0007600D01*
X0006090Y0007967D01*
X0005723Y0007967D01*
X0006832Y0007600D02*
X0008299Y0007600D01*
X0006832Y0009068D01*
X0006832Y0009435D01*
X0007198Y0009802D01*
X0007932Y0009802D01*
X0008299Y0009435D01*
X0009041Y0009802D02*
X0009041Y0008334D01*
X0009775Y0007600D01*
X0010509Y0008334D01*
X0010509Y0009802D01*
X0013461Y0009435D02*
X0013461Y0008701D01*
X0013828Y0008334D01*
X0014929Y0008334D01*
X0014195Y0008334D02*
X0013461Y0007600D01*
X0014929Y0007600D02*
X0014929Y0009802D01*
X0013828Y0009802D01*
X0013461Y0009435D01*
X0015671Y0009068D02*
X0016405Y0009802D01*
X0017139Y0009068D01*
X0017139Y0007600D01*
X0017881Y0007967D02*
X0018248Y0007600D01*
X0018982Y0007600D01*
X0019349Y0007967D01*
X0019349Y0009435D01*
X0018982Y0009802D01*
X0018248Y0009802D01*
X0017881Y0009435D01*
X0017139Y0008701D02*
X0015671Y0008701D01*
X0015671Y0009068D02*
X0015671Y0007600D01*
X0021461Y0010967D02*
X0021828Y0010600D01*
X0022562Y0010600D01*
X0022929Y0010967D01*
X0023671Y0010600D02*
X0025139Y0010600D01*
X0024405Y0010600D02*
X0024405Y0012802D01*
X0025139Y0012068D01*
X0025881Y0012435D02*
X0025881Y0011701D01*
X0026248Y0011334D01*
X0027349Y0011334D01*
X0027349Y0010600D02*
X0027349Y0012802D01*
X0026248Y0012802D01*
X0025881Y0012435D01*
X0026615Y0011334D02*
X0025881Y0010600D01*
X0022929Y0012435D02*
X0022562Y0012802D01*
X0021828Y0012802D01*
X0021461Y0012435D01*
X0021461Y0012068D01*
X0021828Y0011701D01*
X0021461Y0011334D01*
X0021461Y0010967D01*
X0021828Y0011701D02*
X0022195Y0011701D01*
X0032671Y0007701D02*
X0034139Y0007701D01*
X0033405Y0008435D02*
X0033405Y0006967D01*
X0034881Y0006967D02*
X0034881Y0008435D01*
X0035248Y0008802D01*
X0036349Y0008802D01*
X0036349Y0006600D01*
X0035248Y0006600D01*
X0034881Y0006967D01*
X0035139Y0017600D02*
X0033671Y0019068D01*
X0033671Y0019435D01*
X0034038Y0019802D01*
X0034772Y0019802D01*
X0035139Y0019435D01*
X0035881Y0019435D02*
X0035881Y0018701D01*
X0036248Y0018334D01*
X0037349Y0018334D01*
X0037349Y0017600D02*
X0037349Y0019802D01*
X0036248Y0019802D01*
X0035881Y0019435D01*
X0036615Y0018334D02*
X0035881Y0017600D01*
X0035139Y0017600D02*
X0033671Y0017600D01*
X0050671Y0014600D02*
X0052139Y0014600D01*
X0051405Y0014600D02*
X0051405Y0016802D01*
X0052139Y0016068D01*
X0052881Y0016435D02*
X0052881Y0015701D01*
X0053248Y0015334D01*
X0054349Y0015334D01*
X0054349Y0014600D02*
X0054349Y0016802D01*
X0053248Y0016802D01*
X0052881Y0016435D01*
X0053615Y0015334D02*
X0052881Y0014600D01*
X0053248Y0008802D02*
X0054349Y0008802D01*
X0054349Y0006600D01*
X0053248Y0006600D01*
X0052881Y0006967D01*
X0052881Y0008435D01*
X0053248Y0008802D01*
X0052139Y0007701D02*
X0050671Y0007701D01*
X0061149Y0018337D02*
X0061149Y0019071D01*
X0061516Y0019438D01*
X0062250Y0019438D01*
X0062250Y0018704D01*
X0062984Y0017970D02*
X0061516Y0017970D01*
X0061149Y0018337D01*
X0061149Y0020180D02*
X0063351Y0020180D01*
X0061149Y0021648D01*
X0063351Y0021648D01*
X0063351Y0022390D02*
X0063351Y0023491D01*
X0062984Y0023858D01*
X0061516Y0023858D01*
X0061149Y0023491D01*
X0061149Y0022390D01*
X0063351Y0022390D01*
X0062984Y0019438D02*
X0063351Y0019071D01*
X0063351Y0018337D01*
X0062984Y0017970D01*
X0086149Y0018337D02*
X0086516Y0017970D01*
X0086149Y0018337D02*
X0086149Y0019071D01*
X0086516Y0019438D01*
X0086883Y0019438D01*
X0087250Y0019071D01*
X0087250Y0018337D01*
X0087617Y0017970D01*
X0087984Y0017970D01*
X0088351Y0018337D01*
X0088351Y0019071D01*
X0087984Y0019438D01*
X0087984Y0020180D02*
X0086516Y0020180D01*
X0086149Y0020547D01*
X0086149Y0021281D01*
X0086516Y0021648D01*
X0086883Y0022390D02*
X0088351Y0023858D01*
X0088351Y0022390D02*
X0086149Y0022390D01*
X0087250Y0022757D02*
X0086149Y0023858D01*
X0087984Y0021648D02*
X0088351Y0021281D01*
X0088351Y0020547D01*
X0087984Y0020180D01*
X0093149Y0020180D02*
X0095351Y0020180D01*
X0093149Y0021648D01*
X0095351Y0021648D01*
X0095351Y0022390D02*
X0095351Y0023491D01*
X0094984Y0023858D01*
X0093516Y0023858D01*
X0093149Y0023491D01*
X0093149Y0022390D01*
X0095351Y0022390D01*
X0094984Y0019438D02*
X0095351Y0019071D01*
X0095351Y0018337D01*
X0094984Y0017970D01*
X0093516Y0017970D01*
X0093149Y0018337D01*
X0093149Y0019071D01*
X0093516Y0019438D01*
X0094250Y0019438D01*
X0094250Y0018704D01*
X0101149Y0018965D02*
X0103351Y0018965D01*
X0102617Y0018231D01*
X0103351Y0017497D01*
X0101149Y0017497D01*
X0101516Y0019707D02*
X0101149Y0020074D01*
X0101149Y0020808D01*
X0101516Y0021175D01*
X0102984Y0021175D01*
X0103351Y0020808D01*
X0103351Y0020074D01*
X0102984Y0019707D01*
X0101516Y0019707D01*
X0101516Y0021917D02*
X0101149Y0022284D01*
X0101149Y0023018D01*
X0101516Y0023385D01*
X0101883Y0023385D01*
X0102250Y0023018D01*
X0102250Y0022284D01*
X0102617Y0021917D01*
X0102984Y0021917D01*
X0103351Y0022284D01*
X0103351Y0023018D01*
X0102984Y0023385D01*
X0103351Y0024127D02*
X0103351Y0024861D01*
X0103351Y0024494D02*
X0101149Y0024494D01*
X0101149Y0024127D02*
X0101149Y0024861D01*
X0109149Y0024491D02*
X0109516Y0024858D01*
X0110984Y0024858D01*
X0111351Y0024491D01*
X0111351Y0023757D01*
X0110984Y0023390D01*
X0109516Y0023390D01*
X0109149Y0023757D01*
X0109149Y0024491D01*
X0109516Y0022648D02*
X0109149Y0022281D01*
X0109149Y0021547D01*
X0109516Y0021180D01*
X0110250Y0021547D02*
X0110250Y0022281D01*
X0109883Y0022648D01*
X0109516Y0022648D01*
X0110250Y0021547D02*
X0110617Y0021180D01*
X0110984Y0021180D01*
X0111351Y0021547D01*
X0111351Y0022281D01*
X0110984Y0022648D01*
X0111351Y0020441D02*
X0111351Y0019707D01*
X0111351Y0020074D02*
X0109149Y0020074D01*
X0109149Y0019707D02*
X0109149Y0020441D01*
X0109149Y0018965D02*
X0111351Y0018965D01*
X0110617Y0018231D01*
X0111351Y0017497D01*
X0109149Y0017497D01*
X0117149Y0018337D02*
X0117149Y0019071D01*
X0117516Y0019438D01*
X0118250Y0019438D01*
X0118250Y0018704D01*
X0118984Y0017970D02*
X0117516Y0017970D01*
X0117149Y0018337D01*
X0117149Y0020180D02*
X0119351Y0020180D01*
X0117149Y0021648D01*
X0119351Y0021648D01*
X0119351Y0022390D02*
X0119351Y0023491D01*
X0118984Y0023858D01*
X0117516Y0023858D01*
X0117149Y0023491D01*
X0117149Y0022390D01*
X0119351Y0022390D01*
X0118984Y0019438D02*
X0119351Y0019071D01*
X0119351Y0018337D01*
X0118984Y0017970D01*
X0052349Y0048967D02*
X0051982Y0048600D01*
X0051248Y0048600D01*
X0050881Y0048967D01*
X0050139Y0048967D02*
X0049772Y0048600D01*
X0049038Y0048600D01*
X0048671Y0048967D01*
X0048671Y0049701D01*
X0049038Y0050068D01*
X0049405Y0050068D01*
X0050139Y0049701D01*
X0050139Y0050802D01*
X0048671Y0050802D01*
X0050881Y0050435D02*
X0051248Y0050802D01*
X0051982Y0050802D01*
X0052349Y0050435D01*
X0052349Y0048967D01*
X0042349Y0038802D02*
X0042349Y0036600D01*
X0042349Y0037701D02*
X0040881Y0037701D01*
X0040139Y0037701D02*
X0038671Y0037701D01*
X0037929Y0037701D02*
X0036828Y0037701D01*
X0036461Y0037334D01*
X0036461Y0036967D01*
X0036828Y0036600D01*
X0037929Y0036600D01*
X0037929Y0038802D01*
X0036828Y0038802D01*
X0036461Y0038435D01*
X0036461Y0038068D01*
X0036828Y0037701D01*
X0035449Y0034200D02*
X0015449Y0034200D01*
X0014982Y0037600D02*
X0014248Y0037600D01*
X0013881Y0037967D01*
X0013881Y0039802D01*
X0013139Y0039435D02*
X0013139Y0039068D01*
X0012772Y0038701D01*
X0012038Y0038701D01*
X0011671Y0038334D01*
X0011671Y0037967D01*
X0012038Y0037600D01*
X0012772Y0037600D01*
X0013139Y0037967D01*
X0013139Y0039435D02*
X0012772Y0039802D01*
X0012038Y0039802D01*
X0011671Y0039435D01*
X0010929Y0039802D02*
X0009828Y0039802D01*
X0009461Y0039435D01*
X0009461Y0039068D01*
X0009828Y0038701D01*
X0010929Y0038701D01*
X0009828Y0038701D02*
X0009461Y0038334D01*
X0009461Y0037967D01*
X0009828Y0037600D01*
X0010929Y0037600D01*
X0010929Y0039802D01*
X0008719Y0039802D02*
X0008719Y0038334D01*
X0007985Y0037600D01*
X0007251Y0038334D01*
X0007251Y0039802D01*
X0006509Y0038701D02*
X0005041Y0038701D01*
X0005775Y0039435D02*
X0005775Y0037967D01*
X0007405Y0042600D02*
X0007405Y0044802D01*
X0008139Y0044802D02*
X0006671Y0044802D01*
X0005929Y0043701D02*
X0004461Y0043701D01*
X0008881Y0044802D02*
X0008881Y0042600D01*
X0010349Y0042600D02*
X0010349Y0044802D01*
X0009615Y0044068D01*
X0008881Y0044802D01*
X0015349Y0039802D02*
X0015349Y0037967D01*
X0014982Y0037600D01*
X0014349Y0022802D02*
X0014349Y0020967D01*
X0013982Y0020600D01*
X0013248Y0020600D01*
X0012881Y0020967D01*
X0012881Y0022802D01*
X0012139Y0022435D02*
X0012139Y0022068D01*
X0011772Y0021701D01*
X0011038Y0021701D01*
X0010671Y0021334D01*
X0010671Y0020967D01*
X0011038Y0020600D01*
X0011772Y0020600D01*
X0012139Y0020967D01*
X0012139Y0022435D02*
X0011772Y0022802D01*
X0011038Y0022802D01*
X0010671Y0022435D01*
X0009929Y0022802D02*
X0008828Y0022802D01*
X0008461Y0022435D01*
X0008461Y0022068D01*
X0008828Y0021701D01*
X0009929Y0021701D01*
X0008828Y0021701D02*
X0008461Y0021334D01*
X0008461Y0020967D01*
X0008828Y0020600D01*
X0009929Y0020600D01*
X0009929Y0022802D01*
X0007719Y0022802D02*
X0007719Y0021334D01*
X0006985Y0020600D01*
X0006251Y0021334D01*
X0006251Y0022802D01*
X0005509Y0021701D02*
X0004041Y0021701D01*
X0040881Y0036600D02*
X0040881Y0038802D01*
X0030349Y0065600D02*
X0030349Y0067802D01*
X0029248Y0067802D01*
X0028881Y0067435D01*
X0028881Y0066701D01*
X0029248Y0066334D01*
X0030349Y0066334D01*
X0029615Y0066334D02*
X0028881Y0065600D01*
X0028139Y0065967D02*
X0027772Y0065600D01*
X0027038Y0065600D01*
X0026671Y0065967D01*
X0026671Y0066334D01*
X0027038Y0066701D01*
X0028139Y0066701D01*
X0028139Y0065967D01*
X0028139Y0066701D02*
X0027405Y0067435D01*
X0026671Y0067802D01*
X0010349Y0062802D02*
X0010349Y0060600D01*
X0008881Y0060600D02*
X0008881Y0062802D01*
X0009615Y0062068D01*
X0010349Y0062802D01*
X0008139Y0062802D02*
X0006671Y0062802D01*
X0007405Y0062802D02*
X0007405Y0060600D01*
X0005929Y0061701D02*
X0004461Y0061701D01*
X0005195Y0062435D02*
X0005195Y0060967D01*
D11*
X0007449Y0060594D02*
X0007449Y0054406D01*
X0007449Y0051594D02*
X0007449Y0045406D01*
X0004355Y0048500D02*
X0010543Y0048500D01*
X0010543Y0057500D02*
X0004355Y0057500D01*
X0022571Y0070500D02*
X0030327Y0070500D01*
X0026449Y0066622D02*
X0026449Y0074378D01*
X0042449Y0053273D02*
X0042449Y0045727D01*
X0038676Y0049500D02*
X0046222Y0049500D01*
X0029449Y0040500D02*
X0021449Y0040500D01*
X0025449Y0036500D02*
X0025449Y0044500D01*
X0010543Y0034500D02*
X0004355Y0034500D01*
X0007449Y0031406D02*
X0007449Y0037594D01*
X0007449Y0029594D02*
X0007449Y0023406D01*
X0004355Y0026500D02*
X0010543Y0026500D01*
X0021571Y0015500D02*
X0029327Y0015500D01*
X0025449Y0011622D02*
X0025449Y0019378D01*
X0036571Y0018500D02*
X0044327Y0018500D01*
X0043571Y0018500D02*
X0051327Y0018500D01*
X0047449Y0014622D02*
X0047449Y0022378D01*
X0040449Y0022378D02*
X0040449Y0014622D01*
X0040449Y0011594D02*
X0040449Y0005406D01*
X0037355Y0008500D02*
X0043543Y0008500D01*
X0044355Y0008500D02*
X0050543Y0008500D01*
X0047449Y0005406D02*
X0047449Y0011594D01*
X0086449Y0040500D02*
X0094449Y0040500D01*
X0090449Y0036500D02*
X0090449Y0044500D01*
D12*
X0047449Y0018500D03*
X0040449Y0018500D03*
D13*
X0033949Y0032800D02*
X0016949Y0032800D01*
X0016873Y0032802D01*
X0016797Y0032808D01*
X0016722Y0032817D01*
X0016647Y0032831D01*
X0016573Y0032848D01*
X0016500Y0032869D01*
X0016428Y0032893D01*
X0016357Y0032922D01*
X0016288Y0032953D01*
X0016221Y0032988D01*
X0016156Y0033027D01*
X0016092Y0033069D01*
X0016031Y0033114D01*
X0015972Y0033162D01*
X0015916Y0033213D01*
X0015862Y0033267D01*
X0015811Y0033323D01*
X0015763Y0033382D01*
X0015718Y0033443D01*
X0015676Y0033507D01*
X0015637Y0033572D01*
X0015602Y0033639D01*
X0015571Y0033708D01*
X0015542Y0033779D01*
X0015518Y0033851D01*
X0015497Y0033924D01*
X0015480Y0033998D01*
X0015466Y0034073D01*
X0015457Y0034148D01*
X0015451Y0034224D01*
X0015449Y0034300D01*
X0015449Y0046700D01*
X0015451Y0046776D01*
X0015457Y0046852D01*
X0015466Y0046927D01*
X0015480Y0047002D01*
X0015497Y0047076D01*
X0015518Y0047149D01*
X0015542Y0047221D01*
X0015571Y0047292D01*
X0015602Y0047361D01*
X0015637Y0047428D01*
X0015676Y0047493D01*
X0015718Y0047557D01*
X0015763Y0047618D01*
X0015811Y0047677D01*
X0015862Y0047733D01*
X0015916Y0047787D01*
X0015972Y0047838D01*
X0016031Y0047886D01*
X0016092Y0047931D01*
X0016156Y0047973D01*
X0016221Y0048012D01*
X0016288Y0048047D01*
X0016357Y0048078D01*
X0016428Y0048107D01*
X0016500Y0048131D01*
X0016573Y0048152D01*
X0016647Y0048169D01*
X0016722Y0048183D01*
X0016797Y0048192D01*
X0016873Y0048198D01*
X0016949Y0048200D01*
X0033949Y0048200D01*
X0034025Y0048198D01*
X0034101Y0048192D01*
X0034176Y0048183D01*
X0034251Y0048169D01*
X0034325Y0048152D01*
X0034398Y0048131D01*
X0034470Y0048107D01*
X0034541Y0048078D01*
X0034610Y0048047D01*
X0034677Y0048012D01*
X0034742Y0047973D01*
X0034806Y0047931D01*
X0034867Y0047886D01*
X0034926Y0047838D01*
X0034982Y0047787D01*
X0035036Y0047733D01*
X0035087Y0047677D01*
X0035135Y0047618D01*
X0035180Y0047557D01*
X0035222Y0047493D01*
X0035261Y0047428D01*
X0035296Y0047361D01*
X0035327Y0047292D01*
X0035356Y0047221D01*
X0035380Y0047149D01*
X0035401Y0047076D01*
X0035418Y0047002D01*
X0035432Y0046927D01*
X0035441Y0046852D01*
X0035447Y0046776D01*
X0035449Y0046700D01*
X0035449Y0034300D01*
X0035447Y0034224D01*
X0035441Y0034148D01*
X0035432Y0034073D01*
X0035418Y0033998D01*
X0035401Y0033924D01*
X0035380Y0033851D01*
X0035356Y0033779D01*
X0035327Y0033708D01*
X0035296Y0033639D01*
X0035261Y0033572D01*
X0035222Y0033507D01*
X0035180Y0033443D01*
X0035135Y0033382D01*
X0035087Y0033323D01*
X0035036Y0033267D01*
X0034982Y0033213D01*
X0034926Y0033162D01*
X0034867Y0033114D01*
X0034806Y0033069D01*
X0034742Y0033027D01*
X0034677Y0032988D01*
X0034610Y0032953D01*
X0034541Y0032922D01*
X0034470Y0032893D01*
X0034398Y0032869D01*
X0034325Y0032848D01*
X0034251Y0032831D01*
X0034176Y0032817D01*
X0034101Y0032808D01*
X0034025Y0032802D01*
X0033949Y0032800D01*
X0035449Y0038500D02*
X0035361Y0038502D01*
X0035272Y0038508D01*
X0035184Y0038518D01*
X0035097Y0038531D01*
X0035010Y0038549D01*
X0034924Y0038570D01*
X0034839Y0038595D01*
X0034756Y0038624D01*
X0034673Y0038657D01*
X0034593Y0038693D01*
X0034514Y0038732D01*
X0034436Y0038775D01*
X0034361Y0038822D01*
X0034288Y0038872D01*
X0034217Y0038925D01*
X0034148Y0038981D01*
X0034082Y0039040D01*
X0034019Y0039102D01*
X0033959Y0039166D01*
X0033901Y0039233D01*
X0033847Y0039303D01*
X0033795Y0039375D01*
X0033747Y0039449D01*
X0033702Y0039526D01*
X0033661Y0039604D01*
X0033623Y0039684D01*
X0033589Y0039765D01*
X0033558Y0039848D01*
X0033531Y0039933D01*
X0033508Y0040018D01*
X0033489Y0040104D01*
X0033473Y0040192D01*
X0033461Y0040279D01*
X0033453Y0040367D01*
X0033449Y0040456D01*
X0033449Y0040544D01*
X0033453Y0040633D01*
X0033461Y0040721D01*
X0033473Y0040808D01*
X0033489Y0040896D01*
X0033508Y0040982D01*
X0033531Y0041067D01*
X0033558Y0041152D01*
X0033589Y0041235D01*
X0033623Y0041316D01*
X0033661Y0041396D01*
X0033702Y0041474D01*
X0033747Y0041551D01*
X0033795Y0041625D01*
X0033847Y0041697D01*
X0033901Y0041767D01*
X0033959Y0041834D01*
X0034019Y0041898D01*
X0034082Y0041960D01*
X0034148Y0042019D01*
X0034217Y0042075D01*
X0034288Y0042128D01*
X0034361Y0042178D01*
X0034436Y0042225D01*
X0034514Y0042268D01*
X0034593Y0042307D01*
X0034673Y0042343D01*
X0034756Y0042376D01*
X0034839Y0042405D01*
X0034924Y0042430D01*
X0035010Y0042451D01*
X0035097Y0042469D01*
X0035184Y0042482D01*
X0035272Y0042492D01*
X0035361Y0042498D01*
X0035449Y0042500D01*
X0041268Y0047138D02*
X0043630Y0047138D01*
X0043630Y0051862D02*
X0041268Y0051862D01*
X0115749Y0022141D02*
X0115749Y0019206D01*
X0115749Y0020673D02*
X0120153Y0020673D01*
X0118685Y0019206D01*
D14*
X0025449Y0015500D03*
X0026449Y0070500D03*
D15*
X0058953Y0071996D02*
X0058953Y0009004D01*
X0121945Y0009004D01*
X0121945Y0071996D01*
X0058953Y0071996D01*
X0098323Y0040500D02*
X0114071Y0040500D01*
X0114071Y0024752D01*
X0098323Y0024752D01*
X0098323Y0040500D01*
X0102260Y0048374D02*
X0102260Y0056248D01*
X0110134Y0056248D01*
X0110134Y0048374D01*
X0102260Y0048374D01*
M02*
