G75*
%MOIN*%
%OFA0B0*%
%FSLAX25Y25*%
%IPPOS*%
%LPD*%
%AMOC8*
5,1,8,0,0,1.08239X$1,22.5*
%
%ADD10R,0.04731X0.04337*%
%ADD11R,0.05400X0.10400*%
%ADD12R,0.10400X0.05400*%
%ADD13R,0.03550X0.05124*%
%ADD14R,0.02369X0.02959*%
%ADD15R,0.06306X0.02369*%
%ADD16R,0.02369X0.06306*%
%ADD17R,0.02565X0.05124*%
D10*
X0006454Y0049800D03*
X0013146Y0049800D03*
X0021454Y0059800D03*
X0028146Y0059800D03*
X0041454Y0059800D03*
X0048146Y0059800D03*
X0048146Y0069800D03*
X0041454Y0069800D03*
X0043146Y0079800D03*
X0036454Y0079800D03*
X0051454Y0079800D03*
X0058146Y0079800D03*
D11*
X0069800Y0084800D03*
X0079800Y0084800D03*
X0089800Y0084800D03*
X0104800Y0084800D03*
X0114800Y0084800D03*
X0109800Y0008800D03*
X0098800Y0008800D03*
X0089800Y0008800D03*
X0080800Y0008800D03*
X0063800Y0008800D03*
X0039800Y0008800D03*
D12*
X0009800Y0019800D03*
X0009800Y0064800D03*
X0009800Y0074800D03*
X0119800Y0074800D03*
X0119800Y0044800D03*
X0119800Y0034800D03*
X0119800Y0024800D03*
X0119800Y0014800D03*
D13*
X0033343Y0019800D03*
X0026257Y0019800D03*
X0026257Y0007800D03*
X0033343Y0007800D03*
X0028343Y0084800D03*
X0021257Y0084800D03*
X0013343Y0084800D03*
X0006257Y0084800D03*
D14*
G36*
X0094511Y0074518D02*
X0092836Y0076193D01*
X0094927Y0078284D01*
X0096602Y0076609D01*
X0094511Y0074518D01*
G37*
G36*
X0096739Y0072291D02*
X0095064Y0073966D01*
X0097155Y0076057D01*
X0098830Y0074382D01*
X0096739Y0072291D01*
G37*
G36*
X0098966Y0070064D02*
X0097291Y0071739D01*
X0099382Y0073830D01*
X0101057Y0072155D01*
X0098966Y0070064D01*
G37*
G36*
X0101193Y0067836D02*
X0099518Y0069511D01*
X0101609Y0071602D01*
X0103284Y0069927D01*
X0101193Y0067836D01*
G37*
G36*
X0104673Y0071316D02*
X0102998Y0072991D01*
X0105089Y0075082D01*
X0106764Y0073407D01*
X0104673Y0071316D01*
G37*
G36*
X0102445Y0073543D02*
X0100770Y0075218D01*
X0102861Y0077309D01*
X0104536Y0075634D01*
X0102445Y0073543D01*
G37*
G36*
X0100218Y0075770D02*
X0098543Y0077445D01*
X0100634Y0079536D01*
X0102309Y0077861D01*
X0100218Y0075770D01*
G37*
G36*
X0097991Y0077998D02*
X0096316Y0079673D01*
X0098407Y0081764D01*
X0100082Y0080089D01*
X0097991Y0077998D01*
G37*
G36*
X0112991Y0062998D02*
X0111316Y0064673D01*
X0113407Y0066764D01*
X0115082Y0065089D01*
X0112991Y0062998D01*
G37*
G36*
X0115218Y0060770D02*
X0113543Y0062445D01*
X0115634Y0064536D01*
X0117309Y0062861D01*
X0115218Y0060770D01*
G37*
G36*
X0117445Y0058543D02*
X0115770Y0060218D01*
X0117861Y0062309D01*
X0119536Y0060634D01*
X0117445Y0058543D01*
G37*
G36*
X0119673Y0056316D02*
X0117998Y0057991D01*
X0120089Y0060082D01*
X0121764Y0058407D01*
X0119673Y0056316D01*
G37*
G36*
X0116193Y0052836D02*
X0114518Y0054511D01*
X0116609Y0056602D01*
X0118284Y0054927D01*
X0116193Y0052836D01*
G37*
G36*
X0113966Y0055064D02*
X0112291Y0056739D01*
X0114382Y0058830D01*
X0116057Y0057155D01*
X0113966Y0055064D01*
G37*
G36*
X0111739Y0057291D02*
X0110064Y0058966D01*
X0112155Y0061057D01*
X0113830Y0059382D01*
X0111739Y0057291D01*
G37*
G36*
X0109511Y0059518D02*
X0107836Y0061193D01*
X0109927Y0063284D01*
X0111602Y0061609D01*
X0109511Y0059518D01*
G37*
G36*
X0106518Y0029089D02*
X0108193Y0030764D01*
X0110284Y0028673D01*
X0108609Y0026998D01*
X0106518Y0029089D01*
G37*
G36*
X0104291Y0026861D02*
X0105966Y0028536D01*
X0108057Y0026445D01*
X0106382Y0024770D01*
X0104291Y0026861D01*
G37*
G36*
X0102064Y0024634D02*
X0103739Y0026309D01*
X0105830Y0024218D01*
X0104155Y0022543D01*
X0102064Y0024634D01*
G37*
G36*
X0099836Y0022407D02*
X0101511Y0024082D01*
X0103602Y0021991D01*
X0101927Y0020316D01*
X0099836Y0022407D01*
G37*
G36*
X0103316Y0018927D02*
X0104991Y0020602D01*
X0107082Y0018511D01*
X0105407Y0016836D01*
X0103316Y0018927D01*
G37*
G36*
X0105543Y0021155D02*
X0107218Y0022830D01*
X0109309Y0020739D01*
X0107634Y0019064D01*
X0105543Y0021155D01*
G37*
G36*
X0107770Y0023382D02*
X0109445Y0025057D01*
X0111536Y0022966D01*
X0109861Y0021291D01*
X0107770Y0023382D01*
G37*
G36*
X0109998Y0025609D02*
X0111673Y0027284D01*
X0113764Y0025193D01*
X0112089Y0023518D01*
X0109998Y0025609D01*
G37*
D15*
G36*
X0110148Y0051203D02*
X0105690Y0046745D01*
X0104016Y0048419D01*
X0108474Y0052877D01*
X0110148Y0051203D01*
G37*
G36*
X0107921Y0053430D02*
X0103463Y0048972D01*
X0101789Y0050646D01*
X0106247Y0055104D01*
X0107921Y0053430D01*
G37*
G36*
X0105694Y0055657D02*
X0101236Y0051199D01*
X0099562Y0052873D01*
X0104020Y0057331D01*
X0105694Y0055657D01*
G37*
G36*
X0103467Y0057884D02*
X0099009Y0053426D01*
X0097335Y0055100D01*
X0101793Y0059558D01*
X0103467Y0057884D01*
G37*
G36*
X0101240Y0060111D02*
X0096782Y0055653D01*
X0095108Y0057327D01*
X0099566Y0061785D01*
X0101240Y0060111D01*
G37*
G36*
X0099013Y0062339D02*
X0094555Y0057881D01*
X0092881Y0059555D01*
X0097339Y0064013D01*
X0099013Y0062339D01*
G37*
G36*
X0096785Y0064566D02*
X0092327Y0060108D01*
X0090653Y0061782D01*
X0095111Y0066240D01*
X0096785Y0064566D01*
G37*
G36*
X0094558Y0066793D02*
X0090100Y0062335D01*
X0088426Y0064009D01*
X0092884Y0068467D01*
X0094558Y0066793D01*
G37*
G36*
X0092331Y0069020D02*
X0087873Y0064562D01*
X0086199Y0066236D01*
X0090657Y0070694D01*
X0092331Y0069020D01*
G37*
G36*
X0090104Y0071247D02*
X0085646Y0066789D01*
X0083972Y0068463D01*
X0088430Y0072921D01*
X0090104Y0071247D01*
G37*
G36*
X0087877Y0073474D02*
X0083419Y0069016D01*
X0081745Y0070690D01*
X0086203Y0075148D01*
X0087877Y0073474D01*
G37*
G36*
X0055584Y0041181D02*
X0051126Y0036723D01*
X0049452Y0038397D01*
X0053910Y0042855D01*
X0055584Y0041181D01*
G37*
G36*
X0057811Y0038954D02*
X0053353Y0034496D01*
X0051679Y0036170D01*
X0056137Y0040628D01*
X0057811Y0038954D01*
G37*
G36*
X0060038Y0036727D02*
X0055580Y0032269D01*
X0053906Y0033943D01*
X0058364Y0038401D01*
X0060038Y0036727D01*
G37*
G36*
X0062265Y0034500D02*
X0057807Y0030042D01*
X0056133Y0031716D01*
X0060591Y0036174D01*
X0062265Y0034500D01*
G37*
G36*
X0064492Y0032273D02*
X0060034Y0027815D01*
X0058360Y0029489D01*
X0062818Y0033947D01*
X0064492Y0032273D01*
G37*
G36*
X0066719Y0030045D02*
X0062261Y0025587D01*
X0060587Y0027261D01*
X0065045Y0031719D01*
X0066719Y0030045D01*
G37*
G36*
X0068947Y0027818D02*
X0064489Y0023360D01*
X0062815Y0025034D01*
X0067273Y0029492D01*
X0068947Y0027818D01*
G37*
G36*
X0071174Y0025591D02*
X0066716Y0021133D01*
X0065042Y0022807D01*
X0069500Y0027265D01*
X0071174Y0025591D01*
G37*
G36*
X0073401Y0023364D02*
X0068943Y0018906D01*
X0067269Y0020580D01*
X0071727Y0025038D01*
X0073401Y0023364D01*
G37*
G36*
X0075628Y0021137D02*
X0071170Y0016679D01*
X0069496Y0018353D01*
X0073954Y0022811D01*
X0075628Y0021137D01*
G37*
G36*
X0077855Y0018910D02*
X0073397Y0014452D01*
X0071723Y0016126D01*
X0076181Y0020584D01*
X0077855Y0018910D01*
G37*
D16*
G36*
X0087877Y0016126D02*
X0086203Y0014452D01*
X0081745Y0018910D01*
X0083419Y0020584D01*
X0087877Y0016126D01*
G37*
G36*
X0090104Y0018353D02*
X0088430Y0016679D01*
X0083972Y0021137D01*
X0085646Y0022811D01*
X0090104Y0018353D01*
G37*
G36*
X0092331Y0020580D02*
X0090657Y0018906D01*
X0086199Y0023364D01*
X0087873Y0025038D01*
X0092331Y0020580D01*
G37*
G36*
X0094558Y0022807D02*
X0092884Y0021133D01*
X0088426Y0025591D01*
X0090100Y0027265D01*
X0094558Y0022807D01*
G37*
G36*
X0096785Y0025034D02*
X0095111Y0023360D01*
X0090653Y0027818D01*
X0092327Y0029492D01*
X0096785Y0025034D01*
G37*
G36*
X0099013Y0027261D02*
X0097339Y0025587D01*
X0092881Y0030045D01*
X0094555Y0031719D01*
X0099013Y0027261D01*
G37*
G36*
X0101240Y0029489D02*
X0099566Y0027815D01*
X0095108Y0032273D01*
X0096782Y0033947D01*
X0101240Y0029489D01*
G37*
G36*
X0103467Y0031716D02*
X0101793Y0030042D01*
X0097335Y0034500D01*
X0099009Y0036174D01*
X0103467Y0031716D01*
G37*
G36*
X0105694Y0033943D02*
X0104020Y0032269D01*
X0099562Y0036727D01*
X0101236Y0038401D01*
X0105694Y0033943D01*
G37*
G36*
X0107921Y0036170D02*
X0106247Y0034496D01*
X0101789Y0038954D01*
X0103463Y0040628D01*
X0107921Y0036170D01*
G37*
G36*
X0110148Y0038397D02*
X0108474Y0036723D01*
X0104016Y0041181D01*
X0105690Y0042855D01*
X0110148Y0038397D01*
G37*
G36*
X0077855Y0070690D02*
X0076181Y0069016D01*
X0071723Y0073474D01*
X0073397Y0075148D01*
X0077855Y0070690D01*
G37*
G36*
X0075628Y0068463D02*
X0073954Y0066789D01*
X0069496Y0071247D01*
X0071170Y0072921D01*
X0075628Y0068463D01*
G37*
G36*
X0073401Y0066236D02*
X0071727Y0064562D01*
X0067269Y0069020D01*
X0068943Y0070694D01*
X0073401Y0066236D01*
G37*
G36*
X0071174Y0064009D02*
X0069500Y0062335D01*
X0065042Y0066793D01*
X0066716Y0068467D01*
X0071174Y0064009D01*
G37*
G36*
X0068947Y0061782D02*
X0067273Y0060108D01*
X0062815Y0064566D01*
X0064489Y0066240D01*
X0068947Y0061782D01*
G37*
G36*
X0066719Y0059555D02*
X0065045Y0057881D01*
X0060587Y0062339D01*
X0062261Y0064013D01*
X0066719Y0059555D01*
G37*
G36*
X0064492Y0057327D02*
X0062818Y0055653D01*
X0058360Y0060111D01*
X0060034Y0061785D01*
X0064492Y0057327D01*
G37*
G36*
X0062265Y0055100D02*
X0060591Y0053426D01*
X0056133Y0057884D01*
X0057807Y0059558D01*
X0062265Y0055100D01*
G37*
G36*
X0060038Y0052873D02*
X0058364Y0051199D01*
X0053906Y0055657D01*
X0055580Y0057331D01*
X0060038Y0052873D01*
G37*
G36*
X0057811Y0050646D02*
X0056137Y0048972D01*
X0051679Y0053430D01*
X0053353Y0055104D01*
X0057811Y0050646D01*
G37*
G36*
X0055584Y0048419D02*
X0053910Y0046745D01*
X0049452Y0051203D01*
X0051126Y0052877D01*
X0055584Y0048419D01*
G37*
D17*
X0043540Y0039919D03*
X0036060Y0039919D03*
X0036060Y0029681D03*
X0039800Y0029681D03*
X0043540Y0029681D03*
X0023540Y0029681D03*
X0019800Y0029681D03*
X0016060Y0029681D03*
X0016060Y0039919D03*
X0023540Y0039919D03*
M02*
