%
M48
M72
T01C0.01200
%
T01
X11649Y18300
X17649Y18300
X22449Y22500
X12249Y33900
X23649Y42300
X29649Y42300
X15849Y46500
X12249Y66300
X26049Y66300
X29049Y66300
X45249Y53700
X50649Y57900
X53049Y62700
X55449Y69300
X78249Y60900
X81849Y56100
X84849Y56100
X90849Y48300
X93849Y47100
X93849Y44100
X96849Y42900
X94449Y36300
X90849Y32700
X80649Y30300
X75849Y26100
X72849Y24900
X68649Y25500
X68649Y22500
X62049Y28500
X54249Y36300
X47049Y42300
X44649Y44700
X47649Y27900
X44049Y25500
X25449Y8700
X78249Y44100
X105249Y44100
X113049Y48300
X116649Y51300
X114249Y60300
X108849Y62100
X114249Y43500
X96849Y21900
M30
