G75*
%MOIN*%
%OFA0B0*%
%FSLAX25Y25*%
%IPPOS*%
%LPD*%
%AMOC8*
5,1,8,0,0,1.08239X$1,22.5*
%
%ADD10R,0.03550X0.02762*%
%ADD11R,0.06400X0.05400*%
%ADD12R,0.04337X0.04731*%
%ADD13R,0.02959X0.02369*%
%ADD14R,0.04337X0.05912*%
%ADD15C,0.00394*%
%ADD16R,0.05400X0.06400*%
%ADD17R,0.05124X0.12211*%
D10*
X0010449Y0011299D03*
X0010449Y0017598D03*
D11*
X0007449Y0031449D03*
X0007449Y0040449D03*
X0007449Y0049449D03*
X0007449Y0062449D03*
X0007449Y0070449D03*
D12*
X0048449Y0045795D03*
X0048449Y0039102D03*
X0045449Y0028795D03*
X0045449Y0022102D03*
D13*
X0041909Y0054724D03*
X0041909Y0057874D03*
X0041909Y0061024D03*
X0041909Y0064173D03*
X0036988Y0064173D03*
X0036988Y0061024D03*
X0036988Y0057874D03*
X0036988Y0054724D03*
D14*
X0029189Y0043780D03*
X0021709Y0043780D03*
X0025449Y0035118D03*
X0029189Y0071118D03*
X0021709Y0071118D03*
X0025449Y0079780D03*
D15*
X0030218Y0024963D02*
X0030218Y0021415D01*
X0030218Y0024963D02*
X0035342Y0024963D01*
X0035342Y0021415D01*
X0030218Y0021415D01*
X0030218Y0021808D02*
X0035342Y0021808D01*
X0035342Y0022201D02*
X0030218Y0022201D01*
X0030218Y0022594D02*
X0035342Y0022594D01*
X0035342Y0022987D02*
X0030218Y0022987D01*
X0030218Y0023380D02*
X0035342Y0023380D01*
X0035342Y0023773D02*
X0030218Y0023773D01*
X0030218Y0024166D02*
X0035342Y0024166D01*
X0035342Y0024559D02*
X0030218Y0024559D01*
X0030218Y0024952D02*
X0035342Y0024952D01*
X0030218Y0017483D02*
X0030218Y0013935D01*
X0030218Y0017483D02*
X0035342Y0017483D01*
X0035342Y0013935D01*
X0030218Y0013935D01*
X0030218Y0014328D02*
X0035342Y0014328D01*
X0035342Y0014721D02*
X0030218Y0014721D01*
X0030218Y0015114D02*
X0035342Y0015114D01*
X0035342Y0015507D02*
X0030218Y0015507D01*
X0030218Y0015900D02*
X0035342Y0015900D01*
X0035342Y0016293D02*
X0030218Y0016293D01*
X0030218Y0016686D02*
X0035342Y0016686D01*
X0035342Y0017079D02*
X0030218Y0017079D01*
X0030218Y0017472D02*
X0035342Y0017472D01*
X0021556Y0017675D02*
X0021556Y0021223D01*
X0026680Y0021223D01*
X0026680Y0017675D01*
X0021556Y0017675D01*
X0021556Y0018068D02*
X0026680Y0018068D01*
X0026680Y0018461D02*
X0021556Y0018461D01*
X0021556Y0018854D02*
X0026680Y0018854D01*
X0026680Y0019247D02*
X0021556Y0019247D01*
X0021556Y0019640D02*
X0026680Y0019640D01*
X0026680Y0020033D02*
X0021556Y0020033D01*
X0021556Y0020426D02*
X0026680Y0020426D01*
X0026680Y0020819D02*
X0021556Y0020819D01*
X0021556Y0021212D02*
X0026680Y0021212D01*
D16*
X0043449Y0013449D03*
X0038449Y0043449D03*
X0045449Y0085449D03*
X0055449Y0085449D03*
D17*
X0066827Y0074976D03*
X0074701Y0074976D03*
X0082575Y0074976D03*
X0090449Y0074976D03*
X0098323Y0074976D03*
X0106197Y0074976D03*
X0114071Y0074976D03*
X0114071Y0015921D03*
X0106197Y0015921D03*
X0098323Y0015921D03*
X0090449Y0015921D03*
X0082575Y0015921D03*
X0074701Y0015921D03*
X0066827Y0015921D03*
M02*
