G75*
%MOIN*%
%OFA0B0*%
%FSLAX25Y25*%
%IPPOS*%
%LPD*%
%AMOC8*
5,1,8,0,0,1.08239X$1,22.5*
%
%ADD10R,0.03150X0.02362*%
%ADD11R,0.06000X0.05000*%
%ADD12R,0.03937X0.04331*%
%ADD13R,0.02559X0.01969*%
%ADD14R,0.03937X0.05512*%
%ADD15C,0.00354*%
%ADD16R,0.05000X0.06000*%
%ADD17R,0.04724X0.11811*%
%ADD18C,0.00600*%
%ADD19C,0.02400*%
D10*
X0010449Y0011299D03*
X0010449Y0017598D03*
D11*
X0007449Y0031449D03*
X0007449Y0040449D03*
X0007449Y0049449D03*
X0007449Y0062449D03*
X0007449Y0070449D03*
D12*
X0048449Y0045795D03*
X0048449Y0039102D03*
X0045449Y0028795D03*
X0045449Y0022102D03*
D13*
X0041909Y0054724D03*
X0041909Y0057874D03*
X0041909Y0061024D03*
X0041909Y0064173D03*
X0036988Y0064173D03*
X0036988Y0061024D03*
X0036988Y0057874D03*
X0036988Y0054724D03*
D14*
X0029189Y0043780D03*
X0021709Y0043780D03*
X0025449Y0035118D03*
X0029189Y0071118D03*
X0021709Y0071118D03*
X0025449Y0079780D03*
D15*
X0030398Y0024783D02*
X0030398Y0021595D01*
X0030398Y0024783D02*
X0035162Y0024783D01*
X0035162Y0021595D01*
X0030398Y0021595D01*
X0030398Y0021948D02*
X0035162Y0021948D01*
X0035162Y0022301D02*
X0030398Y0022301D01*
X0030398Y0022654D02*
X0035162Y0022654D01*
X0035162Y0023007D02*
X0030398Y0023007D01*
X0030398Y0023360D02*
X0035162Y0023360D01*
X0035162Y0023713D02*
X0030398Y0023713D01*
X0030398Y0024066D02*
X0035162Y0024066D01*
X0035162Y0024419D02*
X0030398Y0024419D01*
X0030398Y0024772D02*
X0035162Y0024772D01*
X0021736Y0021043D02*
X0021736Y0017855D01*
X0021736Y0021043D02*
X0026500Y0021043D01*
X0026500Y0017855D01*
X0021736Y0017855D01*
X0021736Y0018208D02*
X0026500Y0018208D01*
X0026500Y0018561D02*
X0021736Y0018561D01*
X0021736Y0018914D02*
X0026500Y0018914D01*
X0026500Y0019267D02*
X0021736Y0019267D01*
X0021736Y0019620D02*
X0026500Y0019620D01*
X0026500Y0019973D02*
X0021736Y0019973D01*
X0021736Y0020326D02*
X0026500Y0020326D01*
X0026500Y0020679D02*
X0021736Y0020679D01*
X0021736Y0021032D02*
X0026500Y0021032D01*
X0030398Y0017303D02*
X0030398Y0014115D01*
X0030398Y0017303D02*
X0035162Y0017303D01*
X0035162Y0014115D01*
X0030398Y0014115D01*
X0030398Y0014468D02*
X0035162Y0014468D01*
X0035162Y0014821D02*
X0030398Y0014821D01*
X0030398Y0015174D02*
X0035162Y0015174D01*
X0035162Y0015527D02*
X0030398Y0015527D01*
X0030398Y0015880D02*
X0035162Y0015880D01*
X0035162Y0016233D02*
X0030398Y0016233D01*
X0030398Y0016586D02*
X0035162Y0016586D01*
X0035162Y0016939D02*
X0030398Y0016939D01*
X0030398Y0017292D02*
X0035162Y0017292D01*
D16*
X0043449Y0013449D03*
X0038449Y0043449D03*
X0045449Y0085449D03*
X0055449Y0085449D03*
D17*
X0066827Y0074976D03*
X0074701Y0074976D03*
X0082575Y0074976D03*
X0090449Y0074976D03*
X0098323Y0074976D03*
X0106197Y0074976D03*
X0114071Y0074976D03*
X0114071Y0015921D03*
X0106197Y0015921D03*
X0098323Y0015921D03*
X0090449Y0015921D03*
X0082575Y0015921D03*
X0074701Y0015921D03*
X0066827Y0015921D03*
D18*
X0058649Y0007849D02*
X0007649Y0007849D01*
X0005249Y0010249D01*
X0005249Y0024049D01*
X0007049Y0025849D01*
X0007049Y0027049D01*
X0007049Y0031249D01*
X0007449Y0031449D01*
X0011849Y0028849D02*
X0006449Y0023449D01*
X0006449Y0010849D01*
X0008249Y0009049D01*
X0021449Y0009049D01*
X0028049Y0015649D01*
X0032249Y0015649D01*
X0032780Y0015709D01*
X0032249Y0021649D02*
X0032249Y0022849D01*
X0032780Y0023189D01*
X0032249Y0021649D02*
X0022049Y0011449D01*
X0010649Y0011449D01*
X0010449Y0011299D01*
X0010049Y0011449D01*
X0007649Y0013849D01*
X0007649Y0019249D01*
X0015449Y0027049D01*
X0015449Y0043849D01*
X0022649Y0051049D01*
X0022649Y0064249D01*
X0022049Y0064849D01*
X0022049Y0070849D01*
X0021709Y0071118D01*
X0029189Y0071118D02*
X0029249Y0071449D01*
X0036449Y0064249D01*
X0036988Y0064173D01*
X0037049Y0063649D01*
X0038249Y0063649D01*
X0039449Y0062449D01*
X0039449Y0051649D01*
X0032249Y0044449D01*
X0032249Y0037849D01*
X0029849Y0035449D01*
X0025649Y0035449D01*
X0025449Y0035118D01*
X0025049Y0034849D01*
X0010649Y0020449D01*
X0010649Y0018049D01*
X0010449Y0017598D01*
X0011849Y0028849D02*
X0011849Y0036049D01*
X0013049Y0036049D01*
X0011849Y0036049D02*
X0007449Y0040449D01*
X0007449Y0049449D02*
X0007649Y0049849D01*
X0017849Y0060049D01*
X0015449Y0062449D02*
X0007449Y0070449D01*
X0012449Y0071449D02*
X0012449Y0073249D01*
X0022649Y0083449D01*
X0028049Y0083449D01*
X0037049Y0074449D01*
X0058049Y0074449D01*
X0061049Y0074449D02*
X0054449Y0081049D01*
X0049649Y0081049D01*
X0045449Y0085249D01*
X0045449Y0085449D01*
X0045449Y0085249D02*
X0022649Y0085249D01*
X0013649Y0076249D01*
X0012449Y0076249D01*
X0012449Y0071449D02*
X0020249Y0063649D01*
X0007649Y0062449D02*
X0007649Y0054049D01*
X0007649Y0062449D02*
X0007449Y0062449D01*
X0022049Y0046849D02*
X0022049Y0043849D01*
X0021709Y0043780D01*
X0022049Y0046849D02*
X0035849Y0060649D01*
X0036449Y0060649D01*
X0036988Y0061024D01*
X0036988Y0057874D02*
X0036449Y0057649D01*
X0035849Y0057649D01*
X0026249Y0048049D01*
X0026249Y0040249D01*
X0027449Y0039049D01*
X0028049Y0039049D01*
X0029249Y0037849D01*
X0029249Y0032449D02*
X0029249Y0024649D01*
X0024449Y0019849D01*
X0024118Y0019449D01*
X0042449Y0025849D02*
X0043049Y0025249D01*
X0047849Y0025249D01*
X0055049Y0018049D01*
X0061649Y0018049D01*
X0065849Y0015049D02*
X0066827Y0015921D01*
X0067049Y0021649D01*
X0059849Y0028849D01*
X0057449Y0028849D01*
X0055649Y0030649D02*
X0062849Y0037849D01*
X0062249Y0040849D02*
X0062249Y0043849D01*
X0059849Y0046249D01*
X0058649Y0046249D01*
X0056849Y0044449D01*
X0056849Y0040249D01*
X0045449Y0028849D01*
X0045449Y0028795D01*
X0042449Y0031249D02*
X0042449Y0025849D01*
X0042449Y0031249D02*
X0046649Y0035449D01*
X0050249Y0035449D01*
X0055649Y0040849D01*
X0055649Y0046249D01*
X0053249Y0046249D01*
X0055649Y0046249D02*
X0055649Y0047449D01*
X0066449Y0047449D01*
X0059249Y0043849D02*
X0059249Y0039049D01*
X0051449Y0031249D01*
X0051449Y0024649D01*
X0052049Y0024049D01*
X0053849Y0030649D02*
X0055649Y0030649D01*
X0048449Y0039049D02*
X0048449Y0039102D01*
X0048449Y0039049D02*
X0045449Y0036049D01*
X0043649Y0036049D01*
X0038849Y0040849D01*
X0038849Y0043249D01*
X0038449Y0043449D01*
X0044249Y0041449D02*
X0044249Y0038449D01*
X0044249Y0041449D02*
X0048449Y0045649D01*
X0048449Y0045795D01*
X0055649Y0047449D02*
X0055649Y0060049D01*
X0061049Y0065449D01*
X0061049Y0067849D01*
X0077249Y0067849D01*
X0078449Y0069049D01*
X0078449Y0080449D01*
X0080849Y0082849D01*
X0085049Y0082849D01*
X0085649Y0083449D01*
X0115649Y0083449D01*
X0117449Y0081649D01*
X0117449Y0068449D01*
X0112649Y0063649D01*
X0112649Y0055849D01*
X0110249Y0054049D02*
X0110249Y0070849D01*
X0113849Y0074449D01*
X0114071Y0074976D01*
X0106197Y0074976D02*
X0106049Y0075049D01*
X0106049Y0076849D01*
X0100649Y0082249D01*
X0095849Y0082249D01*
X0094649Y0081049D01*
X0094649Y0047449D01*
X0076049Y0028849D01*
X0076049Y0027649D01*
X0079049Y0028849D02*
X0081449Y0026449D01*
X0082649Y0026449D01*
X0110249Y0054049D01*
X0098249Y0049249D02*
X0098249Y0074449D01*
X0098323Y0074976D01*
X0082575Y0074976D02*
X0082049Y0074449D01*
X0082049Y0067249D01*
X0082049Y0036649D01*
X0067049Y0021649D01*
X0067049Y0016249D01*
X0066827Y0015921D01*
X0066449Y0015649D01*
X0065849Y0015049D01*
X0071849Y0009049D01*
X0118049Y0009049D01*
X0114071Y0015921D02*
X0113849Y0016249D01*
X0113849Y0018049D01*
X0107849Y0024049D01*
X0080849Y0024049D01*
X0082049Y0028849D02*
X0082049Y0033049D01*
X0098249Y0049249D01*
X0117449Y0038449D02*
X0117449Y0031249D01*
X0065849Y0015049D02*
X0058649Y0007849D01*
X0045449Y0015649D02*
X0043649Y0013849D01*
X0043449Y0013449D01*
X0045449Y0015649D02*
X0045449Y0022102D01*
X0029189Y0043780D02*
X0029249Y0043849D01*
X0036449Y0051049D01*
X0036449Y0051649D01*
X0036449Y0054649D01*
X0036988Y0054724D01*
X0041849Y0055249D02*
X0041849Y0057649D01*
X0041909Y0057874D01*
X0042449Y0058249D01*
X0050849Y0058249D01*
X0058649Y0066049D01*
X0061049Y0067849D02*
X0061049Y0074449D01*
X0066449Y0085249D02*
X0055649Y0085249D01*
X0055449Y0085449D01*
X0066449Y0085249D02*
X0074249Y0077449D01*
X0074249Y0075049D01*
X0074701Y0074976D01*
X0053249Y0063649D02*
X0050849Y0061249D01*
X0042449Y0061249D01*
X0041909Y0061024D01*
X0041909Y0064173D02*
X0041849Y0064249D01*
X0037649Y0068449D01*
X0032249Y0073849D01*
X0032249Y0074449D01*
X0027449Y0079249D01*
X0025649Y0079249D01*
X0025449Y0079780D01*
X0041849Y0055249D02*
X0041909Y0054724D01*
D19*
X0036449Y0051649D03*
X0044249Y0038449D03*
X0053249Y0046249D03*
X0059249Y0043849D03*
X0062249Y0040849D03*
X0062849Y0037849D03*
X0057449Y0028849D03*
X0053849Y0030649D03*
X0052049Y0024049D03*
X0061649Y0018049D03*
X0076049Y0027649D03*
X0079049Y0028849D03*
X0082049Y0028849D03*
X0080849Y0024049D03*
X0066449Y0047449D03*
X0053249Y0063649D03*
X0058649Y0066049D03*
X0058049Y0074449D03*
X0037649Y0068449D03*
X0020249Y0063649D03*
X0017849Y0060049D03*
X0015449Y0062449D03*
X0012449Y0071449D03*
X0012449Y0076249D03*
X0007649Y0054049D03*
X0013049Y0036049D03*
X0007049Y0027049D03*
X0029249Y0032449D03*
X0029249Y0037849D03*
X0082049Y0067249D03*
X0085049Y0082849D03*
X0112649Y0055849D03*
X0117449Y0038449D03*
X0117449Y0031249D03*
X0118049Y0009049D03*
M02*
