G75*
%MOIN*%
%OFA0B0*%
%FSLAX25Y25*%
%IPPOS*%
%LPD*%
%AMOC8*
5,1,8,0,0,1.08239X$1,22.5*
%
%ADD10R,0.06000X0.05000*%
%ADD11R,0.03937X0.04331*%
%ADD12R,0.05000X0.06000*%
%ADD13R,0.03150X0.04724*%
%ADD14R,0.02600X0.08000*%
%ADD15R,0.04331X0.03937*%
%ADD16R,0.04724X0.11811*%
%ADD17C,0.00600*%
%ADD18C,0.02400*%
D10*
X0007449Y0026500D03*
X0007449Y0034500D03*
X0007449Y0048500D03*
X0007449Y0057500D03*
D11*
X0040449Y0021846D03*
X0040449Y0015154D03*
X0047449Y0015154D03*
X0047449Y0021846D03*
D12*
X0047449Y0008500D03*
X0040449Y0008500D03*
D13*
X0038906Y0049500D03*
X0045992Y0049500D03*
D14*
X0032949Y0052600D03*
X0027949Y0052600D03*
X0022949Y0052600D03*
X0017949Y0052600D03*
X0017949Y0028400D03*
X0022949Y0028400D03*
X0027949Y0028400D03*
X0032949Y0028400D03*
D15*
X0028795Y0015500D03*
X0022102Y0015500D03*
X0023102Y0070500D03*
X0029795Y0070500D03*
D16*
X0062890Y0070028D03*
X0070764Y0070028D03*
X0078638Y0070028D03*
X0086512Y0070028D03*
X0094386Y0070028D03*
X0102260Y0070028D03*
X0110134Y0070028D03*
X0118008Y0070028D03*
X0118008Y0010972D03*
X0110134Y0010972D03*
X0102260Y0010972D03*
X0094386Y0010972D03*
X0086512Y0010972D03*
X0078638Y0010972D03*
X0070764Y0010972D03*
X0062890Y0010972D03*
D17*
X0021849Y0015900D02*
X0017049Y0015900D01*
X0015249Y0017700D01*
X0015249Y0018300D01*
X0014649Y0018900D01*
X0015249Y0018900D01*
X0020649Y0024300D01*
X0020649Y0032700D01*
X0026049Y0038100D01*
X0026049Y0042900D01*
X0018249Y0050700D01*
X0018249Y0052500D01*
X0017949Y0052600D01*
X0022949Y0052600D02*
X0023049Y0053100D01*
X0023049Y0070500D01*
X0023102Y0070500D01*
X0026049Y0073500D02*
X0019449Y0073500D01*
X0012249Y0066300D01*
X0007449Y0057500D02*
X0007449Y0055500D01*
X0013449Y0049500D01*
X0013449Y0037500D01*
X0017649Y0033300D01*
X0017649Y0028500D01*
X0017949Y0028400D01*
X0022449Y0027900D02*
X0022449Y0023100D01*
X0022449Y0022500D01*
X0022449Y0023100D02*
X0017649Y0018300D01*
X0014649Y0018900D02*
X0007449Y0026100D01*
X0007449Y0026500D01*
X0007449Y0026100D02*
X0014649Y0033300D01*
X0014649Y0034500D01*
X0007449Y0041700D01*
X0007449Y0048500D01*
X0015849Y0046500D02*
X0019449Y0046500D01*
X0023649Y0042300D01*
X0026049Y0047700D02*
X0025449Y0048300D01*
X0025449Y0062700D01*
X0029049Y0066300D01*
X0032649Y0062700D01*
X0053049Y0062700D01*
X0050649Y0057900D02*
X0031449Y0057900D01*
X0028449Y0054900D01*
X0028449Y0053100D01*
X0027949Y0052600D01*
X0032949Y0052600D02*
X0033249Y0053100D01*
X0036249Y0053100D01*
X0036249Y0036900D01*
X0037449Y0035700D01*
X0037449Y0018300D01*
X0031449Y0012300D01*
X0025449Y0012300D01*
X0022449Y0015300D01*
X0022102Y0015500D01*
X0021849Y0015900D01*
X0022102Y0015500D02*
X0022449Y0015900D01*
X0032649Y0026100D01*
X0032649Y0027900D01*
X0032949Y0028400D01*
X0029649Y0029700D02*
X0028449Y0028500D01*
X0027949Y0028400D01*
X0027849Y0028500D01*
X0023049Y0028500D01*
X0022949Y0028400D01*
X0022449Y0027900D01*
X0029649Y0029700D02*
X0029649Y0042300D01*
X0032049Y0042900D02*
X0027249Y0047700D01*
X0026049Y0047700D01*
X0032049Y0042900D02*
X0032049Y0039300D01*
X0035649Y0035700D01*
X0035649Y0024300D01*
X0029049Y0017700D01*
X0029049Y0015900D01*
X0028795Y0015500D01*
X0025449Y0008700D02*
X0021249Y0008700D01*
X0011649Y0018300D01*
X0012249Y0033900D02*
X0011649Y0034500D01*
X0007449Y0034500D01*
X0037449Y0018300D02*
X0050049Y0018300D01*
X0057249Y0011100D01*
X0062649Y0011100D01*
X0062890Y0010972D01*
X0063249Y0011100D01*
X0063249Y0023100D01*
X0070449Y0030300D01*
X0080649Y0030300D01*
X0093249Y0030300D01*
X0096849Y0033900D01*
X0102849Y0027900D01*
X0096849Y0021900D01*
X0096249Y0019500D02*
X0103449Y0019500D01*
X0110049Y0012900D01*
X0110049Y0011100D01*
X0110134Y0010972D01*
X0117849Y0011100D02*
X0118008Y0010972D01*
X0117849Y0011100D02*
X0117849Y0012900D01*
X0102849Y0027900D01*
X0096849Y0033900D02*
X0096849Y0041700D01*
X0105849Y0041700D01*
X0107649Y0043500D01*
X0107649Y0044700D01*
X0101649Y0050700D01*
X0084249Y0050700D01*
X0071049Y0063900D01*
X0071049Y0069900D01*
X0070764Y0070028D01*
X0078249Y0060900D02*
X0087249Y0060900D01*
X0093849Y0067500D01*
X0093849Y0069900D01*
X0094386Y0070028D01*
X0102249Y0069900D02*
X0102260Y0070028D01*
X0102249Y0069900D02*
X0102249Y0068100D01*
X0093849Y0059700D01*
X0085449Y0059700D01*
X0081849Y0056100D01*
X0084849Y0056100D02*
X0092049Y0056100D01*
X0098049Y0062100D01*
X0108849Y0062100D01*
X0113049Y0059100D02*
X0114249Y0060300D01*
X0113049Y0059100D02*
X0113049Y0048300D01*
X0116649Y0045900D02*
X0114249Y0043500D01*
X0116649Y0045900D02*
X0116649Y0051300D01*
X0105249Y0044100D02*
X0098649Y0044100D01*
X0095649Y0047100D01*
X0093849Y0047100D01*
X0093849Y0044100D02*
X0078249Y0044100D01*
X0077649Y0044700D01*
X0044649Y0044700D01*
X0044049Y0042300D02*
X0047049Y0042300D01*
X0044049Y0042300D02*
X0039249Y0047100D01*
X0039249Y0049500D01*
X0038906Y0049500D01*
X0041049Y0053100D02*
X0036249Y0053100D01*
X0041049Y0053100D02*
X0042849Y0051300D01*
X0045249Y0053700D01*
X0042849Y0051300D02*
X0044649Y0049500D01*
X0045992Y0049500D01*
X0054249Y0036300D02*
X0062049Y0028500D01*
X0066249Y0023100D02*
X0066249Y0021900D01*
X0069849Y0018300D01*
X0081249Y0018300D01*
X0086049Y0013500D01*
X0086049Y0011100D01*
X0086512Y0010972D01*
X0093849Y0011100D02*
X0094386Y0010972D01*
X0093849Y0011100D02*
X0093849Y0013500D01*
X0084849Y0022500D01*
X0068649Y0022500D01*
X0066249Y0023100D02*
X0068649Y0025500D01*
X0072849Y0024900D02*
X0074049Y0024900D01*
X0075249Y0023700D01*
X0090249Y0023700D01*
X0095649Y0018300D01*
X0096849Y0018300D01*
X0102249Y0012900D01*
X0102249Y0011100D01*
X0102260Y0010972D01*
X0096249Y0019500D02*
X0089649Y0026100D01*
X0075849Y0026100D01*
X0090849Y0032700D02*
X0094449Y0036300D01*
X0096849Y0041700D02*
X0096849Y0042900D01*
X0090849Y0048300D02*
X0073449Y0048300D01*
X0051249Y0070500D01*
X0029795Y0070500D01*
X0026649Y0072900D02*
X0026049Y0073500D01*
X0050049Y0073500D01*
X0054249Y0069300D01*
X0055449Y0069300D01*
X0026649Y0068100D02*
X0026649Y0072900D01*
X0026649Y0068100D02*
X0026049Y0067500D01*
X0026049Y0066300D01*
X0047649Y0027900D02*
X0047649Y0021900D01*
X0047449Y0021846D01*
X0044049Y0025500D02*
X0040449Y0021900D01*
X0040449Y0021846D01*
X0040449Y0015154D02*
X0040449Y0008500D01*
X0047449Y0008500D02*
X0047649Y0008700D01*
X0047649Y0014700D01*
X0047449Y0015154D01*
D18*
X0044049Y0025500D03*
X0047649Y0027900D03*
X0054249Y0036300D03*
X0047049Y0042300D03*
X0044649Y0044700D03*
X0045249Y0053700D03*
X0050649Y0057900D03*
X0053049Y0062700D03*
X0055449Y0069300D03*
X0078249Y0060900D03*
X0081849Y0056100D03*
X0084849Y0056100D03*
X0090849Y0048300D03*
X0093849Y0047100D03*
X0093849Y0044100D03*
X0096849Y0042900D03*
X0094449Y0036300D03*
X0090849Y0032700D03*
X0080649Y0030300D03*
X0075849Y0026100D03*
X0072849Y0024900D03*
X0068649Y0025500D03*
X0068649Y0022500D03*
X0062049Y0028500D03*
X0078249Y0044100D03*
X0105249Y0044100D03*
X0113049Y0048300D03*
X0116649Y0051300D03*
X0114249Y0060300D03*
X0108849Y0062100D03*
X0114249Y0043500D03*
X0096849Y0021900D03*
X0029649Y0042300D03*
X0023649Y0042300D03*
X0015849Y0046500D03*
X0012249Y0033900D03*
X0022449Y0022500D03*
X0017649Y0018300D03*
X0011649Y0018300D03*
X0025449Y0008700D03*
X0026049Y0066300D03*
X0029049Y0066300D03*
X0012249Y0066300D03*
M02*
