G75*
%MOIN*%
%OFA0B0*%
%FSLAX25Y25*%
%IPPOS*%
%LPD*%
%AMOC8*
5,1,8,0,0,1.08239X$1,22.5*
%
%ADD10R,0.04331X0.03937*%
%ADD11R,0.06000X0.05000*%
%ADD12R,0.05000X0.06000*%
%ADD13R,0.03150X0.04724*%
%ADD14R,0.01969X0.02559*%
%ADD15R,0.05906X0.01969*%
%ADD16R,0.01969X0.05906*%
%ADD17R,0.02165X0.04724*%
%ADD18C,0.01772*%
D10*
X0034102Y0053500D03*
X0035102Y0059500D03*
X0041795Y0059500D03*
X0040795Y0053500D03*
X0038102Y0065500D03*
X0044795Y0065500D03*
X0047102Y0073500D03*
X0053795Y0073500D03*
X0025795Y0060500D03*
X0025795Y0054500D03*
X0019102Y0054500D03*
X0019102Y0060500D03*
X0083102Y0007500D03*
X0089795Y0007500D03*
D11*
X0007449Y0013500D03*
X0007449Y0022500D03*
X0007449Y0054500D03*
X0007449Y0063500D03*
X0119449Y0064500D03*
X0119449Y0057500D03*
X0119449Y0045500D03*
X0119449Y0038500D03*
X0119449Y0029500D03*
X0119449Y0022500D03*
X0119449Y0015500D03*
X0119449Y0008500D03*
D12*
X0074555Y0008288D03*
X0054449Y0008500D03*
X0061449Y0072500D03*
X0038449Y0072500D03*
X0089449Y0072500D03*
X0105449Y0072500D03*
X0112449Y0072500D03*
X0119449Y0072500D03*
D13*
X0029992Y0072500D03*
X0022906Y0072500D03*
X0015992Y0072500D03*
X0008906Y0072500D03*
X0021906Y0015500D03*
X0021906Y0008500D03*
X0028992Y0008500D03*
X0028992Y0015500D03*
D14*
G36*
X0093414Y0064882D02*
X0092022Y0066274D01*
X0093830Y0068082D01*
X0095222Y0066690D01*
X0093414Y0064882D01*
G37*
G36*
X0095641Y0062655D02*
X0094249Y0064047D01*
X0096057Y0065855D01*
X0097449Y0064463D01*
X0095641Y0062655D01*
G37*
G36*
X0097869Y0060428D02*
X0096477Y0061820D01*
X0098285Y0063628D01*
X0099677Y0062236D01*
X0097869Y0060428D01*
G37*
G36*
X0100096Y0058201D02*
X0098704Y0059593D01*
X0100512Y0061401D01*
X0101904Y0060009D01*
X0100096Y0058201D01*
G37*
G36*
X0103287Y0054501D02*
X0101895Y0055893D01*
X0103703Y0057701D01*
X0105095Y0056309D01*
X0103287Y0054501D01*
G37*
G36*
X0105514Y0052274D02*
X0104122Y0053666D01*
X0105930Y0055474D01*
X0107322Y0054082D01*
X0105514Y0052274D01*
G37*
G36*
X0107741Y0050047D02*
X0106349Y0051439D01*
X0108157Y0053247D01*
X0109549Y0051855D01*
X0107741Y0050047D01*
G37*
G36*
X0109969Y0047819D02*
X0108577Y0049211D01*
X0110385Y0051019D01*
X0111777Y0049627D01*
X0109969Y0047819D01*
G37*
G36*
X0113448Y0051299D02*
X0112056Y0052691D01*
X0113864Y0054499D01*
X0115256Y0053107D01*
X0113448Y0051299D01*
G37*
G36*
X0111221Y0053526D02*
X0109829Y0054918D01*
X0111637Y0056726D01*
X0113029Y0055334D01*
X0111221Y0053526D01*
G37*
G36*
X0108994Y0055753D02*
X0107602Y0057145D01*
X0109410Y0058953D01*
X0110802Y0057561D01*
X0108994Y0055753D01*
G37*
G36*
X0106767Y0057981D02*
X0105375Y0059373D01*
X0107183Y0061181D01*
X0108575Y0059789D01*
X0106767Y0057981D01*
G37*
G36*
X0103576Y0061680D02*
X0102184Y0063072D01*
X0103992Y0064880D01*
X0105384Y0063488D01*
X0103576Y0061680D01*
G37*
G36*
X0101348Y0063908D02*
X0099956Y0065300D01*
X0101764Y0067108D01*
X0103156Y0065716D01*
X0101348Y0063908D01*
G37*
G36*
X0099121Y0066135D02*
X0097729Y0067527D01*
X0099537Y0069335D01*
X0100929Y0067943D01*
X0099121Y0066135D01*
G37*
G36*
X0096894Y0068362D02*
X0095502Y0069754D01*
X0097310Y0071562D01*
X0098702Y0070170D01*
X0096894Y0068362D01*
G37*
G36*
X0105450Y0029789D02*
X0106842Y0031181D01*
X0108650Y0029373D01*
X0107258Y0027981D01*
X0105450Y0029789D01*
G37*
G36*
X0103222Y0027561D02*
X0104614Y0028953D01*
X0106422Y0027145D01*
X0105030Y0025753D01*
X0103222Y0027561D01*
G37*
G36*
X0100995Y0025334D02*
X0102387Y0026726D01*
X0104195Y0024918D01*
X0102803Y0023526D01*
X0100995Y0025334D01*
G37*
G36*
X0098768Y0023107D02*
X0100160Y0024499D01*
X0101968Y0022691D01*
X0100576Y0021299D01*
X0098768Y0023107D01*
G37*
G36*
X0102248Y0019627D02*
X0103640Y0021019D01*
X0105448Y0019211D01*
X0104056Y0017819D01*
X0102248Y0019627D01*
G37*
G36*
X0104475Y0021855D02*
X0105867Y0023247D01*
X0107675Y0021439D01*
X0106283Y0020047D01*
X0104475Y0021855D01*
G37*
G36*
X0106702Y0024082D02*
X0108094Y0025474D01*
X0109902Y0023666D01*
X0108510Y0022274D01*
X0106702Y0024082D01*
G37*
G36*
X0108929Y0026309D02*
X0110321Y0027701D01*
X0112129Y0025893D01*
X0110737Y0024501D01*
X0108929Y0026309D01*
G37*
D15*
G36*
X0104514Y0047903D02*
X0100339Y0043728D01*
X0098948Y0045119D01*
X0103123Y0049294D01*
X0104514Y0047903D01*
G37*
G36*
X0102287Y0050130D02*
X0098112Y0045955D01*
X0096721Y0047346D01*
X0100896Y0051521D01*
X0102287Y0050130D01*
G37*
G36*
X0100060Y0052357D02*
X0095885Y0048182D01*
X0094494Y0049573D01*
X0098669Y0053748D01*
X0100060Y0052357D01*
G37*
G36*
X0097833Y0054584D02*
X0093658Y0050409D01*
X0092267Y0051800D01*
X0096442Y0055975D01*
X0097833Y0054584D01*
G37*
G36*
X0095605Y0056811D02*
X0091430Y0052636D01*
X0090039Y0054027D01*
X0094214Y0058202D01*
X0095605Y0056811D01*
G37*
G36*
X0093378Y0059039D02*
X0089203Y0054864D01*
X0087812Y0056255D01*
X0091987Y0060430D01*
X0093378Y0059039D01*
G37*
G36*
X0091151Y0061266D02*
X0086976Y0057091D01*
X0085585Y0058482D01*
X0089760Y0062657D01*
X0091151Y0061266D01*
G37*
G36*
X0088924Y0063493D02*
X0084749Y0059318D01*
X0083358Y0060709D01*
X0087533Y0064884D01*
X0088924Y0063493D01*
G37*
G36*
X0086697Y0065720D02*
X0082522Y0061545D01*
X0081131Y0062936D01*
X0085306Y0067111D01*
X0086697Y0065720D01*
G37*
G36*
X0084470Y0067947D02*
X0080295Y0063772D01*
X0078904Y0065163D01*
X0083079Y0069338D01*
X0084470Y0067947D01*
G37*
G36*
X0082243Y0070174D02*
X0078068Y0065999D01*
X0076677Y0067390D01*
X0080852Y0071565D01*
X0082243Y0070174D01*
G37*
G36*
X0049950Y0037881D02*
X0045775Y0033706D01*
X0044384Y0035097D01*
X0048559Y0039272D01*
X0049950Y0037881D01*
G37*
G36*
X0052177Y0035654D02*
X0048002Y0031479D01*
X0046611Y0032870D01*
X0050786Y0037045D01*
X0052177Y0035654D01*
G37*
G36*
X0054404Y0033427D02*
X0050229Y0029252D01*
X0048838Y0030643D01*
X0053013Y0034818D01*
X0054404Y0033427D01*
G37*
G36*
X0056631Y0031200D02*
X0052456Y0027025D01*
X0051065Y0028416D01*
X0055240Y0032591D01*
X0056631Y0031200D01*
G37*
G36*
X0058858Y0028973D02*
X0054683Y0024798D01*
X0053292Y0026189D01*
X0057467Y0030364D01*
X0058858Y0028973D01*
G37*
G36*
X0061085Y0026745D02*
X0056910Y0022570D01*
X0055519Y0023961D01*
X0059694Y0028136D01*
X0061085Y0026745D01*
G37*
G36*
X0063312Y0024518D02*
X0059137Y0020343D01*
X0057746Y0021734D01*
X0061921Y0025909D01*
X0063312Y0024518D01*
G37*
G36*
X0065539Y0022291D02*
X0061364Y0018116D01*
X0059973Y0019507D01*
X0064148Y0023682D01*
X0065539Y0022291D01*
G37*
G36*
X0067767Y0020064D02*
X0063592Y0015889D01*
X0062201Y0017280D01*
X0066376Y0021455D01*
X0067767Y0020064D01*
G37*
G36*
X0069994Y0017837D02*
X0065819Y0013662D01*
X0064428Y0015053D01*
X0068603Y0019228D01*
X0069994Y0017837D01*
G37*
G36*
X0072221Y0015610D02*
X0068046Y0011435D01*
X0066655Y0012826D01*
X0070830Y0017001D01*
X0072221Y0015610D01*
G37*
D16*
G36*
X0082243Y0012826D02*
X0080852Y0011435D01*
X0076677Y0015610D01*
X0078068Y0017001D01*
X0082243Y0012826D01*
G37*
G36*
X0084470Y0015053D02*
X0083079Y0013662D01*
X0078904Y0017837D01*
X0080295Y0019228D01*
X0084470Y0015053D01*
G37*
G36*
X0086697Y0017280D02*
X0085306Y0015889D01*
X0081131Y0020064D01*
X0082522Y0021455D01*
X0086697Y0017280D01*
G37*
G36*
X0088924Y0019507D02*
X0087533Y0018116D01*
X0083358Y0022291D01*
X0084749Y0023682D01*
X0088924Y0019507D01*
G37*
G36*
X0091151Y0021734D02*
X0089760Y0020343D01*
X0085585Y0024518D01*
X0086976Y0025909D01*
X0091151Y0021734D01*
G37*
G36*
X0093378Y0023961D02*
X0091987Y0022570D01*
X0087812Y0026745D01*
X0089203Y0028136D01*
X0093378Y0023961D01*
G37*
G36*
X0095605Y0026189D02*
X0094214Y0024798D01*
X0090039Y0028973D01*
X0091430Y0030364D01*
X0095605Y0026189D01*
G37*
G36*
X0097833Y0028416D02*
X0096442Y0027025D01*
X0092267Y0031200D01*
X0093658Y0032591D01*
X0097833Y0028416D01*
G37*
G36*
X0100060Y0030643D02*
X0098669Y0029252D01*
X0094494Y0033427D01*
X0095885Y0034818D01*
X0100060Y0030643D01*
G37*
G36*
X0102287Y0032870D02*
X0100896Y0031479D01*
X0096721Y0035654D01*
X0098112Y0037045D01*
X0102287Y0032870D01*
G37*
G36*
X0104514Y0035097D02*
X0103123Y0033706D01*
X0098948Y0037881D01*
X0100339Y0039272D01*
X0104514Y0035097D01*
G37*
G36*
X0069994Y0065163D02*
X0068603Y0063772D01*
X0064428Y0067947D01*
X0065819Y0069338D01*
X0069994Y0065163D01*
G37*
G36*
X0072221Y0067390D02*
X0070830Y0065999D01*
X0066655Y0070174D01*
X0068046Y0071565D01*
X0072221Y0067390D01*
G37*
G36*
X0067767Y0062936D02*
X0066376Y0061545D01*
X0062201Y0065720D01*
X0063592Y0067111D01*
X0067767Y0062936D01*
G37*
G36*
X0065539Y0060709D02*
X0064148Y0059318D01*
X0059973Y0063493D01*
X0061364Y0064884D01*
X0065539Y0060709D01*
G37*
G36*
X0063312Y0058482D02*
X0061921Y0057091D01*
X0057746Y0061266D01*
X0059137Y0062657D01*
X0063312Y0058482D01*
G37*
G36*
X0061085Y0056255D02*
X0059694Y0054864D01*
X0055519Y0059039D01*
X0056910Y0060430D01*
X0061085Y0056255D01*
G37*
G36*
X0058858Y0054027D02*
X0057467Y0052636D01*
X0053292Y0056811D01*
X0054683Y0058202D01*
X0058858Y0054027D01*
G37*
G36*
X0056631Y0051800D02*
X0055240Y0050409D01*
X0051065Y0054584D01*
X0052456Y0055975D01*
X0056631Y0051800D01*
G37*
G36*
X0054404Y0049573D02*
X0053013Y0048182D01*
X0048838Y0052357D01*
X0050229Y0053748D01*
X0054404Y0049573D01*
G37*
G36*
X0052177Y0047346D02*
X0050786Y0045955D01*
X0046611Y0050130D01*
X0048002Y0051521D01*
X0052177Y0047346D01*
G37*
G36*
X0049950Y0045119D02*
X0048559Y0043728D01*
X0044384Y0047903D01*
X0045775Y0049294D01*
X0049950Y0045119D01*
G37*
D17*
X0037189Y0037619D03*
X0029709Y0037619D03*
X0022189Y0037619D03*
X0014709Y0037619D03*
X0014709Y0027381D03*
X0018449Y0027381D03*
X0022189Y0027381D03*
X0029709Y0027381D03*
X0033449Y0027381D03*
X0037189Y0027381D03*
D18*
X0096724Y0012364D02*
X0096724Y0006636D01*
X0101449Y0006636D02*
X0101449Y0012364D01*
X0106173Y0012364D02*
X0106173Y0006636D01*
M02*
