G75*
%MOIN*%
%OFA0B0*%
%FSLAX25Y25*%
%IPPOS*%
%LPD*%
%AMOC8*
5,1,8,0,0,1.08239X$1,22.5*
%
%ADD10R,0.03550X0.02762*%
%ADD11R,0.10400X0.05400*%
%ADD12R,0.04337X0.04731*%
%ADD13R,0.02959X0.02369*%
%ADD14R,0.04337X0.05912*%
%ADD15C,0.00394*%
%ADD16R,0.05400X0.10400*%
%ADD17R,0.05124X0.12211*%
D10*
X0009800Y0010650D03*
X0009800Y0016950D03*
D11*
X0009800Y0029800D03*
X0009800Y0039800D03*
X0009800Y0049800D03*
X0009800Y0059800D03*
X0009800Y0069800D03*
D12*
X0044800Y0044146D03*
X0044800Y0037454D03*
X0044800Y0028146D03*
X0044800Y0021454D03*
D13*
X0037261Y0050076D03*
X0037261Y0053225D03*
X0037261Y0056375D03*
X0037261Y0059524D03*
X0032339Y0059524D03*
X0032339Y0056375D03*
X0032339Y0053225D03*
X0032339Y0050076D03*
D14*
X0028540Y0035131D03*
X0021060Y0035131D03*
X0024800Y0026469D03*
X0021060Y0070469D03*
X0028540Y0070469D03*
X0024800Y0079131D03*
D15*
X0031569Y0024314D02*
X0031569Y0020766D01*
X0031569Y0024314D02*
X0036693Y0024314D01*
X0036693Y0020766D01*
X0031569Y0020766D01*
X0031569Y0021159D02*
X0036693Y0021159D01*
X0036693Y0021552D02*
X0031569Y0021552D01*
X0031569Y0021945D02*
X0036693Y0021945D01*
X0036693Y0022338D02*
X0031569Y0022338D01*
X0031569Y0022731D02*
X0036693Y0022731D01*
X0036693Y0023124D02*
X0031569Y0023124D01*
X0031569Y0023517D02*
X0036693Y0023517D01*
X0036693Y0023910D02*
X0031569Y0023910D01*
X0031569Y0024303D02*
X0036693Y0024303D01*
X0031569Y0016834D02*
X0031569Y0013286D01*
X0031569Y0016834D02*
X0036693Y0016834D01*
X0036693Y0013286D01*
X0031569Y0013286D01*
X0031569Y0013679D02*
X0036693Y0013679D01*
X0036693Y0014072D02*
X0031569Y0014072D01*
X0031569Y0014465D02*
X0036693Y0014465D01*
X0036693Y0014858D02*
X0031569Y0014858D01*
X0031569Y0015251D02*
X0036693Y0015251D01*
X0036693Y0015644D02*
X0031569Y0015644D01*
X0031569Y0016037D02*
X0036693Y0016037D01*
X0036693Y0016430D02*
X0031569Y0016430D01*
X0031569Y0016823D02*
X0036693Y0016823D01*
X0022907Y0017026D02*
X0022907Y0020574D01*
X0028031Y0020574D01*
X0028031Y0017026D01*
X0022907Y0017026D01*
X0022907Y0017419D02*
X0028031Y0017419D01*
X0028031Y0017812D02*
X0022907Y0017812D01*
X0022907Y0018205D02*
X0028031Y0018205D01*
X0028031Y0018598D02*
X0022907Y0018598D01*
X0022907Y0018991D02*
X0028031Y0018991D01*
X0028031Y0019384D02*
X0022907Y0019384D01*
X0022907Y0019777D02*
X0028031Y0019777D01*
X0028031Y0020170D02*
X0022907Y0020170D01*
X0022907Y0020563D02*
X0028031Y0020563D01*
D16*
X0045800Y0012800D03*
X0037800Y0038800D03*
D17*
X0066178Y0015272D03*
X0074052Y0015272D03*
X0081926Y0015272D03*
X0089800Y0015272D03*
X0097674Y0015272D03*
X0105548Y0015272D03*
X0113422Y0015272D03*
X0113422Y0074328D03*
X0105548Y0074328D03*
X0097674Y0074328D03*
X0089800Y0074328D03*
X0081926Y0074328D03*
X0074052Y0074328D03*
X0066178Y0074328D03*
M02*
