G75*
%MOIN*%
%OFA0B0*%
%FSLAX25Y25*%
%IPPOS*%
%LPD*%
%AMOC8*
5,1,8,0,0,1.08239X$1,22.5*
%
%ADD10C,0.00300*%
%ADD11C,0.00200*%
%ADD12C,0.00500*%
%ADD13C,0.00100*%
%ADD14R,0.03000X0.01800*%
%ADD15C,0.00400*%
%ADD16R,0.02362X0.01772*%
%ADD17C,0.00800*%
%ADD18C,0.00600*%
D10*
X0036999Y0017620D02*
X0039901Y0017620D01*
X0039901Y0018587D02*
X0039901Y0016652D01*
X0039418Y0019599D02*
X0039901Y0020083D01*
X0039901Y0021050D01*
X0039418Y0021534D01*
X0038934Y0021534D01*
X0038450Y0021050D01*
X0037966Y0021534D01*
X0037483Y0021534D01*
X0036999Y0021050D01*
X0036999Y0020083D01*
X0037483Y0019599D01*
X0038599Y0020083D02*
X0038599Y0021050D01*
X0039083Y0021534D01*
X0041501Y0021534D01*
X0041018Y0022545D02*
X0040534Y0022545D01*
X0040050Y0023029D01*
X0040050Y0023997D01*
X0039566Y0024480D01*
X0039083Y0024480D01*
X0038599Y0023997D01*
X0038599Y0023029D01*
X0039083Y0022545D01*
X0038450Y0021050D02*
X0038450Y0020566D01*
X0038599Y0020083D02*
X0039083Y0019599D01*
X0041501Y0019599D01*
X0041018Y0022545D02*
X0041501Y0023029D01*
X0041501Y0023997D01*
X0041018Y0024480D01*
X0041501Y0025492D02*
X0038599Y0025492D01*
X0038599Y0026943D01*
X0039083Y0027427D01*
X0039566Y0027427D01*
X0040050Y0026943D01*
X0040050Y0025492D01*
X0040050Y0026943D02*
X0040534Y0027427D01*
X0041018Y0027427D01*
X0041501Y0026943D01*
X0041501Y0025492D01*
X0041501Y0028438D02*
X0041501Y0029890D01*
X0041018Y0030373D01*
X0039083Y0030373D01*
X0038599Y0029890D01*
X0038599Y0028438D01*
X0041501Y0028438D01*
X0040050Y0031385D02*
X0040050Y0033320D01*
X0041018Y0032352D02*
X0039083Y0032352D01*
X0054050Y0022320D02*
X0054050Y0020385D01*
X0053083Y0019373D02*
X0055018Y0019373D01*
X0055501Y0018890D01*
X0055501Y0017438D01*
X0052599Y0017438D01*
X0052599Y0018890D01*
X0053083Y0019373D01*
X0053083Y0016427D02*
X0052599Y0015943D01*
X0052599Y0014492D01*
X0055501Y0014492D01*
X0055501Y0015943D01*
X0055018Y0016427D01*
X0054534Y0016427D01*
X0054050Y0015943D01*
X0054050Y0014492D01*
X0053566Y0013480D02*
X0053083Y0013480D01*
X0052599Y0012997D01*
X0052599Y0012029D01*
X0053083Y0011545D01*
X0053083Y0010534D02*
X0055501Y0010534D01*
X0055018Y0011545D02*
X0054534Y0011545D01*
X0054050Y0012029D01*
X0054050Y0012997D01*
X0053566Y0013480D01*
X0055018Y0013480D02*
X0055501Y0012997D01*
X0055501Y0012029D01*
X0055018Y0011545D01*
X0053083Y0010534D02*
X0052599Y0010050D01*
X0052599Y0009083D01*
X0053083Y0008599D01*
X0055501Y0008599D01*
X0054050Y0015943D02*
X0053566Y0016427D01*
X0053083Y0016427D01*
X0022299Y0040833D02*
X0022299Y0043302D01*
X0022299Y0040833D02*
X0021064Y0039599D01*
X0019830Y0040833D01*
X0019830Y0043302D01*
X0018616Y0041450D02*
X0016147Y0041450D01*
X0017381Y0042685D02*
X0017381Y0040216D01*
D11*
X0044649Y0060129D02*
X0046851Y0060129D01*
X0046851Y0061230D01*
X0046484Y0061597D01*
X0045750Y0061597D01*
X0045383Y0061230D01*
X0045383Y0060129D01*
X0045383Y0060863D02*
X0044649Y0061597D01*
X0045016Y0062339D02*
X0044649Y0062706D01*
X0044649Y0063440D01*
X0045016Y0063807D01*
X0045383Y0063807D01*
X0045750Y0063440D01*
X0045750Y0062339D01*
X0045016Y0062339D01*
X0045750Y0062339D02*
X0046484Y0063073D01*
X0046851Y0063807D01*
X0061461Y0083549D02*
X0062562Y0083549D01*
X0062929Y0083916D01*
X0062929Y0084650D01*
X0062562Y0085017D01*
X0061461Y0085017D01*
X0061461Y0085751D02*
X0061461Y0083549D01*
X0063671Y0083549D02*
X0063671Y0084650D01*
X0064038Y0085017D01*
X0065139Y0085017D01*
X0065139Y0083549D01*
X0065881Y0083549D02*
X0066982Y0083549D01*
X0067349Y0083916D01*
X0067349Y0084650D01*
X0066982Y0085017D01*
X0065881Y0085017D01*
X0065881Y0083182D01*
X0066248Y0082815D01*
X0066615Y0082815D01*
X0070356Y0084017D02*
X0071090Y0082549D01*
X0071824Y0084017D01*
X0072566Y0084017D02*
X0072933Y0083650D01*
X0072566Y0083283D01*
X0072566Y0082916D01*
X0072933Y0082549D01*
X0073667Y0082549D01*
X0074034Y0082916D01*
X0074772Y0082916D02*
X0074772Y0082549D01*
X0075139Y0082549D01*
X0075139Y0082916D01*
X0074772Y0082916D01*
X0075881Y0082916D02*
X0076248Y0082549D01*
X0076982Y0082549D01*
X0077349Y0082916D01*
X0076615Y0083650D02*
X0076248Y0083650D01*
X0075881Y0083283D01*
X0075881Y0082916D01*
X0076248Y0083650D02*
X0075881Y0084017D01*
X0075881Y0084384D01*
X0076248Y0084751D01*
X0076982Y0084751D01*
X0077349Y0084384D01*
X0079461Y0084751D02*
X0079461Y0082549D01*
X0080562Y0082549D01*
X0080929Y0082916D01*
X0080929Y0083650D01*
X0080562Y0084017D01*
X0079461Y0084017D01*
X0081671Y0083650D02*
X0081671Y0082549D01*
X0081671Y0083650D02*
X0082038Y0084017D01*
X0083139Y0084017D01*
X0083139Y0082549D01*
X0083881Y0082549D02*
X0084982Y0082549D01*
X0085349Y0082916D01*
X0085349Y0083650D01*
X0084982Y0084017D01*
X0083881Y0084017D01*
X0083881Y0082182D01*
X0084248Y0081815D01*
X0084615Y0081815D01*
X0092985Y0082549D02*
X0093719Y0082549D01*
X0093352Y0082549D02*
X0093352Y0084017D01*
X0093719Y0084017D01*
X0094461Y0084017D02*
X0095562Y0084017D01*
X0095929Y0083650D01*
X0095562Y0083283D01*
X0094828Y0083283D01*
X0094461Y0082916D01*
X0094828Y0082549D01*
X0095929Y0082549D01*
X0096671Y0082916D02*
X0097038Y0082549D01*
X0097772Y0082549D01*
X0098139Y0082916D01*
X0098139Y0083650D01*
X0097772Y0084017D01*
X0097038Y0084017D01*
X0096671Y0083650D01*
X0096671Y0082916D01*
X0098881Y0082549D02*
X0098881Y0083650D01*
X0099248Y0084017D01*
X0099615Y0083650D01*
X0099615Y0082549D01*
X0100349Y0082549D02*
X0100349Y0084017D01*
X0099982Y0084017D01*
X0099615Y0083650D01*
X0102828Y0084017D02*
X0103929Y0083283D01*
X0102828Y0082549D01*
X0103929Y0082549D02*
X0103929Y0084751D01*
X0104671Y0084017D02*
X0105772Y0084017D01*
X0106139Y0083650D01*
X0106139Y0082916D01*
X0105772Y0082549D01*
X0104671Y0082549D01*
X0106881Y0082916D02*
X0107248Y0083283D01*
X0107982Y0083283D01*
X0108349Y0083650D01*
X0107982Y0084017D01*
X0106881Y0084017D01*
X0106881Y0082916D02*
X0107248Y0082549D01*
X0108349Y0082549D01*
X0110461Y0082916D02*
X0110828Y0083283D01*
X0111562Y0083283D01*
X0111929Y0083650D01*
X0111562Y0084017D01*
X0110461Y0084017D01*
X0110461Y0082916D02*
X0110828Y0082549D01*
X0111929Y0082549D01*
X0112671Y0082916D02*
X0113038Y0082549D01*
X0114139Y0082549D01*
X0114881Y0082549D02*
X0114881Y0083650D01*
X0115248Y0084017D01*
X0115982Y0084017D01*
X0116349Y0083650D01*
X0116349Y0084751D02*
X0116349Y0082549D01*
X0114139Y0083650D02*
X0113772Y0084017D01*
X0112671Y0084017D01*
X0113038Y0083283D02*
X0113772Y0083283D01*
X0114139Y0083650D01*
X0113038Y0083283D02*
X0112671Y0082916D01*
X0093352Y0084751D02*
X0093352Y0085118D01*
X0074034Y0084384D02*
X0073667Y0084751D01*
X0072933Y0084751D01*
X0072566Y0084384D01*
X0072566Y0084017D01*
X0072933Y0083650D02*
X0073300Y0083650D01*
X0115772Y0010118D02*
X0115772Y0009751D01*
X0115772Y0009017D02*
X0115772Y0007549D01*
X0116139Y0007549D02*
X0115405Y0007549D01*
X0114666Y0007549D02*
X0113565Y0007549D01*
X0113198Y0007916D01*
X0113565Y0008283D01*
X0114299Y0008283D01*
X0114666Y0008650D01*
X0114299Y0009017D01*
X0113198Y0009017D01*
X0112456Y0008650D02*
X0112456Y0007916D01*
X0112089Y0007549D01*
X0111355Y0007549D01*
X0110988Y0007916D01*
X0110988Y0008650D01*
X0111355Y0009017D01*
X0112089Y0009017D01*
X0112456Y0008650D01*
X0115772Y0009017D02*
X0116139Y0009017D01*
X0116881Y0008650D02*
X0116881Y0007549D01*
X0117615Y0007549D02*
X0117615Y0008650D01*
X0117248Y0009017D01*
X0116881Y0008650D01*
X0117615Y0008650D02*
X0117982Y0009017D01*
X0118349Y0009017D01*
X0118349Y0007549D01*
X0076349Y0007017D02*
X0076349Y0005549D01*
X0076349Y0006283D02*
X0075615Y0007017D01*
X0075248Y0007017D01*
X0074507Y0006650D02*
X0074140Y0006283D01*
X0073406Y0006283D01*
X0073039Y0005916D01*
X0073406Y0005549D01*
X0074507Y0005549D01*
X0074507Y0006650D02*
X0074140Y0007017D01*
X0073039Y0007017D01*
X0072297Y0007017D02*
X0071563Y0007017D01*
X0071930Y0007384D02*
X0071930Y0005916D01*
X0071563Y0005549D01*
X0068349Y0006916D02*
X0067982Y0006549D01*
X0066881Y0006549D01*
X0066881Y0006182D02*
X0066881Y0008017D01*
X0067982Y0008017D01*
X0068349Y0007650D01*
X0068349Y0006916D01*
X0067615Y0005815D02*
X0067248Y0005815D01*
X0066881Y0006182D01*
X0066139Y0006549D02*
X0066139Y0008017D01*
X0065038Y0008017D01*
X0064671Y0007650D01*
X0064671Y0006549D01*
X0063929Y0006916D02*
X0063929Y0007650D01*
X0063562Y0008017D01*
X0062461Y0008017D01*
X0062461Y0008751D02*
X0062461Y0006549D01*
X0063562Y0006549D01*
X0063929Y0006916D01*
D12*
X0013402Y0008543D02*
X0007496Y0008543D01*
X0007496Y0020354D01*
X0013402Y0020354D01*
X0013402Y0008543D01*
X0012199Y0013699D02*
X0010449Y0015199D01*
X0008699Y0013699D01*
X0012199Y0013699D01*
X0012199Y0015199D02*
X0008699Y0015199D01*
X0025890Y0013937D02*
X0025890Y0024961D01*
X0031008Y0024961D01*
X0031008Y0013937D01*
X0025890Y0013937D01*
D13*
X0010316Y0026999D02*
X0010066Y0026749D01*
X0009566Y0026749D01*
X0009315Y0026999D01*
X0009315Y0028250D01*
X0008843Y0028000D02*
X0008843Y0027750D01*
X0008593Y0027500D01*
X0008092Y0027500D01*
X0007842Y0027250D01*
X0007842Y0026999D01*
X0008092Y0026749D01*
X0008593Y0026749D01*
X0008843Y0026999D01*
X0008843Y0028000D02*
X0008593Y0028250D01*
X0008092Y0028250D01*
X0007842Y0028000D01*
X0007370Y0028250D02*
X0006619Y0028250D01*
X0006369Y0028000D01*
X0006369Y0027750D01*
X0006619Y0027500D01*
X0007370Y0027500D01*
X0007370Y0028250D02*
X0007370Y0026749D01*
X0006619Y0026749D01*
X0006369Y0026999D01*
X0006369Y0027250D01*
X0006619Y0027500D01*
X0005897Y0027250D02*
X0005396Y0026749D01*
X0004896Y0027250D01*
X0004896Y0028250D01*
X0004423Y0027500D02*
X0003422Y0027500D01*
X0005897Y0027250D02*
X0005897Y0028250D01*
X0010316Y0028250D02*
X0010316Y0026999D01*
X0006399Y0020000D02*
X0005648Y0020000D01*
X0005398Y0019750D01*
X0005398Y0018749D01*
X0005648Y0018499D01*
X0006399Y0018499D01*
X0006399Y0020000D01*
X0004926Y0019500D02*
X0004425Y0020000D01*
X0004425Y0018499D01*
X0003925Y0018499D02*
X0004926Y0018499D01*
X0004423Y0035749D02*
X0003422Y0036750D01*
X0003422Y0037000D01*
X0003673Y0037250D01*
X0004173Y0037250D01*
X0004423Y0037000D01*
X0004896Y0036500D02*
X0005897Y0036500D01*
X0006369Y0036250D02*
X0006369Y0037250D01*
X0006369Y0036250D02*
X0006869Y0035749D01*
X0007370Y0036250D01*
X0007370Y0037250D01*
X0007842Y0037000D02*
X0007842Y0036750D01*
X0008092Y0036500D01*
X0008843Y0036500D01*
X0009315Y0036250D02*
X0009315Y0035999D01*
X0009566Y0035749D01*
X0010066Y0035749D01*
X0010316Y0035999D01*
X0010789Y0035999D02*
X0010789Y0037250D01*
X0010316Y0037000D02*
X0010316Y0036750D01*
X0010066Y0036500D01*
X0009566Y0036500D01*
X0009315Y0036250D01*
X0008843Y0035749D02*
X0008092Y0035749D01*
X0007842Y0035999D01*
X0007842Y0036250D01*
X0008092Y0036500D01*
X0007842Y0037000D02*
X0008092Y0037250D01*
X0008843Y0037250D01*
X0008843Y0035749D01*
X0009315Y0037000D02*
X0009566Y0037250D01*
X0010066Y0037250D01*
X0010316Y0037000D01*
X0010789Y0035999D02*
X0011039Y0035749D01*
X0011539Y0035749D01*
X0011790Y0035999D01*
X0011790Y0037250D01*
X0005396Y0037000D02*
X0005396Y0035999D01*
X0004423Y0035749D02*
X0003422Y0035749D01*
X0003673Y0044749D02*
X0003422Y0044999D01*
X0003422Y0046000D01*
X0003673Y0046250D01*
X0004423Y0046250D01*
X0004423Y0044749D01*
X0003673Y0044749D01*
X0004896Y0044749D02*
X0004896Y0046250D01*
X0005897Y0046250D02*
X0004896Y0044749D01*
X0005897Y0044749D02*
X0005897Y0046250D01*
X0006369Y0046000D02*
X0006619Y0046250D01*
X0007120Y0046250D01*
X0007370Y0046000D01*
X0007370Y0044999D01*
X0007120Y0044749D01*
X0006619Y0044749D01*
X0006369Y0044999D01*
X0006369Y0045500D01*
X0006869Y0045500D01*
X0007842Y0045500D02*
X0008092Y0045250D01*
X0008843Y0045250D01*
X0008343Y0045250D02*
X0007842Y0044749D01*
X0007842Y0045500D02*
X0007842Y0046000D01*
X0008092Y0046250D01*
X0008843Y0046250D01*
X0008843Y0044749D01*
X0009315Y0044999D02*
X0009315Y0046000D01*
X0009566Y0046250D01*
X0010066Y0046250D01*
X0010316Y0046000D01*
X0010316Y0044999D01*
X0010066Y0044749D01*
X0009566Y0044749D01*
X0009315Y0044999D01*
X0010789Y0046250D02*
X0011790Y0046250D01*
X0011289Y0046250D02*
X0011289Y0044749D01*
X0012262Y0044999D02*
X0012262Y0046000D01*
X0012512Y0046250D01*
X0013013Y0046250D01*
X0013263Y0046000D01*
X0013263Y0044999D01*
X0013013Y0044749D01*
X0012512Y0044749D01*
X0012262Y0044999D01*
X0013735Y0044749D02*
X0013735Y0046250D01*
X0014236Y0045750D01*
X0014736Y0046250D01*
X0014736Y0044749D01*
X0011848Y0065648D02*
X0011848Y0067150D01*
X0011347Y0066649D01*
X0010847Y0067150D01*
X0010847Y0065648D01*
X0010374Y0065899D02*
X0010124Y0065648D01*
X0009624Y0065648D01*
X0009374Y0065899D01*
X0009374Y0066899D01*
X0009624Y0067150D01*
X0010124Y0067150D01*
X0010374Y0066899D01*
X0010374Y0065899D01*
X0010316Y0065999D02*
X0010066Y0065749D01*
X0009566Y0065749D01*
X0009315Y0065999D01*
X0009315Y0067250D01*
X0008901Y0067150D02*
X0007900Y0067150D01*
X0007842Y0067000D02*
X0008092Y0067250D01*
X0008593Y0067250D01*
X0008843Y0067000D01*
X0008843Y0066750D01*
X0008593Y0066500D01*
X0008092Y0066500D01*
X0007842Y0066250D01*
X0007842Y0065999D01*
X0008092Y0065749D01*
X0008593Y0065749D01*
X0008843Y0065999D01*
X0008401Y0065648D02*
X0008401Y0067150D01*
X0007428Y0066899D02*
X0007428Y0065899D01*
X0007178Y0065648D01*
X0006677Y0065648D01*
X0006427Y0065899D01*
X0006427Y0066899D01*
X0006677Y0067150D01*
X0007178Y0067150D01*
X0007428Y0066899D01*
X0007370Y0067250D02*
X0006619Y0067250D01*
X0006369Y0067000D01*
X0006369Y0066750D01*
X0006619Y0066500D01*
X0007370Y0066500D01*
X0007370Y0067250D02*
X0007370Y0065749D01*
X0006619Y0065749D01*
X0006369Y0065999D01*
X0006369Y0066250D01*
X0006619Y0066500D01*
X0005955Y0066149D02*
X0005204Y0066149D01*
X0004954Y0066399D01*
X0004954Y0066899D01*
X0005204Y0067150D01*
X0005955Y0067150D01*
X0005955Y0065648D01*
X0005396Y0065749D02*
X0004896Y0066250D01*
X0004896Y0067250D01*
X0004423Y0066500D02*
X0003422Y0066500D01*
X0003923Y0067000D02*
X0003923Y0065999D01*
X0004954Y0065648D02*
X0005454Y0066149D01*
X0005396Y0065749D02*
X0005897Y0066250D01*
X0005897Y0067250D01*
X0010316Y0067250D02*
X0010316Y0065999D01*
X0041899Y0045443D02*
X0042899Y0045443D01*
X0042399Y0044943D02*
X0042399Y0045944D01*
X0041899Y0044471D02*
X0042899Y0044471D01*
X0043150Y0044220D01*
X0043150Y0043470D01*
X0041648Y0043470D01*
X0041648Y0044220D01*
X0041899Y0044471D01*
X0041899Y0042997D02*
X0041648Y0042747D01*
X0041648Y0041997D01*
X0043150Y0041997D01*
X0043150Y0042747D01*
X0042899Y0042997D01*
X0042649Y0042997D01*
X0042399Y0042747D01*
X0042399Y0041997D01*
X0042149Y0041524D02*
X0041899Y0041524D01*
X0041648Y0041274D01*
X0041648Y0040773D01*
X0041899Y0040523D01*
X0041899Y0040051D02*
X0043150Y0040051D01*
X0042899Y0040523D02*
X0043150Y0040773D01*
X0043150Y0041274D01*
X0042899Y0041524D01*
X0042399Y0041274D02*
X0042149Y0041524D01*
X0042399Y0041274D02*
X0042399Y0040773D01*
X0042649Y0040523D01*
X0042899Y0040523D01*
X0041899Y0040051D02*
X0041648Y0039801D01*
X0041648Y0039300D01*
X0041899Y0039050D01*
X0043150Y0039050D01*
X0042399Y0042747D02*
X0042149Y0042997D01*
X0041899Y0042997D01*
X0051499Y0041473D02*
X0051499Y0040472D01*
X0052500Y0041473D01*
X0052750Y0041473D01*
X0053000Y0041223D01*
X0053000Y0040722D01*
X0052750Y0040472D01*
X0052750Y0040000D02*
X0052249Y0040000D01*
X0051999Y0039749D01*
X0051999Y0038999D01*
X0051499Y0038999D02*
X0053000Y0038999D01*
X0053000Y0039749D01*
X0052750Y0040000D01*
X0051999Y0039499D02*
X0051499Y0040000D01*
X0048499Y0024473D02*
X0048499Y0023472D01*
X0048499Y0023000D02*
X0048999Y0022499D01*
X0048999Y0022749D02*
X0048999Y0021999D01*
X0048499Y0021999D02*
X0050000Y0021999D01*
X0050000Y0022749D01*
X0049750Y0023000D01*
X0049249Y0023000D01*
X0048999Y0022749D01*
X0049500Y0023472D02*
X0050000Y0023972D01*
X0048499Y0023972D01*
X0047399Y0015944D02*
X0047399Y0014943D01*
X0046899Y0014471D02*
X0047899Y0014471D01*
X0048150Y0014220D01*
X0048150Y0013470D01*
X0046648Y0013470D01*
X0046648Y0014220D01*
X0046899Y0014471D01*
X0046899Y0012997D02*
X0046648Y0012747D01*
X0046648Y0011997D01*
X0048150Y0011997D01*
X0048150Y0012747D01*
X0047899Y0012997D01*
X0047649Y0012997D01*
X0047399Y0012747D01*
X0047399Y0011997D01*
X0047149Y0011524D02*
X0046899Y0011524D01*
X0046648Y0011274D01*
X0046648Y0010773D01*
X0046899Y0010523D01*
X0046899Y0010051D02*
X0048150Y0010051D01*
X0047899Y0010523D02*
X0047649Y0010523D01*
X0047399Y0010773D01*
X0047399Y0011274D01*
X0047149Y0011524D01*
X0047899Y0011524D02*
X0048150Y0011274D01*
X0048150Y0010773D01*
X0047899Y0010523D01*
X0046899Y0010051D02*
X0046648Y0009801D01*
X0046648Y0009300D01*
X0046899Y0009050D01*
X0048150Y0009050D01*
X0047399Y0012747D02*
X0047149Y0012997D01*
X0046899Y0012997D01*
X0049149Y0081050D02*
X0048648Y0081550D01*
X0049149Y0082051D01*
X0050150Y0082051D01*
X0050150Y0083024D02*
X0050150Y0083524D01*
X0050150Y0083274D02*
X0048899Y0083274D01*
X0048648Y0083024D01*
X0048648Y0082773D01*
X0048899Y0082523D01*
X0049149Y0081050D02*
X0050150Y0081050D01*
X0049649Y0083997D02*
X0050150Y0084497D01*
X0048648Y0084497D01*
X0048648Y0083997D02*
X0048648Y0084997D01*
X0058648Y0083024D02*
X0058648Y0082773D01*
X0058899Y0082523D01*
X0059149Y0082051D02*
X0060150Y0082051D01*
X0060150Y0083024D02*
X0060150Y0083524D01*
X0060150Y0083274D02*
X0058899Y0083274D01*
X0058648Y0083024D01*
X0059149Y0082051D02*
X0058648Y0081550D01*
X0059149Y0081050D01*
X0060150Y0081050D01*
D14*
X0048449Y0042449D03*
X0045449Y0025449D03*
D15*
X0026957Y0031753D02*
X0023887Y0031753D01*
X0025422Y0031753D02*
X0025422Y0027149D01*
X0022353Y0027149D02*
X0019283Y0030218D01*
X0019283Y0030985D01*
X0020051Y0031753D01*
X0021585Y0031753D01*
X0022353Y0030985D01*
X0022353Y0027149D02*
X0019283Y0027149D01*
X0050983Y0071874D02*
X0050216Y0072641D01*
X0050216Y0074176D01*
X0050983Y0074943D01*
X0054820Y0074943D01*
X0054052Y0076478D02*
X0054820Y0077245D01*
X0054820Y0078780D01*
X0054052Y0079547D01*
X0053285Y0079547D01*
X0050216Y0076478D01*
X0050216Y0079547D01*
X0050983Y0071874D02*
X0054820Y0071874D01*
X0032749Y0087753D02*
X0029680Y0087753D01*
X0031214Y0087753D02*
X0031214Y0083149D01*
X0028145Y0083149D02*
X0025076Y0083149D01*
X0026610Y0083149D02*
X0026610Y0087753D01*
X0028145Y0086218D01*
D16*
X0032484Y0023189D03*
X0024413Y0019449D03*
X0032484Y0015709D03*
D17*
X0058953Y0013953D02*
X0121945Y0013953D01*
X0121945Y0076945D01*
X0058953Y0076945D01*
X0058953Y0013953D01*
X0084543Y0029701D02*
X0092417Y0029701D01*
X0092417Y0037575D01*
X0084543Y0037575D01*
X0084543Y0029701D01*
X0082575Y0045449D02*
X0082575Y0061197D01*
X0098323Y0061197D01*
X0098323Y0045449D01*
X0082575Y0045449D01*
D18*
X0067622Y0062739D02*
X0069090Y0064207D01*
X0064686Y0064207D01*
X0064686Y0062739D02*
X0064686Y0065675D01*
M02*
