%
M48
M72
T01C0.01200
%
T01
X7049Y27049
X13049Y36049
X29249Y37849
X29249Y32449
X44249Y38449
X53249Y46249
X59249Y43849
X62249Y40849
X62849Y37849
X57449Y28849
X53849Y30649
X52049Y24049
X61649Y18049
X76049Y27649
X79049Y28849
X82049Y28849
X80849Y24049
X66449Y47449
X53249Y63649
X58649Y66049
X58049Y74449
X37649Y68449
X20249Y63649
X17849Y60049
X15449Y62449
X12449Y71449
X12449Y76249
X7649Y54049
X36449Y51649
X82049Y67249
X85049Y82849
X112649Y55849
X117449Y38449
X117449Y31249
X118049Y9049
M30
