G75*
%MOIN*%
%OFA0B0*%
%FSLAX25Y25*%
%IPPOS*%
%LPD*%
%AMOC8*
5,1,8,0,0,1.08239X$1,22.5*
%
%ADD10R,0.04731X0.04337*%
%ADD11R,0.06400X0.05400*%
%ADD12R,0.05400X0.06400*%
%ADD13R,0.03550X0.05124*%
%ADD14R,0.02369X0.02959*%
%ADD15R,0.06306X0.02369*%
%ADD16R,0.02369X0.06306*%
%ADD17R,0.02565X0.05124*%
%ADD18C,0.02172*%
%ADD19R,0.13760X0.06040*%
D10*
X0034102Y0053500D03*
X0035102Y0059500D03*
X0041795Y0059500D03*
X0040795Y0053500D03*
X0038102Y0065500D03*
X0044795Y0065500D03*
X0047102Y0073500D03*
X0053795Y0073500D03*
X0025795Y0060500D03*
X0025795Y0054500D03*
X0019102Y0054500D03*
X0019102Y0060500D03*
X0083102Y0007500D03*
X0089795Y0007500D03*
D11*
X0007449Y0013500D03*
X0007449Y0022500D03*
X0007449Y0054500D03*
X0007449Y0063500D03*
X0119449Y0064500D03*
X0119449Y0057500D03*
X0119449Y0045500D03*
X0119449Y0038500D03*
X0119449Y0029500D03*
X0119449Y0022500D03*
X0119449Y0015500D03*
X0119449Y0008500D03*
D12*
X0074555Y0008288D03*
X0054449Y0008500D03*
X0061449Y0072500D03*
X0038449Y0072500D03*
X0089449Y0072500D03*
X0105449Y0072500D03*
X0112449Y0072500D03*
X0119449Y0072500D03*
D13*
X0029992Y0072500D03*
X0022906Y0072500D03*
X0015992Y0072500D03*
X0008906Y0072500D03*
X0021906Y0015500D03*
X0021906Y0008500D03*
X0028992Y0008500D03*
X0028992Y0015500D03*
D14*
G36*
X0093414Y0064599D02*
X0091739Y0066274D01*
X0093830Y0068365D01*
X0095505Y0066690D01*
X0093414Y0064599D01*
G37*
G36*
X0095641Y0062372D02*
X0093966Y0064047D01*
X0096057Y0066138D01*
X0097732Y0064463D01*
X0095641Y0062372D01*
G37*
G36*
X0097869Y0060145D02*
X0096194Y0061820D01*
X0098285Y0063911D01*
X0099960Y0062236D01*
X0097869Y0060145D01*
G37*
G36*
X0100096Y0057918D02*
X0098421Y0059593D01*
X0100512Y0061684D01*
X0102187Y0060009D01*
X0100096Y0057918D01*
G37*
G36*
X0103287Y0054218D02*
X0101612Y0055893D01*
X0103703Y0057984D01*
X0105378Y0056309D01*
X0103287Y0054218D01*
G37*
G36*
X0105514Y0051991D02*
X0103839Y0053666D01*
X0105930Y0055757D01*
X0107605Y0054082D01*
X0105514Y0051991D01*
G37*
G36*
X0107741Y0049764D02*
X0106066Y0051439D01*
X0108157Y0053530D01*
X0109832Y0051855D01*
X0107741Y0049764D01*
G37*
G36*
X0109969Y0047536D02*
X0108294Y0049211D01*
X0110385Y0051302D01*
X0112060Y0049627D01*
X0109969Y0047536D01*
G37*
G36*
X0113448Y0051016D02*
X0111773Y0052691D01*
X0113864Y0054782D01*
X0115539Y0053107D01*
X0113448Y0051016D01*
G37*
G36*
X0111221Y0053243D02*
X0109546Y0054918D01*
X0111637Y0057009D01*
X0113312Y0055334D01*
X0111221Y0053243D01*
G37*
G36*
X0108994Y0055470D02*
X0107319Y0057145D01*
X0109410Y0059236D01*
X0111085Y0057561D01*
X0108994Y0055470D01*
G37*
G36*
X0106767Y0057698D02*
X0105092Y0059373D01*
X0107183Y0061464D01*
X0108858Y0059789D01*
X0106767Y0057698D01*
G37*
G36*
X0103576Y0061397D02*
X0101901Y0063072D01*
X0103992Y0065163D01*
X0105667Y0063488D01*
X0103576Y0061397D01*
G37*
G36*
X0101348Y0063625D02*
X0099673Y0065300D01*
X0101764Y0067391D01*
X0103439Y0065716D01*
X0101348Y0063625D01*
G37*
G36*
X0099121Y0065852D02*
X0097446Y0067527D01*
X0099537Y0069618D01*
X0101212Y0067943D01*
X0099121Y0065852D01*
G37*
G36*
X0096894Y0068079D02*
X0095219Y0069754D01*
X0097310Y0071845D01*
X0098985Y0070170D01*
X0096894Y0068079D01*
G37*
G36*
X0105167Y0029789D02*
X0106842Y0031464D01*
X0108933Y0029373D01*
X0107258Y0027698D01*
X0105167Y0029789D01*
G37*
G36*
X0102939Y0027561D02*
X0104614Y0029236D01*
X0106705Y0027145D01*
X0105030Y0025470D01*
X0102939Y0027561D01*
G37*
G36*
X0100712Y0025334D02*
X0102387Y0027009D01*
X0104478Y0024918D01*
X0102803Y0023243D01*
X0100712Y0025334D01*
G37*
G36*
X0098485Y0023107D02*
X0100160Y0024782D01*
X0102251Y0022691D01*
X0100576Y0021016D01*
X0098485Y0023107D01*
G37*
G36*
X0101965Y0019627D02*
X0103640Y0021302D01*
X0105731Y0019211D01*
X0104056Y0017536D01*
X0101965Y0019627D01*
G37*
G36*
X0104192Y0021855D02*
X0105867Y0023530D01*
X0107958Y0021439D01*
X0106283Y0019764D01*
X0104192Y0021855D01*
G37*
G36*
X0106419Y0024082D02*
X0108094Y0025757D01*
X0110185Y0023666D01*
X0108510Y0021991D01*
X0106419Y0024082D01*
G37*
G36*
X0108646Y0026309D02*
X0110321Y0027984D01*
X0112412Y0025893D01*
X0110737Y0024218D01*
X0108646Y0026309D01*
G37*
D15*
G36*
X0104797Y0047903D02*
X0100339Y0043445D01*
X0098665Y0045119D01*
X0103123Y0049577D01*
X0104797Y0047903D01*
G37*
G36*
X0102570Y0050130D02*
X0098112Y0045672D01*
X0096438Y0047346D01*
X0100896Y0051804D01*
X0102570Y0050130D01*
G37*
G36*
X0100343Y0052357D02*
X0095885Y0047899D01*
X0094211Y0049573D01*
X0098669Y0054031D01*
X0100343Y0052357D01*
G37*
G36*
X0098116Y0054584D02*
X0093658Y0050126D01*
X0091984Y0051800D01*
X0096442Y0056258D01*
X0098116Y0054584D01*
G37*
G36*
X0095888Y0056811D02*
X0091430Y0052353D01*
X0089756Y0054027D01*
X0094214Y0058485D01*
X0095888Y0056811D01*
G37*
G36*
X0093661Y0059039D02*
X0089203Y0054581D01*
X0087529Y0056255D01*
X0091987Y0060713D01*
X0093661Y0059039D01*
G37*
G36*
X0091434Y0061266D02*
X0086976Y0056808D01*
X0085302Y0058482D01*
X0089760Y0062940D01*
X0091434Y0061266D01*
G37*
G36*
X0089207Y0063493D02*
X0084749Y0059035D01*
X0083075Y0060709D01*
X0087533Y0065167D01*
X0089207Y0063493D01*
G37*
G36*
X0086980Y0065720D02*
X0082522Y0061262D01*
X0080848Y0062936D01*
X0085306Y0067394D01*
X0086980Y0065720D01*
G37*
G36*
X0084753Y0067947D02*
X0080295Y0063489D01*
X0078621Y0065163D01*
X0083079Y0069621D01*
X0084753Y0067947D01*
G37*
G36*
X0082526Y0070174D02*
X0078068Y0065716D01*
X0076394Y0067390D01*
X0080852Y0071848D01*
X0082526Y0070174D01*
G37*
G36*
X0050233Y0037881D02*
X0045775Y0033423D01*
X0044101Y0035097D01*
X0048559Y0039555D01*
X0050233Y0037881D01*
G37*
G36*
X0052460Y0035654D02*
X0048002Y0031196D01*
X0046328Y0032870D01*
X0050786Y0037328D01*
X0052460Y0035654D01*
G37*
G36*
X0054687Y0033427D02*
X0050229Y0028969D01*
X0048555Y0030643D01*
X0053013Y0035101D01*
X0054687Y0033427D01*
G37*
G36*
X0056914Y0031200D02*
X0052456Y0026742D01*
X0050782Y0028416D01*
X0055240Y0032874D01*
X0056914Y0031200D01*
G37*
G36*
X0059141Y0028973D02*
X0054683Y0024515D01*
X0053009Y0026189D01*
X0057467Y0030647D01*
X0059141Y0028973D01*
G37*
G36*
X0061368Y0026745D02*
X0056910Y0022287D01*
X0055236Y0023961D01*
X0059694Y0028419D01*
X0061368Y0026745D01*
G37*
G36*
X0063595Y0024518D02*
X0059137Y0020060D01*
X0057463Y0021734D01*
X0061921Y0026192D01*
X0063595Y0024518D01*
G37*
G36*
X0065822Y0022291D02*
X0061364Y0017833D01*
X0059690Y0019507D01*
X0064148Y0023965D01*
X0065822Y0022291D01*
G37*
G36*
X0068050Y0020064D02*
X0063592Y0015606D01*
X0061918Y0017280D01*
X0066376Y0021738D01*
X0068050Y0020064D01*
G37*
G36*
X0070277Y0017837D02*
X0065819Y0013379D01*
X0064145Y0015053D01*
X0068603Y0019511D01*
X0070277Y0017837D01*
G37*
G36*
X0072504Y0015610D02*
X0068046Y0011152D01*
X0066372Y0012826D01*
X0070830Y0017284D01*
X0072504Y0015610D01*
G37*
D16*
G36*
X0082526Y0012826D02*
X0080852Y0011152D01*
X0076394Y0015610D01*
X0078068Y0017284D01*
X0082526Y0012826D01*
G37*
G36*
X0084753Y0015053D02*
X0083079Y0013379D01*
X0078621Y0017837D01*
X0080295Y0019511D01*
X0084753Y0015053D01*
G37*
G36*
X0086980Y0017280D02*
X0085306Y0015606D01*
X0080848Y0020064D01*
X0082522Y0021738D01*
X0086980Y0017280D01*
G37*
G36*
X0089207Y0019507D02*
X0087533Y0017833D01*
X0083075Y0022291D01*
X0084749Y0023965D01*
X0089207Y0019507D01*
G37*
G36*
X0091434Y0021734D02*
X0089760Y0020060D01*
X0085302Y0024518D01*
X0086976Y0026192D01*
X0091434Y0021734D01*
G37*
G36*
X0093661Y0023961D02*
X0091987Y0022287D01*
X0087529Y0026745D01*
X0089203Y0028419D01*
X0093661Y0023961D01*
G37*
G36*
X0095888Y0026189D02*
X0094214Y0024515D01*
X0089756Y0028973D01*
X0091430Y0030647D01*
X0095888Y0026189D01*
G37*
G36*
X0098116Y0028416D02*
X0096442Y0026742D01*
X0091984Y0031200D01*
X0093658Y0032874D01*
X0098116Y0028416D01*
G37*
G36*
X0100343Y0030643D02*
X0098669Y0028969D01*
X0094211Y0033427D01*
X0095885Y0035101D01*
X0100343Y0030643D01*
G37*
G36*
X0102570Y0032870D02*
X0100896Y0031196D01*
X0096438Y0035654D01*
X0098112Y0037328D01*
X0102570Y0032870D01*
G37*
G36*
X0104797Y0035097D02*
X0103123Y0033423D01*
X0098665Y0037881D01*
X0100339Y0039555D01*
X0104797Y0035097D01*
G37*
G36*
X0070277Y0065163D02*
X0068603Y0063489D01*
X0064145Y0067947D01*
X0065819Y0069621D01*
X0070277Y0065163D01*
G37*
G36*
X0072504Y0067390D02*
X0070830Y0065716D01*
X0066372Y0070174D01*
X0068046Y0071848D01*
X0072504Y0067390D01*
G37*
G36*
X0068050Y0062936D02*
X0066376Y0061262D01*
X0061918Y0065720D01*
X0063592Y0067394D01*
X0068050Y0062936D01*
G37*
G36*
X0065822Y0060709D02*
X0064148Y0059035D01*
X0059690Y0063493D01*
X0061364Y0065167D01*
X0065822Y0060709D01*
G37*
G36*
X0063595Y0058482D02*
X0061921Y0056808D01*
X0057463Y0061266D01*
X0059137Y0062940D01*
X0063595Y0058482D01*
G37*
G36*
X0061368Y0056255D02*
X0059694Y0054581D01*
X0055236Y0059039D01*
X0056910Y0060713D01*
X0061368Y0056255D01*
G37*
G36*
X0059141Y0054027D02*
X0057467Y0052353D01*
X0053009Y0056811D01*
X0054683Y0058485D01*
X0059141Y0054027D01*
G37*
G36*
X0056914Y0051800D02*
X0055240Y0050126D01*
X0050782Y0054584D01*
X0052456Y0056258D01*
X0056914Y0051800D01*
G37*
G36*
X0054687Y0049573D02*
X0053013Y0047899D01*
X0048555Y0052357D01*
X0050229Y0054031D01*
X0054687Y0049573D01*
G37*
G36*
X0052460Y0047346D02*
X0050786Y0045672D01*
X0046328Y0050130D01*
X0048002Y0051804D01*
X0052460Y0047346D01*
G37*
G36*
X0050233Y0045119D02*
X0048559Y0043445D01*
X0044101Y0047903D01*
X0045775Y0049577D01*
X0050233Y0045119D01*
G37*
D17*
X0037189Y0037619D03*
X0029709Y0037619D03*
X0022189Y0037619D03*
X0014709Y0037619D03*
X0014709Y0027381D03*
X0018449Y0027381D03*
X0022189Y0027381D03*
X0029709Y0027381D03*
X0033449Y0027381D03*
X0037189Y0027381D03*
D18*
X0096724Y0012364D02*
X0096724Y0006636D01*
X0101449Y0006636D02*
X0101449Y0012364D01*
X0106173Y0012364D02*
X0106173Y0006636D01*
D19*
X0101459Y0009510D03*
M02*
