G75*
%MOIN*%
%OFA0B0*%
%FSLAX25Y25*%
%IPPOS*%
%LPD*%
%AMOC8*
5,1,8,0,0,1.08239X$1,22.5*
%
%ADD10C,0.00200*%
%ADD11R,0.01800X0.03000*%
%ADD12C,0.00000*%
%ADD13C,0.00600*%
%ADD14C,0.00800*%
%ADD15C,0.01000*%
D10*
X0004916Y0007600D02*
X0005650Y0007600D01*
X0006017Y0007967D01*
X0006759Y0007600D02*
X0006759Y0009068D01*
X0007493Y0009802D01*
X0008227Y0009068D01*
X0008227Y0007600D01*
X0008969Y0007600D02*
X0008969Y0009802D01*
X0010070Y0009802D01*
X0010436Y0009435D01*
X0010436Y0008701D01*
X0010070Y0008334D01*
X0008969Y0008334D01*
X0009703Y0008334D02*
X0010436Y0007600D01*
X0008227Y0008701D02*
X0006759Y0008701D01*
X0006017Y0009435D02*
X0005650Y0009802D01*
X0004916Y0009802D01*
X0004549Y0009435D01*
X0004549Y0007967D01*
X0004916Y0007600D01*
X0011549Y0011600D02*
X0012650Y0011600D01*
X0013017Y0011967D01*
X0013017Y0012334D01*
X0012650Y0012701D01*
X0011549Y0012701D01*
X0012650Y0012701D02*
X0013017Y0013068D01*
X0013017Y0013435D01*
X0012650Y0013802D01*
X0011549Y0013802D01*
X0011549Y0011600D01*
X0013759Y0011600D02*
X0013759Y0013068D01*
X0014493Y0013802D01*
X0015227Y0013068D01*
X0015227Y0011600D01*
X0015227Y0012701D02*
X0013759Y0012701D01*
X0015969Y0013802D02*
X0017436Y0013802D01*
X0016703Y0013802D02*
X0016703Y0011600D01*
X0016699Y0009802D02*
X0015965Y0009802D01*
X0015598Y0009435D01*
X0014856Y0009802D02*
X0014856Y0008334D01*
X0014122Y0007600D01*
X0013388Y0008334D01*
X0013388Y0009802D01*
X0015598Y0007600D02*
X0017066Y0009068D01*
X0017066Y0009435D01*
X0016699Y0009802D01*
X0017808Y0007967D02*
X0018175Y0007967D01*
X0018175Y0007600D01*
X0017808Y0007600D01*
X0017808Y0007967D01*
X0017066Y0007600D02*
X0015598Y0007600D01*
X0018913Y0007967D02*
X0020381Y0009435D01*
X0020381Y0007967D01*
X0020014Y0007600D01*
X0019280Y0007600D01*
X0018913Y0007967D01*
X0018913Y0009435D01*
X0019280Y0009802D01*
X0020014Y0009802D01*
X0020381Y0009435D01*
X0019646Y0012701D02*
X0018178Y0012701D01*
X0015977Y0021079D02*
X0015977Y0023281D01*
X0015243Y0023281D02*
X0016711Y0023281D01*
X0017453Y0022180D02*
X0018921Y0022180D01*
X0018187Y0022914D02*
X0018187Y0021446D01*
X0014501Y0021079D02*
X0014501Y0022547D01*
X0013767Y0023281D01*
X0013033Y0022547D01*
X0013033Y0021079D01*
X0012291Y0021446D02*
X0011924Y0021079D01*
X0010823Y0021079D01*
X0010823Y0023281D01*
X0011924Y0023281D01*
X0012291Y0022914D01*
X0012291Y0022547D01*
X0011924Y0022180D01*
X0010823Y0022180D01*
X0011924Y0022180D02*
X0012291Y0021813D01*
X0012291Y0021446D01*
X0013033Y0022180D02*
X0014501Y0022180D01*
X0030359Y0022379D02*
X0030726Y0022012D01*
X0031460Y0022012D01*
X0031827Y0022379D01*
X0031827Y0024214D01*
X0032569Y0023113D02*
X0033670Y0023113D01*
X0034037Y0022746D01*
X0034037Y0022379D01*
X0033670Y0022012D01*
X0032936Y0022012D01*
X0032569Y0022379D01*
X0032569Y0023113D01*
X0033303Y0023847D01*
X0034037Y0024214D01*
X0030359Y0024214D02*
X0030359Y0022379D01*
X0031616Y0016080D02*
X0031249Y0015713D01*
X0031249Y0014245D01*
X0031616Y0013878D01*
X0032350Y0013878D01*
X0032717Y0014245D01*
X0033459Y0013878D02*
X0034927Y0013878D01*
X0034193Y0013878D02*
X0034193Y0016080D01*
X0033459Y0015346D01*
X0032717Y0015713D02*
X0032350Y0016080D01*
X0031616Y0016080D01*
X0031489Y0008962D02*
X0031122Y0008595D01*
X0031122Y0007128D01*
X0031489Y0006761D01*
X0032223Y0006761D01*
X0032590Y0007128D01*
X0033332Y0006761D02*
X0034800Y0008228D01*
X0034800Y0008595D01*
X0034433Y0008962D01*
X0033699Y0008962D01*
X0033332Y0008595D01*
X0032590Y0008595D02*
X0032223Y0008962D01*
X0031489Y0008962D01*
X0033332Y0006761D02*
X0034800Y0006761D01*
X0048843Y0009379D02*
X0050311Y0009379D01*
X0049577Y0009379D02*
X0049577Y0011581D01*
X0048843Y0010847D01*
X0051053Y0011214D02*
X0051420Y0011581D01*
X0052154Y0011581D01*
X0052521Y0011214D01*
X0051053Y0009746D01*
X0051420Y0009379D01*
X0052154Y0009379D01*
X0052521Y0009746D01*
X0052521Y0011214D01*
X0051053Y0011214D02*
X0051053Y0009746D01*
X0064932Y0008454D02*
X0064932Y0006252D01*
X0064932Y0006986D02*
X0066033Y0006986D01*
X0066400Y0007353D01*
X0066400Y0008087D01*
X0066033Y0008454D01*
X0064932Y0008454D01*
X0065666Y0006986D02*
X0066400Y0006252D01*
X0067142Y0006619D02*
X0067509Y0006252D01*
X0068243Y0006252D01*
X0068610Y0006619D01*
X0068610Y0006986D01*
X0068243Y0007353D01*
X0067509Y0007353D01*
X0067142Y0007720D01*
X0067142Y0008087D01*
X0067509Y0008454D01*
X0068243Y0008454D01*
X0068610Y0008087D01*
X0069352Y0008454D02*
X0070820Y0008454D01*
X0070086Y0008454D02*
X0070086Y0006252D01*
X0083592Y0010065D02*
X0083592Y0012267D01*
X0084693Y0012267D01*
X0085060Y0011900D01*
X0085060Y0011166D01*
X0084693Y0010799D01*
X0083592Y0010799D01*
X0084326Y0010799D02*
X0085060Y0010065D01*
X0085802Y0010065D02*
X0087270Y0010065D01*
X0086536Y0010065D02*
X0086536Y0012267D01*
X0085802Y0011533D01*
X0088012Y0011900D02*
X0088379Y0012267D01*
X0089113Y0012267D01*
X0089480Y0011900D01*
X0089480Y0011533D01*
X0088012Y0010065D01*
X0089480Y0010065D01*
X0109284Y0014621D02*
X0110385Y0014621D01*
X0110752Y0014988D01*
X0110752Y0015355D01*
X0110385Y0015722D01*
X0109284Y0015722D01*
X0109284Y0014621D02*
X0109284Y0016823D01*
X0110385Y0016823D01*
X0110752Y0016456D01*
X0110752Y0016089D01*
X0110385Y0015722D01*
X0111494Y0015355D02*
X0112962Y0016823D01*
X0113704Y0016823D02*
X0113704Y0014621D01*
X0113704Y0015355D02*
X0114805Y0015355D01*
X0115172Y0015722D01*
X0115172Y0016456D01*
X0114805Y0016823D01*
X0113704Y0016823D01*
X0114438Y0015355D02*
X0115172Y0014621D01*
X0112962Y0014621D02*
X0111861Y0015722D01*
X0111494Y0016823D02*
X0111494Y0014621D01*
X0111385Y0009823D02*
X0111752Y0009456D01*
X0111752Y0009089D01*
X0111385Y0008722D01*
X0110284Y0008722D01*
X0110284Y0007621D02*
X0111385Y0007621D01*
X0111752Y0007988D01*
X0111752Y0008355D01*
X0111385Y0008722D01*
X0111385Y0009823D02*
X0110284Y0009823D01*
X0110284Y0007621D01*
X0112494Y0007621D02*
X0112494Y0009823D01*
X0112861Y0008722D02*
X0113962Y0007621D01*
X0114704Y0007621D02*
X0116172Y0007621D01*
X0114704Y0007621D02*
X0114704Y0009823D01*
X0113962Y0009823D02*
X0112494Y0008355D01*
X0112385Y0021621D02*
X0111284Y0021621D01*
X0111284Y0023823D01*
X0112385Y0023823D01*
X0112752Y0023456D01*
X0112752Y0023089D01*
X0112385Y0022722D01*
X0111284Y0022722D01*
X0112385Y0022722D02*
X0112752Y0022355D01*
X0112752Y0021988D01*
X0112385Y0021621D01*
X0113494Y0021621D02*
X0113494Y0023823D01*
X0114595Y0023823D01*
X0114962Y0023456D01*
X0114962Y0022722D01*
X0114595Y0022355D01*
X0113494Y0022355D01*
X0114228Y0022355D02*
X0114962Y0021621D01*
X0114494Y0028621D02*
X0115962Y0028621D01*
X0114494Y0028621D02*
X0114494Y0030823D01*
X0113752Y0030456D02*
X0113752Y0030089D01*
X0113385Y0029722D01*
X0112284Y0029722D01*
X0112284Y0028621D02*
X0112284Y0030823D01*
X0113385Y0030823D01*
X0113752Y0030456D01*
X0113385Y0029722D02*
X0113752Y0029355D01*
X0113752Y0028988D01*
X0113385Y0028621D01*
X0112284Y0028621D01*
X0109740Y0030897D02*
X0109373Y0030530D01*
X0108640Y0030530D01*
X0108273Y0030897D01*
X0108273Y0031264D01*
X0108640Y0031631D01*
X0109373Y0031631D01*
X0109740Y0031264D01*
X0109740Y0030897D01*
X0109373Y0031631D02*
X0109740Y0031998D01*
X0109740Y0032365D01*
X0109373Y0032732D01*
X0108640Y0032732D01*
X0108273Y0032365D01*
X0108273Y0031998D01*
X0108640Y0031631D01*
X0107531Y0031631D02*
X0107164Y0031264D01*
X0106063Y0031264D01*
X0106797Y0031264D02*
X0107531Y0030530D01*
X0107531Y0031631D02*
X0107531Y0032365D01*
X0107164Y0032732D01*
X0106063Y0032732D01*
X0106063Y0030530D01*
X0114284Y0037621D02*
X0114284Y0037988D01*
X0115752Y0039456D01*
X0115752Y0039823D01*
X0114284Y0039823D01*
X0114651Y0044621D02*
X0114284Y0044988D01*
X0114284Y0045355D01*
X0114651Y0045722D01*
X0115385Y0045722D01*
X0115752Y0045355D01*
X0115752Y0044988D01*
X0115385Y0044621D01*
X0114651Y0044621D01*
X0114651Y0045722D02*
X0114284Y0046089D01*
X0114284Y0046456D01*
X0114651Y0046823D01*
X0115385Y0046823D01*
X0115752Y0046456D01*
X0115752Y0046089D01*
X0115385Y0045722D01*
X0110740Y0046365D02*
X0109273Y0044897D01*
X0109273Y0044530D01*
X0108531Y0044530D02*
X0107797Y0045264D01*
X0108164Y0045264D02*
X0107063Y0045264D01*
X0107063Y0044530D02*
X0107063Y0046732D01*
X0108164Y0046732D01*
X0108531Y0046365D01*
X0108531Y0045631D01*
X0108164Y0045264D01*
X0109273Y0046732D02*
X0110740Y0046732D01*
X0110740Y0046365D01*
X0119284Y0052988D02*
X0119651Y0052621D01*
X0120385Y0052621D01*
X0120752Y0052988D01*
X0120752Y0053355D01*
X0120385Y0053722D01*
X0119284Y0053722D01*
X0119284Y0052988D01*
X0119284Y0053722D02*
X0120018Y0054456D01*
X0120752Y0054823D01*
X0114385Y0062621D02*
X0113651Y0062621D01*
X0113284Y0062988D01*
X0113284Y0063722D02*
X0114018Y0064089D01*
X0114385Y0064089D01*
X0114752Y0063722D01*
X0114752Y0062988D01*
X0114385Y0062621D01*
X0113284Y0063722D02*
X0113284Y0064823D01*
X0114752Y0064823D01*
X0112752Y0066988D02*
X0112752Y0067355D01*
X0112385Y0067722D01*
X0112018Y0067722D01*
X0112385Y0067722D02*
X0112752Y0068089D01*
X0112752Y0068456D01*
X0112385Y0068823D01*
X0111651Y0068823D01*
X0111284Y0068456D01*
X0111284Y0066988D02*
X0111651Y0066621D01*
X0112385Y0066621D01*
X0112752Y0066988D01*
X0115284Y0068722D02*
X0116752Y0068722D01*
X0116385Y0067621D02*
X0116385Y0069823D01*
X0115284Y0068722D01*
X0102752Y0071621D02*
X0101284Y0071621D01*
X0102752Y0073089D01*
X0102752Y0073456D01*
X0102385Y0073823D01*
X0101651Y0073823D01*
X0101284Y0073456D01*
X0099740Y0073631D02*
X0098640Y0073631D01*
X0098273Y0073998D01*
X0098273Y0074365D01*
X0098640Y0074732D01*
X0099373Y0074732D01*
X0099740Y0074365D01*
X0099740Y0072897D01*
X0099373Y0072530D01*
X0098640Y0072530D01*
X0098273Y0072897D01*
X0097531Y0072530D02*
X0096797Y0073264D01*
X0097164Y0073264D02*
X0096063Y0073264D01*
X0096063Y0072530D02*
X0096063Y0074732D01*
X0097164Y0074732D01*
X0097531Y0074365D01*
X0097531Y0073631D01*
X0097164Y0073264D01*
X0087265Y0072976D02*
X0085797Y0072976D01*
X0086531Y0072976D02*
X0086531Y0075178D01*
X0085797Y0074444D01*
X0071465Y0074811D02*
X0071098Y0075178D01*
X0070364Y0075178D01*
X0069997Y0074811D01*
X0069997Y0073343D01*
X0070364Y0072976D01*
X0071098Y0072976D01*
X0071465Y0073343D01*
X0071465Y0074077D01*
X0070731Y0074077D01*
X0069257Y0075178D02*
X0068523Y0075178D01*
X0068890Y0075178D02*
X0068890Y0072976D01*
X0068523Y0072976D02*
X0069257Y0072976D01*
X0067781Y0072976D02*
X0066314Y0072976D01*
X0066314Y0075178D01*
X0055205Y0070984D02*
X0055205Y0068782D01*
X0054471Y0068782D02*
X0055939Y0068782D01*
X0054471Y0070250D02*
X0055205Y0070984D01*
X0052995Y0070984D02*
X0052995Y0068782D01*
X0052262Y0068782D02*
X0053729Y0068782D01*
X0052262Y0070250D02*
X0052995Y0070984D01*
X0051520Y0070617D02*
X0051520Y0069883D01*
X0051153Y0069516D01*
X0050052Y0069516D01*
X0050786Y0069516D02*
X0051520Y0068782D01*
X0050052Y0068782D02*
X0050052Y0070984D01*
X0051153Y0070984D01*
X0051520Y0070617D01*
X0052043Y0064502D02*
X0052777Y0064502D01*
X0053144Y0064135D01*
X0051676Y0062667D01*
X0052043Y0062300D01*
X0052777Y0062300D01*
X0053144Y0062667D01*
X0053144Y0064135D01*
X0052043Y0064502D02*
X0051676Y0064135D01*
X0051676Y0062667D01*
X0050934Y0062300D02*
X0049467Y0062300D01*
X0050200Y0062300D02*
X0050200Y0064502D01*
X0049467Y0063768D01*
X0048725Y0063401D02*
X0048358Y0063034D01*
X0047257Y0063034D01*
X0047991Y0063034D02*
X0048725Y0062300D01*
X0048725Y0063401D02*
X0048725Y0064135D01*
X0048358Y0064502D01*
X0047257Y0064502D01*
X0047257Y0062300D01*
X0047772Y0058529D02*
X0046671Y0057428D01*
X0048139Y0057428D01*
X0047772Y0056327D02*
X0047772Y0058529D01*
X0045930Y0058162D02*
X0045930Y0057428D01*
X0045563Y0057061D01*
X0044462Y0057061D01*
X0045196Y0057061D02*
X0045930Y0056327D01*
X0044462Y0056327D02*
X0044462Y0058529D01*
X0045563Y0058529D01*
X0045930Y0058162D01*
X0038357Y0051666D02*
X0036889Y0051666D01*
X0036889Y0050565D01*
X0037623Y0050932D01*
X0037990Y0050932D01*
X0038357Y0050565D01*
X0038357Y0049831D01*
X0037990Y0049464D01*
X0037256Y0049464D01*
X0036889Y0049831D01*
X0036147Y0049464D02*
X0035413Y0050198D01*
X0035780Y0050198D02*
X0034679Y0050198D01*
X0034679Y0049464D02*
X0034679Y0051666D01*
X0035780Y0051666D01*
X0036147Y0051299D01*
X0036147Y0050565D01*
X0035780Y0050198D01*
X0023747Y0050466D02*
X0023380Y0050099D01*
X0022646Y0050099D01*
X0022279Y0050466D01*
X0021537Y0050099D02*
X0020803Y0050833D01*
X0021170Y0050833D02*
X0020069Y0050833D01*
X0020069Y0050099D02*
X0020069Y0052301D01*
X0021170Y0052301D01*
X0021537Y0051934D01*
X0021537Y0051200D01*
X0021170Y0050833D01*
X0022279Y0051934D02*
X0022646Y0052301D01*
X0023380Y0052301D01*
X0023747Y0051934D01*
X0023747Y0051567D01*
X0023380Y0051200D01*
X0023747Y0050833D01*
X0023747Y0050466D01*
X0023380Y0051200D02*
X0023013Y0051200D01*
X0018806Y0043023D02*
X0019173Y0042656D01*
X0019173Y0042289D01*
X0018806Y0041922D01*
X0019173Y0041555D01*
X0019173Y0041188D01*
X0018806Y0040821D01*
X0018072Y0040821D01*
X0017705Y0041188D01*
X0016963Y0041188D02*
X0016963Y0043023D01*
X0017705Y0042656D02*
X0018072Y0043023D01*
X0018806Y0043023D01*
X0018806Y0041922D02*
X0018439Y0041922D01*
X0016963Y0041188D02*
X0016596Y0040821D01*
X0015862Y0040821D01*
X0015495Y0041188D01*
X0015495Y0043023D01*
X0011082Y0048955D02*
X0011816Y0050423D01*
X0010348Y0050423D02*
X0011082Y0048955D01*
X0009606Y0049322D02*
X0009239Y0048955D01*
X0008505Y0048955D01*
X0008138Y0049322D01*
X0007400Y0049322D02*
X0007400Y0048955D01*
X0007033Y0048955D01*
X0007033Y0049322D01*
X0007400Y0049322D01*
X0006291Y0049322D02*
X0005924Y0048955D01*
X0005190Y0048955D01*
X0004823Y0049322D01*
X0005557Y0050056D02*
X0005924Y0050056D01*
X0006291Y0049689D01*
X0006291Y0049322D01*
X0005924Y0050056D02*
X0006291Y0050423D01*
X0006291Y0050790D01*
X0005924Y0051157D01*
X0005190Y0051157D01*
X0004823Y0050790D01*
X0008138Y0050790D02*
X0008505Y0051157D01*
X0009239Y0051157D01*
X0009606Y0050790D01*
X0009606Y0050423D01*
X0009239Y0050056D01*
X0009606Y0049689D01*
X0009606Y0049322D01*
X0009239Y0050056D02*
X0008872Y0050056D01*
X0009243Y0058233D02*
X0009243Y0060435D01*
X0010344Y0060435D01*
X0010711Y0060068D01*
X0010711Y0059334D01*
X0010344Y0058967D01*
X0009243Y0058967D01*
X0009977Y0058967D02*
X0010711Y0058233D01*
X0008501Y0058600D02*
X0008501Y0060068D01*
X0008134Y0060435D01*
X0007033Y0060435D01*
X0007033Y0058233D01*
X0008134Y0058233D01*
X0008501Y0058600D01*
X0006291Y0058233D02*
X0004823Y0058233D01*
X0004823Y0060435D01*
X0011161Y0067130D02*
X0011895Y0067130D01*
X0012262Y0067497D01*
X0013004Y0067497D02*
X0013371Y0067130D01*
X0014105Y0067130D01*
X0014472Y0067497D01*
X0014472Y0067864D01*
X0014105Y0068231D01*
X0013738Y0068231D01*
X0014105Y0068231D02*
X0014472Y0068598D01*
X0014472Y0068965D01*
X0014105Y0069332D01*
X0013371Y0069332D01*
X0013004Y0068965D01*
X0012262Y0068965D02*
X0011895Y0069332D01*
X0011161Y0069332D01*
X0010794Y0068965D01*
X0010794Y0067497D01*
X0011161Y0067130D01*
X0021212Y0068005D02*
X0021579Y0067638D01*
X0022313Y0067638D01*
X0022680Y0068005D01*
X0023422Y0068739D02*
X0024890Y0068739D01*
X0024523Y0067638D02*
X0024523Y0069840D01*
X0023422Y0068739D01*
X0022680Y0069473D02*
X0022313Y0069840D01*
X0021579Y0069840D01*
X0021212Y0069473D01*
X0021212Y0068005D01*
X0023372Y0065010D02*
X0024473Y0065010D01*
X0024840Y0064643D01*
X0024840Y0063909D01*
X0024473Y0063543D01*
X0023372Y0063543D01*
X0024106Y0063543D02*
X0024840Y0062809D01*
X0025582Y0062809D02*
X0027050Y0062809D01*
X0026316Y0062809D02*
X0026316Y0065010D01*
X0025582Y0064276D01*
X0027792Y0063909D02*
X0029260Y0063909D01*
X0028893Y0062809D02*
X0028893Y0065010D01*
X0027792Y0063909D01*
X0023372Y0062809D02*
X0023372Y0065010D01*
X0041285Y0073470D02*
X0041652Y0073103D01*
X0042386Y0073103D01*
X0042753Y0073470D01*
X0042753Y0074938D01*
X0042386Y0075305D01*
X0041652Y0075305D01*
X0041285Y0074938D01*
X0041285Y0074571D01*
X0041652Y0074204D01*
X0042753Y0074204D01*
D11*
X0050449Y0073500D03*
X0041449Y0065500D03*
X0038449Y0059500D03*
X0037449Y0053500D03*
X0022449Y0054500D03*
X0022449Y0060500D03*
X0086449Y0007500D03*
D12*
X0082571Y0007500D02*
X0090327Y0007500D01*
X0086449Y0003622D02*
X0086449Y0011378D01*
X0097449Y0009500D02*
X0105449Y0009500D01*
X0101449Y0005500D02*
X0101449Y0013500D01*
X0105449Y0020500D02*
X0105449Y0028500D01*
X0101449Y0024500D02*
X0109449Y0024500D01*
X0116355Y0022500D02*
X0122543Y0022500D01*
X0119449Y0019406D02*
X0119449Y0025594D01*
X0119449Y0026406D02*
X0119449Y0032594D01*
X0119449Y0035406D02*
X0119449Y0041594D01*
X0119449Y0042406D02*
X0119449Y0048594D01*
X0116355Y0045500D02*
X0122543Y0045500D01*
X0122543Y0038500D02*
X0116355Y0038500D01*
X0116355Y0029500D02*
X0122543Y0029500D01*
X0119449Y0018594D02*
X0119449Y0012406D01*
X0119449Y0011594D02*
X0119449Y0005406D01*
X0116355Y0008500D02*
X0122543Y0008500D01*
X0122543Y0015500D02*
X0116355Y0015500D01*
X0078449Y0041500D02*
X0070449Y0041500D01*
X0074449Y0037500D02*
X0074449Y0045500D01*
X0094703Y0064881D02*
X0102703Y0064881D01*
X0105449Y0069406D02*
X0105449Y0075594D01*
X0102355Y0072500D02*
X0108543Y0072500D01*
X0109355Y0072500D02*
X0115543Y0072500D01*
X0116355Y0072500D02*
X0122543Y0072500D01*
X0119449Y0069406D02*
X0119449Y0075594D01*
X0112449Y0075594D02*
X0112449Y0069406D01*
X0116355Y0064500D02*
X0122543Y0064500D01*
X0119449Y0061406D02*
X0119449Y0067594D01*
X0119449Y0060594D02*
X0119449Y0054406D01*
X0116355Y0057500D02*
X0122543Y0057500D01*
X0112576Y0054500D02*
X0104576Y0054500D01*
X0108576Y0050500D02*
X0108576Y0058500D01*
X0098703Y0060881D02*
X0098703Y0068881D01*
X0092543Y0072500D02*
X0086355Y0072500D01*
X0089449Y0069406D02*
X0089449Y0075594D01*
X0064543Y0072500D02*
X0058355Y0072500D01*
X0054327Y0073500D02*
X0046571Y0073500D01*
X0041543Y0072500D02*
X0035355Y0072500D01*
X0038449Y0069406D02*
X0038449Y0075594D01*
X0041449Y0069378D02*
X0041449Y0061622D01*
X0042327Y0059500D02*
X0034571Y0059500D01*
X0037449Y0057378D02*
X0037449Y0049622D01*
X0033571Y0053500D02*
X0041327Y0053500D01*
X0038449Y0055622D02*
X0038449Y0063378D01*
X0037571Y0065500D02*
X0045327Y0065500D01*
X0050449Y0069622D02*
X0050449Y0077378D01*
X0061449Y0075594D02*
X0061449Y0069406D01*
X0030222Y0072500D02*
X0022676Y0072500D01*
X0026449Y0068727D02*
X0026449Y0076273D01*
X0016222Y0072500D02*
X0008676Y0072500D01*
X0012449Y0068727D02*
X0012449Y0076273D01*
X0007449Y0066594D02*
X0007449Y0060406D01*
X0007449Y0057594D02*
X0007449Y0051406D01*
X0004355Y0054500D02*
X0010543Y0054500D01*
X0018571Y0054500D02*
X0026327Y0054500D01*
X0022449Y0056622D02*
X0022449Y0064378D01*
X0018571Y0060500D02*
X0026327Y0060500D01*
X0022449Y0058378D02*
X0022449Y0050622D01*
X0018449Y0036500D02*
X0018449Y0028500D01*
X0014449Y0032500D02*
X0022449Y0032500D01*
X0029449Y0032500D02*
X0037449Y0032500D01*
X0033449Y0028500D02*
X0033449Y0036500D01*
X0025449Y0019273D02*
X0025449Y0011727D01*
X0025449Y0012273D02*
X0025449Y0004727D01*
X0021676Y0008500D02*
X0029222Y0008500D01*
X0029222Y0015500D02*
X0021676Y0015500D01*
X0010543Y0013500D02*
X0004355Y0013500D01*
X0007449Y0010406D02*
X0007449Y0016594D01*
X0007449Y0019406D02*
X0007449Y0025594D01*
X0004355Y0022500D02*
X0010543Y0022500D01*
X0051355Y0008500D02*
X0057543Y0008500D01*
X0054449Y0005406D02*
X0054449Y0011594D01*
X0071460Y0008288D02*
X0077649Y0008288D01*
X0074555Y0005194D02*
X0074555Y0011383D01*
X0010543Y0063500D02*
X0004355Y0063500D01*
D13*
X0011268Y0070138D02*
X0013630Y0070138D01*
X0013630Y0074862D02*
X0011268Y0074862D01*
X0025268Y0074862D02*
X0027630Y0074862D01*
X0027630Y0070138D02*
X0025268Y0070138D01*
X0024268Y0017862D02*
X0026630Y0017862D01*
X0026630Y0013138D02*
X0024268Y0013138D01*
X0024268Y0010862D02*
X0026630Y0010862D01*
X0026630Y0006138D02*
X0024268Y0006138D01*
D14*
X0024049Y0030809D02*
X0024049Y0034191D01*
X0027849Y0034191D02*
X0027849Y0030809D01*
X0032392Y0035691D02*
X0034506Y0035691D01*
X0039049Y0034191D02*
X0039049Y0030809D01*
X0048837Y0040386D02*
X0073335Y0015888D01*
X0075562Y0015888D01*
X0100061Y0040386D01*
X0100061Y0042614D01*
X0075562Y0067112D01*
X0073335Y0067112D01*
X0048837Y0042614D01*
X0048837Y0040386D01*
X0019506Y0035691D02*
X0017392Y0035691D01*
X0012849Y0034191D02*
X0012849Y0030809D01*
X0094082Y0012019D02*
X0094082Y0006901D01*
X0108845Y0006901D02*
X0108845Y0012019D01*
D15*
X0051065Y0041500D02*
X0051067Y0041567D01*
X0051073Y0041633D01*
X0051083Y0041699D01*
X0051097Y0041764D01*
X0051114Y0041828D01*
X0051136Y0041891D01*
X0051161Y0041953D01*
X0051190Y0042013D01*
X0051223Y0042071D01*
X0051258Y0042127D01*
X0051298Y0042181D01*
X0051340Y0042232D01*
X0051385Y0042281D01*
X0051433Y0042327D01*
X0051484Y0042370D01*
X0051537Y0042410D01*
X0051593Y0042447D01*
X0051651Y0042480D01*
X0051710Y0042510D01*
X0051771Y0042536D01*
X0051834Y0042559D01*
X0051898Y0042577D01*
X0051963Y0042592D01*
X0052029Y0042603D01*
X0052095Y0042610D01*
X0052161Y0042613D01*
X0052228Y0042612D01*
X0052294Y0042607D01*
X0052360Y0042598D01*
X0052426Y0042585D01*
X0052490Y0042568D01*
X0052553Y0042548D01*
X0052615Y0042523D01*
X0052676Y0042495D01*
X0052735Y0042464D01*
X0052791Y0042429D01*
X0052846Y0042391D01*
X0052898Y0042349D01*
X0052947Y0042304D01*
X0052994Y0042257D01*
X0053038Y0042207D01*
X0053078Y0042154D01*
X0053116Y0042099D01*
X0053150Y0042042D01*
X0053181Y0041983D01*
X0053208Y0041922D01*
X0053231Y0041860D01*
X0053251Y0041796D01*
X0053267Y0041731D01*
X0053279Y0041666D01*
X0053287Y0041600D01*
X0053291Y0041533D01*
X0053291Y0041467D01*
X0053287Y0041400D01*
X0053279Y0041334D01*
X0053267Y0041269D01*
X0053251Y0041204D01*
X0053231Y0041140D01*
X0053208Y0041078D01*
X0053181Y0041017D01*
X0053150Y0040958D01*
X0053116Y0040901D01*
X0053078Y0040846D01*
X0053038Y0040793D01*
X0052994Y0040743D01*
X0052947Y0040696D01*
X0052898Y0040651D01*
X0052846Y0040609D01*
X0052791Y0040571D01*
X0052734Y0040536D01*
X0052676Y0040505D01*
X0052615Y0040477D01*
X0052553Y0040452D01*
X0052490Y0040432D01*
X0052426Y0040415D01*
X0052360Y0040402D01*
X0052294Y0040393D01*
X0052228Y0040388D01*
X0052161Y0040387D01*
X0052095Y0040390D01*
X0052029Y0040397D01*
X0051963Y0040408D01*
X0051898Y0040423D01*
X0051834Y0040441D01*
X0051771Y0040464D01*
X0051710Y0040490D01*
X0051651Y0040520D01*
X0051593Y0040553D01*
X0051537Y0040590D01*
X0051484Y0040630D01*
X0051433Y0040673D01*
X0051385Y0040719D01*
X0051340Y0040768D01*
X0051298Y0040819D01*
X0051258Y0040873D01*
X0051223Y0040929D01*
X0051190Y0040987D01*
X0051161Y0041047D01*
X0051136Y0041109D01*
X0051114Y0041172D01*
X0051097Y0041236D01*
X0051083Y0041301D01*
X0051073Y0041367D01*
X0051067Y0041433D01*
X0051065Y0041500D01*
M02*
