G75*
%MOIN*%
%OFA0B0*%
%FSLAX25Y25*%
%IPPOS*%
%LPD*%
%AMOC8*
5,1,8,0,0,1.08239X$1,22.5*
%
%ADD10R,0.06400X0.05400*%
%ADD11R,0.04337X0.04731*%
%ADD12R,0.05400X0.06400*%
%ADD13R,0.03550X0.05124*%
%ADD14R,0.03000X0.08400*%
%ADD15R,0.04731X0.04337*%
%ADD16R,0.05124X0.12211*%
D10*
X0007449Y0026500D03*
X0007449Y0034500D03*
X0007449Y0048500D03*
X0007449Y0057500D03*
D11*
X0040449Y0021846D03*
X0040449Y0015154D03*
X0047449Y0015154D03*
X0047449Y0021846D03*
D12*
X0047449Y0008500D03*
X0040449Y0008500D03*
D13*
X0038906Y0049500D03*
X0045992Y0049500D03*
D14*
X0032949Y0052600D03*
X0027949Y0052600D03*
X0022949Y0052600D03*
X0017949Y0052600D03*
X0017949Y0028400D03*
X0022949Y0028400D03*
X0027949Y0028400D03*
X0032949Y0028400D03*
D15*
X0022102Y0015500D03*
X0028795Y0015500D03*
X0029795Y0070500D03*
X0023102Y0070500D03*
D16*
X0062890Y0070028D03*
X0070764Y0070028D03*
X0078638Y0070028D03*
X0086512Y0070028D03*
X0094386Y0070028D03*
X0102260Y0070028D03*
X0110134Y0070028D03*
X0118008Y0070028D03*
X0118008Y0010972D03*
X0110134Y0010972D03*
X0102260Y0010972D03*
X0094386Y0010972D03*
X0086512Y0010972D03*
X0078638Y0010972D03*
X0070764Y0010972D03*
X0062890Y0010972D03*
M02*
