G75*
%MOIN*%
%OFA0B0*%
%FSLAX25Y25*%
%IPPOS*%
%LPD*%
%AMOC8*
5,1,8,0,0,1.08239X$1,22.5*
%
%ADD10C,0.00100*%
%ADD11C,0.00600*%
%ADD12R,0.01800X0.03000*%
%ADD13C,0.00800*%
%ADD14C,0.00200*%
%ADD15R,0.03000X0.01800*%
D10*
X0009876Y0018546D02*
X0009876Y0018796D01*
X0008875Y0019797D01*
X0008875Y0020047D01*
X0009876Y0020047D01*
X0010348Y0019797D02*
X0010348Y0019296D01*
X0010599Y0019046D01*
X0011349Y0019046D01*
X0011349Y0018546D02*
X0011349Y0020047D01*
X0010599Y0020047D01*
X0010348Y0019797D01*
X0010849Y0019046D02*
X0010348Y0018546D01*
X0019640Y0013597D02*
X0019890Y0013847D01*
X0020391Y0013847D01*
X0020641Y0013597D01*
X0021113Y0013597D02*
X0021363Y0013847D01*
X0021864Y0013847D01*
X0022114Y0013597D01*
X0022114Y0012596D01*
X0021864Y0012346D01*
X0021363Y0012346D01*
X0021113Y0012596D01*
X0020641Y0012346D02*
X0019640Y0013347D01*
X0019640Y0013597D01*
X0019640Y0012346D02*
X0020641Y0012346D01*
X0027351Y0019014D02*
X0027351Y0019264D01*
X0027601Y0019514D01*
X0028352Y0019514D01*
X0028352Y0019014D01*
X0028102Y0018763D01*
X0027601Y0018763D01*
X0027351Y0019014D01*
X0027851Y0020014D02*
X0027351Y0020265D01*
X0027851Y0020014D02*
X0028352Y0019514D01*
X0028824Y0019514D02*
X0029075Y0019264D01*
X0029825Y0019264D01*
X0029325Y0019264D02*
X0028824Y0018763D01*
X0028824Y0019514D02*
X0028824Y0020014D01*
X0029075Y0020265D01*
X0029825Y0020265D01*
X0029825Y0018763D01*
X0033681Y0010040D02*
X0033681Y0009040D01*
X0034181Y0008539D01*
X0034681Y0009040D01*
X0034681Y0010040D01*
X0035154Y0010040D02*
X0035654Y0009790D01*
X0036155Y0009290D01*
X0035404Y0009290D01*
X0035154Y0009040D01*
X0035154Y0008789D01*
X0035404Y0008539D01*
X0035905Y0008539D01*
X0036155Y0008789D01*
X0036155Y0009290D01*
X0036627Y0009290D02*
X0036627Y0008789D01*
X0036877Y0008539D01*
X0037378Y0008539D01*
X0037628Y0008789D01*
X0038114Y0008789D02*
X0038114Y0008539D01*
X0038365Y0008539D01*
X0038365Y0008789D01*
X0038114Y0008789D01*
X0037628Y0009290D02*
X0037128Y0009540D01*
X0036877Y0009540D01*
X0036627Y0009290D01*
X0036627Y0010040D02*
X0037628Y0010040D01*
X0037628Y0009290D01*
X0038837Y0009540D02*
X0038837Y0009790D01*
X0039087Y0010040D01*
X0039588Y0010040D01*
X0039838Y0009790D01*
X0038837Y0009540D02*
X0039838Y0008539D01*
X0038837Y0008539D01*
X0050740Y0007152D02*
X0050990Y0007402D01*
X0052241Y0007402D01*
X0052241Y0006652D01*
X0051991Y0006402D01*
X0051490Y0006402D01*
X0051240Y0006652D01*
X0051240Y0007402D01*
X0051240Y0007875D02*
X0052241Y0007875D01*
X0052241Y0008625D01*
X0051991Y0008876D01*
X0051240Y0008876D01*
X0051490Y0009348D02*
X0051991Y0009348D01*
X0052241Y0009598D01*
X0052241Y0010349D01*
X0052741Y0010349D02*
X0051240Y0010349D01*
X0051240Y0009598D01*
X0051490Y0009348D01*
X0050740Y0007152D02*
X0050740Y0006902D01*
X0059840Y0006681D02*
X0060841Y0006681D01*
X0060340Y0006681D02*
X0060841Y0007182D01*
X0060841Y0007432D01*
X0060591Y0007909D02*
X0060841Y0008159D01*
X0060841Y0008910D01*
X0060841Y0009382D02*
X0060841Y0009883D01*
X0061091Y0009633D02*
X0060090Y0009633D01*
X0059840Y0009883D01*
X0060090Y0008910D02*
X0060340Y0008660D01*
X0060340Y0008159D01*
X0060591Y0007909D01*
X0059840Y0007909D02*
X0059840Y0008660D01*
X0060090Y0008910D01*
X0042106Y0039917D02*
X0042106Y0041419D01*
X0041355Y0041419D01*
X0041105Y0041168D01*
X0041105Y0040668D01*
X0041355Y0040418D01*
X0042106Y0040418D01*
X0041605Y0040418D02*
X0041105Y0039917D01*
X0040633Y0039917D02*
X0039632Y0040918D01*
X0039632Y0041168D01*
X0039882Y0041419D01*
X0040382Y0041419D01*
X0040633Y0041168D01*
X0040633Y0039917D02*
X0039632Y0039917D01*
X0034681Y0049789D02*
X0034681Y0051291D01*
X0033930Y0051291D01*
X0033680Y0051040D01*
X0033680Y0050540D01*
X0033930Y0050290D01*
X0034681Y0050290D01*
X0034180Y0050290D02*
X0033680Y0049789D01*
X0033207Y0050039D02*
X0032957Y0049789D01*
X0032457Y0049789D01*
X0032207Y0050039D01*
X0032207Y0050540D01*
X0032457Y0050790D01*
X0032707Y0050790D01*
X0033207Y0050540D01*
X0033207Y0051291D01*
X0032207Y0051291D01*
X0027069Y0049253D02*
X0027069Y0047752D01*
X0026068Y0047752D02*
X0026068Y0049253D01*
X0026569Y0048753D01*
X0027069Y0049253D01*
X0025596Y0049253D02*
X0024845Y0049253D01*
X0024595Y0049003D01*
X0024595Y0048002D01*
X0024845Y0047752D01*
X0025596Y0047752D01*
X0025596Y0049253D01*
X0024123Y0049253D02*
X0023372Y0049253D01*
X0023122Y0049003D01*
X0023122Y0048503D01*
X0023372Y0048253D01*
X0024123Y0048253D01*
X0023622Y0048253D02*
X0023122Y0047752D01*
X0022649Y0047752D02*
X0022149Y0047752D01*
X0022399Y0047752D02*
X0022399Y0049253D01*
X0022649Y0049253D02*
X0022149Y0049253D01*
X0021667Y0049253D02*
X0021667Y0048253D01*
X0021167Y0047752D01*
X0020666Y0048253D01*
X0020666Y0049253D01*
X0020194Y0049253D02*
X0020194Y0047752D01*
X0019193Y0047752D01*
X0018721Y0047752D02*
X0018721Y0049253D01*
X0017970Y0049253D01*
X0017720Y0049003D01*
X0017720Y0048503D01*
X0017970Y0048253D01*
X0018721Y0048253D01*
X0018220Y0048253D02*
X0017720Y0047752D01*
X0019193Y0049253D02*
X0020194Y0049253D01*
X0020194Y0048503D02*
X0019694Y0048503D01*
X0024123Y0047752D02*
X0024123Y0049253D01*
X0011969Y0059974D02*
X0011969Y0061476D01*
X0011469Y0060975D01*
X0010968Y0061476D01*
X0010968Y0059974D01*
X0009996Y0059974D02*
X0009996Y0061476D01*
X0010496Y0061476D02*
X0009495Y0061476D01*
X0009023Y0060725D02*
X0008022Y0060725D01*
X0007550Y0060225D02*
X0007550Y0061226D01*
X0007299Y0061476D01*
X0006799Y0061476D01*
X0006549Y0061226D01*
X0006549Y0060725D02*
X0007049Y0060725D01*
X0006549Y0060725D02*
X0006549Y0060225D01*
X0006799Y0059974D01*
X0007299Y0059974D01*
X0007550Y0060225D01*
X0006076Y0059974D02*
X0006076Y0061476D01*
X0005075Y0059974D01*
X0005075Y0061476D01*
X0004603Y0061476D02*
X0003852Y0061476D01*
X0003602Y0061226D01*
X0003602Y0060225D01*
X0003852Y0059974D01*
X0004603Y0059974D01*
X0004603Y0061476D01*
X0004606Y0070630D02*
X0005106Y0071130D01*
X0004856Y0071130D02*
X0005606Y0071130D01*
X0005606Y0070630D02*
X0005606Y0072131D01*
X0004856Y0072131D01*
X0004606Y0071881D01*
X0004606Y0071380D01*
X0004856Y0071130D01*
X0006079Y0070880D02*
X0006079Y0071881D01*
X0006329Y0072131D01*
X0006829Y0072131D01*
X0007080Y0071881D01*
X0007080Y0070880D01*
X0006829Y0070630D01*
X0006329Y0070630D01*
X0006079Y0070880D01*
X0007552Y0072131D02*
X0008553Y0072131D01*
X0008052Y0072131D02*
X0008052Y0070630D01*
X0009025Y0070880D02*
X0009276Y0070630D01*
X0009776Y0070630D01*
X0010026Y0070880D01*
X0010026Y0071881D01*
X0009776Y0072131D01*
X0009276Y0072131D01*
X0009025Y0071881D01*
X0009025Y0070880D01*
X0010499Y0070630D02*
X0010499Y0072131D01*
X0010999Y0071631D01*
X0011499Y0072131D01*
X0011499Y0070630D01*
X0015291Y0070094D02*
X0015791Y0070094D01*
X0015541Y0070094D02*
X0015541Y0068843D01*
X0015791Y0068593D01*
X0016041Y0068593D01*
X0016291Y0068843D01*
X0016764Y0069093D02*
X0016764Y0070094D01*
X0017765Y0070094D02*
X0017765Y0069093D01*
X0017264Y0068593D01*
X0016764Y0069093D01*
X0025471Y0070094D02*
X0025972Y0070094D01*
X0025722Y0070094D02*
X0025722Y0068843D01*
X0025972Y0068593D01*
X0026222Y0068593D01*
X0026472Y0068843D01*
X0026945Y0069093D02*
X0026945Y0070094D01*
X0027946Y0070094D02*
X0027946Y0069093D01*
X0027445Y0068593D01*
X0026945Y0069093D01*
X0039191Y0061852D02*
X0039191Y0061602D01*
X0039442Y0061352D01*
X0039191Y0061102D01*
X0039191Y0060851D01*
X0039442Y0060601D01*
X0039942Y0060601D01*
X0040192Y0060851D01*
X0040665Y0060601D02*
X0041665Y0060601D01*
X0042138Y0060601D02*
X0042638Y0061102D01*
X0042388Y0061102D02*
X0043139Y0061102D01*
X0043139Y0060601D02*
X0043139Y0062103D01*
X0042388Y0062103D01*
X0042138Y0061852D01*
X0042138Y0061352D01*
X0042388Y0061102D01*
X0041665Y0061602D02*
X0041165Y0062103D01*
X0041165Y0060601D01*
X0040192Y0061852D02*
X0039942Y0062103D01*
X0039442Y0062103D01*
X0039191Y0061852D01*
X0039442Y0061352D02*
X0039692Y0061352D01*
X0040538Y0073137D02*
X0040288Y0073387D01*
X0040288Y0074388D01*
X0040538Y0074638D01*
X0041289Y0074638D01*
X0041289Y0073137D01*
X0040538Y0073137D01*
X0041761Y0073137D02*
X0041761Y0074638D01*
X0042762Y0074638D02*
X0041761Y0073137D01*
X0042762Y0073137D02*
X0042762Y0074638D01*
X0043234Y0074388D02*
X0043484Y0074638D01*
X0043985Y0074638D01*
X0044235Y0074388D01*
X0044235Y0073387D01*
X0043985Y0073137D01*
X0043484Y0073137D01*
X0043234Y0073387D01*
X0043234Y0073888D01*
X0043735Y0073888D01*
X0066440Y0073832D02*
X0066440Y0073332D01*
X0066690Y0073081D01*
X0067191Y0073582D02*
X0067191Y0073832D01*
X0066940Y0074082D01*
X0066690Y0074082D01*
X0066440Y0073832D01*
X0066440Y0074555D02*
X0066440Y0074805D01*
X0066690Y0074805D01*
X0066690Y0074555D01*
X0066440Y0074555D01*
X0066690Y0075291D02*
X0066440Y0075542D01*
X0066440Y0076042D01*
X0066690Y0076292D01*
X0066940Y0076292D01*
X0067191Y0076042D01*
X0067191Y0075792D01*
X0067191Y0076042D02*
X0067441Y0076292D01*
X0067691Y0076292D01*
X0067941Y0076042D01*
X0067941Y0075542D01*
X0067691Y0075291D01*
X0067691Y0074082D02*
X0067441Y0074082D01*
X0067191Y0073832D01*
X0067691Y0074082D02*
X0067941Y0073832D01*
X0067941Y0073332D01*
X0067691Y0073081D01*
X0074140Y0073582D02*
X0074140Y0073832D01*
X0074390Y0074082D01*
X0075641Y0074082D01*
X0075641Y0073332D01*
X0075391Y0073081D01*
X0074890Y0073081D01*
X0074640Y0073332D01*
X0074640Y0074082D01*
X0074640Y0074555D02*
X0075641Y0074555D01*
X0075641Y0075305D01*
X0075391Y0075556D01*
X0074640Y0075556D01*
X0074890Y0076028D02*
X0075391Y0076028D01*
X0075641Y0076278D01*
X0075641Y0077029D01*
X0076141Y0077029D02*
X0074640Y0077029D01*
X0074640Y0076278D01*
X0074890Y0076028D01*
X0090222Y0074681D02*
X0090722Y0074681D01*
X0090472Y0074681D02*
X0090472Y0075682D01*
X0090722Y0075682D01*
X0091195Y0075682D02*
X0091945Y0075682D01*
X0092195Y0075432D01*
X0091945Y0075182D01*
X0091445Y0075182D01*
X0091195Y0074932D01*
X0091445Y0074681D01*
X0092195Y0074681D01*
X0090472Y0076183D02*
X0090472Y0076433D01*
X0097640Y0076779D02*
X0098140Y0076028D01*
X0098641Y0076779D01*
X0099141Y0076028D02*
X0097640Y0076028D01*
X0097640Y0075556D02*
X0097640Y0074805D01*
X0097890Y0074555D01*
X0098391Y0074555D01*
X0098641Y0074805D01*
X0098641Y0075556D01*
X0098641Y0074082D02*
X0098641Y0073332D01*
X0098391Y0073081D01*
X0098140Y0073332D01*
X0098140Y0073832D01*
X0097890Y0074082D01*
X0097640Y0073832D01*
X0097640Y0073081D01*
X0105212Y0074932D02*
X0105463Y0075182D01*
X0105963Y0075182D01*
X0106213Y0075432D01*
X0105963Y0075682D01*
X0105212Y0075682D01*
X0105212Y0074932D02*
X0105463Y0074681D01*
X0106213Y0074681D01*
X0106686Y0074932D02*
X0106936Y0075182D01*
X0107436Y0075182D01*
X0107687Y0075432D01*
X0107436Y0075682D01*
X0106686Y0075682D01*
X0106686Y0074932D02*
X0106936Y0074681D01*
X0107687Y0074681D01*
X0108159Y0074681D02*
X0108159Y0075432D01*
X0108409Y0075682D01*
X0108910Y0075682D01*
X0109160Y0075432D01*
X0109160Y0076183D02*
X0109160Y0074681D01*
X0107490Y0008482D02*
X0106739Y0008482D01*
X0106267Y0008232D02*
X0106267Y0007732D01*
X0106017Y0007481D01*
X0105516Y0007481D01*
X0105266Y0007732D01*
X0105266Y0008232D01*
X0105516Y0008482D01*
X0106017Y0008482D01*
X0106267Y0008232D01*
X0106739Y0007732D02*
X0106989Y0007982D01*
X0107490Y0007982D01*
X0107740Y0008232D01*
X0107490Y0008482D01*
X0107740Y0007481D02*
X0106989Y0007481D01*
X0106739Y0007732D01*
X0008523Y0036313D02*
X0008523Y0037815D01*
X0007773Y0037815D01*
X0007523Y0037564D01*
X0007523Y0037064D01*
X0007773Y0036814D01*
X0008523Y0036814D01*
X0008023Y0036814D02*
X0007523Y0036313D01*
X0007050Y0036313D02*
X0006049Y0036313D01*
X0006550Y0036313D02*
X0006550Y0037815D01*
X0007050Y0037314D01*
X0005577Y0037064D02*
X0004576Y0037064D01*
X0004826Y0037815D02*
X0005577Y0037064D01*
X0004826Y0036313D02*
X0004826Y0037815D01*
D11*
X0019589Y0006138D02*
X0021952Y0006138D01*
X0021952Y0010862D02*
X0019589Y0010862D01*
X0013637Y0040986D02*
X0030637Y0040986D01*
X0030713Y0040988D01*
X0030789Y0040994D01*
X0030864Y0041003D01*
X0030939Y0041017D01*
X0031013Y0041034D01*
X0031086Y0041055D01*
X0031158Y0041079D01*
X0031229Y0041108D01*
X0031298Y0041139D01*
X0031365Y0041174D01*
X0031430Y0041213D01*
X0031494Y0041255D01*
X0031555Y0041300D01*
X0031614Y0041348D01*
X0031670Y0041399D01*
X0031724Y0041453D01*
X0031775Y0041509D01*
X0031823Y0041568D01*
X0031868Y0041629D01*
X0031910Y0041693D01*
X0031949Y0041758D01*
X0031984Y0041825D01*
X0032015Y0041894D01*
X0032044Y0041965D01*
X0032068Y0042037D01*
X0032089Y0042110D01*
X0032106Y0042184D01*
X0032120Y0042259D01*
X0032129Y0042334D01*
X0032135Y0042410D01*
X0032137Y0042486D01*
X0032137Y0054886D01*
X0032135Y0054962D01*
X0032129Y0055038D01*
X0032120Y0055113D01*
X0032106Y0055188D01*
X0032089Y0055262D01*
X0032068Y0055335D01*
X0032044Y0055407D01*
X0032015Y0055478D01*
X0031984Y0055547D01*
X0031949Y0055614D01*
X0031910Y0055679D01*
X0031868Y0055743D01*
X0031823Y0055804D01*
X0031775Y0055863D01*
X0031724Y0055919D01*
X0031670Y0055973D01*
X0031614Y0056024D01*
X0031555Y0056072D01*
X0031494Y0056117D01*
X0031430Y0056159D01*
X0031365Y0056198D01*
X0031298Y0056233D01*
X0031229Y0056264D01*
X0031158Y0056293D01*
X0031086Y0056317D01*
X0031013Y0056338D01*
X0030939Y0056355D01*
X0030864Y0056369D01*
X0030789Y0056378D01*
X0030713Y0056384D01*
X0030637Y0056386D01*
X0013637Y0056386D01*
X0013561Y0056384D01*
X0013485Y0056378D01*
X0013410Y0056369D01*
X0013335Y0056355D01*
X0013261Y0056338D01*
X0013188Y0056317D01*
X0013116Y0056293D01*
X0013045Y0056264D01*
X0012976Y0056233D01*
X0012909Y0056198D01*
X0012844Y0056159D01*
X0012780Y0056117D01*
X0012719Y0056072D01*
X0012660Y0056024D01*
X0012604Y0055973D01*
X0012550Y0055919D01*
X0012499Y0055863D01*
X0012451Y0055804D01*
X0012406Y0055743D01*
X0012364Y0055679D01*
X0012325Y0055614D01*
X0012290Y0055547D01*
X0012259Y0055478D01*
X0012230Y0055407D01*
X0012206Y0055335D01*
X0012185Y0055262D01*
X0012168Y0055188D01*
X0012154Y0055113D01*
X0012145Y0055038D01*
X0012139Y0054962D01*
X0012137Y0054886D01*
X0012137Y0042486D01*
X0012139Y0042410D01*
X0012145Y0042334D01*
X0012154Y0042259D01*
X0012168Y0042184D01*
X0012185Y0042110D01*
X0012206Y0042037D01*
X0012230Y0041965D01*
X0012259Y0041894D01*
X0012290Y0041825D01*
X0012325Y0041758D01*
X0012364Y0041693D01*
X0012406Y0041629D01*
X0012451Y0041568D01*
X0012499Y0041509D01*
X0012550Y0041453D01*
X0012604Y0041399D01*
X0012660Y0041348D01*
X0012719Y0041300D01*
X0012780Y0041255D01*
X0012844Y0041213D01*
X0012909Y0041174D01*
X0012976Y0041139D01*
X0013045Y0041108D01*
X0013116Y0041079D01*
X0013188Y0041055D01*
X0013261Y0041034D01*
X0013335Y0041017D01*
X0013410Y0041003D01*
X0013485Y0040994D01*
X0013561Y0040988D01*
X0013637Y0040986D01*
X0012137Y0046686D02*
X0012225Y0046688D01*
X0012314Y0046694D01*
X0012402Y0046704D01*
X0012489Y0046717D01*
X0012576Y0046735D01*
X0012662Y0046756D01*
X0012747Y0046781D01*
X0012830Y0046810D01*
X0012913Y0046843D01*
X0012993Y0046879D01*
X0013072Y0046918D01*
X0013150Y0046961D01*
X0013225Y0047008D01*
X0013298Y0047058D01*
X0013369Y0047111D01*
X0013438Y0047167D01*
X0013504Y0047226D01*
X0013567Y0047288D01*
X0013627Y0047352D01*
X0013685Y0047419D01*
X0013739Y0047489D01*
X0013791Y0047561D01*
X0013839Y0047635D01*
X0013884Y0047712D01*
X0013925Y0047790D01*
X0013963Y0047870D01*
X0013997Y0047951D01*
X0014028Y0048034D01*
X0014055Y0048119D01*
X0014078Y0048204D01*
X0014097Y0048290D01*
X0014113Y0048378D01*
X0014125Y0048465D01*
X0014133Y0048553D01*
X0014137Y0048642D01*
X0014137Y0048730D01*
X0014133Y0048819D01*
X0014125Y0048907D01*
X0014113Y0048994D01*
X0014097Y0049082D01*
X0014078Y0049168D01*
X0014055Y0049253D01*
X0014028Y0049338D01*
X0013997Y0049421D01*
X0013963Y0049502D01*
X0013925Y0049582D01*
X0013884Y0049660D01*
X0013839Y0049737D01*
X0013791Y0049811D01*
X0013739Y0049883D01*
X0013685Y0049953D01*
X0013627Y0050020D01*
X0013567Y0050084D01*
X0013504Y0050146D01*
X0013438Y0050205D01*
X0013369Y0050261D01*
X0013298Y0050314D01*
X0013225Y0050364D01*
X0013150Y0050411D01*
X0013072Y0050454D01*
X0012993Y0050493D01*
X0012913Y0050529D01*
X0012830Y0050562D01*
X0012747Y0050591D01*
X0012662Y0050616D01*
X0012576Y0050637D01*
X0012489Y0050655D01*
X0012402Y0050668D01*
X0012314Y0050678D01*
X0012225Y0050684D01*
X0012137Y0050686D01*
X0036609Y0063869D02*
X0038971Y0063869D01*
X0038971Y0068594D02*
X0036609Y0068594D01*
X0053027Y0061658D02*
X0053027Y0058722D01*
X0053027Y0060190D02*
X0057431Y0060190D01*
X0055963Y0058722D01*
D12*
X0040897Y0058003D03*
X0040825Y0051529D03*
X0040862Y0045156D03*
D13*
X0047294Y0072928D02*
X0110286Y0072928D01*
X0110286Y0009935D01*
X0047294Y0009935D01*
X0047294Y0072928D01*
X0070916Y0057179D02*
X0070916Y0041431D01*
X0086664Y0041431D01*
X0086664Y0057179D01*
X0070916Y0057179D01*
X0072885Y0033557D02*
X0072885Y0025683D01*
X0080759Y0025683D01*
X0080759Y0033557D01*
X0072885Y0033557D01*
D14*
X0032137Y0054986D02*
X0012137Y0054986D01*
D15*
X0006133Y0044387D03*
X0014780Y0022906D03*
X0023397Y0023180D03*
M02*
