G75*
%MOIN*%
%OFA0B0*%
%FSLAX25Y25*%
%IPPOS*%
%LPD*%
%AMOC8*
5,1,8,0,0,1.08239X$1,22.5*
%
%ADD10R,0.03150X0.04724*%
%ADD11R,0.03150X0.02362*%
%ADD12R,0.06000X0.05000*%
%ADD13R,0.04331X0.03937*%
%ADD14R,0.02559X0.01969*%
%ADD15R,0.03937X0.05512*%
%ADD16C,0.00354*%
%ADD17R,0.04724X0.11811*%
%ADD18R,0.05000X0.06000*%
%ADD19C,0.00600*%
%ADD20C,0.02400*%
D10*
X0019381Y0008500D03*
X0026467Y0008500D03*
X0035581Y0067300D03*
X0042667Y0067300D03*
D11*
X0009124Y0014450D03*
X0009124Y0008150D03*
D12*
X0007724Y0052700D03*
X0007724Y0060500D03*
D13*
X0035778Y0075300D03*
X0042470Y0075300D03*
X0042870Y0040500D03*
X0036178Y0040500D03*
D14*
X0034863Y0049176D03*
X0034863Y0052325D03*
X0034863Y0055475D03*
X0034863Y0058624D03*
X0039785Y0058624D03*
X0039785Y0055475D03*
X0039785Y0052325D03*
X0039785Y0049176D03*
D15*
X0026464Y0039831D03*
X0018984Y0039831D03*
X0022724Y0031169D03*
X0019384Y0059969D03*
X0026864Y0059969D03*
X0023124Y0068631D03*
D16*
X0024873Y0023834D02*
X0024873Y0020646D01*
X0024873Y0023834D02*
X0029637Y0023834D01*
X0029637Y0020646D01*
X0024873Y0020646D01*
X0024873Y0020999D02*
X0029637Y0020999D01*
X0029637Y0021352D02*
X0024873Y0021352D01*
X0024873Y0021705D02*
X0029637Y0021705D01*
X0029637Y0022058D02*
X0024873Y0022058D01*
X0024873Y0022411D02*
X0029637Y0022411D01*
X0029637Y0022764D02*
X0024873Y0022764D01*
X0024873Y0023117D02*
X0029637Y0023117D01*
X0029637Y0023470D02*
X0024873Y0023470D01*
X0024873Y0023823D02*
X0029637Y0023823D01*
X0024873Y0016354D02*
X0024873Y0013166D01*
X0024873Y0016354D02*
X0029637Y0016354D01*
X0029637Y0013166D01*
X0024873Y0013166D01*
X0024873Y0013519D02*
X0029637Y0013519D01*
X0029637Y0013872D02*
X0024873Y0013872D01*
X0024873Y0014225D02*
X0029637Y0014225D01*
X0029637Y0014578D02*
X0024873Y0014578D01*
X0024873Y0014931D02*
X0029637Y0014931D01*
X0029637Y0015284D02*
X0024873Y0015284D01*
X0024873Y0015637D02*
X0029637Y0015637D01*
X0029637Y0015990D02*
X0024873Y0015990D01*
X0024873Y0016343D02*
X0029637Y0016343D01*
X0016211Y0016906D02*
X0016211Y0020094D01*
X0020975Y0020094D01*
X0020975Y0016906D01*
X0016211Y0016906D01*
X0016211Y0017259D02*
X0020975Y0017259D01*
X0020975Y0017612D02*
X0016211Y0017612D01*
X0016211Y0017965D02*
X0020975Y0017965D01*
X0020975Y0018318D02*
X0016211Y0018318D01*
X0016211Y0018671D02*
X0020975Y0018671D01*
X0020975Y0019024D02*
X0016211Y0019024D01*
X0016211Y0019377D02*
X0020975Y0019377D01*
X0020975Y0019730D02*
X0016211Y0019730D01*
X0016211Y0020083D02*
X0020975Y0020083D01*
D17*
X0056502Y0013772D03*
X0064376Y0013772D03*
X0072250Y0013772D03*
X0080124Y0013772D03*
X0087998Y0013772D03*
X0095872Y0013772D03*
X0103746Y0013772D03*
X0103746Y0072828D03*
X0095872Y0072828D03*
X0087998Y0072828D03*
X0080124Y0072828D03*
X0072250Y0072828D03*
X0064376Y0072828D03*
X0056502Y0072828D03*
D18*
X0027524Y0077500D03*
X0015524Y0077500D03*
D19*
X0004924Y0006500D02*
X0006724Y0004700D01*
X0021124Y0004700D01*
X0024724Y0008300D01*
X0025924Y0008300D01*
X0026467Y0008500D01*
X0026524Y0008900D01*
X0026524Y0013700D01*
X0027124Y0014300D01*
X0027255Y0014760D01*
X0027724Y0014900D01*
X0031924Y0014900D01*
X0027724Y0022100D02*
X0027255Y0022240D01*
X0027724Y0022100D02*
X0024124Y0018500D01*
X0020524Y0022100D01*
X0018124Y0022700D02*
X0018124Y0018500D01*
X0018593Y0018500D01*
X0019924Y0015500D02*
X0021124Y0015500D01*
X0024124Y0018500D01*
X0019924Y0015500D02*
X0012724Y0008300D01*
X0009124Y0008300D01*
X0009124Y0008150D01*
X0007324Y0005900D02*
X0006124Y0007100D01*
X0006124Y0011300D01*
X0007324Y0011300D01*
X0006124Y0011300D02*
X0006124Y0020900D01*
X0024724Y0039500D01*
X0025924Y0039500D01*
X0026464Y0039831D01*
X0026524Y0040100D01*
X0034324Y0047900D01*
X0034324Y0049100D01*
X0034863Y0049176D01*
X0037324Y0050300D02*
X0035524Y0052100D01*
X0034924Y0052100D01*
X0034863Y0052325D01*
X0034324Y0052700D01*
X0031324Y0049700D01*
X0033724Y0055100D02*
X0018724Y0040100D01*
X0018984Y0039831D01*
X0013924Y0041300D02*
X0013924Y0031700D01*
X0010924Y0031100D02*
X0010924Y0040100D01*
X0019324Y0048500D01*
X0019324Y0059900D01*
X0019384Y0059969D01*
X0016324Y0056900D02*
X0016324Y0063500D01*
X0019324Y0066500D01*
X0016924Y0067100D02*
X0016924Y0065900D01*
X0014524Y0063500D01*
X0014524Y0052700D01*
X0004924Y0043100D01*
X0004924Y0031100D01*
X0005524Y0031100D01*
X0004924Y0031100D02*
X0004924Y0006500D01*
X0007324Y0005900D02*
X0012124Y0005900D01*
X0014524Y0008300D01*
X0019324Y0008300D01*
X0019381Y0008500D01*
X0009124Y0014450D02*
X0009124Y0017900D01*
X0018724Y0027500D01*
X0018124Y0027500D01*
X0016924Y0028700D01*
X0018724Y0027500D02*
X0022324Y0031100D01*
X0022724Y0031169D01*
X0022324Y0024500D02*
X0019924Y0024500D01*
X0018124Y0022700D01*
X0022324Y0024500D02*
X0029524Y0031700D01*
X0029524Y0040100D01*
X0037324Y0047900D01*
X0037324Y0050300D01*
X0039724Y0049700D02*
X0039724Y0052100D01*
X0039785Y0052325D01*
X0040324Y0052700D01*
X0043324Y0052700D01*
X0043324Y0049700D02*
X0047524Y0053900D01*
X0047524Y0056300D01*
X0036124Y0067700D01*
X0035581Y0067300D01*
X0035524Y0067700D01*
X0031324Y0071900D01*
X0031324Y0076700D01*
X0033124Y0078500D01*
X0049324Y0078500D01*
X0051724Y0076100D01*
X0051724Y0067700D01*
X0053524Y0065900D01*
X0067324Y0065900D01*
X0072124Y0070700D01*
X0072124Y0072500D01*
X0072250Y0072828D01*
X0064376Y0072828D02*
X0064324Y0073100D01*
X0064324Y0074900D01*
X0059524Y0079700D01*
X0032524Y0079700D01*
X0030724Y0077900D01*
X0027724Y0077900D01*
X0027524Y0077500D01*
X0030724Y0072500D02*
X0020524Y0072500D01*
X0015724Y0067700D01*
X0015724Y0066500D01*
X0013324Y0064100D01*
X0013324Y0059300D01*
X0007924Y0053900D01*
X0007924Y0052700D01*
X0007724Y0052700D01*
X0007724Y0060500D02*
X0007924Y0060500D01*
X0007924Y0061700D01*
X0011524Y0065300D01*
X0016924Y0067100D02*
X0018724Y0068900D01*
X0022924Y0068900D01*
X0023124Y0068631D01*
X0023524Y0068300D01*
X0028924Y0068300D01*
X0030124Y0067100D01*
X0038524Y0058700D01*
X0039724Y0058700D01*
X0039785Y0058624D01*
X0040324Y0055700D02*
X0039785Y0055475D01*
X0040324Y0055700D02*
X0045124Y0055700D01*
X0048724Y0056900D02*
X0048724Y0053300D01*
X0048124Y0052700D01*
X0048124Y0046100D01*
X0055924Y0046100D01*
X0056524Y0045500D01*
X0073324Y0045500D01*
X0080524Y0038300D01*
X0083524Y0038300D01*
X0086524Y0044300D02*
X0097924Y0032900D01*
X0087124Y0032300D02*
X0100324Y0019100D01*
X0100324Y0007100D01*
X0100924Y0006500D01*
X0106324Y0006500D01*
X0110524Y0010700D01*
X0110524Y0038900D01*
X0090724Y0058700D01*
X0091324Y0065300D02*
X0090724Y0065900D01*
X0095524Y0070700D01*
X0095524Y0072500D01*
X0095872Y0072828D01*
X0094924Y0065900D02*
X0098524Y0065900D01*
X0103324Y0070700D01*
X0103324Y0072500D01*
X0103746Y0072828D01*
X0103924Y0072500D01*
X0108124Y0072500D01*
X0111124Y0072500D02*
X0111124Y0075500D01*
X0106924Y0079700D01*
X0093124Y0079700D01*
X0088324Y0074900D01*
X0088324Y0073100D01*
X0087998Y0072828D01*
X0087724Y0072500D01*
X0087724Y0070700D01*
X0078724Y0061700D01*
X0070324Y0061700D01*
X0075124Y0051500D02*
X0065524Y0051500D01*
X0063724Y0047900D02*
X0049924Y0061700D01*
X0046924Y0061700D01*
X0042724Y0062900D02*
X0042724Y0067100D01*
X0042667Y0067300D01*
X0042124Y0067700D01*
X0040924Y0068900D01*
X0039124Y0068900D01*
X0039124Y0071900D02*
X0036124Y0074900D01*
X0035778Y0075300D01*
X0042470Y0075300D02*
X0042724Y0075500D01*
X0049324Y0075500D01*
X0042724Y0062900D02*
X0048724Y0056900D01*
X0043324Y0049700D02*
X0043324Y0049100D01*
X0043324Y0040700D01*
X0042870Y0040500D01*
X0043324Y0040100D01*
X0031324Y0028100D01*
X0031324Y0025700D01*
X0042724Y0014300D01*
X0055924Y0014300D01*
X0056502Y0013772D01*
X0060124Y0019700D02*
X0060124Y0007700D01*
X0058924Y0006500D01*
X0048724Y0006500D01*
X0030124Y0025100D01*
X0030124Y0028700D01*
X0039724Y0038300D01*
X0039724Y0049100D01*
X0039785Y0049176D01*
X0039724Y0049700D01*
X0037324Y0044900D02*
X0037324Y0041300D01*
X0036724Y0040700D01*
X0036178Y0040500D01*
X0046924Y0032900D02*
X0054124Y0025700D01*
X0066724Y0025700D01*
X0069124Y0028100D01*
X0073924Y0028100D01*
X0076924Y0028100D02*
X0072724Y0023900D01*
X0059524Y0023900D01*
X0057124Y0021500D01*
X0060124Y0019700D02*
X0061924Y0021500D01*
X0065524Y0028100D02*
X0066124Y0028100D01*
X0065524Y0028100D02*
X0054724Y0038900D01*
X0054124Y0042500D02*
X0059524Y0042500D01*
X0063724Y0038300D01*
X0064324Y0032300D02*
X0087124Y0032300D01*
X0072724Y0043100D02*
X0072124Y0043700D01*
X0056524Y0043700D01*
X0055324Y0044900D01*
X0053524Y0044900D01*
X0034924Y0026300D01*
X0033724Y0026300D01*
X0013924Y0041300D02*
X0028324Y0055700D01*
X0028324Y0058700D01*
X0026864Y0059969D01*
X0027124Y0059900D01*
X0028324Y0058700D01*
X0034324Y0058700D01*
X0034863Y0058624D01*
X0034863Y0055475D02*
X0034324Y0055100D01*
X0033724Y0055100D01*
X0016924Y0054500D02*
X0016924Y0056300D01*
X0016324Y0056900D01*
X0016924Y0071900D02*
X0015724Y0073100D01*
X0015724Y0077300D01*
X0015524Y0077500D01*
X0030724Y0072500D02*
X0031324Y0071900D01*
X0072124Y0047900D02*
X0076924Y0047900D01*
X0103324Y0021500D01*
X0103324Y0014300D01*
X0103746Y0013772D01*
X0103924Y0014300D01*
X0108124Y0014300D01*
X0080524Y0051500D02*
X0078124Y0051500D01*
X0080524Y0051500D02*
X0094924Y0065900D01*
X0090724Y0065900D02*
X0089524Y0065900D01*
X0075124Y0051500D01*
D20*
X0078124Y0051500D03*
X0072124Y0047900D03*
X0072724Y0043100D03*
X0063724Y0047900D03*
X0065524Y0051500D03*
X0070324Y0061700D03*
X0049324Y0075500D03*
X0039124Y0071900D03*
X0039124Y0068900D03*
X0030124Y0067100D03*
X0019324Y0066500D03*
X0016924Y0071900D03*
X0011524Y0065300D03*
X0016924Y0054500D03*
X0031324Y0049700D03*
X0037324Y0044900D03*
X0043324Y0049100D03*
X0043324Y0052700D03*
X0045124Y0055700D03*
X0046924Y0061700D03*
X0048124Y0046100D03*
X0054124Y0042500D03*
X0054724Y0038900D03*
X0046924Y0032900D03*
X0033724Y0026300D03*
X0020524Y0022100D03*
X0016924Y0028700D03*
X0013924Y0031700D03*
X0010924Y0031100D03*
X0005524Y0031100D03*
X0007324Y0011300D03*
X0031924Y0014900D03*
X0057124Y0021500D03*
X0061924Y0021500D03*
X0066124Y0028100D03*
X0064324Y0032300D03*
X0063724Y0038300D03*
X0073924Y0028100D03*
X0076924Y0028100D03*
X0083524Y0038300D03*
X0086524Y0044300D03*
X0097924Y0032900D03*
X0108124Y0014300D03*
X0090724Y0058700D03*
X0091324Y0065300D03*
X0108124Y0072500D03*
X0111124Y0072500D03*
M02*
