%
M48
M72
T01C0.01200
%
T01
X8190Y13031
X10590Y28031
X24390Y14831
X30390Y14231
X35190Y20231
X35190Y25631
X29190Y30431
X35190Y35831
X32790Y38231
X33390Y45431
X29790Y54431
X33990Y61631
X41190Y61631
X50790Y66431
X51390Y59231
X58590Y58031
X62790Y63431
X74790Y65231
X77790Y53831
X84990Y52631
X92190Y57431
X90990Y62231
X90990Y65231
X108390Y57431
X96390Y41831
X84990Y43631
X75990Y41831
X74190Y37031
X66390Y34631
X64590Y30431
X60990Y33431
X51990Y28031
X50790Y31031
X58590Y25631
X58590Y22031
X65190Y20231
X50790Y13631
X47790Y15431
X51390Y39431
X51390Y45431
X62790Y43031
X93990Y17831
X30390Y68831
X32190Y73631
X11190Y65231
X11190Y57431
X14190Y47831
X11190Y47231
X14790Y43031
M30
