G75*
%MOIN*%
%OFA0B0*%
%FSLAX25Y25*%
%IPPOS*%
%LPD*%
%AMOC8*
5,1,8,0,0,1.08239X$1,22.5*
%
%ADD10C,0.00100*%
%ADD11C,0.00600*%
%ADD12C,0.00500*%
%ADD13R,0.01800X0.03000*%
%ADD14C,0.00200*%
%ADD15R,0.02362X0.01772*%
%ADD16C,0.00800*%
%ADD17C,0.00400*%
D10*
X0002600Y0015350D02*
X0003601Y0015350D01*
X0003100Y0015350D02*
X0003100Y0016851D01*
X0003601Y0016351D01*
X0004073Y0016601D02*
X0004073Y0015600D01*
X0004323Y0015350D01*
X0005074Y0015350D01*
X0005074Y0016851D01*
X0004323Y0016851D01*
X0004073Y0016601D01*
X0023400Y0013051D02*
X0023650Y0013301D01*
X0024151Y0013301D01*
X0024401Y0013051D01*
X0024873Y0013051D02*
X0025123Y0013301D01*
X0025624Y0013301D01*
X0025874Y0013051D01*
X0025874Y0012050D01*
X0025624Y0011800D01*
X0025123Y0011800D01*
X0024873Y0012050D01*
X0024401Y0011800D02*
X0023400Y0012801D01*
X0023400Y0013051D01*
X0023400Y0011800D02*
X0024401Y0011800D01*
X0054127Y0006851D02*
X0054127Y0005350D01*
X0054877Y0005350D01*
X0055128Y0005600D01*
X0055128Y0006101D01*
X0054877Y0006351D01*
X0054127Y0006351D01*
X0055600Y0006101D02*
X0055600Y0005350D01*
X0055600Y0006101D02*
X0055850Y0006351D01*
X0056601Y0006351D01*
X0056601Y0005350D01*
X0057073Y0005350D02*
X0057824Y0005350D01*
X0058074Y0005600D01*
X0058074Y0006101D01*
X0057824Y0006351D01*
X0057073Y0006351D01*
X0057073Y0005100D01*
X0057323Y0004850D01*
X0057574Y0004850D01*
X0061873Y0005350D02*
X0062123Y0005600D01*
X0062123Y0006601D01*
X0062373Y0006351D02*
X0061873Y0006351D01*
X0062845Y0006351D02*
X0063596Y0006351D01*
X0063846Y0006101D01*
X0063596Y0005850D01*
X0063096Y0005850D01*
X0062845Y0005600D01*
X0063096Y0005350D01*
X0063846Y0005350D01*
X0064323Y0006351D02*
X0064574Y0006351D01*
X0065074Y0005850D01*
X0065074Y0005350D02*
X0065074Y0006351D01*
X0102600Y0006101D02*
X0102850Y0006351D01*
X0103351Y0006351D01*
X0103601Y0006101D01*
X0103601Y0005600D01*
X0103351Y0005350D01*
X0102850Y0005350D01*
X0102600Y0005600D01*
X0102600Y0006101D01*
X0104073Y0006351D02*
X0104824Y0006351D01*
X0105074Y0006101D01*
X0104824Y0005850D01*
X0104323Y0005850D01*
X0104073Y0005600D01*
X0104323Y0005350D01*
X0105074Y0005350D01*
X0042974Y0043550D02*
X0042974Y0045051D01*
X0042223Y0045051D01*
X0041973Y0044801D01*
X0041973Y0044301D01*
X0042223Y0044050D01*
X0042974Y0044050D01*
X0042474Y0044050D02*
X0041973Y0043550D01*
X0041501Y0043800D02*
X0041251Y0043550D01*
X0040750Y0043550D01*
X0040500Y0043800D01*
X0040500Y0044301D01*
X0040750Y0044551D01*
X0041000Y0044551D01*
X0041501Y0044301D01*
X0041501Y0045051D01*
X0040500Y0045051D01*
X0015011Y0048000D02*
X0015011Y0049502D01*
X0014511Y0049001D01*
X0014010Y0049502D01*
X0014010Y0048000D01*
X0013538Y0048251D02*
X0013288Y0048000D01*
X0012787Y0048000D01*
X0012537Y0048251D01*
X0012537Y0049251D01*
X0012787Y0049502D01*
X0013288Y0049502D01*
X0013538Y0049251D01*
X0013538Y0048251D01*
X0012065Y0049502D02*
X0011064Y0049502D01*
X0011564Y0049502D02*
X0011564Y0048000D01*
X0010592Y0048251D02*
X0010341Y0048000D01*
X0009841Y0048000D01*
X0009591Y0048251D01*
X0009591Y0049251D01*
X0009841Y0049502D01*
X0010341Y0049502D01*
X0010592Y0049251D01*
X0010592Y0048251D01*
X0009118Y0048501D02*
X0008368Y0048501D01*
X0008117Y0048751D01*
X0008117Y0049251D01*
X0008368Y0049502D01*
X0009118Y0049502D01*
X0009118Y0048000D01*
X0008618Y0048501D02*
X0008117Y0048000D01*
X0007645Y0048251D02*
X0007395Y0048000D01*
X0006894Y0048000D01*
X0006644Y0048251D01*
X0006644Y0048751D01*
X0007145Y0048751D01*
X0007645Y0049251D02*
X0007645Y0048251D01*
X0007645Y0049251D02*
X0007395Y0049502D01*
X0006894Y0049502D01*
X0006644Y0049251D01*
X0006172Y0049502D02*
X0005171Y0048000D01*
X0005171Y0049502D01*
X0004698Y0049502D02*
X0003948Y0049502D01*
X0003698Y0049251D01*
X0003698Y0048251D01*
X0003948Y0048000D01*
X0004698Y0048000D01*
X0004698Y0049502D01*
X0006172Y0049502D02*
X0006172Y0048000D01*
X0006230Y0063700D02*
X0006230Y0065201D01*
X0005479Y0065201D01*
X0005229Y0064951D01*
X0005229Y0064450D01*
X0005479Y0064200D01*
X0006230Y0064200D01*
X0005729Y0064200D02*
X0005229Y0063700D01*
X0006702Y0063950D02*
X0006702Y0064951D01*
X0006952Y0065201D01*
X0007453Y0065201D01*
X0007703Y0064951D01*
X0007703Y0063950D01*
X0007453Y0063700D01*
X0006952Y0063700D01*
X0006702Y0063950D01*
X0008175Y0065201D02*
X0009176Y0065201D01*
X0008676Y0065201D02*
X0008676Y0063700D01*
X0009649Y0063950D02*
X0009649Y0064951D01*
X0009899Y0065201D01*
X0010399Y0065201D01*
X0010650Y0064951D01*
X0010650Y0063950D01*
X0010399Y0063700D01*
X0009899Y0063700D01*
X0009649Y0063950D01*
X0011122Y0063700D02*
X0011122Y0065201D01*
X0011622Y0064700D01*
X0012123Y0065201D01*
X0012123Y0063700D01*
X0019224Y0073101D02*
X0018724Y0073602D01*
X0019224Y0074102D01*
X0020225Y0074102D01*
X0020225Y0075075D02*
X0020225Y0075575D01*
X0020225Y0075325D02*
X0018974Y0075325D01*
X0018724Y0075075D01*
X0018724Y0074825D01*
X0018974Y0074574D01*
X0019224Y0073101D02*
X0020225Y0073101D01*
X0019724Y0076048D02*
X0020225Y0076548D01*
X0018724Y0076548D01*
X0018724Y0076048D02*
X0018724Y0077049D01*
X0030724Y0075075D02*
X0030974Y0075325D01*
X0032225Y0075325D01*
X0032225Y0075075D02*
X0032225Y0075575D01*
X0032225Y0074102D02*
X0031224Y0074102D01*
X0030724Y0073602D01*
X0031224Y0073101D01*
X0032225Y0073101D01*
X0030974Y0074574D02*
X0030724Y0074825D01*
X0030724Y0075075D01*
X0036547Y0072251D02*
X0036547Y0070750D01*
X0037047Y0070750D02*
X0036046Y0070750D01*
X0037047Y0071751D02*
X0036547Y0072251D01*
X0038020Y0072251D02*
X0038020Y0070750D01*
X0037520Y0070750D02*
X0038521Y0070750D01*
X0038993Y0070750D02*
X0039493Y0071250D01*
X0039600Y0071100D02*
X0039600Y0070850D01*
X0039850Y0070600D01*
X0040351Y0070600D01*
X0040601Y0070850D01*
X0041073Y0070850D02*
X0041323Y0070600D01*
X0041824Y0070600D01*
X0042074Y0070850D01*
X0042074Y0071851D01*
X0041824Y0072101D01*
X0041323Y0072101D01*
X0041073Y0071851D01*
X0040601Y0071851D02*
X0040351Y0072101D01*
X0039850Y0072101D01*
X0039600Y0071851D01*
X0039600Y0071601D01*
X0039850Y0071351D01*
X0039600Y0071100D01*
X0039850Y0071351D02*
X0040100Y0071351D01*
X0039994Y0071250D02*
X0039243Y0071250D01*
X0038993Y0071501D01*
X0038993Y0072001D01*
X0039243Y0072251D01*
X0039994Y0072251D01*
X0039994Y0070750D01*
X0038521Y0071751D02*
X0038020Y0072251D01*
X0062546Y0080751D02*
X0063047Y0079750D01*
X0063547Y0080751D01*
X0064020Y0080751D02*
X0064270Y0080501D01*
X0064020Y0080250D01*
X0064020Y0080000D01*
X0064270Y0079750D01*
X0064770Y0079750D01*
X0065021Y0080000D01*
X0065507Y0080000D02*
X0065507Y0079750D01*
X0065757Y0079750D01*
X0065757Y0080000D01*
X0065507Y0080000D01*
X0066230Y0080000D02*
X0066480Y0079750D01*
X0066980Y0079750D01*
X0067230Y0080000D01*
X0066730Y0080501D02*
X0066480Y0080501D01*
X0066230Y0080250D01*
X0066230Y0080000D01*
X0066480Y0080501D02*
X0066230Y0080751D01*
X0066230Y0081001D01*
X0066480Y0081251D01*
X0066980Y0081251D01*
X0067230Y0081001D01*
X0065021Y0081001D02*
X0064770Y0081251D01*
X0064270Y0081251D01*
X0064020Y0081001D01*
X0064020Y0080751D01*
X0064270Y0080501D02*
X0064520Y0080501D01*
X0071546Y0080751D02*
X0072297Y0080751D01*
X0072547Y0080501D01*
X0072547Y0080000D01*
X0072297Y0079750D01*
X0071546Y0079750D01*
X0071546Y0081251D01*
X0073020Y0080501D02*
X0073020Y0079750D01*
X0073020Y0080501D02*
X0073270Y0080751D01*
X0074021Y0080751D01*
X0074021Y0079750D01*
X0074493Y0079750D02*
X0075244Y0079750D01*
X0075494Y0080000D01*
X0075494Y0080501D01*
X0075244Y0080751D01*
X0074493Y0080751D01*
X0074493Y0079500D01*
X0074743Y0079250D01*
X0074993Y0079250D01*
X0087556Y0079750D02*
X0088056Y0079750D01*
X0087806Y0079750D02*
X0087806Y0080751D01*
X0088056Y0080751D01*
X0088529Y0080751D02*
X0089279Y0080751D01*
X0089529Y0080501D01*
X0089279Y0080250D01*
X0088779Y0080250D01*
X0088529Y0080000D01*
X0088779Y0079750D01*
X0089529Y0079750D01*
X0087806Y0081251D02*
X0087806Y0081501D01*
X0094551Y0080751D02*
X0095302Y0080250D01*
X0094551Y0079750D01*
X0095302Y0079750D02*
X0095302Y0081251D01*
X0095774Y0080751D02*
X0096525Y0080751D01*
X0096775Y0080501D01*
X0096775Y0080000D01*
X0096525Y0079750D01*
X0095774Y0079750D01*
X0097247Y0080000D02*
X0097498Y0080250D01*
X0097998Y0080250D01*
X0098248Y0080501D01*
X0097998Y0080751D01*
X0097247Y0080751D01*
X0097247Y0080000D02*
X0097498Y0079750D01*
X0098248Y0079750D01*
X0102546Y0080000D02*
X0102797Y0080250D01*
X0103297Y0080250D01*
X0103547Y0080501D01*
X0103297Y0080751D01*
X0102546Y0080751D01*
X0102546Y0080000D02*
X0102797Y0079750D01*
X0103547Y0079750D01*
X0104020Y0080000D02*
X0104270Y0080250D01*
X0104770Y0080250D01*
X0105021Y0080501D01*
X0104770Y0080751D01*
X0104020Y0080751D01*
X0104020Y0080000D02*
X0104270Y0079750D01*
X0105021Y0079750D01*
X0105493Y0079750D02*
X0105493Y0080501D01*
X0105743Y0080751D01*
X0106244Y0080751D01*
X0106494Y0080501D01*
X0106494Y0081251D02*
X0106494Y0079750D01*
D11*
X0058765Y0062058D02*
X0054361Y0062058D01*
X0054361Y0060591D02*
X0054361Y0063526D01*
X0057297Y0060591D02*
X0058765Y0062058D01*
X0040305Y0064938D02*
X0037943Y0064938D01*
X0037943Y0069662D02*
X0040305Y0069662D01*
X0024105Y0010862D02*
X0021743Y0010862D01*
X0021743Y0006138D02*
X0024105Y0006138D01*
D12*
X0012077Y0005394D02*
X0006171Y0005394D01*
X0006171Y0017206D01*
X0012077Y0017206D01*
X0012077Y0005394D01*
X0010874Y0010550D02*
X0007374Y0010550D01*
X0009124Y0012050D01*
X0010874Y0010550D01*
X0010874Y0012050D02*
X0007374Y0012050D01*
X0020365Y0012988D02*
X0020365Y0024012D01*
X0025483Y0024012D01*
X0025483Y0012988D01*
X0020365Y0012988D01*
D13*
X0039524Y0040500D03*
X0039124Y0075300D03*
D14*
X0030524Y0074102D02*
X0029056Y0074102D01*
X0029790Y0074102D02*
X0029790Y0071900D01*
X0028314Y0071900D02*
X0026846Y0071900D01*
X0027580Y0071900D02*
X0027580Y0074102D01*
X0028314Y0073368D01*
X0042891Y0058258D02*
X0043258Y0058258D01*
X0043625Y0057891D01*
X0043625Y0056790D01*
X0042891Y0056790D01*
X0042524Y0057157D01*
X0042524Y0057891D01*
X0042891Y0058258D01*
X0044359Y0057524D02*
X0043625Y0056790D01*
X0043625Y0056048D02*
X0043258Y0055681D01*
X0043258Y0054580D01*
X0042524Y0054580D02*
X0044726Y0054580D01*
X0044726Y0055681D01*
X0044359Y0056048D01*
X0043625Y0056048D01*
X0043258Y0055314D02*
X0042524Y0056048D01*
X0044359Y0057524D02*
X0044726Y0058258D01*
X0019544Y0027902D02*
X0018076Y0027902D01*
X0018810Y0027902D02*
X0018810Y0025700D01*
X0017334Y0025700D02*
X0015866Y0027168D01*
X0015866Y0027535D01*
X0016233Y0027902D01*
X0016967Y0027902D01*
X0017334Y0027535D01*
X0017334Y0025700D02*
X0015866Y0025700D01*
X0031824Y0019701D02*
X0031824Y0018967D01*
X0032191Y0018600D01*
X0032925Y0019334D02*
X0032925Y0019701D01*
X0032558Y0020068D01*
X0032191Y0020068D01*
X0031824Y0019701D01*
X0032925Y0019701D02*
X0033292Y0020068D01*
X0033659Y0020068D01*
X0034026Y0019701D01*
X0034026Y0018967D01*
X0033659Y0018600D01*
X0034026Y0017858D02*
X0034026Y0016390D01*
X0034026Y0017124D02*
X0031824Y0017124D01*
D15*
X0026959Y0014760D03*
X0026959Y0022240D03*
X0018889Y0018500D03*
D16*
X0048628Y0011804D02*
X0111620Y0011804D01*
X0111620Y0074796D01*
X0048628Y0074796D01*
X0048628Y0011804D01*
X0074219Y0027552D02*
X0082093Y0027552D01*
X0082093Y0035426D01*
X0074219Y0035426D01*
X0074219Y0027552D01*
X0072250Y0043300D02*
X0072250Y0059048D01*
X0087998Y0059048D01*
X0087998Y0043300D01*
X0072250Y0043300D01*
D17*
X0064495Y0049725D02*
X0060658Y0049725D01*
X0059891Y0050493D01*
X0059891Y0052027D01*
X0060658Y0052794D01*
X0064495Y0052794D01*
X0063728Y0054329D02*
X0064495Y0055096D01*
X0064495Y0056631D01*
X0063728Y0057398D01*
X0062960Y0057398D01*
X0059891Y0054329D01*
X0059891Y0057398D01*
M02*
