G75*
%MOIN*%
%OFA0B0*%
%FSLAX25Y25*%
%IPPOS*%
%LPD*%
%AMOC8*
5,1,8,0,0,1.08239X$1,22.5*
%
%ADD10C,0.00100*%
%ADD11R,0.01800X0.03000*%
%ADD12C,0.00600*%
%ADD13C,0.00200*%
%ADD14C,0.00800*%
%ADD15R,0.03000X0.01800*%
D10*
X0003183Y0011200D02*
X0003934Y0011200D01*
X0004184Y0011451D01*
X0004184Y0011701D01*
X0003934Y0011951D01*
X0003183Y0011951D01*
X0003183Y0011200D02*
X0003183Y0012702D01*
X0003934Y0012702D01*
X0004184Y0012451D01*
X0004184Y0012201D01*
X0003934Y0011951D01*
X0004657Y0011951D02*
X0005657Y0011951D01*
X0005657Y0012201D02*
X0005657Y0011200D01*
X0006630Y0011200D02*
X0006630Y0012702D01*
X0006130Y0012702D02*
X0007131Y0012702D01*
X0007603Y0012451D02*
X0007603Y0011451D01*
X0007853Y0011200D01*
X0008354Y0011200D01*
X0008604Y0011451D01*
X0008604Y0011951D01*
X0008103Y0011951D01*
X0007603Y0012451D02*
X0007853Y0012702D01*
X0008354Y0012702D01*
X0008604Y0012451D01*
X0009076Y0012702D02*
X0010077Y0011200D01*
X0010077Y0012702D01*
X0010550Y0012702D02*
X0011300Y0012702D01*
X0011550Y0012451D01*
X0011550Y0011451D01*
X0011300Y0011200D01*
X0010550Y0011200D01*
X0010550Y0012702D01*
X0009076Y0012702D02*
X0009076Y0011200D01*
X0005657Y0012201D02*
X0005157Y0012702D01*
X0004657Y0012201D01*
X0004657Y0011200D01*
X0006130Y0020000D02*
X0006880Y0020000D01*
X0007131Y0020251D01*
X0007131Y0020501D01*
X0006880Y0020751D01*
X0006130Y0020751D01*
X0006880Y0020751D02*
X0007131Y0021001D01*
X0007131Y0021251D01*
X0006880Y0021502D01*
X0006130Y0021502D01*
X0006130Y0020000D01*
X0007603Y0020000D02*
X0007603Y0021001D01*
X0008103Y0021502D01*
X0008604Y0021001D01*
X0008604Y0020000D01*
X0008604Y0020751D02*
X0007603Y0020751D01*
X0009076Y0021502D02*
X0010077Y0021502D01*
X0009577Y0021502D02*
X0009577Y0020000D01*
X0010550Y0020751D02*
X0011550Y0020751D01*
X0011050Y0021251D02*
X0011050Y0020251D01*
X0010727Y0031350D02*
X0010727Y0032851D01*
X0011478Y0032851D01*
X0011728Y0032601D01*
X0011728Y0032101D01*
X0011478Y0031850D01*
X0010727Y0031850D01*
X0011228Y0031850D02*
X0011728Y0031350D01*
X0012201Y0031600D02*
X0012451Y0031350D01*
X0012951Y0031350D01*
X0013202Y0031600D01*
X0013202Y0031850D01*
X0012951Y0032101D01*
X0012701Y0032101D01*
X0012951Y0032101D02*
X0013202Y0032351D01*
X0013202Y0032601D01*
X0012951Y0032851D01*
X0012451Y0032851D01*
X0012201Y0032601D01*
X0020674Y0031751D02*
X0020674Y0030500D01*
X0020924Y0030250D01*
X0021425Y0030250D01*
X0021675Y0030500D01*
X0021675Y0031751D01*
X0022147Y0031501D02*
X0022397Y0031751D01*
X0022898Y0031751D01*
X0023148Y0031501D01*
X0023148Y0031251D01*
X0022898Y0031001D01*
X0023148Y0030750D01*
X0023148Y0030500D01*
X0022898Y0030250D01*
X0022397Y0030250D01*
X0022147Y0030500D01*
X0022648Y0031001D02*
X0022898Y0031001D01*
X0036674Y0044100D02*
X0036924Y0043850D01*
X0037425Y0043850D01*
X0037675Y0044100D01*
X0037675Y0045351D01*
X0038147Y0044601D02*
X0038898Y0044601D01*
X0039148Y0044350D01*
X0039148Y0044100D01*
X0038898Y0043850D01*
X0038397Y0043850D01*
X0038147Y0044100D01*
X0038147Y0044601D01*
X0038648Y0045101D01*
X0039148Y0045351D01*
X0036674Y0045351D02*
X0036674Y0044100D01*
X0023621Y0053350D02*
X0022871Y0054101D01*
X0022621Y0053850D02*
X0023621Y0054851D01*
X0022621Y0054851D02*
X0022621Y0053350D01*
X0022148Y0053600D02*
X0021898Y0053350D01*
X0021397Y0053350D01*
X0021147Y0053600D01*
X0022148Y0054601D01*
X0022148Y0053600D01*
X0021147Y0053600D02*
X0021147Y0054601D01*
X0021397Y0054851D01*
X0021898Y0054851D01*
X0022148Y0054601D01*
X0020675Y0053350D02*
X0019674Y0053350D01*
X0020174Y0053350D02*
X0020174Y0054851D01*
X0019674Y0054351D01*
X0023727Y0058150D02*
X0023727Y0059651D01*
X0024478Y0059651D01*
X0024728Y0059401D01*
X0024728Y0058901D01*
X0024478Y0058650D01*
X0023727Y0058650D01*
X0024228Y0058650D02*
X0024728Y0058150D01*
X0025201Y0058901D02*
X0026202Y0058901D01*
X0025951Y0059651D02*
X0025201Y0058901D01*
X0025951Y0059651D02*
X0025951Y0058150D01*
X0039227Y0058350D02*
X0039478Y0058100D01*
X0039978Y0058100D01*
X0040228Y0058350D01*
X0040701Y0058851D02*
X0041702Y0058851D01*
X0041451Y0059601D02*
X0040701Y0058851D01*
X0040228Y0059351D02*
X0039978Y0059601D01*
X0039478Y0059601D01*
X0039227Y0059351D01*
X0039227Y0058350D01*
X0041451Y0058100D02*
X0041451Y0059601D01*
X0052423Y0073501D02*
X0053924Y0073501D01*
X0053924Y0074502D01*
X0053924Y0074974D02*
X0053924Y0075475D01*
X0053924Y0075225D02*
X0052423Y0075225D01*
X0052423Y0075475D02*
X0052423Y0074974D01*
X0052673Y0075957D02*
X0053674Y0075957D01*
X0053924Y0076207D01*
X0053924Y0076707D01*
X0053674Y0076957D01*
X0053174Y0076957D01*
X0053174Y0076457D01*
X0052673Y0075957D02*
X0052423Y0076207D01*
X0052423Y0076707D01*
X0052673Y0076957D01*
X0052423Y0077430D02*
X0053924Y0077430D01*
X0053174Y0077430D02*
X0053174Y0078431D01*
X0053924Y0078431D02*
X0052423Y0078431D01*
X0052423Y0078903D02*
X0052423Y0079904D01*
X0052423Y0079404D02*
X0053924Y0079404D01*
X0060423Y0078421D02*
X0061924Y0078421D01*
X0061924Y0077921D02*
X0061924Y0078922D01*
X0060924Y0077921D02*
X0060423Y0078421D01*
X0060423Y0077449D02*
X0061924Y0076448D01*
X0061674Y0075975D02*
X0060423Y0075975D01*
X0060423Y0076448D02*
X0061924Y0077449D01*
X0061674Y0075975D02*
X0061924Y0075725D01*
X0061924Y0075225D01*
X0061674Y0074974D01*
X0060423Y0074974D01*
X0060924Y0074502D02*
X0061924Y0074502D01*
X0061174Y0074502D02*
X0061174Y0073501D01*
X0060924Y0073501D02*
X0060423Y0074002D01*
X0060924Y0074502D01*
X0060924Y0073501D02*
X0061924Y0073501D01*
X0067423Y0074002D02*
X0067924Y0074502D01*
X0068924Y0074502D01*
X0068674Y0074974D02*
X0068924Y0075225D01*
X0068924Y0075725D01*
X0068674Y0075975D01*
X0067423Y0075975D01*
X0067423Y0076448D02*
X0068924Y0077449D01*
X0068924Y0077921D02*
X0067924Y0078922D01*
X0067673Y0078922D01*
X0067423Y0078672D01*
X0067423Y0078171D01*
X0067673Y0077921D01*
X0067423Y0077449D02*
X0068924Y0076448D01*
X0068924Y0077921D02*
X0068924Y0078922D01*
X0068674Y0074974D02*
X0067423Y0074974D01*
X0068174Y0074502D02*
X0068174Y0073501D01*
X0067924Y0073501D02*
X0067423Y0074002D01*
X0067924Y0073501D02*
X0068924Y0073501D01*
X0075423Y0073802D02*
X0075924Y0074302D01*
X0076924Y0074302D01*
X0076674Y0074774D02*
X0076924Y0075025D01*
X0076924Y0075525D01*
X0076674Y0075775D01*
X0075423Y0075775D01*
X0075423Y0076248D02*
X0076924Y0077249D01*
X0076674Y0077721D02*
X0076924Y0077971D01*
X0076924Y0078472D01*
X0076674Y0078722D01*
X0076424Y0078722D01*
X0076174Y0078472D01*
X0076174Y0078221D01*
X0076174Y0078472D02*
X0075924Y0078722D01*
X0075673Y0078722D01*
X0075423Y0078472D01*
X0075423Y0077971D01*
X0075673Y0077721D01*
X0075423Y0077249D02*
X0076924Y0076248D01*
X0076674Y0074774D02*
X0075423Y0074774D01*
X0076174Y0074302D02*
X0076174Y0073301D01*
X0075924Y0073301D02*
X0075423Y0073802D01*
X0075924Y0073301D02*
X0076924Y0073301D01*
X0083423Y0073802D02*
X0083924Y0074302D01*
X0084924Y0074302D01*
X0084674Y0074774D02*
X0084924Y0075025D01*
X0084924Y0075525D01*
X0084674Y0075775D01*
X0083423Y0075775D01*
X0083423Y0076248D02*
X0084924Y0077249D01*
X0084174Y0077721D02*
X0084174Y0078722D01*
X0084924Y0078472D02*
X0083423Y0078472D01*
X0084174Y0077721D01*
X0083423Y0077249D02*
X0084924Y0076248D01*
X0084674Y0074774D02*
X0083423Y0074774D01*
X0084174Y0074302D02*
X0084174Y0073301D01*
X0083924Y0073301D02*
X0083423Y0073802D01*
X0083924Y0073301D02*
X0084924Y0073301D01*
X0091423Y0073551D02*
X0091673Y0073301D01*
X0091924Y0073301D01*
X0092174Y0073551D01*
X0092174Y0074052D01*
X0092424Y0074302D01*
X0092674Y0074302D01*
X0092924Y0074052D01*
X0092924Y0073551D01*
X0092674Y0073301D01*
X0091423Y0073551D02*
X0091423Y0074052D01*
X0091673Y0074302D01*
X0091673Y0074774D02*
X0092674Y0074774D01*
X0092924Y0075025D01*
X0092924Y0075525D01*
X0092674Y0075775D01*
X0092424Y0076248D02*
X0091423Y0077249D01*
X0091423Y0076248D02*
X0092924Y0076248D01*
X0092174Y0076498D02*
X0092924Y0077249D01*
X0091673Y0075775D02*
X0091423Y0075525D01*
X0091423Y0075025D01*
X0091673Y0074774D01*
X0095774Y0072451D02*
X0095774Y0071450D01*
X0096024Y0071200D01*
X0096525Y0071200D01*
X0096775Y0071450D01*
X0097247Y0071450D02*
X0097497Y0071200D01*
X0097998Y0071200D01*
X0098248Y0071450D01*
X0098248Y0071951D01*
X0097998Y0072201D01*
X0097748Y0072201D01*
X0097247Y0071951D01*
X0097247Y0072701D01*
X0098248Y0072701D01*
X0099223Y0073551D02*
X0099473Y0073301D01*
X0099724Y0073301D01*
X0099974Y0073551D01*
X0099974Y0074052D01*
X0100224Y0074302D01*
X0100474Y0074302D01*
X0100724Y0074052D01*
X0100724Y0073551D01*
X0100474Y0073301D01*
X0099223Y0073551D02*
X0099223Y0074052D01*
X0099473Y0074302D01*
X0099473Y0074774D02*
X0099724Y0074774D01*
X0099974Y0075025D01*
X0099974Y0075525D01*
X0100224Y0075775D01*
X0100474Y0075775D01*
X0100724Y0075525D01*
X0100724Y0075025D01*
X0100474Y0074774D01*
X0099473Y0074774D02*
X0099223Y0075025D01*
X0099223Y0075525D01*
X0099473Y0075775D01*
X0096525Y0072701D02*
X0096024Y0072701D01*
X0095774Y0072451D01*
X0096525Y0072701D02*
X0096775Y0072451D01*
X0096525Y0066301D02*
X0096024Y0066301D01*
X0095774Y0066051D01*
X0095774Y0065050D01*
X0096024Y0064800D01*
X0096525Y0064800D01*
X0096775Y0065050D01*
X0097247Y0064800D02*
X0098248Y0064800D01*
X0097748Y0064800D02*
X0097748Y0066301D01*
X0097247Y0065801D01*
X0096775Y0066051D02*
X0096525Y0066301D01*
X0107623Y0063495D02*
X0109124Y0063495D01*
X0109124Y0063995D02*
X0109124Y0062994D01*
X0109124Y0062522D02*
X0109124Y0061521D01*
X0107623Y0061521D01*
X0108124Y0061049D02*
X0109124Y0061049D01*
X0108374Y0061049D02*
X0108374Y0060048D01*
X0108124Y0060048D02*
X0107623Y0060548D01*
X0108124Y0061049D01*
X0108124Y0060048D02*
X0109124Y0060048D01*
X0109124Y0059075D02*
X0107623Y0059075D01*
X0107623Y0059575D02*
X0107623Y0058574D01*
X0107623Y0058102D02*
X0109124Y0057101D01*
X0109124Y0058102D02*
X0107623Y0057101D01*
X0109124Y0051322D02*
X0109124Y0050321D01*
X0107623Y0050321D01*
X0108124Y0049849D02*
X0109124Y0049849D01*
X0108374Y0049849D02*
X0108374Y0048848D01*
X0108124Y0048848D02*
X0107623Y0049348D01*
X0108124Y0049849D01*
X0108124Y0048848D02*
X0109124Y0048848D01*
X0109124Y0047875D02*
X0107623Y0047875D01*
X0107623Y0048375D02*
X0107623Y0047374D01*
X0107623Y0046902D02*
X0109124Y0045901D01*
X0109124Y0046902D02*
X0107623Y0045901D01*
X0107952Y0037902D02*
X0108202Y0037651D01*
X0108202Y0037401D01*
X0107952Y0037151D01*
X0107201Y0037151D01*
X0107201Y0036400D02*
X0107952Y0036400D01*
X0108202Y0036651D01*
X0108202Y0036901D01*
X0107952Y0037151D01*
X0107952Y0037902D02*
X0107201Y0037902D01*
X0107201Y0036400D01*
X0108674Y0036400D02*
X0109675Y0036400D01*
X0110148Y0036400D02*
X0110648Y0036400D01*
X0110398Y0036400D02*
X0110398Y0037902D01*
X0110148Y0037902D02*
X0110648Y0037902D01*
X0111130Y0037902D02*
X0112131Y0036400D01*
X0112131Y0037902D01*
X0112603Y0037902D02*
X0112603Y0036400D01*
X0112603Y0036901D02*
X0113604Y0037902D01*
X0114076Y0037151D02*
X0115077Y0037151D01*
X0115550Y0036400D02*
X0116550Y0036400D01*
X0115550Y0036400D02*
X0115550Y0037902D01*
X0113604Y0036400D02*
X0112853Y0037151D01*
X0111130Y0036400D02*
X0111130Y0037902D01*
X0108674Y0037902D02*
X0108674Y0036400D01*
X0108674Y0030702D02*
X0108674Y0029200D01*
X0109675Y0029200D01*
X0110148Y0029200D02*
X0110648Y0029200D01*
X0110398Y0029200D02*
X0110398Y0030702D01*
X0110148Y0030702D02*
X0110648Y0030702D01*
X0111130Y0030702D02*
X0112131Y0029200D01*
X0112131Y0030702D01*
X0112603Y0030702D02*
X0112603Y0029200D01*
X0112603Y0029701D02*
X0113604Y0030702D01*
X0114076Y0029951D02*
X0115077Y0029951D01*
X0115550Y0029701D02*
X0116300Y0029701D01*
X0116550Y0029951D01*
X0116550Y0030451D01*
X0116300Y0030702D01*
X0115550Y0030702D01*
X0115550Y0029200D01*
X0116050Y0029701D02*
X0116550Y0029200D01*
X0113604Y0029200D02*
X0112853Y0029951D01*
X0111130Y0029200D02*
X0111130Y0030702D01*
X0108202Y0030451D02*
X0108202Y0030201D01*
X0107952Y0029951D01*
X0107201Y0029951D01*
X0107201Y0029200D02*
X0107952Y0029200D01*
X0108202Y0029451D01*
X0108202Y0029701D01*
X0107952Y0029951D01*
X0108202Y0030451D02*
X0107952Y0030702D01*
X0107201Y0030702D01*
X0107201Y0029200D01*
X0107201Y0023102D02*
X0107952Y0023102D01*
X0108202Y0022851D01*
X0108202Y0022351D01*
X0107952Y0022101D01*
X0107201Y0022101D01*
X0106729Y0022101D02*
X0106729Y0021851D01*
X0106478Y0021600D01*
X0105728Y0021600D01*
X0105728Y0023102D01*
X0106478Y0023102D01*
X0106729Y0022851D01*
X0106729Y0022601D01*
X0106478Y0022351D01*
X0105728Y0022351D01*
X0105255Y0022101D02*
X0105005Y0022351D01*
X0104255Y0022351D01*
X0105005Y0022351D02*
X0105255Y0022601D01*
X0105255Y0022851D01*
X0105005Y0023102D01*
X0104255Y0023102D01*
X0104255Y0021600D01*
X0105005Y0021600D01*
X0105255Y0021851D01*
X0105255Y0022101D01*
X0106478Y0022351D02*
X0106729Y0022101D01*
X0107201Y0021600D02*
X0107201Y0023102D01*
X0107702Y0022101D02*
X0108202Y0021600D01*
X0108674Y0021600D02*
X0108674Y0023102D01*
X0108925Y0022351D02*
X0109675Y0021600D01*
X0110148Y0021600D02*
X0110148Y0023102D01*
X0109675Y0023102D02*
X0108674Y0022101D01*
X0110148Y0021600D02*
X0111148Y0021600D01*
X0111621Y0021600D02*
X0112121Y0021600D01*
X0111871Y0021600D02*
X0111871Y0023102D01*
X0111621Y0023102D02*
X0112121Y0023102D01*
X0112603Y0022851D02*
X0112603Y0021851D01*
X0112853Y0021600D01*
X0113354Y0021600D01*
X0113604Y0021851D01*
X0113604Y0022351D01*
X0113103Y0022351D01*
X0112603Y0022851D02*
X0112853Y0023102D01*
X0113354Y0023102D01*
X0113604Y0022851D01*
X0114076Y0023102D02*
X0114076Y0021600D01*
X0114076Y0022351D02*
X0115077Y0022351D01*
X0115077Y0023102D02*
X0115077Y0021600D01*
X0116050Y0021600D02*
X0116050Y0023102D01*
X0115550Y0023102D02*
X0116550Y0023102D01*
X0116350Y0016102D02*
X0115350Y0016102D01*
X0114877Y0016102D02*
X0114877Y0014600D01*
X0114877Y0015351D02*
X0113876Y0015351D01*
X0113404Y0015351D02*
X0112903Y0015351D01*
X0113404Y0015351D02*
X0113404Y0014851D01*
X0113154Y0014600D01*
X0112653Y0014600D01*
X0112403Y0014851D01*
X0112403Y0015851D01*
X0112653Y0016102D01*
X0113154Y0016102D01*
X0113404Y0015851D01*
X0113876Y0016102D02*
X0113876Y0014600D01*
X0111921Y0014600D02*
X0111421Y0014600D01*
X0111671Y0014600D02*
X0111671Y0016102D01*
X0111421Y0016102D02*
X0111921Y0016102D01*
X0110948Y0014600D02*
X0109948Y0014600D01*
X0109948Y0016102D01*
X0109475Y0016102D02*
X0108474Y0015101D01*
X0108725Y0015351D02*
X0109475Y0014600D01*
X0108474Y0014600D02*
X0108474Y0016102D01*
X0108002Y0015851D02*
X0107752Y0016102D01*
X0107001Y0016102D01*
X0107001Y0014600D01*
X0107001Y0015101D02*
X0107752Y0015101D01*
X0108002Y0015351D01*
X0108002Y0015851D01*
X0107502Y0015101D02*
X0108002Y0014600D01*
X0106529Y0014851D02*
X0106278Y0014600D01*
X0105528Y0014600D01*
X0105528Y0016102D01*
X0106278Y0016102D01*
X0106529Y0015851D01*
X0106529Y0015601D01*
X0106278Y0015351D01*
X0105528Y0015351D01*
X0105055Y0015351D02*
X0104055Y0015351D01*
X0104055Y0015601D02*
X0104555Y0016102D01*
X0105055Y0015601D01*
X0105055Y0014600D01*
X0104055Y0014600D02*
X0104055Y0015601D01*
X0106278Y0015351D02*
X0106529Y0015101D01*
X0106529Y0014851D01*
X0106673Y0007375D02*
X0106423Y0007125D01*
X0106423Y0006625D01*
X0106673Y0006374D01*
X0107674Y0006374D01*
X0107924Y0006625D01*
X0107924Y0007125D01*
X0107674Y0007375D01*
X0106673Y0007375D01*
X0106673Y0005902D02*
X0106423Y0005652D01*
X0106423Y0005151D01*
X0106673Y0004901D01*
X0106924Y0004901D01*
X0107174Y0005151D01*
X0107174Y0005652D01*
X0107424Y0005902D01*
X0107674Y0005902D01*
X0107924Y0005652D01*
X0107924Y0005151D01*
X0107674Y0004901D01*
X0115850Y0014600D02*
X0115850Y0016102D01*
X0092975Y0014250D02*
X0092975Y0013250D01*
X0092724Y0012777D02*
X0092724Y0011776D01*
X0091223Y0011776D01*
X0091724Y0011304D02*
X0092724Y0011304D01*
X0091974Y0011304D02*
X0091974Y0010303D01*
X0091724Y0010303D02*
X0091223Y0010804D01*
X0091724Y0011304D01*
X0091724Y0010303D02*
X0092724Y0010303D01*
X0092724Y0009821D02*
X0092724Y0009321D01*
X0092724Y0009571D02*
X0091223Y0009571D01*
X0091223Y0009321D02*
X0091223Y0009821D01*
X0091473Y0008849D02*
X0091974Y0008849D01*
X0092224Y0008598D01*
X0092224Y0007848D01*
X0092224Y0008348D02*
X0092724Y0008849D01*
X0092724Y0007848D02*
X0091223Y0007848D01*
X0091223Y0008598D01*
X0091473Y0008849D01*
X0091223Y0007375D02*
X0091223Y0006374D01*
X0092724Y0006374D01*
X0092724Y0007375D01*
X0091974Y0006875D02*
X0091974Y0006374D01*
X0092224Y0005902D02*
X0092474Y0005902D01*
X0092724Y0005652D01*
X0092724Y0005151D01*
X0092474Y0004901D01*
X0091974Y0005151D02*
X0091974Y0005652D01*
X0092224Y0005902D01*
X0091473Y0005902D02*
X0091223Y0005652D01*
X0091223Y0005151D01*
X0091473Y0004901D01*
X0091724Y0004901D01*
X0091974Y0005151D01*
X0084724Y0005151D02*
X0084474Y0004901D01*
X0084724Y0005151D02*
X0084724Y0005652D01*
X0084474Y0005902D01*
X0084224Y0005902D01*
X0083974Y0005652D01*
X0083974Y0005151D01*
X0083724Y0004901D01*
X0083473Y0004901D01*
X0083223Y0005151D01*
X0083223Y0005652D01*
X0083473Y0005902D01*
X0083223Y0006374D02*
X0084724Y0006374D01*
X0084724Y0007375D01*
X0084724Y0007848D02*
X0083223Y0007848D01*
X0083223Y0008598D01*
X0083473Y0008849D01*
X0083974Y0008849D01*
X0084224Y0008598D01*
X0084224Y0007848D01*
X0084224Y0008348D02*
X0084724Y0008849D01*
X0084724Y0009321D02*
X0084724Y0009821D01*
X0084724Y0009571D02*
X0083223Y0009571D01*
X0083223Y0009321D02*
X0083223Y0009821D01*
X0083724Y0010303D02*
X0083223Y0010804D01*
X0083724Y0011304D01*
X0084724Y0011304D01*
X0084724Y0011776D02*
X0084724Y0012777D01*
X0084975Y0013250D02*
X0084975Y0014250D01*
X0084724Y0015223D02*
X0083223Y0015223D01*
X0083223Y0014723D02*
X0083223Y0015724D01*
X0083223Y0016196D02*
X0084724Y0017197D01*
X0084724Y0016196D02*
X0083223Y0017197D01*
X0085527Y0019000D02*
X0085778Y0018750D01*
X0086278Y0018750D01*
X0086528Y0019000D01*
X0086528Y0020251D01*
X0087001Y0019501D02*
X0088002Y0019501D01*
X0087751Y0020251D02*
X0087001Y0019501D01*
X0087751Y0020251D02*
X0087751Y0018750D01*
X0085527Y0019000D02*
X0085527Y0020251D01*
X0091223Y0017197D02*
X0092724Y0016196D01*
X0092724Y0015724D02*
X0092224Y0015223D01*
X0092224Y0015474D02*
X0092224Y0014723D01*
X0092724Y0014723D02*
X0091223Y0014723D01*
X0091223Y0015474D01*
X0091473Y0015724D01*
X0091974Y0015724D01*
X0092224Y0015474D01*
X0091223Y0016196D02*
X0092724Y0017197D01*
X0084724Y0011776D02*
X0083223Y0011776D01*
X0083974Y0011304D02*
X0083974Y0010303D01*
X0083724Y0010303D02*
X0084724Y0010303D01*
X0083223Y0007375D02*
X0083223Y0006374D01*
X0083974Y0006374D02*
X0083974Y0006875D01*
X0076724Y0006625D02*
X0076724Y0006374D01*
X0076474Y0006374D01*
X0076474Y0006625D01*
X0076724Y0006625D01*
X0076474Y0007111D02*
X0076724Y0007361D01*
X0076724Y0007862D01*
X0076474Y0008112D01*
X0075974Y0008112D01*
X0075724Y0007862D01*
X0075724Y0007611D01*
X0075974Y0007111D01*
X0075223Y0007111D01*
X0075223Y0008112D01*
X0075974Y0008584D02*
X0075974Y0009335D01*
X0076224Y0009585D01*
X0076474Y0009585D01*
X0076724Y0009335D01*
X0076724Y0008835D01*
X0076474Y0008584D01*
X0075974Y0008584D01*
X0075473Y0009085D01*
X0075223Y0009585D01*
X0075223Y0010058D02*
X0076224Y0010058D01*
X0076724Y0010558D01*
X0076224Y0011058D01*
X0075223Y0011058D01*
X0075473Y0005902D02*
X0075223Y0005652D01*
X0075223Y0005151D01*
X0075473Y0004901D01*
X0075473Y0005902D02*
X0075724Y0005902D01*
X0076724Y0004901D01*
X0076724Y0005902D01*
X0068724Y0005652D02*
X0068724Y0005151D01*
X0068474Y0004901D01*
X0067974Y0005151D02*
X0067974Y0005652D01*
X0068224Y0005902D01*
X0068474Y0005902D01*
X0068724Y0005652D01*
X0068724Y0006374D02*
X0068724Y0007375D01*
X0068724Y0007848D02*
X0067223Y0007848D01*
X0067223Y0008598D01*
X0067473Y0008849D01*
X0067974Y0008849D01*
X0068224Y0008598D01*
X0068224Y0007848D01*
X0068224Y0008348D02*
X0068724Y0008849D01*
X0068724Y0009321D02*
X0068724Y0009821D01*
X0068724Y0009571D02*
X0067223Y0009571D01*
X0067223Y0009321D02*
X0067223Y0009821D01*
X0067724Y0010303D02*
X0067223Y0010804D01*
X0067724Y0011304D01*
X0068724Y0011304D01*
X0068724Y0011776D02*
X0068724Y0012777D01*
X0068975Y0013250D02*
X0068975Y0014250D01*
X0068474Y0014723D02*
X0068724Y0014973D01*
X0068724Y0015474D01*
X0068474Y0015724D01*
X0067974Y0015724D01*
X0067974Y0015223D01*
X0067473Y0014723D02*
X0068474Y0014723D01*
X0067473Y0014723D02*
X0067223Y0014973D01*
X0067223Y0015474D01*
X0067473Y0015724D01*
X0067223Y0016196D02*
X0068724Y0017197D01*
X0067223Y0017197D01*
X0067223Y0017669D02*
X0067223Y0018420D01*
X0067473Y0018670D01*
X0068474Y0018670D01*
X0068724Y0018420D01*
X0068724Y0017669D01*
X0067223Y0017669D01*
X0067223Y0016196D02*
X0068724Y0016196D01*
X0068724Y0011776D02*
X0067223Y0011776D01*
X0067974Y0011304D02*
X0067974Y0010303D01*
X0067724Y0010303D02*
X0068724Y0010303D01*
X0067223Y0007375D02*
X0067223Y0006374D01*
X0068724Y0006374D01*
X0067974Y0006374D02*
X0067974Y0006875D01*
X0067473Y0005902D02*
X0067223Y0005652D01*
X0067223Y0005151D01*
X0067473Y0004901D01*
X0067724Y0004901D01*
X0067974Y0005151D01*
X0061124Y0005351D02*
X0060874Y0005101D01*
X0061124Y0005351D02*
X0061124Y0005852D01*
X0060874Y0006102D01*
X0060624Y0006102D01*
X0060374Y0005852D01*
X0060374Y0005351D01*
X0060124Y0005101D01*
X0059873Y0005101D01*
X0059623Y0005351D01*
X0059623Y0005852D01*
X0059873Y0006102D01*
X0059623Y0006574D02*
X0061124Y0006574D01*
X0061124Y0007575D01*
X0061124Y0008048D02*
X0059623Y0008048D01*
X0059623Y0008798D01*
X0059873Y0009049D01*
X0060374Y0009049D01*
X0060624Y0008798D01*
X0060624Y0008048D01*
X0060624Y0008548D02*
X0061124Y0009049D01*
X0061124Y0009521D02*
X0061124Y0010021D01*
X0061124Y0009771D02*
X0059623Y0009771D01*
X0059623Y0009521D02*
X0059623Y0010021D01*
X0060124Y0010503D02*
X0059623Y0011004D01*
X0060124Y0011504D01*
X0061124Y0011504D01*
X0061124Y0011976D02*
X0061124Y0012977D01*
X0061375Y0013450D02*
X0061375Y0014450D01*
X0061124Y0014923D02*
X0061124Y0015674D01*
X0060874Y0015924D01*
X0059873Y0015924D01*
X0059623Y0015674D01*
X0059623Y0014923D01*
X0061124Y0014923D01*
X0061124Y0016897D02*
X0059623Y0016897D01*
X0059623Y0017397D02*
X0059623Y0016396D01*
X0059623Y0017869D02*
X0059623Y0018620D01*
X0059873Y0018870D01*
X0060374Y0018870D01*
X0060624Y0018620D01*
X0060624Y0017869D01*
X0061124Y0017869D02*
X0059623Y0017869D01*
X0060624Y0018370D02*
X0061124Y0018870D01*
X0061124Y0011976D02*
X0059623Y0011976D01*
X0060374Y0011504D02*
X0060374Y0010503D01*
X0060124Y0010503D02*
X0061124Y0010503D01*
X0059623Y0007575D02*
X0059623Y0006574D01*
X0060374Y0006574D02*
X0060374Y0007075D01*
X0053524Y0007375D02*
X0053524Y0006374D01*
X0052023Y0006374D01*
X0052023Y0007375D01*
X0052023Y0007848D02*
X0052023Y0008598D01*
X0052273Y0008849D01*
X0052774Y0008849D01*
X0053024Y0008598D01*
X0053024Y0007848D01*
X0053024Y0008348D02*
X0053524Y0008849D01*
X0053524Y0009321D02*
X0053524Y0009821D01*
X0053524Y0009571D02*
X0052023Y0009571D01*
X0052023Y0009321D02*
X0052023Y0009821D01*
X0052524Y0010303D02*
X0052023Y0010804D01*
X0052524Y0011304D01*
X0053524Y0011304D01*
X0053524Y0011776D02*
X0053524Y0012777D01*
X0053775Y0013250D02*
X0053775Y0014250D01*
X0053024Y0014723D02*
X0053524Y0015223D01*
X0053024Y0015724D01*
X0052023Y0015724D01*
X0052774Y0016196D02*
X0052774Y0017197D01*
X0052273Y0016697D02*
X0053274Y0016697D01*
X0053024Y0014723D02*
X0052023Y0014723D01*
X0052023Y0011776D02*
X0053524Y0011776D01*
X0052774Y0011304D02*
X0052774Y0010303D01*
X0052524Y0010303D02*
X0053524Y0010303D01*
X0053524Y0007848D02*
X0052023Y0007848D01*
X0052774Y0006875D02*
X0052774Y0006374D01*
X0053024Y0005902D02*
X0053274Y0005902D01*
X0053524Y0005652D01*
X0053524Y0005151D01*
X0053274Y0004901D01*
X0052774Y0005151D02*
X0052774Y0005652D01*
X0053024Y0005902D01*
X0052273Y0005902D02*
X0052023Y0005652D01*
X0052023Y0005151D01*
X0052273Y0004901D01*
X0052524Y0004901D01*
X0052774Y0005151D01*
X0043474Y0017903D02*
X0041973Y0017903D01*
X0041973Y0018654D01*
X0042223Y0018904D01*
X0042723Y0018904D01*
X0042974Y0018654D01*
X0042974Y0017903D01*
X0042974Y0018404D02*
X0043474Y0018904D01*
X0043474Y0019377D02*
X0043474Y0020378D01*
X0043474Y0019877D02*
X0041973Y0019877D01*
X0042473Y0019377D01*
X0011750Y0048101D02*
X0011250Y0047600D01*
X0010750Y0048101D01*
X0010750Y0049102D01*
X0010277Y0048851D02*
X0010277Y0048601D01*
X0010027Y0048351D01*
X0010277Y0048101D01*
X0010277Y0047851D01*
X0010027Y0047600D01*
X0009527Y0047600D01*
X0009276Y0047851D01*
X0008790Y0047851D02*
X0008790Y0047600D01*
X0008540Y0047600D01*
X0008540Y0047851D01*
X0008790Y0047851D01*
X0008067Y0047851D02*
X0007817Y0047600D01*
X0007317Y0047600D01*
X0007066Y0047851D01*
X0007567Y0048351D02*
X0007817Y0048351D01*
X0008067Y0048101D01*
X0008067Y0047851D01*
X0007817Y0048351D02*
X0008067Y0048601D01*
X0008067Y0048851D01*
X0007817Y0049102D01*
X0007317Y0049102D01*
X0007066Y0048851D01*
X0009276Y0048851D02*
X0009527Y0049102D01*
X0010027Y0049102D01*
X0010277Y0048851D01*
X0010027Y0048351D02*
X0009777Y0048351D01*
X0011750Y0048101D02*
X0011750Y0049102D01*
X0011750Y0055800D02*
X0011250Y0056301D01*
X0011500Y0056301D02*
X0010750Y0056301D01*
X0010750Y0055800D02*
X0010750Y0057302D01*
X0011500Y0057302D01*
X0011750Y0057051D01*
X0011750Y0056551D01*
X0011500Y0056301D01*
X0010277Y0056051D02*
X0010277Y0057051D01*
X0010027Y0057302D01*
X0009276Y0057302D01*
X0009276Y0055800D01*
X0010027Y0055800D01*
X0010277Y0056051D01*
X0008804Y0055800D02*
X0007803Y0055800D01*
X0007803Y0057302D01*
X0106423Y0073551D02*
X0106673Y0073301D01*
X0106924Y0073301D01*
X0107174Y0073551D01*
X0107174Y0074052D01*
X0107424Y0074302D01*
X0107674Y0074302D01*
X0107924Y0074052D01*
X0107924Y0073551D01*
X0107674Y0073301D01*
X0106423Y0073551D02*
X0106423Y0074052D01*
X0106673Y0074302D01*
X0106423Y0074774D02*
X0106423Y0075275D01*
X0106423Y0075025D02*
X0107924Y0075025D01*
X0107924Y0075275D02*
X0107924Y0074774D01*
X0107623Y0063495D02*
X0108124Y0062994D01*
D11*
X0023124Y0062700D03*
X0023124Y0050300D03*
X0010124Y0035900D03*
D12*
X0037943Y0060538D02*
X0040305Y0060538D01*
X0040305Y0065262D02*
X0037943Y0065262D01*
X0062125Y0054099D02*
X0089723Y0054099D01*
X0089723Y0027898D01*
X0088326Y0026501D01*
X0062125Y0026501D01*
X0062125Y0054099D01*
X0097543Y0059138D02*
X0099905Y0059138D01*
X0099905Y0063862D02*
X0097543Y0063862D01*
X0097543Y0065538D02*
X0099905Y0065538D01*
X0099905Y0070262D02*
X0097543Y0070262D01*
X0089641Y0025169D02*
X0089643Y0025244D01*
X0089649Y0025318D01*
X0089659Y0025392D01*
X0089672Y0025465D01*
X0089690Y0025538D01*
X0089711Y0025609D01*
X0089736Y0025680D01*
X0089765Y0025749D01*
X0089798Y0025816D01*
X0089834Y0025881D01*
X0089873Y0025945D01*
X0089915Y0026006D01*
X0089961Y0026065D01*
X0090010Y0026122D01*
X0090062Y0026175D01*
X0090116Y0026226D01*
X0090173Y0026275D01*
X0090233Y0026319D01*
X0090295Y0026361D01*
X0090359Y0026400D01*
X0090425Y0026435D01*
X0090492Y0026466D01*
X0090562Y0026494D01*
X0090632Y0026518D01*
X0090704Y0026539D01*
X0090777Y0026555D01*
X0090850Y0026568D01*
X0090925Y0026577D01*
X0090999Y0026582D01*
X0091074Y0026583D01*
X0091148Y0026580D01*
X0091223Y0026573D01*
X0091296Y0026562D01*
X0091370Y0026548D01*
X0091442Y0026529D01*
X0091513Y0026507D01*
X0091583Y0026481D01*
X0091652Y0026451D01*
X0091718Y0026418D01*
X0091783Y0026381D01*
X0091846Y0026341D01*
X0091907Y0026297D01*
X0091965Y0026251D01*
X0092021Y0026201D01*
X0092074Y0026149D01*
X0092125Y0026094D01*
X0092172Y0026036D01*
X0092216Y0025976D01*
X0092257Y0025913D01*
X0092295Y0025849D01*
X0092329Y0025783D01*
X0092360Y0025714D01*
X0092387Y0025645D01*
X0092410Y0025574D01*
X0092429Y0025502D01*
X0092445Y0025429D01*
X0092457Y0025355D01*
X0092465Y0025281D01*
X0092469Y0025206D01*
X0092469Y0025132D01*
X0092465Y0025057D01*
X0092457Y0024983D01*
X0092445Y0024909D01*
X0092429Y0024836D01*
X0092410Y0024764D01*
X0092387Y0024693D01*
X0092360Y0024624D01*
X0092329Y0024555D01*
X0092295Y0024489D01*
X0092257Y0024425D01*
X0092216Y0024362D01*
X0092172Y0024302D01*
X0092125Y0024244D01*
X0092074Y0024189D01*
X0092021Y0024137D01*
X0091965Y0024087D01*
X0091907Y0024041D01*
X0091846Y0023997D01*
X0091783Y0023957D01*
X0091718Y0023920D01*
X0091652Y0023887D01*
X0091583Y0023857D01*
X0091513Y0023831D01*
X0091442Y0023809D01*
X0091370Y0023790D01*
X0091296Y0023776D01*
X0091223Y0023765D01*
X0091148Y0023758D01*
X0091074Y0023755D01*
X0090999Y0023756D01*
X0090925Y0023761D01*
X0090850Y0023770D01*
X0090777Y0023783D01*
X0090704Y0023799D01*
X0090632Y0023820D01*
X0090562Y0023844D01*
X0090492Y0023872D01*
X0090425Y0023903D01*
X0090359Y0023938D01*
X0090295Y0023977D01*
X0090233Y0024019D01*
X0090173Y0024063D01*
X0090116Y0024112D01*
X0090062Y0024163D01*
X0090010Y0024216D01*
X0089961Y0024273D01*
X0089915Y0024332D01*
X0089873Y0024393D01*
X0089834Y0024457D01*
X0089798Y0024522D01*
X0089765Y0024589D01*
X0089736Y0024658D01*
X0089711Y0024729D01*
X0089690Y0024800D01*
X0089672Y0024873D01*
X0089659Y0024946D01*
X0089649Y0025020D01*
X0089643Y0025094D01*
X0089641Y0025169D01*
D13*
X0096322Y0028380D02*
X0096322Y0029481D01*
X0096689Y0029848D01*
X0097423Y0029848D01*
X0097790Y0029481D01*
X0097790Y0028380D01*
X0098524Y0028380D02*
X0096322Y0028380D01*
X0097790Y0029114D02*
X0098524Y0029848D01*
X0098157Y0030590D02*
X0097790Y0030590D01*
X0097423Y0030957D01*
X0097423Y0031691D01*
X0097790Y0032058D01*
X0098157Y0032058D01*
X0098524Y0031691D01*
X0098524Y0030957D01*
X0098157Y0030590D01*
X0097423Y0030957D02*
X0097056Y0030590D01*
X0096689Y0030590D01*
X0096322Y0030957D01*
X0096322Y0031691D01*
X0096689Y0032058D01*
X0097056Y0032058D01*
X0097423Y0031691D01*
X0055102Y0057867D02*
X0055102Y0059335D01*
X0054735Y0059702D01*
X0054001Y0059702D01*
X0053634Y0059335D01*
X0053634Y0058968D01*
X0054001Y0058601D01*
X0055102Y0058601D01*
X0055102Y0057867D02*
X0054735Y0057500D01*
X0054001Y0057500D01*
X0053634Y0057867D01*
X0052892Y0057500D02*
X0052158Y0058234D01*
X0052525Y0058234D02*
X0051424Y0058234D01*
X0051424Y0057500D02*
X0051424Y0059702D01*
X0052525Y0059702D01*
X0052892Y0059335D01*
X0052892Y0058601D01*
X0052525Y0058234D01*
D14*
X0041181Y0038491D02*
X0039067Y0038491D01*
X0034524Y0036991D02*
X0034524Y0033609D01*
X0045724Y0033609D02*
X0045724Y0036991D01*
X0029724Y0023391D02*
X0029724Y0020009D01*
X0025181Y0024891D02*
X0023067Y0024891D01*
X0018524Y0023391D02*
X0018524Y0020009D01*
D15*
X0038924Y0017300D03*
M02*
