G75*
%MOIN*%
%OFA0B0*%
%FSLAX25Y25*%
%IPPOS*%
%LPD*%
%AMOC8*
5,1,8,0,0,1.08239X$1,22.5*
%
%ADD10C,0.00000*%
%ADD11C,0.01000*%
%ADD12R,0.04331X0.03937*%
%ADD13R,0.06000X0.05000*%
%ADD14R,0.05000X0.06000*%
%ADD15R,0.03150X0.04724*%
%ADD16R,0.02559X0.01969*%
%ADD17R,0.01969X0.02559*%
%ADD18R,0.02165X0.04724*%
%ADD19R,0.05000X0.02200*%
%ADD20R,0.02200X0.05000*%
%ADD21C,0.01772*%
%ADD22C,0.00600*%
%ADD23C,0.02400*%
D10*
X0002390Y0077608D02*
X0002390Y0320192D01*
X0391091Y0320192D01*
X0391091Y0005231D01*
X0112427Y0005231D01*
D11*
X0002390Y0005231D02*
X0002390Y0077608D01*
X0112427Y0077608D01*
X0112427Y0005231D01*
X0002390Y0005231D01*
X0094893Y0052547D02*
X0098893Y0052547D01*
X0102893Y0052547D01*
X0102893Y0057271D02*
X0098893Y0057271D01*
X0094893Y0057271D01*
X0094893Y0061995D02*
X0098893Y0061995D01*
X0102893Y0061995D01*
D12*
X0049631Y0073725D03*
X0042938Y0073725D03*
X0025137Y0064831D03*
X0018444Y0064831D03*
X0018246Y0053419D03*
X0024939Y0053419D03*
X0025194Y0046298D03*
X0018501Y0046298D03*
X0018492Y0038927D03*
X0012000Y0039128D03*
X0005307Y0039128D03*
X0025185Y0038927D03*
X0013180Y0008415D03*
X0006487Y0008415D03*
D13*
X0006190Y0017483D03*
X0005978Y0024470D03*
X0006190Y0032313D03*
X0006390Y0054431D03*
X0006390Y0062631D03*
X0108826Y0066699D03*
X0108646Y0046325D03*
X0108646Y0039702D03*
X0108646Y0032467D03*
X0108610Y0025139D03*
X0108907Y0017648D03*
D14*
X0101577Y0008922D03*
X0094361Y0008918D03*
X0086797Y0009033D03*
X0078775Y0009001D03*
X0071092Y0008837D03*
X0063451Y0009027D03*
X0055370Y0009027D03*
X0047039Y0008922D03*
X0039611Y0008754D03*
X0032269Y0008859D03*
X0056250Y0073972D03*
X0094677Y0073998D03*
X0109217Y0074112D03*
D15*
X0044779Y0058138D03*
X0037693Y0058138D03*
X0025140Y0008394D03*
X0018054Y0008394D03*
D16*
X0096893Y0029206D03*
X0096893Y0032356D03*
X0096893Y0035505D03*
X0096893Y0038655D03*
X0101815Y0038655D03*
X0101815Y0035505D03*
X0101815Y0032356D03*
X0101815Y0029206D03*
D17*
X0047299Y0028306D03*
X0044149Y0028306D03*
X0040999Y0028306D03*
X0037850Y0028306D03*
X0037850Y0023385D03*
X0040999Y0023385D03*
X0044149Y0023385D03*
X0047299Y0023385D03*
D18*
X0045359Y0040794D03*
X0041618Y0040794D03*
X0037878Y0040794D03*
X0037878Y0051031D03*
X0045359Y0051031D03*
X0025434Y0029420D03*
X0017954Y0029420D03*
X0017954Y0019183D03*
X0021694Y0019183D03*
X0025434Y0019183D03*
D19*
X0055849Y0030730D03*
X0055849Y0033880D03*
X0055849Y0037029D03*
X0055849Y0040179D03*
X0055849Y0043329D03*
X0055849Y0046478D03*
X0055849Y0049628D03*
X0055849Y0052777D03*
X0089649Y0052777D03*
X0089649Y0049628D03*
X0089649Y0046478D03*
X0089649Y0043329D03*
X0089649Y0040179D03*
X0089649Y0037029D03*
X0089649Y0033880D03*
X0089649Y0030730D03*
D20*
X0083772Y0024854D03*
X0080623Y0024854D03*
X0077473Y0024854D03*
X0074323Y0024854D03*
X0071174Y0024854D03*
X0068024Y0024854D03*
X0064875Y0024854D03*
X0061725Y0024854D03*
X0061725Y0058654D03*
X0064875Y0058654D03*
X0068024Y0058654D03*
X0071174Y0058654D03*
X0074323Y0058654D03*
X0077473Y0058654D03*
X0080623Y0058654D03*
X0083772Y0058654D03*
D21*
X0096029Y0057271D02*
X0101757Y0057271D01*
X0101757Y0052547D02*
X0096029Y0052547D01*
X0096029Y0061995D02*
X0101757Y0061995D01*
D22*
X0094893Y0061995D02*
X0094590Y0061631D01*
X0093390Y0061631D01*
X0089790Y0058031D01*
X0089790Y0053231D01*
X0089649Y0052777D01*
X0089790Y0049631D02*
X0089649Y0049628D01*
X0089790Y0049631D02*
X0091590Y0049631D01*
X0094590Y0052631D01*
X0094893Y0052547D01*
X0094893Y0057271D02*
X0094590Y0057431D01*
X0092190Y0057431D01*
X0090990Y0062231D02*
X0102390Y0073631D01*
X0108990Y0073631D01*
X0109217Y0074112D01*
X0108826Y0066699D02*
X0108390Y0066431D01*
X0108390Y0057431D01*
X0108646Y0046325D02*
X0103691Y0043856D01*
X0102547Y0043027D01*
X0102390Y0038831D01*
X0101815Y0038655D01*
X0102390Y0035831D02*
X0101815Y0035505D01*
X0102390Y0035831D02*
X0104790Y0035831D01*
X0108390Y0039431D01*
X0108646Y0039702D01*
X0108646Y0032467D02*
X0108390Y0032231D01*
X0102390Y0032231D01*
X0101815Y0032356D01*
X0101815Y0029206D02*
X0102390Y0028631D01*
X0105390Y0028631D01*
X0108390Y0025631D01*
X0108610Y0025139D01*
X0108390Y0017831D02*
X0108907Y0017648D01*
X0108390Y0017831D02*
X0099390Y0026831D01*
X0099390Y0041831D01*
X0096990Y0044231D01*
X0095790Y0044231D01*
X0093390Y0041831D01*
X0092190Y0043031D01*
X0089790Y0043031D01*
X0089649Y0043329D01*
X0089190Y0043631D01*
X0084990Y0043631D01*
X0083190Y0042431D02*
X0075390Y0034631D01*
X0066390Y0034631D01*
X0065190Y0032831D02*
X0070590Y0027431D01*
X0070590Y0025031D01*
X0071174Y0024854D01*
X0074323Y0024854D02*
X0074790Y0024431D01*
X0074790Y0021431D01*
X0071190Y0017831D01*
X0062790Y0017831D01*
X0058590Y0022031D01*
X0055590Y0020231D02*
X0062790Y0013031D01*
X0066990Y0013031D01*
X0070590Y0009431D01*
X0071092Y0008837D01*
X0073590Y0014231D02*
X0078390Y0009431D01*
X0078775Y0009001D01*
X0073590Y0014231D02*
X0063390Y0014231D01*
X0054390Y0023231D01*
X0047790Y0023231D01*
X0047299Y0023385D01*
X0045390Y0022031D02*
X0045390Y0021431D01*
X0046590Y0020231D01*
X0055590Y0020231D01*
X0053790Y0019031D02*
X0063390Y0009431D01*
X0063451Y0009027D01*
X0055370Y0009027D02*
X0054990Y0009431D01*
X0054990Y0012431D01*
X0049590Y0017831D01*
X0042990Y0017831D01*
X0038190Y0022631D01*
X0038190Y0023231D01*
X0037850Y0023385D01*
X0040999Y0023385D02*
X0041190Y0023231D01*
X0041190Y0022631D01*
X0044790Y0019031D01*
X0053790Y0019031D01*
X0050790Y0013631D02*
X0046590Y0009431D01*
X0047039Y0008922D01*
X0046590Y0009431D02*
X0042990Y0013031D01*
X0039390Y0013031D01*
X0032790Y0019631D01*
X0032790Y0026831D01*
X0029190Y0030431D01*
X0026790Y0032831D01*
X0023790Y0032831D01*
X0023190Y0032231D01*
X0023190Y0026231D01*
X0021990Y0025031D01*
X0021990Y0019631D01*
X0021694Y0019183D01*
X0024390Y0018431D02*
X0024390Y0014831D01*
X0023790Y0012431D02*
X0028590Y0012431D01*
X0030390Y0014231D01*
X0023790Y0012431D02*
X0020190Y0008831D01*
X0018390Y0008831D01*
X0018054Y0008394D01*
X0017790Y0008831D01*
X0013590Y0008831D01*
X0013180Y0008415D01*
X0006990Y0008831D02*
X0006487Y0008415D01*
X0006990Y0008831D02*
X0015390Y0017231D01*
X0015390Y0022031D01*
X0020790Y0027431D01*
X0020790Y0034631D01*
X0024990Y0038831D01*
X0025185Y0038927D01*
X0025590Y0039431D01*
X0025590Y0040631D01*
X0030990Y0046031D01*
X0027390Y0049631D01*
X0023190Y0049631D01*
X0021390Y0051431D01*
X0021390Y0056231D01*
X0020790Y0056831D01*
X0015990Y0056831D01*
X0013590Y0054431D01*
X0006390Y0054431D01*
X0011190Y0057431D02*
X0018390Y0064631D01*
X0018444Y0064831D01*
X0018990Y0064631D01*
X0026790Y0056831D01*
X0027390Y0056831D01*
X0029790Y0054431D01*
X0027990Y0053231D02*
X0029190Y0052031D01*
X0030390Y0052031D01*
X0032190Y0053831D01*
X0032190Y0060431D01*
X0028590Y0064031D01*
X0028590Y0067031D01*
X0026790Y0068831D01*
X0029190Y0071231D01*
X0034590Y0071231D01*
X0044190Y0061631D01*
X0051990Y0061631D01*
X0065190Y0048431D01*
X0065190Y0041231D01*
X0057990Y0034031D01*
X0056190Y0034031D01*
X0055849Y0033880D01*
X0055590Y0031031D02*
X0053790Y0031031D01*
X0051390Y0033431D01*
X0034590Y0033431D01*
X0033990Y0034031D01*
X0023190Y0034031D01*
X0021990Y0032831D01*
X0021990Y0026831D01*
X0018390Y0023231D01*
X0018390Y0019631D01*
X0017954Y0019183D01*
X0024390Y0018431D02*
X0024990Y0019031D01*
X0025434Y0019183D01*
X0025590Y0023831D02*
X0039390Y0010031D01*
X0039390Y0008831D01*
X0039611Y0008754D01*
X0032269Y0008859D02*
X0032190Y0008831D01*
X0025590Y0008831D01*
X0025140Y0008394D01*
X0035190Y0020231D02*
X0038790Y0020231D01*
X0043590Y0015431D01*
X0047790Y0015431D01*
X0045390Y0022031D02*
X0044190Y0023231D01*
X0044149Y0023385D01*
X0045990Y0025631D02*
X0055590Y0025631D01*
X0058590Y0028631D01*
X0059790Y0028631D01*
X0062790Y0031631D01*
X0060990Y0033431D01*
X0062790Y0031631D02*
X0063990Y0032831D01*
X0065190Y0032831D01*
X0064590Y0030431D02*
X0064590Y0025031D01*
X0064875Y0024854D01*
X0067590Y0024431D02*
X0068024Y0024854D01*
X0067590Y0024431D02*
X0067590Y0022631D01*
X0065190Y0020231D01*
X0061725Y0024854D02*
X0061590Y0025031D01*
X0060990Y0025631D01*
X0058590Y0025631D01*
X0051990Y0028031D02*
X0047790Y0028031D01*
X0047299Y0028306D01*
X0045390Y0026831D02*
X0045390Y0026231D01*
X0045990Y0025631D01*
X0045390Y0026831D02*
X0044190Y0028031D01*
X0044149Y0028306D01*
X0042990Y0031031D02*
X0050790Y0031031D01*
X0055590Y0031031D02*
X0055849Y0030730D01*
X0055849Y0037029D02*
X0055590Y0037031D01*
X0053790Y0037031D01*
X0051390Y0039431D01*
X0055849Y0043329D02*
X0056190Y0043031D01*
X0062790Y0043031D01*
X0055849Y0046478D02*
X0055590Y0046031D01*
X0054990Y0045431D01*
X0051390Y0045431D01*
X0051390Y0050231D01*
X0044790Y0056831D01*
X0044790Y0058031D01*
X0044779Y0058138D01*
X0041190Y0061631D02*
X0033990Y0068831D01*
X0030390Y0068831D01*
X0026790Y0068831D02*
X0026190Y0069431D01*
X0012390Y0069431D01*
X0006390Y0063431D01*
X0006390Y0062631D01*
X0011190Y0065231D02*
X0014190Y0068231D01*
X0020790Y0068231D01*
X0023790Y0065231D01*
X0024990Y0065231D01*
X0025137Y0064831D01*
X0033990Y0061631D02*
X0034590Y0061631D01*
X0037590Y0058631D01*
X0037693Y0058138D01*
X0041190Y0061631D02*
X0041190Y0054431D01*
X0038190Y0051431D01*
X0037878Y0051031D01*
X0037590Y0050831D01*
X0035790Y0050831D01*
X0030990Y0046031D01*
X0032790Y0044831D02*
X0033390Y0045431D01*
X0038190Y0045431D01*
X0041190Y0042431D01*
X0041190Y0041231D01*
X0041618Y0040794D01*
X0044790Y0040631D02*
X0045359Y0040794D01*
X0044790Y0040631D02*
X0044790Y0038831D01*
X0042990Y0037031D01*
X0040590Y0037031D01*
X0038190Y0039431D01*
X0037878Y0040794D01*
X0038190Y0040631D01*
X0038190Y0039431D01*
X0035190Y0036431D01*
X0035190Y0035831D01*
X0032790Y0038231D02*
X0032790Y0044831D01*
X0025590Y0046031D02*
X0025194Y0046298D01*
X0025590Y0046031D02*
X0018990Y0039431D01*
X0018492Y0038927D01*
X0018390Y0039431D01*
X0014790Y0043031D01*
X0014190Y0046031D02*
X0014190Y0047831D01*
X0014190Y0046031D02*
X0018390Y0046031D01*
X0018501Y0046298D01*
X0014190Y0046031D02*
X0012990Y0046031D01*
X0008790Y0041831D01*
X0008790Y0035231D01*
X0006390Y0032831D01*
X0006190Y0032313D01*
X0006390Y0032231D01*
X0006390Y0028031D01*
X0010590Y0028031D01*
X0006390Y0028031D02*
X0006390Y0025031D01*
X0005978Y0024470D01*
X0006190Y0017483D02*
X0006390Y0017231D01*
X0006390Y0014831D01*
X0008190Y0013031D01*
X0025590Y0023831D02*
X0025590Y0029231D01*
X0025434Y0029420D01*
X0017954Y0029420D02*
X0017790Y0029831D01*
X0012390Y0035231D01*
X0012390Y0038831D01*
X0012000Y0039128D01*
X0005790Y0039431D02*
X0005307Y0039128D01*
X0005790Y0039431D02*
X0005790Y0042431D01*
X0011190Y0047831D01*
X0011190Y0047231D01*
X0011190Y0047831D02*
X0016590Y0053231D01*
X0017790Y0053231D01*
X0018246Y0053419D01*
X0024939Y0053419D02*
X0024990Y0053231D01*
X0027990Y0053231D01*
X0048390Y0062831D02*
X0062190Y0062831D01*
X0062790Y0063431D01*
X0060390Y0064031D02*
X0063990Y0067631D01*
X0075390Y0067631D01*
X0077190Y0065831D01*
X0077190Y0059231D01*
X0077473Y0058654D01*
X0080190Y0058631D02*
X0080623Y0058654D01*
X0080190Y0058631D02*
X0080190Y0043031D01*
X0074190Y0037031D01*
X0075990Y0041831D02*
X0060990Y0056831D01*
X0060990Y0058031D01*
X0061725Y0058654D01*
X0061590Y0058631D01*
X0060990Y0058031D01*
X0058590Y0058031D01*
X0055590Y0055031D02*
X0051390Y0059231D01*
X0048390Y0062831D02*
X0037590Y0073631D01*
X0032190Y0073631D01*
X0042938Y0073725D02*
X0042990Y0073631D01*
X0042990Y0071231D01*
X0050190Y0064031D01*
X0060390Y0064031D01*
X0060990Y0066431D02*
X0068190Y0073631D01*
X0090990Y0073631D01*
X0090990Y0065231D01*
X0090990Y0073631D02*
X0094590Y0073631D01*
X0094677Y0073998D01*
X0083772Y0058654D02*
X0083790Y0058631D01*
X0084990Y0057431D01*
X0084990Y0052631D01*
X0084390Y0046031D02*
X0089190Y0046031D01*
X0089649Y0046478D01*
X0084390Y0046031D02*
X0082590Y0044231D01*
X0082590Y0043031D01*
X0083190Y0042431D01*
X0084990Y0040631D01*
X0089190Y0040631D01*
X0089649Y0040179D01*
X0089649Y0037029D02*
X0089790Y0037031D01*
X0091590Y0037031D01*
X0093390Y0038831D01*
X0093390Y0041831D01*
X0096390Y0041831D02*
X0096390Y0038831D01*
X0096893Y0038655D01*
X0096893Y0035505D02*
X0096390Y0035231D01*
X0092790Y0035231D01*
X0091590Y0034031D01*
X0089790Y0034031D01*
X0089649Y0033880D01*
X0089790Y0031031D02*
X0089649Y0030730D01*
X0089790Y0031031D02*
X0092190Y0031031D01*
X0093390Y0032231D01*
X0096390Y0032231D01*
X0096893Y0032356D01*
X0096893Y0029206D02*
X0096390Y0028631D01*
X0093990Y0028631D01*
X0093990Y0017831D01*
X0096390Y0014231D02*
X0089190Y0014231D01*
X0080790Y0022631D01*
X0080790Y0024431D01*
X0080623Y0024854D01*
X0077790Y0024431D02*
X0077473Y0024854D01*
X0077790Y0024431D02*
X0077790Y0022631D01*
X0087390Y0013031D01*
X0090390Y0013031D01*
X0093990Y0009431D01*
X0094361Y0008918D01*
X0096390Y0014231D02*
X0101190Y0009431D01*
X0101577Y0008922D01*
X0086797Y0009033D02*
X0086790Y0009431D01*
X0074790Y0021431D01*
X0083772Y0024854D02*
X0083790Y0025031D01*
X0087390Y0028631D01*
X0093990Y0028631D01*
X0077790Y0053831D02*
X0070590Y0053831D01*
X0068190Y0056231D01*
X0068190Y0058631D01*
X0068024Y0058654D01*
X0065190Y0059231D02*
X0065190Y0061031D01*
X0069390Y0065231D01*
X0074790Y0065231D01*
X0065190Y0059231D02*
X0064875Y0058654D01*
X0060990Y0066431D02*
X0050790Y0066431D01*
X0050190Y0073631D02*
X0049631Y0073725D01*
X0050190Y0073631D02*
X0056190Y0073631D01*
X0056250Y0073972D01*
X0055590Y0055031D02*
X0055590Y0053231D01*
X0055849Y0052777D01*
X0042990Y0031031D02*
X0041190Y0029231D01*
X0041190Y0028631D01*
X0040999Y0028306D01*
X0037850Y0028306D02*
X0037590Y0028031D01*
X0035190Y0025631D01*
D23*
X0035190Y0025631D03*
X0035190Y0020231D03*
X0030390Y0014231D03*
X0024390Y0014831D03*
X0008190Y0013031D03*
X0010590Y0028031D03*
X0014790Y0043031D03*
X0014190Y0047831D03*
X0011190Y0047231D03*
X0011190Y0057431D03*
X0011190Y0065231D03*
X0030390Y0068831D03*
X0032190Y0073631D03*
X0033990Y0061631D03*
X0041190Y0061631D03*
X0050790Y0066431D03*
X0051390Y0059231D03*
X0058590Y0058031D03*
X0062790Y0063431D03*
X0074790Y0065231D03*
X0077790Y0053831D03*
X0084990Y0052631D03*
X0092190Y0057431D03*
X0090990Y0062231D03*
X0090990Y0065231D03*
X0108390Y0057431D03*
X0096390Y0041831D03*
X0084990Y0043631D03*
X0075990Y0041831D03*
X0074190Y0037031D03*
X0066390Y0034631D03*
X0064590Y0030431D03*
X0060990Y0033431D03*
X0051990Y0028031D03*
X0050790Y0031031D03*
X0058590Y0025631D03*
X0058590Y0022031D03*
X0065190Y0020231D03*
X0050790Y0013631D03*
X0047790Y0015431D03*
X0029190Y0030431D03*
X0035190Y0035831D03*
X0032790Y0038231D03*
X0033390Y0045431D03*
X0029790Y0054431D03*
X0051390Y0045431D03*
X0051390Y0039431D03*
X0062790Y0043031D03*
X0093990Y0017831D03*
M02*
