G75*
%MOIN*%
%OFA0B0*%
%FSLAX25Y25*%
%IPPOS*%
%LPD*%
%AMOC8*
5,1,8,0,0,1.08239X$1,22.5*
%
%ADD10C,0.00100*%
%ADD11R,0.01800X0.03000*%
%ADD12C,0.00600*%
%ADD13C,0.00800*%
D10*
X0010909Y0011076D02*
X0010909Y0012577D01*
X0011660Y0012577D01*
X0011910Y0012327D01*
X0011910Y0011827D01*
X0011660Y0011576D01*
X0010909Y0011576D01*
X0011409Y0011576D02*
X0011910Y0011076D01*
X0012382Y0011076D02*
X0013383Y0011076D01*
X0012883Y0011076D02*
X0012883Y0012577D01*
X0012382Y0012077D01*
X0016984Y0011634D02*
X0017234Y0011384D01*
X0017735Y0011384D01*
X0017985Y0011634D01*
X0018457Y0011384D02*
X0019458Y0011384D01*
X0018958Y0011384D02*
X0018958Y0012885D01*
X0018457Y0012385D01*
X0017985Y0012635D02*
X0017735Y0012885D01*
X0017234Y0012885D01*
X0016984Y0012635D01*
X0016984Y0011634D01*
X0015568Y0018026D02*
X0014568Y0018026D01*
X0014095Y0018777D02*
X0013094Y0018777D01*
X0013595Y0018777D02*
X0013595Y0017276D01*
X0012622Y0017276D02*
X0012622Y0018277D01*
X0012121Y0018777D01*
X0011621Y0018277D01*
X0011621Y0017276D01*
X0011149Y0017526D02*
X0010898Y0017276D01*
X0010148Y0017276D01*
X0010148Y0018777D01*
X0010898Y0018777D01*
X0011149Y0018527D01*
X0011149Y0018277D01*
X0010898Y0018026D01*
X0010148Y0018026D01*
X0010898Y0018026D02*
X0011149Y0017776D01*
X0011149Y0017526D01*
X0011621Y0018026D02*
X0012622Y0018026D01*
X0012404Y0023693D02*
X0012404Y0024694D01*
X0011904Y0025194D01*
X0011404Y0024694D01*
X0011404Y0023693D01*
X0010931Y0023943D02*
X0010681Y0023693D01*
X0009930Y0023693D01*
X0009930Y0025194D01*
X0010681Y0025194D01*
X0010931Y0024944D01*
X0010931Y0024694D01*
X0010681Y0024444D01*
X0009930Y0024444D01*
X0010681Y0024444D02*
X0010931Y0024193D01*
X0010931Y0023943D01*
X0011404Y0024444D02*
X0012404Y0024444D01*
X0012877Y0025194D02*
X0013878Y0025194D01*
X0013377Y0025194D02*
X0013377Y0023693D01*
X0014350Y0024444D02*
X0015351Y0024444D01*
X0014851Y0024944D02*
X0014851Y0023943D01*
X0013703Y0031742D02*
X0013703Y0033243D01*
X0013203Y0033243D02*
X0014204Y0033243D01*
X0014676Y0032492D02*
X0015677Y0032492D01*
X0015177Y0032993D02*
X0015177Y0031992D01*
X0012731Y0031742D02*
X0012731Y0032743D01*
X0012230Y0033243D01*
X0011730Y0032743D01*
X0011730Y0031742D01*
X0011257Y0031992D02*
X0011007Y0031742D01*
X0010257Y0031742D01*
X0010257Y0033243D01*
X0011007Y0033243D01*
X0011257Y0032993D01*
X0011257Y0032743D01*
X0011007Y0032492D01*
X0010257Y0032492D01*
X0011007Y0032492D02*
X0011257Y0032242D01*
X0011257Y0031992D01*
X0011730Y0032492D02*
X0012731Y0032492D01*
X0006500Y0042292D02*
X0005999Y0042292D01*
X0005749Y0042542D01*
X0005277Y0042292D02*
X0004776Y0042793D01*
X0005026Y0042793D02*
X0004276Y0042793D01*
X0004276Y0042292D02*
X0004276Y0043794D01*
X0005026Y0043794D01*
X0005277Y0043543D01*
X0005277Y0043043D01*
X0005026Y0042793D01*
X0005749Y0043543D02*
X0005999Y0043794D01*
X0006500Y0043794D01*
X0006750Y0043543D01*
X0006750Y0043293D01*
X0006500Y0043043D01*
X0006750Y0042793D01*
X0006750Y0042542D01*
X0006500Y0042292D01*
X0006500Y0043043D02*
X0006249Y0043043D01*
X0010920Y0051430D02*
X0010670Y0051680D01*
X0010920Y0051430D02*
X0011421Y0051430D01*
X0011671Y0051680D01*
X0011671Y0051930D01*
X0011421Y0052181D01*
X0011171Y0052181D01*
X0011421Y0052181D02*
X0011671Y0052431D01*
X0011671Y0052681D01*
X0011421Y0052931D01*
X0010920Y0052931D01*
X0010670Y0052681D01*
X0012143Y0051680D02*
X0012394Y0051680D01*
X0012394Y0051430D01*
X0012143Y0051430D01*
X0012143Y0051680D01*
X0012880Y0051680D02*
X0013130Y0051430D01*
X0013631Y0051430D01*
X0013881Y0051680D01*
X0013881Y0051930D01*
X0013631Y0052181D01*
X0013381Y0052181D01*
X0013631Y0052181D02*
X0013881Y0052431D01*
X0013881Y0052681D01*
X0013631Y0052931D01*
X0013130Y0052931D01*
X0012880Y0052681D01*
X0014353Y0052931D02*
X0014353Y0051930D01*
X0014854Y0051430D01*
X0015354Y0051930D01*
X0015354Y0052931D01*
X0014748Y0060959D02*
X0014248Y0061460D01*
X0014498Y0061460D02*
X0013747Y0061460D01*
X0013747Y0060959D02*
X0013747Y0062461D01*
X0014498Y0062461D01*
X0014748Y0062210D01*
X0014748Y0061710D01*
X0014498Y0061460D01*
X0013275Y0061210D02*
X0013275Y0062210D01*
X0013025Y0062461D01*
X0012274Y0062461D01*
X0012274Y0060959D01*
X0013025Y0060959D01*
X0013275Y0061210D01*
X0011802Y0060959D02*
X0010801Y0060959D01*
X0010801Y0062461D01*
X0023960Y0062118D02*
X0023960Y0060617D01*
X0023960Y0061117D02*
X0024710Y0061117D01*
X0024960Y0061367D01*
X0024960Y0061868D01*
X0024710Y0062118D01*
X0023960Y0062118D01*
X0024460Y0061117D02*
X0024960Y0060617D01*
X0025433Y0061367D02*
X0026434Y0061367D01*
X0026183Y0060617D02*
X0026183Y0062118D01*
X0025433Y0061367D01*
X0027670Y0052968D02*
X0028421Y0052968D01*
X0028671Y0052718D01*
X0028671Y0052218D01*
X0028421Y0051967D01*
X0027670Y0051967D01*
X0027670Y0051467D02*
X0027670Y0052968D01*
X0028171Y0051967D02*
X0028671Y0051467D01*
X0029144Y0051467D02*
X0030144Y0051467D01*
X0029644Y0051467D02*
X0029644Y0052968D01*
X0029144Y0052468D01*
X0030617Y0052218D02*
X0031117Y0052468D01*
X0031367Y0052468D01*
X0031618Y0052218D01*
X0031618Y0051717D01*
X0031367Y0051467D01*
X0030867Y0051467D01*
X0030617Y0051717D01*
X0030617Y0052218D02*
X0030617Y0052968D01*
X0031618Y0052968D01*
X0033031Y0048513D02*
X0033031Y0047262D01*
X0033281Y0047012D01*
X0033781Y0047012D01*
X0034032Y0047262D01*
X0034032Y0048513D01*
X0034504Y0047762D02*
X0035004Y0048263D01*
X0035505Y0048513D01*
X0035255Y0047762D02*
X0034504Y0047762D01*
X0034504Y0047262D01*
X0034754Y0047012D01*
X0035255Y0047012D01*
X0035505Y0047262D01*
X0035505Y0047512D01*
X0035255Y0047762D01*
X0031769Y0046677D02*
X0030768Y0045676D01*
X0031018Y0045426D01*
X0031518Y0045426D01*
X0031769Y0045676D01*
X0031769Y0046677D01*
X0031518Y0046927D01*
X0031018Y0046927D01*
X0030768Y0046677D01*
X0030768Y0045676D01*
X0030295Y0045426D02*
X0029295Y0045426D01*
X0028822Y0045426D02*
X0028322Y0045926D01*
X0028572Y0045926D02*
X0027821Y0045926D01*
X0027821Y0045426D02*
X0027821Y0046927D01*
X0028572Y0046927D01*
X0028822Y0046677D01*
X0028822Y0046176D01*
X0028572Y0045926D01*
X0029295Y0046427D02*
X0029795Y0046927D01*
X0029795Y0045426D01*
X0029871Y0039602D02*
X0029871Y0038101D01*
X0030371Y0038101D02*
X0029370Y0038101D01*
X0028898Y0038101D02*
X0028397Y0038601D01*
X0028647Y0038601D02*
X0027897Y0038601D01*
X0027897Y0038101D02*
X0027897Y0039602D01*
X0028647Y0039602D01*
X0028898Y0039352D01*
X0028898Y0038852D01*
X0028647Y0038601D01*
X0029370Y0039102D02*
X0029871Y0039602D01*
X0030843Y0039352D02*
X0031094Y0039602D01*
X0031594Y0039602D01*
X0031844Y0039352D01*
X0031844Y0039102D01*
X0030843Y0038101D01*
X0031844Y0038101D01*
X0034239Y0031598D02*
X0034989Y0031598D01*
X0035240Y0031347D01*
X0035240Y0030847D01*
X0034989Y0030597D01*
X0034239Y0030597D01*
X0034739Y0030597D02*
X0035240Y0030096D01*
X0035712Y0030347D02*
X0035962Y0030096D01*
X0036463Y0030096D01*
X0036713Y0030347D01*
X0036713Y0031347D01*
X0036463Y0031598D01*
X0035962Y0031598D01*
X0035712Y0031347D01*
X0035712Y0031097D01*
X0035962Y0030847D01*
X0036713Y0030847D01*
X0034239Y0030096D02*
X0034239Y0031598D01*
X0030423Y0024650D02*
X0030673Y0024400D01*
X0030673Y0024150D01*
X0030423Y0023900D01*
X0030673Y0023650D01*
X0030673Y0023399D01*
X0030423Y0023149D01*
X0029922Y0023149D01*
X0029672Y0023399D01*
X0029200Y0023399D02*
X0029200Y0024650D01*
X0029672Y0024400D02*
X0029922Y0024650D01*
X0030423Y0024650D01*
X0030423Y0023900D02*
X0030173Y0023900D01*
X0029200Y0023399D02*
X0028949Y0023149D01*
X0028449Y0023149D01*
X0028199Y0023399D01*
X0028199Y0024650D01*
X0030303Y0014153D02*
X0031053Y0014153D01*
X0031304Y0013903D01*
X0031304Y0012902D01*
X0031053Y0012652D01*
X0030303Y0012652D01*
X0030303Y0014153D01*
X0031776Y0014153D02*
X0032777Y0014153D01*
X0033249Y0014153D02*
X0034000Y0014153D01*
X0034250Y0013903D01*
X0034250Y0013403D01*
X0034000Y0013153D01*
X0033249Y0013153D01*
X0033750Y0013153D02*
X0034250Y0012652D01*
X0033249Y0012652D02*
X0033249Y0014153D01*
X0032277Y0014153D02*
X0032277Y0012652D01*
X0037978Y0012902D02*
X0038228Y0012652D01*
X0038729Y0012652D01*
X0038979Y0012902D01*
X0038979Y0013153D01*
X0038729Y0013403D01*
X0038228Y0013403D01*
X0037978Y0013653D01*
X0037978Y0013903D01*
X0038228Y0014153D01*
X0038729Y0014153D01*
X0038979Y0013903D01*
X0039452Y0014153D02*
X0039452Y0013153D01*
X0039952Y0012652D01*
X0040452Y0013153D01*
X0040452Y0014153D01*
X0040925Y0013403D02*
X0041926Y0013403D01*
X0041425Y0013903D02*
X0041425Y0012902D01*
X0044870Y0012902D02*
X0045121Y0012652D01*
X0045621Y0012652D01*
X0045871Y0012902D01*
X0045871Y0013403D01*
X0045371Y0013403D01*
X0045871Y0013903D02*
X0045621Y0014153D01*
X0045121Y0014153D01*
X0044870Y0013903D01*
X0044870Y0012902D01*
X0046344Y0012652D02*
X0046344Y0014153D01*
X0047345Y0012652D01*
X0047345Y0014153D01*
X0047817Y0014153D02*
X0048568Y0014153D01*
X0048818Y0013903D01*
X0048818Y0012902D01*
X0048568Y0012652D01*
X0047817Y0012652D01*
X0047817Y0014153D01*
X0053329Y0013966D02*
X0053829Y0014467D01*
X0054330Y0013966D01*
X0054330Y0012965D01*
X0054802Y0013216D02*
X0055053Y0012965D01*
X0055553Y0012965D01*
X0055803Y0013216D01*
X0055803Y0014467D01*
X0056276Y0014467D02*
X0057276Y0012965D01*
X0057749Y0013716D02*
X0058750Y0013716D01*
X0058499Y0012965D02*
X0058499Y0014467D01*
X0057749Y0013716D01*
X0057276Y0014467D02*
X0056276Y0012965D01*
X0054802Y0013216D02*
X0054802Y0014467D01*
X0054330Y0013716D02*
X0053329Y0013716D01*
X0053329Y0013966D02*
X0053329Y0012965D01*
X0061318Y0013122D02*
X0061318Y0014123D01*
X0061818Y0014623D01*
X0062319Y0014123D01*
X0062319Y0013122D01*
X0062791Y0013372D02*
X0063041Y0013122D01*
X0063542Y0013122D01*
X0063792Y0013372D01*
X0063792Y0014623D01*
X0064264Y0014623D02*
X0065265Y0013122D01*
X0065737Y0013372D02*
X0065988Y0013122D01*
X0066488Y0013122D01*
X0066738Y0013372D01*
X0066738Y0013623D01*
X0066488Y0013873D01*
X0066238Y0013873D01*
X0066488Y0013873D02*
X0066738Y0014123D01*
X0066738Y0014373D01*
X0066488Y0014623D01*
X0065988Y0014623D01*
X0065737Y0014373D01*
X0065265Y0014623D02*
X0064264Y0013122D01*
X0062791Y0013372D02*
X0062791Y0014623D01*
X0062319Y0013873D02*
X0061318Y0013873D01*
X0069620Y0013873D02*
X0070621Y0013873D01*
X0070621Y0014123D02*
X0070621Y0013122D01*
X0071093Y0013372D02*
X0071343Y0013122D01*
X0071844Y0013122D01*
X0072094Y0013372D01*
X0072094Y0014623D01*
X0072566Y0014623D02*
X0073567Y0013122D01*
X0074039Y0013122D02*
X0075040Y0014123D01*
X0075040Y0014373D01*
X0074790Y0014623D01*
X0074290Y0014623D01*
X0074039Y0014373D01*
X0073567Y0014623D02*
X0072566Y0013122D01*
X0074039Y0013122D02*
X0075040Y0013122D01*
X0076982Y0013279D02*
X0076982Y0014280D01*
X0077482Y0014780D01*
X0077983Y0014280D01*
X0077983Y0013279D01*
X0078455Y0013529D02*
X0078705Y0013279D01*
X0079206Y0013279D01*
X0079456Y0013529D01*
X0079456Y0014780D01*
X0079928Y0014780D02*
X0080929Y0013279D01*
X0081402Y0013279D02*
X0082402Y0013279D01*
X0081902Y0013279D02*
X0081902Y0014780D01*
X0081402Y0014280D01*
X0080929Y0014780D02*
X0079928Y0013279D01*
X0078455Y0013529D02*
X0078455Y0014780D01*
X0077983Y0014030D02*
X0076982Y0014030D01*
X0071093Y0014623D02*
X0071093Y0013372D01*
X0070621Y0014123D02*
X0070120Y0014623D01*
X0069620Y0014123D01*
X0069620Y0013122D01*
X0084814Y0013436D02*
X0084814Y0014937D01*
X0085564Y0014937D01*
X0085815Y0014687D01*
X0085815Y0014186D01*
X0085564Y0013936D01*
X0084814Y0013936D01*
X0085314Y0013936D02*
X0085815Y0013436D01*
X0086287Y0013686D02*
X0086537Y0013436D01*
X0087038Y0013436D01*
X0087288Y0013686D01*
X0087288Y0013936D01*
X0087038Y0014186D01*
X0086537Y0014186D01*
X0086287Y0014436D01*
X0086287Y0014687D01*
X0086537Y0014937D01*
X0087038Y0014937D01*
X0087288Y0014687D01*
X0087760Y0014937D02*
X0088761Y0014937D01*
X0088261Y0014937D02*
X0088261Y0013436D01*
X0092959Y0014623D02*
X0093960Y0014623D01*
X0094432Y0014623D02*
X0095433Y0013122D01*
X0094432Y0013122D02*
X0095433Y0014623D01*
X0093460Y0014623D02*
X0093460Y0013122D01*
X0100321Y0013592D02*
X0100321Y0015094D01*
X0101072Y0015094D01*
X0101322Y0014843D01*
X0101322Y0014343D01*
X0101072Y0014093D01*
X0100321Y0014093D01*
X0100822Y0014093D02*
X0101322Y0013592D01*
X0101795Y0013592D02*
X0102795Y0015094D01*
X0101795Y0015094D02*
X0102795Y0013592D01*
X0103078Y0016059D02*
X0103078Y0017560D01*
X0103551Y0017560D02*
X0104301Y0017560D01*
X0104551Y0017310D01*
X0104551Y0016309D01*
X0104301Y0016059D01*
X0103551Y0016059D01*
X0103551Y0017560D01*
X0102077Y0017560D02*
X0103078Y0016059D01*
X0102077Y0016059D02*
X0102077Y0017560D01*
X0101605Y0017310D02*
X0101355Y0017560D01*
X0100854Y0017560D01*
X0100604Y0017310D01*
X0100604Y0016309D01*
X0100854Y0016059D01*
X0101355Y0016059D01*
X0101605Y0016309D01*
X0101605Y0016810D01*
X0101104Y0016810D01*
X0101441Y0024034D02*
X0100941Y0024534D01*
X0101191Y0024534D02*
X0100440Y0024534D01*
X0099968Y0024534D02*
X0099968Y0024284D01*
X0099718Y0024034D01*
X0098967Y0024034D01*
X0098967Y0025535D01*
X0099718Y0025535D01*
X0099968Y0025285D01*
X0099968Y0025035D01*
X0099718Y0024785D01*
X0098967Y0024785D01*
X0098495Y0024785D02*
X0097494Y0024785D01*
X0097494Y0025035D02*
X0097994Y0025535D01*
X0098495Y0025035D01*
X0098495Y0024034D01*
X0097494Y0024034D02*
X0097494Y0025035D01*
X0099718Y0024785D02*
X0099968Y0024534D01*
X0100440Y0024034D02*
X0100440Y0025535D01*
X0101191Y0025535D01*
X0101441Y0025285D01*
X0101441Y0024785D01*
X0101191Y0024534D01*
X0101913Y0024534D02*
X0102914Y0025535D01*
X0103387Y0025535D02*
X0103387Y0024034D01*
X0104388Y0024034D01*
X0102914Y0024034D02*
X0102164Y0024785D01*
X0101913Y0025535D02*
X0101913Y0024034D01*
X0104998Y0028058D02*
X0105748Y0028058D01*
X0105999Y0028309D01*
X0105999Y0028559D01*
X0105748Y0028809D01*
X0104998Y0028809D01*
X0105748Y0028809D02*
X0105999Y0029059D01*
X0105999Y0029309D01*
X0105748Y0029560D01*
X0104998Y0029560D01*
X0104998Y0028058D01*
X0106471Y0028058D02*
X0106471Y0029560D01*
X0107222Y0029560D01*
X0107472Y0029309D01*
X0107472Y0029059D01*
X0107222Y0028809D01*
X0106471Y0028809D01*
X0106471Y0028058D02*
X0107222Y0028058D01*
X0107472Y0028309D01*
X0107472Y0028559D01*
X0107222Y0028809D01*
X0107944Y0028559D02*
X0108695Y0028559D01*
X0108945Y0028809D01*
X0108945Y0029309D01*
X0108695Y0029560D01*
X0107944Y0029560D01*
X0107944Y0028058D01*
X0108445Y0028559D02*
X0108945Y0028058D01*
X0109418Y0028058D02*
X0109418Y0029560D01*
X0109668Y0028809D02*
X0110418Y0028058D01*
X0110891Y0028058D02*
X0111892Y0028058D01*
X0110891Y0028058D02*
X0110891Y0029560D01*
X0110418Y0029560D02*
X0109418Y0028559D01*
X0110228Y0035237D02*
X0110228Y0036738D01*
X0110979Y0036738D01*
X0111229Y0036488D01*
X0111229Y0035988D01*
X0110979Y0035737D01*
X0110228Y0035737D01*
X0110729Y0035737D02*
X0111229Y0035237D01*
X0109756Y0035988D02*
X0108755Y0035988D01*
X0108282Y0036238D02*
X0108032Y0035988D01*
X0107282Y0035988D01*
X0108032Y0035988D02*
X0108282Y0035737D01*
X0108282Y0035487D01*
X0108032Y0035237D01*
X0107282Y0035237D01*
X0107282Y0036738D01*
X0108032Y0036738D01*
X0108282Y0036488D01*
X0108282Y0036238D01*
X0105791Y0045570D02*
X0104790Y0045570D01*
X0104790Y0047071D01*
X0104318Y0046321D02*
X0103317Y0046321D01*
X0102845Y0046571D02*
X0102595Y0046321D01*
X0101844Y0046321D01*
X0101844Y0047071D02*
X0102595Y0047071D01*
X0102845Y0046821D01*
X0102845Y0046571D01*
X0102595Y0046321D02*
X0102845Y0046070D01*
X0102845Y0045820D01*
X0102595Y0045570D01*
X0101844Y0045570D01*
X0101844Y0047071D01*
X0102203Y0065910D02*
X0101953Y0066160D01*
X0102203Y0065910D02*
X0102703Y0065910D01*
X0102953Y0066160D01*
X0102953Y0066410D01*
X0102703Y0066660D01*
X0102203Y0066660D01*
X0101953Y0066910D01*
X0101953Y0067161D01*
X0102203Y0067411D01*
X0102703Y0067411D01*
X0102953Y0067161D01*
X0103426Y0067161D02*
X0103426Y0066160D01*
X0103676Y0065910D01*
X0104177Y0065910D01*
X0104427Y0066160D01*
X0104427Y0067161D01*
X0104177Y0067411D01*
X0103676Y0067411D01*
X0103426Y0067161D01*
X0103399Y0071783D02*
X0103149Y0072033D01*
X0103399Y0071783D02*
X0103900Y0071783D01*
X0104150Y0072033D01*
X0104150Y0072284D01*
X0103900Y0072534D01*
X0103399Y0072534D01*
X0103149Y0072784D01*
X0103149Y0073034D01*
X0103399Y0073284D01*
X0103900Y0073284D01*
X0104150Y0073034D01*
X0104622Y0073284D02*
X0105123Y0073284D01*
X0104872Y0073284D02*
X0104872Y0071783D01*
X0104622Y0071783D02*
X0105123Y0071783D01*
X0097526Y0070239D02*
X0096525Y0069238D01*
X0096775Y0069488D02*
X0097526Y0068738D01*
X0096525Y0068738D02*
X0096525Y0070239D01*
X0096053Y0069989D02*
X0095802Y0070239D01*
X0095302Y0070239D01*
X0095052Y0069989D01*
X0095052Y0068988D01*
X0095302Y0068738D01*
X0095802Y0068738D01*
X0096053Y0068988D01*
X0094579Y0068988D02*
X0094329Y0068738D01*
X0093829Y0068738D01*
X0093579Y0068988D01*
X0093829Y0069488D02*
X0094329Y0069488D01*
X0094579Y0069238D01*
X0094579Y0068988D01*
X0093829Y0069488D02*
X0093579Y0069738D01*
X0093579Y0069989D01*
X0093829Y0070239D01*
X0094329Y0070239D01*
X0094579Y0069989D01*
X0059960Y0070021D02*
X0058959Y0070021D01*
X0058487Y0070021D02*
X0058487Y0068520D01*
X0058487Y0069271D02*
X0057486Y0069271D01*
X0057014Y0069271D02*
X0056513Y0069271D01*
X0057014Y0069271D02*
X0057014Y0068770D01*
X0056763Y0068520D01*
X0056263Y0068520D01*
X0056013Y0068770D01*
X0056013Y0069771D01*
X0056263Y0070021D01*
X0056763Y0070021D01*
X0057014Y0069771D01*
X0057486Y0070021D02*
X0057486Y0068520D01*
X0055531Y0068520D02*
X0055031Y0068520D01*
X0055281Y0068520D02*
X0055281Y0070021D01*
X0055031Y0070021D02*
X0055531Y0070021D01*
X0054558Y0068520D02*
X0053557Y0068520D01*
X0053557Y0070021D01*
X0052009Y0069498D02*
X0051008Y0069498D01*
X0050535Y0069498D02*
X0049535Y0069498D01*
X0049062Y0069498D02*
X0048562Y0069998D01*
X0048812Y0069998D02*
X0048061Y0069998D01*
X0048061Y0069498D02*
X0048061Y0070999D01*
X0048812Y0070999D01*
X0049062Y0070749D01*
X0049062Y0070249D01*
X0048812Y0069998D01*
X0049535Y0070499D02*
X0050035Y0070999D01*
X0050035Y0069498D01*
X0051008Y0070499D02*
X0051508Y0070999D01*
X0051508Y0069498D01*
X0059460Y0070021D02*
X0059460Y0068520D01*
X0044994Y0062558D02*
X0044243Y0061808D01*
X0045244Y0061808D01*
X0044243Y0061808D01*
X0044994Y0062558D01*
X0044994Y0061057D01*
X0044994Y0062558D01*
X0043771Y0062308D02*
X0043521Y0062558D01*
X0043020Y0062558D01*
X0042770Y0062308D01*
X0042770Y0061307D01*
X0043020Y0061057D01*
X0043521Y0061057D01*
X0043771Y0061307D01*
X0043521Y0061057D01*
X0043020Y0061057D01*
X0042770Y0061307D01*
X0042770Y0062308D01*
X0043020Y0062558D01*
X0043521Y0062558D01*
X0043771Y0062308D01*
D11*
X0009833Y0008415D03*
X0008653Y0039128D03*
X0021838Y0038927D03*
X0021847Y0046298D03*
X0021593Y0053419D03*
X0021790Y0064831D03*
X0046284Y0073725D03*
D12*
X0042417Y0060500D02*
X0040055Y0060500D01*
X0040055Y0055776D02*
X0042417Y0055776D01*
X0058949Y0055553D02*
X0086548Y0055553D01*
X0086548Y0029352D01*
X0085150Y0027955D01*
X0058949Y0027955D01*
X0058949Y0055553D01*
X0086465Y0026623D02*
X0086467Y0026698D01*
X0086473Y0026772D01*
X0086483Y0026846D01*
X0086496Y0026919D01*
X0086514Y0026992D01*
X0086535Y0027063D01*
X0086560Y0027134D01*
X0086589Y0027203D01*
X0086622Y0027270D01*
X0086658Y0027335D01*
X0086697Y0027399D01*
X0086739Y0027460D01*
X0086785Y0027519D01*
X0086834Y0027576D01*
X0086886Y0027629D01*
X0086940Y0027680D01*
X0086997Y0027729D01*
X0087057Y0027773D01*
X0087119Y0027815D01*
X0087183Y0027854D01*
X0087249Y0027889D01*
X0087316Y0027920D01*
X0087386Y0027948D01*
X0087456Y0027972D01*
X0087528Y0027993D01*
X0087601Y0028009D01*
X0087674Y0028022D01*
X0087749Y0028031D01*
X0087823Y0028036D01*
X0087898Y0028037D01*
X0087972Y0028034D01*
X0088047Y0028027D01*
X0088120Y0028016D01*
X0088194Y0028002D01*
X0088266Y0027983D01*
X0088337Y0027961D01*
X0088407Y0027935D01*
X0088476Y0027905D01*
X0088542Y0027872D01*
X0088607Y0027835D01*
X0088670Y0027795D01*
X0088731Y0027751D01*
X0088789Y0027705D01*
X0088845Y0027655D01*
X0088898Y0027603D01*
X0088949Y0027548D01*
X0088996Y0027490D01*
X0089040Y0027430D01*
X0089081Y0027367D01*
X0089119Y0027303D01*
X0089153Y0027237D01*
X0089184Y0027168D01*
X0089211Y0027099D01*
X0089234Y0027028D01*
X0089253Y0026956D01*
X0089269Y0026883D01*
X0089281Y0026809D01*
X0089289Y0026735D01*
X0089293Y0026660D01*
X0089293Y0026586D01*
X0089289Y0026511D01*
X0089281Y0026437D01*
X0089269Y0026363D01*
X0089253Y0026290D01*
X0089234Y0026218D01*
X0089211Y0026147D01*
X0089184Y0026078D01*
X0089153Y0026009D01*
X0089119Y0025943D01*
X0089081Y0025879D01*
X0089040Y0025816D01*
X0088996Y0025756D01*
X0088949Y0025698D01*
X0088898Y0025643D01*
X0088845Y0025591D01*
X0088789Y0025541D01*
X0088731Y0025495D01*
X0088670Y0025451D01*
X0088607Y0025411D01*
X0088542Y0025374D01*
X0088476Y0025341D01*
X0088407Y0025311D01*
X0088337Y0025285D01*
X0088266Y0025263D01*
X0088194Y0025244D01*
X0088120Y0025230D01*
X0088047Y0025219D01*
X0087972Y0025212D01*
X0087898Y0025209D01*
X0087823Y0025210D01*
X0087749Y0025215D01*
X0087674Y0025224D01*
X0087601Y0025237D01*
X0087528Y0025253D01*
X0087456Y0025274D01*
X0087386Y0025298D01*
X0087316Y0025326D01*
X0087249Y0025357D01*
X0087183Y0025392D01*
X0087119Y0025431D01*
X0087057Y0025473D01*
X0086997Y0025517D01*
X0086940Y0025566D01*
X0086886Y0025617D01*
X0086834Y0025670D01*
X0086785Y0025727D01*
X0086739Y0025786D01*
X0086697Y0025847D01*
X0086658Y0025911D01*
X0086622Y0025976D01*
X0086589Y0026043D01*
X0086560Y0026112D01*
X0086535Y0026183D01*
X0086514Y0026254D01*
X0086496Y0026327D01*
X0086483Y0026400D01*
X0086473Y0026474D01*
X0086467Y0026548D01*
X0086465Y0026623D01*
X0022778Y0010756D02*
X0020416Y0010756D01*
X0020416Y0006032D02*
X0022778Y0006032D01*
D13*
X0027294Y0022611D02*
X0027294Y0025992D01*
X0022750Y0027492D02*
X0020637Y0027492D01*
X0016094Y0025992D02*
X0016094Y0022611D01*
X0036018Y0044222D02*
X0036018Y0047603D01*
X0040562Y0049103D02*
X0042675Y0049103D01*
X0047218Y0047603D02*
X0047218Y0044222D01*
X0096294Y0049874D02*
X0101412Y0049874D01*
X0101412Y0064638D02*
X0096294Y0064638D01*
M02*
