%
M48
M72
T01C0.01200
T02C0.03600
T03C0.03800
T04C0.04000
T05C0.13000
T06C0.14173
%
T01
X76800Y76800
X134300Y114300
X189300Y104300
X216800Y94300
X221800Y81800
X209300Y64300
X184300Y69300
X149300Y44300
X236800Y51800
X241800Y49300
X256800Y54300
X256800Y36800
X269300Y89300
X256800Y106800
X206800Y139300
X129300Y164300
X296800Y186800
X336800Y164300
X346800Y134300
X321800Y134300
X309300Y129300
T02
X306800Y121800
X316800Y121800
X331800Y121800
X341800Y121800
X356800Y121800
X366800Y121800
X381800Y121800
X391800Y121800
X391800Y151800
X381800Y151800
X366800Y151800
X356800Y151800
X341800Y151800
X331800Y151800
X316800Y151800
X306800Y151800
X291800Y151800
X281800Y151800
X266800Y151800
X256800Y151800
X241800Y151800
X231800Y151800
X216800Y151800
X206800Y151800
X196800Y151800
X186800Y151800
X171800Y151800
X161800Y151800
X146800Y151800
X136800Y151800
X121800Y151800
X111800Y151800
X96800Y151800
X86800Y151800
X71800Y151800
X61800Y151800
X46800Y151800
X36800Y151800
X21800Y151800
X11800Y151800
X11800Y121800
X21800Y121800
X36800Y121800
X46800Y121800
X61800Y121800
X71800Y121800
X86800Y121800
X96800Y121800
X111800Y121800
X121800Y121800
X136800Y121800
X146800Y121800
X161800Y121800
X171800Y121800
X186800Y121800
X196800Y121800
X206800Y121800
X216800Y121800
X231800Y121800
X241800Y121800
X256800Y121800
X266800Y121800
X281800Y121800
X291800Y121800
X291800Y181800
X281800Y181800
X266800Y181800
X256800Y181800
X241800Y181800
X231800Y181800
X216800Y181800
X206800Y181800
X196800Y181800
X186800Y181800
X171800Y181800
X161800Y181800
X146800Y181800
X136800Y181800
X121800Y181800
X111800Y181800
X96800Y181800
X86800Y181800
X71800Y181800
X61800Y181800
X46800Y181800
X36800Y181800
X21800Y181800
X11800Y181800
X11800Y211800
X21800Y211800
X36800Y211800
X46800Y211800
X61800Y211800
X71800Y211800
X86800Y211800
X96800Y211800
X111800Y211800
X121800Y211800
X136800Y211800
X146800Y211800
X161800Y211800
X171800Y211800
X186800Y211800
X196800Y211800
X206800Y211800
X216800Y211800
X231800Y211800
X241800Y211800
X256800Y211800
X266800Y211800
X281800Y211800
X291800Y211800
X306800Y211800
X316800Y211800
X331800Y211800
X341800Y211800
X356800Y211800
X366800Y211800
X381800Y211800
X391800Y211800
X391800Y181800
X381800Y181800
X366800Y181800
X356800Y181800
X341800Y181800
X331800Y181800
X316800Y181800
X306800Y181800
T03
X141800Y76800
X131800Y76800
X121800Y76800
X111800Y76800
X101800Y76800
X91800Y76800
X81800Y76800
X71800Y76800
X61800Y76800
X51800Y76800
X41800Y76800
X31800Y76800
X21800Y76800
X21800Y66800
X31800Y66800
X41800Y66800
X51800Y66800
X61800Y66800
X71800Y66800
X81800Y66800
X91800Y66800
X101800Y66800
X111800Y66800
X121800Y66800
X131800Y66800
X141800Y66800
T04
X226600Y77400
X237500Y77400
X248300Y77400
X259200Y77400
X270100Y77400
X280900Y77400
X291800Y77400
X302700Y77400
X313500Y77400
X324400Y77400
X335300Y77400
X346100Y77400
X357000Y77400
X351600Y66200
X340700Y66200
X329800Y66200
X319000Y66200
X308100Y66200
X297200Y66200
X286400Y66200
X275500Y66200
X264600Y66200
X253800Y66200
X242900Y66200
X232000Y66200
T05
X199200Y71800
X384400Y71800
T06
X21800Y21800
X21800Y256800
X376800Y256800
X381800Y21800
M30
