G75*
%MOIN*%
%OFA0B0*%
%FSLAX25Y25*%
%IPPOS*%
%LPD*%
%AMOC8*
5,1,8,0,0,1.08239X$1,22.5*
%
%ADD10C,0.06000*%
%ADD11C,0.14573*%
%ADD12OC8,0.06400*%
%ADD13C,0.20400*%
%ADD14R,0.06200X0.06200*%
%ADD15C,0.06200*%
D10*
X0011800Y0119000D02*
X0011800Y0124600D01*
X0021800Y0124600D02*
X0021800Y0119000D01*
X0036800Y0119000D02*
X0036800Y0124600D01*
X0046800Y0124600D02*
X0046800Y0119000D01*
X0061800Y0119000D02*
X0061800Y0124600D01*
X0071800Y0124600D02*
X0071800Y0119000D01*
X0086800Y0119000D02*
X0086800Y0124600D01*
X0096800Y0124600D02*
X0096800Y0119000D01*
X0111800Y0119000D02*
X0111800Y0124600D01*
X0121800Y0124600D02*
X0121800Y0119000D01*
X0136800Y0119000D02*
X0136800Y0124600D01*
X0146800Y0124600D02*
X0146800Y0119000D01*
X0161800Y0119000D02*
X0161800Y0124600D01*
X0171800Y0124600D02*
X0171800Y0119000D01*
X0186800Y0119000D02*
X0186800Y0124600D01*
X0196800Y0124600D02*
X0196800Y0119000D01*
X0206800Y0119000D02*
X0206800Y0124600D01*
X0216800Y0124600D02*
X0216800Y0119000D01*
X0231800Y0119000D02*
X0231800Y0124600D01*
X0241800Y0124600D02*
X0241800Y0119000D01*
X0256800Y0119000D02*
X0256800Y0124600D01*
X0266800Y0124600D02*
X0266800Y0119000D01*
X0281800Y0119000D02*
X0281800Y0124600D01*
X0291800Y0124600D02*
X0291800Y0119000D01*
X0306800Y0119000D02*
X0306800Y0124600D01*
X0316800Y0124600D02*
X0316800Y0119000D01*
X0331800Y0119000D02*
X0331800Y0124600D01*
X0341800Y0124600D02*
X0341800Y0119000D01*
X0356800Y0119000D02*
X0356800Y0124600D01*
X0366800Y0124600D02*
X0366800Y0119000D01*
X0381800Y0119000D02*
X0381800Y0124600D01*
X0391800Y0124600D02*
X0391800Y0119000D01*
X0391800Y0149000D02*
X0391800Y0154600D01*
X0381800Y0154600D02*
X0381800Y0149000D01*
X0366800Y0149000D02*
X0366800Y0154600D01*
X0356800Y0154600D02*
X0356800Y0149000D01*
X0341800Y0149000D02*
X0341800Y0154600D01*
X0331800Y0154600D02*
X0331800Y0149000D01*
X0316800Y0149000D02*
X0316800Y0154600D01*
X0306800Y0154600D02*
X0306800Y0149000D01*
X0291800Y0149000D02*
X0291800Y0154600D01*
X0281800Y0154600D02*
X0281800Y0149000D01*
X0266800Y0149000D02*
X0266800Y0154600D01*
X0256800Y0154600D02*
X0256800Y0149000D01*
X0241800Y0149000D02*
X0241800Y0154600D01*
X0231800Y0154600D02*
X0231800Y0149000D01*
X0216800Y0149000D02*
X0216800Y0154600D01*
X0206800Y0154600D02*
X0206800Y0149000D01*
X0196800Y0149000D02*
X0196800Y0154600D01*
X0186800Y0154600D02*
X0186800Y0149000D01*
X0171800Y0149000D02*
X0171800Y0154600D01*
X0161800Y0154600D02*
X0161800Y0149000D01*
X0146800Y0149000D02*
X0146800Y0154600D01*
X0136800Y0154600D02*
X0136800Y0149000D01*
X0121800Y0149000D02*
X0121800Y0154600D01*
X0111800Y0154600D02*
X0111800Y0149000D01*
X0096800Y0149000D02*
X0096800Y0154600D01*
X0086800Y0154600D02*
X0086800Y0149000D01*
X0071800Y0149000D02*
X0071800Y0154600D01*
X0061800Y0154600D02*
X0061800Y0149000D01*
X0046800Y0149000D02*
X0046800Y0154600D01*
X0036800Y0154600D02*
X0036800Y0149000D01*
X0021800Y0149000D02*
X0021800Y0154600D01*
X0011800Y0154600D02*
X0011800Y0149000D01*
X0011800Y0179000D02*
X0011800Y0184600D01*
X0021800Y0184600D02*
X0021800Y0179000D01*
X0036800Y0179000D02*
X0036800Y0184600D01*
X0046800Y0184600D02*
X0046800Y0179000D01*
X0061800Y0179000D02*
X0061800Y0184600D01*
X0071800Y0184600D02*
X0071800Y0179000D01*
X0086800Y0179000D02*
X0086800Y0184600D01*
X0096800Y0184600D02*
X0096800Y0179000D01*
X0111800Y0179000D02*
X0111800Y0184600D01*
X0121800Y0184600D02*
X0121800Y0179000D01*
X0136800Y0179000D02*
X0136800Y0184600D01*
X0146800Y0184600D02*
X0146800Y0179000D01*
X0161800Y0179000D02*
X0161800Y0184600D01*
X0171800Y0184600D02*
X0171800Y0179000D01*
X0186800Y0179000D02*
X0186800Y0184600D01*
X0196800Y0184600D02*
X0196800Y0179000D01*
X0206800Y0179000D02*
X0206800Y0184600D01*
X0216800Y0184600D02*
X0216800Y0179000D01*
X0231800Y0179000D02*
X0231800Y0184600D01*
X0241800Y0184600D02*
X0241800Y0179000D01*
X0256800Y0179000D02*
X0256800Y0184600D01*
X0266800Y0184600D02*
X0266800Y0179000D01*
X0281800Y0179000D02*
X0281800Y0184600D01*
X0291800Y0184600D02*
X0291800Y0179000D01*
X0306800Y0179000D02*
X0306800Y0184600D01*
X0316800Y0184600D02*
X0316800Y0179000D01*
X0331800Y0179000D02*
X0331800Y0184600D01*
X0341800Y0184600D02*
X0341800Y0179000D01*
X0356800Y0179000D02*
X0356800Y0184600D01*
X0366800Y0184600D02*
X0366800Y0179000D01*
X0381800Y0179000D02*
X0381800Y0184600D01*
X0391800Y0184600D02*
X0391800Y0179000D01*
X0391800Y0209000D02*
X0391800Y0214600D01*
X0381800Y0214600D02*
X0381800Y0209000D01*
X0366800Y0209000D02*
X0366800Y0214600D01*
X0356800Y0214600D02*
X0356800Y0209000D01*
X0341800Y0209000D02*
X0341800Y0214600D01*
X0331800Y0214600D02*
X0331800Y0209000D01*
X0316800Y0209000D02*
X0316800Y0214600D01*
X0306800Y0214600D02*
X0306800Y0209000D01*
X0291800Y0209000D02*
X0291800Y0214600D01*
X0281800Y0214600D02*
X0281800Y0209000D01*
X0266800Y0209000D02*
X0266800Y0214600D01*
X0256800Y0214600D02*
X0256800Y0209000D01*
X0241800Y0209000D02*
X0241800Y0214600D01*
X0231800Y0214600D02*
X0231800Y0209000D01*
X0216800Y0209000D02*
X0216800Y0214600D01*
X0206800Y0214600D02*
X0206800Y0209000D01*
X0196800Y0209000D02*
X0196800Y0214600D01*
X0186800Y0214600D02*
X0186800Y0209000D01*
X0171800Y0209000D02*
X0171800Y0214600D01*
X0161800Y0214600D02*
X0161800Y0209000D01*
X0146800Y0209000D02*
X0146800Y0214600D01*
X0136800Y0214600D02*
X0136800Y0209000D01*
X0121800Y0209000D02*
X0121800Y0214600D01*
X0111800Y0214600D02*
X0111800Y0209000D01*
X0096800Y0209000D02*
X0096800Y0214600D01*
X0086800Y0214600D02*
X0086800Y0209000D01*
X0071800Y0209000D02*
X0071800Y0214600D01*
X0061800Y0214600D02*
X0061800Y0209000D01*
X0046800Y0209000D02*
X0046800Y0214600D01*
X0036800Y0214600D02*
X0036800Y0209000D01*
X0021800Y0209000D02*
X0021800Y0214600D01*
X0011800Y0214600D02*
X0011800Y0209000D01*
D11*
X0021800Y0021800D03*
X0021800Y0256800D03*
X0376800Y0256800D03*
X0381800Y0021800D03*
D12*
X0351600Y0066200D03*
X0340700Y0066200D03*
X0329800Y0066200D03*
X0319000Y0066200D03*
X0308100Y0066200D03*
X0297200Y0066200D03*
X0286400Y0066200D03*
X0275500Y0066200D03*
X0264600Y0066200D03*
X0253800Y0066200D03*
X0242900Y0066200D03*
X0232000Y0066200D03*
X0226600Y0077400D03*
X0237500Y0077400D03*
X0248300Y0077400D03*
X0259200Y0077400D03*
X0270100Y0077400D03*
X0280900Y0077400D03*
X0291800Y0077400D03*
X0302700Y0077400D03*
X0313500Y0077400D03*
X0324400Y0077400D03*
X0335300Y0077400D03*
X0346100Y0077400D03*
X0357000Y0077400D03*
D13*
X0384400Y0071800D03*
X0199200Y0071800D03*
D14*
X0141800Y0076800D03*
D15*
X0131800Y0076800D03*
X0121800Y0076800D03*
X0111800Y0076800D03*
X0101800Y0076800D03*
X0091800Y0076800D03*
X0081800Y0076800D03*
X0071800Y0076800D03*
X0061800Y0076800D03*
X0051800Y0076800D03*
X0041800Y0076800D03*
X0031800Y0076800D03*
X0021800Y0076800D03*
X0021800Y0066800D03*
X0031800Y0066800D03*
X0041800Y0066800D03*
X0051800Y0066800D03*
X0061800Y0066800D03*
X0071800Y0066800D03*
X0081800Y0066800D03*
X0091800Y0066800D03*
X0101800Y0066800D03*
X0111800Y0066800D03*
X0121800Y0066800D03*
X0131800Y0066800D03*
X0141800Y0066800D03*
M02*
