G75*
%MOIN*%
%OFA0B0*%
%FSLAX25Y25*%
%IPPOS*%
%LPD*%
%AMOC8*
5,1,8,0,0,1.08239X$1,22.5*
%
%ADD10C,0.05600*%
%ADD11OC8,0.06000*%
%ADD12C,0.20000*%
%ADD13R,0.05800X0.05800*%
%ADD14C,0.05800*%
%ADD15C,0.01500*%
%ADD16C,0.02400*%
D10*
X0011800Y0119000D02*
X0011800Y0124600D01*
X0021800Y0124600D02*
X0021800Y0119000D01*
X0036800Y0119000D02*
X0036800Y0124600D01*
X0046800Y0124600D02*
X0046800Y0119000D01*
X0061800Y0119000D02*
X0061800Y0124600D01*
X0071800Y0124600D02*
X0071800Y0119000D01*
X0086800Y0119000D02*
X0086800Y0124600D01*
X0096800Y0124600D02*
X0096800Y0119000D01*
X0111800Y0119000D02*
X0111800Y0124600D01*
X0121800Y0124600D02*
X0121800Y0119000D01*
X0136800Y0119000D02*
X0136800Y0124600D01*
X0146800Y0124600D02*
X0146800Y0119000D01*
X0161800Y0119000D02*
X0161800Y0124600D01*
X0171800Y0124600D02*
X0171800Y0119000D01*
X0186800Y0119000D02*
X0186800Y0124600D01*
X0196800Y0124600D02*
X0196800Y0119000D01*
X0206800Y0119000D02*
X0206800Y0124600D01*
X0216800Y0124600D02*
X0216800Y0119000D01*
X0231800Y0119000D02*
X0231800Y0124600D01*
X0241800Y0124600D02*
X0241800Y0119000D01*
X0256800Y0119000D02*
X0256800Y0124600D01*
X0266800Y0124600D02*
X0266800Y0119000D01*
X0281800Y0119000D02*
X0281800Y0124600D01*
X0291800Y0124600D02*
X0291800Y0119000D01*
X0306800Y0119000D02*
X0306800Y0124600D01*
X0316800Y0124600D02*
X0316800Y0119000D01*
X0331800Y0119000D02*
X0331800Y0124600D01*
X0341800Y0124600D02*
X0341800Y0119000D01*
X0356800Y0119000D02*
X0356800Y0124600D01*
X0366800Y0124600D02*
X0366800Y0119000D01*
X0381800Y0119000D02*
X0381800Y0124600D01*
X0391800Y0124600D02*
X0391800Y0119000D01*
X0391800Y0149000D02*
X0391800Y0154600D01*
X0381800Y0154600D02*
X0381800Y0149000D01*
X0366800Y0149000D02*
X0366800Y0154600D01*
X0356800Y0154600D02*
X0356800Y0149000D01*
X0341800Y0149000D02*
X0341800Y0154600D01*
X0331800Y0154600D02*
X0331800Y0149000D01*
X0316800Y0149000D02*
X0316800Y0154600D01*
X0306800Y0154600D02*
X0306800Y0149000D01*
X0291800Y0149000D02*
X0291800Y0154600D01*
X0281800Y0154600D02*
X0281800Y0149000D01*
X0266800Y0149000D02*
X0266800Y0154600D01*
X0256800Y0154600D02*
X0256800Y0149000D01*
X0241800Y0149000D02*
X0241800Y0154600D01*
X0231800Y0154600D02*
X0231800Y0149000D01*
X0216800Y0149000D02*
X0216800Y0154600D01*
X0206800Y0154600D02*
X0206800Y0149000D01*
X0196800Y0149000D02*
X0196800Y0154600D01*
X0186800Y0154600D02*
X0186800Y0149000D01*
X0171800Y0149000D02*
X0171800Y0154600D01*
X0161800Y0154600D02*
X0161800Y0149000D01*
X0146800Y0149000D02*
X0146800Y0154600D01*
X0136800Y0154600D02*
X0136800Y0149000D01*
X0121800Y0149000D02*
X0121800Y0154600D01*
X0111800Y0154600D02*
X0111800Y0149000D01*
X0096800Y0149000D02*
X0096800Y0154600D01*
X0086800Y0154600D02*
X0086800Y0149000D01*
X0071800Y0149000D02*
X0071800Y0154600D01*
X0061800Y0154600D02*
X0061800Y0149000D01*
X0046800Y0149000D02*
X0046800Y0154600D01*
X0036800Y0154600D02*
X0036800Y0149000D01*
X0021800Y0149000D02*
X0021800Y0154600D01*
X0011800Y0154600D02*
X0011800Y0149000D01*
X0011800Y0179000D02*
X0011800Y0184600D01*
X0021800Y0184600D02*
X0021800Y0179000D01*
X0036800Y0179000D02*
X0036800Y0184600D01*
X0046800Y0184600D02*
X0046800Y0179000D01*
X0061800Y0179000D02*
X0061800Y0184600D01*
X0071800Y0184600D02*
X0071800Y0179000D01*
X0086800Y0179000D02*
X0086800Y0184600D01*
X0096800Y0184600D02*
X0096800Y0179000D01*
X0111800Y0179000D02*
X0111800Y0184600D01*
X0121800Y0184600D02*
X0121800Y0179000D01*
X0136800Y0179000D02*
X0136800Y0184600D01*
X0146800Y0184600D02*
X0146800Y0179000D01*
X0161800Y0179000D02*
X0161800Y0184600D01*
X0171800Y0184600D02*
X0171800Y0179000D01*
X0186800Y0179000D02*
X0186800Y0184600D01*
X0196800Y0184600D02*
X0196800Y0179000D01*
X0206800Y0179000D02*
X0206800Y0184600D01*
X0216800Y0184600D02*
X0216800Y0179000D01*
X0231800Y0179000D02*
X0231800Y0184600D01*
X0241800Y0184600D02*
X0241800Y0179000D01*
X0256800Y0179000D02*
X0256800Y0184600D01*
X0266800Y0184600D02*
X0266800Y0179000D01*
X0281800Y0179000D02*
X0281800Y0184600D01*
X0291800Y0184600D02*
X0291800Y0179000D01*
X0306800Y0179000D02*
X0306800Y0184600D01*
X0316800Y0184600D02*
X0316800Y0179000D01*
X0331800Y0179000D02*
X0331800Y0184600D01*
X0341800Y0184600D02*
X0341800Y0179000D01*
X0356800Y0179000D02*
X0356800Y0184600D01*
X0366800Y0184600D02*
X0366800Y0179000D01*
X0381800Y0179000D02*
X0381800Y0184600D01*
X0391800Y0184600D02*
X0391800Y0179000D01*
X0391800Y0209000D02*
X0391800Y0214600D01*
X0381800Y0214600D02*
X0381800Y0209000D01*
X0366800Y0209000D02*
X0366800Y0214600D01*
X0356800Y0214600D02*
X0356800Y0209000D01*
X0341800Y0209000D02*
X0341800Y0214600D01*
X0331800Y0214600D02*
X0331800Y0209000D01*
X0316800Y0209000D02*
X0316800Y0214600D01*
X0306800Y0214600D02*
X0306800Y0209000D01*
X0291800Y0209000D02*
X0291800Y0214600D01*
X0281800Y0214600D02*
X0281800Y0209000D01*
X0266800Y0209000D02*
X0266800Y0214600D01*
X0256800Y0214600D02*
X0256800Y0209000D01*
X0241800Y0209000D02*
X0241800Y0214600D01*
X0231800Y0214600D02*
X0231800Y0209000D01*
X0216800Y0209000D02*
X0216800Y0214600D01*
X0206800Y0214600D02*
X0206800Y0209000D01*
X0196800Y0209000D02*
X0196800Y0214600D01*
X0186800Y0214600D02*
X0186800Y0209000D01*
X0171800Y0209000D02*
X0171800Y0214600D01*
X0161800Y0214600D02*
X0161800Y0209000D01*
X0146800Y0209000D02*
X0146800Y0214600D01*
X0136800Y0214600D02*
X0136800Y0209000D01*
X0121800Y0209000D02*
X0121800Y0214600D01*
X0111800Y0214600D02*
X0111800Y0209000D01*
X0096800Y0209000D02*
X0096800Y0214600D01*
X0086800Y0214600D02*
X0086800Y0209000D01*
X0071800Y0209000D02*
X0071800Y0214600D01*
X0061800Y0214600D02*
X0061800Y0209000D01*
X0046800Y0209000D02*
X0046800Y0214600D01*
X0036800Y0214600D02*
X0036800Y0209000D01*
X0021800Y0209000D02*
X0021800Y0214600D01*
X0011800Y0214600D02*
X0011800Y0209000D01*
D11*
X0226600Y0077400D03*
X0237500Y0077400D03*
X0248300Y0077400D03*
X0259200Y0077400D03*
X0270100Y0077400D03*
X0280900Y0077400D03*
X0291800Y0077400D03*
X0302700Y0077400D03*
X0313500Y0077400D03*
X0324400Y0077400D03*
X0335300Y0077400D03*
X0346100Y0077400D03*
X0357000Y0077400D03*
X0351600Y0066200D03*
X0340700Y0066200D03*
X0329800Y0066200D03*
X0319000Y0066200D03*
X0308100Y0066200D03*
X0297200Y0066200D03*
X0286400Y0066200D03*
X0275500Y0066200D03*
X0264600Y0066200D03*
X0253800Y0066200D03*
X0242900Y0066200D03*
X0232000Y0066200D03*
D12*
X0199200Y0071800D03*
X0384400Y0071800D03*
D13*
X0141800Y0076800D03*
D14*
X0131800Y0076800D03*
X0121800Y0076800D03*
X0111800Y0076800D03*
X0101800Y0076800D03*
X0091800Y0076800D03*
X0081800Y0076800D03*
X0071800Y0076800D03*
X0061800Y0076800D03*
X0051800Y0076800D03*
X0041800Y0076800D03*
X0031800Y0076800D03*
X0021800Y0076800D03*
X0021800Y0066800D03*
X0031800Y0066800D03*
X0041800Y0066800D03*
X0051800Y0066800D03*
X0061800Y0066800D03*
X0071800Y0066800D03*
X0081800Y0066800D03*
X0091800Y0066800D03*
X0101800Y0066800D03*
X0111800Y0066800D03*
X0121800Y0066800D03*
X0131800Y0066800D03*
X0141800Y0066800D03*
D15*
X0019300Y0061800D02*
X0006800Y0074300D01*
X0006800Y0171800D01*
X0196800Y0171800D01*
X0206800Y0181800D01*
X0214300Y0174300D01*
X0224300Y0174300D01*
X0249300Y0174300D01*
X0274300Y0174300D01*
X0299300Y0174300D01*
X0324300Y0174300D01*
X0349300Y0174300D01*
X0374300Y0174300D01*
X0381800Y0181800D01*
X0356800Y0181800D02*
X0349300Y0174300D01*
X0336800Y0164300D02*
X0129300Y0164300D01*
X0124300Y0159300D01*
X0089300Y0159300D01*
X0064300Y0159300D01*
X0039300Y0159300D01*
X0046800Y0151800D01*
X0044300Y0144300D02*
X0036800Y0151800D01*
X0039300Y0159300D02*
X0029300Y0159300D01*
X0021800Y0151800D01*
X0044300Y0144300D02*
X0144300Y0144300D01*
X0154300Y0134300D01*
X0321800Y0134300D01*
X0324300Y0129300D02*
X0314300Y0129300D01*
X0306800Y0121800D01*
X0299300Y0129300D01*
X0274300Y0129300D01*
X0249300Y0129300D01*
X0224300Y0129300D01*
X0231800Y0121800D01*
X0241800Y0121800D02*
X0256800Y0106800D01*
X0254300Y0099300D02*
X0266800Y0111800D01*
X0266800Y0121800D01*
X0256800Y0121800D02*
X0249300Y0129300D01*
X0224300Y0129300D02*
X0214300Y0129300D01*
X0206800Y0121800D01*
X0194300Y0109300D01*
X0036800Y0109300D01*
X0036800Y0071800D01*
X0041800Y0066800D01*
X0046800Y0061800D02*
X0019300Y0061800D01*
X0021800Y0066800D02*
X0026800Y0071800D01*
X0026800Y0114300D01*
X0079300Y0114300D01*
X0086800Y0121800D01*
X0089300Y0129300D02*
X0096800Y0121800D01*
X0104300Y0114300D01*
X0134300Y0114300D01*
X0121800Y0121800D02*
X0129300Y0129300D01*
X0139300Y0129300D01*
X0164300Y0129300D01*
X0189300Y0129300D01*
X0196800Y0121800D01*
X0189300Y0104300D02*
X0069300Y0104300D01*
X0041800Y0076800D01*
X0051800Y0066800D02*
X0046800Y0061800D01*
X0061800Y0066800D02*
X0091800Y0036800D01*
X0256800Y0036800D01*
X0361800Y0036800D01*
X0361800Y0066800D01*
X0379300Y0084300D01*
X0391800Y0084300D01*
X0391800Y0121800D01*
X0386800Y0116800D02*
X0386800Y0144300D01*
X0204300Y0144300D01*
X0196800Y0151800D01*
X0189300Y0159300D01*
X0164300Y0159300D01*
X0139300Y0159300D01*
X0146800Y0151800D01*
X0144300Y0144300D02*
X0136800Y0151800D01*
X0139300Y0159300D02*
X0129300Y0159300D01*
X0121800Y0151800D01*
X0121800Y0131800D02*
X0021800Y0131800D01*
X0011800Y0121800D01*
X0021800Y0121800D02*
X0029300Y0129300D01*
X0039300Y0129300D01*
X0064300Y0129300D01*
X0089300Y0129300D01*
X0071800Y0121800D02*
X0064300Y0129300D01*
X0046800Y0121800D02*
X0039300Y0129300D01*
X0064300Y0159300D02*
X0071800Y0151800D01*
X0089300Y0159300D02*
X0096800Y0151800D01*
X0121800Y0131800D02*
X0111800Y0121800D01*
X0121800Y0131800D02*
X0306800Y0131800D01*
X0309300Y0129300D01*
X0324300Y0129300D02*
X0349300Y0129300D01*
X0374300Y0129300D01*
X0381800Y0121800D01*
X0386800Y0116800D02*
X0384300Y0114300D01*
X0364300Y0114300D01*
X0326800Y0076800D01*
X0324400Y0077400D01*
X0319300Y0079300D02*
X0319300Y0071800D01*
X0354300Y0071800D01*
X0356800Y0069300D01*
X0356800Y0049300D01*
X0241800Y0049300D01*
X0236800Y0051800D02*
X0106800Y0051800D01*
X0091800Y0066800D01*
X0101800Y0066800D02*
X0111800Y0056800D01*
X0254300Y0056800D01*
X0256800Y0054300D01*
X0274300Y0071800D02*
X0216800Y0071800D01*
X0204300Y0084300D01*
X0159300Y0084300D01*
X0146800Y0071800D01*
X0119300Y0071800D01*
X0114300Y0066800D01*
X0111800Y0066800D01*
X0114300Y0071800D02*
X0119300Y0076800D01*
X0121800Y0076800D01*
X0131800Y0086800D01*
X0266800Y0086800D01*
X0269300Y0084300D01*
X0306800Y0084300D01*
X0311800Y0079300D01*
X0313500Y0077400D01*
X0319300Y0079300D02*
X0336800Y0096800D01*
X0341800Y0096800D01*
X0341800Y0121800D01*
X0331800Y0121800D02*
X0324300Y0129300D01*
X0341800Y0139300D02*
X0206800Y0139300D01*
X0206800Y0151800D02*
X0214300Y0159300D01*
X0224300Y0159300D01*
X0249300Y0159300D01*
X0274300Y0159300D01*
X0299300Y0159300D01*
X0324300Y0159300D01*
X0349300Y0159300D01*
X0374300Y0159300D01*
X0381800Y0151800D01*
X0356800Y0151800D02*
X0349300Y0159300D01*
X0331800Y0151800D02*
X0324300Y0159300D01*
X0306800Y0151800D02*
X0299300Y0159300D01*
X0299300Y0174300D02*
X0306800Y0181800D01*
X0296800Y0186800D02*
X0281800Y0201800D01*
X0086800Y0201800D01*
X0074300Y0214300D01*
X0071800Y0211800D01*
X0064300Y0204300D01*
X0039300Y0204300D01*
X0046800Y0211800D01*
X0039300Y0204300D02*
X0029300Y0204300D01*
X0021800Y0211800D01*
X0029300Y0189300D02*
X0039300Y0189300D01*
X0064300Y0189300D01*
X0089300Y0189300D01*
X0096800Y0181800D01*
X0071800Y0181800D02*
X0064300Y0189300D01*
X0061800Y0181800D02*
X0069300Y0174300D01*
X0154300Y0174300D01*
X0161800Y0181800D01*
X0164300Y0189300D02*
X0189300Y0189300D01*
X0196800Y0181800D01*
X0171800Y0181800D02*
X0164300Y0189300D01*
X0139300Y0189300D01*
X0146800Y0181800D01*
X0139300Y0189300D02*
X0129300Y0189300D01*
X0121800Y0181800D01*
X0094300Y0204300D02*
X0179300Y0204300D01*
X0186800Y0211800D01*
X0189300Y0219300D02*
X0164300Y0219300D01*
X0139300Y0219300D01*
X0146800Y0211800D01*
X0139300Y0219300D02*
X0129300Y0219300D01*
X0121800Y0211800D01*
X0096800Y0211800D02*
X0089300Y0219300D01*
X0079300Y0219300D01*
X0074300Y0214300D01*
X0086800Y0211800D02*
X0094300Y0204300D01*
X0046800Y0181800D02*
X0039300Y0189300D01*
X0029300Y0189300D02*
X0021800Y0181800D01*
X0139300Y0129300D02*
X0146800Y0121800D01*
X0164300Y0129300D02*
X0171800Y0121800D01*
X0171800Y0151800D02*
X0164300Y0159300D01*
X0224300Y0159300D02*
X0231800Y0151800D01*
X0249300Y0159300D02*
X0256800Y0151800D01*
X0274300Y0159300D02*
X0281800Y0151800D01*
X0274300Y0129300D02*
X0281800Y0121800D01*
X0254300Y0099300D02*
X0114300Y0099300D01*
X0091800Y0076800D01*
X0101800Y0076800D02*
X0119300Y0094300D01*
X0216800Y0094300D01*
X0264300Y0094300D01*
X0269300Y0089300D01*
X0279300Y0076800D02*
X0280900Y0077400D01*
X0279300Y0076800D02*
X0274300Y0071800D01*
X0299300Y0081800D02*
X0301800Y0079300D01*
X0302700Y0077400D01*
X0299300Y0081800D02*
X0221800Y0081800D01*
X0209300Y0064300D02*
X0211800Y0061800D01*
X0336800Y0061800D01*
X0339300Y0064300D01*
X0340700Y0066200D01*
X0344300Y0059300D02*
X0194300Y0059300D01*
X0184300Y0069300D01*
X0149300Y0044300D02*
X0359300Y0044300D01*
X0359300Y0076800D01*
X0357000Y0077400D01*
X0351600Y0066200D02*
X0349300Y0064300D01*
X0344300Y0059300D01*
X0356800Y0121800D02*
X0349300Y0129300D01*
X0346800Y0134300D02*
X0341800Y0139300D01*
X0324300Y0174300D02*
X0331800Y0181800D01*
X0324300Y0204300D02*
X0299300Y0204300D01*
X0274300Y0204300D01*
X0249300Y0204300D01*
X0224300Y0204300D01*
X0231800Y0211800D01*
X0224300Y0204300D02*
X0214300Y0204300D01*
X0206800Y0211800D01*
X0196800Y0211800D02*
X0189300Y0219300D01*
X0171800Y0211800D02*
X0164300Y0219300D01*
X0224300Y0174300D02*
X0231800Y0181800D01*
X0249300Y0174300D02*
X0256800Y0181800D01*
X0274300Y0174300D02*
X0281800Y0181800D01*
X0274300Y0204300D02*
X0281800Y0211800D01*
X0299300Y0204300D02*
X0306800Y0211800D01*
X0324300Y0204300D02*
X0349300Y0204300D01*
X0374300Y0204300D01*
X0381800Y0211800D01*
X0356800Y0211800D02*
X0349300Y0204300D01*
X0331800Y0211800D02*
X0324300Y0204300D01*
X0256800Y0211800D02*
X0249300Y0204300D01*
X0076800Y0076800D02*
X0076800Y0071800D01*
X0114300Y0071800D01*
D16*
X0076800Y0076800D03*
X0134300Y0114300D03*
X0189300Y0104300D03*
X0216800Y0094300D03*
X0221800Y0081800D03*
X0209300Y0064300D03*
X0184300Y0069300D03*
X0149300Y0044300D03*
X0236800Y0051800D03*
X0241800Y0049300D03*
X0256800Y0054300D03*
X0256800Y0036800D03*
X0269300Y0089300D03*
X0256800Y0106800D03*
X0206800Y0139300D03*
X0129300Y0164300D03*
X0296800Y0186800D03*
X0336800Y0164300D03*
X0346800Y0134300D03*
X0321800Y0134300D03*
X0309300Y0129300D03*
M02*
