%
M48
M72
T01C0.01200
%
T01
X14821Y11631
X25446Y9131
X34196Y21006
X31071Y26006
X33571Y29756
X30446Y32256
X32321Y34756
X30446Y39131
X32321Y41631
X30446Y44131
X31696Y49131
X37946Y48506
X47946Y46631
X50446Y44756
X53571Y47256
X50446Y49756
X52946Y53506
X47946Y56006
X50446Y59756
X47946Y67256
X29196Y64756
X21071Y66631
X20446Y63506
X15446Y66006
X12321Y64756
X12946Y56631
X12946Y44131
X16071Y37256
X21071Y36006
X21071Y44756
X42946Y29756
X46696Y34131
X46696Y37256
X51696Y39131
X54821Y32256
X51071Y29756
X51696Y24131
X62946Y28506
X66071Y28506
X68571Y26006
X72321Y28506
X80446Y32881
X86071Y27256
X87946Y19131
X72321Y19131
X87321Y37256
X92321Y45381
X91071Y50381
X96071Y51006
X92946Y61006
M30
