G75*
%MOIN*%
%OFA0B0*%
%FSLAX25Y25*%
%IPPOS*%
%LPD*%
%AMOC8*
5,1,8,0,0,1.08239X$1,22.5*
%
%ADD10R,0.04331X0.03937*%
%ADD11R,0.06000X0.05000*%
%ADD12R,0.05000X0.06000*%
%ADD13R,0.03150X0.04724*%
%ADD14R,0.03937X0.04331*%
%ADD15R,0.01969X0.02559*%
%ADD16R,0.02165X0.04724*%
%ADD17C,0.01772*%
%ADD18R,0.04724X0.03150*%
%ADD19R,0.03150X0.01181*%
D10*
X0019102Y0052589D03*
X0025795Y0052589D03*
X0025795Y0059589D03*
X0019102Y0059589D03*
X0035102Y0058589D03*
X0041795Y0058589D03*
X0041795Y0064589D03*
X0035102Y0064589D03*
X0038102Y0073589D03*
X0044795Y0073589D03*
X0041795Y0052589D03*
X0035102Y0052589D03*
X0069775Y0007500D03*
X0076468Y0007500D03*
D11*
X0007449Y0013589D03*
X0007449Y0021589D03*
X0007449Y0054589D03*
X0007449Y0063589D03*
X0111121Y0064500D03*
X0111121Y0057500D03*
X0111121Y0045500D03*
X0111121Y0038500D03*
X0111121Y0029500D03*
X0111121Y0022500D03*
X0111121Y0015500D03*
X0111121Y0008500D03*
D12*
X0063227Y0008288D03*
X0055449Y0008589D03*
X0045449Y0008589D03*
X0038449Y0008589D03*
X0031318Y0072766D03*
X0050449Y0072589D03*
X0075308Y0072628D03*
X0097121Y0072500D03*
X0104121Y0072500D03*
X0111121Y0072500D03*
D13*
X0026992Y0015589D03*
X0019906Y0015589D03*
X0017906Y0073589D03*
X0012992Y0073589D03*
X0005906Y0073589D03*
X0024992Y0073589D03*
D14*
X0038449Y0021935D03*
X0038449Y0015242D03*
X0045449Y0015242D03*
X0045449Y0021935D03*
D15*
G36*
X0092441Y0031107D02*
X0093833Y0032499D01*
X0095641Y0030691D01*
X0094249Y0029299D01*
X0092441Y0031107D01*
G37*
G36*
X0094668Y0033334D02*
X0096060Y0034726D01*
X0097868Y0032918D01*
X0096476Y0031526D01*
X0094668Y0033334D01*
G37*
G36*
X0096895Y0035561D02*
X0098287Y0036953D01*
X0100095Y0035145D01*
X0098703Y0033753D01*
X0096895Y0035561D01*
G37*
G36*
X0099122Y0037789D02*
X0100514Y0039181D01*
X0102322Y0037373D01*
X0100930Y0035981D01*
X0099122Y0037789D01*
G37*
G36*
X0102602Y0034309D02*
X0103994Y0035701D01*
X0105802Y0033893D01*
X0104410Y0032501D01*
X0102602Y0034309D01*
G37*
G36*
X0100375Y0032082D02*
X0101767Y0033474D01*
X0103575Y0031666D01*
X0102183Y0030274D01*
X0100375Y0032082D01*
G37*
G36*
X0098148Y0029855D02*
X0099540Y0031247D01*
X0101348Y0029439D01*
X0099956Y0028047D01*
X0098148Y0029855D01*
G37*
G36*
X0095920Y0027627D02*
X0097312Y0029019D01*
X0099120Y0027211D01*
X0097728Y0025819D01*
X0095920Y0027627D01*
G37*
G36*
X0100641Y0049819D02*
X0099249Y0051211D01*
X0101057Y0053019D01*
X0102449Y0051627D01*
X0100641Y0049819D01*
G37*
G36*
X0098414Y0052047D02*
X0097022Y0053439D01*
X0098830Y0055247D01*
X0100222Y0053855D01*
X0098414Y0052047D01*
G37*
G36*
X0096187Y0054274D02*
X0094795Y0055666D01*
X0096603Y0057474D01*
X0097995Y0056082D01*
X0096187Y0054274D01*
G37*
G36*
X0093960Y0056501D02*
X0092568Y0057893D01*
X0094376Y0059701D01*
X0095768Y0058309D01*
X0093960Y0056501D01*
G37*
G36*
X0099667Y0057753D02*
X0098275Y0059145D01*
X0100083Y0060953D01*
X0101475Y0059561D01*
X0099667Y0057753D01*
G37*
G36*
X0101894Y0055526D02*
X0100502Y0056918D01*
X0102310Y0058726D01*
X0103702Y0057334D01*
X0101894Y0055526D01*
G37*
G36*
X0104121Y0053299D02*
X0102729Y0054691D01*
X0104537Y0056499D01*
X0105929Y0055107D01*
X0104121Y0053299D01*
G37*
G36*
X0097439Y0059981D02*
X0096047Y0061373D01*
X0097855Y0063181D01*
X0099247Y0061789D01*
X0097439Y0059981D01*
G37*
G36*
X0092248Y0063680D02*
X0090856Y0065072D01*
X0092664Y0066880D01*
X0094056Y0065488D01*
X0092248Y0063680D01*
G37*
G36*
X0088768Y0060201D02*
X0087376Y0061593D01*
X0089184Y0063401D01*
X0090576Y0062009D01*
X0088768Y0060201D01*
G37*
G36*
X0086541Y0062428D02*
X0085149Y0063820D01*
X0086957Y0065628D01*
X0088349Y0064236D01*
X0086541Y0062428D01*
G37*
G36*
X0084314Y0064655D02*
X0082922Y0066047D01*
X0084730Y0067855D01*
X0086122Y0066463D01*
X0084314Y0064655D01*
G37*
G36*
X0082087Y0066882D02*
X0080695Y0068274D01*
X0082503Y0070082D01*
X0083895Y0068690D01*
X0082087Y0066882D01*
G37*
G36*
X0087794Y0068135D02*
X0086402Y0069527D01*
X0088210Y0071335D01*
X0089602Y0069943D01*
X0087794Y0068135D01*
G37*
G36*
X0090021Y0065908D02*
X0088629Y0067300D01*
X0090437Y0069108D01*
X0091829Y0067716D01*
X0090021Y0065908D01*
G37*
G36*
X0085567Y0070362D02*
X0084175Y0071754D01*
X0085983Y0073562D01*
X0087375Y0072170D01*
X0085567Y0070362D01*
G37*
D16*
X0043189Y0044707D03*
X0035709Y0044707D03*
X0035709Y0034470D03*
X0039449Y0034470D03*
X0043189Y0034470D03*
X0016189Y0032470D03*
X0012449Y0032470D03*
X0008709Y0032470D03*
X0008709Y0042707D03*
X0016189Y0042707D03*
D17*
X0082397Y0012364D02*
X0082397Y0006636D01*
X0087121Y0006636D02*
X0087121Y0012364D01*
X0091846Y0012364D02*
X0091846Y0006636D01*
D18*
X0025518Y0034626D03*
X0025518Y0041712D03*
D19*
G36*
X0053166Y0044299D02*
X0055392Y0046525D01*
X0056226Y0045691D01*
X0054000Y0043465D01*
X0053166Y0044299D01*
G37*
G36*
X0054558Y0042907D02*
X0056784Y0045133D01*
X0057618Y0044299D01*
X0055392Y0042073D01*
X0054558Y0042907D01*
G37*
G36*
X0055950Y0041515D02*
X0058176Y0043741D01*
X0059010Y0042907D01*
X0056784Y0040681D01*
X0055950Y0041515D01*
G37*
G36*
X0057342Y0040123D02*
X0059568Y0042349D01*
X0060402Y0041515D01*
X0058176Y0039289D01*
X0057342Y0040123D01*
G37*
G36*
X0058734Y0038731D02*
X0060960Y0040957D01*
X0061794Y0040123D01*
X0059568Y0037897D01*
X0058734Y0038731D01*
G37*
G36*
X0060126Y0037339D02*
X0062352Y0039565D01*
X0063186Y0038731D01*
X0060960Y0036505D01*
X0060126Y0037339D01*
G37*
G36*
X0064578Y0037339D02*
X0062352Y0035113D01*
X0061518Y0035947D01*
X0063744Y0038173D01*
X0064578Y0037339D01*
G37*
G36*
X0065970Y0035947D02*
X0063744Y0033721D01*
X0062910Y0034555D01*
X0065136Y0036781D01*
X0065970Y0035947D01*
G37*
G36*
X0067362Y0034555D02*
X0065136Y0032329D01*
X0064302Y0033163D01*
X0066528Y0035389D01*
X0067362Y0034555D01*
G37*
G36*
X0068754Y0033163D02*
X0066528Y0030937D01*
X0065694Y0031771D01*
X0067920Y0033997D01*
X0068754Y0033163D01*
G37*
G36*
X0070146Y0031771D02*
X0067920Y0029545D01*
X0067086Y0030379D01*
X0069312Y0032605D01*
X0070146Y0031771D01*
G37*
G36*
X0074323Y0029545D02*
X0072097Y0031771D01*
X0072931Y0032605D01*
X0075157Y0030379D01*
X0074323Y0029545D01*
G37*
G36*
X0075715Y0030937D02*
X0073489Y0033163D01*
X0074323Y0033997D01*
X0076549Y0031771D01*
X0075715Y0030937D01*
G37*
G36*
X0077107Y0032329D02*
X0074881Y0034555D01*
X0075715Y0035389D01*
X0077941Y0033163D01*
X0077107Y0032329D01*
G37*
G36*
X0078498Y0033721D02*
X0076272Y0035947D01*
X0077106Y0036781D01*
X0079332Y0034555D01*
X0078498Y0033721D01*
G37*
G36*
X0079890Y0035113D02*
X0077664Y0037339D01*
X0078498Y0038173D01*
X0080724Y0035947D01*
X0079890Y0035113D01*
G37*
G36*
X0081282Y0036505D02*
X0079056Y0038731D01*
X0079890Y0039565D01*
X0082116Y0037339D01*
X0081282Y0036505D01*
G37*
G36*
X0081282Y0040957D02*
X0083508Y0038731D01*
X0082674Y0037897D01*
X0080448Y0040123D01*
X0081282Y0040957D01*
G37*
G36*
X0082674Y0042349D02*
X0084900Y0040123D01*
X0084066Y0039289D01*
X0081840Y0041515D01*
X0082674Y0042349D01*
G37*
G36*
X0084066Y0043741D02*
X0086292Y0041515D01*
X0085458Y0040681D01*
X0083232Y0042907D01*
X0084066Y0043741D01*
G37*
G36*
X0085458Y0045133D02*
X0087684Y0042907D01*
X0086850Y0042073D01*
X0084624Y0044299D01*
X0085458Y0045133D01*
G37*
G36*
X0086850Y0046525D02*
X0089076Y0044299D01*
X0088242Y0043465D01*
X0086016Y0045691D01*
X0086850Y0046525D01*
G37*
G36*
X0089076Y0050701D02*
X0086850Y0048475D01*
X0086016Y0049309D01*
X0088242Y0051535D01*
X0089076Y0050701D01*
G37*
G36*
X0087684Y0052093D02*
X0085458Y0049867D01*
X0084624Y0050701D01*
X0086850Y0052927D01*
X0087684Y0052093D01*
G37*
G36*
X0086292Y0053485D02*
X0084066Y0051259D01*
X0083232Y0052093D01*
X0085458Y0054319D01*
X0086292Y0053485D01*
G37*
G36*
X0084900Y0054877D02*
X0082674Y0052651D01*
X0081840Y0053485D01*
X0084066Y0055711D01*
X0084900Y0054877D01*
G37*
G36*
X0083508Y0056269D02*
X0081282Y0054043D01*
X0080448Y0054877D01*
X0082674Y0057103D01*
X0083508Y0056269D01*
G37*
G36*
X0082116Y0057661D02*
X0079890Y0055435D01*
X0079056Y0056269D01*
X0081282Y0058495D01*
X0082116Y0057661D01*
G37*
G36*
X0077664Y0057661D02*
X0079890Y0059887D01*
X0080724Y0059053D01*
X0078498Y0056827D01*
X0077664Y0057661D01*
G37*
G36*
X0076272Y0059053D02*
X0078498Y0061279D01*
X0079332Y0060445D01*
X0077106Y0058219D01*
X0076272Y0059053D01*
G37*
G36*
X0074881Y0060445D02*
X0077107Y0062671D01*
X0077941Y0061837D01*
X0075715Y0059611D01*
X0074881Y0060445D01*
G37*
G36*
X0073489Y0061837D02*
X0075715Y0064063D01*
X0076549Y0063229D01*
X0074323Y0061003D01*
X0073489Y0061837D01*
G37*
G36*
X0072097Y0063229D02*
X0074323Y0065455D01*
X0075157Y0064621D01*
X0072931Y0062395D01*
X0072097Y0063229D01*
G37*
G36*
X0067920Y0065455D02*
X0070146Y0063229D01*
X0069312Y0062395D01*
X0067086Y0064621D01*
X0067920Y0065455D01*
G37*
G36*
X0066528Y0064063D02*
X0068754Y0061837D01*
X0067920Y0061003D01*
X0065694Y0063229D01*
X0066528Y0064063D01*
G37*
G36*
X0065136Y0062671D02*
X0067362Y0060445D01*
X0066528Y0059611D01*
X0064302Y0061837D01*
X0065136Y0062671D01*
G37*
G36*
X0063744Y0061279D02*
X0065970Y0059053D01*
X0065136Y0058219D01*
X0062910Y0060445D01*
X0063744Y0061279D01*
G37*
G36*
X0062352Y0059887D02*
X0064578Y0057661D01*
X0063744Y0056827D01*
X0061518Y0059053D01*
X0062352Y0059887D01*
G37*
G36*
X0060960Y0058495D02*
X0063186Y0056269D01*
X0062352Y0055435D01*
X0060126Y0057661D01*
X0060960Y0058495D01*
G37*
G36*
X0060960Y0054043D02*
X0058734Y0056269D01*
X0059568Y0057103D01*
X0061794Y0054877D01*
X0060960Y0054043D01*
G37*
G36*
X0059568Y0052651D02*
X0057342Y0054877D01*
X0058176Y0055711D01*
X0060402Y0053485D01*
X0059568Y0052651D01*
G37*
G36*
X0058176Y0051259D02*
X0055950Y0053485D01*
X0056784Y0054319D01*
X0059010Y0052093D01*
X0058176Y0051259D01*
G37*
G36*
X0056784Y0049867D02*
X0054558Y0052093D01*
X0055392Y0052927D01*
X0057618Y0050701D01*
X0056784Y0049867D01*
G37*
G36*
X0055392Y0048475D02*
X0053166Y0050701D01*
X0054000Y0051535D01*
X0056226Y0049309D01*
X0055392Y0048475D01*
G37*
M02*
