G75*
%MOIN*%
%OFA0B0*%
%FSLAX25Y25*%
%IPPOS*%
%LPD*%
%AMOC8*
5,1,8,0,0,1.08239X$1,22.5*
%
%ADD10C,0.00200*%
%ADD11R,0.01800X0.03000*%
%ADD12C,0.00000*%
%ADD13C,0.00600*%
%ADD14R,0.03000X0.01800*%
%ADD15C,0.00800*%
D10*
X0004916Y0007689D02*
X0005650Y0007689D01*
X0006017Y0008056D01*
X0006759Y0007689D02*
X0006759Y0009157D01*
X0007493Y0009891D01*
X0008227Y0009157D01*
X0008227Y0007689D01*
X0008969Y0007689D02*
X0008969Y0009891D01*
X0010070Y0009891D01*
X0010436Y0009524D01*
X0010436Y0008790D01*
X0010070Y0008423D01*
X0008969Y0008423D01*
X0009703Y0008423D02*
X0010436Y0007689D01*
X0008227Y0008790D02*
X0006759Y0008790D01*
X0006017Y0009524D02*
X0005650Y0009891D01*
X0004916Y0009891D01*
X0004549Y0009524D01*
X0004549Y0008056D01*
X0004916Y0007689D01*
X0011549Y0011689D02*
X0012650Y0011689D01*
X0013017Y0012056D01*
X0013017Y0012423D01*
X0012650Y0012790D01*
X0011549Y0012790D01*
X0011549Y0011689D02*
X0011549Y0013891D01*
X0012650Y0013891D01*
X0013017Y0013524D01*
X0013017Y0013157D01*
X0012650Y0012790D01*
X0013759Y0012790D02*
X0015227Y0012790D01*
X0015227Y0013157D02*
X0015227Y0011689D01*
X0015227Y0013157D02*
X0014493Y0013891D01*
X0013759Y0013157D01*
X0013759Y0011689D01*
X0013388Y0009891D02*
X0013388Y0008423D01*
X0014122Y0007689D01*
X0014856Y0008423D01*
X0014856Y0009891D01*
X0015598Y0009524D02*
X0015965Y0009891D01*
X0016699Y0009891D01*
X0017066Y0009524D01*
X0017066Y0009157D01*
X0015598Y0007689D01*
X0017066Y0007689D01*
X0017808Y0007689D02*
X0018175Y0007689D01*
X0018175Y0008056D01*
X0017808Y0008056D01*
X0017808Y0007689D01*
X0018913Y0008056D02*
X0020381Y0009524D01*
X0020381Y0008056D01*
X0020014Y0007689D01*
X0019280Y0007689D01*
X0018913Y0008056D01*
X0018913Y0009524D01*
X0019280Y0009891D01*
X0020014Y0009891D01*
X0020381Y0009524D01*
X0019646Y0012790D02*
X0018178Y0012790D01*
X0017436Y0013891D02*
X0015969Y0013891D01*
X0016703Y0013891D02*
X0016703Y0011689D01*
X0024249Y0019334D02*
X0024616Y0018967D01*
X0025350Y0018967D01*
X0025717Y0019334D01*
X0026459Y0018967D02*
X0027927Y0018967D01*
X0027193Y0018967D02*
X0027193Y0021168D01*
X0026459Y0020434D01*
X0025717Y0020801D02*
X0025350Y0021168D01*
X0024616Y0021168D01*
X0024249Y0020801D01*
X0024249Y0019334D01*
X0018921Y0022268D02*
X0017453Y0022268D01*
X0018187Y0023002D02*
X0018187Y0021534D01*
X0015977Y0021168D02*
X0015977Y0023369D01*
X0015243Y0023369D02*
X0016711Y0023369D01*
X0014501Y0022635D02*
X0014501Y0021168D01*
X0014501Y0022268D02*
X0013033Y0022268D01*
X0013033Y0022635D02*
X0013033Y0021168D01*
X0012291Y0021534D02*
X0011924Y0021168D01*
X0010823Y0021168D01*
X0010823Y0023369D01*
X0011924Y0023369D01*
X0012291Y0023002D01*
X0012291Y0022635D01*
X0011924Y0022268D01*
X0010823Y0022268D01*
X0011924Y0022268D02*
X0012291Y0021901D01*
X0012291Y0021534D01*
X0013033Y0022635D02*
X0013767Y0023369D01*
X0014501Y0022635D01*
X0021916Y0030689D02*
X0022650Y0030689D01*
X0023017Y0031056D01*
X0023759Y0031056D02*
X0024126Y0030689D01*
X0024860Y0030689D01*
X0025227Y0031056D01*
X0025227Y0031790D01*
X0024860Y0032157D01*
X0024493Y0032157D01*
X0023759Y0031790D01*
X0023759Y0032891D01*
X0025227Y0032891D01*
X0023017Y0032524D02*
X0022650Y0032891D01*
X0021916Y0032891D01*
X0021549Y0032524D01*
X0021549Y0031056D01*
X0021916Y0030689D01*
X0037359Y0030302D02*
X0037359Y0028468D01*
X0037726Y0028101D01*
X0038460Y0028101D01*
X0038827Y0028468D01*
X0038827Y0030302D01*
X0039569Y0029201D02*
X0040670Y0029201D01*
X0041037Y0028834D01*
X0041037Y0028468D01*
X0040670Y0028101D01*
X0039936Y0028101D01*
X0039569Y0028468D01*
X0039569Y0029201D01*
X0040303Y0029935D01*
X0041037Y0030302D01*
X0048549Y0019891D02*
X0049650Y0019891D01*
X0050017Y0019524D01*
X0050017Y0018790D01*
X0049650Y0018423D01*
X0048549Y0018423D01*
X0049283Y0018423D02*
X0050017Y0017689D01*
X0050759Y0017689D02*
X0052227Y0017689D01*
X0051493Y0017689D02*
X0051493Y0019891D01*
X0050759Y0019157D01*
X0048549Y0019891D02*
X0048549Y0017689D01*
X0054515Y0013847D02*
X0055249Y0014581D01*
X0055249Y0012379D01*
X0054515Y0012379D02*
X0055983Y0012379D01*
X0056725Y0012746D02*
X0058193Y0014214D01*
X0058193Y0012746D01*
X0057826Y0012379D01*
X0057092Y0012379D01*
X0056725Y0012746D01*
X0056725Y0014214D01*
X0057092Y0014581D01*
X0057826Y0014581D01*
X0058193Y0014214D01*
X0062605Y0014454D02*
X0062605Y0012252D01*
X0062605Y0012986D02*
X0063706Y0012986D01*
X0064073Y0013353D01*
X0064073Y0014087D01*
X0063706Y0014454D01*
X0062605Y0014454D01*
X0063339Y0012986D02*
X0064073Y0012252D01*
X0064815Y0012619D02*
X0065182Y0012252D01*
X0065916Y0012252D01*
X0066283Y0012619D01*
X0066283Y0012986D01*
X0065916Y0013353D01*
X0065182Y0013353D01*
X0064815Y0013720D01*
X0064815Y0014087D01*
X0065182Y0014454D01*
X0065916Y0014454D01*
X0066283Y0014087D01*
X0067025Y0014454D02*
X0068492Y0014454D01*
X0067758Y0014454D02*
X0067758Y0012252D01*
X0070264Y0012065D02*
X0070264Y0014267D01*
X0071365Y0014267D01*
X0071732Y0013900D01*
X0071732Y0013166D01*
X0071365Y0012799D01*
X0070264Y0012799D01*
X0070998Y0012799D02*
X0071732Y0012065D01*
X0072474Y0012065D02*
X0073942Y0012065D01*
X0073208Y0012065D02*
X0073208Y0014267D01*
X0072474Y0013533D01*
X0074684Y0013900D02*
X0075051Y0014267D01*
X0075785Y0014267D01*
X0076152Y0013900D01*
X0076152Y0013533D01*
X0074684Y0012065D01*
X0076152Y0012065D01*
X0091735Y0025530D02*
X0091735Y0027732D01*
X0092836Y0027732D01*
X0093203Y0027365D01*
X0093203Y0026631D01*
X0092836Y0026264D01*
X0091735Y0026264D01*
X0092469Y0026264D02*
X0093203Y0025530D01*
X0093945Y0025897D02*
X0094312Y0025530D01*
X0095046Y0025530D01*
X0095413Y0025897D01*
X0095413Y0026264D01*
X0095046Y0026631D01*
X0094312Y0026631D01*
X0093945Y0026998D01*
X0093945Y0027365D01*
X0094312Y0027732D01*
X0095046Y0027732D01*
X0095413Y0027365D01*
X0095413Y0026998D01*
X0095046Y0026631D01*
X0094312Y0026631D02*
X0093945Y0026264D01*
X0093945Y0025897D01*
X0102956Y0023823D02*
X0102956Y0021621D01*
X0104057Y0021621D01*
X0104424Y0021988D01*
X0104424Y0022355D01*
X0104057Y0022722D01*
X0102956Y0022722D01*
X0102956Y0023823D02*
X0104057Y0023823D01*
X0104424Y0023456D01*
X0104424Y0023089D01*
X0104057Y0022722D01*
X0105166Y0022355D02*
X0106267Y0022355D01*
X0106634Y0022722D01*
X0106634Y0023456D01*
X0106267Y0023823D01*
X0105166Y0023823D01*
X0105166Y0021621D01*
X0105900Y0022355D02*
X0106634Y0021621D01*
X0106477Y0016823D02*
X0106844Y0016456D01*
X0106844Y0015722D01*
X0106477Y0015355D01*
X0105376Y0015355D01*
X0105376Y0014621D02*
X0105376Y0016823D01*
X0106477Y0016823D01*
X0106110Y0015355D02*
X0106844Y0014621D01*
X0104634Y0014621D02*
X0103533Y0015722D01*
X0103166Y0015355D02*
X0104634Y0016823D01*
X0103166Y0016823D02*
X0103166Y0014621D01*
X0102424Y0014988D02*
X0102057Y0014621D01*
X0100956Y0014621D01*
X0100956Y0016823D01*
X0102057Y0016823D01*
X0102424Y0016456D01*
X0102424Y0016089D01*
X0102057Y0015722D01*
X0100956Y0015722D01*
X0102057Y0015722D02*
X0102424Y0015355D01*
X0102424Y0014988D01*
X0101956Y0009823D02*
X0103057Y0009823D01*
X0103424Y0009456D01*
X0103424Y0009089D01*
X0103057Y0008722D01*
X0101956Y0008722D01*
X0101956Y0007621D02*
X0103057Y0007621D01*
X0103424Y0007988D01*
X0103424Y0008355D01*
X0103057Y0008722D01*
X0104166Y0008355D02*
X0105634Y0009823D01*
X0106376Y0009823D02*
X0106376Y0007621D01*
X0107844Y0007621D01*
X0105634Y0007621D02*
X0104533Y0008722D01*
X0104166Y0009823D02*
X0104166Y0007621D01*
X0101956Y0007621D02*
X0101956Y0009823D01*
X0103956Y0028621D02*
X0105057Y0028621D01*
X0105424Y0028988D01*
X0105424Y0029355D01*
X0105057Y0029722D01*
X0103956Y0029722D01*
X0103956Y0028621D02*
X0103956Y0030823D01*
X0105057Y0030823D01*
X0105424Y0030456D01*
X0105424Y0030089D01*
X0105057Y0029722D01*
X0106166Y0030823D02*
X0106166Y0028621D01*
X0107634Y0028621D01*
X0105956Y0037621D02*
X0105956Y0037988D01*
X0107424Y0039456D01*
X0107424Y0039823D01*
X0105956Y0039823D01*
X0106323Y0044621D02*
X0105956Y0044988D01*
X0105956Y0045355D01*
X0106323Y0045722D01*
X0107057Y0045722D01*
X0107424Y0045355D01*
X0107424Y0044988D01*
X0107057Y0044621D01*
X0106323Y0044621D01*
X0106323Y0045722D02*
X0105956Y0046089D01*
X0105956Y0046456D01*
X0106323Y0046823D01*
X0107057Y0046823D01*
X0107424Y0046456D01*
X0107424Y0046089D01*
X0107057Y0045722D01*
X0101634Y0048456D02*
X0100166Y0046988D01*
X0100166Y0046621D01*
X0099424Y0046621D02*
X0098690Y0047355D01*
X0099057Y0047355D02*
X0097956Y0047355D01*
X0097956Y0046621D02*
X0097956Y0048823D01*
X0099057Y0048823D01*
X0099424Y0048456D01*
X0099424Y0047722D01*
X0099057Y0047355D01*
X0100166Y0048823D02*
X0101634Y0048823D01*
X0101634Y0048456D01*
X0110956Y0052988D02*
X0111323Y0052621D01*
X0112057Y0052621D01*
X0112424Y0052988D01*
X0112424Y0053355D01*
X0112057Y0053722D01*
X0110956Y0053722D01*
X0110956Y0052988D01*
X0110956Y0053722D02*
X0111690Y0054456D01*
X0112424Y0054823D01*
X0106057Y0062621D02*
X0105323Y0062621D01*
X0104956Y0062988D01*
X0104956Y0063722D02*
X0105690Y0064089D01*
X0106057Y0064089D01*
X0106424Y0063722D01*
X0106424Y0062988D01*
X0106057Y0062621D01*
X0104956Y0063722D02*
X0104956Y0064823D01*
X0106424Y0064823D01*
X0104424Y0066988D02*
X0104057Y0066621D01*
X0103323Y0066621D01*
X0102956Y0066988D01*
X0103690Y0067722D02*
X0104057Y0067722D01*
X0104424Y0067355D01*
X0104424Y0066988D01*
X0104057Y0067722D02*
X0104424Y0068089D01*
X0104424Y0068456D01*
X0104057Y0068823D01*
X0103323Y0068823D01*
X0102956Y0068456D01*
X0106956Y0068722D02*
X0108424Y0068722D01*
X0108057Y0067621D02*
X0108057Y0069823D01*
X0106956Y0068722D01*
X0094424Y0071621D02*
X0092956Y0071621D01*
X0094424Y0073089D01*
X0094424Y0073456D01*
X0094057Y0073823D01*
X0093323Y0073823D01*
X0092956Y0073456D01*
X0083634Y0073722D02*
X0082533Y0073722D01*
X0082166Y0074089D01*
X0082166Y0074456D01*
X0082533Y0074823D01*
X0083267Y0074823D01*
X0083634Y0074456D01*
X0083634Y0072988D01*
X0083267Y0072621D01*
X0082533Y0072621D01*
X0082166Y0072988D01*
X0081424Y0072621D02*
X0080690Y0073355D01*
X0081057Y0073355D02*
X0079956Y0073355D01*
X0079956Y0072621D02*
X0079956Y0074823D01*
X0081057Y0074823D01*
X0081424Y0074456D01*
X0081424Y0073722D01*
X0081057Y0073355D01*
X0072381Y0073056D02*
X0072014Y0072689D01*
X0071280Y0072689D01*
X0070913Y0073056D01*
X0072381Y0074524D01*
X0072381Y0073056D01*
X0072203Y0072178D02*
X0072203Y0069976D01*
X0071469Y0069976D02*
X0072937Y0069976D01*
X0071469Y0071444D02*
X0072203Y0072178D01*
X0070913Y0073056D02*
X0070913Y0074524D01*
X0071280Y0074891D01*
X0072014Y0074891D01*
X0072381Y0074524D01*
X0070175Y0073056D02*
X0070175Y0072689D01*
X0069808Y0072689D01*
X0069808Y0073056D01*
X0070175Y0073056D01*
X0069066Y0072689D02*
X0067598Y0072689D01*
X0069066Y0074157D01*
X0069066Y0074524D01*
X0068699Y0074891D01*
X0067965Y0074891D01*
X0067598Y0074524D01*
X0066856Y0074891D02*
X0066856Y0073423D01*
X0066122Y0072689D01*
X0065388Y0073423D01*
X0065388Y0074891D01*
X0062436Y0074524D02*
X0062436Y0073790D01*
X0062070Y0073423D01*
X0060969Y0073423D01*
X0061703Y0073423D02*
X0062436Y0072689D01*
X0060969Y0072689D02*
X0060969Y0074891D01*
X0062070Y0074891D01*
X0062436Y0074524D01*
X0060227Y0074157D02*
X0060227Y0072689D01*
X0060227Y0073790D02*
X0058759Y0073790D01*
X0058759Y0074157D02*
X0059493Y0074891D01*
X0060227Y0074157D01*
X0058759Y0074157D02*
X0058759Y0072689D01*
X0058017Y0073056D02*
X0057650Y0072689D01*
X0056916Y0072689D01*
X0056549Y0073056D01*
X0056549Y0074524D01*
X0056916Y0074891D01*
X0057650Y0074891D01*
X0058017Y0074524D01*
X0055098Y0069267D02*
X0054364Y0069267D01*
X0053997Y0068900D01*
X0053997Y0067432D01*
X0054364Y0067065D01*
X0055098Y0067065D01*
X0055465Y0067432D01*
X0055465Y0068166D01*
X0054731Y0068166D01*
X0055465Y0068900D02*
X0055098Y0069267D01*
X0053257Y0069267D02*
X0052523Y0069267D01*
X0052890Y0069267D02*
X0052890Y0067065D01*
X0052523Y0067065D02*
X0053257Y0067065D01*
X0051781Y0067065D02*
X0050314Y0067065D01*
X0050314Y0069267D01*
X0050043Y0066591D02*
X0050777Y0066591D01*
X0051144Y0066224D01*
X0049676Y0064756D01*
X0050043Y0064389D01*
X0050777Y0064389D01*
X0051144Y0064756D01*
X0051144Y0066224D01*
X0050043Y0066591D02*
X0049676Y0066224D01*
X0049676Y0064756D01*
X0048934Y0064389D02*
X0047467Y0064389D01*
X0048200Y0064389D02*
X0048200Y0066591D01*
X0047467Y0065857D01*
X0046725Y0066224D02*
X0046725Y0065490D01*
X0046358Y0065123D01*
X0045257Y0065123D01*
X0045991Y0065123D02*
X0046725Y0064389D01*
X0045257Y0064389D02*
X0045257Y0066591D01*
X0046358Y0066591D01*
X0046725Y0066224D01*
X0043939Y0068871D02*
X0042471Y0068871D01*
X0043205Y0068871D02*
X0043205Y0071073D01*
X0042471Y0070339D01*
X0041729Y0068871D02*
X0040262Y0068871D01*
X0040995Y0068871D02*
X0040995Y0071073D01*
X0040262Y0070339D01*
X0039520Y0070706D02*
X0039520Y0069972D01*
X0039153Y0069605D01*
X0038052Y0069605D01*
X0038786Y0069605D02*
X0039520Y0068871D01*
X0038052Y0068871D02*
X0038052Y0071073D01*
X0039153Y0071073D01*
X0039520Y0070706D01*
X0031753Y0069027D02*
X0031386Y0069394D01*
X0030652Y0069394D01*
X0030285Y0069027D01*
X0030285Y0068660D01*
X0030652Y0068293D01*
X0031753Y0068293D01*
X0031753Y0067559D02*
X0031753Y0069027D01*
X0031753Y0067559D02*
X0031386Y0067192D01*
X0030652Y0067192D01*
X0030285Y0067559D01*
X0028893Y0065099D02*
X0027792Y0063998D01*
X0029260Y0063998D01*
X0028893Y0062897D02*
X0028893Y0065099D01*
X0026316Y0065099D02*
X0026316Y0062897D01*
X0025582Y0062897D02*
X0027050Y0062897D01*
X0025582Y0064365D02*
X0026316Y0065099D01*
X0024840Y0064732D02*
X0024840Y0063998D01*
X0024473Y0063631D01*
X0023372Y0063631D01*
X0023372Y0062897D02*
X0023372Y0065099D01*
X0024473Y0065099D01*
X0024840Y0064732D01*
X0024106Y0063631D02*
X0024840Y0062897D01*
X0024523Y0067727D02*
X0024523Y0069929D01*
X0023422Y0068828D01*
X0024890Y0068828D01*
X0022680Y0069562D02*
X0022313Y0069929D01*
X0021579Y0069929D01*
X0021212Y0069562D01*
X0021212Y0068094D01*
X0021579Y0067727D01*
X0022313Y0067727D01*
X0022680Y0068094D01*
X0011472Y0068585D02*
X0011105Y0068219D01*
X0010371Y0068219D01*
X0010004Y0068585D01*
X0009262Y0068585D02*
X0008895Y0068219D01*
X0008161Y0068219D01*
X0007794Y0068585D01*
X0007794Y0070053D01*
X0008161Y0070420D01*
X0008895Y0070420D01*
X0009262Y0070053D01*
X0010004Y0070053D02*
X0010371Y0070420D01*
X0011105Y0070420D01*
X0011472Y0070053D01*
X0011472Y0069686D01*
X0011105Y0069319D01*
X0011472Y0068952D01*
X0011472Y0068585D01*
X0011105Y0069319D02*
X0010738Y0069319D01*
X0010344Y0060524D02*
X0010711Y0060157D01*
X0010711Y0059423D01*
X0010344Y0059056D01*
X0009243Y0059056D01*
X0009977Y0059056D02*
X0010711Y0058322D01*
X0009243Y0058322D02*
X0009243Y0060524D01*
X0010344Y0060524D01*
X0008501Y0060157D02*
X0008134Y0060524D01*
X0007033Y0060524D01*
X0007033Y0058322D01*
X0008134Y0058322D01*
X0008501Y0058689D01*
X0008501Y0060157D01*
X0006291Y0058322D02*
X0004823Y0058322D01*
X0004823Y0060524D01*
X0005190Y0051246D02*
X0005924Y0051246D01*
X0006291Y0050879D01*
X0006291Y0050512D01*
X0005924Y0050145D01*
X0006291Y0049778D01*
X0006291Y0049411D01*
X0005924Y0049044D01*
X0005190Y0049044D01*
X0004823Y0049411D01*
X0005557Y0050145D02*
X0005924Y0050145D01*
X0004823Y0050879D02*
X0005190Y0051246D01*
X0007033Y0049411D02*
X0007400Y0049411D01*
X0007400Y0049044D01*
X0007033Y0049044D01*
X0007033Y0049411D01*
X0008138Y0049411D02*
X0008505Y0049044D01*
X0009239Y0049044D01*
X0009606Y0049411D01*
X0009606Y0049778D01*
X0009239Y0050145D01*
X0008872Y0050145D01*
X0009239Y0050145D02*
X0009606Y0050512D01*
X0009606Y0050879D01*
X0009239Y0051246D01*
X0008505Y0051246D01*
X0008138Y0050879D01*
X0010348Y0050512D02*
X0011082Y0049044D01*
X0011816Y0050512D01*
X0011495Y0049112D02*
X0011495Y0047277D01*
X0011862Y0046910D01*
X0012596Y0046910D01*
X0012963Y0047277D01*
X0012963Y0049112D01*
X0013705Y0048745D02*
X0014072Y0049112D01*
X0014806Y0049112D01*
X0015173Y0048745D01*
X0015173Y0048378D01*
X0014806Y0048011D01*
X0015173Y0047644D01*
X0015173Y0047277D01*
X0014806Y0046910D01*
X0014072Y0046910D01*
X0013705Y0047277D01*
X0014439Y0048011D02*
X0014806Y0048011D01*
X0020069Y0048188D02*
X0020069Y0050390D01*
X0021170Y0050390D01*
X0021537Y0050023D01*
X0021537Y0049289D01*
X0021170Y0048922D01*
X0020069Y0048922D01*
X0020803Y0048922D02*
X0021537Y0048188D01*
X0022279Y0048555D02*
X0022646Y0048188D01*
X0023380Y0048188D01*
X0023747Y0048555D01*
X0023747Y0048922D01*
X0023380Y0049289D01*
X0023013Y0049289D01*
X0023380Y0049289D02*
X0023747Y0049656D01*
X0023747Y0050023D01*
X0023380Y0050390D01*
X0022646Y0050390D01*
X0022279Y0050023D01*
X0039679Y0050754D02*
X0040780Y0050754D01*
X0041147Y0050387D01*
X0041147Y0049654D01*
X0040780Y0049287D01*
X0039679Y0049287D01*
X0040413Y0049287D02*
X0041147Y0048553D01*
X0041889Y0048920D02*
X0042256Y0048553D01*
X0042990Y0048553D01*
X0043357Y0048920D01*
X0043357Y0049654D01*
X0042990Y0050021D01*
X0042623Y0050021D01*
X0041889Y0049654D01*
X0041889Y0050754D01*
X0043357Y0050754D01*
X0039679Y0050754D02*
X0039679Y0048553D01*
X0044462Y0056416D02*
X0044462Y0058617D01*
X0045563Y0058617D01*
X0045930Y0058251D01*
X0045930Y0057517D01*
X0045563Y0057150D01*
X0044462Y0057150D01*
X0045196Y0057150D02*
X0045930Y0056416D01*
X0046671Y0057517D02*
X0047772Y0058617D01*
X0047772Y0056416D01*
X0048139Y0057517D02*
X0046671Y0057517D01*
X0035860Y0018891D02*
X0035126Y0018891D01*
X0034759Y0018524D01*
X0034017Y0018524D02*
X0034017Y0017790D01*
X0033650Y0017423D01*
X0032549Y0017423D01*
X0033283Y0017423D02*
X0034017Y0016689D01*
X0034759Y0016689D02*
X0036227Y0018157D01*
X0036227Y0018524D01*
X0035860Y0018891D01*
X0034017Y0018524D02*
X0033650Y0018891D01*
X0032549Y0018891D01*
X0032549Y0016689D01*
X0034759Y0016689D02*
X0036227Y0016689D01*
X0034493Y0008524D02*
X0034493Y0007056D01*
X0033759Y0007790D02*
X0035227Y0007790D01*
X0033017Y0008524D02*
X0032650Y0008891D01*
X0031549Y0008891D01*
X0031549Y0006689D01*
X0032650Y0006689D01*
X0033017Y0007056D01*
X0033017Y0008524D01*
X0049549Y0008891D02*
X0050650Y0008891D01*
X0051017Y0008524D01*
X0051017Y0007056D01*
X0050650Y0006689D01*
X0049549Y0006689D01*
X0049549Y0008891D01*
X0051759Y0007790D02*
X0053227Y0007790D01*
D11*
X0073121Y0007500D03*
X0038449Y0052589D03*
X0038449Y0058589D03*
X0038449Y0064589D03*
X0041449Y0073589D03*
X0022449Y0059589D03*
X0022449Y0052589D03*
D12*
X0022449Y0055711D02*
X0022449Y0063467D01*
X0018571Y0059589D02*
X0026327Y0059589D01*
X0022449Y0056467D02*
X0022449Y0048711D01*
X0018571Y0052589D02*
X0026327Y0052589D01*
X0034571Y0052589D02*
X0042327Y0052589D01*
X0038449Y0054711D02*
X0038449Y0062467D01*
X0038449Y0060711D02*
X0038449Y0068467D01*
X0041449Y0069711D02*
X0041449Y0077467D01*
X0037571Y0073589D02*
X0045327Y0073589D01*
X0047355Y0072589D02*
X0053543Y0072589D01*
X0050449Y0069495D02*
X0050449Y0075683D01*
X0042327Y0064589D02*
X0034571Y0064589D01*
X0031318Y0069672D02*
X0031318Y0075861D01*
X0028223Y0072766D02*
X0034412Y0072766D01*
X0025222Y0073589D02*
X0017676Y0073589D01*
X0013222Y0073589D02*
X0005676Y0073589D01*
X0009449Y0069816D02*
X0009449Y0077362D01*
X0021449Y0077362D02*
X0021449Y0069816D01*
X0010543Y0063589D02*
X0004355Y0063589D01*
X0007449Y0060495D02*
X0007449Y0066683D01*
X0007449Y0057683D02*
X0007449Y0051495D01*
X0004355Y0054589D02*
X0010543Y0054589D01*
X0025518Y0041942D02*
X0025518Y0034396D01*
X0021745Y0038169D02*
X0029290Y0038169D01*
X0035449Y0039589D02*
X0043449Y0039589D01*
X0039449Y0035589D02*
X0039449Y0043589D01*
X0038449Y0048711D02*
X0038449Y0056467D01*
X0034571Y0058589D02*
X0042327Y0058589D01*
X0067121Y0047500D02*
X0075121Y0047500D01*
X0071121Y0043500D02*
X0071121Y0051500D01*
X0083375Y0066881D02*
X0091375Y0066881D01*
X0087375Y0062881D02*
X0087375Y0070881D01*
X0094027Y0072500D02*
X0100215Y0072500D01*
X0101027Y0072500D02*
X0107215Y0072500D01*
X0108027Y0072500D02*
X0114215Y0072500D01*
X0111121Y0069406D02*
X0111121Y0075594D01*
X0104121Y0075594D02*
X0104121Y0069406D01*
X0108027Y0064500D02*
X0114215Y0064500D01*
X0111121Y0061406D02*
X0111121Y0067594D01*
X0111121Y0060594D02*
X0111121Y0054406D01*
X0108027Y0057500D02*
X0114215Y0057500D01*
X0111121Y0048594D02*
X0111121Y0042406D01*
X0111121Y0041594D02*
X0111121Y0035406D01*
X0111121Y0032594D02*
X0111121Y0026406D01*
X0111121Y0025594D02*
X0111121Y0019406D01*
X0111121Y0018594D02*
X0111121Y0012406D01*
X0111121Y0011594D02*
X0111121Y0005406D01*
X0108027Y0008500D02*
X0114215Y0008500D01*
X0114215Y0015500D02*
X0108027Y0015500D01*
X0108027Y0022500D02*
X0114215Y0022500D01*
X0114215Y0029500D02*
X0108027Y0029500D01*
X0103121Y0032500D02*
X0095121Y0032500D01*
X0099121Y0028500D02*
X0099121Y0036500D01*
X0108027Y0038500D02*
X0114215Y0038500D01*
X0114215Y0045500D02*
X0108027Y0045500D01*
X0099248Y0052500D02*
X0099248Y0060500D01*
X0095248Y0056500D02*
X0103248Y0056500D01*
X0097121Y0069406D02*
X0097121Y0075594D01*
X0078402Y0072628D02*
X0072214Y0072628D01*
X0075308Y0069534D02*
X0075308Y0075722D01*
X0016449Y0037589D02*
X0008449Y0037589D01*
X0012449Y0033589D02*
X0012449Y0041589D01*
X0007449Y0024683D02*
X0007449Y0018495D01*
X0007449Y0016683D02*
X0007449Y0010495D01*
X0004355Y0013589D02*
X0010543Y0013589D01*
X0010543Y0021589D02*
X0004355Y0021589D01*
X0019676Y0015589D02*
X0027222Y0015589D01*
X0023449Y0011816D02*
X0023449Y0019362D01*
X0034571Y0018589D02*
X0042327Y0018589D01*
X0041571Y0018589D02*
X0049327Y0018589D01*
X0045449Y0014711D02*
X0045449Y0022467D01*
X0038449Y0022467D02*
X0038449Y0014711D01*
X0038449Y0011683D02*
X0038449Y0005495D01*
X0035355Y0008589D02*
X0041543Y0008589D01*
X0042355Y0008589D02*
X0048543Y0008589D01*
X0052355Y0008589D02*
X0058543Y0008589D01*
X0060133Y0008288D02*
X0066321Y0008288D01*
X0069243Y0007500D02*
X0076999Y0007500D01*
X0073121Y0003622D02*
X0073121Y0011378D01*
X0063227Y0011383D02*
X0063227Y0005194D01*
X0055449Y0005495D02*
X0055449Y0011683D01*
X0045449Y0011683D02*
X0045449Y0005495D01*
X0083121Y0009500D02*
X0091121Y0009500D01*
X0087121Y0005500D02*
X0087121Y0013500D01*
D13*
X0027880Y0036988D02*
X0027880Y0039350D01*
X0023155Y0039350D02*
X0023155Y0036988D01*
X0022268Y0017951D02*
X0024630Y0017951D01*
X0024630Y0013227D02*
X0022268Y0013227D01*
X0022630Y0071227D02*
X0020268Y0071227D01*
X0020268Y0075951D02*
X0022630Y0075951D01*
X0010630Y0075951D02*
X0008268Y0075951D01*
X0008268Y0071227D02*
X0010630Y0071227D01*
D14*
X0038449Y0018589D03*
X0045449Y0018589D03*
D15*
X0045049Y0037898D02*
X0045049Y0041279D01*
X0040506Y0042779D02*
X0038392Y0042779D01*
X0033849Y0041279D02*
X0033849Y0037898D01*
X0018049Y0039279D02*
X0018049Y0035898D01*
X0013506Y0040779D02*
X0011392Y0040779D01*
X0006849Y0039279D02*
X0006849Y0035898D01*
X0053026Y0046108D02*
X0053026Y0048892D01*
X0065971Y0061837D02*
X0071121Y0066987D01*
X0076271Y0061837D01*
X0085458Y0052650D02*
X0090608Y0047500D01*
X0085458Y0042350D01*
X0076271Y0033163D02*
X0071121Y0028013D01*
X0070008Y0029126D01*
X0079755Y0012019D02*
X0079755Y0006901D01*
X0094518Y0006901D02*
X0094518Y0012019D01*
M02*
