G75*
%MOIN*%
%OFA0B0*%
%FSLAX25Y25*%
%IPPOS*%
%LPD*%
%AMOC8*
5,1,8,0,0,1.08239X$1,22.5*
%
%ADD10R,0.04731X0.04337*%
%ADD11R,0.06400X0.05400*%
%ADD12R,0.05400X0.06400*%
%ADD13R,0.03550X0.05124*%
%ADD14R,0.04337X0.04731*%
%ADD15R,0.02369X0.02959*%
%ADD16R,0.02565X0.05124*%
%ADD17C,0.02172*%
%ADD18R,0.13760X0.06040*%
%ADD19R,0.05124X0.03550*%
%ADD20R,0.03937X0.03937*%
%ADD21R,0.03550X0.01581*%
D10*
X0019102Y0052589D03*
X0025795Y0052589D03*
X0025795Y0059589D03*
X0019102Y0059589D03*
X0035102Y0058589D03*
X0041795Y0058589D03*
X0041795Y0064589D03*
X0035102Y0064589D03*
X0038102Y0073589D03*
X0044795Y0073589D03*
X0041795Y0052589D03*
X0035102Y0052589D03*
X0069775Y0007500D03*
X0076468Y0007500D03*
D11*
X0007449Y0013589D03*
X0007449Y0021589D03*
X0007449Y0054589D03*
X0007449Y0063589D03*
X0111121Y0064500D03*
X0111121Y0057500D03*
X0111121Y0045500D03*
X0111121Y0038500D03*
X0111121Y0029500D03*
X0111121Y0022500D03*
X0111121Y0015500D03*
X0111121Y0008500D03*
D12*
X0063227Y0008288D03*
X0055449Y0008589D03*
X0045449Y0008589D03*
X0038449Y0008589D03*
X0031318Y0072766D03*
X0050449Y0072589D03*
X0075308Y0072628D03*
X0097121Y0072500D03*
X0104121Y0072500D03*
X0111121Y0072500D03*
D13*
X0026992Y0015589D03*
X0019906Y0015589D03*
X0017906Y0073589D03*
X0012992Y0073589D03*
X0005906Y0073589D03*
X0024992Y0073589D03*
D14*
X0038449Y0021935D03*
X0038449Y0015242D03*
X0045449Y0015242D03*
X0045449Y0021935D03*
D15*
G36*
X0092158Y0031107D02*
X0093833Y0032782D01*
X0095924Y0030691D01*
X0094249Y0029016D01*
X0092158Y0031107D01*
G37*
G36*
X0094385Y0033334D02*
X0096060Y0035009D01*
X0098151Y0032918D01*
X0096476Y0031243D01*
X0094385Y0033334D01*
G37*
G36*
X0096612Y0035561D02*
X0098287Y0037236D01*
X0100378Y0035145D01*
X0098703Y0033470D01*
X0096612Y0035561D01*
G37*
G36*
X0098839Y0037789D02*
X0100514Y0039464D01*
X0102605Y0037373D01*
X0100930Y0035698D01*
X0098839Y0037789D01*
G37*
G36*
X0102319Y0034309D02*
X0103994Y0035984D01*
X0106085Y0033893D01*
X0104410Y0032218D01*
X0102319Y0034309D01*
G37*
G36*
X0100092Y0032082D02*
X0101767Y0033757D01*
X0103858Y0031666D01*
X0102183Y0029991D01*
X0100092Y0032082D01*
G37*
G36*
X0097865Y0029855D02*
X0099540Y0031530D01*
X0101631Y0029439D01*
X0099956Y0027764D01*
X0097865Y0029855D01*
G37*
G36*
X0095637Y0027627D02*
X0097312Y0029302D01*
X0099403Y0027211D01*
X0097728Y0025536D01*
X0095637Y0027627D01*
G37*
G36*
X0100641Y0049536D02*
X0098966Y0051211D01*
X0101057Y0053302D01*
X0102732Y0051627D01*
X0100641Y0049536D01*
G37*
G36*
X0098414Y0051764D02*
X0096739Y0053439D01*
X0098830Y0055530D01*
X0100505Y0053855D01*
X0098414Y0051764D01*
G37*
G36*
X0096187Y0053991D02*
X0094512Y0055666D01*
X0096603Y0057757D01*
X0098278Y0056082D01*
X0096187Y0053991D01*
G37*
G36*
X0093960Y0056218D02*
X0092285Y0057893D01*
X0094376Y0059984D01*
X0096051Y0058309D01*
X0093960Y0056218D01*
G37*
G36*
X0099667Y0057470D02*
X0097992Y0059145D01*
X0100083Y0061236D01*
X0101758Y0059561D01*
X0099667Y0057470D01*
G37*
G36*
X0101894Y0055243D02*
X0100219Y0056918D01*
X0102310Y0059009D01*
X0103985Y0057334D01*
X0101894Y0055243D01*
G37*
G36*
X0104121Y0053016D02*
X0102446Y0054691D01*
X0104537Y0056782D01*
X0106212Y0055107D01*
X0104121Y0053016D01*
G37*
G36*
X0097439Y0059698D02*
X0095764Y0061373D01*
X0097855Y0063464D01*
X0099530Y0061789D01*
X0097439Y0059698D01*
G37*
G36*
X0092248Y0063397D02*
X0090573Y0065072D01*
X0092664Y0067163D01*
X0094339Y0065488D01*
X0092248Y0063397D01*
G37*
G36*
X0088768Y0059918D02*
X0087093Y0061593D01*
X0089184Y0063684D01*
X0090859Y0062009D01*
X0088768Y0059918D01*
G37*
G36*
X0086541Y0062145D02*
X0084866Y0063820D01*
X0086957Y0065911D01*
X0088632Y0064236D01*
X0086541Y0062145D01*
G37*
G36*
X0084314Y0064372D02*
X0082639Y0066047D01*
X0084730Y0068138D01*
X0086405Y0066463D01*
X0084314Y0064372D01*
G37*
G36*
X0082087Y0066599D02*
X0080412Y0068274D01*
X0082503Y0070365D01*
X0084178Y0068690D01*
X0082087Y0066599D01*
G37*
G36*
X0087794Y0067852D02*
X0086119Y0069527D01*
X0088210Y0071618D01*
X0089885Y0069943D01*
X0087794Y0067852D01*
G37*
G36*
X0090021Y0065625D02*
X0088346Y0067300D01*
X0090437Y0069391D01*
X0092112Y0067716D01*
X0090021Y0065625D01*
G37*
G36*
X0085567Y0070079D02*
X0083892Y0071754D01*
X0085983Y0073845D01*
X0087658Y0072170D01*
X0085567Y0070079D01*
G37*
D16*
X0043189Y0044707D03*
X0035709Y0044707D03*
X0035709Y0034470D03*
X0039449Y0034470D03*
X0043189Y0034470D03*
X0016189Y0032470D03*
X0012449Y0032470D03*
X0008709Y0032470D03*
X0008709Y0042707D03*
X0016189Y0042707D03*
D17*
X0082397Y0012364D02*
X0082397Y0006636D01*
X0087121Y0006636D02*
X0087121Y0012364D01*
X0091846Y0012364D02*
X0091846Y0006636D01*
D18*
X0087131Y0009510D03*
D19*
X0025518Y0034626D03*
X0025518Y0041712D03*
D20*
G36*
X0073904Y0047500D02*
X0071121Y0044717D01*
X0068338Y0047500D01*
X0071121Y0050283D01*
X0073904Y0047500D01*
G37*
D21*
G36*
X0081282Y0041240D02*
X0083791Y0038731D01*
X0082674Y0037614D01*
X0080165Y0040123D01*
X0081282Y0041240D01*
G37*
G36*
X0082674Y0042632D02*
X0085183Y0040123D01*
X0084066Y0039006D01*
X0081557Y0041515D01*
X0082674Y0042632D01*
G37*
G36*
X0084066Y0044024D02*
X0086575Y0041515D01*
X0085458Y0040398D01*
X0082949Y0042907D01*
X0084066Y0044024D01*
G37*
G36*
X0085458Y0045416D02*
X0087967Y0042907D01*
X0086850Y0041790D01*
X0084341Y0044299D01*
X0085458Y0045416D01*
G37*
G36*
X0086850Y0046808D02*
X0089359Y0044299D01*
X0088242Y0043182D01*
X0085733Y0045691D01*
X0086850Y0046808D01*
G37*
G36*
X0089359Y0050701D02*
X0086850Y0048192D01*
X0085733Y0049309D01*
X0088242Y0051818D01*
X0089359Y0050701D01*
G37*
G36*
X0087967Y0052093D02*
X0085458Y0049584D01*
X0084341Y0050701D01*
X0086850Y0053210D01*
X0087967Y0052093D01*
G37*
G36*
X0086575Y0053485D02*
X0084066Y0050976D01*
X0082949Y0052093D01*
X0085458Y0054602D01*
X0086575Y0053485D01*
G37*
G36*
X0085183Y0054877D02*
X0082674Y0052368D01*
X0081557Y0053485D01*
X0084066Y0055994D01*
X0085183Y0054877D01*
G37*
G36*
X0083791Y0056269D02*
X0081282Y0053760D01*
X0080165Y0054877D01*
X0082674Y0057386D01*
X0083791Y0056269D01*
G37*
G36*
X0082399Y0057661D02*
X0079890Y0055152D01*
X0078773Y0056269D01*
X0081282Y0058778D01*
X0082399Y0057661D01*
G37*
G36*
X0077381Y0057661D02*
X0079890Y0060170D01*
X0081007Y0059053D01*
X0078498Y0056544D01*
X0077381Y0057661D01*
G37*
G36*
X0075989Y0059053D02*
X0078498Y0061562D01*
X0079615Y0060445D01*
X0077106Y0057936D01*
X0075989Y0059053D01*
G37*
G36*
X0074598Y0060445D02*
X0077107Y0062954D01*
X0078224Y0061837D01*
X0075715Y0059328D01*
X0074598Y0060445D01*
G37*
G36*
X0073206Y0061837D02*
X0075715Y0064346D01*
X0076832Y0063229D01*
X0074323Y0060720D01*
X0073206Y0061837D01*
G37*
G36*
X0071814Y0063229D02*
X0074323Y0065738D01*
X0075440Y0064621D01*
X0072931Y0062112D01*
X0071814Y0063229D01*
G37*
G36*
X0067920Y0065738D02*
X0070429Y0063229D01*
X0069312Y0062112D01*
X0066803Y0064621D01*
X0067920Y0065738D01*
G37*
G36*
X0066528Y0064346D02*
X0069037Y0061837D01*
X0067920Y0060720D01*
X0065411Y0063229D01*
X0066528Y0064346D01*
G37*
G36*
X0065136Y0062954D02*
X0067645Y0060445D01*
X0066528Y0059328D01*
X0064019Y0061837D01*
X0065136Y0062954D01*
G37*
G36*
X0063744Y0061562D02*
X0066253Y0059053D01*
X0065136Y0057936D01*
X0062627Y0060445D01*
X0063744Y0061562D01*
G37*
G36*
X0062352Y0060170D02*
X0064861Y0057661D01*
X0063744Y0056544D01*
X0061235Y0059053D01*
X0062352Y0060170D01*
G37*
G36*
X0060960Y0058778D02*
X0063469Y0056269D01*
X0062352Y0055152D01*
X0059843Y0057661D01*
X0060960Y0058778D01*
G37*
G36*
X0060960Y0053760D02*
X0058451Y0056269D01*
X0059568Y0057386D01*
X0062077Y0054877D01*
X0060960Y0053760D01*
G37*
G36*
X0059568Y0052368D02*
X0057059Y0054877D01*
X0058176Y0055994D01*
X0060685Y0053485D01*
X0059568Y0052368D01*
G37*
G36*
X0058176Y0050976D02*
X0055667Y0053485D01*
X0056784Y0054602D01*
X0059293Y0052093D01*
X0058176Y0050976D01*
G37*
G36*
X0056784Y0049584D02*
X0054275Y0052093D01*
X0055392Y0053210D01*
X0057901Y0050701D01*
X0056784Y0049584D01*
G37*
G36*
X0055392Y0048192D02*
X0052883Y0050701D01*
X0054000Y0051818D01*
X0056509Y0049309D01*
X0055392Y0048192D01*
G37*
G36*
X0052883Y0044299D02*
X0055392Y0046808D01*
X0056509Y0045691D01*
X0054000Y0043182D01*
X0052883Y0044299D01*
G37*
G36*
X0054275Y0042907D02*
X0056784Y0045416D01*
X0057901Y0044299D01*
X0055392Y0041790D01*
X0054275Y0042907D01*
G37*
G36*
X0055667Y0041515D02*
X0058176Y0044024D01*
X0059293Y0042907D01*
X0056784Y0040398D01*
X0055667Y0041515D01*
G37*
G36*
X0057059Y0040123D02*
X0059568Y0042632D01*
X0060685Y0041515D01*
X0058176Y0039006D01*
X0057059Y0040123D01*
G37*
G36*
X0058451Y0038731D02*
X0060960Y0041240D01*
X0062077Y0040123D01*
X0059568Y0037614D01*
X0058451Y0038731D01*
G37*
G36*
X0059843Y0037339D02*
X0062352Y0039848D01*
X0063469Y0038731D01*
X0060960Y0036222D01*
X0059843Y0037339D01*
G37*
G36*
X0064861Y0037339D02*
X0062352Y0034830D01*
X0061235Y0035947D01*
X0063744Y0038456D01*
X0064861Y0037339D01*
G37*
G36*
X0066253Y0035947D02*
X0063744Y0033438D01*
X0062627Y0034555D01*
X0065136Y0037064D01*
X0066253Y0035947D01*
G37*
G36*
X0067645Y0034555D02*
X0065136Y0032046D01*
X0064019Y0033163D01*
X0066528Y0035672D01*
X0067645Y0034555D01*
G37*
G36*
X0069037Y0033163D02*
X0066528Y0030654D01*
X0065411Y0031771D01*
X0067920Y0034280D01*
X0069037Y0033163D01*
G37*
G36*
X0070429Y0031771D02*
X0067920Y0029262D01*
X0066803Y0030379D01*
X0069312Y0032888D01*
X0070429Y0031771D01*
G37*
G36*
X0074323Y0029262D02*
X0071814Y0031771D01*
X0072931Y0032888D01*
X0075440Y0030379D01*
X0074323Y0029262D01*
G37*
G36*
X0075715Y0030654D02*
X0073206Y0033163D01*
X0074323Y0034280D01*
X0076832Y0031771D01*
X0075715Y0030654D01*
G37*
G36*
X0077107Y0032046D02*
X0074598Y0034555D01*
X0075715Y0035672D01*
X0078224Y0033163D01*
X0077107Y0032046D01*
G37*
G36*
X0078498Y0033438D02*
X0075989Y0035947D01*
X0077106Y0037064D01*
X0079615Y0034555D01*
X0078498Y0033438D01*
G37*
G36*
X0079890Y0034830D02*
X0077381Y0037339D01*
X0078498Y0038456D01*
X0081007Y0035947D01*
X0079890Y0034830D01*
G37*
G36*
X0081282Y0036222D02*
X0078773Y0038731D01*
X0079890Y0039848D01*
X0082399Y0037339D01*
X0081282Y0036222D01*
G37*
M02*
