G75*
%MOIN*%
%OFA0B0*%
%FSLAX25Y25*%
%IPPOS*%
%LPD*%
%AMOC8*
5,1,8,0,0,1.08239X$1,22.5*
%
%ADD10C,0.00600*%
%ADD11C,0.01600*%
%ADD12C,0.00000*%
%ADD13C,0.00800*%
%ADD14R,0.02000X0.02000*%
D10*
X0014800Y0025300D02*
X0038800Y0025300D01*
X0029300Y0028800D02*
X0029300Y0031800D01*
X0031800Y0031800D01*
X0029300Y0031800D02*
X0029300Y0034800D01*
X0027800Y0034800D02*
X0027800Y0028800D01*
X0025800Y0028800D01*
X0025800Y0034800D01*
X0027800Y0034800D01*
X0024300Y0034800D02*
X0024300Y0031800D01*
X0021800Y0031800D01*
X0024300Y0031800D02*
X0024300Y0028800D01*
X0014800Y0025300D02*
X0014640Y0025302D01*
X0014481Y0025308D01*
X0014322Y0025318D01*
X0014163Y0025331D01*
X0014004Y0025349D01*
X0013846Y0025370D01*
X0013689Y0025396D01*
X0013532Y0025425D01*
X0013376Y0025458D01*
X0013221Y0025495D01*
X0013066Y0025535D01*
X0012913Y0025580D01*
X0012761Y0025628D01*
X0012610Y0025680D01*
X0012461Y0025736D01*
X0012313Y0025795D01*
X0012166Y0025858D01*
X0012021Y0025924D01*
X0011878Y0025994D01*
X0011736Y0026068D01*
X0011596Y0026144D01*
X0011458Y0026225D01*
X0011323Y0026308D01*
X0011189Y0026395D01*
X0011057Y0026486D01*
X0010928Y0026579D01*
X0010801Y0026676D01*
X0010676Y0026775D01*
X0010554Y0026878D01*
X0010435Y0026984D01*
X0010318Y0027092D01*
X0010204Y0027204D01*
X0010092Y0027318D01*
X0009984Y0027435D01*
X0009878Y0027554D01*
X0009775Y0027676D01*
X0009676Y0027801D01*
X0009579Y0027928D01*
X0009486Y0028057D01*
X0009395Y0028189D01*
X0009308Y0028323D01*
X0009225Y0028458D01*
X0009144Y0028596D01*
X0009068Y0028736D01*
X0008994Y0028878D01*
X0008924Y0029021D01*
X0008858Y0029166D01*
X0008795Y0029313D01*
X0008736Y0029461D01*
X0008680Y0029610D01*
X0008628Y0029761D01*
X0008580Y0029913D01*
X0008535Y0030066D01*
X0008495Y0030221D01*
X0008458Y0030376D01*
X0008425Y0030532D01*
X0008396Y0030689D01*
X0008370Y0030846D01*
X0008349Y0031004D01*
X0008331Y0031163D01*
X0008318Y0031322D01*
X0008308Y0031481D01*
X0008302Y0031640D01*
X0008300Y0031800D01*
X0008302Y0031960D01*
X0008308Y0032119D01*
X0008318Y0032278D01*
X0008331Y0032437D01*
X0008349Y0032596D01*
X0008370Y0032754D01*
X0008396Y0032911D01*
X0008425Y0033068D01*
X0008458Y0033224D01*
X0008495Y0033379D01*
X0008535Y0033534D01*
X0008580Y0033687D01*
X0008628Y0033839D01*
X0008680Y0033990D01*
X0008736Y0034139D01*
X0008795Y0034287D01*
X0008858Y0034434D01*
X0008924Y0034579D01*
X0008994Y0034722D01*
X0009068Y0034864D01*
X0009144Y0035004D01*
X0009225Y0035142D01*
X0009308Y0035277D01*
X0009395Y0035411D01*
X0009486Y0035543D01*
X0009579Y0035672D01*
X0009676Y0035799D01*
X0009775Y0035924D01*
X0009878Y0036046D01*
X0009984Y0036165D01*
X0010092Y0036282D01*
X0010204Y0036396D01*
X0010318Y0036508D01*
X0010435Y0036616D01*
X0010554Y0036722D01*
X0010676Y0036825D01*
X0010801Y0036924D01*
X0010928Y0037021D01*
X0011057Y0037114D01*
X0011189Y0037205D01*
X0011323Y0037292D01*
X0011458Y0037375D01*
X0011596Y0037456D01*
X0011736Y0037532D01*
X0011878Y0037606D01*
X0012021Y0037676D01*
X0012166Y0037742D01*
X0012313Y0037805D01*
X0012461Y0037864D01*
X0012610Y0037920D01*
X0012761Y0037972D01*
X0012913Y0038020D01*
X0013066Y0038065D01*
X0013221Y0038105D01*
X0013376Y0038142D01*
X0013532Y0038175D01*
X0013689Y0038204D01*
X0013846Y0038230D01*
X0014004Y0038251D01*
X0014163Y0038269D01*
X0014322Y0038282D01*
X0014481Y0038292D01*
X0014640Y0038298D01*
X0014800Y0038300D01*
X0038800Y0038300D01*
X0038960Y0038298D01*
X0039119Y0038292D01*
X0039278Y0038282D01*
X0039437Y0038269D01*
X0039596Y0038251D01*
X0039754Y0038230D01*
X0039911Y0038204D01*
X0040068Y0038175D01*
X0040224Y0038142D01*
X0040379Y0038105D01*
X0040534Y0038065D01*
X0040687Y0038020D01*
X0040839Y0037972D01*
X0040990Y0037920D01*
X0041139Y0037864D01*
X0041287Y0037805D01*
X0041434Y0037742D01*
X0041579Y0037676D01*
X0041722Y0037606D01*
X0041864Y0037532D01*
X0042004Y0037456D01*
X0042142Y0037375D01*
X0042277Y0037292D01*
X0042411Y0037205D01*
X0042543Y0037114D01*
X0042672Y0037021D01*
X0042799Y0036924D01*
X0042924Y0036825D01*
X0043046Y0036722D01*
X0043165Y0036616D01*
X0043282Y0036508D01*
X0043396Y0036396D01*
X0043508Y0036282D01*
X0043616Y0036165D01*
X0043722Y0036046D01*
X0043825Y0035924D01*
X0043924Y0035799D01*
X0044021Y0035672D01*
X0044114Y0035543D01*
X0044205Y0035411D01*
X0044292Y0035277D01*
X0044375Y0035142D01*
X0044456Y0035004D01*
X0044532Y0034864D01*
X0044606Y0034722D01*
X0044676Y0034579D01*
X0044742Y0034434D01*
X0044805Y0034287D01*
X0044864Y0034139D01*
X0044920Y0033990D01*
X0044972Y0033839D01*
X0045020Y0033687D01*
X0045065Y0033534D01*
X0045105Y0033379D01*
X0045142Y0033224D01*
X0045175Y0033068D01*
X0045204Y0032911D01*
X0045230Y0032754D01*
X0045251Y0032596D01*
X0045269Y0032437D01*
X0045282Y0032278D01*
X0045292Y0032119D01*
X0045298Y0031960D01*
X0045300Y0031800D01*
X0045298Y0031640D01*
X0045292Y0031481D01*
X0045282Y0031322D01*
X0045269Y0031163D01*
X0045251Y0031004D01*
X0045230Y0030846D01*
X0045204Y0030689D01*
X0045175Y0030532D01*
X0045142Y0030376D01*
X0045105Y0030221D01*
X0045065Y0030066D01*
X0045020Y0029913D01*
X0044972Y0029761D01*
X0044920Y0029610D01*
X0044864Y0029461D01*
X0044805Y0029313D01*
X0044742Y0029166D01*
X0044676Y0029021D01*
X0044606Y0028878D01*
X0044532Y0028736D01*
X0044456Y0028596D01*
X0044375Y0028458D01*
X0044292Y0028323D01*
X0044205Y0028189D01*
X0044114Y0028057D01*
X0044021Y0027928D01*
X0043924Y0027801D01*
X0043825Y0027676D01*
X0043722Y0027554D01*
X0043616Y0027435D01*
X0043508Y0027318D01*
X0043396Y0027204D01*
X0043282Y0027092D01*
X0043165Y0026984D01*
X0043046Y0026878D01*
X0042924Y0026775D01*
X0042799Y0026676D01*
X0042672Y0026579D01*
X0042543Y0026486D01*
X0042411Y0026395D01*
X0042277Y0026308D01*
X0042142Y0026225D01*
X0042004Y0026144D01*
X0041864Y0026068D01*
X0041722Y0025994D01*
X0041579Y0025924D01*
X0041434Y0025858D01*
X0041287Y0025795D01*
X0041139Y0025736D01*
X0040990Y0025680D01*
X0040839Y0025628D01*
X0040687Y0025580D01*
X0040534Y0025535D01*
X0040379Y0025495D01*
X0040224Y0025458D01*
X0040068Y0025425D01*
X0039911Y0025396D01*
X0039754Y0025370D01*
X0039596Y0025349D01*
X0039437Y0025331D01*
X0039278Y0025318D01*
X0039119Y0025308D01*
X0038960Y0025302D01*
X0038800Y0025300D01*
X0062100Y0017438D02*
X0062100Y0013168D01*
X0063168Y0012100D01*
X0065303Y0012100D01*
X0066370Y0013168D01*
X0066370Y0015303D01*
X0064235Y0015303D01*
X0062100Y0017438D02*
X0063168Y0018505D01*
X0065303Y0018505D01*
X0066370Y0017438D01*
X0068545Y0018505D02*
X0072816Y0012100D01*
X0072816Y0018505D01*
X0074991Y0018505D02*
X0078194Y0018505D01*
X0079261Y0017438D01*
X0079261Y0013168D01*
X0078194Y0012100D01*
X0074991Y0012100D01*
X0074991Y0018505D01*
X0068545Y0018505D02*
X0068545Y0012100D01*
X0068168Y0024600D02*
X0067100Y0025668D01*
X0068168Y0024600D02*
X0070303Y0024600D01*
X0071370Y0025668D01*
X0071370Y0026735D01*
X0070303Y0027803D01*
X0068168Y0027803D01*
X0067100Y0028870D01*
X0067100Y0029938D01*
X0068168Y0031005D01*
X0070303Y0031005D01*
X0071370Y0029938D01*
X0073545Y0029938D02*
X0073545Y0025668D01*
X0074613Y0024600D01*
X0076748Y0024600D01*
X0077816Y0025668D01*
X0077816Y0029938D01*
X0076748Y0031005D01*
X0074613Y0031005D01*
X0073545Y0029938D01*
X0086800Y0029300D02*
X0089300Y0031800D01*
X0094300Y0031800D01*
X0096800Y0029300D01*
X0096800Y0014300D01*
X0099300Y0011800D01*
X0104300Y0011800D01*
X0106800Y0014300D01*
X0106800Y0029300D01*
X0109300Y0031800D01*
X0114300Y0031800D01*
X0116800Y0029300D01*
X0116800Y0014300D01*
X0119300Y0011800D01*
X0124300Y0011800D01*
X0126800Y0014300D01*
X0129300Y0011800D01*
X0134300Y0011800D01*
X0136800Y0014300D01*
X0136800Y0029300D01*
X0134300Y0031800D01*
X0129300Y0031800D01*
X0126800Y0029300D01*
X0126800Y0014300D01*
X0116800Y0014300D02*
X0114300Y0011800D01*
X0109300Y0011800D01*
X0106800Y0014300D01*
X0096800Y0014300D02*
X0094300Y0011800D01*
X0089300Y0011800D01*
X0086800Y0014300D01*
X0086800Y0029300D01*
X0096800Y0029300D02*
X0099300Y0031800D01*
X0104300Y0031800D01*
X0106800Y0029300D01*
X0105432Y0034600D02*
X0106500Y0035668D01*
X0106500Y0037803D01*
X0105432Y0038870D01*
X0104365Y0038870D01*
X0103297Y0037803D01*
X0103297Y0035668D01*
X0102230Y0034600D01*
X0101162Y0034600D01*
X0100095Y0035668D01*
X0100095Y0037803D01*
X0101162Y0038870D01*
X0101162Y0041045D02*
X0105432Y0041045D01*
X0106500Y0042113D01*
X0106500Y0044248D01*
X0105432Y0045316D01*
X0104365Y0047491D02*
X0100095Y0051761D01*
X0103297Y0048559D02*
X0106500Y0051761D01*
X0110095Y0051761D02*
X0110095Y0047491D01*
X0110095Y0049626D02*
X0116500Y0049626D01*
X0115432Y0045316D02*
X0114365Y0045316D01*
X0113297Y0044248D01*
X0113297Y0042113D01*
X0112230Y0041045D01*
X0111162Y0041045D01*
X0110095Y0042113D01*
X0110095Y0044248D01*
X0111162Y0045316D01*
X0115432Y0045316D02*
X0116500Y0044248D01*
X0116500Y0042113D01*
X0115432Y0041045D01*
X0116500Y0038870D02*
X0114365Y0036735D01*
X0114365Y0037803D02*
X0114365Y0034600D01*
X0116500Y0034600D02*
X0110095Y0034600D01*
X0110095Y0037803D01*
X0111162Y0038870D01*
X0113297Y0038870D01*
X0114365Y0037803D01*
X0119300Y0031800D02*
X0116800Y0029300D01*
X0119300Y0031800D02*
X0124300Y0031800D01*
X0126800Y0029300D01*
X0142100Y0028870D02*
X0143168Y0027803D01*
X0145303Y0027803D01*
X0146370Y0026735D01*
X0146370Y0025668D01*
X0145303Y0024600D01*
X0143168Y0024600D01*
X0142100Y0025668D01*
X0142100Y0028870D02*
X0142100Y0029938D01*
X0143168Y0031005D01*
X0145303Y0031005D01*
X0146370Y0029938D01*
X0148545Y0031005D02*
X0150681Y0031005D01*
X0149613Y0031005D02*
X0149613Y0024600D01*
X0148545Y0024600D02*
X0150681Y0024600D01*
X0151748Y0018505D02*
X0149613Y0018505D01*
X0148545Y0017438D01*
X0148545Y0013168D01*
X0149613Y0012100D01*
X0151748Y0012100D01*
X0152816Y0013168D01*
X0154991Y0013168D02*
X0156059Y0012100D01*
X0158194Y0012100D01*
X0159261Y0013168D01*
X0159261Y0017438D02*
X0158194Y0018505D01*
X0156059Y0018505D01*
X0154991Y0017438D01*
X0154991Y0013168D01*
X0152816Y0017438D02*
X0151748Y0018505D01*
X0146370Y0018505D02*
X0146370Y0014235D01*
X0144235Y0012100D01*
X0142100Y0014235D01*
X0142100Y0018505D01*
X0174800Y0021800D02*
X0177800Y0021800D01*
X0176300Y0020300D02*
X0176300Y0023300D01*
X0173300Y0021800D02*
X0173304Y0022131D01*
X0173316Y0022462D01*
X0173337Y0022793D01*
X0173365Y0023123D01*
X0173402Y0023453D01*
X0173446Y0023781D01*
X0173499Y0024108D01*
X0173559Y0024434D01*
X0173628Y0024758D01*
X0173705Y0025080D01*
X0173789Y0025401D01*
X0173881Y0025719D01*
X0173981Y0026035D01*
X0174089Y0026348D01*
X0174205Y0026659D01*
X0174328Y0026966D01*
X0174458Y0027271D01*
X0174596Y0027572D01*
X0174741Y0027870D01*
X0174894Y0028164D01*
X0175054Y0028454D01*
X0175221Y0028740D01*
X0175394Y0029022D01*
X0175575Y0029300D01*
X0175763Y0029573D01*
X0175957Y0029842D01*
X0176157Y0030106D01*
X0176364Y0030364D01*
X0176578Y0030618D01*
X0176797Y0030866D01*
X0177023Y0031109D01*
X0177254Y0031346D01*
X0177491Y0031577D01*
X0177734Y0031803D01*
X0177982Y0032022D01*
X0178236Y0032236D01*
X0178494Y0032443D01*
X0178758Y0032643D01*
X0179027Y0032837D01*
X0179300Y0033025D01*
X0179578Y0033206D01*
X0179860Y0033379D01*
X0180146Y0033546D01*
X0180436Y0033706D01*
X0180730Y0033859D01*
X0181028Y0034004D01*
X0181329Y0034142D01*
X0181634Y0034272D01*
X0181941Y0034395D01*
X0182252Y0034511D01*
X0182565Y0034619D01*
X0182881Y0034719D01*
X0183199Y0034811D01*
X0183520Y0034895D01*
X0183842Y0034972D01*
X0184166Y0035041D01*
X0184492Y0035101D01*
X0184819Y0035154D01*
X0185147Y0035198D01*
X0185477Y0035235D01*
X0185807Y0035263D01*
X0186138Y0035284D01*
X0186469Y0035296D01*
X0186800Y0035300D01*
X0187131Y0035296D01*
X0187462Y0035284D01*
X0187793Y0035263D01*
X0188123Y0035235D01*
X0188453Y0035198D01*
X0188781Y0035154D01*
X0189108Y0035101D01*
X0189434Y0035041D01*
X0189758Y0034972D01*
X0190080Y0034895D01*
X0190401Y0034811D01*
X0190719Y0034719D01*
X0191035Y0034619D01*
X0191348Y0034511D01*
X0191659Y0034395D01*
X0191966Y0034272D01*
X0192271Y0034142D01*
X0192572Y0034004D01*
X0192870Y0033859D01*
X0193164Y0033706D01*
X0193454Y0033546D01*
X0193740Y0033379D01*
X0194022Y0033206D01*
X0194300Y0033025D01*
X0194573Y0032837D01*
X0194842Y0032643D01*
X0195106Y0032443D01*
X0195364Y0032236D01*
X0195618Y0032022D01*
X0195866Y0031803D01*
X0196109Y0031577D01*
X0196346Y0031346D01*
X0196577Y0031109D01*
X0196803Y0030866D01*
X0197022Y0030618D01*
X0197236Y0030364D01*
X0197443Y0030106D01*
X0197643Y0029842D01*
X0197837Y0029573D01*
X0198025Y0029300D01*
X0198206Y0029022D01*
X0198379Y0028740D01*
X0198546Y0028454D01*
X0198706Y0028164D01*
X0198859Y0027870D01*
X0199004Y0027572D01*
X0199142Y0027271D01*
X0199272Y0026966D01*
X0199395Y0026659D01*
X0199511Y0026348D01*
X0199619Y0026035D01*
X0199719Y0025719D01*
X0199811Y0025401D01*
X0199895Y0025080D01*
X0199972Y0024758D01*
X0200041Y0024434D01*
X0200101Y0024108D01*
X0200154Y0023781D01*
X0200198Y0023453D01*
X0200235Y0023123D01*
X0200263Y0022793D01*
X0200284Y0022462D01*
X0200296Y0022131D01*
X0200300Y0021800D01*
X0200296Y0021469D01*
X0200284Y0021138D01*
X0200263Y0020807D01*
X0200235Y0020477D01*
X0200198Y0020147D01*
X0200154Y0019819D01*
X0200101Y0019492D01*
X0200041Y0019166D01*
X0199972Y0018842D01*
X0199895Y0018520D01*
X0199811Y0018199D01*
X0199719Y0017881D01*
X0199619Y0017565D01*
X0199511Y0017252D01*
X0199395Y0016941D01*
X0199272Y0016634D01*
X0199142Y0016329D01*
X0199004Y0016028D01*
X0198859Y0015730D01*
X0198706Y0015436D01*
X0198546Y0015146D01*
X0198379Y0014860D01*
X0198206Y0014578D01*
X0198025Y0014300D01*
X0197837Y0014027D01*
X0197643Y0013758D01*
X0197443Y0013494D01*
X0197236Y0013236D01*
X0197022Y0012982D01*
X0196803Y0012734D01*
X0196577Y0012491D01*
X0196346Y0012254D01*
X0196109Y0012023D01*
X0195866Y0011797D01*
X0195618Y0011578D01*
X0195364Y0011364D01*
X0195106Y0011157D01*
X0194842Y0010957D01*
X0194573Y0010763D01*
X0194300Y0010575D01*
X0194022Y0010394D01*
X0193740Y0010221D01*
X0193454Y0010054D01*
X0193164Y0009894D01*
X0192870Y0009741D01*
X0192572Y0009596D01*
X0192271Y0009458D01*
X0191966Y0009328D01*
X0191659Y0009205D01*
X0191348Y0009089D01*
X0191035Y0008981D01*
X0190719Y0008881D01*
X0190401Y0008789D01*
X0190080Y0008705D01*
X0189758Y0008628D01*
X0189434Y0008559D01*
X0189108Y0008499D01*
X0188781Y0008446D01*
X0188453Y0008402D01*
X0188123Y0008365D01*
X0187793Y0008337D01*
X0187462Y0008316D01*
X0187131Y0008304D01*
X0186800Y0008300D01*
X0186469Y0008304D01*
X0186138Y0008316D01*
X0185807Y0008337D01*
X0185477Y0008365D01*
X0185147Y0008402D01*
X0184819Y0008446D01*
X0184492Y0008499D01*
X0184166Y0008559D01*
X0183842Y0008628D01*
X0183520Y0008705D01*
X0183199Y0008789D01*
X0182881Y0008881D01*
X0182565Y0008981D01*
X0182252Y0009089D01*
X0181941Y0009205D01*
X0181634Y0009328D01*
X0181329Y0009458D01*
X0181028Y0009596D01*
X0180730Y0009741D01*
X0180436Y0009894D01*
X0180146Y0010054D01*
X0179860Y0010221D01*
X0179578Y0010394D01*
X0179300Y0010575D01*
X0179027Y0010763D01*
X0178758Y0010957D01*
X0178494Y0011157D01*
X0178236Y0011364D01*
X0177982Y0011578D01*
X0177734Y0011797D01*
X0177491Y0012023D01*
X0177254Y0012254D01*
X0177023Y0012491D01*
X0176797Y0012734D01*
X0176578Y0012982D01*
X0176364Y0013236D01*
X0176157Y0013494D01*
X0175957Y0013758D01*
X0175763Y0014027D01*
X0175575Y0014300D01*
X0175394Y0014578D01*
X0175221Y0014860D01*
X0175054Y0015146D01*
X0174894Y0015436D01*
X0174741Y0015730D01*
X0174596Y0016028D01*
X0174458Y0016329D01*
X0174328Y0016634D01*
X0174205Y0016941D01*
X0174089Y0017252D01*
X0173981Y0017565D01*
X0173881Y0017881D01*
X0173789Y0018199D01*
X0173705Y0018520D01*
X0173628Y0018842D01*
X0173559Y0019166D01*
X0173499Y0019492D01*
X0173446Y0019819D01*
X0173402Y0020147D01*
X0173365Y0020477D01*
X0173337Y0020807D01*
X0173316Y0021138D01*
X0173304Y0021469D01*
X0173300Y0021800D01*
X0174300Y0046800D02*
X0169300Y0046800D01*
X0166800Y0049300D01*
X0166800Y0054300D01*
X0169300Y0056800D01*
X0166800Y0059300D01*
X0166800Y0064300D01*
X0169300Y0066800D01*
X0166800Y0069300D01*
X0166800Y0074300D01*
X0169300Y0076800D01*
X0166800Y0079300D01*
X0166800Y0084300D01*
X0169300Y0086800D01*
X0166800Y0089300D01*
X0166800Y0094300D01*
X0169300Y0096800D01*
X0166800Y0099300D01*
X0166800Y0104300D01*
X0169300Y0106800D01*
X0166800Y0109300D01*
X0166800Y0114300D01*
X0169300Y0116800D01*
X0166800Y0119300D01*
X0166800Y0124300D01*
X0169300Y0126800D01*
X0166800Y0129300D01*
X0166800Y0134300D01*
X0169300Y0136800D01*
X0166800Y0139300D01*
X0166800Y0144300D01*
X0169300Y0146800D01*
X0166800Y0149300D01*
X0166800Y0154300D01*
X0169300Y0156800D01*
X0166800Y0159300D01*
X0166800Y0164300D01*
X0169300Y0166800D01*
X0166800Y0169300D01*
X0166800Y0174300D01*
X0169300Y0176800D01*
X0166800Y0179300D01*
X0166800Y0184300D01*
X0169300Y0186800D01*
X0166800Y0189300D01*
X0166800Y0194300D01*
X0169300Y0196800D01*
X0166800Y0199300D01*
X0166800Y0204300D01*
X0169300Y0206800D01*
X0174300Y0206800D01*
X0176800Y0204300D01*
X0176800Y0199300D01*
X0174300Y0196800D01*
X0176800Y0194300D01*
X0176800Y0189300D01*
X0174300Y0186800D01*
X0169300Y0186800D01*
X0174300Y0186800D02*
X0176800Y0184300D01*
X0176800Y0179300D01*
X0174300Y0176800D01*
X0176800Y0174300D01*
X0176800Y0169300D01*
X0174300Y0166800D01*
X0176800Y0164300D01*
X0176800Y0159300D01*
X0174300Y0156800D01*
X0169300Y0156800D01*
X0174300Y0156800D02*
X0176800Y0154300D01*
X0176800Y0149300D01*
X0174300Y0146800D01*
X0176800Y0144300D01*
X0176800Y0139300D01*
X0174300Y0136800D01*
X0176800Y0134300D01*
X0176800Y0129300D01*
X0174300Y0126800D01*
X0169300Y0126800D01*
X0174300Y0126800D02*
X0176800Y0124300D01*
X0176800Y0119300D01*
X0174300Y0116800D01*
X0176800Y0114300D01*
X0176800Y0109300D01*
X0174300Y0106800D01*
X0176800Y0104300D01*
X0176800Y0099300D01*
X0174300Y0096800D01*
X0169300Y0096800D01*
X0174300Y0096800D02*
X0176800Y0094300D01*
X0176800Y0089300D01*
X0174300Y0086800D01*
X0176800Y0084300D01*
X0176800Y0079300D01*
X0174300Y0076800D01*
X0176800Y0074300D01*
X0176800Y0069300D01*
X0174300Y0066800D01*
X0169300Y0066800D01*
X0174300Y0066800D02*
X0176800Y0064300D01*
X0176800Y0059300D01*
X0174300Y0056800D01*
X0176800Y0054300D01*
X0176800Y0049300D01*
X0174300Y0046800D01*
X0174300Y0056800D02*
X0169300Y0056800D01*
X0169300Y0076800D02*
X0174300Y0076800D01*
X0174300Y0086800D02*
X0169300Y0086800D01*
X0169300Y0106800D02*
X0174300Y0106800D01*
X0174300Y0116800D02*
X0169300Y0116800D01*
X0169300Y0136800D02*
X0174300Y0136800D01*
X0174300Y0146800D02*
X0169300Y0146800D01*
X0169300Y0166800D02*
X0174300Y0166800D01*
X0174300Y0176800D02*
X0169300Y0176800D01*
X0169300Y0196800D02*
X0174300Y0196800D01*
X0206800Y0194300D02*
X0206800Y0189300D01*
X0209300Y0186800D01*
X0214300Y0186800D01*
X0216800Y0189300D01*
X0216800Y0194300D01*
X0214300Y0196800D01*
X0209300Y0196800D01*
X0206800Y0194300D01*
X0209300Y0196800D02*
X0206800Y0199300D01*
X0206800Y0204300D01*
X0209300Y0206800D01*
X0214300Y0206800D01*
X0216800Y0204300D01*
X0216800Y0199300D01*
X0214300Y0196800D01*
X0214300Y0186800D02*
X0216800Y0184300D01*
X0216800Y0179300D01*
X0214300Y0176800D01*
X0216800Y0174300D01*
X0216800Y0169300D01*
X0214300Y0166800D01*
X0216800Y0164300D01*
X0216800Y0159300D01*
X0214300Y0156800D01*
X0209300Y0156800D01*
X0206800Y0159300D01*
X0206800Y0164300D01*
X0209300Y0166800D01*
X0206800Y0169300D01*
X0206800Y0174300D01*
X0209300Y0176800D01*
X0206800Y0179300D01*
X0206800Y0184300D01*
X0209300Y0186800D01*
X0209300Y0176800D02*
X0214300Y0176800D01*
X0214300Y0166800D02*
X0209300Y0166800D01*
X0209300Y0156800D02*
X0206800Y0154300D01*
X0206800Y0149300D01*
X0209300Y0146800D01*
X0206800Y0144300D01*
X0206800Y0139300D01*
X0209300Y0136800D01*
X0206800Y0134300D01*
X0206800Y0129300D01*
X0209300Y0126800D01*
X0214300Y0126800D01*
X0216800Y0129300D01*
X0216800Y0134300D01*
X0214300Y0136800D01*
X0209300Y0136800D01*
X0214300Y0136800D02*
X0216800Y0139300D01*
X0216800Y0144300D01*
X0214300Y0146800D01*
X0209300Y0146800D01*
X0214300Y0146800D02*
X0216800Y0149300D01*
X0216800Y0154300D01*
X0214300Y0156800D01*
X0214300Y0126800D02*
X0216800Y0124300D01*
X0216800Y0119300D01*
X0214300Y0116800D01*
X0216800Y0114300D01*
X0216800Y0109300D01*
X0214300Y0106800D01*
X0216800Y0104300D01*
X0216800Y0099300D01*
X0214300Y0096800D01*
X0209300Y0096800D01*
X0206800Y0099300D01*
X0206800Y0104300D01*
X0209300Y0106800D01*
X0206800Y0109300D01*
X0206800Y0114300D01*
X0209300Y0116800D01*
X0206800Y0119300D01*
X0206800Y0124300D01*
X0209300Y0126800D01*
X0209300Y0116800D02*
X0214300Y0116800D01*
X0214300Y0106800D02*
X0209300Y0106800D01*
X0209300Y0096800D02*
X0206800Y0094300D01*
X0206800Y0089300D01*
X0209300Y0086800D01*
X0206800Y0084300D01*
X0206800Y0079300D01*
X0209300Y0076800D01*
X0206800Y0074300D01*
X0206800Y0069300D01*
X0209300Y0066800D01*
X0214300Y0066800D01*
X0216800Y0069300D01*
X0216800Y0074300D01*
X0214300Y0076800D01*
X0209300Y0076800D01*
X0214300Y0076800D02*
X0216800Y0079300D01*
X0216800Y0084300D01*
X0214300Y0086800D01*
X0209300Y0086800D01*
X0214300Y0086800D02*
X0216800Y0089300D01*
X0216800Y0094300D01*
X0214300Y0096800D01*
X0214300Y0066800D02*
X0216800Y0064300D01*
X0216800Y0059300D01*
X0214300Y0056800D01*
X0216800Y0054300D01*
X0216800Y0049300D01*
X0214300Y0046800D01*
X0209300Y0046800D01*
X0206800Y0049300D01*
X0206800Y0054300D01*
X0209300Y0056800D01*
X0206800Y0059300D01*
X0206800Y0064300D01*
X0209300Y0066800D01*
X0209300Y0056800D02*
X0214300Y0056800D01*
X0106500Y0047491D02*
X0100095Y0047491D01*
X0101162Y0045316D02*
X0100095Y0044248D01*
X0100095Y0042113D01*
X0101162Y0041045D01*
X0056800Y0049300D02*
X0054300Y0046800D01*
X0049300Y0046800D01*
X0046800Y0049300D01*
X0046800Y0054300D01*
X0049300Y0056800D01*
X0046800Y0059300D01*
X0046800Y0064300D01*
X0049300Y0066800D01*
X0046800Y0069300D01*
X0046800Y0074300D01*
X0049300Y0076800D01*
X0046800Y0079300D01*
X0046800Y0084300D01*
X0049300Y0086800D01*
X0046800Y0089300D01*
X0046800Y0094300D01*
X0049300Y0096800D01*
X0046800Y0099300D01*
X0046800Y0104300D01*
X0049300Y0106800D01*
X0046800Y0109300D01*
X0046800Y0114300D01*
X0049300Y0116800D01*
X0046800Y0119300D01*
X0046800Y0124300D01*
X0049300Y0126800D01*
X0046800Y0129300D01*
X0046800Y0134300D01*
X0049300Y0136800D01*
X0046800Y0139300D01*
X0046800Y0144300D01*
X0049300Y0146800D01*
X0046800Y0149300D01*
X0046800Y0154300D01*
X0049300Y0156800D01*
X0046800Y0159300D01*
X0046800Y0164300D01*
X0049300Y0166800D01*
X0046800Y0169300D01*
X0046800Y0174300D01*
X0049300Y0176800D01*
X0046800Y0179300D01*
X0046800Y0184300D01*
X0049300Y0186800D01*
X0046800Y0189300D01*
X0046800Y0194300D01*
X0049300Y0196800D01*
X0046800Y0199300D01*
X0046800Y0204300D01*
X0049300Y0206800D01*
X0054300Y0206800D01*
X0056800Y0204300D01*
X0056800Y0199300D01*
X0054300Y0196800D01*
X0056800Y0194300D01*
X0056800Y0189300D01*
X0054300Y0186800D01*
X0049300Y0186800D01*
X0054300Y0186800D02*
X0056800Y0184300D01*
X0056800Y0179300D01*
X0054300Y0176800D01*
X0056800Y0174300D01*
X0056800Y0169300D01*
X0054300Y0166800D01*
X0056800Y0164300D01*
X0056800Y0159300D01*
X0054300Y0156800D01*
X0049300Y0156800D01*
X0054300Y0156800D02*
X0056800Y0154300D01*
X0056800Y0149300D01*
X0054300Y0146800D01*
X0056800Y0144300D01*
X0056800Y0139300D01*
X0054300Y0136800D01*
X0056800Y0134300D01*
X0056800Y0129300D01*
X0054300Y0126800D01*
X0049300Y0126800D01*
X0054300Y0126800D02*
X0056800Y0124300D01*
X0056800Y0119300D01*
X0054300Y0116800D01*
X0056800Y0114300D01*
X0056800Y0109300D01*
X0054300Y0106800D01*
X0056800Y0104300D01*
X0056800Y0099300D01*
X0054300Y0096800D01*
X0049300Y0096800D01*
X0054300Y0096800D02*
X0056800Y0094300D01*
X0056800Y0089300D01*
X0054300Y0086800D01*
X0056800Y0084300D01*
X0056800Y0079300D01*
X0054300Y0076800D01*
X0056800Y0074300D01*
X0056800Y0069300D01*
X0054300Y0066800D01*
X0049300Y0066800D01*
X0054300Y0066800D02*
X0056800Y0064300D01*
X0056800Y0059300D01*
X0054300Y0056800D01*
X0056800Y0054300D01*
X0056800Y0049300D01*
X0054300Y0056800D02*
X0049300Y0056800D01*
X0049300Y0076800D02*
X0054300Y0076800D01*
X0054300Y0086800D02*
X0049300Y0086800D01*
X0049300Y0106800D02*
X0054300Y0106800D01*
X0054300Y0116800D02*
X0049300Y0116800D01*
X0049300Y0136800D02*
X0054300Y0136800D01*
X0054300Y0146800D02*
X0049300Y0146800D01*
X0049300Y0166800D02*
X0054300Y0166800D01*
X0054300Y0176800D02*
X0049300Y0176800D01*
X0049300Y0196800D02*
X0054300Y0196800D01*
X0016800Y0194300D02*
X0016800Y0189300D01*
X0014300Y0186800D01*
X0009300Y0186800D01*
X0006800Y0189300D01*
X0006800Y0194300D01*
X0009300Y0196800D01*
X0006800Y0199300D01*
X0006800Y0204300D01*
X0009300Y0206800D01*
X0014300Y0206800D01*
X0016800Y0204300D01*
X0016800Y0199300D01*
X0014300Y0196800D01*
X0016800Y0194300D01*
X0014300Y0196800D02*
X0009300Y0196800D01*
X0009300Y0186800D02*
X0006800Y0184300D01*
X0006800Y0179300D01*
X0009300Y0176800D01*
X0006800Y0174300D01*
X0006800Y0169300D01*
X0009300Y0166800D01*
X0006800Y0164300D01*
X0006800Y0159300D01*
X0009300Y0156800D01*
X0014300Y0156800D01*
X0016800Y0159300D01*
X0016800Y0164300D01*
X0014300Y0166800D01*
X0009300Y0166800D01*
X0014300Y0166800D02*
X0016800Y0169300D01*
X0016800Y0174300D01*
X0014300Y0176800D01*
X0009300Y0176800D01*
X0014300Y0176800D02*
X0016800Y0179300D01*
X0016800Y0184300D01*
X0014300Y0186800D01*
X0014300Y0156800D02*
X0016800Y0154300D01*
X0016800Y0149300D01*
X0014300Y0146800D01*
X0016800Y0144300D01*
X0016800Y0139300D01*
X0014300Y0136800D01*
X0016800Y0134300D01*
X0016800Y0129300D01*
X0014300Y0126800D01*
X0009300Y0126800D01*
X0006800Y0129300D01*
X0006800Y0134300D01*
X0009300Y0136800D01*
X0006800Y0139300D01*
X0006800Y0144300D01*
X0009300Y0146800D01*
X0006800Y0149300D01*
X0006800Y0154300D01*
X0009300Y0156800D01*
X0009300Y0146800D02*
X0014300Y0146800D01*
X0014300Y0136800D02*
X0009300Y0136800D01*
X0009300Y0126800D02*
X0006800Y0124300D01*
X0006800Y0119300D01*
X0009300Y0116800D01*
X0006800Y0114300D01*
X0006800Y0109300D01*
X0009300Y0106800D01*
X0006800Y0104300D01*
X0006800Y0099300D01*
X0009300Y0096800D01*
X0014300Y0096800D01*
X0016800Y0099300D01*
X0016800Y0104300D01*
X0014300Y0106800D01*
X0009300Y0106800D01*
X0014300Y0106800D02*
X0016800Y0109300D01*
X0016800Y0114300D01*
X0014300Y0116800D01*
X0009300Y0116800D01*
X0014300Y0116800D02*
X0016800Y0119300D01*
X0016800Y0124300D01*
X0014300Y0126800D01*
X0014300Y0096800D02*
X0016800Y0094300D01*
X0016800Y0089300D01*
X0014300Y0086800D01*
X0016800Y0084300D01*
X0016800Y0079300D01*
X0014300Y0076800D01*
X0016800Y0074300D01*
X0016800Y0069300D01*
X0014300Y0066800D01*
X0009300Y0066800D01*
X0006800Y0069300D01*
X0006800Y0074300D01*
X0009300Y0076800D01*
X0006800Y0079300D01*
X0006800Y0084300D01*
X0009300Y0086800D01*
X0006800Y0089300D01*
X0006800Y0094300D01*
X0009300Y0096800D01*
X0009300Y0086800D02*
X0014300Y0086800D01*
X0014300Y0076800D02*
X0009300Y0076800D01*
X0009300Y0066800D02*
X0006800Y0064300D01*
X0006800Y0059300D01*
X0009300Y0056800D01*
X0006800Y0054300D01*
X0006800Y0049300D01*
X0009300Y0046800D01*
X0014300Y0046800D01*
X0016800Y0049300D01*
X0016800Y0054300D01*
X0014300Y0056800D01*
X0009300Y0056800D01*
X0014300Y0056800D02*
X0016800Y0059300D01*
X0016800Y0064300D01*
X0014300Y0066800D01*
D11*
X0001800Y0001800D02*
X0001800Y0216800D01*
X0226800Y0216800D01*
X0226800Y0001800D01*
X0001800Y0001800D01*
X0014800Y0023300D02*
X0038800Y0023300D01*
X0039007Y0023303D01*
X0039214Y0023310D01*
X0039420Y0023323D01*
X0039627Y0023340D01*
X0039832Y0023363D01*
X0040038Y0023391D01*
X0040242Y0023423D01*
X0040446Y0023461D01*
X0040648Y0023503D01*
X0040850Y0023551D01*
X0041050Y0023603D01*
X0041249Y0023660D01*
X0041446Y0023722D01*
X0041642Y0023789D01*
X0041836Y0023861D01*
X0042029Y0023937D01*
X0042219Y0024018D01*
X0042408Y0024104D01*
X0042594Y0024194D01*
X0042778Y0024288D01*
X0042960Y0024388D01*
X0043139Y0024491D01*
X0043316Y0024599D01*
X0043490Y0024711D01*
X0043661Y0024827D01*
X0043830Y0024948D01*
X0043995Y0025072D01*
X0044157Y0025201D01*
X0044316Y0025333D01*
X0044472Y0025469D01*
X0044625Y0025609D01*
X0044774Y0025753D01*
X0044919Y0025900D01*
X0045061Y0026051D01*
X0045199Y0026205D01*
X0045334Y0026363D01*
X0045464Y0026523D01*
X0045590Y0026687D01*
X0045713Y0026854D01*
X0045831Y0027024D01*
X0045946Y0027197D01*
X0046056Y0027372D01*
X0046161Y0027550D01*
X0046263Y0027731D01*
X0046359Y0027913D01*
X0046452Y0028099D01*
X0046540Y0028286D01*
X0046623Y0028476D01*
X0046702Y0028667D01*
X0046776Y0028860D01*
X0046845Y0029056D01*
X0046909Y0029252D01*
X0046969Y0029450D01*
X0047024Y0029650D01*
X0047074Y0029851D01*
X0047119Y0030053D01*
X0047159Y0030256D01*
X0047194Y0030460D01*
X0047224Y0030665D01*
X0047249Y0030870D01*
X0047269Y0031076D01*
X0047284Y0031283D01*
X0047294Y0031490D01*
X0047299Y0031697D01*
X0047299Y0031903D01*
X0047294Y0032110D01*
X0047284Y0032317D01*
X0047269Y0032524D01*
X0047249Y0032730D01*
X0047224Y0032935D01*
X0047194Y0033140D01*
X0047159Y0033344D01*
X0047119Y0033547D01*
X0047074Y0033749D01*
X0047024Y0033950D01*
X0046969Y0034150D01*
X0046909Y0034348D01*
X0046845Y0034544D01*
X0046776Y0034740D01*
X0046702Y0034933D01*
X0046623Y0035124D01*
X0046540Y0035314D01*
X0046452Y0035501D01*
X0046359Y0035687D01*
X0046263Y0035869D01*
X0046161Y0036050D01*
X0046056Y0036228D01*
X0045946Y0036403D01*
X0045831Y0036576D01*
X0045713Y0036746D01*
X0045590Y0036913D01*
X0045464Y0037077D01*
X0045334Y0037237D01*
X0045199Y0037395D01*
X0045061Y0037549D01*
X0044919Y0037700D01*
X0044774Y0037847D01*
X0044625Y0037991D01*
X0044472Y0038131D01*
X0044316Y0038267D01*
X0044157Y0038399D01*
X0043995Y0038528D01*
X0043830Y0038652D01*
X0043661Y0038773D01*
X0043490Y0038889D01*
X0043316Y0039001D01*
X0043139Y0039109D01*
X0042960Y0039212D01*
X0042778Y0039312D01*
X0042594Y0039406D01*
X0042408Y0039496D01*
X0042219Y0039582D01*
X0042029Y0039663D01*
X0041836Y0039739D01*
X0041642Y0039811D01*
X0041446Y0039878D01*
X0041249Y0039940D01*
X0041050Y0039997D01*
X0040850Y0040049D01*
X0040648Y0040097D01*
X0040446Y0040139D01*
X0040242Y0040177D01*
X0040038Y0040209D01*
X0039832Y0040237D01*
X0039627Y0040260D01*
X0039420Y0040277D01*
X0039214Y0040290D01*
X0039007Y0040297D01*
X0038800Y0040300D01*
X0014800Y0040300D01*
X0014593Y0040297D01*
X0014386Y0040290D01*
X0014180Y0040277D01*
X0013973Y0040260D01*
X0013768Y0040237D01*
X0013562Y0040209D01*
X0013358Y0040177D01*
X0013154Y0040139D01*
X0012952Y0040097D01*
X0012750Y0040049D01*
X0012550Y0039997D01*
X0012351Y0039940D01*
X0012154Y0039878D01*
X0011958Y0039811D01*
X0011764Y0039739D01*
X0011571Y0039663D01*
X0011381Y0039582D01*
X0011192Y0039496D01*
X0011006Y0039406D01*
X0010822Y0039312D01*
X0010640Y0039212D01*
X0010461Y0039109D01*
X0010284Y0039001D01*
X0010110Y0038889D01*
X0009939Y0038773D01*
X0009770Y0038652D01*
X0009605Y0038528D01*
X0009443Y0038399D01*
X0009284Y0038267D01*
X0009128Y0038131D01*
X0008975Y0037991D01*
X0008826Y0037847D01*
X0008681Y0037700D01*
X0008539Y0037549D01*
X0008401Y0037395D01*
X0008266Y0037237D01*
X0008136Y0037077D01*
X0008010Y0036913D01*
X0007887Y0036746D01*
X0007769Y0036576D01*
X0007654Y0036403D01*
X0007544Y0036228D01*
X0007439Y0036050D01*
X0007337Y0035869D01*
X0007241Y0035687D01*
X0007148Y0035501D01*
X0007060Y0035314D01*
X0006977Y0035124D01*
X0006898Y0034933D01*
X0006824Y0034740D01*
X0006755Y0034544D01*
X0006691Y0034348D01*
X0006631Y0034150D01*
X0006576Y0033950D01*
X0006526Y0033749D01*
X0006481Y0033547D01*
X0006441Y0033344D01*
X0006406Y0033140D01*
X0006376Y0032935D01*
X0006351Y0032730D01*
X0006331Y0032524D01*
X0006316Y0032317D01*
X0006306Y0032110D01*
X0006301Y0031903D01*
X0006301Y0031697D01*
X0006306Y0031490D01*
X0006316Y0031283D01*
X0006331Y0031076D01*
X0006351Y0030870D01*
X0006376Y0030665D01*
X0006406Y0030460D01*
X0006441Y0030256D01*
X0006481Y0030053D01*
X0006526Y0029851D01*
X0006576Y0029650D01*
X0006631Y0029450D01*
X0006691Y0029252D01*
X0006755Y0029056D01*
X0006824Y0028860D01*
X0006898Y0028667D01*
X0006977Y0028476D01*
X0007060Y0028286D01*
X0007148Y0028099D01*
X0007241Y0027913D01*
X0007337Y0027731D01*
X0007439Y0027550D01*
X0007544Y0027372D01*
X0007654Y0027197D01*
X0007769Y0027024D01*
X0007887Y0026854D01*
X0008010Y0026687D01*
X0008136Y0026523D01*
X0008266Y0026363D01*
X0008401Y0026205D01*
X0008539Y0026051D01*
X0008681Y0025900D01*
X0008826Y0025753D01*
X0008975Y0025609D01*
X0009128Y0025469D01*
X0009284Y0025333D01*
X0009443Y0025201D01*
X0009605Y0025072D01*
X0009770Y0024948D01*
X0009939Y0024827D01*
X0010110Y0024711D01*
X0010284Y0024599D01*
X0010461Y0024491D01*
X0010640Y0024388D01*
X0010822Y0024288D01*
X0011006Y0024194D01*
X0011192Y0024104D01*
X0011381Y0024018D01*
X0011571Y0023937D01*
X0011764Y0023861D01*
X0011958Y0023789D01*
X0012154Y0023722D01*
X0012351Y0023660D01*
X0012550Y0023603D01*
X0012750Y0023551D01*
X0012952Y0023503D01*
X0013154Y0023461D01*
X0013358Y0023423D01*
X0013562Y0023391D01*
X0013768Y0023363D01*
X0013973Y0023340D01*
X0014180Y0023323D01*
X0014386Y0023310D01*
X0014593Y0023303D01*
X0014800Y0023300D01*
D12*
X0021800Y0015800D02*
X0021800Y0007800D01*
X0017800Y0011800D02*
X0025800Y0011800D01*
X0037800Y0011800D02*
X0045800Y0011800D01*
X0041800Y0007800D02*
X0041800Y0015800D01*
X0026800Y0027800D02*
X0026800Y0035800D01*
X0022800Y0031800D02*
X0030800Y0031800D01*
X0107800Y0021800D02*
X0115800Y0021800D01*
X0111800Y0017800D02*
X0111800Y0025800D01*
X0182800Y0021800D02*
X0190800Y0021800D01*
X0186800Y0017800D02*
X0186800Y0025800D01*
X0171800Y0122800D02*
X0171800Y0130800D01*
X0167800Y0126800D02*
X0175800Y0126800D01*
X0207800Y0126800D02*
X0215800Y0126800D01*
X0211800Y0122800D02*
X0211800Y0130800D01*
X0055800Y0126800D02*
X0047800Y0126800D01*
X0051800Y0122800D02*
X0051800Y0130800D01*
X0015800Y0126800D02*
X0007800Y0126800D01*
X0011800Y0122800D02*
X0011800Y0130800D01*
D13*
X0006800Y0016800D02*
X0026800Y0016800D01*
X0026800Y0006800D01*
X0006800Y0006800D01*
X0006800Y0016800D01*
X0016800Y0014300D02*
X0016800Y0009300D01*
X0036800Y0006800D02*
X0036800Y0016800D01*
X0056800Y0016800D01*
X0056800Y0006800D01*
X0036800Y0006800D01*
X0046800Y0009300D02*
X0046800Y0014300D01*
X0089300Y0009300D02*
X0094300Y0009300D01*
D14*
X0111800Y0016800D03*
M02*
