G75*
%MOIN*%
%OFA0B0*%
%FSLAX25Y25*%
%IPPOS*%
%LPD*%
%AMOC8*
5,1,8,0,0,1.08239X$1,22.5*
%
%ADD10OC8,0.07100*%
%ADD11C,0.07100*%
%ADD12OC8,0.08200*%
%ADD13C,0.06800*%
%ADD14C,0.06000*%
%ADD15C,0.07300*%
%ADD16C,0.04800*%
D10*
X0191800Y0021800D03*
D11*
X0181800Y0021800D03*
D12*
X0131800Y0016800D03*
X0131800Y0026800D03*
X0121800Y0026800D03*
X0111800Y0026800D03*
X0111800Y0016800D03*
X0121800Y0016800D03*
X0101800Y0016800D03*
X0091800Y0016800D03*
X0091800Y0026800D03*
X0101800Y0026800D03*
D13*
X0054800Y0051800D02*
X0048800Y0051800D01*
X0048800Y0061800D02*
X0054800Y0061800D01*
X0054800Y0071800D02*
X0048800Y0071800D01*
X0048800Y0081800D02*
X0054800Y0081800D01*
X0054800Y0091800D02*
X0048800Y0091800D01*
X0048800Y0101800D02*
X0054800Y0101800D01*
X0054800Y0111800D02*
X0048800Y0111800D01*
X0048800Y0121800D02*
X0054800Y0121800D01*
X0054800Y0131800D02*
X0048800Y0131800D01*
X0048800Y0141800D02*
X0054800Y0141800D01*
X0054800Y0151800D02*
X0048800Y0151800D01*
X0048800Y0161800D02*
X0054800Y0161800D01*
X0054800Y0171800D02*
X0048800Y0171800D01*
X0048800Y0181800D02*
X0054800Y0181800D01*
X0054800Y0191800D02*
X0048800Y0191800D01*
X0048800Y0201800D02*
X0054800Y0201800D01*
X0014800Y0201800D02*
X0008800Y0201800D01*
X0008800Y0191800D02*
X0014800Y0191800D01*
X0014800Y0181800D02*
X0008800Y0181800D01*
X0008800Y0171800D02*
X0014800Y0171800D01*
X0014800Y0161800D02*
X0008800Y0161800D01*
X0008800Y0151800D02*
X0014800Y0151800D01*
X0014800Y0141800D02*
X0008800Y0141800D01*
X0008800Y0131800D02*
X0014800Y0131800D01*
X0014800Y0121800D02*
X0008800Y0121800D01*
X0008800Y0111800D02*
X0014800Y0111800D01*
X0014800Y0101800D02*
X0008800Y0101800D01*
X0008800Y0091800D02*
X0014800Y0091800D01*
X0014800Y0081800D02*
X0008800Y0081800D01*
X0008800Y0071800D02*
X0014800Y0071800D01*
X0014800Y0061800D02*
X0008800Y0061800D01*
X0008800Y0051800D02*
X0014800Y0051800D01*
X0168800Y0051800D02*
X0174800Y0051800D01*
X0174800Y0061800D02*
X0168800Y0061800D01*
X0168800Y0071800D02*
X0174800Y0071800D01*
X0174800Y0081800D02*
X0168800Y0081800D01*
X0168800Y0091800D02*
X0174800Y0091800D01*
X0174800Y0101800D02*
X0168800Y0101800D01*
X0168800Y0111800D02*
X0174800Y0111800D01*
X0174800Y0121800D02*
X0168800Y0121800D01*
X0168800Y0131800D02*
X0174800Y0131800D01*
X0174800Y0141800D02*
X0168800Y0141800D01*
X0168800Y0151800D02*
X0174800Y0151800D01*
X0174800Y0161800D02*
X0168800Y0161800D01*
X0168800Y0171800D02*
X0174800Y0171800D01*
X0174800Y0181800D02*
X0168800Y0181800D01*
X0168800Y0191800D02*
X0174800Y0191800D01*
X0174800Y0201800D02*
X0168800Y0201800D01*
X0208800Y0201800D02*
X0214800Y0201800D01*
X0214800Y0191800D02*
X0208800Y0191800D01*
X0208800Y0181800D02*
X0214800Y0181800D01*
X0214800Y0171800D02*
X0208800Y0171800D01*
X0208800Y0161800D02*
X0214800Y0161800D01*
X0214800Y0151800D02*
X0208800Y0151800D01*
X0208800Y0141800D02*
X0214800Y0141800D01*
X0214800Y0131800D02*
X0208800Y0131800D01*
X0208800Y0121800D02*
X0214800Y0121800D01*
X0214800Y0111800D02*
X0208800Y0111800D01*
X0208800Y0101800D02*
X0214800Y0101800D01*
X0214800Y0091800D02*
X0208800Y0091800D01*
X0208800Y0081800D02*
X0214800Y0081800D01*
X0214800Y0071800D02*
X0208800Y0071800D01*
X0208800Y0061800D02*
X0214800Y0061800D01*
X0214800Y0051800D02*
X0208800Y0051800D01*
D14*
X0036300Y0031800D03*
X0017300Y0031800D03*
D15*
X0011800Y0011800D03*
X0021800Y0011800D03*
X0041800Y0011800D03*
X0051800Y0011800D03*
D16*
X0096300Y0021600D03*
M02*
