G75*
%MOIN*%
%OFA0B0*%
%FSLAX25Y25*%
%IPPOS*%
%LPD*%
%AMOC8*
5,1,8,0,0,1.08239X$1,22.5*
%
%ADD10C,0.00000*%
%ADD11OC8,0.06300*%
%ADD12C,0.06300*%
%ADD13OC8,0.07400*%
%ADD14C,0.06000*%
%ADD15C,0.05200*%
%ADD16C,0.06500*%
%ADD17C,0.01000*%
%ADD18C,0.04000*%
%ADD19C,0.01600*%
D10*
X0001800Y0001800D02*
X0001800Y0316761D01*
X0395501Y0316761D01*
X0395501Y0001800D01*
X0001800Y0001800D01*
D11*
X0191800Y0021800D03*
D12*
X0181800Y0021800D03*
D13*
X0131800Y0016800D03*
X0131800Y0026800D03*
X0121800Y0026800D03*
X0111800Y0026800D03*
X0111800Y0016800D03*
X0121800Y0016800D03*
X0101800Y0016800D03*
X0091800Y0016800D03*
X0091800Y0026800D03*
X0101800Y0026800D03*
D14*
X0054800Y0051800D02*
X0048800Y0051800D01*
X0048800Y0061800D02*
X0054800Y0061800D01*
X0054800Y0071800D02*
X0048800Y0071800D01*
X0048800Y0081800D02*
X0054800Y0081800D01*
X0054800Y0091800D02*
X0048800Y0091800D01*
X0048800Y0101800D02*
X0054800Y0101800D01*
X0054800Y0111800D02*
X0048800Y0111800D01*
X0048800Y0121800D02*
X0054800Y0121800D01*
X0054800Y0131800D02*
X0048800Y0131800D01*
X0048800Y0141800D02*
X0054800Y0141800D01*
X0054800Y0151800D02*
X0048800Y0151800D01*
X0048800Y0161800D02*
X0054800Y0161800D01*
X0054800Y0171800D02*
X0048800Y0171800D01*
X0048800Y0181800D02*
X0054800Y0181800D01*
X0054800Y0191800D02*
X0048800Y0191800D01*
X0048800Y0201800D02*
X0054800Y0201800D01*
X0014800Y0201800D02*
X0008800Y0201800D01*
X0008800Y0191800D02*
X0014800Y0191800D01*
X0014800Y0181800D02*
X0008800Y0181800D01*
X0008800Y0171800D02*
X0014800Y0171800D01*
X0014800Y0161800D02*
X0008800Y0161800D01*
X0008800Y0151800D02*
X0014800Y0151800D01*
X0014800Y0141800D02*
X0008800Y0141800D01*
X0008800Y0131800D02*
X0014800Y0131800D01*
X0014800Y0121800D02*
X0008800Y0121800D01*
X0008800Y0111800D02*
X0014800Y0111800D01*
X0014800Y0101800D02*
X0008800Y0101800D01*
X0008800Y0091800D02*
X0014800Y0091800D01*
X0014800Y0081800D02*
X0008800Y0081800D01*
X0008800Y0071800D02*
X0014800Y0071800D01*
X0014800Y0061800D02*
X0008800Y0061800D01*
X0008800Y0051800D02*
X0014800Y0051800D01*
X0168800Y0051800D02*
X0174800Y0051800D01*
X0174800Y0061800D02*
X0168800Y0061800D01*
X0168800Y0071800D02*
X0174800Y0071800D01*
X0174800Y0081800D02*
X0168800Y0081800D01*
X0168800Y0091800D02*
X0174800Y0091800D01*
X0174800Y0101800D02*
X0168800Y0101800D01*
X0168800Y0111800D02*
X0174800Y0111800D01*
X0174800Y0121800D02*
X0168800Y0121800D01*
X0168800Y0131800D02*
X0174800Y0131800D01*
X0174800Y0141800D02*
X0168800Y0141800D01*
X0168800Y0151800D02*
X0174800Y0151800D01*
X0174800Y0161800D02*
X0168800Y0161800D01*
X0168800Y0171800D02*
X0174800Y0171800D01*
X0174800Y0181800D02*
X0168800Y0181800D01*
X0168800Y0191800D02*
X0174800Y0191800D01*
X0174800Y0201800D02*
X0168800Y0201800D01*
X0208800Y0201800D02*
X0214800Y0201800D01*
X0214800Y0191800D02*
X0208800Y0191800D01*
X0208800Y0181800D02*
X0214800Y0181800D01*
X0214800Y0171800D02*
X0208800Y0171800D01*
X0208800Y0161800D02*
X0214800Y0161800D01*
X0214800Y0151800D02*
X0208800Y0151800D01*
X0208800Y0141800D02*
X0214800Y0141800D01*
X0214800Y0131800D02*
X0208800Y0131800D01*
X0208800Y0121800D02*
X0214800Y0121800D01*
X0214800Y0111800D02*
X0208800Y0111800D01*
X0208800Y0101800D02*
X0214800Y0101800D01*
X0214800Y0091800D02*
X0208800Y0091800D01*
X0208800Y0081800D02*
X0214800Y0081800D01*
X0214800Y0071800D02*
X0208800Y0071800D01*
X0208800Y0061800D02*
X0214800Y0061800D01*
X0214800Y0051800D02*
X0208800Y0051800D01*
D15*
X0036300Y0031800D03*
X0017300Y0031800D03*
D16*
X0021800Y0011800D03*
X0011800Y0011800D03*
X0041800Y0011800D03*
X0051800Y0011800D03*
D17*
X0051300Y0012600D01*
X0036900Y0027000D01*
X0036900Y0031500D01*
X0036300Y0031800D01*
X0017300Y0031800D02*
X0017100Y0031500D01*
X0017100Y0017100D01*
X0011800Y0011800D01*
X0021800Y0011800D02*
X0022500Y0011700D01*
X0041400Y0011700D01*
X0041800Y0011800D01*
X0086400Y0014400D02*
X0089100Y0011700D01*
X0126900Y0011700D01*
X0131400Y0016200D01*
X0131800Y0016800D01*
X0132300Y0017100D01*
X0136800Y0021600D01*
X0181800Y0021600D01*
X0181800Y0021800D01*
X0171800Y0051800D02*
X0171900Y0052200D01*
X0211500Y0052200D01*
X0211800Y0051800D01*
X0211800Y0061800D02*
X0211500Y0062100D01*
X0171900Y0062100D01*
X0171800Y0061800D01*
X0171000Y0071100D02*
X0171800Y0071800D01*
X0171900Y0072000D01*
X0211500Y0072000D01*
X0211800Y0071800D01*
X0211800Y0081800D02*
X0211500Y0081900D01*
X0171900Y0081900D01*
X0171800Y0081800D01*
X0171800Y0091800D02*
X0169200Y0091800D01*
X0104400Y0027000D01*
X0102600Y0027000D01*
X0101800Y0026800D01*
X0086400Y0014400D02*
X0086400Y0097200D01*
X0051800Y0131800D01*
X0051300Y0132300D01*
X0012600Y0132300D01*
X0011800Y0131800D01*
X0011800Y0121800D02*
X0012600Y0121500D01*
X0051300Y0121500D01*
X0051800Y0121800D01*
X0051800Y0111800D02*
X0051300Y0111600D01*
X0012600Y0111600D01*
X0011800Y0111800D01*
X0011800Y0101800D02*
X0012600Y0101700D01*
X0051300Y0101700D01*
X0051800Y0101800D01*
X0051800Y0091800D02*
X0011800Y0091800D01*
X0012600Y0081900D02*
X0011800Y0081800D01*
X0012600Y0081900D02*
X0051300Y0081900D01*
X0051800Y0081800D01*
X0051300Y0072000D02*
X0051800Y0071800D01*
X0051300Y0072000D02*
X0012600Y0072000D01*
X0011800Y0071800D01*
X0012600Y0062100D02*
X0011800Y0061800D01*
X0012600Y0062100D02*
X0051300Y0062100D01*
X0051800Y0061800D01*
X0051300Y0052200D02*
X0051800Y0051800D01*
X0051300Y0052200D02*
X0012600Y0052200D01*
X0011800Y0051800D01*
X0011800Y0141800D02*
X0012600Y0142200D01*
X0051300Y0142200D01*
X0051800Y0141800D01*
X0051800Y0151800D02*
X0051300Y0152100D01*
X0012600Y0152100D01*
X0011800Y0151800D01*
X0011800Y0161800D02*
X0012600Y0162000D01*
X0051300Y0162000D01*
X0051800Y0161800D01*
X0051800Y0171800D02*
X0051300Y0171900D01*
X0012600Y0171900D01*
X0011800Y0171800D01*
X0011800Y0181800D02*
X0051800Y0181800D01*
X0051300Y0191700D02*
X0051800Y0191800D01*
X0051300Y0191700D02*
X0012600Y0191700D01*
X0011800Y0191800D01*
X0012600Y0201600D02*
X0011800Y0201800D01*
X0012600Y0201600D02*
X0051300Y0201600D01*
X0051800Y0201800D01*
X0171800Y0201800D02*
X0171900Y0201600D01*
X0211500Y0201600D01*
X0211800Y0201800D01*
X0211800Y0191800D02*
X0211500Y0191700D01*
X0171900Y0191700D01*
X0171800Y0191800D01*
X0171800Y0181800D02*
X0211800Y0181800D01*
X0211500Y0171900D02*
X0211800Y0171800D01*
X0211500Y0171900D02*
X0171900Y0171900D01*
X0171800Y0171800D01*
X0171900Y0162000D02*
X0171800Y0161800D01*
X0171900Y0162000D02*
X0211500Y0162000D01*
X0211800Y0161800D01*
X0211500Y0152100D02*
X0211800Y0151800D01*
X0211500Y0152100D02*
X0171900Y0152100D01*
X0171800Y0151800D01*
X0171900Y0142200D02*
X0171800Y0141800D01*
X0171900Y0142200D02*
X0211500Y0142200D01*
X0211800Y0141800D01*
X0211500Y0132300D02*
X0211800Y0131800D01*
X0211500Y0132300D02*
X0171900Y0132300D01*
X0171800Y0131800D01*
X0171800Y0121800D02*
X0171900Y0121500D01*
X0211500Y0121500D01*
X0211800Y0121800D01*
X0211800Y0111800D02*
X0211500Y0111600D01*
X0171900Y0111600D01*
X0171800Y0111800D01*
X0171800Y0101800D02*
X0171900Y0101700D01*
X0211500Y0101700D01*
X0211800Y0101800D01*
X0211800Y0091800D02*
X0171800Y0091800D01*
X0171000Y0071100D02*
X0132300Y0032400D01*
X0132300Y0027000D01*
X0131800Y0026800D01*
D18*
X0096300Y0021600D03*
D19*
X0096207Y0022581D02*
X0097393Y0022581D01*
X0096800Y0023173D02*
X0098173Y0021800D01*
X0096376Y0020002D01*
X0095002Y0021376D01*
X0096800Y0023173D01*
X0097355Y0020982D02*
X0095396Y0020982D01*
X0096800Y0030427D02*
X0094327Y0032900D01*
X0089300Y0032900D01*
X0089300Y0097777D01*
X0088858Y0098843D01*
X0088043Y0099658D01*
X0059169Y0128532D01*
X0059378Y0128741D01*
X0060200Y0130726D01*
X0060200Y0132874D01*
X0059378Y0134859D01*
X0057859Y0136378D01*
X0056007Y0137145D01*
X0056643Y0137352D01*
X0057316Y0137695D01*
X0057927Y0138139D01*
X0058461Y0138673D01*
X0058905Y0139284D01*
X0059248Y0139957D01*
X0059482Y0140676D01*
X0059600Y0141422D01*
X0059600Y0141600D01*
X0052000Y0141600D01*
X0052000Y0142000D01*
X0059600Y0142000D01*
X0059600Y0142178D01*
X0059482Y0142924D01*
X0059248Y0143643D01*
X0058905Y0144316D01*
X0058461Y0144927D01*
X0057927Y0145461D01*
X0057316Y0145905D01*
X0056643Y0146248D01*
X0056007Y0146455D01*
X0057859Y0147222D01*
X0059378Y0148741D01*
X0060200Y0150726D01*
X0060200Y0152874D01*
X0059378Y0154859D01*
X0057859Y0156378D01*
X0056840Y0156800D01*
X0057859Y0157222D01*
X0059378Y0158741D01*
X0060200Y0160726D01*
X0060200Y0162874D01*
X0059378Y0164859D01*
X0057859Y0166378D01*
X0056840Y0166800D01*
X0057859Y0167222D01*
X0059378Y0168741D01*
X0060200Y0170726D01*
X0060200Y0172874D01*
X0059378Y0174859D01*
X0057859Y0176378D01*
X0056840Y0176800D01*
X0057859Y0177222D01*
X0059378Y0178741D01*
X0060200Y0180726D01*
X0060200Y0182874D01*
X0059378Y0184859D01*
X0057859Y0186378D01*
X0056840Y0186800D01*
X0057859Y0187222D01*
X0059378Y0188741D01*
X0060200Y0190726D01*
X0060200Y0192874D01*
X0059378Y0194859D01*
X0057859Y0196378D01*
X0056840Y0196800D01*
X0057859Y0197222D01*
X0059378Y0198741D01*
X0060200Y0200726D01*
X0060200Y0202874D01*
X0059378Y0204859D01*
X0057859Y0206378D01*
X0055874Y0207200D01*
X0047726Y0207200D01*
X0045741Y0206378D01*
X0044222Y0204859D01*
X0044073Y0204500D01*
X0019527Y0204500D01*
X0019378Y0204859D01*
X0017859Y0206378D01*
X0015874Y0207200D01*
X0007726Y0207200D01*
X0006600Y0206734D01*
X0006600Y0216800D01*
X0226800Y0216800D01*
X0226800Y0006600D01*
X0054010Y0006600D01*
X0055000Y0007010D01*
X0056590Y0008600D01*
X0057450Y0010676D01*
X0057450Y0012924D01*
X0056590Y0015000D01*
X0055000Y0016590D01*
X0052924Y0017450D01*
X0050676Y0017450D01*
X0050588Y0017413D01*
X0039800Y0028201D01*
X0039800Y0028229D01*
X0040539Y0028968D01*
X0041300Y0030805D01*
X0041300Y0032795D01*
X0040539Y0034632D01*
X0039132Y0036039D01*
X0037295Y0036800D01*
X0035305Y0036800D01*
X0033468Y0036039D01*
X0032061Y0034632D01*
X0031300Y0032795D01*
X0031300Y0030805D01*
X0032061Y0028968D01*
X0033468Y0027561D01*
X0034000Y0027341D01*
X0034000Y0026423D01*
X0034441Y0025357D01*
X0043117Y0016682D01*
X0042983Y0016726D01*
X0042197Y0016850D01*
X0041800Y0016850D01*
X0041800Y0011800D01*
X0041800Y0011800D01*
X0041800Y0006750D01*
X0042197Y0006750D01*
X0042983Y0006874D01*
X0043739Y0007120D01*
X0044447Y0007481D01*
X0045090Y0007948D01*
X0045652Y0008510D01*
X0046119Y0009153D01*
X0046480Y0009861D01*
X0046483Y0009872D01*
X0047010Y0008600D01*
X0048600Y0007010D01*
X0049590Y0006600D01*
X0014010Y0006600D01*
X0015000Y0007010D01*
X0016590Y0008600D01*
X0017117Y0009872D01*
X0017120Y0009861D01*
X0017481Y0009153D01*
X0017948Y0008510D01*
X0018510Y0007948D01*
X0019153Y0007481D01*
X0019861Y0007120D01*
X0020617Y0006874D01*
X0021403Y0006750D01*
X0021800Y0006750D01*
X0022197Y0006750D01*
X0022983Y0006874D01*
X0023739Y0007120D01*
X0024447Y0007481D01*
X0025090Y0007948D01*
X0025652Y0008510D01*
X0026119Y0009153D01*
X0026480Y0009861D01*
X0026726Y0010617D01*
X0026850Y0011403D01*
X0026850Y0011800D01*
X0026850Y0012197D01*
X0026726Y0012983D01*
X0026480Y0013739D01*
X0026119Y0014447D01*
X0025652Y0015090D01*
X0025090Y0015652D01*
X0024447Y0016119D01*
X0023739Y0016480D01*
X0022983Y0016726D01*
X0022197Y0016850D01*
X0021800Y0016850D01*
X0021800Y0011800D01*
X0021800Y0011800D01*
X0026850Y0011800D01*
X0021800Y0011800D01*
X0021800Y0011800D01*
X0021800Y0016850D01*
X0021403Y0016850D01*
X0020617Y0016726D01*
X0020000Y0016525D01*
X0020000Y0027506D01*
X0020132Y0027561D01*
X0021539Y0028968D01*
X0022300Y0030805D01*
X0022300Y0032795D01*
X0021539Y0034632D01*
X0020132Y0036039D01*
X0018295Y0036800D01*
X0016305Y0036800D01*
X0014468Y0036039D01*
X0013061Y0034632D01*
X0012300Y0032795D01*
X0012300Y0030805D01*
X0013061Y0028968D01*
X0014200Y0027829D01*
X0014200Y0018301D01*
X0013224Y0017326D01*
X0012924Y0017450D01*
X0010676Y0017450D01*
X0008600Y0016590D01*
X0007010Y0015000D01*
X0006600Y0014010D01*
X0006600Y0046866D01*
X0007726Y0046400D01*
X0015874Y0046400D01*
X0017859Y0047222D01*
X0019378Y0048741D01*
X0019609Y0049300D01*
X0043991Y0049300D01*
X0044222Y0048741D01*
X0045741Y0047222D01*
X0047726Y0046400D01*
X0055874Y0046400D01*
X0057859Y0047222D01*
X0059378Y0048741D01*
X0060200Y0050726D01*
X0060200Y0052874D01*
X0059378Y0054859D01*
X0057859Y0056378D01*
X0056840Y0056800D01*
X0057859Y0057222D01*
X0059378Y0058741D01*
X0060200Y0060726D01*
X0060200Y0062874D01*
X0059378Y0064859D01*
X0057859Y0066378D01*
X0056840Y0066800D01*
X0057859Y0067222D01*
X0059378Y0068741D01*
X0060200Y0070726D01*
X0060200Y0072874D01*
X0059378Y0074859D01*
X0057859Y0076378D01*
X0056840Y0076800D01*
X0057859Y0077222D01*
X0059378Y0078741D01*
X0060200Y0080726D01*
X0060200Y0082874D01*
X0059378Y0084859D01*
X0057859Y0086378D01*
X0056840Y0086800D01*
X0057859Y0087222D01*
X0059378Y0088741D01*
X0060200Y0090726D01*
X0060200Y0092874D01*
X0059378Y0094859D01*
X0057859Y0096378D01*
X0056840Y0096800D01*
X0057859Y0097222D01*
X0059378Y0098741D01*
X0060200Y0100726D01*
X0060200Y0102874D01*
X0059378Y0104859D01*
X0057859Y0106378D01*
X0056840Y0106800D01*
X0057859Y0107222D01*
X0059378Y0108741D01*
X0060200Y0110726D01*
X0060200Y0112874D01*
X0059378Y0114859D01*
X0057859Y0116378D01*
X0056840Y0116800D01*
X0057859Y0117222D01*
X0059378Y0118741D01*
X0059782Y0119717D01*
X0083500Y0095999D01*
X0083500Y0013823D01*
X0083941Y0012757D01*
X0086641Y0010057D01*
X0087457Y0009241D01*
X0088523Y0008800D01*
X0127477Y0008800D01*
X0128543Y0009241D01*
X0130001Y0010700D01*
X0134327Y0010700D01*
X0137900Y0014273D01*
X0137900Y0018599D01*
X0138001Y0018700D01*
X0177077Y0018700D01*
X0177095Y0018656D01*
X0178656Y0017095D01*
X0180696Y0016250D01*
X0182904Y0016250D01*
X0184944Y0017095D01*
X0186505Y0018656D01*
X0186926Y0019673D01*
X0189750Y0016850D01*
X0191800Y0016850D01*
X0193850Y0016850D01*
X0196750Y0019750D01*
X0196750Y0021800D01*
X0196750Y0023850D01*
X0193850Y0026750D01*
X0191800Y0026750D01*
X0191800Y0021800D01*
X0191800Y0021800D01*
X0196750Y0021800D01*
X0191800Y0021800D01*
X0191800Y0021800D01*
X0191800Y0026750D01*
X0189750Y0026750D01*
X0186926Y0023927D01*
X0186505Y0024944D01*
X0184944Y0026505D01*
X0182904Y0027350D01*
X0180696Y0027350D01*
X0178656Y0026505D01*
X0177095Y0024944D01*
X0176911Y0024500D01*
X0137900Y0024500D01*
X0137900Y0029327D01*
X0135614Y0031613D01*
X0163789Y0059787D01*
X0164222Y0058741D01*
X0165741Y0057222D01*
X0166760Y0056800D01*
X0165741Y0056378D01*
X0164222Y0054859D01*
X0163400Y0052874D01*
X0163400Y0050726D01*
X0164222Y0048741D01*
X0165741Y0047222D01*
X0167726Y0046400D01*
X0175874Y0046400D01*
X0177859Y0047222D01*
X0179378Y0048741D01*
X0179609Y0049300D01*
X0203991Y0049300D01*
X0204222Y0048741D01*
X0205741Y0047222D01*
X0207726Y0046400D01*
X0215874Y0046400D01*
X0217859Y0047222D01*
X0219378Y0048741D01*
X0220200Y0050726D01*
X0220200Y0052874D01*
X0219378Y0054859D01*
X0217859Y0056378D01*
X0216840Y0056800D01*
X0217859Y0057222D01*
X0219378Y0058741D01*
X0220200Y0060726D01*
X0220200Y0062874D01*
X0219378Y0064859D01*
X0217859Y0066378D01*
X0216840Y0066800D01*
X0217859Y0067222D01*
X0219378Y0068741D01*
X0220200Y0070726D01*
X0220200Y0072874D01*
X0219378Y0074859D01*
X0217859Y0076378D01*
X0216840Y0076800D01*
X0217859Y0077222D01*
X0219378Y0078741D01*
X0220200Y0080726D01*
X0220200Y0082874D01*
X0219378Y0084859D01*
X0217859Y0086378D01*
X0216840Y0086800D01*
X0217859Y0087222D01*
X0219378Y0088741D01*
X0220200Y0090726D01*
X0220200Y0092874D01*
X0219378Y0094859D01*
X0217859Y0096378D01*
X0216840Y0096800D01*
X0217859Y0097222D01*
X0219378Y0098741D01*
X0220200Y0100726D01*
X0220200Y0102874D01*
X0219378Y0104859D01*
X0217859Y0106378D01*
X0216840Y0106800D01*
X0217859Y0107222D01*
X0219378Y0108741D01*
X0220200Y0110726D01*
X0220200Y0112874D01*
X0219378Y0114859D01*
X0217859Y0116378D01*
X0216840Y0116800D01*
X0217859Y0117222D01*
X0219378Y0118741D01*
X0220200Y0120726D01*
X0220200Y0122874D01*
X0219378Y0124859D01*
X0217859Y0126378D01*
X0216840Y0126800D01*
X0217859Y0127222D01*
X0219378Y0128741D01*
X0220200Y0130726D01*
X0220200Y0132874D01*
X0219378Y0134859D01*
X0217859Y0136378D01*
X0216840Y0136800D01*
X0217859Y0137222D01*
X0219378Y0138741D01*
X0220200Y0140726D01*
X0220200Y0142874D01*
X0219378Y0144859D01*
X0217859Y0146378D01*
X0216840Y0146800D01*
X0217859Y0147222D01*
X0219378Y0148741D01*
X0220200Y0150726D01*
X0220200Y0152874D01*
X0219378Y0154859D01*
X0217859Y0156378D01*
X0216840Y0156800D01*
X0217859Y0157222D01*
X0219378Y0158741D01*
X0220200Y0160726D01*
X0220200Y0162874D01*
X0219378Y0164859D01*
X0217859Y0166378D01*
X0216840Y0166800D01*
X0217859Y0167222D01*
X0219378Y0168741D01*
X0220200Y0170726D01*
X0220200Y0172874D01*
X0219378Y0174859D01*
X0217859Y0176378D01*
X0216840Y0176800D01*
X0217859Y0177222D01*
X0219378Y0178741D01*
X0220200Y0180726D01*
X0220200Y0182874D01*
X0219378Y0184859D01*
X0217859Y0186378D01*
X0216840Y0186800D01*
X0217859Y0187222D01*
X0219378Y0188741D01*
X0220200Y0190726D01*
X0220200Y0192874D01*
X0219378Y0194859D01*
X0217859Y0196378D01*
X0216840Y0196800D01*
X0217859Y0197222D01*
X0219378Y0198741D01*
X0220200Y0200726D01*
X0220200Y0202874D01*
X0219378Y0204859D01*
X0217859Y0206378D01*
X0215874Y0207200D01*
X0207726Y0207200D01*
X0205741Y0206378D01*
X0204222Y0204859D01*
X0204073Y0204500D01*
X0179527Y0204500D01*
X0179378Y0204859D01*
X0177859Y0206378D01*
X0175874Y0207200D01*
X0167726Y0207200D01*
X0165741Y0206378D01*
X0164222Y0204859D01*
X0163400Y0202874D01*
X0163400Y0200726D01*
X0164222Y0198741D01*
X0165741Y0197222D01*
X0166760Y0196800D01*
X0165741Y0196378D01*
X0164222Y0194859D01*
X0163400Y0192874D01*
X0163400Y0190726D01*
X0164222Y0188741D01*
X0165741Y0187222D01*
X0166760Y0186800D01*
X0165741Y0186378D01*
X0164222Y0184859D01*
X0163400Y0182874D01*
X0163400Y0180726D01*
X0164222Y0178741D01*
X0165741Y0177222D01*
X0166760Y0176800D01*
X0165741Y0176378D01*
X0164222Y0174859D01*
X0163400Y0172874D01*
X0163400Y0170726D01*
X0164222Y0168741D01*
X0165741Y0167222D01*
X0166760Y0166800D01*
X0165741Y0166378D01*
X0164222Y0164859D01*
X0163400Y0162874D01*
X0163400Y0160726D01*
X0164222Y0158741D01*
X0165741Y0157222D01*
X0166760Y0156800D01*
X0165741Y0156378D01*
X0164222Y0154859D01*
X0163400Y0152874D01*
X0163400Y0150726D01*
X0164222Y0148741D01*
X0165741Y0147222D01*
X0166760Y0146800D01*
X0165741Y0146378D01*
X0164222Y0144859D01*
X0163400Y0142874D01*
X0163400Y0140726D01*
X0164222Y0138741D01*
X0165741Y0137222D01*
X0166760Y0136800D01*
X0165741Y0136378D01*
X0164222Y0134859D01*
X0163400Y0132874D01*
X0163400Y0130726D01*
X0164222Y0128741D01*
X0165741Y0127222D01*
X0166760Y0126800D01*
X0165741Y0126378D01*
X0164222Y0124859D01*
X0163400Y0122874D01*
X0163400Y0120726D01*
X0164222Y0118741D01*
X0165741Y0117222D01*
X0166760Y0116800D01*
X0165741Y0116378D01*
X0164222Y0114859D01*
X0163400Y0112874D01*
X0163400Y0110726D01*
X0164222Y0108741D01*
X0165741Y0107222D01*
X0166760Y0106800D01*
X0165741Y0106378D01*
X0164222Y0104859D01*
X0163400Y0102874D01*
X0163400Y0100726D01*
X0164222Y0098741D01*
X0165741Y0097222D01*
X0166760Y0096800D01*
X0165741Y0096378D01*
X0164222Y0094859D01*
X0163400Y0092874D01*
X0163400Y0090726D01*
X0163583Y0090284D01*
X0105263Y0031964D01*
X0104327Y0032900D01*
X0099273Y0032900D01*
X0096800Y0030427D01*
X0096653Y0030573D02*
X0096947Y0030573D01*
X0098545Y0032172D02*
X0095055Y0032172D01*
X0089300Y0033770D02*
X0107069Y0033770D01*
X0105471Y0032172D02*
X0105055Y0032172D01*
X0108668Y0035369D02*
X0089300Y0035369D01*
X0089300Y0036967D02*
X0110266Y0036967D01*
X0111865Y0038566D02*
X0089300Y0038566D01*
X0089300Y0040164D02*
X0113463Y0040164D01*
X0115062Y0041763D02*
X0089300Y0041763D01*
X0089300Y0043361D02*
X0116660Y0043361D01*
X0118259Y0044960D02*
X0089300Y0044960D01*
X0089300Y0046558D02*
X0119857Y0046558D01*
X0121456Y0048157D02*
X0089300Y0048157D01*
X0089300Y0049755D02*
X0123054Y0049755D01*
X0124653Y0051354D02*
X0089300Y0051354D01*
X0089300Y0052952D02*
X0126251Y0052952D01*
X0127850Y0054551D02*
X0089300Y0054551D01*
X0089300Y0056149D02*
X0129448Y0056149D01*
X0131047Y0057748D02*
X0089300Y0057748D01*
X0089300Y0059346D02*
X0132645Y0059346D01*
X0134244Y0060945D02*
X0089300Y0060945D01*
X0089300Y0062543D02*
X0135842Y0062543D01*
X0137441Y0064142D02*
X0089300Y0064142D01*
X0089300Y0065740D02*
X0139039Y0065740D01*
X0140638Y0067339D02*
X0089300Y0067339D01*
X0089300Y0068937D02*
X0142236Y0068937D01*
X0143835Y0070536D02*
X0089300Y0070536D01*
X0089300Y0072134D02*
X0145433Y0072134D01*
X0147032Y0073733D02*
X0089300Y0073733D01*
X0089300Y0075332D02*
X0148630Y0075332D01*
X0150229Y0076930D02*
X0089300Y0076930D01*
X0089300Y0078529D02*
X0151827Y0078529D01*
X0153426Y0080127D02*
X0089300Y0080127D01*
X0089300Y0081726D02*
X0155024Y0081726D01*
X0156623Y0083324D02*
X0089300Y0083324D01*
X0089300Y0084923D02*
X0158221Y0084923D01*
X0159820Y0086521D02*
X0089300Y0086521D01*
X0089300Y0088120D02*
X0161418Y0088120D01*
X0163017Y0089718D02*
X0089300Y0089718D01*
X0089300Y0091317D02*
X0163400Y0091317D01*
X0163417Y0092915D02*
X0089300Y0092915D01*
X0089300Y0094514D02*
X0164079Y0094514D01*
X0165475Y0096112D02*
X0089300Y0096112D01*
X0089300Y0097711D02*
X0165253Y0097711D01*
X0163987Y0099309D02*
X0088392Y0099309D01*
X0086794Y0100908D02*
X0163400Y0100908D01*
X0163400Y0102506D02*
X0085195Y0102506D01*
X0083596Y0104105D02*
X0163910Y0104105D01*
X0165066Y0105703D02*
X0081998Y0105703D01*
X0080399Y0107302D02*
X0165661Y0107302D01*
X0164156Y0108900D02*
X0078801Y0108900D01*
X0077202Y0110499D02*
X0163494Y0110499D01*
X0163400Y0112097D02*
X0075604Y0112097D01*
X0074005Y0113696D02*
X0163740Y0113696D01*
X0164658Y0115294D02*
X0072407Y0115294D01*
X0070808Y0116893D02*
X0166536Y0116893D01*
X0164472Y0118491D02*
X0069210Y0118491D01*
X0067611Y0120090D02*
X0163663Y0120090D01*
X0163400Y0121688D02*
X0066013Y0121688D01*
X0064414Y0123287D02*
X0163571Y0123287D01*
X0164249Y0124885D02*
X0062816Y0124885D01*
X0061217Y0126484D02*
X0165997Y0126484D01*
X0164881Y0128082D02*
X0059619Y0128082D01*
X0059767Y0129681D02*
X0163833Y0129681D01*
X0163400Y0131279D02*
X0060200Y0131279D01*
X0060198Y0132878D02*
X0163402Y0132878D01*
X0164064Y0134476D02*
X0059536Y0134476D01*
X0058162Y0136075D02*
X0165438Y0136075D01*
X0165290Y0137673D02*
X0057274Y0137673D01*
X0058896Y0139272D02*
X0164002Y0139272D01*
X0163400Y0140870D02*
X0059513Y0140870D01*
X0059554Y0142469D02*
X0163400Y0142469D01*
X0163894Y0144068D02*
X0059032Y0144068D01*
X0057645Y0145666D02*
X0165029Y0145666D01*
X0165699Y0147265D02*
X0057901Y0147265D01*
X0059428Y0148863D02*
X0164172Y0148863D01*
X0163509Y0150462D02*
X0060091Y0150462D01*
X0060200Y0152060D02*
X0163400Y0152060D01*
X0163725Y0153659D02*
X0059875Y0153659D01*
X0058980Y0155257D02*
X0164620Y0155257D01*
X0166626Y0156856D02*
X0056974Y0156856D01*
X0059091Y0158454D02*
X0164509Y0158454D01*
X0163679Y0160053D02*
X0059921Y0160053D01*
X0060200Y0161651D02*
X0163400Y0161651D01*
X0163556Y0163250D02*
X0060044Y0163250D01*
X0059382Y0164848D02*
X0164218Y0164848D01*
X0165907Y0166447D02*
X0057693Y0166447D01*
X0058682Y0168045D02*
X0164918Y0168045D01*
X0163848Y0169644D02*
X0059752Y0169644D01*
X0060200Y0171242D02*
X0163400Y0171242D01*
X0163400Y0172841D02*
X0060200Y0172841D01*
X0059552Y0174439D02*
X0164048Y0174439D01*
X0165401Y0176038D02*
X0058199Y0176038D01*
X0058273Y0177636D02*
X0165327Y0177636D01*
X0164018Y0179235D02*
X0059582Y0179235D01*
X0060200Y0180833D02*
X0163400Y0180833D01*
X0163400Y0182432D02*
X0060200Y0182432D01*
X0059721Y0184030D02*
X0163879Y0184030D01*
X0164992Y0185629D02*
X0058608Y0185629D01*
X0057864Y0187227D02*
X0165736Y0187227D01*
X0164187Y0188826D02*
X0059413Y0188826D01*
X0060075Y0190424D02*
X0163525Y0190424D01*
X0163400Y0192023D02*
X0060200Y0192023D01*
X0059890Y0193621D02*
X0163710Y0193621D01*
X0164583Y0195220D02*
X0059017Y0195220D01*
X0056884Y0196818D02*
X0166716Y0196818D01*
X0164546Y0198417D02*
X0059054Y0198417D01*
X0059906Y0200015D02*
X0163694Y0200015D01*
X0163400Y0201614D02*
X0060200Y0201614D01*
X0060060Y0203212D02*
X0163540Y0203212D01*
X0164202Y0204811D02*
X0059398Y0204811D01*
X0057783Y0206409D02*
X0165817Y0206409D01*
X0177783Y0206409D02*
X0205817Y0206409D01*
X0204202Y0204811D02*
X0179398Y0204811D01*
X0216884Y0196818D02*
X0226800Y0196818D01*
X0226800Y0195220D02*
X0219017Y0195220D01*
X0219890Y0193621D02*
X0226800Y0193621D01*
X0226800Y0192023D02*
X0220200Y0192023D01*
X0220075Y0190424D02*
X0226800Y0190424D01*
X0226800Y0188826D02*
X0219413Y0188826D01*
X0217864Y0187227D02*
X0226800Y0187227D01*
X0226800Y0185629D02*
X0218608Y0185629D01*
X0219721Y0184030D02*
X0226800Y0184030D01*
X0226800Y0182432D02*
X0220200Y0182432D01*
X0220200Y0180833D02*
X0226800Y0180833D01*
X0226800Y0179235D02*
X0219582Y0179235D01*
X0218273Y0177636D02*
X0226800Y0177636D01*
X0226800Y0176038D02*
X0218199Y0176038D01*
X0219552Y0174439D02*
X0226800Y0174439D01*
X0226800Y0172841D02*
X0220200Y0172841D01*
X0220200Y0171242D02*
X0226800Y0171242D01*
X0226800Y0169644D02*
X0219752Y0169644D01*
X0218682Y0168045D02*
X0226800Y0168045D01*
X0226800Y0166447D02*
X0217693Y0166447D01*
X0219382Y0164848D02*
X0226800Y0164848D01*
X0226800Y0163250D02*
X0220044Y0163250D01*
X0220200Y0161651D02*
X0226800Y0161651D01*
X0226800Y0160053D02*
X0219921Y0160053D01*
X0219091Y0158454D02*
X0226800Y0158454D01*
X0226800Y0156856D02*
X0216974Y0156856D01*
X0218980Y0155257D02*
X0226800Y0155257D01*
X0226800Y0153659D02*
X0219875Y0153659D01*
X0220200Y0152060D02*
X0226800Y0152060D01*
X0226800Y0150462D02*
X0220091Y0150462D01*
X0219428Y0148863D02*
X0226800Y0148863D01*
X0226800Y0147265D02*
X0217901Y0147265D01*
X0218571Y0145666D02*
X0226800Y0145666D01*
X0226800Y0144068D02*
X0219706Y0144068D01*
X0220200Y0142469D02*
X0226800Y0142469D01*
X0226800Y0140870D02*
X0220200Y0140870D01*
X0219598Y0139272D02*
X0226800Y0139272D01*
X0226800Y0137673D02*
X0218310Y0137673D01*
X0218162Y0136075D02*
X0226800Y0136075D01*
X0226800Y0134476D02*
X0219536Y0134476D01*
X0220198Y0132878D02*
X0226800Y0132878D01*
X0226800Y0131279D02*
X0220200Y0131279D01*
X0219767Y0129681D02*
X0226800Y0129681D01*
X0226800Y0128082D02*
X0218719Y0128082D01*
X0217603Y0126484D02*
X0226800Y0126484D01*
X0226800Y0124885D02*
X0219351Y0124885D01*
X0220029Y0123287D02*
X0226800Y0123287D01*
X0226800Y0121688D02*
X0220200Y0121688D01*
X0219937Y0120090D02*
X0226800Y0120090D01*
X0226800Y0118491D02*
X0219128Y0118491D01*
X0217064Y0116893D02*
X0226800Y0116893D01*
X0226800Y0115294D02*
X0218942Y0115294D01*
X0219860Y0113696D02*
X0226800Y0113696D01*
X0226800Y0112097D02*
X0220200Y0112097D01*
X0220106Y0110499D02*
X0226800Y0110499D01*
X0226800Y0108900D02*
X0219444Y0108900D01*
X0217938Y0107302D02*
X0226800Y0107302D01*
X0226800Y0105703D02*
X0218534Y0105703D01*
X0219690Y0104105D02*
X0226800Y0104105D01*
X0226800Y0102506D02*
X0220200Y0102506D01*
X0220200Y0100908D02*
X0226800Y0100908D01*
X0226800Y0099309D02*
X0219613Y0099309D01*
X0218347Y0097711D02*
X0226800Y0097711D01*
X0226800Y0096112D02*
X0218125Y0096112D01*
X0219521Y0094514D02*
X0226800Y0094514D01*
X0226800Y0092915D02*
X0220183Y0092915D01*
X0220200Y0091317D02*
X0226800Y0091317D01*
X0226800Y0089718D02*
X0219783Y0089718D01*
X0218756Y0088120D02*
X0226800Y0088120D01*
X0226800Y0086521D02*
X0217513Y0086521D01*
X0219314Y0084923D02*
X0226800Y0084923D01*
X0226800Y0083324D02*
X0220014Y0083324D01*
X0220200Y0081726D02*
X0226800Y0081726D01*
X0226800Y0080127D02*
X0219952Y0080127D01*
X0219165Y0078529D02*
X0226800Y0078529D01*
X0226800Y0076930D02*
X0217154Y0076930D01*
X0218905Y0075332D02*
X0226800Y0075332D01*
X0226800Y0073733D02*
X0219844Y0073733D01*
X0220200Y0072134D02*
X0226800Y0072134D01*
X0226800Y0070536D02*
X0220121Y0070536D01*
X0219459Y0068937D02*
X0226800Y0068937D01*
X0226800Y0067339D02*
X0217976Y0067339D01*
X0218496Y0065740D02*
X0226800Y0065740D01*
X0226800Y0064142D02*
X0219675Y0064142D01*
X0220200Y0062543D02*
X0226800Y0062543D01*
X0226800Y0060945D02*
X0220200Y0060945D01*
X0219629Y0059346D02*
X0226800Y0059346D01*
X0226800Y0057748D02*
X0218385Y0057748D01*
X0218087Y0056149D02*
X0226800Y0056149D01*
X0226800Y0054551D02*
X0219505Y0054551D01*
X0220168Y0052952D02*
X0226800Y0052952D01*
X0226800Y0051354D02*
X0220200Y0051354D01*
X0219798Y0049755D02*
X0226800Y0049755D01*
X0226800Y0048157D02*
X0218794Y0048157D01*
X0216256Y0046558D02*
X0226800Y0046558D01*
X0226800Y0044960D02*
X0148961Y0044960D01*
X0150560Y0046558D02*
X0167344Y0046558D01*
X0164806Y0048157D02*
X0152158Y0048157D01*
X0153757Y0049755D02*
X0163802Y0049755D01*
X0163400Y0051354D02*
X0155355Y0051354D01*
X0156954Y0052952D02*
X0163432Y0052952D01*
X0164095Y0054551D02*
X0158552Y0054551D01*
X0160151Y0056149D02*
X0165513Y0056149D01*
X0165215Y0057748D02*
X0161749Y0057748D01*
X0163348Y0059346D02*
X0163971Y0059346D01*
X0176256Y0046558D02*
X0207344Y0046558D01*
X0204806Y0048157D02*
X0178794Y0048157D01*
X0177929Y0025778D02*
X0137900Y0025778D01*
X0137900Y0027376D02*
X0226800Y0027376D01*
X0226800Y0025778D02*
X0194823Y0025778D01*
X0196421Y0024179D02*
X0226800Y0024179D01*
X0226800Y0022581D02*
X0196750Y0022581D01*
X0196750Y0020982D02*
X0226800Y0020982D01*
X0226800Y0019384D02*
X0196384Y0019384D01*
X0194785Y0017785D02*
X0226800Y0017785D01*
X0226800Y0016187D02*
X0137900Y0016187D01*
X0137900Y0017785D02*
X0177966Y0017785D01*
X0185634Y0017785D02*
X0188815Y0017785D01*
X0187216Y0019384D02*
X0186806Y0019384D01*
X0186822Y0024179D02*
X0187179Y0024179D01*
X0185671Y0025778D02*
X0188777Y0025778D01*
X0191800Y0025778D02*
X0191800Y0025778D01*
X0191800Y0024179D02*
X0191800Y0024179D01*
X0191800Y0022581D02*
X0191800Y0022581D01*
X0191800Y0021800D02*
X0191800Y0016850D01*
X0191800Y0021800D01*
X0191800Y0021800D01*
X0191800Y0020982D02*
X0191800Y0020982D01*
X0191800Y0019384D02*
X0191800Y0019384D01*
X0191800Y0017785D02*
X0191800Y0017785D01*
X0226800Y0014588D02*
X0137900Y0014588D01*
X0136616Y0012990D02*
X0226800Y0012990D01*
X0226800Y0011391D02*
X0135018Y0011391D01*
X0129094Y0009793D02*
X0226800Y0009793D01*
X0226800Y0008194D02*
X0056184Y0008194D01*
X0057084Y0009793D02*
X0086906Y0009793D01*
X0085308Y0011391D02*
X0057450Y0011391D01*
X0057423Y0012990D02*
X0083845Y0012990D01*
X0083500Y0014588D02*
X0056761Y0014588D01*
X0055404Y0016187D02*
X0083500Y0016187D01*
X0083500Y0017785D02*
X0050216Y0017785D01*
X0048618Y0019384D02*
X0083500Y0019384D01*
X0083500Y0020982D02*
X0047019Y0020982D01*
X0045421Y0022581D02*
X0083500Y0022581D01*
X0083500Y0024179D02*
X0043822Y0024179D01*
X0042224Y0025778D02*
X0083500Y0025778D01*
X0083500Y0027376D02*
X0040625Y0027376D01*
X0040542Y0028975D02*
X0083500Y0028975D01*
X0083500Y0030573D02*
X0041204Y0030573D01*
X0041300Y0032172D02*
X0083500Y0032172D01*
X0083500Y0033770D02*
X0040896Y0033770D01*
X0039802Y0035369D02*
X0083500Y0035369D01*
X0083500Y0036967D02*
X0006600Y0036967D01*
X0006600Y0035369D02*
X0013798Y0035369D01*
X0012704Y0033770D02*
X0006600Y0033770D01*
X0006600Y0032172D02*
X0012300Y0032172D01*
X0012396Y0030573D02*
X0006600Y0030573D01*
X0006600Y0028975D02*
X0013058Y0028975D01*
X0014200Y0027376D02*
X0006600Y0027376D01*
X0006600Y0025778D02*
X0014200Y0025778D01*
X0014200Y0024179D02*
X0006600Y0024179D01*
X0006600Y0022581D02*
X0014200Y0022581D01*
X0014200Y0020982D02*
X0006600Y0020982D01*
X0006600Y0019384D02*
X0014200Y0019384D01*
X0013684Y0017785D02*
X0006600Y0017785D01*
X0006600Y0016187D02*
X0008196Y0016187D01*
X0006839Y0014588D02*
X0006600Y0014588D01*
X0016184Y0008194D02*
X0018264Y0008194D01*
X0017155Y0009793D02*
X0017084Y0009793D01*
X0021800Y0009793D02*
X0021800Y0009793D01*
X0021800Y0011391D02*
X0021800Y0011391D01*
X0021800Y0011800D02*
X0021800Y0006750D01*
X0021800Y0011800D01*
X0021800Y0011800D01*
X0021800Y0012990D02*
X0021800Y0012990D01*
X0021800Y0014588D02*
X0021800Y0014588D01*
X0021800Y0016187D02*
X0021800Y0016187D01*
X0020000Y0017785D02*
X0042014Y0017785D01*
X0041800Y0016850D02*
X0041403Y0016850D01*
X0040617Y0016726D01*
X0039861Y0016480D01*
X0039153Y0016119D01*
X0038510Y0015652D01*
X0037948Y0015090D01*
X0037481Y0014447D01*
X0037120Y0013739D01*
X0036874Y0012983D01*
X0036750Y0012197D01*
X0036750Y0011800D01*
X0041800Y0011800D01*
X0041800Y0011800D01*
X0041800Y0011800D01*
X0041800Y0016850D01*
X0041800Y0016187D02*
X0041800Y0016187D01*
X0041800Y0014588D02*
X0041800Y0014588D01*
X0041800Y0012990D02*
X0041800Y0012990D01*
X0041800Y0011800D02*
X0036750Y0011800D01*
X0036750Y0011403D01*
X0036874Y0010617D01*
X0037120Y0009861D01*
X0037481Y0009153D01*
X0037948Y0008510D01*
X0038510Y0007948D01*
X0039153Y0007481D01*
X0039861Y0007120D01*
X0040617Y0006874D01*
X0041403Y0006750D01*
X0041800Y0006750D01*
X0041800Y0011800D01*
X0041800Y0011391D02*
X0041800Y0011391D01*
X0041800Y0009793D02*
X0041800Y0009793D01*
X0041800Y0008194D02*
X0041800Y0008194D01*
X0045336Y0008194D02*
X0047416Y0008194D01*
X0046516Y0009793D02*
X0046445Y0009793D01*
X0038264Y0008194D02*
X0025336Y0008194D01*
X0026445Y0009793D02*
X0037155Y0009793D01*
X0036752Y0011391D02*
X0026848Y0011391D01*
X0026723Y0012990D02*
X0036877Y0012990D01*
X0037584Y0014588D02*
X0026016Y0014588D01*
X0024314Y0016187D02*
X0039286Y0016187D01*
X0040415Y0019384D02*
X0020000Y0019384D01*
X0020000Y0020982D02*
X0038817Y0020982D01*
X0037218Y0022581D02*
X0020000Y0022581D01*
X0020000Y0024179D02*
X0035620Y0024179D01*
X0034267Y0025778D02*
X0020000Y0025778D01*
X0020000Y0027376D02*
X0033914Y0027376D01*
X0032058Y0028975D02*
X0021542Y0028975D01*
X0022204Y0030573D02*
X0031396Y0030573D01*
X0031300Y0032172D02*
X0022300Y0032172D01*
X0021896Y0033770D02*
X0031704Y0033770D01*
X0032798Y0035369D02*
X0020802Y0035369D01*
X0016256Y0046558D02*
X0047344Y0046558D01*
X0044806Y0048157D02*
X0018794Y0048157D01*
X0007344Y0046558D02*
X0006600Y0046558D01*
X0006600Y0044960D02*
X0083500Y0044960D01*
X0083500Y0046558D02*
X0056256Y0046558D01*
X0058794Y0048157D02*
X0083500Y0048157D01*
X0083500Y0049755D02*
X0059798Y0049755D01*
X0060200Y0051354D02*
X0083500Y0051354D01*
X0083500Y0052952D02*
X0060168Y0052952D01*
X0059505Y0054551D02*
X0083500Y0054551D01*
X0083500Y0056149D02*
X0058087Y0056149D01*
X0058385Y0057748D02*
X0083500Y0057748D01*
X0083500Y0059346D02*
X0059629Y0059346D01*
X0060200Y0060945D02*
X0083500Y0060945D01*
X0083500Y0062543D02*
X0060200Y0062543D01*
X0059675Y0064142D02*
X0083500Y0064142D01*
X0083500Y0065740D02*
X0058496Y0065740D01*
X0057976Y0067339D02*
X0083500Y0067339D01*
X0083500Y0068937D02*
X0059459Y0068937D01*
X0060121Y0070536D02*
X0083500Y0070536D01*
X0083500Y0072134D02*
X0060200Y0072134D01*
X0059844Y0073733D02*
X0083500Y0073733D01*
X0083500Y0075332D02*
X0058905Y0075332D01*
X0057154Y0076930D02*
X0083500Y0076930D01*
X0083500Y0078529D02*
X0059165Y0078529D01*
X0059952Y0080127D02*
X0083500Y0080127D01*
X0083500Y0081726D02*
X0060200Y0081726D01*
X0060014Y0083324D02*
X0083500Y0083324D01*
X0083500Y0084923D02*
X0059314Y0084923D01*
X0057513Y0086521D02*
X0083500Y0086521D01*
X0083500Y0088120D02*
X0058756Y0088120D01*
X0059783Y0089718D02*
X0083500Y0089718D01*
X0083500Y0091317D02*
X0060200Y0091317D01*
X0060183Y0092915D02*
X0083500Y0092915D01*
X0083500Y0094514D02*
X0059521Y0094514D01*
X0058125Y0096112D02*
X0083387Y0096112D01*
X0081788Y0097711D02*
X0058347Y0097711D01*
X0059613Y0099309D02*
X0080190Y0099309D01*
X0078591Y0100908D02*
X0060200Y0100908D01*
X0060200Y0102506D02*
X0076993Y0102506D01*
X0075394Y0104105D02*
X0059690Y0104105D01*
X0058534Y0105703D02*
X0073796Y0105703D01*
X0072197Y0107302D02*
X0057938Y0107302D01*
X0059444Y0108900D02*
X0070599Y0108900D01*
X0069000Y0110499D02*
X0060106Y0110499D01*
X0060200Y0112097D02*
X0067401Y0112097D01*
X0065803Y0113696D02*
X0059860Y0113696D01*
X0058942Y0115294D02*
X0064204Y0115294D01*
X0062606Y0116893D02*
X0057064Y0116893D01*
X0059128Y0118491D02*
X0061007Y0118491D01*
X0047593Y0137145D02*
X0045741Y0136378D01*
X0044563Y0135200D01*
X0019037Y0135200D01*
X0017859Y0136378D01*
X0016007Y0137145D01*
X0016643Y0137352D01*
X0017316Y0137695D01*
X0017927Y0138139D01*
X0018461Y0138673D01*
X0018905Y0139284D01*
X0019248Y0139957D01*
X0019482Y0140676D01*
X0019600Y0141422D01*
X0019600Y0141600D01*
X0012000Y0141600D01*
X0012000Y0142000D01*
X0019600Y0142000D01*
X0019600Y0142178D01*
X0019482Y0142924D01*
X0019248Y0143643D01*
X0018905Y0144316D01*
X0018461Y0144927D01*
X0017927Y0145461D01*
X0017316Y0145905D01*
X0016643Y0146248D01*
X0016007Y0146455D01*
X0017859Y0147222D01*
X0019378Y0148741D01*
X0019568Y0149200D01*
X0044032Y0149200D01*
X0044222Y0148741D01*
X0045741Y0147222D01*
X0047593Y0146455D01*
X0046957Y0146248D01*
X0046284Y0145905D01*
X0045673Y0145461D01*
X0045139Y0144927D01*
X0044695Y0144316D01*
X0044352Y0143643D01*
X0044118Y0142924D01*
X0044000Y0142178D01*
X0044000Y0142000D01*
X0051600Y0142000D01*
X0051600Y0141600D01*
X0044000Y0141600D01*
X0044000Y0141422D01*
X0044118Y0140676D01*
X0044352Y0139957D01*
X0044695Y0139284D01*
X0045139Y0138673D01*
X0045673Y0138139D01*
X0046284Y0137695D01*
X0046957Y0137352D01*
X0047593Y0137145D01*
X0046326Y0137673D02*
X0017274Y0137673D01*
X0018162Y0136075D02*
X0045438Y0136075D01*
X0044704Y0139272D02*
X0018896Y0139272D01*
X0019513Y0140870D02*
X0044087Y0140870D01*
X0044046Y0142469D02*
X0019554Y0142469D01*
X0019032Y0144068D02*
X0044568Y0144068D01*
X0045955Y0145666D02*
X0017645Y0145666D01*
X0017901Y0147265D02*
X0045699Y0147265D01*
X0044172Y0148863D02*
X0019428Y0148863D01*
X0019398Y0204811D02*
X0044202Y0204811D01*
X0045817Y0206409D02*
X0017783Y0206409D01*
X0006600Y0208008D02*
X0226800Y0208008D01*
X0226800Y0209606D02*
X0006600Y0209606D01*
X0006600Y0211205D02*
X0226800Y0211205D01*
X0226800Y0212803D02*
X0006600Y0212803D01*
X0006600Y0214402D02*
X0226800Y0214402D01*
X0226800Y0216001D02*
X0006600Y0216001D01*
X0217783Y0206409D02*
X0226800Y0206409D01*
X0226800Y0204811D02*
X0219398Y0204811D01*
X0220060Y0203212D02*
X0226800Y0203212D01*
X0226800Y0201614D02*
X0220200Y0201614D01*
X0219906Y0200015D02*
X0226800Y0200015D01*
X0226800Y0198417D02*
X0219054Y0198417D01*
X0226800Y0043361D02*
X0147363Y0043361D01*
X0145764Y0041763D02*
X0226800Y0041763D01*
X0226800Y0040164D02*
X0144165Y0040164D01*
X0142567Y0038566D02*
X0226800Y0038566D01*
X0226800Y0036967D02*
X0140968Y0036967D01*
X0139370Y0035369D02*
X0226800Y0035369D01*
X0226800Y0033770D02*
X0137771Y0033770D01*
X0136173Y0032172D02*
X0226800Y0032172D01*
X0226800Y0030573D02*
X0136653Y0030573D01*
X0137900Y0028975D02*
X0226800Y0028975D01*
X0083500Y0038566D02*
X0006600Y0038566D01*
X0006600Y0040164D02*
X0083500Y0040164D01*
X0083500Y0041763D02*
X0006600Y0041763D01*
X0006600Y0043361D02*
X0083500Y0043361D01*
X0021800Y0008194D02*
X0021800Y0008194D01*
M02*
