G75*
%MOIN*%
%OFA0B0*%
%FSLAX25Y25*%
%IPPOS*%
%LPD*%
%AMOC8*
5,1,8,0,0,1.08239X$1,22.5*
%
%ADD10OC8,0.06300*%
%ADD11C,0.06300*%
%ADD12OC8,0.07400*%
%ADD13C,0.06000*%
%ADD14C,0.05200*%
%ADD15C,0.06500*%
%ADD16C,0.01000*%
%ADD17C,0.04000*%
%ADD18C,0.01600*%
D10*
X0191800Y0021800D03*
D11*
X0181800Y0021800D03*
D12*
X0131800Y0016800D03*
X0131800Y0026800D03*
X0121800Y0026800D03*
X0111800Y0026800D03*
X0111800Y0016800D03*
X0121800Y0016800D03*
X0101800Y0016800D03*
X0091800Y0016800D03*
X0091800Y0026800D03*
X0101800Y0026800D03*
D13*
X0054800Y0051800D02*
X0048800Y0051800D01*
X0048800Y0061800D02*
X0054800Y0061800D01*
X0054800Y0071800D02*
X0048800Y0071800D01*
X0048800Y0081800D02*
X0054800Y0081800D01*
X0054800Y0091800D02*
X0048800Y0091800D01*
X0048800Y0101800D02*
X0054800Y0101800D01*
X0054800Y0111800D02*
X0048800Y0111800D01*
X0048800Y0121800D02*
X0054800Y0121800D01*
X0054800Y0131800D02*
X0048800Y0131800D01*
X0048800Y0141800D02*
X0054800Y0141800D01*
X0054800Y0151800D02*
X0048800Y0151800D01*
X0048800Y0161800D02*
X0054800Y0161800D01*
X0054800Y0171800D02*
X0048800Y0171800D01*
X0048800Y0181800D02*
X0054800Y0181800D01*
X0054800Y0191800D02*
X0048800Y0191800D01*
X0048800Y0201800D02*
X0054800Y0201800D01*
X0014800Y0201800D02*
X0008800Y0201800D01*
X0008800Y0191800D02*
X0014800Y0191800D01*
X0014800Y0181800D02*
X0008800Y0181800D01*
X0008800Y0171800D02*
X0014800Y0171800D01*
X0014800Y0161800D02*
X0008800Y0161800D01*
X0008800Y0151800D02*
X0014800Y0151800D01*
X0014800Y0141800D02*
X0008800Y0141800D01*
X0008800Y0131800D02*
X0014800Y0131800D01*
X0014800Y0121800D02*
X0008800Y0121800D01*
X0008800Y0111800D02*
X0014800Y0111800D01*
X0014800Y0101800D02*
X0008800Y0101800D01*
X0008800Y0091800D02*
X0014800Y0091800D01*
X0014800Y0081800D02*
X0008800Y0081800D01*
X0008800Y0071800D02*
X0014800Y0071800D01*
X0014800Y0061800D02*
X0008800Y0061800D01*
X0008800Y0051800D02*
X0014800Y0051800D01*
X0168800Y0051800D02*
X0174800Y0051800D01*
X0174800Y0061800D02*
X0168800Y0061800D01*
X0168800Y0071800D02*
X0174800Y0071800D01*
X0174800Y0081800D02*
X0168800Y0081800D01*
X0168800Y0091800D02*
X0174800Y0091800D01*
X0174800Y0101800D02*
X0168800Y0101800D01*
X0168800Y0111800D02*
X0174800Y0111800D01*
X0174800Y0121800D02*
X0168800Y0121800D01*
X0168800Y0131800D02*
X0174800Y0131800D01*
X0174800Y0141800D02*
X0168800Y0141800D01*
X0168800Y0151800D02*
X0174800Y0151800D01*
X0174800Y0161800D02*
X0168800Y0161800D01*
X0168800Y0171800D02*
X0174800Y0171800D01*
X0174800Y0181800D02*
X0168800Y0181800D01*
X0168800Y0191800D02*
X0174800Y0191800D01*
X0174800Y0201800D02*
X0168800Y0201800D01*
X0208800Y0201800D02*
X0214800Y0201800D01*
X0214800Y0191800D02*
X0208800Y0191800D01*
X0208800Y0181800D02*
X0214800Y0181800D01*
X0214800Y0171800D02*
X0208800Y0171800D01*
X0208800Y0161800D02*
X0214800Y0161800D01*
X0214800Y0151800D02*
X0208800Y0151800D01*
X0208800Y0141800D02*
X0214800Y0141800D01*
X0214800Y0131800D02*
X0208800Y0131800D01*
X0208800Y0121800D02*
X0214800Y0121800D01*
X0214800Y0111800D02*
X0208800Y0111800D01*
X0208800Y0101800D02*
X0214800Y0101800D01*
X0214800Y0091800D02*
X0208800Y0091800D01*
X0208800Y0081800D02*
X0214800Y0081800D01*
X0214800Y0071800D02*
X0208800Y0071800D01*
X0208800Y0061800D02*
X0214800Y0061800D01*
X0214800Y0051800D02*
X0208800Y0051800D01*
D14*
X0036300Y0031800D03*
X0017300Y0031800D03*
D15*
X0021800Y0011800D03*
X0011800Y0011800D03*
X0041800Y0011800D03*
X0051800Y0011800D03*
D16*
X0050400Y0017100D02*
X0059400Y0017100D01*
X0059400Y0134100D01*
X0052200Y0141300D01*
X0051800Y0141800D01*
X0012600Y0101700D02*
X0011800Y0101800D01*
X0012600Y0101700D02*
X0019800Y0094500D01*
X0019800Y0050400D01*
X0018000Y0048600D01*
X0018000Y0032400D01*
X0017300Y0031800D01*
X0036300Y0031800D02*
X0036900Y0032400D01*
X0036900Y0077400D01*
X0051300Y0091800D01*
X0051800Y0091800D01*
X0091800Y0027000D02*
X0091800Y0026800D01*
X0091800Y0027000D02*
X0094500Y0027000D01*
X0148500Y0081000D01*
X0171000Y0081000D01*
X0171800Y0081800D01*
X0177300Y0077400D02*
X0179100Y0079200D01*
X0179100Y0083700D01*
X0175500Y0087300D01*
X0166500Y0087300D01*
X0052200Y0201600D01*
X0051800Y0201800D01*
X0164700Y0077400D02*
X0177300Y0077400D01*
X0164700Y0077400D02*
X0114300Y0027000D01*
X0112500Y0027000D01*
X0111800Y0026800D01*
X0096300Y0011700D02*
X0091800Y0016200D01*
X0091800Y0016800D01*
X0091800Y0017100D01*
X0059400Y0017100D01*
X0050400Y0017100D02*
X0045900Y0012600D01*
X0042300Y0012600D01*
X0041800Y0011800D01*
X0096300Y0011700D02*
X0178200Y0011700D01*
X0188100Y0021600D01*
X0191700Y0021600D01*
X0191800Y0021800D01*
D17*
X0096300Y0021600D03*
D18*
X0015000Y0007010D02*
X0014010Y0006600D01*
X0049590Y0006600D01*
X0048600Y0007010D01*
X0047010Y0008600D01*
X0046483Y0009872D01*
X0046480Y0009861D01*
X0046119Y0009153D01*
X0045652Y0008510D01*
X0045090Y0007948D01*
X0044447Y0007481D01*
X0043739Y0007120D01*
X0042983Y0006874D01*
X0042197Y0006750D01*
X0041800Y0006750D01*
X0041800Y0011800D01*
X0041800Y0011800D01*
X0041800Y0016850D01*
X0042197Y0016850D01*
X0042983Y0016726D01*
X0043739Y0016480D01*
X0044447Y0016119D01*
X0045090Y0015652D01*
X0045652Y0015090D01*
X0046119Y0014447D01*
X0046480Y0013739D01*
X0046483Y0013728D01*
X0047010Y0015000D01*
X0048600Y0016590D01*
X0050676Y0017450D01*
X0052924Y0017450D01*
X0055000Y0016590D01*
X0056590Y0015000D01*
X0057450Y0012924D01*
X0057450Y0010676D01*
X0056590Y0008600D01*
X0055000Y0007010D01*
X0054010Y0006600D01*
X0226800Y0006600D01*
X0226800Y0216800D01*
X0006600Y0216800D01*
X0006600Y0206734D01*
X0007726Y0207200D01*
X0015874Y0207200D01*
X0017859Y0206378D01*
X0019378Y0204859D01*
X0020200Y0202874D01*
X0020200Y0200726D01*
X0019378Y0198741D01*
X0017859Y0197222D01*
X0016840Y0196800D01*
X0017859Y0196378D01*
X0019378Y0194859D01*
X0020200Y0192874D01*
X0020200Y0190726D01*
X0019378Y0188741D01*
X0017859Y0187222D01*
X0016840Y0186800D01*
X0017859Y0186378D01*
X0019378Y0184859D01*
X0020200Y0182874D01*
X0020200Y0180726D01*
X0019378Y0178741D01*
X0017859Y0177222D01*
X0016840Y0176800D01*
X0017859Y0176378D01*
X0019378Y0174859D01*
X0020200Y0172874D01*
X0020200Y0170726D01*
X0019378Y0168741D01*
X0017859Y0167222D01*
X0016840Y0166800D01*
X0017859Y0166378D01*
X0019378Y0164859D01*
X0020200Y0162874D01*
X0020200Y0160726D01*
X0019378Y0158741D01*
X0017859Y0157222D01*
X0016840Y0156800D01*
X0017859Y0156378D01*
X0019378Y0154859D01*
X0020200Y0152874D01*
X0020200Y0150726D01*
X0019378Y0148741D01*
X0017859Y0147222D01*
X0016007Y0146455D01*
X0016643Y0146248D01*
X0017316Y0145905D01*
X0017927Y0145461D01*
X0018461Y0144927D01*
X0018905Y0144316D01*
X0019248Y0143643D01*
X0019482Y0142924D01*
X0019600Y0142178D01*
X0019600Y0142000D01*
X0012000Y0142000D01*
X0012000Y0141600D01*
X0019600Y0141600D01*
X0019600Y0141422D01*
X0019482Y0140676D01*
X0019248Y0139957D01*
X0018905Y0139284D01*
X0018461Y0138673D01*
X0017927Y0138139D01*
X0017316Y0137695D01*
X0016643Y0137352D01*
X0016007Y0137145D01*
X0017859Y0136378D01*
X0019378Y0134859D01*
X0020200Y0132874D01*
X0020200Y0130726D01*
X0019378Y0128741D01*
X0017859Y0127222D01*
X0016840Y0126800D01*
X0017859Y0126378D01*
X0019378Y0124859D01*
X0020200Y0122874D01*
X0020200Y0120726D01*
X0019378Y0118741D01*
X0017859Y0117222D01*
X0016840Y0116800D01*
X0017859Y0116378D01*
X0019378Y0114859D01*
X0020200Y0112874D01*
X0020200Y0110726D01*
X0019378Y0108741D01*
X0017859Y0107222D01*
X0016840Y0106800D01*
X0017859Y0106378D01*
X0019378Y0104859D01*
X0020200Y0102874D01*
X0020200Y0100726D01*
X0019461Y0098941D01*
X0022258Y0096143D01*
X0022700Y0095077D01*
X0022700Y0049823D01*
X0022258Y0048757D01*
X0021443Y0047941D01*
X0020900Y0047399D01*
X0020900Y0035271D01*
X0021539Y0034632D01*
X0022300Y0032795D01*
X0022300Y0030805D01*
X0021539Y0028968D01*
X0020132Y0027561D01*
X0018295Y0026800D01*
X0016305Y0026800D01*
X0014468Y0027561D01*
X0013061Y0028968D01*
X0012300Y0030805D01*
X0012300Y0032795D01*
X0013061Y0034632D01*
X0014468Y0036039D01*
X0015100Y0036301D01*
X0015100Y0046400D01*
X0007726Y0046400D01*
X0006600Y0046866D01*
X0006600Y0014010D01*
X0007010Y0015000D01*
X0008600Y0016590D01*
X0010676Y0017450D01*
X0012924Y0017450D01*
X0015000Y0016590D01*
X0016590Y0015000D01*
X0017117Y0013728D01*
X0017120Y0013739D01*
X0017481Y0014447D01*
X0017948Y0015090D01*
X0018510Y0015652D01*
X0019153Y0016119D01*
X0019861Y0016480D01*
X0020617Y0016726D01*
X0021403Y0016850D01*
X0021800Y0016850D01*
X0021800Y0011800D01*
X0021800Y0011800D01*
X0026850Y0011800D01*
X0026850Y0012197D01*
X0026726Y0012983D01*
X0026480Y0013739D01*
X0026119Y0014447D01*
X0025652Y0015090D01*
X0025090Y0015652D01*
X0024447Y0016119D01*
X0023739Y0016480D01*
X0022983Y0016726D01*
X0022197Y0016850D01*
X0021800Y0016850D01*
X0021800Y0011800D01*
X0021800Y0011800D01*
X0026850Y0011800D01*
X0026850Y0011403D01*
X0026726Y0010617D01*
X0026480Y0009861D01*
X0026119Y0009153D01*
X0025652Y0008510D01*
X0025090Y0007948D01*
X0024447Y0007481D01*
X0023739Y0007120D01*
X0022983Y0006874D01*
X0022197Y0006750D01*
X0021800Y0006750D01*
X0021800Y0011800D01*
X0021800Y0011800D01*
X0021800Y0006750D01*
X0021403Y0006750D01*
X0020617Y0006874D01*
X0019861Y0007120D01*
X0019153Y0007481D01*
X0018510Y0007948D01*
X0017948Y0008510D01*
X0017481Y0009153D01*
X0017120Y0009861D01*
X0017117Y0009872D01*
X0016590Y0008600D01*
X0015000Y0007010D01*
X0016184Y0008194D02*
X0018264Y0008194D01*
X0017155Y0009793D02*
X0017084Y0009793D01*
X0021800Y0009793D02*
X0021800Y0009793D01*
X0021800Y0011391D02*
X0021800Y0011391D01*
X0021800Y0012990D02*
X0021800Y0012990D01*
X0021800Y0014588D02*
X0021800Y0014588D01*
X0021800Y0016187D02*
X0021800Y0016187D01*
X0019286Y0016187D02*
X0015404Y0016187D01*
X0016761Y0014588D02*
X0017584Y0014588D01*
X0024314Y0016187D02*
X0039286Y0016187D01*
X0039153Y0016119D02*
X0038510Y0015652D01*
X0037948Y0015090D01*
X0037481Y0014447D01*
X0037120Y0013739D01*
X0036874Y0012983D01*
X0036750Y0012197D01*
X0036750Y0011800D01*
X0041800Y0011800D01*
X0041800Y0011800D01*
X0041800Y0011800D01*
X0041800Y0016850D01*
X0041403Y0016850D01*
X0040617Y0016726D01*
X0039861Y0016480D01*
X0039153Y0016119D01*
X0037584Y0014588D02*
X0026016Y0014588D01*
X0026723Y0012990D02*
X0036877Y0012990D01*
X0036750Y0011800D02*
X0036750Y0011403D01*
X0036874Y0010617D01*
X0037120Y0009861D01*
X0037481Y0009153D01*
X0037948Y0008510D01*
X0038510Y0007948D01*
X0039153Y0007481D01*
X0039861Y0007120D01*
X0040617Y0006874D01*
X0041403Y0006750D01*
X0041800Y0006750D01*
X0041800Y0011800D01*
X0036750Y0011800D01*
X0036752Y0011391D02*
X0026848Y0011391D01*
X0026445Y0009793D02*
X0037155Y0009793D01*
X0038264Y0008194D02*
X0025336Y0008194D01*
X0021800Y0008194D02*
X0021800Y0008194D01*
X0008196Y0016187D02*
X0006600Y0016187D01*
X0006600Y0017785D02*
X0086300Y0017785D01*
X0086300Y0017000D02*
X0091600Y0017000D01*
X0091600Y0020700D01*
X0092000Y0020700D01*
X0092000Y0017000D01*
X0091600Y0017000D01*
X0091600Y0016600D01*
X0092000Y0016600D01*
X0092000Y0011300D01*
X0094078Y0011300D01*
X0096376Y0013598D01*
X0099273Y0010700D01*
X0104327Y0010700D01*
X0106800Y0013173D01*
X0109273Y0010700D01*
X0114327Y0010700D01*
X0116800Y0013173D01*
X0119273Y0010700D01*
X0124327Y0010700D01*
X0126800Y0013173D01*
X0129273Y0010700D01*
X0134327Y0010700D01*
X0137900Y0014273D01*
X0137900Y0019327D01*
X0135427Y0021800D01*
X0137900Y0024273D01*
X0137900Y0029327D01*
X0134327Y0032900D01*
X0129273Y0032900D01*
X0126800Y0030427D01*
X0124327Y0032900D01*
X0124301Y0032900D01*
X0163400Y0071999D01*
X0163400Y0070726D01*
X0164222Y0068741D01*
X0165741Y0067222D01*
X0166760Y0066800D01*
X0165741Y0066378D01*
X0164222Y0064859D01*
X0163400Y0062874D01*
X0163400Y0060726D01*
X0164222Y0058741D01*
X0165741Y0057222D01*
X0166760Y0056800D01*
X0165741Y0056378D01*
X0164222Y0054859D01*
X0163400Y0052874D01*
X0163400Y0050726D01*
X0164222Y0048741D01*
X0165741Y0047222D01*
X0167726Y0046400D01*
X0175874Y0046400D01*
X0177859Y0047222D01*
X0179378Y0048741D01*
X0180200Y0050726D01*
X0180200Y0052874D01*
X0179378Y0054859D01*
X0177859Y0056378D01*
X0176840Y0056800D01*
X0177859Y0057222D01*
X0179378Y0058741D01*
X0180200Y0060726D01*
X0180200Y0062874D01*
X0179378Y0064859D01*
X0177859Y0066378D01*
X0176840Y0066800D01*
X0177859Y0067222D01*
X0179378Y0068741D01*
X0180200Y0070726D01*
X0180200Y0072874D01*
X0179378Y0074859D01*
X0179119Y0075118D01*
X0180743Y0076741D01*
X0181558Y0077557D01*
X0182000Y0078623D01*
X0182000Y0084277D01*
X0181558Y0085343D01*
X0178769Y0088132D01*
X0179378Y0088741D01*
X0180200Y0090726D01*
X0180200Y0092874D01*
X0179378Y0094859D01*
X0177859Y0096378D01*
X0176840Y0096800D01*
X0177859Y0097222D01*
X0179378Y0098741D01*
X0180200Y0100726D01*
X0180200Y0102874D01*
X0179378Y0104859D01*
X0177859Y0106378D01*
X0176840Y0106800D01*
X0177859Y0107222D01*
X0179378Y0108741D01*
X0180200Y0110726D01*
X0180200Y0112874D01*
X0179378Y0114859D01*
X0177859Y0116378D01*
X0176840Y0116800D01*
X0177859Y0117222D01*
X0179378Y0118741D01*
X0180200Y0120726D01*
X0180200Y0122874D01*
X0179378Y0124859D01*
X0177859Y0126378D01*
X0176840Y0126800D01*
X0177859Y0127222D01*
X0179378Y0128741D01*
X0180200Y0130726D01*
X0180200Y0132874D01*
X0179378Y0134859D01*
X0177859Y0136378D01*
X0176840Y0136800D01*
X0177859Y0137222D01*
X0179378Y0138741D01*
X0180200Y0140726D01*
X0180200Y0142874D01*
X0179378Y0144859D01*
X0177859Y0146378D01*
X0176840Y0146800D01*
X0177859Y0147222D01*
X0179378Y0148741D01*
X0180200Y0150726D01*
X0180200Y0152874D01*
X0179378Y0154859D01*
X0177859Y0156378D01*
X0176840Y0156800D01*
X0177859Y0157222D01*
X0179378Y0158741D01*
X0180200Y0160726D01*
X0180200Y0162874D01*
X0179378Y0164859D01*
X0177859Y0166378D01*
X0176840Y0166800D01*
X0177859Y0167222D01*
X0179378Y0168741D01*
X0180200Y0170726D01*
X0180200Y0172874D01*
X0179378Y0174859D01*
X0177859Y0176378D01*
X0176840Y0176800D01*
X0177859Y0177222D01*
X0179378Y0178741D01*
X0180200Y0180726D01*
X0180200Y0182874D01*
X0179378Y0184859D01*
X0177859Y0186378D01*
X0176840Y0186800D01*
X0177859Y0187222D01*
X0179378Y0188741D01*
X0180200Y0190726D01*
X0180200Y0192874D01*
X0179378Y0194859D01*
X0177859Y0196378D01*
X0176840Y0196800D01*
X0177859Y0197222D01*
X0179378Y0198741D01*
X0180200Y0200726D01*
X0180200Y0202874D01*
X0179378Y0204859D01*
X0177859Y0206378D01*
X0175874Y0207200D01*
X0167726Y0207200D01*
X0165741Y0206378D01*
X0164222Y0204859D01*
X0163400Y0202874D01*
X0163400Y0200726D01*
X0164222Y0198741D01*
X0165741Y0197222D01*
X0166760Y0196800D01*
X0165741Y0196378D01*
X0164222Y0194859D01*
X0163400Y0192874D01*
X0163400Y0190726D01*
X0164222Y0188741D01*
X0165741Y0187222D01*
X0166760Y0186800D01*
X0165741Y0186378D01*
X0164222Y0184859D01*
X0163400Y0182874D01*
X0163400Y0180726D01*
X0164222Y0178741D01*
X0165741Y0177222D01*
X0166760Y0176800D01*
X0165741Y0176378D01*
X0164222Y0174859D01*
X0163400Y0172874D01*
X0163400Y0170726D01*
X0164222Y0168741D01*
X0165741Y0167222D01*
X0166760Y0166800D01*
X0165741Y0166378D01*
X0164222Y0164859D01*
X0163400Y0162874D01*
X0163400Y0160726D01*
X0164222Y0158741D01*
X0165741Y0157222D01*
X0166760Y0156800D01*
X0165741Y0156378D01*
X0164222Y0154859D01*
X0163400Y0152874D01*
X0163400Y0150726D01*
X0164222Y0148741D01*
X0165741Y0147222D01*
X0166760Y0146800D01*
X0165741Y0146378D01*
X0164222Y0144859D01*
X0163400Y0142874D01*
X0163400Y0140726D01*
X0164222Y0138741D01*
X0165741Y0137222D01*
X0166760Y0136800D01*
X0165741Y0136378D01*
X0164222Y0134859D01*
X0163400Y0132874D01*
X0163400Y0130726D01*
X0164222Y0128741D01*
X0165741Y0127222D01*
X0166760Y0126800D01*
X0165741Y0126378D01*
X0164222Y0124859D01*
X0163400Y0122874D01*
X0163400Y0120726D01*
X0164222Y0118741D01*
X0165741Y0117222D01*
X0166760Y0116800D01*
X0165741Y0116378D01*
X0164222Y0114859D01*
X0163400Y0112874D01*
X0163400Y0110726D01*
X0164222Y0108741D01*
X0165741Y0107222D01*
X0166760Y0106800D01*
X0165741Y0106378D01*
X0164222Y0104859D01*
X0163400Y0102874D01*
X0163400Y0100726D01*
X0164222Y0098741D01*
X0165741Y0097222D01*
X0166760Y0096800D01*
X0165741Y0096378D01*
X0164222Y0094859D01*
X0163877Y0094025D01*
X0059269Y0198632D01*
X0059378Y0198741D01*
X0060200Y0200726D01*
X0060200Y0202874D01*
X0059378Y0204859D01*
X0057859Y0206378D01*
X0055874Y0207200D01*
X0047726Y0207200D01*
X0045741Y0206378D01*
X0044222Y0204859D01*
X0043400Y0202874D01*
X0043400Y0200726D01*
X0044222Y0198741D01*
X0045741Y0197222D01*
X0046760Y0196800D01*
X0045741Y0196378D01*
X0044222Y0194859D01*
X0043400Y0192874D01*
X0043400Y0190726D01*
X0044222Y0188741D01*
X0045741Y0187222D01*
X0046760Y0186800D01*
X0045741Y0186378D01*
X0044222Y0184859D01*
X0043400Y0182874D01*
X0043400Y0180726D01*
X0044222Y0178741D01*
X0045741Y0177222D01*
X0046760Y0176800D01*
X0045741Y0176378D01*
X0044222Y0174859D01*
X0043400Y0172874D01*
X0043400Y0170726D01*
X0044222Y0168741D01*
X0045741Y0167222D01*
X0046760Y0166800D01*
X0045741Y0166378D01*
X0044222Y0164859D01*
X0043400Y0162874D01*
X0043400Y0160726D01*
X0044222Y0158741D01*
X0045741Y0157222D01*
X0046760Y0156800D01*
X0045741Y0156378D01*
X0044222Y0154859D01*
X0043400Y0152874D01*
X0043400Y0150726D01*
X0044222Y0148741D01*
X0045741Y0147222D01*
X0047593Y0146455D01*
X0046957Y0146248D01*
X0046284Y0145905D01*
X0045673Y0145461D01*
X0045139Y0144927D01*
X0044695Y0144316D01*
X0044352Y0143643D01*
X0044118Y0142924D01*
X0044000Y0142178D01*
X0044000Y0142000D01*
X0051600Y0142000D01*
X0051600Y0141600D01*
X0044000Y0141600D01*
X0044000Y0141422D01*
X0044118Y0140676D01*
X0044352Y0139957D01*
X0044695Y0139284D01*
X0045139Y0138673D01*
X0045673Y0138139D01*
X0046284Y0137695D01*
X0046957Y0137352D01*
X0047593Y0137145D01*
X0045741Y0136378D01*
X0044222Y0134859D01*
X0043400Y0132874D01*
X0043400Y0130726D01*
X0044222Y0128741D01*
X0045741Y0127222D01*
X0046760Y0126800D01*
X0045741Y0126378D01*
X0044222Y0124859D01*
X0043400Y0122874D01*
X0043400Y0120726D01*
X0044222Y0118741D01*
X0045741Y0117222D01*
X0046760Y0116800D01*
X0045741Y0116378D01*
X0044222Y0114859D01*
X0043400Y0112874D01*
X0043400Y0110726D01*
X0044222Y0108741D01*
X0045741Y0107222D01*
X0046760Y0106800D01*
X0045741Y0106378D01*
X0044222Y0104859D01*
X0043400Y0102874D01*
X0043400Y0100726D01*
X0044222Y0098741D01*
X0045741Y0097222D01*
X0046760Y0096800D01*
X0045741Y0096378D01*
X0044222Y0094859D01*
X0043400Y0092874D01*
X0043400Y0090726D01*
X0044198Y0088799D01*
X0034441Y0079043D01*
X0034000Y0077977D01*
X0034000Y0036259D01*
X0033468Y0036039D01*
X0032061Y0034632D01*
X0031300Y0032795D01*
X0031300Y0030805D01*
X0032061Y0028968D01*
X0033468Y0027561D01*
X0035305Y0026800D01*
X0037295Y0026800D01*
X0039132Y0027561D01*
X0040539Y0028968D01*
X0041300Y0030805D01*
X0041300Y0032795D01*
X0040539Y0034632D01*
X0039800Y0035371D01*
X0039800Y0076199D01*
X0043672Y0080070D01*
X0044222Y0078741D01*
X0045741Y0077222D01*
X0046760Y0076800D01*
X0045741Y0076378D01*
X0044222Y0074859D01*
X0043400Y0072874D01*
X0043400Y0070726D01*
X0044222Y0068741D01*
X0045741Y0067222D01*
X0046760Y0066800D01*
X0045741Y0066378D01*
X0044222Y0064859D01*
X0043400Y0062874D01*
X0043400Y0060726D01*
X0044222Y0058741D01*
X0045741Y0057222D01*
X0046760Y0056800D01*
X0045741Y0056378D01*
X0044222Y0054859D01*
X0043400Y0052874D01*
X0043400Y0050726D01*
X0044222Y0048741D01*
X0045741Y0047222D01*
X0047726Y0046400D01*
X0055874Y0046400D01*
X0057859Y0047222D01*
X0059378Y0048741D01*
X0060200Y0050726D01*
X0060200Y0052874D01*
X0059378Y0054859D01*
X0057859Y0056378D01*
X0056840Y0056800D01*
X0057859Y0057222D01*
X0059378Y0058741D01*
X0060200Y0060726D01*
X0060200Y0062874D01*
X0059378Y0064859D01*
X0057859Y0066378D01*
X0056840Y0066800D01*
X0057859Y0067222D01*
X0059378Y0068741D01*
X0060200Y0070726D01*
X0060200Y0072874D01*
X0059378Y0074859D01*
X0057859Y0076378D01*
X0056840Y0076800D01*
X0057859Y0077222D01*
X0059378Y0078741D01*
X0060200Y0080726D01*
X0060200Y0082874D01*
X0059378Y0084859D01*
X0057859Y0086378D01*
X0056840Y0086800D01*
X0057859Y0087222D01*
X0059378Y0088741D01*
X0060200Y0090726D01*
X0060200Y0092874D01*
X0059378Y0094859D01*
X0057859Y0096378D01*
X0056840Y0096800D01*
X0057859Y0097222D01*
X0059378Y0098741D01*
X0060200Y0100726D01*
X0060200Y0102874D01*
X0059378Y0104859D01*
X0057859Y0106378D01*
X0056840Y0106800D01*
X0057859Y0107222D01*
X0059378Y0108741D01*
X0060200Y0110726D01*
X0060200Y0112874D01*
X0059378Y0114859D01*
X0057859Y0116378D01*
X0056840Y0116800D01*
X0057859Y0117222D01*
X0059378Y0118741D01*
X0060200Y0120726D01*
X0060200Y0122874D01*
X0059378Y0124859D01*
X0057859Y0126378D01*
X0056840Y0126800D01*
X0057859Y0127222D01*
X0059378Y0128741D01*
X0060200Y0130726D01*
X0060200Y0132874D01*
X0059378Y0134859D01*
X0057859Y0136378D01*
X0056007Y0137145D01*
X0056643Y0137352D01*
X0057316Y0137695D01*
X0057927Y0138139D01*
X0058461Y0138673D01*
X0058905Y0139284D01*
X0059248Y0139957D01*
X0059482Y0140676D01*
X0059600Y0141422D01*
X0059600Y0141600D01*
X0052000Y0141600D01*
X0052000Y0142000D01*
X0059600Y0142000D01*
X0059600Y0142178D01*
X0059482Y0142924D01*
X0059248Y0143643D01*
X0058905Y0144316D01*
X0058461Y0144927D01*
X0057927Y0145461D01*
X0057316Y0145905D01*
X0056643Y0146248D01*
X0056007Y0146455D01*
X0057859Y0147222D01*
X0059378Y0148741D01*
X0060200Y0150726D01*
X0060200Y0152874D01*
X0059378Y0154859D01*
X0057859Y0156378D01*
X0056840Y0156800D01*
X0057859Y0157222D01*
X0059378Y0158741D01*
X0060200Y0160726D01*
X0060200Y0162874D01*
X0059378Y0164859D01*
X0057859Y0166378D01*
X0056840Y0166800D01*
X0057859Y0167222D01*
X0059378Y0168741D01*
X0060200Y0170726D01*
X0060200Y0172874D01*
X0059378Y0174859D01*
X0057859Y0176378D01*
X0056840Y0176800D01*
X0057859Y0177222D01*
X0059378Y0178741D01*
X0060200Y0180726D01*
X0060200Y0182874D01*
X0059378Y0184859D01*
X0057859Y0186378D01*
X0056840Y0186800D01*
X0057859Y0187222D01*
X0059378Y0188741D01*
X0059841Y0189858D01*
X0164531Y0085168D01*
X0164222Y0084859D01*
X0163825Y0083900D01*
X0147923Y0083900D01*
X0146857Y0083458D01*
X0146041Y0082643D01*
X0095313Y0031914D01*
X0094327Y0032900D01*
X0089273Y0032900D01*
X0085700Y0029327D01*
X0085700Y0024273D01*
X0088598Y0021376D01*
X0086300Y0019078D01*
X0086300Y0017000D01*
X0086300Y0016600D02*
X0086300Y0014522D01*
X0089522Y0011300D01*
X0091600Y0011300D01*
X0091600Y0016600D01*
X0086300Y0016600D01*
X0086300Y0016187D02*
X0055404Y0016187D01*
X0056761Y0014588D02*
X0086300Y0014588D01*
X0087832Y0012990D02*
X0057423Y0012990D01*
X0057450Y0011391D02*
X0089431Y0011391D01*
X0091600Y0011391D02*
X0092000Y0011391D01*
X0092000Y0012990D02*
X0091600Y0012990D01*
X0091600Y0014588D02*
X0092000Y0014588D01*
X0092000Y0016187D02*
X0091600Y0016187D01*
X0091600Y0017785D02*
X0092000Y0017785D01*
X0092000Y0019384D02*
X0091600Y0019384D01*
X0088204Y0020982D02*
X0006600Y0020982D01*
X0006600Y0019384D02*
X0086605Y0019384D01*
X0087393Y0022581D02*
X0006600Y0022581D01*
X0006600Y0024179D02*
X0085794Y0024179D01*
X0085700Y0025778D02*
X0006600Y0025778D01*
X0006600Y0027376D02*
X0014914Y0027376D01*
X0013058Y0028975D02*
X0006600Y0028975D01*
X0006600Y0030573D02*
X0012396Y0030573D01*
X0012300Y0032172D02*
X0006600Y0032172D01*
X0006600Y0033770D02*
X0012704Y0033770D01*
X0013798Y0035369D02*
X0006600Y0035369D01*
X0006600Y0036967D02*
X0015100Y0036967D01*
X0015100Y0038566D02*
X0006600Y0038566D01*
X0006600Y0040164D02*
X0015100Y0040164D01*
X0015100Y0041763D02*
X0006600Y0041763D01*
X0006600Y0043361D02*
X0015100Y0043361D01*
X0015100Y0044960D02*
X0006600Y0044960D01*
X0006600Y0046558D02*
X0007344Y0046558D01*
X0020900Y0046558D02*
X0034000Y0046558D01*
X0034000Y0044960D02*
X0020900Y0044960D01*
X0020900Y0043361D02*
X0034000Y0043361D01*
X0034000Y0041763D02*
X0020900Y0041763D01*
X0020900Y0040164D02*
X0034000Y0040164D01*
X0034000Y0038566D02*
X0020900Y0038566D01*
X0020900Y0036967D02*
X0034000Y0036967D01*
X0032798Y0035369D02*
X0020900Y0035369D01*
X0021896Y0033770D02*
X0031704Y0033770D01*
X0031300Y0032172D02*
X0022300Y0032172D01*
X0022204Y0030573D02*
X0031396Y0030573D01*
X0032058Y0028975D02*
X0021542Y0028975D01*
X0019686Y0027376D02*
X0033914Y0027376D01*
X0038686Y0027376D02*
X0085700Y0027376D01*
X0085700Y0028975D02*
X0040542Y0028975D01*
X0041204Y0030573D02*
X0086947Y0030573D01*
X0088545Y0032172D02*
X0041300Y0032172D01*
X0040896Y0033770D02*
X0097169Y0033770D01*
X0095570Y0032172D02*
X0095055Y0032172D01*
X0098768Y0035369D02*
X0039802Y0035369D01*
X0039800Y0036967D02*
X0100366Y0036967D01*
X0101965Y0038566D02*
X0039800Y0038566D01*
X0039800Y0040164D02*
X0103563Y0040164D01*
X0105162Y0041763D02*
X0039800Y0041763D01*
X0039800Y0043361D02*
X0106760Y0043361D01*
X0108359Y0044960D02*
X0039800Y0044960D01*
X0039800Y0046558D02*
X0047344Y0046558D01*
X0044806Y0048157D02*
X0039800Y0048157D01*
X0039800Y0049755D02*
X0043802Y0049755D01*
X0043400Y0051354D02*
X0039800Y0051354D01*
X0039800Y0052952D02*
X0043432Y0052952D01*
X0044095Y0054551D02*
X0039800Y0054551D01*
X0039800Y0056149D02*
X0045513Y0056149D01*
X0045215Y0057748D02*
X0039800Y0057748D01*
X0039800Y0059346D02*
X0043971Y0059346D01*
X0043400Y0060945D02*
X0039800Y0060945D01*
X0039800Y0062543D02*
X0043400Y0062543D01*
X0043925Y0064142D02*
X0039800Y0064142D01*
X0039800Y0065740D02*
X0045104Y0065740D01*
X0045624Y0067339D02*
X0039800Y0067339D01*
X0039800Y0068937D02*
X0044141Y0068937D01*
X0043479Y0070536D02*
X0039800Y0070536D01*
X0039800Y0072134D02*
X0043400Y0072134D01*
X0043756Y0073733D02*
X0039800Y0073733D01*
X0039800Y0075332D02*
X0044695Y0075332D01*
X0046446Y0076930D02*
X0040531Y0076930D01*
X0042130Y0078529D02*
X0044435Y0078529D01*
X0038723Y0083324D02*
X0022700Y0083324D01*
X0022700Y0081726D02*
X0037124Y0081726D01*
X0035526Y0080127D02*
X0022700Y0080127D01*
X0022700Y0078529D02*
X0034229Y0078529D01*
X0034000Y0076930D02*
X0022700Y0076930D01*
X0022700Y0075332D02*
X0034000Y0075332D01*
X0034000Y0073733D02*
X0022700Y0073733D01*
X0022700Y0072134D02*
X0034000Y0072134D01*
X0034000Y0070536D02*
X0022700Y0070536D01*
X0022700Y0068937D02*
X0034000Y0068937D01*
X0034000Y0067339D02*
X0022700Y0067339D01*
X0022700Y0065740D02*
X0034000Y0065740D01*
X0034000Y0064142D02*
X0022700Y0064142D01*
X0022700Y0062543D02*
X0034000Y0062543D01*
X0034000Y0060945D02*
X0022700Y0060945D01*
X0022700Y0059346D02*
X0034000Y0059346D01*
X0034000Y0057748D02*
X0022700Y0057748D01*
X0022700Y0056149D02*
X0034000Y0056149D01*
X0034000Y0054551D02*
X0022700Y0054551D01*
X0022700Y0052952D02*
X0034000Y0052952D01*
X0034000Y0051354D02*
X0022700Y0051354D01*
X0022672Y0049755D02*
X0034000Y0049755D01*
X0034000Y0048157D02*
X0021658Y0048157D01*
X0056256Y0046558D02*
X0109957Y0046558D01*
X0111556Y0048157D02*
X0058794Y0048157D01*
X0059798Y0049755D02*
X0113154Y0049755D01*
X0114753Y0051354D02*
X0060200Y0051354D01*
X0060168Y0052952D02*
X0116351Y0052952D01*
X0117950Y0054551D02*
X0059505Y0054551D01*
X0058087Y0056149D02*
X0119548Y0056149D01*
X0121147Y0057748D02*
X0058385Y0057748D01*
X0059629Y0059346D02*
X0122745Y0059346D01*
X0124344Y0060945D02*
X0060200Y0060945D01*
X0060200Y0062543D02*
X0125942Y0062543D01*
X0127541Y0064142D02*
X0059675Y0064142D01*
X0058496Y0065740D02*
X0129139Y0065740D01*
X0130738Y0067339D02*
X0057976Y0067339D01*
X0059459Y0068937D02*
X0132336Y0068937D01*
X0133935Y0070536D02*
X0060121Y0070536D01*
X0060200Y0072134D02*
X0135533Y0072134D01*
X0137132Y0073733D02*
X0059844Y0073733D01*
X0058905Y0075332D02*
X0138730Y0075332D01*
X0140329Y0076930D02*
X0057154Y0076930D01*
X0059165Y0078529D02*
X0141927Y0078529D01*
X0143526Y0080127D02*
X0059952Y0080127D01*
X0060200Y0081726D02*
X0145124Y0081726D01*
X0146723Y0083324D02*
X0060014Y0083324D01*
X0059314Y0084923D02*
X0164286Y0084923D01*
X0163178Y0086521D02*
X0057513Y0086521D01*
X0058756Y0088120D02*
X0161579Y0088120D01*
X0159981Y0089718D02*
X0059783Y0089718D01*
X0060200Y0091317D02*
X0158382Y0091317D01*
X0156784Y0092915D02*
X0060183Y0092915D01*
X0059521Y0094514D02*
X0155185Y0094514D01*
X0153587Y0096112D02*
X0058125Y0096112D01*
X0058347Y0097711D02*
X0151988Y0097711D01*
X0150390Y0099309D02*
X0059613Y0099309D01*
X0060200Y0100908D02*
X0148791Y0100908D01*
X0147193Y0102506D02*
X0060200Y0102506D01*
X0059690Y0104105D02*
X0145594Y0104105D01*
X0143996Y0105703D02*
X0058534Y0105703D01*
X0057938Y0107302D02*
X0142397Y0107302D01*
X0140799Y0108900D02*
X0059444Y0108900D01*
X0060106Y0110499D02*
X0139200Y0110499D01*
X0137602Y0112097D02*
X0060200Y0112097D01*
X0059860Y0113696D02*
X0136003Y0113696D01*
X0134404Y0115294D02*
X0058942Y0115294D01*
X0057064Y0116893D02*
X0132806Y0116893D01*
X0131207Y0118491D02*
X0059128Y0118491D01*
X0059937Y0120090D02*
X0129609Y0120090D01*
X0128010Y0121688D02*
X0060200Y0121688D01*
X0060029Y0123287D02*
X0126412Y0123287D01*
X0124813Y0124885D02*
X0059351Y0124885D01*
X0057603Y0126484D02*
X0123215Y0126484D01*
X0121616Y0128082D02*
X0058719Y0128082D01*
X0059767Y0129681D02*
X0120018Y0129681D01*
X0118419Y0131279D02*
X0060200Y0131279D01*
X0060198Y0132878D02*
X0116821Y0132878D01*
X0115222Y0134476D02*
X0059536Y0134476D01*
X0058162Y0136075D02*
X0113624Y0136075D01*
X0112025Y0137673D02*
X0057274Y0137673D01*
X0058896Y0139272D02*
X0110427Y0139272D01*
X0108828Y0140870D02*
X0059513Y0140870D01*
X0059554Y0142469D02*
X0107230Y0142469D01*
X0105631Y0144068D02*
X0059032Y0144068D01*
X0057645Y0145666D02*
X0104033Y0145666D01*
X0102434Y0147265D02*
X0057901Y0147265D01*
X0059428Y0148863D02*
X0100836Y0148863D01*
X0099237Y0150462D02*
X0060091Y0150462D01*
X0060200Y0152060D02*
X0097639Y0152060D01*
X0096040Y0153659D02*
X0059875Y0153659D01*
X0058980Y0155257D02*
X0094442Y0155257D01*
X0092843Y0156856D02*
X0056974Y0156856D01*
X0059091Y0158454D02*
X0091245Y0158454D01*
X0089646Y0160053D02*
X0059921Y0160053D01*
X0060200Y0161651D02*
X0088048Y0161651D01*
X0086449Y0163250D02*
X0060044Y0163250D01*
X0059382Y0164848D02*
X0084851Y0164848D01*
X0083252Y0166447D02*
X0057693Y0166447D01*
X0058682Y0168045D02*
X0081654Y0168045D01*
X0080055Y0169644D02*
X0059752Y0169644D01*
X0060200Y0171242D02*
X0078457Y0171242D01*
X0076858Y0172841D02*
X0060200Y0172841D01*
X0059552Y0174439D02*
X0075260Y0174439D01*
X0073661Y0176038D02*
X0058199Y0176038D01*
X0058273Y0177636D02*
X0072063Y0177636D01*
X0070464Y0179235D02*
X0059582Y0179235D01*
X0060200Y0180833D02*
X0068866Y0180833D01*
X0067267Y0182432D02*
X0060200Y0182432D01*
X0059721Y0184030D02*
X0065668Y0184030D01*
X0064070Y0185629D02*
X0058608Y0185629D01*
X0057864Y0187227D02*
X0062471Y0187227D01*
X0060873Y0188826D02*
X0059413Y0188826D01*
X0064280Y0193621D02*
X0163710Y0193621D01*
X0163400Y0192023D02*
X0065878Y0192023D01*
X0067477Y0190424D02*
X0163525Y0190424D01*
X0164187Y0188826D02*
X0069075Y0188826D01*
X0070674Y0187227D02*
X0165736Y0187227D01*
X0164992Y0185629D02*
X0072272Y0185629D01*
X0073871Y0184030D02*
X0163879Y0184030D01*
X0163400Y0182432D02*
X0075469Y0182432D01*
X0077068Y0180833D02*
X0163400Y0180833D01*
X0164018Y0179235D02*
X0078666Y0179235D01*
X0080265Y0177636D02*
X0165327Y0177636D01*
X0165401Y0176038D02*
X0081863Y0176038D01*
X0083462Y0174439D02*
X0164048Y0174439D01*
X0163400Y0172841D02*
X0085060Y0172841D01*
X0086659Y0171242D02*
X0163400Y0171242D01*
X0163848Y0169644D02*
X0088258Y0169644D01*
X0089856Y0168045D02*
X0164918Y0168045D01*
X0165907Y0166447D02*
X0091455Y0166447D01*
X0093053Y0164848D02*
X0164218Y0164848D01*
X0163556Y0163250D02*
X0094652Y0163250D01*
X0096250Y0161651D02*
X0163400Y0161651D01*
X0163679Y0160053D02*
X0097849Y0160053D01*
X0099447Y0158454D02*
X0164509Y0158454D01*
X0166626Y0156856D02*
X0101046Y0156856D01*
X0102644Y0155257D02*
X0164620Y0155257D01*
X0163725Y0153659D02*
X0104243Y0153659D01*
X0105841Y0152060D02*
X0163400Y0152060D01*
X0163509Y0150462D02*
X0107440Y0150462D01*
X0109038Y0148863D02*
X0164172Y0148863D01*
X0165699Y0147265D02*
X0110637Y0147265D01*
X0112235Y0145666D02*
X0165029Y0145666D01*
X0163894Y0144068D02*
X0113834Y0144068D01*
X0115432Y0142469D02*
X0163400Y0142469D01*
X0163400Y0140870D02*
X0117031Y0140870D01*
X0118629Y0139272D02*
X0164002Y0139272D01*
X0165290Y0137673D02*
X0120228Y0137673D01*
X0121826Y0136075D02*
X0165438Y0136075D01*
X0164064Y0134476D02*
X0123425Y0134476D01*
X0125023Y0132878D02*
X0163402Y0132878D01*
X0163400Y0131279D02*
X0126622Y0131279D01*
X0128220Y0129681D02*
X0163833Y0129681D01*
X0164881Y0128082D02*
X0129819Y0128082D01*
X0131417Y0126484D02*
X0165997Y0126484D01*
X0164249Y0124885D02*
X0133016Y0124885D01*
X0134614Y0123287D02*
X0163571Y0123287D01*
X0163400Y0121688D02*
X0136213Y0121688D01*
X0137811Y0120090D02*
X0163663Y0120090D01*
X0164472Y0118491D02*
X0139410Y0118491D01*
X0141008Y0116893D02*
X0166536Y0116893D01*
X0164658Y0115294D02*
X0142607Y0115294D01*
X0144205Y0113696D02*
X0163740Y0113696D01*
X0163400Y0112097D02*
X0145804Y0112097D01*
X0147402Y0110499D02*
X0163494Y0110499D01*
X0164156Y0108900D02*
X0149001Y0108900D01*
X0150599Y0107302D02*
X0165661Y0107302D01*
X0165066Y0105703D02*
X0152198Y0105703D01*
X0153796Y0104105D02*
X0163910Y0104105D01*
X0163400Y0102506D02*
X0155395Y0102506D01*
X0156993Y0100908D02*
X0163400Y0100908D01*
X0163987Y0099309D02*
X0158592Y0099309D01*
X0160191Y0097711D02*
X0165253Y0097711D01*
X0165475Y0096112D02*
X0161789Y0096112D01*
X0163388Y0094514D02*
X0164079Y0094514D01*
X0178125Y0096112D02*
X0205475Y0096112D01*
X0205741Y0096378D02*
X0204222Y0094859D01*
X0203400Y0092874D01*
X0203400Y0090726D01*
X0204222Y0088741D01*
X0205741Y0087222D01*
X0206760Y0086800D01*
X0205741Y0086378D01*
X0204222Y0084859D01*
X0203400Y0082874D01*
X0203400Y0080726D01*
X0204222Y0078741D01*
X0205741Y0077222D01*
X0206760Y0076800D01*
X0205741Y0076378D01*
X0204222Y0074859D01*
X0203400Y0072874D01*
X0203400Y0070726D01*
X0204222Y0068741D01*
X0205741Y0067222D01*
X0206760Y0066800D01*
X0205741Y0066378D01*
X0204222Y0064859D01*
X0203400Y0062874D01*
X0203400Y0060726D01*
X0204222Y0058741D01*
X0205741Y0057222D01*
X0206760Y0056800D01*
X0205741Y0056378D01*
X0204222Y0054859D01*
X0203400Y0052874D01*
X0203400Y0050726D01*
X0204222Y0048741D01*
X0205741Y0047222D01*
X0207726Y0046400D01*
X0215874Y0046400D01*
X0217859Y0047222D01*
X0219378Y0048741D01*
X0220200Y0050726D01*
X0220200Y0052874D01*
X0219378Y0054859D01*
X0217859Y0056378D01*
X0216840Y0056800D01*
X0217859Y0057222D01*
X0219378Y0058741D01*
X0220200Y0060726D01*
X0220200Y0062874D01*
X0219378Y0064859D01*
X0217859Y0066378D01*
X0216840Y0066800D01*
X0217859Y0067222D01*
X0219378Y0068741D01*
X0220200Y0070726D01*
X0220200Y0072874D01*
X0219378Y0074859D01*
X0217859Y0076378D01*
X0216840Y0076800D01*
X0217859Y0077222D01*
X0219378Y0078741D01*
X0220200Y0080726D01*
X0220200Y0082874D01*
X0219378Y0084859D01*
X0217859Y0086378D01*
X0216840Y0086800D01*
X0217859Y0087222D01*
X0219378Y0088741D01*
X0220200Y0090726D01*
X0220200Y0092874D01*
X0219378Y0094859D01*
X0217859Y0096378D01*
X0216840Y0096800D01*
X0217859Y0097222D01*
X0219378Y0098741D01*
X0220200Y0100726D01*
X0220200Y0102874D01*
X0219378Y0104859D01*
X0217859Y0106378D01*
X0216840Y0106800D01*
X0217859Y0107222D01*
X0219378Y0108741D01*
X0220200Y0110726D01*
X0220200Y0112874D01*
X0219378Y0114859D01*
X0217859Y0116378D01*
X0216840Y0116800D01*
X0217859Y0117222D01*
X0219378Y0118741D01*
X0220200Y0120726D01*
X0220200Y0122874D01*
X0219378Y0124859D01*
X0217859Y0126378D01*
X0216840Y0126800D01*
X0217859Y0127222D01*
X0219378Y0128741D01*
X0220200Y0130726D01*
X0220200Y0132874D01*
X0219378Y0134859D01*
X0217859Y0136378D01*
X0216840Y0136800D01*
X0217859Y0137222D01*
X0219378Y0138741D01*
X0220200Y0140726D01*
X0220200Y0142874D01*
X0219378Y0144859D01*
X0217859Y0146378D01*
X0216840Y0146800D01*
X0217859Y0147222D01*
X0219378Y0148741D01*
X0220200Y0150726D01*
X0220200Y0152874D01*
X0219378Y0154859D01*
X0217859Y0156378D01*
X0216840Y0156800D01*
X0217859Y0157222D01*
X0219378Y0158741D01*
X0220200Y0160726D01*
X0220200Y0162874D01*
X0219378Y0164859D01*
X0217859Y0166378D01*
X0216840Y0166800D01*
X0217859Y0167222D01*
X0219378Y0168741D01*
X0220200Y0170726D01*
X0220200Y0172874D01*
X0219378Y0174859D01*
X0217859Y0176378D01*
X0216840Y0176800D01*
X0217859Y0177222D01*
X0219378Y0178741D01*
X0220200Y0180726D01*
X0220200Y0182874D01*
X0219378Y0184859D01*
X0217859Y0186378D01*
X0216840Y0186800D01*
X0217859Y0187222D01*
X0219378Y0188741D01*
X0220200Y0190726D01*
X0220200Y0192874D01*
X0219378Y0194859D01*
X0217859Y0196378D01*
X0216840Y0196800D01*
X0217859Y0197222D01*
X0219378Y0198741D01*
X0220200Y0200726D01*
X0220200Y0202874D01*
X0219378Y0204859D01*
X0217859Y0206378D01*
X0215874Y0207200D01*
X0207726Y0207200D01*
X0205741Y0206378D01*
X0204222Y0204859D01*
X0203400Y0202874D01*
X0203400Y0200726D01*
X0204222Y0198741D01*
X0205741Y0197222D01*
X0206760Y0196800D01*
X0205741Y0196378D01*
X0204222Y0194859D01*
X0203400Y0192874D01*
X0203400Y0190726D01*
X0204222Y0188741D01*
X0205741Y0187222D01*
X0206760Y0186800D01*
X0205741Y0186378D01*
X0204222Y0184859D01*
X0203400Y0182874D01*
X0203400Y0180726D01*
X0204222Y0178741D01*
X0205741Y0177222D01*
X0206760Y0176800D01*
X0205741Y0176378D01*
X0204222Y0174859D01*
X0203400Y0172874D01*
X0203400Y0170726D01*
X0204222Y0168741D01*
X0205741Y0167222D01*
X0206760Y0166800D01*
X0205741Y0166378D01*
X0204222Y0164859D01*
X0203400Y0162874D01*
X0203400Y0160726D01*
X0204222Y0158741D01*
X0205741Y0157222D01*
X0206760Y0156800D01*
X0205741Y0156378D01*
X0204222Y0154859D01*
X0203400Y0152874D01*
X0203400Y0150726D01*
X0204222Y0148741D01*
X0205741Y0147222D01*
X0206760Y0146800D01*
X0205741Y0146378D01*
X0204222Y0144859D01*
X0203400Y0142874D01*
X0203400Y0140726D01*
X0204222Y0138741D01*
X0205741Y0137222D01*
X0206760Y0136800D01*
X0205741Y0136378D01*
X0204222Y0134859D01*
X0203400Y0132874D01*
X0203400Y0130726D01*
X0204222Y0128741D01*
X0205741Y0127222D01*
X0206760Y0126800D01*
X0205741Y0126378D01*
X0204222Y0124859D01*
X0203400Y0122874D01*
X0203400Y0120726D01*
X0204222Y0118741D01*
X0205741Y0117222D01*
X0206760Y0116800D01*
X0205741Y0116378D01*
X0204222Y0114859D01*
X0203400Y0112874D01*
X0203400Y0110726D01*
X0204222Y0108741D01*
X0205741Y0107222D01*
X0206760Y0106800D01*
X0205741Y0106378D01*
X0204222Y0104859D01*
X0203400Y0102874D01*
X0203400Y0100726D01*
X0204222Y0098741D01*
X0205741Y0097222D01*
X0206760Y0096800D01*
X0205741Y0096378D01*
X0205253Y0097711D02*
X0178347Y0097711D01*
X0179613Y0099309D02*
X0203987Y0099309D01*
X0203400Y0100908D02*
X0180200Y0100908D01*
X0180200Y0102506D02*
X0203400Y0102506D01*
X0203910Y0104105D02*
X0179690Y0104105D01*
X0178534Y0105703D02*
X0205066Y0105703D01*
X0205661Y0107302D02*
X0177938Y0107302D01*
X0179444Y0108900D02*
X0204156Y0108900D01*
X0203494Y0110499D02*
X0180106Y0110499D01*
X0180200Y0112097D02*
X0203400Y0112097D01*
X0203740Y0113696D02*
X0179860Y0113696D01*
X0178942Y0115294D02*
X0204658Y0115294D01*
X0206536Y0116893D02*
X0177064Y0116893D01*
X0179128Y0118491D02*
X0204472Y0118491D01*
X0203663Y0120090D02*
X0179937Y0120090D01*
X0180200Y0121688D02*
X0203400Y0121688D01*
X0203571Y0123287D02*
X0180029Y0123287D01*
X0179351Y0124885D02*
X0204249Y0124885D01*
X0205997Y0126484D02*
X0177603Y0126484D01*
X0178719Y0128082D02*
X0204881Y0128082D01*
X0203833Y0129681D02*
X0179767Y0129681D01*
X0180200Y0131279D02*
X0203400Y0131279D01*
X0203402Y0132878D02*
X0180198Y0132878D01*
X0179536Y0134476D02*
X0204064Y0134476D01*
X0205438Y0136075D02*
X0178162Y0136075D01*
X0178310Y0137673D02*
X0205290Y0137673D01*
X0204002Y0139272D02*
X0179598Y0139272D01*
X0180200Y0140870D02*
X0203400Y0140870D01*
X0203400Y0142469D02*
X0180200Y0142469D01*
X0179706Y0144068D02*
X0203894Y0144068D01*
X0205029Y0145666D02*
X0178571Y0145666D01*
X0177901Y0147265D02*
X0205699Y0147265D01*
X0204172Y0148863D02*
X0179428Y0148863D01*
X0180091Y0150462D02*
X0203509Y0150462D01*
X0203400Y0152060D02*
X0180200Y0152060D01*
X0179875Y0153659D02*
X0203725Y0153659D01*
X0204620Y0155257D02*
X0178980Y0155257D01*
X0176974Y0156856D02*
X0206626Y0156856D01*
X0204509Y0158454D02*
X0179091Y0158454D01*
X0179921Y0160053D02*
X0203679Y0160053D01*
X0203400Y0161651D02*
X0180200Y0161651D01*
X0180044Y0163250D02*
X0203556Y0163250D01*
X0204218Y0164848D02*
X0179382Y0164848D01*
X0177693Y0166447D02*
X0205907Y0166447D01*
X0204918Y0168045D02*
X0178682Y0168045D01*
X0179752Y0169644D02*
X0203848Y0169644D01*
X0203400Y0171242D02*
X0180200Y0171242D01*
X0180200Y0172841D02*
X0203400Y0172841D01*
X0204048Y0174439D02*
X0179552Y0174439D01*
X0178199Y0176038D02*
X0205401Y0176038D01*
X0205327Y0177636D02*
X0178273Y0177636D01*
X0179582Y0179235D02*
X0204018Y0179235D01*
X0203400Y0180833D02*
X0180200Y0180833D01*
X0180200Y0182432D02*
X0203400Y0182432D01*
X0203879Y0184030D02*
X0179721Y0184030D01*
X0178608Y0185629D02*
X0204992Y0185629D01*
X0205736Y0187227D02*
X0177864Y0187227D01*
X0179413Y0188826D02*
X0204187Y0188826D01*
X0203525Y0190424D02*
X0180075Y0190424D01*
X0180200Y0192023D02*
X0203400Y0192023D01*
X0203710Y0193621D02*
X0179890Y0193621D01*
X0179017Y0195220D02*
X0204583Y0195220D01*
X0206716Y0196818D02*
X0176884Y0196818D01*
X0179054Y0198417D02*
X0204546Y0198417D01*
X0203694Y0200015D02*
X0179906Y0200015D01*
X0180200Y0201614D02*
X0203400Y0201614D01*
X0203540Y0203212D02*
X0180060Y0203212D01*
X0179398Y0204811D02*
X0204202Y0204811D01*
X0205817Y0206409D02*
X0177783Y0206409D01*
X0165817Y0206409D02*
X0057783Y0206409D01*
X0059398Y0204811D02*
X0164202Y0204811D01*
X0163540Y0203212D02*
X0060060Y0203212D01*
X0060200Y0201614D02*
X0163400Y0201614D01*
X0163694Y0200015D02*
X0059906Y0200015D01*
X0059484Y0198417D02*
X0164546Y0198417D01*
X0166716Y0196818D02*
X0061083Y0196818D01*
X0062681Y0195220D02*
X0164583Y0195220D01*
X0216884Y0196818D02*
X0226800Y0196818D01*
X0226800Y0195220D02*
X0219017Y0195220D01*
X0219890Y0193621D02*
X0226800Y0193621D01*
X0226800Y0192023D02*
X0220200Y0192023D01*
X0220075Y0190424D02*
X0226800Y0190424D01*
X0226800Y0188826D02*
X0219413Y0188826D01*
X0217864Y0187227D02*
X0226800Y0187227D01*
X0226800Y0185629D02*
X0218608Y0185629D01*
X0219721Y0184030D02*
X0226800Y0184030D01*
X0226800Y0182432D02*
X0220200Y0182432D01*
X0220200Y0180833D02*
X0226800Y0180833D01*
X0226800Y0179235D02*
X0219582Y0179235D01*
X0218273Y0177636D02*
X0226800Y0177636D01*
X0226800Y0176038D02*
X0218199Y0176038D01*
X0219552Y0174439D02*
X0226800Y0174439D01*
X0226800Y0172841D02*
X0220200Y0172841D01*
X0220200Y0171242D02*
X0226800Y0171242D01*
X0226800Y0169644D02*
X0219752Y0169644D01*
X0218682Y0168045D02*
X0226800Y0168045D01*
X0226800Y0166447D02*
X0217693Y0166447D01*
X0219382Y0164848D02*
X0226800Y0164848D01*
X0226800Y0163250D02*
X0220044Y0163250D01*
X0220200Y0161651D02*
X0226800Y0161651D01*
X0226800Y0160053D02*
X0219921Y0160053D01*
X0219091Y0158454D02*
X0226800Y0158454D01*
X0226800Y0156856D02*
X0216974Y0156856D01*
X0218980Y0155257D02*
X0226800Y0155257D01*
X0226800Y0153659D02*
X0219875Y0153659D01*
X0220200Y0152060D02*
X0226800Y0152060D01*
X0226800Y0150462D02*
X0220091Y0150462D01*
X0219428Y0148863D02*
X0226800Y0148863D01*
X0226800Y0147265D02*
X0217901Y0147265D01*
X0218571Y0145666D02*
X0226800Y0145666D01*
X0226800Y0144068D02*
X0219706Y0144068D01*
X0220200Y0142469D02*
X0226800Y0142469D01*
X0226800Y0140870D02*
X0220200Y0140870D01*
X0219598Y0139272D02*
X0226800Y0139272D01*
X0226800Y0137673D02*
X0218310Y0137673D01*
X0218162Y0136075D02*
X0226800Y0136075D01*
X0226800Y0134476D02*
X0219536Y0134476D01*
X0220198Y0132878D02*
X0226800Y0132878D01*
X0226800Y0131279D02*
X0220200Y0131279D01*
X0219767Y0129681D02*
X0226800Y0129681D01*
X0226800Y0128082D02*
X0218719Y0128082D01*
X0217603Y0126484D02*
X0226800Y0126484D01*
X0226800Y0124885D02*
X0219351Y0124885D01*
X0220029Y0123287D02*
X0226800Y0123287D01*
X0226800Y0121688D02*
X0220200Y0121688D01*
X0219937Y0120090D02*
X0226800Y0120090D01*
X0226800Y0118491D02*
X0219128Y0118491D01*
X0217064Y0116893D02*
X0226800Y0116893D01*
X0226800Y0115294D02*
X0218942Y0115294D01*
X0219860Y0113696D02*
X0226800Y0113696D01*
X0226800Y0112097D02*
X0220200Y0112097D01*
X0220106Y0110499D02*
X0226800Y0110499D01*
X0226800Y0108900D02*
X0219444Y0108900D01*
X0217938Y0107302D02*
X0226800Y0107302D01*
X0226800Y0105703D02*
X0218534Y0105703D01*
X0219690Y0104105D02*
X0226800Y0104105D01*
X0226800Y0102506D02*
X0220200Y0102506D01*
X0220200Y0100908D02*
X0226800Y0100908D01*
X0226800Y0099309D02*
X0219613Y0099309D01*
X0218347Y0097711D02*
X0226800Y0097711D01*
X0226800Y0096112D02*
X0218125Y0096112D01*
X0219521Y0094514D02*
X0226800Y0094514D01*
X0226800Y0092915D02*
X0220183Y0092915D01*
X0220200Y0091317D02*
X0226800Y0091317D01*
X0226800Y0089718D02*
X0219783Y0089718D01*
X0218756Y0088120D02*
X0226800Y0088120D01*
X0226800Y0086521D02*
X0217513Y0086521D01*
X0219314Y0084923D02*
X0226800Y0084923D01*
X0226800Y0083324D02*
X0220014Y0083324D01*
X0220200Y0081726D02*
X0226800Y0081726D01*
X0226800Y0080127D02*
X0219952Y0080127D01*
X0219165Y0078529D02*
X0226800Y0078529D01*
X0226800Y0076930D02*
X0217154Y0076930D01*
X0218905Y0075332D02*
X0226800Y0075332D01*
X0226800Y0073733D02*
X0219844Y0073733D01*
X0220200Y0072134D02*
X0226800Y0072134D01*
X0226800Y0070536D02*
X0220121Y0070536D01*
X0219459Y0068937D02*
X0226800Y0068937D01*
X0226800Y0067339D02*
X0217976Y0067339D01*
X0218496Y0065740D02*
X0226800Y0065740D01*
X0226800Y0064142D02*
X0219675Y0064142D01*
X0220200Y0062543D02*
X0226800Y0062543D01*
X0226800Y0060945D02*
X0220200Y0060945D01*
X0219629Y0059346D02*
X0226800Y0059346D01*
X0226800Y0057748D02*
X0218385Y0057748D01*
X0218087Y0056149D02*
X0226800Y0056149D01*
X0226800Y0054551D02*
X0219505Y0054551D01*
X0220168Y0052952D02*
X0226800Y0052952D01*
X0226800Y0051354D02*
X0220200Y0051354D01*
X0219798Y0049755D02*
X0226800Y0049755D01*
X0226800Y0048157D02*
X0218794Y0048157D01*
X0216256Y0046558D02*
X0226800Y0046558D01*
X0226800Y0044960D02*
X0136361Y0044960D01*
X0137960Y0046558D02*
X0167344Y0046558D01*
X0164806Y0048157D02*
X0139558Y0048157D01*
X0141157Y0049755D02*
X0163802Y0049755D01*
X0163400Y0051354D02*
X0142755Y0051354D01*
X0144354Y0052952D02*
X0163432Y0052952D01*
X0164095Y0054551D02*
X0145952Y0054551D01*
X0147551Y0056149D02*
X0165513Y0056149D01*
X0165215Y0057748D02*
X0149149Y0057748D01*
X0150748Y0059346D02*
X0163971Y0059346D01*
X0163400Y0060945D02*
X0152346Y0060945D01*
X0153945Y0062543D02*
X0163400Y0062543D01*
X0163925Y0064142D02*
X0155543Y0064142D01*
X0157142Y0065740D02*
X0165104Y0065740D01*
X0165624Y0067339D02*
X0158740Y0067339D01*
X0160339Y0068937D02*
X0164141Y0068937D01*
X0163479Y0070536D02*
X0161937Y0070536D01*
X0177976Y0067339D02*
X0205624Y0067339D01*
X0205104Y0065740D02*
X0178496Y0065740D01*
X0179675Y0064142D02*
X0203925Y0064142D01*
X0203400Y0062543D02*
X0180200Y0062543D01*
X0180200Y0060945D02*
X0203400Y0060945D01*
X0203971Y0059346D02*
X0179629Y0059346D01*
X0178385Y0057748D02*
X0205215Y0057748D01*
X0205513Y0056149D02*
X0178087Y0056149D01*
X0179505Y0054551D02*
X0204095Y0054551D01*
X0203432Y0052952D02*
X0180168Y0052952D01*
X0180200Y0051354D02*
X0203400Y0051354D01*
X0203802Y0049755D02*
X0179798Y0049755D01*
X0178794Y0048157D02*
X0204806Y0048157D01*
X0207344Y0046558D02*
X0176256Y0046558D01*
X0180696Y0027350D02*
X0178656Y0026505D01*
X0177095Y0024944D01*
X0176250Y0022904D01*
X0176250Y0020696D01*
X0177095Y0018656D01*
X0178656Y0017095D01*
X0180696Y0016250D01*
X0182904Y0016250D01*
X0184944Y0017095D01*
X0186505Y0018656D01*
X0186926Y0019673D01*
X0189750Y0016850D01*
X0191800Y0016850D01*
X0193850Y0016850D01*
X0196750Y0019750D01*
X0196750Y0021800D01*
X0196750Y0023850D01*
X0193850Y0026750D01*
X0191800Y0026750D01*
X0191800Y0021800D01*
X0196750Y0021800D01*
X0191800Y0021800D01*
X0191800Y0021800D01*
X0191800Y0021800D01*
X0191800Y0016850D01*
X0191800Y0021800D01*
X0191800Y0021800D01*
X0191800Y0026750D01*
X0189750Y0026750D01*
X0186926Y0023927D01*
X0186505Y0024944D01*
X0184944Y0026505D01*
X0182904Y0027350D01*
X0180696Y0027350D01*
X0177929Y0025778D02*
X0137900Y0025778D01*
X0137900Y0027376D02*
X0226800Y0027376D01*
X0226800Y0025778D02*
X0194823Y0025778D01*
X0196421Y0024179D02*
X0226800Y0024179D01*
X0226800Y0022581D02*
X0196750Y0022581D01*
X0196750Y0020982D02*
X0226800Y0020982D01*
X0226800Y0019384D02*
X0196384Y0019384D01*
X0194785Y0017785D02*
X0226800Y0017785D01*
X0226800Y0016187D02*
X0137900Y0016187D01*
X0137900Y0017785D02*
X0177966Y0017785D01*
X0176794Y0019384D02*
X0137843Y0019384D01*
X0136245Y0020982D02*
X0176250Y0020982D01*
X0176250Y0022581D02*
X0136207Y0022581D01*
X0137806Y0024179D02*
X0176778Y0024179D01*
X0185671Y0025778D02*
X0188777Y0025778D01*
X0187179Y0024179D02*
X0186822Y0024179D01*
X0186806Y0019384D02*
X0187216Y0019384D01*
X0185634Y0017785D02*
X0188815Y0017785D01*
X0191800Y0017785D02*
X0191800Y0017785D01*
X0191800Y0019384D02*
X0191800Y0019384D01*
X0191800Y0020982D02*
X0191800Y0020982D01*
X0191800Y0022581D02*
X0191800Y0022581D01*
X0191800Y0024179D02*
X0191800Y0024179D01*
X0191800Y0025778D02*
X0191800Y0025778D01*
X0226800Y0028975D02*
X0137900Y0028975D01*
X0136653Y0030573D02*
X0226800Y0030573D01*
X0226800Y0032172D02*
X0135055Y0032172D01*
X0128545Y0032172D02*
X0125055Y0032172D01*
X0125171Y0033770D02*
X0226800Y0033770D01*
X0226800Y0035369D02*
X0126770Y0035369D01*
X0128368Y0036967D02*
X0226800Y0036967D01*
X0226800Y0038566D02*
X0129967Y0038566D01*
X0131565Y0040164D02*
X0226800Y0040164D01*
X0226800Y0041763D02*
X0133164Y0041763D01*
X0134763Y0043361D02*
X0226800Y0043361D01*
X0204141Y0068937D02*
X0179459Y0068937D01*
X0180121Y0070536D02*
X0203479Y0070536D01*
X0203400Y0072134D02*
X0180200Y0072134D01*
X0179844Y0073733D02*
X0203756Y0073733D01*
X0204695Y0075332D02*
X0179333Y0075332D01*
X0180931Y0076930D02*
X0206446Y0076930D01*
X0204435Y0078529D02*
X0181961Y0078529D01*
X0182000Y0080127D02*
X0203648Y0080127D01*
X0203400Y0081726D02*
X0182000Y0081726D01*
X0182000Y0083324D02*
X0203586Y0083324D01*
X0204286Y0084923D02*
X0181733Y0084923D01*
X0180380Y0086521D02*
X0206087Y0086521D01*
X0204844Y0088120D02*
X0178782Y0088120D01*
X0179783Y0089718D02*
X0203817Y0089718D01*
X0203400Y0091317D02*
X0180200Y0091317D01*
X0180183Y0092915D02*
X0203417Y0092915D01*
X0204079Y0094514D02*
X0179521Y0094514D01*
X0126947Y0030573D02*
X0126653Y0030573D01*
X0126616Y0012990D02*
X0126984Y0012990D01*
X0128582Y0011391D02*
X0125018Y0011391D01*
X0118582Y0011391D02*
X0115018Y0011391D01*
X0116616Y0012990D02*
X0116984Y0012990D01*
X0108582Y0011391D02*
X0105018Y0011391D01*
X0106616Y0012990D02*
X0106984Y0012990D01*
X0098582Y0011391D02*
X0094169Y0011391D01*
X0095768Y0012990D02*
X0096984Y0012990D01*
X0096376Y0020002D02*
X0095002Y0021376D01*
X0096800Y0023173D01*
X0098173Y0021800D01*
X0096376Y0020002D01*
X0095396Y0020982D02*
X0097355Y0020982D01*
X0097393Y0022581D02*
X0096207Y0022581D01*
X0135018Y0011391D02*
X0226800Y0011391D01*
X0226800Y0009793D02*
X0057084Y0009793D01*
X0056184Y0008194D02*
X0226800Y0008194D01*
X0226800Y0012990D02*
X0136616Y0012990D01*
X0137900Y0014588D02*
X0226800Y0014588D01*
X0048196Y0016187D02*
X0044314Y0016187D01*
X0046016Y0014588D02*
X0046839Y0014588D01*
X0046516Y0009793D02*
X0046445Y0009793D01*
X0047416Y0008194D02*
X0045336Y0008194D01*
X0041800Y0008194D02*
X0041800Y0008194D01*
X0041800Y0009793D02*
X0041800Y0009793D01*
X0041800Y0011391D02*
X0041800Y0011391D01*
X0041800Y0012990D02*
X0041800Y0012990D01*
X0041800Y0014588D02*
X0041800Y0014588D01*
X0041800Y0016187D02*
X0041800Y0016187D01*
X0006839Y0014588D02*
X0006600Y0014588D01*
X0022700Y0084923D02*
X0040321Y0084923D01*
X0041920Y0086521D02*
X0022700Y0086521D01*
X0022700Y0088120D02*
X0043518Y0088120D01*
X0043817Y0089718D02*
X0022700Y0089718D01*
X0022700Y0091317D02*
X0043400Y0091317D01*
X0043417Y0092915D02*
X0022700Y0092915D01*
X0022700Y0094514D02*
X0044079Y0094514D01*
X0045475Y0096112D02*
X0022271Y0096112D01*
X0020691Y0097711D02*
X0045253Y0097711D01*
X0043987Y0099309D02*
X0019613Y0099309D01*
X0020200Y0100908D02*
X0043400Y0100908D01*
X0043400Y0102506D02*
X0020200Y0102506D01*
X0019690Y0104105D02*
X0043910Y0104105D01*
X0045066Y0105703D02*
X0018534Y0105703D01*
X0017938Y0107302D02*
X0045661Y0107302D01*
X0044156Y0108900D02*
X0019444Y0108900D01*
X0020106Y0110499D02*
X0043494Y0110499D01*
X0043400Y0112097D02*
X0020200Y0112097D01*
X0019860Y0113696D02*
X0043740Y0113696D01*
X0044658Y0115294D02*
X0018942Y0115294D01*
X0017064Y0116893D02*
X0046536Y0116893D01*
X0044472Y0118491D02*
X0019128Y0118491D01*
X0019937Y0120090D02*
X0043663Y0120090D01*
X0043400Y0121688D02*
X0020200Y0121688D01*
X0020029Y0123287D02*
X0043571Y0123287D01*
X0044249Y0124885D02*
X0019351Y0124885D01*
X0017603Y0126484D02*
X0045997Y0126484D01*
X0044881Y0128082D02*
X0018719Y0128082D01*
X0019767Y0129681D02*
X0043833Y0129681D01*
X0043400Y0131279D02*
X0020200Y0131279D01*
X0020198Y0132878D02*
X0043402Y0132878D01*
X0044064Y0134476D02*
X0019536Y0134476D01*
X0018162Y0136075D02*
X0045438Y0136075D01*
X0046326Y0137673D02*
X0017274Y0137673D01*
X0018896Y0139272D02*
X0044704Y0139272D01*
X0044087Y0140870D02*
X0019513Y0140870D01*
X0019554Y0142469D02*
X0044046Y0142469D01*
X0044568Y0144068D02*
X0019032Y0144068D01*
X0017645Y0145666D02*
X0045955Y0145666D01*
X0045699Y0147265D02*
X0017901Y0147265D01*
X0019428Y0148863D02*
X0044172Y0148863D01*
X0043509Y0150462D02*
X0020091Y0150462D01*
X0020200Y0152060D02*
X0043400Y0152060D01*
X0043725Y0153659D02*
X0019875Y0153659D01*
X0018980Y0155257D02*
X0044620Y0155257D01*
X0046626Y0156856D02*
X0016974Y0156856D01*
X0019091Y0158454D02*
X0044509Y0158454D01*
X0043679Y0160053D02*
X0019921Y0160053D01*
X0020200Y0161651D02*
X0043400Y0161651D01*
X0043556Y0163250D02*
X0020044Y0163250D01*
X0019382Y0164848D02*
X0044218Y0164848D01*
X0045907Y0166447D02*
X0017693Y0166447D01*
X0018682Y0168045D02*
X0044918Y0168045D01*
X0043848Y0169644D02*
X0019752Y0169644D01*
X0020200Y0171242D02*
X0043400Y0171242D01*
X0043400Y0172841D02*
X0020200Y0172841D01*
X0019552Y0174439D02*
X0044048Y0174439D01*
X0045401Y0176038D02*
X0018199Y0176038D01*
X0018273Y0177636D02*
X0045327Y0177636D01*
X0044018Y0179235D02*
X0019582Y0179235D01*
X0020200Y0180833D02*
X0043400Y0180833D01*
X0043400Y0182432D02*
X0020200Y0182432D01*
X0019721Y0184030D02*
X0043879Y0184030D01*
X0044992Y0185629D02*
X0018608Y0185629D01*
X0017864Y0187227D02*
X0045736Y0187227D01*
X0044187Y0188826D02*
X0019413Y0188826D01*
X0020075Y0190424D02*
X0043525Y0190424D01*
X0043400Y0192023D02*
X0020200Y0192023D01*
X0019890Y0193621D02*
X0043710Y0193621D01*
X0044583Y0195220D02*
X0019017Y0195220D01*
X0016884Y0196818D02*
X0046716Y0196818D01*
X0044546Y0198417D02*
X0019054Y0198417D01*
X0019906Y0200015D02*
X0043694Y0200015D01*
X0043400Y0201614D02*
X0020200Y0201614D01*
X0020060Y0203212D02*
X0043540Y0203212D01*
X0044202Y0204811D02*
X0019398Y0204811D01*
X0017783Y0206409D02*
X0045817Y0206409D01*
X0006600Y0208008D02*
X0226800Y0208008D01*
X0226800Y0209606D02*
X0006600Y0209606D01*
X0006600Y0211205D02*
X0226800Y0211205D01*
X0226800Y0212803D02*
X0006600Y0212803D01*
X0006600Y0214402D02*
X0226800Y0214402D01*
X0226800Y0216001D02*
X0006600Y0216001D01*
X0217783Y0206409D02*
X0226800Y0206409D01*
X0226800Y0204811D02*
X0219398Y0204811D01*
X0220060Y0203212D02*
X0226800Y0203212D01*
X0226800Y0201614D02*
X0220200Y0201614D01*
X0219906Y0200015D02*
X0226800Y0200015D01*
X0226800Y0198417D02*
X0219054Y0198417D01*
M02*
