%
M48
M72
T01C0.02400
T02C0.02756
T03C0.03200
T04C0.04000
%
T01
X96300Y21600
T02
X11800Y11800
X21800Y11800
X41800Y11800
X51800Y11800
T03
X36300Y31800
X17300Y31800
X181800Y21800
X191800Y21800
T04
X171800Y51800
X171800Y61800
X171800Y71800
X171800Y81800
X171800Y91800
X171800Y101800
X171800Y111800
X171800Y121800
X171800Y131800
X171800Y141800
X171800Y151800
X171800Y161800
X171800Y171800
X171800Y181800
X171800Y191800
X171800Y201800
X211800Y201800
X211800Y191800
X211800Y181800
X211800Y171800
X211800Y161800
X211800Y151800
X211800Y141800
X211800Y131800
X211800Y121800
X211800Y111800
X211800Y101800
X211800Y91800
X211800Y81800
X211800Y71800
X211800Y61800
X211800Y51800
X131800Y26800
X131800Y16800
X121800Y16800
X111800Y16800
X111800Y26800
X121800Y26800
X101800Y26800
X91800Y26800
X91800Y16800
X101800Y16800
X51800Y51800
X51800Y61800
X51800Y71800
X51800Y81800
X51800Y91800
X51800Y101800
X51800Y111800
X51800Y121800
X51800Y131800
X51800Y141800
X51800Y151800
X51800Y161800
X51800Y171800
X51800Y181800
X51800Y191800
X51800Y201800
X11800Y201800
X11800Y191800
X11800Y181800
X11800Y171800
X11800Y161800
X11800Y151800
X11800Y141800
X11800Y131800
X11800Y121800
X11800Y111800
X11800Y101800
X11800Y91800
X11800Y81800
X11800Y71800
X11800Y61800
X11800Y51800
M30
