%
M48
M72
T01C0.02400
T02C0.03200
T03C0.03543
T04C0.03937
T05C0.04000
%
T01
X31000Y99867
X116000Y127367
X151000Y157367
X158500Y162367
X156000Y167367
X176000Y147367
X163500Y144867
X176000Y127367
X206000Y137367
X211000Y102367
X216000Y92367
X236000Y67367
X261000Y122367
X221000Y172367
X211000Y192367
X188500Y187367
X183500Y207367
X126000Y197367
X251000Y177367
T02
X71000Y177367
X61000Y177367
X61000Y142367
X71000Y142367
X21000Y77367
X11000Y77367
X11000Y52367
X21000Y52367
T03
X11000Y94867
X11000Y104867
X11000Y114867
X41000Y114867
X41000Y104867
X41000Y94867
T04
X101000Y92367
X101000Y82367
X101000Y72367
X101000Y62367
X111000Y57367
X121000Y57367
X131000Y57367
X141000Y57367
X151000Y57367
X161000Y57367
X171000Y57367
X181000Y57367
X191000Y57367
X201000Y57367
X211000Y57367
X221000Y57367
X221000Y87367
X221000Y97367
X221000Y107367
X221000Y117367
X211000Y117367
X201000Y117367
X191000Y117367
X181000Y117367
X171000Y117367
X161000Y117367
X151000Y117367
X141000Y117367
X131000Y117367
X121000Y117367
X111000Y117367
X101000Y112367
X101000Y102367
X146000Y107367
X156000Y107367
X276000Y100674
X276000Y86953
X276000Y73174
X276000Y59453
X276000Y45674
X276000Y114453
T05
X11000Y32367
X21000Y32367
X31000Y32367
X41000Y32367
X51000Y32367
X61000Y32367
X71000Y32367
X81000Y32367
X101000Y37367
X101000Y27367
X101000Y17367
X121000Y17367
X121000Y27367
X121000Y37367
X138500Y37367
X138500Y27367
X138500Y17367
X156000Y17367
X156000Y27367
X156000Y37367
X173500Y37367
X173500Y27367
X173500Y17367
X191000Y17367
X191000Y27367
X191000Y37367
X208500Y37367
X208500Y27367
X208500Y17367
X226000Y17367
X226000Y27367
X226000Y37367
X266000Y29867
X276000Y29867
X276000Y14867
X266000Y14867
X276000Y132367
X276000Y142367
X276000Y152367
X276000Y162367
X276000Y172367
X276000Y182367
X276000Y192367
X276000Y202367
X291000Y202367
X291000Y192367
X291000Y182367
X291000Y172367
X291000Y162367
X291000Y152367
X291000Y142367
X291000Y132367
X216000Y187367
X216000Y197367
X106000Y202367
X106000Y212367
X106000Y222367
X106000Y192367
X106000Y182367
X106000Y172367
X106000Y162367
X66000Y202367
X56000Y202367
X56000Y212367
X66000Y212367
X66000Y222367
X56000Y222367
X36000Y212367
X26000Y212367
X16000Y212367
X16000Y187367
X26000Y187367
X36000Y187367
X36000Y164867
X26000Y164867
X16000Y164867
X13200Y146267
X13200Y128467
X38800Y128467
X38800Y146267
X61000Y112367
X61000Y102367
X61000Y92367
X61000Y82367
X61000Y72367
X61000Y62367
M30
