%
M48
M72
T01C0.01200
%
T01
X5752Y14551
X10152Y13451
X12352Y15651
X15652Y15651
X18402Y14001
X21702Y14001
X35452Y17851
X35452Y23351
X32152Y26651
X35452Y29951
X38752Y26651
X42052Y30501
X31870Y34594
X32183Y42601
X29952Y50851
X40952Y53601
X49202Y48651
X51402Y43701
X60752Y45351
X60752Y48651
X64602Y55801
X62402Y58001
X57452Y60201
X51402Y58001
X43702Y62401
X36552Y62401
X36552Y66251
X18402Y65701
X11252Y53601
X14552Y50301
X11802Y44801
X44252Y18951
X44802Y14001
X67352Y23901
X75052Y24451
X78902Y18951
X82752Y23351
X86052Y22801
X78902Y33251
X73402Y33251
X65702Y33251
X83852Y50851
X76702Y56351
X70652Y58001
X96502Y58001
X99802Y41501
X97602Y36551
X94302Y40401
X99802Y31051
X100352Y21151
X98152Y18951
M30
