G75*
%MOIN*%
%OFA0B0*%
%FSLAX25Y25*%
%IPPOS*%
%LPD*%
%AMOC8*
5,1,8,0,0,1.08239X$1,22.5*
%
%ADD10C,0.00100*%
%ADD11C,0.00600*%
%ADD12C,0.00000*%
%ADD13R,0.01800X0.03000*%
%ADD14C,0.00200*%
%ADD15R,0.03000X0.01800*%
%ADD16C,0.00800*%
D10*
X0008772Y0014901D02*
X0008772Y0016402D01*
X0009523Y0015652D01*
X0008522Y0015652D01*
X0009995Y0014901D02*
X0010996Y0014901D01*
X0011469Y0014901D02*
X0011969Y0015401D01*
X0011719Y0015401D02*
X0012469Y0015401D01*
X0012469Y0014901D02*
X0012469Y0016402D01*
X0011719Y0016402D01*
X0011469Y0016152D01*
X0011469Y0015652D01*
X0011719Y0015401D01*
X0010996Y0015902D02*
X0010496Y0016402D01*
X0010496Y0014901D01*
X0015767Y0013597D02*
X0016017Y0013847D01*
X0016518Y0013847D01*
X0016768Y0013597D01*
X0017240Y0013597D02*
X0017491Y0013847D01*
X0017991Y0013847D01*
X0018241Y0013597D01*
X0018241Y0012596D01*
X0017991Y0012346D01*
X0017491Y0012346D01*
X0017240Y0012596D01*
X0016768Y0012346D02*
X0015767Y0013347D01*
X0015767Y0013597D01*
X0015767Y0012346D02*
X0016768Y0012346D01*
X0020212Y0015365D02*
X0020212Y0015615D01*
X0019211Y0016616D01*
X0019211Y0016866D01*
X0020212Y0016866D01*
X0020684Y0016616D02*
X0020684Y0016116D01*
X0020935Y0015865D01*
X0021685Y0015865D01*
X0021685Y0015365D02*
X0021685Y0016866D01*
X0020935Y0016866D01*
X0020684Y0016616D01*
X0021185Y0015865D02*
X0020684Y0015365D01*
X0026300Y0015258D02*
X0026300Y0015508D01*
X0026550Y0015758D01*
X0027301Y0015758D01*
X0027301Y0015258D01*
X0027050Y0015008D01*
X0026550Y0015008D01*
X0026300Y0015258D01*
X0026800Y0016259D02*
X0027301Y0015758D01*
X0027773Y0015758D02*
X0027773Y0016259D01*
X0028023Y0016509D01*
X0028774Y0016509D01*
X0028774Y0015008D01*
X0028774Y0015508D02*
X0028023Y0015508D01*
X0027773Y0015758D01*
X0028274Y0015508D02*
X0027773Y0015008D01*
X0026800Y0016259D02*
X0026300Y0016509D01*
X0034743Y0038407D02*
X0035744Y0038407D01*
X0034743Y0039407D01*
X0034743Y0039658D01*
X0034993Y0039908D01*
X0035493Y0039908D01*
X0035744Y0039658D01*
X0036216Y0039658D02*
X0036216Y0039157D01*
X0036466Y0038907D01*
X0037217Y0038907D01*
X0037217Y0038407D02*
X0037217Y0039908D01*
X0036466Y0039908D01*
X0036216Y0039658D01*
X0036716Y0038907D02*
X0036216Y0038407D01*
X0034296Y0050511D02*
X0034296Y0052012D01*
X0033546Y0052012D01*
X0033295Y0051762D01*
X0033295Y0051262D01*
X0033546Y0051011D01*
X0034296Y0051011D01*
X0033796Y0051011D02*
X0033295Y0050511D01*
X0032823Y0050761D02*
X0032573Y0050511D01*
X0032072Y0050511D01*
X0031822Y0050761D01*
X0031822Y0051262D01*
X0032072Y0051512D01*
X0032323Y0051512D01*
X0032823Y0051262D01*
X0032823Y0052012D01*
X0031822Y0052012D01*
X0036787Y0058330D02*
X0037287Y0058330D01*
X0037537Y0058580D01*
X0038010Y0058330D02*
X0039010Y0058330D01*
X0039483Y0058330D02*
X0039983Y0058831D01*
X0039733Y0058831D02*
X0040484Y0058831D01*
X0040484Y0058330D02*
X0040484Y0059832D01*
X0039733Y0059832D01*
X0039483Y0059581D01*
X0039483Y0059081D01*
X0039733Y0058831D01*
X0039010Y0059331D02*
X0038510Y0059832D01*
X0038510Y0058330D01*
X0037537Y0059581D02*
X0037287Y0059832D01*
X0036787Y0059832D01*
X0036536Y0059581D01*
X0036536Y0059331D01*
X0036787Y0059081D01*
X0036536Y0058831D01*
X0036536Y0058580D01*
X0036787Y0058330D01*
X0036787Y0059081D02*
X0037037Y0059081D01*
X0037484Y0072804D02*
X0037484Y0074305D01*
X0036483Y0072804D01*
X0036483Y0074305D01*
X0036011Y0074305D02*
X0035260Y0074305D01*
X0035010Y0074055D01*
X0035010Y0073054D01*
X0035260Y0072804D01*
X0036011Y0072804D01*
X0036011Y0074305D01*
X0037957Y0074055D02*
X0038207Y0074305D01*
X0038707Y0074305D01*
X0038957Y0074055D01*
X0038957Y0073054D01*
X0038707Y0072804D01*
X0038207Y0072804D01*
X0037957Y0073054D01*
X0037957Y0073555D01*
X0038457Y0073555D01*
X0025643Y0073335D02*
X0025643Y0074836D01*
X0024892Y0074836D01*
X0024642Y0074586D01*
X0024642Y0074085D01*
X0024892Y0073835D01*
X0025643Y0073835D01*
X0025143Y0073835D02*
X0024642Y0073335D01*
X0024170Y0073585D02*
X0023920Y0073335D01*
X0023419Y0073335D01*
X0023169Y0073585D01*
X0022697Y0073585D02*
X0022446Y0073335D01*
X0021946Y0073335D01*
X0021696Y0073585D01*
X0021223Y0073335D02*
X0021223Y0074336D01*
X0020723Y0074836D01*
X0020222Y0074336D01*
X0020222Y0073335D01*
X0019750Y0073335D02*
X0019750Y0074836D01*
X0018999Y0074836D01*
X0018749Y0074586D01*
X0018749Y0074085D01*
X0018999Y0073835D01*
X0019750Y0073835D01*
X0019250Y0073835D02*
X0018749Y0073335D01*
X0018277Y0074085D02*
X0017276Y0074085D01*
X0016804Y0073835D02*
X0016804Y0074836D01*
X0016804Y0073835D02*
X0016303Y0073335D01*
X0015803Y0073835D01*
X0015803Y0074836D01*
X0015330Y0074336D02*
X0014830Y0074836D01*
X0014830Y0073335D01*
X0015330Y0073335D02*
X0014329Y0073335D01*
X0013857Y0073335D02*
X0013607Y0073335D01*
X0013607Y0073585D01*
X0013857Y0073585D01*
X0013857Y0073335D01*
X0013120Y0073335D02*
X0012120Y0074336D01*
X0012120Y0074586D01*
X0012370Y0074836D01*
X0012870Y0074836D01*
X0013120Y0074586D01*
X0013120Y0073335D02*
X0012120Y0073335D01*
X0011957Y0072251D02*
X0011457Y0071751D01*
X0010956Y0072251D01*
X0010956Y0070750D01*
X0010484Y0071000D02*
X0010234Y0070750D01*
X0009733Y0070750D01*
X0009483Y0071000D01*
X0009483Y0072001D01*
X0009733Y0072251D01*
X0010234Y0072251D01*
X0010484Y0072001D01*
X0010484Y0071000D01*
X0011957Y0070750D02*
X0011957Y0072251D01*
X0014329Y0072186D02*
X0014580Y0072436D01*
X0015080Y0072436D01*
X0015330Y0072186D01*
X0015330Y0071185D01*
X0015080Y0070935D01*
X0014580Y0070935D01*
X0014329Y0071185D01*
X0015803Y0070935D02*
X0015803Y0072436D01*
X0016804Y0072436D02*
X0016804Y0070935D01*
X0016303Y0071435D01*
X0015803Y0070935D01*
X0017276Y0070935D02*
X0017276Y0072436D01*
X0017276Y0071685D02*
X0018277Y0071685D01*
X0018749Y0071685D02*
X0019500Y0071685D01*
X0019750Y0071936D01*
X0019750Y0072186D01*
X0019500Y0072436D01*
X0018999Y0072436D01*
X0018749Y0072186D01*
X0018749Y0071185D01*
X0018999Y0070935D01*
X0019500Y0070935D01*
X0019750Y0071185D01*
X0020222Y0071185D02*
X0020222Y0071435D01*
X0020473Y0071685D01*
X0021223Y0071685D01*
X0021223Y0071185D01*
X0020973Y0070935D01*
X0020473Y0070935D01*
X0020222Y0071185D01*
X0021223Y0071685D02*
X0020723Y0072186D01*
X0020222Y0072436D01*
X0021696Y0072436D02*
X0021696Y0070935D01*
X0022697Y0070935D02*
X0022697Y0072436D01*
X0022196Y0071936D01*
X0021696Y0072436D01*
X0023169Y0072436D02*
X0024170Y0072436D01*
X0024170Y0070935D01*
X0024642Y0070935D02*
X0025143Y0071435D01*
X0024892Y0071435D02*
X0025643Y0071435D01*
X0025643Y0070935D02*
X0025643Y0072436D01*
X0024892Y0072436D01*
X0024642Y0072186D01*
X0024642Y0071685D01*
X0024892Y0071435D01*
X0024170Y0071685D02*
X0023669Y0071685D01*
X0024170Y0073585D02*
X0024170Y0074586D01*
X0023920Y0074836D01*
X0023419Y0074836D01*
X0023169Y0074586D01*
X0022697Y0074586D02*
X0022697Y0073585D01*
X0022697Y0074586D02*
X0022446Y0074836D01*
X0021946Y0074836D01*
X0021696Y0074586D01*
X0021223Y0074085D02*
X0020222Y0074085D01*
X0018277Y0072436D02*
X0018277Y0070935D01*
X0009010Y0072251D02*
X0008010Y0072251D01*
X0008510Y0072251D02*
X0008510Y0070750D01*
X0007537Y0071000D02*
X0007287Y0070750D01*
X0006787Y0070750D01*
X0006536Y0071000D01*
X0006536Y0072001D01*
X0006787Y0072251D01*
X0007287Y0072251D01*
X0007537Y0072001D01*
X0007537Y0071000D01*
X0006064Y0070750D02*
X0006064Y0072251D01*
X0005313Y0072251D01*
X0005063Y0072001D01*
X0005063Y0071501D01*
X0005313Y0071251D01*
X0006064Y0071251D01*
X0005564Y0071251D02*
X0005063Y0070750D01*
X0004691Y0061716D02*
X0004691Y0060215D01*
X0005692Y0061716D01*
X0005692Y0060215D01*
X0006164Y0060465D02*
X0006164Y0060966D01*
X0006665Y0060966D01*
X0007165Y0061466D02*
X0007165Y0060465D01*
X0006915Y0060215D01*
X0006414Y0060215D01*
X0006164Y0060465D01*
X0006164Y0061466D02*
X0006414Y0061716D01*
X0006915Y0061716D01*
X0007165Y0061466D01*
X0007637Y0060966D02*
X0008638Y0060966D01*
X0009111Y0061716D02*
X0010112Y0061716D01*
X0010584Y0061716D02*
X0010584Y0060215D01*
X0009611Y0060215D02*
X0009611Y0061716D01*
X0010584Y0061716D02*
X0011084Y0061216D01*
X0011585Y0061716D01*
X0011585Y0060215D01*
X0004219Y0060215D02*
X0004219Y0061716D01*
X0003468Y0061716D01*
X0003218Y0061466D01*
X0003218Y0060465D01*
X0003468Y0060215D01*
X0004219Y0060215D01*
X0014097Y0049253D02*
X0013847Y0049003D01*
X0013847Y0048503D01*
X0014097Y0048253D01*
X0014848Y0048253D01*
X0014348Y0048253D02*
X0013847Y0047752D01*
X0014848Y0047752D02*
X0014848Y0049253D01*
X0014097Y0049253D01*
X0015320Y0049253D02*
X0016321Y0049253D01*
X0016321Y0047752D01*
X0015320Y0047752D01*
X0015821Y0048503D02*
X0016321Y0048503D01*
X0016794Y0048253D02*
X0016794Y0049253D01*
X0016794Y0048253D02*
X0017294Y0047752D01*
X0017794Y0048253D01*
X0017794Y0049253D01*
X0018276Y0049253D02*
X0018777Y0049253D01*
X0018526Y0049253D02*
X0018526Y0047752D01*
X0018276Y0047752D02*
X0018777Y0047752D01*
X0019249Y0047752D02*
X0019749Y0048253D01*
X0019499Y0048253D02*
X0020250Y0048253D01*
X0020250Y0047752D02*
X0020250Y0049253D01*
X0019499Y0049253D01*
X0019249Y0049003D01*
X0019249Y0048503D01*
X0019499Y0048253D01*
X0020722Y0048002D02*
X0020722Y0049003D01*
X0020973Y0049253D01*
X0021723Y0049253D01*
X0021723Y0047752D01*
X0020973Y0047752D01*
X0020722Y0048002D01*
X0022196Y0047752D02*
X0022196Y0049253D01*
X0022696Y0048753D01*
X0023196Y0049253D01*
X0023196Y0047752D01*
X0051702Y0071552D02*
X0051702Y0071802D01*
X0051952Y0072052D01*
X0053203Y0072052D01*
X0053203Y0071302D01*
X0052953Y0071051D01*
X0052453Y0071051D01*
X0052202Y0071302D01*
X0052202Y0072052D01*
X0052202Y0072525D02*
X0053203Y0072525D01*
X0053203Y0073275D01*
X0052953Y0073526D01*
X0052202Y0073526D01*
X0052453Y0073998D02*
X0052953Y0073998D01*
X0053203Y0074248D01*
X0053203Y0074999D01*
X0053704Y0074999D02*
X0052202Y0074999D01*
X0052202Y0074248D01*
X0052453Y0073998D01*
X0059855Y0073407D02*
X0060105Y0073657D01*
X0060606Y0073657D01*
X0060856Y0073407D01*
X0060856Y0072907D01*
X0060606Y0072656D01*
X0060105Y0072656D01*
X0059855Y0072907D01*
X0059855Y0073407D01*
X0060105Y0072184D02*
X0060355Y0071934D01*
X0060355Y0071433D01*
X0060606Y0071183D01*
X0060856Y0071433D01*
X0060856Y0072184D01*
X0060105Y0072184D02*
X0059855Y0071934D01*
X0059855Y0071183D01*
X0068284Y0072242D02*
X0068785Y0072242D01*
X0068534Y0072242D02*
X0068534Y0073243D01*
X0068785Y0073243D01*
X0069257Y0073243D02*
X0070008Y0073243D01*
X0070258Y0072992D01*
X0070008Y0072742D01*
X0069507Y0072742D01*
X0069257Y0072492D01*
X0069507Y0072242D01*
X0070258Y0072242D01*
X0068534Y0073743D02*
X0068534Y0073993D01*
X0075530Y0074007D02*
X0075530Y0073256D01*
X0075780Y0073006D01*
X0076280Y0073006D01*
X0076530Y0073256D01*
X0076530Y0074007D01*
X0076030Y0074479D02*
X0076530Y0075230D01*
X0076030Y0074479D02*
X0075530Y0075230D01*
X0075530Y0074479D02*
X0077031Y0074479D01*
X0076530Y0072534D02*
X0076530Y0071783D01*
X0076280Y0071533D01*
X0076030Y0071783D01*
X0076030Y0072283D01*
X0075780Y0072534D01*
X0075530Y0072283D01*
X0075530Y0071533D01*
X0083484Y0071108D02*
X0084985Y0071108D01*
X0084485Y0071358D02*
X0084485Y0071859D01*
X0084234Y0072109D01*
X0083484Y0072109D01*
X0083484Y0072581D02*
X0083484Y0073332D01*
X0083734Y0073582D01*
X0083984Y0073332D01*
X0083984Y0072832D01*
X0084234Y0072581D01*
X0084485Y0072832D01*
X0084485Y0073582D01*
X0084234Y0074055D02*
X0084485Y0074305D01*
X0084485Y0075056D01*
X0083984Y0074805D02*
X0083984Y0074305D01*
X0084234Y0074055D01*
X0083484Y0074055D02*
X0083484Y0074805D01*
X0083734Y0075056D01*
X0083984Y0074805D01*
X0084485Y0071358D02*
X0084234Y0071108D01*
X0077275Y0010129D02*
X0077025Y0010129D01*
X0076775Y0009878D01*
X0076524Y0010129D01*
X0076274Y0010129D01*
X0076024Y0009878D01*
X0076024Y0009378D01*
X0076274Y0009128D01*
X0076274Y0008641D02*
X0076024Y0008641D01*
X0076024Y0008391D01*
X0076274Y0008391D01*
X0076274Y0008641D01*
X0076274Y0007919D02*
X0076024Y0007669D01*
X0076024Y0007168D01*
X0076274Y0006918D01*
X0076775Y0007418D02*
X0076775Y0007669D01*
X0076524Y0007919D01*
X0076274Y0007919D01*
X0076775Y0007669D02*
X0077025Y0007919D01*
X0077275Y0007919D01*
X0077525Y0007669D01*
X0077525Y0007168D01*
X0077275Y0006918D01*
X0077275Y0009128D02*
X0077525Y0009378D01*
X0077525Y0009878D01*
X0077275Y0010129D01*
X0076775Y0009878D02*
X0076775Y0009628D01*
X0069092Y0009719D02*
X0068092Y0009719D01*
X0067841Y0009969D01*
X0068842Y0009969D02*
X0068842Y0009469D01*
X0068842Y0008996D02*
X0068842Y0008246D01*
X0068592Y0007996D01*
X0068342Y0008246D01*
X0068342Y0008746D01*
X0068092Y0008996D01*
X0067841Y0008746D01*
X0067841Y0007996D01*
X0068842Y0007519D02*
X0068842Y0007268D01*
X0068342Y0006768D01*
X0068842Y0006768D02*
X0067841Y0006768D01*
X0099181Y0007749D02*
X0099181Y0007999D01*
X0099431Y0008249D01*
X0100682Y0008249D01*
X0100682Y0007498D01*
X0100432Y0007248D01*
X0099932Y0007248D01*
X0099681Y0007498D01*
X0099681Y0008249D01*
X0099681Y0008721D02*
X0100682Y0008721D01*
X0100682Y0009472D01*
X0100432Y0009722D01*
X0099681Y0009722D01*
X0099932Y0010195D02*
X0100432Y0010195D01*
X0100682Y0010445D01*
X0100682Y0011196D01*
X0101183Y0011196D02*
X0099681Y0011196D01*
X0099681Y0010445D01*
X0099932Y0010195D01*
D11*
X0051473Y0059391D02*
X0047069Y0059391D01*
X0047069Y0060858D02*
X0047069Y0057923D01*
X0050005Y0057923D02*
X0051473Y0059391D01*
X0037865Y0060982D02*
X0035503Y0060982D01*
X0035503Y0065707D02*
X0037865Y0065707D01*
X0029531Y0055183D02*
X0012531Y0055183D01*
X0012455Y0055181D01*
X0012379Y0055175D01*
X0012304Y0055166D01*
X0012229Y0055152D01*
X0012155Y0055135D01*
X0012082Y0055114D01*
X0012010Y0055090D01*
X0011939Y0055061D01*
X0011870Y0055030D01*
X0011803Y0054995D01*
X0011738Y0054956D01*
X0011674Y0054914D01*
X0011613Y0054869D01*
X0011554Y0054821D01*
X0011498Y0054770D01*
X0011444Y0054716D01*
X0011393Y0054660D01*
X0011345Y0054601D01*
X0011300Y0054540D01*
X0011258Y0054476D01*
X0011219Y0054411D01*
X0011184Y0054344D01*
X0011153Y0054275D01*
X0011124Y0054204D01*
X0011100Y0054132D01*
X0011079Y0054059D01*
X0011062Y0053985D01*
X0011048Y0053910D01*
X0011039Y0053835D01*
X0011033Y0053759D01*
X0011031Y0053683D01*
X0011031Y0041283D01*
X0011033Y0041207D01*
X0011039Y0041131D01*
X0011048Y0041056D01*
X0011062Y0040981D01*
X0011079Y0040907D01*
X0011100Y0040834D01*
X0011124Y0040762D01*
X0011153Y0040691D01*
X0011184Y0040622D01*
X0011219Y0040555D01*
X0011258Y0040490D01*
X0011300Y0040426D01*
X0011345Y0040365D01*
X0011393Y0040306D01*
X0011444Y0040250D01*
X0011498Y0040196D01*
X0011554Y0040145D01*
X0011613Y0040097D01*
X0011674Y0040052D01*
X0011738Y0040010D01*
X0011803Y0039971D01*
X0011870Y0039936D01*
X0011939Y0039905D01*
X0012010Y0039876D01*
X0012082Y0039852D01*
X0012155Y0039831D01*
X0012229Y0039814D01*
X0012304Y0039800D01*
X0012379Y0039791D01*
X0012455Y0039785D01*
X0012531Y0039783D01*
X0029531Y0039783D01*
X0029607Y0039785D01*
X0029683Y0039791D01*
X0029758Y0039800D01*
X0029833Y0039814D01*
X0029907Y0039831D01*
X0029980Y0039852D01*
X0030052Y0039876D01*
X0030123Y0039905D01*
X0030192Y0039936D01*
X0030259Y0039971D01*
X0030324Y0040010D01*
X0030388Y0040052D01*
X0030449Y0040097D01*
X0030508Y0040145D01*
X0030564Y0040196D01*
X0030618Y0040250D01*
X0030669Y0040306D01*
X0030717Y0040365D01*
X0030762Y0040426D01*
X0030804Y0040490D01*
X0030843Y0040555D01*
X0030878Y0040622D01*
X0030909Y0040691D01*
X0030938Y0040762D01*
X0030962Y0040834D01*
X0030983Y0040907D01*
X0031000Y0040981D01*
X0031014Y0041056D01*
X0031023Y0041131D01*
X0031029Y0041207D01*
X0031031Y0041283D01*
X0031031Y0053683D01*
X0031029Y0053759D01*
X0031023Y0053835D01*
X0031014Y0053910D01*
X0031000Y0053985D01*
X0030983Y0054059D01*
X0030962Y0054132D01*
X0030938Y0054204D01*
X0030909Y0054275D01*
X0030878Y0054344D01*
X0030843Y0054411D01*
X0030804Y0054476D01*
X0030762Y0054540D01*
X0030717Y0054601D01*
X0030669Y0054660D01*
X0030618Y0054716D01*
X0030564Y0054770D01*
X0030508Y0054821D01*
X0030449Y0054869D01*
X0030388Y0054914D01*
X0030324Y0054956D01*
X0030259Y0054995D01*
X0030192Y0055030D01*
X0030123Y0055061D01*
X0030052Y0055090D01*
X0029980Y0055114D01*
X0029907Y0055135D01*
X0029833Y0055152D01*
X0029758Y0055166D01*
X0029683Y0055175D01*
X0029607Y0055181D01*
X0029531Y0055183D01*
X0011031Y0049483D02*
X0011119Y0049481D01*
X0011208Y0049475D01*
X0011296Y0049465D01*
X0011383Y0049452D01*
X0011470Y0049434D01*
X0011556Y0049413D01*
X0011641Y0049388D01*
X0011724Y0049359D01*
X0011807Y0049326D01*
X0011887Y0049290D01*
X0011966Y0049251D01*
X0012044Y0049208D01*
X0012119Y0049161D01*
X0012192Y0049111D01*
X0012263Y0049058D01*
X0012332Y0049002D01*
X0012398Y0048943D01*
X0012461Y0048881D01*
X0012521Y0048817D01*
X0012579Y0048750D01*
X0012633Y0048680D01*
X0012685Y0048608D01*
X0012733Y0048534D01*
X0012778Y0048457D01*
X0012819Y0048379D01*
X0012857Y0048299D01*
X0012891Y0048218D01*
X0012922Y0048135D01*
X0012949Y0048050D01*
X0012972Y0047965D01*
X0012991Y0047879D01*
X0013007Y0047791D01*
X0013019Y0047704D01*
X0013027Y0047616D01*
X0013031Y0047527D01*
X0013031Y0047439D01*
X0013027Y0047350D01*
X0013019Y0047262D01*
X0013007Y0047175D01*
X0012991Y0047087D01*
X0012972Y0047001D01*
X0012949Y0046916D01*
X0012922Y0046831D01*
X0012891Y0046748D01*
X0012857Y0046667D01*
X0012819Y0046587D01*
X0012778Y0046509D01*
X0012733Y0046432D01*
X0012685Y0046358D01*
X0012633Y0046286D01*
X0012579Y0046216D01*
X0012521Y0046149D01*
X0012461Y0046085D01*
X0012398Y0046023D01*
X0012332Y0045964D01*
X0012263Y0045908D01*
X0012192Y0045855D01*
X0012119Y0045805D01*
X0012044Y0045758D01*
X0011966Y0045715D01*
X0011887Y0045676D01*
X0011807Y0045640D01*
X0011724Y0045607D01*
X0011641Y0045578D01*
X0011556Y0045553D01*
X0011470Y0045532D01*
X0011383Y0045514D01*
X0011296Y0045501D01*
X0011208Y0045491D01*
X0011119Y0045485D01*
X0011031Y0045483D01*
X0015717Y0010862D02*
X0018079Y0010862D01*
X0018079Y0006138D02*
X0015717Y0006138D01*
D12*
X0013125Y0008500D02*
X0020670Y0008500D01*
X0016898Y0004727D02*
X0016898Y0012273D01*
X0019258Y0019254D02*
X0019258Y0027010D01*
X0016153Y0023157D02*
X0008397Y0023157D01*
X0012275Y0019279D02*
X0012275Y0027035D01*
X0015380Y0023132D02*
X0023136Y0023132D01*
X0023027Y0023060D02*
X0030783Y0023060D01*
X0026905Y0019182D02*
X0026905Y0026938D01*
X0035437Y0036333D02*
X0043193Y0036333D01*
X0039400Y0038817D02*
X0039400Y0046572D01*
X0039416Y0044287D02*
X0039416Y0052043D01*
X0035538Y0048165D02*
X0043294Y0048165D01*
X0043278Y0042695D02*
X0035522Y0042695D01*
X0039315Y0040211D02*
X0039315Y0032456D01*
X0025031Y0047483D02*
X0017031Y0047483D01*
X0021031Y0043483D02*
X0021031Y0051483D01*
X0009217Y0056661D02*
X0003211Y0056661D01*
X0006214Y0053658D02*
X0006214Y0059665D01*
X0006084Y0063551D02*
X0006084Y0069557D01*
X0003081Y0066554D02*
X0009087Y0066554D01*
X0028023Y0072037D02*
X0034029Y0072037D01*
X0031026Y0075040D02*
X0031026Y0069033D01*
X0036684Y0067117D02*
X0036684Y0059572D01*
X0032911Y0063344D02*
X0040457Y0063344D01*
X0072769Y0040632D02*
X0080769Y0040632D01*
X0076769Y0036632D02*
X0076769Y0044632D01*
D13*
X0039400Y0042695D03*
X0039416Y0048165D03*
X0039315Y0036333D03*
D14*
X0031031Y0053783D02*
X0011031Y0053783D01*
D15*
X0012275Y0023157D03*
X0019258Y0023132D03*
X0026905Y0023060D03*
D16*
X0045273Y0009136D02*
X0108265Y0009136D01*
X0108265Y0072128D01*
X0045273Y0072128D01*
X0045273Y0009136D01*
X0057084Y0024884D02*
X0064958Y0024884D01*
X0064958Y0032758D01*
X0057084Y0032758D01*
X0057084Y0024884D01*
X0053147Y0040632D02*
X0053147Y0056380D01*
X0068895Y0056380D01*
X0068895Y0040632D01*
X0053147Y0040632D01*
M02*
