G75*
%MOIN*%
%OFA0B0*%
%FSLAX25Y25*%
%IPPOS*%
%LPD*%
%AMOC8*
5,1,8,0,0,1.08239X$1,22.5*
%
%ADD10R,0.03550X0.05124*%
%ADD11R,0.06400X0.05400*%
%ADD12R,0.04731X0.04337*%
%ADD13R,0.05400X0.06400*%
%ADD14R,0.03000X0.08400*%
%ADD15R,0.04337X0.04731*%
%ADD16R,0.05124X0.12211*%
D10*
X0013354Y0008500D03*
X0020441Y0008500D03*
X0033141Y0063344D03*
X0040227Y0063344D03*
D11*
X0006084Y0066554D03*
X0006214Y0056661D03*
D12*
X0036070Y0048165D03*
X0036054Y0042695D03*
X0042747Y0042695D03*
X0042763Y0048165D03*
X0042661Y0036333D03*
X0035968Y0036333D03*
D13*
X0031026Y0072037D03*
D14*
X0028531Y0059583D03*
X0023531Y0059583D03*
X0018531Y0059583D03*
X0013531Y0059583D03*
X0013531Y0035383D03*
X0018531Y0035383D03*
X0023531Y0035383D03*
X0028531Y0035383D03*
D15*
X0026905Y0026406D03*
X0026905Y0019713D03*
X0019258Y0019785D03*
X0012275Y0019810D03*
X0012275Y0026503D03*
X0019258Y0026478D03*
D16*
X0049210Y0011104D03*
X0057084Y0011104D03*
X0064958Y0011104D03*
X0072832Y0011104D03*
X0080706Y0011104D03*
X0088580Y0011104D03*
X0096454Y0011104D03*
X0104328Y0011104D03*
X0104328Y0070160D03*
X0096454Y0070160D03*
X0088580Y0070160D03*
X0080706Y0070160D03*
X0072832Y0070160D03*
X0064958Y0070160D03*
X0057084Y0070160D03*
X0049210Y0070160D03*
M02*
