G75*
%MOIN*%
%OFA0B0*%
%FSLAX25Y25*%
%IPPOS*%
%LPD*%
%AMOC8*
5,1,8,0,0,1.08239X$1,22.5*
%
%ADD10C,0.00000*%
%ADD11C,0.00700*%
%ADD12R,0.04331X0.03937*%
%ADD13R,0.06000X0.05000*%
%ADD14R,0.05000X0.06000*%
%ADD15R,0.03150X0.04724*%
%ADD16R,0.01969X0.02559*%
%ADD17R,0.02165X0.04724*%
%ADD18R,0.05000X0.02200*%
%ADD19R,0.02200X0.05000*%
%ADD20C,0.01772*%
D10*
X0002934Y0075619D02*
X0002502Y0320712D01*
X0391203Y0320712D01*
X0391203Y0005751D01*
X0108515Y0005584D01*
D11*
X0002867Y0005651D02*
X0002934Y0075619D01*
X0108462Y0075672D01*
X0108515Y0005584D01*
X0002867Y0005651D01*
D12*
X0005040Y0008242D03*
X0011732Y0008242D03*
X0012370Y0040535D03*
X0005677Y0040535D03*
X0019913Y0047467D03*
X0026606Y0047467D03*
X0025637Y0053851D03*
X0018945Y0053851D03*
X0022628Y0060343D03*
X0029321Y0060343D03*
X0029406Y0067084D03*
X0022713Y0067084D03*
X0074975Y0072340D03*
X0081668Y0072340D03*
D13*
X0104773Y0046325D03*
X0104773Y0039702D03*
X0104773Y0032467D03*
X0104737Y0025139D03*
X0105034Y0017648D03*
X0006475Y0019216D03*
X0006263Y0026550D03*
X0006302Y0033526D03*
X0006112Y0056957D03*
X0006180Y0064829D03*
X0006233Y0072841D03*
D14*
X0029783Y0009032D03*
X0037771Y0008927D03*
X0045402Y0008973D03*
X0053373Y0008926D03*
X0061201Y0008926D03*
X0068899Y0009056D03*
X0076801Y0009001D03*
X0084750Y0009033D03*
X0092826Y0009137D03*
X0099826Y0009074D03*
X0088774Y0072325D03*
D15*
X0044371Y0055537D03*
X0037285Y0055537D03*
X0023520Y0008741D03*
X0016433Y0008741D03*
D16*
X0061467Y0015624D03*
X0064617Y0015624D03*
X0067766Y0015624D03*
X0070916Y0015624D03*
X0070916Y0020545D03*
X0067766Y0020545D03*
X0064617Y0020545D03*
X0061467Y0020545D03*
G36*
X0087225Y0020997D02*
X0088490Y0022504D01*
X0090449Y0020861D01*
X0089184Y0019354D01*
X0087225Y0020997D01*
G37*
G36*
X0089250Y0023410D02*
X0090515Y0024917D01*
X0092474Y0023274D01*
X0091209Y0021767D01*
X0089250Y0023410D01*
G37*
G36*
X0091274Y0025822D02*
X0092539Y0027329D01*
X0094498Y0025686D01*
X0093233Y0024179D01*
X0091274Y0025822D01*
G37*
G36*
X0093299Y0028235D02*
X0094564Y0029742D01*
X0096523Y0028099D01*
X0095258Y0026592D01*
X0093299Y0028235D01*
G37*
G36*
X0095044Y0022659D02*
X0096309Y0024166D01*
X0098268Y0022523D01*
X0097003Y0021016D01*
X0095044Y0022659D01*
G37*
G36*
X0093019Y0020246D02*
X0094284Y0021753D01*
X0096243Y0020110D01*
X0094978Y0018603D01*
X0093019Y0020246D01*
G37*
G36*
X0090995Y0017833D02*
X0092260Y0019340D01*
X0094219Y0017697D01*
X0092954Y0016190D01*
X0090995Y0017833D01*
G37*
G36*
X0097069Y0025072D02*
X0098334Y0026579D01*
X0100293Y0024936D01*
X0099028Y0023429D01*
X0097069Y0025072D01*
G37*
D17*
X0046334Y0034819D03*
X0042593Y0034819D03*
X0038853Y0034819D03*
X0028605Y0033440D03*
X0021125Y0033440D03*
X0021125Y0023203D03*
X0024865Y0023203D03*
X0028605Y0023203D03*
X0038853Y0045056D03*
X0046334Y0045056D03*
D18*
X0055927Y0044106D03*
X0055927Y0047255D03*
X0055927Y0050405D03*
X0055927Y0053555D03*
X0055927Y0056704D03*
X0055927Y0040956D03*
X0055927Y0037806D03*
X0055927Y0034657D03*
X0089727Y0034657D03*
X0089727Y0037806D03*
X0089727Y0040956D03*
X0089727Y0044106D03*
X0089727Y0047255D03*
X0089727Y0050405D03*
X0089727Y0053555D03*
X0089727Y0056704D03*
D19*
X0083851Y0062580D03*
X0080701Y0062580D03*
X0077552Y0062580D03*
X0074402Y0062580D03*
X0071253Y0062580D03*
X0068103Y0062580D03*
X0064953Y0062580D03*
X0061804Y0062580D03*
X0061804Y0028780D03*
X0064953Y0028780D03*
X0068103Y0028780D03*
X0071253Y0028780D03*
X0074402Y0028780D03*
X0077552Y0028780D03*
X0080701Y0028780D03*
X0083851Y0028780D03*
D20*
X0099281Y0053539D02*
X0105009Y0053539D01*
X0105009Y0058264D02*
X0099281Y0058264D01*
X0099281Y0062988D02*
X0105009Y0062988D01*
M02*
