G75*
%MOIN*%
%OFA0B0*%
%FSLAX25Y25*%
%IPPOS*%
%LPD*%
%AMOC8*
5,1,8,0,0,1.08239X$1,22.5*
%
%ADD10C,0.00100*%
%ADD11R,0.01800X0.03000*%
%ADD12C,0.00000*%
%ADD13C,0.00600*%
%ADD14C,0.00800*%
D10*
X0007036Y0011076D02*
X0007036Y0012577D01*
X0007787Y0012577D01*
X0008037Y0012327D01*
X0008037Y0011827D01*
X0007787Y0011576D01*
X0007036Y0011576D01*
X0007537Y0011576D02*
X0008037Y0011076D01*
X0008509Y0011076D02*
X0009510Y0011076D01*
X0009010Y0011076D02*
X0009010Y0012577D01*
X0008509Y0012077D01*
X0010779Y0018489D02*
X0011530Y0018489D01*
X0011780Y0018739D01*
X0011780Y0018989D01*
X0011530Y0019239D01*
X0010779Y0019239D01*
X0010779Y0018489D02*
X0010779Y0019990D01*
X0011530Y0019990D01*
X0011780Y0019740D01*
X0011780Y0019490D01*
X0011530Y0019239D01*
X0012253Y0019239D02*
X0013254Y0019239D01*
X0013254Y0019490D02*
X0013254Y0018489D01*
X0014226Y0018489D02*
X0014226Y0019990D01*
X0013726Y0019990D02*
X0014727Y0019990D01*
X0015199Y0019239D02*
X0016200Y0019239D01*
X0013254Y0019490D02*
X0012753Y0019990D01*
X0012253Y0019490D01*
X0012253Y0018489D01*
X0018309Y0014887D02*
X0018309Y0013887D01*
X0018559Y0013636D01*
X0019059Y0013636D01*
X0019309Y0013887D01*
X0019782Y0013636D02*
X0020783Y0013636D01*
X0020282Y0013636D02*
X0020282Y0015138D01*
X0019782Y0014637D01*
X0019309Y0014887D02*
X0019059Y0015138D01*
X0018559Y0015138D01*
X0018309Y0014887D01*
X0027470Y0014327D02*
X0027470Y0012825D01*
X0028220Y0012825D01*
X0028470Y0013076D01*
X0028470Y0014076D01*
X0028220Y0014327D01*
X0027470Y0014327D01*
X0028943Y0014327D02*
X0029944Y0014327D01*
X0030416Y0014327D02*
X0031167Y0014327D01*
X0031417Y0014076D01*
X0031417Y0013576D01*
X0031167Y0013326D01*
X0030416Y0013326D01*
X0030916Y0013326D02*
X0031417Y0012825D01*
X0030416Y0012825D02*
X0030416Y0014327D01*
X0029443Y0014327D02*
X0029443Y0012825D01*
X0034798Y0012902D02*
X0035049Y0012652D01*
X0035549Y0012652D01*
X0035799Y0012902D01*
X0035799Y0013153D01*
X0035549Y0013403D01*
X0035049Y0013403D01*
X0034798Y0013653D01*
X0034798Y0013903D01*
X0035049Y0014153D01*
X0035549Y0014153D01*
X0035799Y0013903D01*
X0036272Y0014153D02*
X0036272Y0013153D01*
X0036772Y0012652D01*
X0037273Y0013153D01*
X0037273Y0014153D01*
X0037745Y0013403D02*
X0038746Y0013403D01*
X0038245Y0013903D02*
X0038245Y0012902D01*
X0041171Y0013076D02*
X0041421Y0012825D01*
X0041921Y0012825D01*
X0042172Y0013076D01*
X0042172Y0013576D01*
X0041671Y0013576D01*
X0041171Y0014076D02*
X0041171Y0013076D01*
X0041171Y0014076D02*
X0041421Y0014327D01*
X0041921Y0014327D01*
X0042172Y0014076D01*
X0042644Y0014327D02*
X0043645Y0012825D01*
X0043645Y0014327D01*
X0044117Y0014327D02*
X0044868Y0014327D01*
X0045118Y0014076D01*
X0045118Y0013076D01*
X0044868Y0012825D01*
X0044117Y0012825D01*
X0044117Y0014327D01*
X0042644Y0014327D02*
X0042644Y0012825D01*
X0049456Y0012965D02*
X0049456Y0013966D01*
X0049957Y0014467D01*
X0050457Y0013966D01*
X0050457Y0012965D01*
X0050929Y0013216D02*
X0051180Y0012965D01*
X0051680Y0012965D01*
X0051930Y0013216D01*
X0051930Y0014467D01*
X0052403Y0014467D02*
X0053404Y0012965D01*
X0053876Y0013716D02*
X0054877Y0013716D01*
X0054627Y0012965D02*
X0054627Y0014467D01*
X0053876Y0013716D01*
X0053404Y0014467D02*
X0052403Y0012965D01*
X0050929Y0013216D02*
X0050929Y0014467D01*
X0050457Y0013716D02*
X0049456Y0013716D01*
X0057445Y0013873D02*
X0058446Y0013873D01*
X0058446Y0014123D02*
X0058446Y0013122D01*
X0058918Y0013372D02*
X0059168Y0013122D01*
X0059669Y0013122D01*
X0059919Y0013372D01*
X0059919Y0014623D01*
X0060391Y0014623D02*
X0061392Y0013122D01*
X0061865Y0013372D02*
X0062115Y0013122D01*
X0062615Y0013122D01*
X0062865Y0013372D01*
X0062865Y0013623D01*
X0062615Y0013873D01*
X0062365Y0013873D01*
X0062615Y0013873D02*
X0062865Y0014123D01*
X0062865Y0014373D01*
X0062615Y0014623D01*
X0062115Y0014623D01*
X0061865Y0014373D01*
X0061392Y0014623D02*
X0060391Y0013122D01*
X0058918Y0013372D02*
X0058918Y0014623D01*
X0058446Y0014123D02*
X0057945Y0014623D01*
X0057445Y0014123D01*
X0057445Y0013122D01*
X0057177Y0019052D02*
X0056677Y0019552D01*
X0056927Y0019552D02*
X0056177Y0019552D01*
X0056177Y0019052D02*
X0056177Y0020553D01*
X0056927Y0020553D01*
X0057177Y0020303D01*
X0057177Y0019802D01*
X0056927Y0019552D01*
X0057650Y0019302D02*
X0057900Y0019052D01*
X0058400Y0019052D01*
X0058651Y0019302D01*
X0058651Y0020303D01*
X0058400Y0020553D01*
X0057900Y0020553D01*
X0057650Y0020303D01*
X0057650Y0020052D01*
X0057900Y0019802D01*
X0058651Y0019802D01*
X0065747Y0014123D02*
X0066247Y0014623D01*
X0066748Y0014123D01*
X0066748Y0013122D01*
X0067220Y0013372D02*
X0067470Y0013122D01*
X0067971Y0013122D01*
X0068221Y0013372D01*
X0068221Y0014623D01*
X0068693Y0014623D02*
X0069694Y0013122D01*
X0070167Y0013122D02*
X0071167Y0014123D01*
X0071167Y0014373D01*
X0070917Y0014623D01*
X0070417Y0014623D01*
X0070167Y0014373D01*
X0069694Y0014623D02*
X0068693Y0013122D01*
X0070167Y0013122D02*
X0071167Y0013122D01*
X0073109Y0013279D02*
X0073109Y0014280D01*
X0073609Y0014780D01*
X0074110Y0014280D01*
X0074110Y0013279D01*
X0074582Y0013529D02*
X0074832Y0013279D01*
X0075333Y0013279D01*
X0075583Y0013529D01*
X0075583Y0014780D01*
X0076055Y0014780D02*
X0077056Y0013279D01*
X0077529Y0013279D02*
X0078530Y0013279D01*
X0078029Y0013279D02*
X0078029Y0014780D01*
X0077529Y0014280D01*
X0077056Y0014780D02*
X0076055Y0013279D01*
X0074582Y0013529D02*
X0074582Y0014780D01*
X0074110Y0014030D02*
X0073109Y0014030D01*
X0067220Y0014623D02*
X0067220Y0013372D01*
X0066748Y0013873D02*
X0065747Y0013873D01*
X0065747Y0014123D02*
X0065747Y0013122D01*
X0080941Y0013436D02*
X0080941Y0014937D01*
X0081692Y0014937D01*
X0081942Y0014687D01*
X0081942Y0014186D01*
X0081692Y0013936D01*
X0080941Y0013936D01*
X0081441Y0013936D02*
X0081942Y0013436D01*
X0082414Y0013686D02*
X0082664Y0013436D01*
X0083165Y0013436D01*
X0083415Y0013686D01*
X0083415Y0013936D01*
X0083165Y0014186D01*
X0082664Y0014186D01*
X0082414Y0014436D01*
X0082414Y0014687D01*
X0082664Y0014937D01*
X0083165Y0014937D01*
X0083415Y0014687D01*
X0083888Y0014937D02*
X0084888Y0014937D01*
X0084388Y0014937D02*
X0084388Y0013436D01*
X0089086Y0014623D02*
X0090087Y0014623D01*
X0090560Y0014623D02*
X0091560Y0013122D01*
X0090560Y0013122D02*
X0091560Y0014623D01*
X0089587Y0014623D02*
X0089587Y0013122D01*
X0096448Y0013592D02*
X0096448Y0015094D01*
X0097199Y0015094D01*
X0097449Y0014843D01*
X0097449Y0014343D01*
X0097199Y0014093D01*
X0096448Y0014093D01*
X0096949Y0014093D02*
X0097449Y0013592D01*
X0097922Y0013592D02*
X0098923Y0015094D01*
X0097922Y0015094D02*
X0098923Y0013592D01*
X0099205Y0016059D02*
X0099205Y0017560D01*
X0099678Y0017560D02*
X0100428Y0017560D01*
X0100679Y0017310D01*
X0100679Y0016309D01*
X0100428Y0016059D01*
X0099678Y0016059D01*
X0099678Y0017560D01*
X0098204Y0017560D02*
X0099205Y0016059D01*
X0098204Y0016059D02*
X0098204Y0017560D01*
X0097732Y0017310D02*
X0097482Y0017560D01*
X0096981Y0017560D01*
X0096731Y0017310D01*
X0096731Y0016309D01*
X0096981Y0016059D01*
X0097482Y0016059D01*
X0097732Y0016309D01*
X0097732Y0016810D01*
X0097232Y0016810D01*
X0101077Y0020666D02*
X0101077Y0021667D01*
X0101577Y0022167D01*
X0102078Y0021667D01*
X0102078Y0020666D01*
X0102550Y0020666D02*
X0103301Y0020666D01*
X0103551Y0020916D01*
X0103551Y0021166D01*
X0103301Y0021416D01*
X0102550Y0021416D01*
X0102078Y0021416D02*
X0101077Y0021416D01*
X0102550Y0020666D02*
X0102550Y0022167D01*
X0103301Y0022167D01*
X0103551Y0021917D01*
X0103551Y0021667D01*
X0103301Y0021416D01*
X0104023Y0021166D02*
X0104774Y0021166D01*
X0105024Y0021416D01*
X0105024Y0021917D01*
X0104774Y0022167D01*
X0104023Y0022167D01*
X0104023Y0020666D01*
X0104524Y0021166D02*
X0105024Y0020666D01*
X0105497Y0020666D02*
X0105497Y0022167D01*
X0105747Y0021416D02*
X0106498Y0020666D01*
X0106970Y0020666D02*
X0107971Y0020666D01*
X0106970Y0020666D02*
X0106970Y0022167D01*
X0106498Y0022167D02*
X0105497Y0021166D01*
X0105064Y0027938D02*
X0105064Y0029439D01*
X0104591Y0029189D02*
X0104591Y0028689D01*
X0104341Y0028438D01*
X0103590Y0028438D01*
X0103118Y0028438D02*
X0103118Y0028188D01*
X0102868Y0027938D01*
X0102117Y0027938D01*
X0102117Y0029439D01*
X0102868Y0029439D01*
X0103118Y0029189D01*
X0103118Y0028939D01*
X0102868Y0028689D01*
X0102117Y0028689D01*
X0101645Y0028939D02*
X0101645Y0029189D01*
X0101394Y0029439D01*
X0100644Y0029439D01*
X0100644Y0027938D01*
X0101394Y0027938D01*
X0101645Y0028188D01*
X0101645Y0028438D01*
X0101394Y0028689D01*
X0100644Y0028689D01*
X0101394Y0028689D02*
X0101645Y0028939D01*
X0102868Y0028689D02*
X0103118Y0028438D01*
X0103590Y0027938D02*
X0103590Y0029439D01*
X0104341Y0029439D01*
X0104591Y0029189D01*
X0105314Y0028689D02*
X0106064Y0027938D01*
X0106537Y0027938D02*
X0107538Y0027938D01*
X0106537Y0027938D02*
X0106537Y0029439D01*
X0106064Y0029439D02*
X0105064Y0028438D01*
X0104591Y0027938D02*
X0104091Y0028438D01*
X0101704Y0039447D02*
X0101203Y0039948D01*
X0101454Y0039948D02*
X0100703Y0039948D01*
X0100703Y0039447D02*
X0100703Y0040949D01*
X0101454Y0040949D01*
X0101704Y0040698D01*
X0101704Y0040198D01*
X0101454Y0039948D01*
X0100231Y0040198D02*
X0099230Y0040198D01*
X0098757Y0040448D02*
X0098507Y0040198D01*
X0097756Y0040198D01*
X0097756Y0040949D02*
X0098507Y0040949D01*
X0098757Y0040698D01*
X0098757Y0040448D01*
X0098507Y0040198D02*
X0098757Y0039948D01*
X0098757Y0039698D01*
X0098507Y0039447D01*
X0097756Y0039447D01*
X0097756Y0040949D01*
X0097971Y0045570D02*
X0098722Y0045570D01*
X0098972Y0045820D01*
X0098972Y0046070D01*
X0098722Y0046321D01*
X0097971Y0046321D01*
X0097971Y0047071D02*
X0098722Y0047071D01*
X0098972Y0046821D01*
X0098972Y0046571D01*
X0098722Y0046321D01*
X0099444Y0046321D02*
X0100445Y0046321D01*
X0100918Y0047071D02*
X0100918Y0045570D01*
X0101918Y0045570D01*
X0097971Y0045570D02*
X0097971Y0047071D01*
X0093455Y0066854D02*
X0093455Y0068355D01*
X0092955Y0068355D02*
X0093955Y0068355D01*
X0092482Y0068355D02*
X0092482Y0066854D01*
X0092482Y0067604D02*
X0091481Y0067604D01*
X0091009Y0067604D02*
X0090508Y0067604D01*
X0091009Y0067604D02*
X0091009Y0067104D01*
X0090759Y0066854D01*
X0090258Y0066854D01*
X0090008Y0067104D01*
X0090008Y0068105D01*
X0090258Y0068355D01*
X0090759Y0068355D01*
X0091009Y0068105D01*
X0091481Y0068355D02*
X0091481Y0066854D01*
X0089526Y0066854D02*
X0089026Y0066854D01*
X0089276Y0066854D02*
X0089276Y0068355D01*
X0089026Y0068355D02*
X0089526Y0068355D01*
X0088553Y0066854D02*
X0087553Y0066854D01*
X0087553Y0068355D01*
X0080817Y0067806D02*
X0079816Y0067806D01*
X0079344Y0067806D02*
X0078343Y0067806D01*
X0077870Y0067806D02*
X0077370Y0068306D01*
X0077620Y0068306D02*
X0076870Y0068306D01*
X0076870Y0067806D02*
X0076870Y0069307D01*
X0077620Y0069307D01*
X0077870Y0069057D01*
X0077870Y0068556D01*
X0077620Y0068306D01*
X0078343Y0068807D02*
X0078843Y0069307D01*
X0078843Y0067806D01*
X0079816Y0068807D02*
X0080317Y0069307D01*
X0080317Y0067806D01*
X0072192Y0068132D02*
X0071191Y0068132D01*
X0071191Y0067382D01*
X0071691Y0067632D01*
X0071941Y0067632D01*
X0072192Y0067382D01*
X0072192Y0066881D01*
X0071941Y0066631D01*
X0071441Y0066631D01*
X0071191Y0066881D01*
X0070718Y0066631D02*
X0069717Y0068132D01*
X0069245Y0068132D02*
X0069245Y0066881D01*
X0068995Y0066631D01*
X0068494Y0066631D01*
X0068244Y0066881D01*
X0068244Y0068132D01*
X0067772Y0067632D02*
X0067772Y0066631D01*
X0067772Y0067382D02*
X0066771Y0067382D01*
X0066771Y0067632D02*
X0066771Y0066631D01*
X0066771Y0067632D02*
X0067271Y0068132D01*
X0067772Y0067632D01*
X0069717Y0066631D02*
X0070718Y0068132D01*
X0064488Y0068004D02*
X0063987Y0067754D01*
X0063487Y0067253D01*
X0064238Y0067253D01*
X0064488Y0067003D01*
X0064488Y0066753D01*
X0064238Y0066503D01*
X0063737Y0066503D01*
X0063487Y0066753D01*
X0063487Y0067253D01*
X0063015Y0066503D02*
X0062014Y0068004D01*
X0061541Y0068004D02*
X0061541Y0066753D01*
X0061291Y0066503D01*
X0060791Y0066503D01*
X0060541Y0066753D01*
X0060541Y0068004D01*
X0060068Y0067504D02*
X0059568Y0068004D01*
X0059067Y0067504D01*
X0059067Y0066503D01*
X0059067Y0067253D02*
X0060068Y0067253D01*
X0060068Y0067504D02*
X0060068Y0066503D01*
X0062014Y0066503D02*
X0063015Y0068004D01*
X0043373Y0060132D02*
X0042623Y0059382D01*
X0043624Y0059382D01*
X0043373Y0060132D02*
X0043373Y0058631D01*
X0042150Y0058881D02*
X0041900Y0058631D01*
X0041400Y0058631D01*
X0041149Y0058881D01*
X0041149Y0059882D01*
X0041400Y0060132D01*
X0041900Y0060132D01*
X0042150Y0059882D01*
X0025853Y0063274D02*
X0024852Y0063274D01*
X0025602Y0064024D01*
X0025602Y0062523D01*
X0024379Y0062523D02*
X0023879Y0063023D01*
X0024129Y0063023D02*
X0023378Y0063023D01*
X0023378Y0062523D02*
X0023378Y0064024D01*
X0024129Y0064024D01*
X0024379Y0063774D01*
X0024379Y0063274D01*
X0024129Y0063023D01*
X0017632Y0061171D02*
X0017632Y0060670D01*
X0017382Y0060420D01*
X0016631Y0060420D01*
X0016631Y0059920D02*
X0016631Y0061421D01*
X0017382Y0061421D01*
X0017632Y0061171D01*
X0017132Y0060420D02*
X0017632Y0059920D01*
X0016159Y0060170D02*
X0016159Y0061171D01*
X0015909Y0061421D01*
X0015158Y0061421D01*
X0015158Y0059920D01*
X0015909Y0059920D01*
X0016159Y0060170D01*
X0014685Y0059920D02*
X0013685Y0059920D01*
X0013685Y0061421D01*
X0013956Y0070717D02*
X0013455Y0071217D01*
X0013705Y0071217D02*
X0012955Y0071217D01*
X0012955Y0070717D02*
X0012955Y0072218D01*
X0013705Y0072218D01*
X0013956Y0071968D01*
X0013956Y0071467D01*
X0013705Y0071217D01*
X0014428Y0071467D02*
X0014928Y0071467D01*
X0014428Y0070717D02*
X0014428Y0072218D01*
X0015429Y0072218D01*
X0015901Y0072218D02*
X0015901Y0070717D01*
X0016902Y0070717D02*
X0016902Y0072218D01*
X0016402Y0071717D01*
X0015901Y0072218D01*
X0016151Y0073117D02*
X0016652Y0073117D01*
X0016902Y0073367D01*
X0017374Y0073117D02*
X0017374Y0074117D01*
X0017875Y0074618D01*
X0018375Y0074117D01*
X0018375Y0073117D01*
X0018848Y0073117D02*
X0018848Y0074618D01*
X0019598Y0074618D01*
X0019849Y0074368D01*
X0019849Y0073867D01*
X0019598Y0073617D01*
X0018848Y0073617D01*
X0019348Y0073617D02*
X0019849Y0073117D01*
X0020321Y0073867D02*
X0021322Y0073867D01*
X0021794Y0073617D02*
X0022295Y0073117D01*
X0022795Y0073617D01*
X0022795Y0074618D01*
X0023267Y0074117D02*
X0023768Y0074618D01*
X0023768Y0073117D01*
X0024268Y0073117D02*
X0023267Y0073117D01*
X0023518Y0072218D02*
X0023267Y0071968D01*
X0023267Y0070967D01*
X0023518Y0070717D01*
X0024018Y0070717D01*
X0024268Y0070967D01*
X0024268Y0071968D02*
X0024018Y0072218D01*
X0023518Y0072218D01*
X0022795Y0072218D02*
X0022795Y0070717D01*
X0022295Y0071217D01*
X0021794Y0070717D01*
X0021794Y0072218D01*
X0021322Y0072218D02*
X0021322Y0070717D01*
X0021322Y0071467D02*
X0020321Y0071467D01*
X0019849Y0071467D02*
X0019098Y0071467D01*
X0018848Y0071717D01*
X0018848Y0071968D01*
X0019098Y0072218D01*
X0019598Y0072218D01*
X0019849Y0071968D01*
X0019849Y0070967D01*
X0019598Y0070717D01*
X0019098Y0070717D01*
X0018848Y0070967D01*
X0018375Y0070967D02*
X0018375Y0071217D01*
X0018125Y0071467D01*
X0017374Y0071467D01*
X0017374Y0070967D01*
X0017625Y0070717D01*
X0018125Y0070717D01*
X0018375Y0070967D01*
X0017875Y0071968D02*
X0017374Y0071467D01*
X0017875Y0071968D02*
X0018375Y0072218D01*
X0018375Y0073867D02*
X0017374Y0073867D01*
X0016902Y0074368D02*
X0016652Y0074618D01*
X0016151Y0074618D01*
X0015901Y0074368D01*
X0015901Y0073367D01*
X0016151Y0073117D01*
X0015429Y0073367D02*
X0015179Y0073117D01*
X0014678Y0073117D01*
X0014428Y0073367D01*
X0014428Y0074368D01*
X0014678Y0074618D01*
X0015179Y0074618D01*
X0015429Y0074368D01*
X0013956Y0074368D02*
X0013956Y0073867D01*
X0013705Y0073617D01*
X0012955Y0073617D01*
X0013455Y0073617D02*
X0013956Y0073117D01*
X0012955Y0073117D02*
X0012955Y0074618D01*
X0013705Y0074618D01*
X0013956Y0074368D01*
X0020321Y0072218D02*
X0020321Y0070717D01*
X0021794Y0073617D02*
X0021794Y0074618D01*
X0024741Y0073367D02*
X0024991Y0073367D01*
X0024991Y0073117D01*
X0024741Y0073117D01*
X0024741Y0073367D01*
X0025477Y0073117D02*
X0026478Y0074117D01*
X0026478Y0074368D01*
X0026228Y0074618D01*
X0025728Y0074618D01*
X0025477Y0074368D01*
X0025477Y0073117D02*
X0026478Y0073117D01*
X0017523Y0053488D02*
X0016522Y0053488D01*
X0016522Y0052737D01*
X0017023Y0052988D01*
X0017273Y0052988D01*
X0017523Y0052737D01*
X0017523Y0052237D01*
X0017273Y0051987D01*
X0016772Y0051987D01*
X0016522Y0052237D01*
X0016050Y0051987D02*
X0015049Y0051987D01*
X0014577Y0051987D02*
X0014076Y0052487D01*
X0014326Y0052487D02*
X0013576Y0052487D01*
X0013576Y0051987D02*
X0013576Y0053488D01*
X0014326Y0053488D01*
X0014577Y0053238D01*
X0014577Y0052737D01*
X0014326Y0052487D01*
X0015049Y0052988D02*
X0015549Y0053488D01*
X0015549Y0051987D01*
X0011481Y0051930D02*
X0010981Y0051430D01*
X0010480Y0051930D01*
X0010480Y0052931D01*
X0010008Y0052681D02*
X0010008Y0052431D01*
X0009758Y0052181D01*
X0010008Y0051930D01*
X0010008Y0051680D01*
X0009758Y0051430D01*
X0009257Y0051430D01*
X0009007Y0051680D01*
X0008521Y0051680D02*
X0008521Y0051430D01*
X0008271Y0051430D01*
X0008271Y0051680D01*
X0008521Y0051680D01*
X0007798Y0051680D02*
X0007548Y0051430D01*
X0007048Y0051430D01*
X0006797Y0051680D01*
X0007298Y0052181D02*
X0007548Y0052181D01*
X0007798Y0051930D01*
X0007798Y0051680D01*
X0007548Y0052181D02*
X0007798Y0052431D01*
X0007798Y0052681D01*
X0007548Y0052931D01*
X0007048Y0052931D01*
X0006797Y0052681D01*
X0009007Y0052681D02*
X0009257Y0052931D01*
X0009758Y0052931D01*
X0010008Y0052681D01*
X0009758Y0052181D02*
X0009508Y0052181D01*
X0011481Y0051930D02*
X0011481Y0052931D01*
X0013900Y0047447D02*
X0014651Y0047447D01*
X0014901Y0047197D01*
X0014901Y0046696D01*
X0014651Y0046446D01*
X0013900Y0046446D01*
X0014400Y0046446D02*
X0014901Y0045946D01*
X0015373Y0045946D02*
X0016374Y0045946D01*
X0015874Y0045946D02*
X0015874Y0047447D01*
X0015373Y0046946D01*
X0016846Y0047197D02*
X0017097Y0047447D01*
X0017597Y0047447D01*
X0017847Y0047197D01*
X0016846Y0046196D01*
X0017097Y0045946D01*
X0017597Y0045946D01*
X0017847Y0046196D01*
X0017847Y0047197D01*
X0016846Y0047197D02*
X0016846Y0046196D01*
X0013900Y0045946D02*
X0013900Y0047447D01*
X0006515Y0044236D02*
X0006515Y0043986D01*
X0006265Y0043736D01*
X0006515Y0043486D01*
X0006515Y0043236D01*
X0006265Y0042985D01*
X0005765Y0042985D01*
X0005514Y0043236D01*
X0005042Y0042985D02*
X0004542Y0043486D01*
X0004792Y0043486D02*
X0004041Y0043486D01*
X0004041Y0042985D02*
X0004041Y0044487D01*
X0004792Y0044487D01*
X0005042Y0044236D01*
X0005042Y0043736D01*
X0004792Y0043486D01*
X0005514Y0044236D02*
X0005765Y0044487D01*
X0006265Y0044487D01*
X0006515Y0044236D01*
X0006265Y0043736D02*
X0006015Y0043736D01*
X0010723Y0034804D02*
X0011474Y0034804D01*
X0011724Y0034554D01*
X0011724Y0034303D01*
X0011474Y0034053D01*
X0010723Y0034053D01*
X0010723Y0033303D02*
X0011474Y0033303D01*
X0011724Y0033553D01*
X0011724Y0033803D01*
X0011474Y0034053D01*
X0012197Y0034053D02*
X0013197Y0034053D01*
X0013197Y0034303D02*
X0013197Y0033303D01*
X0014170Y0033303D02*
X0014170Y0034804D01*
X0013670Y0034804D02*
X0014671Y0034804D01*
X0015143Y0034053D02*
X0016144Y0034053D01*
X0015643Y0033553D02*
X0015643Y0034554D01*
X0013197Y0034303D02*
X0012697Y0034804D01*
X0012197Y0034303D01*
X0012197Y0033303D01*
X0010723Y0033303D02*
X0010723Y0034804D01*
X0011082Y0027794D02*
X0011832Y0027794D01*
X0012083Y0027543D01*
X0012083Y0027293D01*
X0011832Y0027043D01*
X0011082Y0027043D01*
X0011832Y0027043D02*
X0012083Y0026793D01*
X0012083Y0026542D01*
X0011832Y0026292D01*
X0011082Y0026292D01*
X0011082Y0027794D01*
X0012555Y0027293D02*
X0013055Y0027794D01*
X0013556Y0027293D01*
X0013556Y0026292D01*
X0013556Y0027043D02*
X0012555Y0027043D01*
X0012555Y0027293D02*
X0012555Y0026292D01*
X0014529Y0026292D02*
X0014529Y0027794D01*
X0015029Y0027794D02*
X0014028Y0027794D01*
X0015501Y0027043D02*
X0016502Y0027043D01*
X0016002Y0027543D02*
X0016002Y0026542D01*
X0029011Y0025167D02*
X0029011Y0023916D01*
X0029261Y0023666D01*
X0029762Y0023666D01*
X0030012Y0023916D01*
X0030012Y0025167D01*
X0030484Y0024917D02*
X0030734Y0025167D01*
X0031235Y0025167D01*
X0031485Y0024917D01*
X0031485Y0024667D01*
X0031235Y0024417D01*
X0031485Y0024166D01*
X0031485Y0023916D01*
X0031235Y0023666D01*
X0030734Y0023666D01*
X0030484Y0023916D01*
X0030985Y0024417D02*
X0031235Y0024417D01*
X0032040Y0036165D02*
X0032541Y0036165D01*
X0032791Y0036415D01*
X0032791Y0037667D01*
X0033263Y0036916D02*
X0034014Y0036916D01*
X0034264Y0036666D01*
X0034264Y0036415D01*
X0034014Y0036165D01*
X0033514Y0036165D01*
X0033263Y0036415D01*
X0033263Y0036916D01*
X0033764Y0037416D01*
X0034264Y0037667D01*
X0031790Y0037667D02*
X0031790Y0036415D01*
X0032040Y0036165D01*
D11*
X0023259Y0047467D03*
X0022291Y0053851D03*
X0025974Y0060343D03*
X0026060Y0067084D03*
X0009024Y0040535D03*
X0008386Y0008242D03*
X0078321Y0072340D03*
D12*
X0012264Y0008242D02*
X0004508Y0008242D01*
X0008386Y0012119D02*
X0008386Y0004364D01*
X0016204Y0008741D02*
X0023749Y0008741D01*
X0026779Y0009032D02*
X0032786Y0009032D01*
X0034768Y0008927D02*
X0040775Y0008927D01*
X0042399Y0008973D02*
X0048405Y0008973D01*
X0050370Y0008926D02*
X0056376Y0008926D01*
X0058198Y0008926D02*
X0064205Y0008926D01*
X0065896Y0009056D02*
X0071903Y0009056D01*
X0073798Y0009001D02*
X0079805Y0009001D01*
X0081747Y0009033D02*
X0087753Y0009033D01*
X0089822Y0009137D02*
X0095829Y0009137D01*
X0096822Y0009074D02*
X0102829Y0009074D01*
X0099826Y0012077D02*
X0099826Y0006070D01*
X0092826Y0006134D02*
X0092826Y0012140D01*
X0093759Y0018966D02*
X0093759Y0026966D01*
X0089759Y0022966D02*
X0097759Y0022966D01*
X0101734Y0025139D02*
X0107740Y0025139D01*
X0104737Y0022136D02*
X0104737Y0028142D01*
X0104773Y0029464D02*
X0104773Y0035470D01*
X0104773Y0036699D02*
X0104773Y0042705D01*
X0104773Y0043322D02*
X0104773Y0049328D01*
X0101770Y0046325D02*
X0107776Y0046325D01*
X0107776Y0039702D02*
X0101770Y0039702D01*
X0101770Y0032467D02*
X0107776Y0032467D01*
X0105034Y0020652D02*
X0105034Y0014645D01*
X0108037Y0017648D02*
X0102030Y0017648D01*
X0084750Y0012036D02*
X0084750Y0006029D01*
X0076801Y0005997D02*
X0076801Y0012004D01*
X0068899Y0012059D02*
X0068899Y0006053D01*
X0061201Y0005923D02*
X0061201Y0011929D01*
X0066191Y0014085D02*
X0066191Y0022085D01*
X0062191Y0018085D02*
X0070191Y0018085D01*
X0053373Y0011929D02*
X0053373Y0005923D01*
X0045402Y0005970D02*
X0045402Y0011976D01*
X0037771Y0011931D02*
X0037771Y0005924D01*
X0029783Y0006029D02*
X0029783Y0012036D01*
X0019976Y0012513D02*
X0019976Y0004968D01*
X0006475Y0016213D02*
X0006475Y0022219D01*
X0006263Y0023546D02*
X0006263Y0029553D01*
X0006302Y0030523D02*
X0006302Y0036529D01*
X0009024Y0036658D02*
X0009024Y0044413D01*
X0005146Y0040535D02*
X0012902Y0040535D01*
X0009305Y0033526D02*
X0003299Y0033526D01*
X0003260Y0026550D02*
X0009267Y0026550D01*
X0009478Y0019216D02*
X0003472Y0019216D01*
X0020865Y0028321D02*
X0028865Y0028321D01*
X0024865Y0024321D02*
X0024865Y0032321D01*
X0023259Y0043590D02*
X0023259Y0051345D01*
X0022291Y0049974D02*
X0022291Y0057729D01*
X0022097Y0060343D02*
X0029852Y0060343D01*
X0026060Y0063206D02*
X0026060Y0070962D01*
X0022182Y0067084D02*
X0029938Y0067084D01*
X0025974Y0064220D02*
X0025974Y0056465D01*
X0026169Y0053851D02*
X0018413Y0053851D01*
X0019382Y0047467D02*
X0027137Y0047467D01*
X0037055Y0055537D02*
X0044601Y0055537D01*
X0040828Y0051764D02*
X0040828Y0059309D01*
X0057948Y0072277D02*
X0063954Y0072277D01*
X0065400Y0072277D02*
X0071407Y0072277D01*
X0074444Y0072340D02*
X0082199Y0072340D01*
X0085771Y0072325D02*
X0091777Y0072325D01*
X0088774Y0069322D02*
X0088774Y0075328D01*
X0078321Y0076217D02*
X0078321Y0068462D01*
X0068404Y0069274D02*
X0068404Y0075280D01*
X0060951Y0075280D02*
X0060951Y0069274D01*
X0072827Y0049680D02*
X0072827Y0041680D01*
X0068827Y0045680D02*
X0076827Y0045680D01*
X0098145Y0058264D02*
X0106145Y0058264D01*
X0102145Y0054264D02*
X0102145Y0062264D01*
X0046593Y0039937D02*
X0038593Y0039937D01*
X0042593Y0035937D02*
X0042593Y0043937D01*
X0009116Y0056957D02*
X0003109Y0056957D01*
X0006112Y0053954D02*
X0006112Y0059960D01*
X0006180Y0061825D02*
X0006180Y0067832D01*
X0006233Y0069838D02*
X0006233Y0075844D01*
X0003230Y0072841D02*
X0009236Y0072841D01*
X0009183Y0064829D02*
X0003177Y0064829D01*
D13*
X0039647Y0057899D02*
X0042009Y0057899D01*
X0042009Y0053174D02*
X0039647Y0053174D01*
X0059028Y0059480D02*
X0086627Y0059480D01*
X0086627Y0033279D01*
X0085229Y0031881D01*
X0059028Y0031881D01*
X0059028Y0059480D01*
X0086544Y0030550D02*
X0086546Y0030625D01*
X0086552Y0030699D01*
X0086562Y0030773D01*
X0086575Y0030846D01*
X0086593Y0030919D01*
X0086614Y0030990D01*
X0086639Y0031061D01*
X0086668Y0031130D01*
X0086701Y0031197D01*
X0086737Y0031262D01*
X0086776Y0031326D01*
X0086818Y0031387D01*
X0086864Y0031446D01*
X0086913Y0031503D01*
X0086965Y0031556D01*
X0087019Y0031607D01*
X0087076Y0031656D01*
X0087136Y0031700D01*
X0087198Y0031742D01*
X0087262Y0031781D01*
X0087328Y0031816D01*
X0087395Y0031847D01*
X0087465Y0031875D01*
X0087535Y0031899D01*
X0087607Y0031920D01*
X0087680Y0031936D01*
X0087753Y0031949D01*
X0087828Y0031958D01*
X0087902Y0031963D01*
X0087977Y0031964D01*
X0088051Y0031961D01*
X0088126Y0031954D01*
X0088199Y0031943D01*
X0088273Y0031929D01*
X0088345Y0031910D01*
X0088416Y0031888D01*
X0088486Y0031862D01*
X0088555Y0031832D01*
X0088621Y0031799D01*
X0088686Y0031762D01*
X0088749Y0031722D01*
X0088810Y0031678D01*
X0088868Y0031632D01*
X0088924Y0031582D01*
X0088977Y0031530D01*
X0089028Y0031475D01*
X0089075Y0031417D01*
X0089119Y0031357D01*
X0089160Y0031294D01*
X0089198Y0031230D01*
X0089232Y0031164D01*
X0089263Y0031095D01*
X0089290Y0031026D01*
X0089313Y0030955D01*
X0089332Y0030883D01*
X0089348Y0030810D01*
X0089360Y0030736D01*
X0089368Y0030662D01*
X0089372Y0030587D01*
X0089372Y0030513D01*
X0089368Y0030438D01*
X0089360Y0030364D01*
X0089348Y0030290D01*
X0089332Y0030217D01*
X0089313Y0030145D01*
X0089290Y0030074D01*
X0089263Y0030005D01*
X0089232Y0029936D01*
X0089198Y0029870D01*
X0089160Y0029806D01*
X0089119Y0029743D01*
X0089075Y0029683D01*
X0089028Y0029625D01*
X0088977Y0029570D01*
X0088924Y0029518D01*
X0088868Y0029468D01*
X0088810Y0029422D01*
X0088749Y0029378D01*
X0088686Y0029338D01*
X0088621Y0029301D01*
X0088555Y0029268D01*
X0088486Y0029238D01*
X0088416Y0029212D01*
X0088345Y0029190D01*
X0088273Y0029171D01*
X0088199Y0029157D01*
X0088126Y0029146D01*
X0088051Y0029139D01*
X0087977Y0029136D01*
X0087902Y0029137D01*
X0087828Y0029142D01*
X0087753Y0029151D01*
X0087680Y0029164D01*
X0087607Y0029180D01*
X0087535Y0029201D01*
X0087465Y0029225D01*
X0087395Y0029253D01*
X0087328Y0029284D01*
X0087262Y0029319D01*
X0087198Y0029358D01*
X0087136Y0029400D01*
X0087076Y0029444D01*
X0087019Y0029493D01*
X0086965Y0029544D01*
X0086913Y0029597D01*
X0086864Y0029654D01*
X0086818Y0029713D01*
X0086776Y0029774D01*
X0086737Y0029838D01*
X0086701Y0029903D01*
X0086668Y0029970D01*
X0086639Y0030039D01*
X0086614Y0030110D01*
X0086593Y0030181D01*
X0086575Y0030254D01*
X0086562Y0030327D01*
X0086552Y0030401D01*
X0086546Y0030475D01*
X0086544Y0030550D01*
X0021157Y0011103D02*
X0018795Y0011103D01*
X0018795Y0006379D02*
X0021157Y0006379D01*
D14*
X0019265Y0026631D02*
X0019265Y0030012D01*
X0023808Y0031512D02*
X0025922Y0031512D01*
X0030465Y0030012D02*
X0030465Y0026631D01*
X0036993Y0038247D02*
X0036993Y0041628D01*
X0041537Y0043128D02*
X0043650Y0043128D01*
X0048193Y0041628D02*
X0048193Y0038247D01*
X0099546Y0050867D02*
X0104665Y0050867D01*
X0104665Y0065630D02*
X0099546Y0065630D01*
M02*
