G75*
%MOIN*%
%OFA0B0*%
%FSLAX25Y25*%
%IPPOS*%
%LPD*%
%AMOC8*
5,1,8,0,0,1.08239X$1,22.5*
%
%ADD10R,0.05400X0.06400*%
%ADD11R,0.03550X0.05124*%
%ADD12R,0.06400X0.05400*%
%ADD13R,0.04731X0.04337*%
%ADD14R,0.05124X0.10411*%
%ADD15R,0.03000X0.08400*%
%ADD16R,0.04337X0.04731*%
D10*
X0043325Y0008918D03*
X0036557Y0073979D03*
X0025390Y0074031D03*
X0015790Y0074031D03*
D11*
X0017227Y0008500D03*
X0024314Y0008500D03*
X0034247Y0066231D03*
X0041333Y0066231D03*
D12*
X0006051Y0067553D03*
X0006051Y0056698D03*
D13*
X0037550Y0058003D03*
X0037479Y0051529D03*
X0037516Y0045156D03*
X0044209Y0045156D03*
X0044172Y0051529D03*
X0044243Y0058003D03*
D14*
X0055168Y0071959D03*
X0063042Y0071959D03*
X0070916Y0071959D03*
X0078790Y0071959D03*
X0086664Y0071959D03*
X0094538Y0071959D03*
X0102412Y0071959D03*
X0102412Y0010904D03*
X0094538Y0010904D03*
X0086664Y0010904D03*
X0078790Y0010904D03*
X0070916Y0010904D03*
X0063042Y0010904D03*
X0055168Y0010904D03*
D15*
X0029637Y0036586D03*
X0024637Y0036586D03*
X0019637Y0036586D03*
X0014637Y0036586D03*
X0014637Y0060786D03*
X0019637Y0060786D03*
X0024637Y0060786D03*
X0029637Y0060786D03*
D16*
X0006133Y0047734D03*
X0006133Y0041041D03*
X0014780Y0026253D03*
X0014780Y0019560D03*
X0023397Y0019834D03*
X0023397Y0026527D03*
M02*
