G75*
%MOIN*%
%OFA0B0*%
%FSLAX25Y25*%
%IPPOS*%
%LPD*%
%AMOC8*
5,1,8,0,0,1.08239X$1,22.5*
%
%ADD10C,0.07487*%
%ADD11C,0.24022*%
%ADD12C,0.10243*%
%ADD13C,0.22054*%
%ADD14R,0.06400X0.05400*%
%ADD15R,0.03400X0.06400*%
%ADD16R,0.06400X0.03400*%
%ADD17OC8,0.05600*%
%ADD18R,0.05400X0.06400*%
%ADD19C,0.10400*%
%ADD20C,0.07400*%
D10*
X0010624Y0061321D03*
X0030417Y0061139D03*
X0089472Y0061139D03*
X0109264Y0060958D03*
D11*
X0059944Y0193029D03*
D12*
X0016637Y0257990D03*
X0103251Y0257990D03*
D13*
X0059944Y0011927D03*
D14*
X0018633Y0017036D03*
X0027574Y0017151D03*
X0102370Y0033918D03*
X0048368Y0139943D03*
X0048039Y0147561D03*
X0083233Y0155385D03*
D15*
X0080003Y0125289D03*
X0095003Y0125289D03*
X0095003Y0103289D03*
X0080003Y0103289D03*
X0039885Y0103289D03*
X0024885Y0103289D03*
X0024885Y0125289D03*
X0039885Y0125289D03*
X0039885Y0209588D03*
X0024885Y0209588D03*
X0024885Y0231588D03*
X0039885Y0231588D03*
X0080003Y0231588D03*
X0095003Y0231588D03*
X0095003Y0209588D03*
X0080003Y0209588D03*
D16*
X0070944Y0169033D03*
X0070944Y0154033D03*
X0048944Y0154033D03*
X0048944Y0169033D03*
X0048944Y0076513D03*
X0048944Y0061513D03*
X0070944Y0061513D03*
X0070944Y0076513D03*
D17*
X0064944Y0224525D03*
X0054944Y0224525D03*
D18*
X0096120Y0181640D03*
X0096192Y0172048D03*
D19*
X0089944Y0267173D03*
X0089944Y0319673D03*
X0029944Y0319673D03*
X0029944Y0267173D03*
D20*
X0019944Y0283423D03*
X0019944Y0293423D03*
X0019944Y0303423D03*
X0049944Y0253423D03*
X0059944Y0253423D03*
X0069944Y0253423D03*
M02*
