G75*
%MOIN*%
%OFA0B0*%
%FSLAX25Y25*%
%IPPOS*%
%LPD*%
%AMOC8*
5,1,8,0,0,1.08239X$1,22.5*
%
%ADD10R,0.06756X0.16347*%
%ADD11R,0.03150X0.04724*%
%ADD12R,0.06000X0.05000*%
%ADD13R,0.03937X0.04331*%
%ADD14R,0.02165X0.04724*%
%ADD15R,0.04724X0.02165*%
%ADD16R,0.05000X0.06000*%
%ADD17R,0.10011X0.04724*%
%ADD18R,0.05000X0.02200*%
%ADD19R,0.02200X0.05000*%
%ADD20R,0.04331X0.03937*%
%ADD21C,0.01772*%
%ADD22C,0.01000*%
%ADD23OC8,0.05200*%
%ADD24C,0.10000*%
%ADD25C,0.07000*%
%ADD26C,0.00600*%
%ADD27C,0.02400*%
%ADD28C,0.01600*%
D10*
X0106085Y0219320D03*
D11*
X0069867Y0081490D03*
X0062781Y0081490D03*
X0032779Y0046544D03*
X0025692Y0046544D03*
X0091113Y0025975D03*
X0098200Y0025975D03*
D12*
X0096374Y0017936D03*
X0103987Y0017926D03*
X0089132Y0018029D03*
D13*
X0080411Y0026000D03*
X0080411Y0032693D03*
X0081496Y0071795D03*
X0081496Y0078488D03*
X0029124Y0036505D03*
X0029124Y0029812D03*
X0021133Y0030253D03*
X0021133Y0036946D03*
D14*
X0087367Y0033819D03*
X0094847Y0033819D03*
X0094847Y0044056D03*
X0091107Y0044056D03*
X0087367Y0044056D03*
D15*
X0036324Y0083468D03*
X0036324Y0087208D03*
X0036324Y0090948D03*
X0026087Y0090948D03*
X0026087Y0083468D03*
D16*
X0019126Y0017508D03*
X0027048Y0017414D03*
X0035142Y0017467D03*
X0043129Y0017504D03*
X0073992Y0017988D03*
X0081219Y0018149D03*
X0017562Y0108528D03*
X0056499Y0318305D03*
X0066297Y0318343D03*
X0075592Y0318251D03*
D17*
X0094933Y0155725D03*
X0094933Y0147851D03*
X0094933Y0139977D03*
X0094933Y0132103D03*
X0094933Y0124229D03*
X0094933Y0116355D03*
X0094933Y0108481D03*
X0033878Y0108481D03*
X0033878Y0116355D03*
X0033878Y0124229D03*
X0033878Y0132103D03*
X0033878Y0139977D03*
X0033878Y0147851D03*
X0033878Y0155725D03*
D18*
X0041886Y0062082D03*
X0041886Y0058933D03*
X0041886Y0055783D03*
X0041886Y0052634D03*
X0041886Y0049484D03*
X0041886Y0046334D03*
X0041886Y0043185D03*
X0041886Y0040035D03*
X0075686Y0040035D03*
X0075686Y0043185D03*
X0075686Y0046334D03*
X0075686Y0049484D03*
X0075686Y0052634D03*
X0075686Y0055783D03*
X0075686Y0058933D03*
X0075686Y0062082D03*
D19*
X0069810Y0067959D03*
X0066660Y0067959D03*
X0063511Y0067959D03*
X0060361Y0067959D03*
X0057211Y0067959D03*
X0054062Y0067959D03*
X0050912Y0067959D03*
X0047763Y0067959D03*
X0047763Y0034159D03*
X0050912Y0034159D03*
X0054062Y0034159D03*
X0057211Y0034159D03*
X0060361Y0034159D03*
X0063511Y0034159D03*
X0066660Y0034159D03*
X0069810Y0034159D03*
D20*
X0023365Y0055126D03*
X0016672Y0055126D03*
X0017182Y0076379D03*
X0023875Y0076379D03*
X0047509Y0081568D03*
X0054202Y0081568D03*
X0054350Y0088887D03*
X0047657Y0088887D03*
D21*
X0039566Y0074276D02*
X0039566Y0068548D01*
X0034841Y0068548D02*
X0034841Y0074276D01*
X0030117Y0074276D02*
X0030117Y0068548D01*
D22*
X0030117Y0067412D02*
X0030117Y0071412D01*
X0030117Y0075412D01*
X0034841Y0075412D02*
X0034841Y0071412D01*
X0034841Y0067412D01*
X0039566Y0067412D02*
X0039566Y0071412D01*
X0039566Y0075412D01*
D23*
X0054944Y0224525D03*
X0064944Y0224525D03*
D24*
X0089944Y0267173D03*
X0089944Y0319673D03*
X0029944Y0319673D03*
X0029944Y0267173D03*
D25*
X0019944Y0283423D03*
X0019944Y0293423D03*
X0019944Y0303423D03*
X0049944Y0253423D03*
X0059944Y0253423D03*
X0069944Y0253423D03*
D26*
X0069531Y0253727D01*
X0066531Y0256727D01*
X0066531Y0317927D01*
X0066297Y0318343D01*
X0075592Y0318251D02*
X0076131Y0317927D01*
X0076131Y0272327D01*
X0101931Y0246527D01*
X0075531Y0238127D02*
X0060531Y0253127D01*
X0059944Y0253423D01*
X0049944Y0253423D02*
X0049731Y0253127D01*
X0027531Y0230927D01*
X0027531Y0128927D01*
X0028731Y0127727D01*
X0027531Y0126527D01*
X0027531Y0121727D01*
X0032331Y0116927D01*
X0033531Y0116927D01*
X0033878Y0116355D01*
X0034131Y0116927D01*
X0040131Y0110927D01*
X0040131Y0104927D01*
X0026331Y0091127D01*
X0026087Y0090948D01*
X0025731Y0090527D01*
X0025731Y0086927D01*
X0030531Y0083327D02*
X0032931Y0085727D01*
X0032931Y0088727D01*
X0034731Y0090527D01*
X0035931Y0090527D01*
X0036324Y0090948D01*
X0036531Y0087527D02*
X0036324Y0087208D01*
X0036531Y0087527D02*
X0037731Y0087527D01*
X0041331Y0091127D01*
X0041331Y0103727D01*
X0043731Y0103727D01*
X0041331Y0103727D02*
X0041331Y0118127D01*
X0035331Y0124127D01*
X0034131Y0124127D01*
X0033878Y0124229D01*
X0028731Y0127727D02*
X0039531Y0127727D01*
X0047331Y0119927D01*
X0047331Y0089327D01*
X0047657Y0088887D01*
X0047331Y0088727D01*
X0047331Y0082127D01*
X0047509Y0081568D01*
X0050931Y0079127D02*
X0050931Y0149927D01*
X0053931Y0152927D01*
X0054531Y0155327D02*
X0034131Y0155327D01*
X0033878Y0155725D01*
X0034131Y0148127D02*
X0033878Y0147851D01*
X0034131Y0148127D02*
X0043131Y0148127D01*
X0043131Y0140327D02*
X0034131Y0140327D01*
X0033878Y0139977D01*
X0054531Y0137927D02*
X0061131Y0144527D01*
X0063531Y0146327D02*
X0054531Y0155327D01*
X0063531Y0146327D02*
X0063531Y0123527D01*
X0065331Y0121727D01*
X0065331Y0078527D01*
X0063531Y0076727D01*
X0063531Y0068327D01*
X0063511Y0067959D01*
X0066531Y0068327D02*
X0066660Y0067959D01*
X0066531Y0068327D02*
X0066531Y0123527D01*
X0068931Y0121727D02*
X0068931Y0127127D01*
X0068931Y0121727D02*
X0075531Y0115127D01*
X0075531Y0062327D01*
X0075686Y0062082D01*
X0079131Y0062927D02*
X0079131Y0068327D01*
X0078531Y0068927D01*
X0078531Y0074327D01*
X0079131Y0074927D01*
X0083931Y0074927D01*
X0084531Y0075527D01*
X0084531Y0109727D01*
X0074331Y0119927D01*
X0074331Y0215327D01*
X0065331Y0224327D01*
X0064944Y0224525D01*
X0055131Y0224327D02*
X0054944Y0224525D01*
X0055131Y0224327D02*
X0073131Y0206327D01*
X0073131Y0119327D01*
X0080931Y0111527D01*
X0080931Y0078527D01*
X0081496Y0078488D01*
X0081496Y0071795D02*
X0081531Y0070727D01*
X0094731Y0083927D01*
X0094731Y0107927D01*
X0094933Y0108481D01*
X0094731Y0108527D01*
X0091731Y0108527D01*
X0080331Y0119927D01*
X0075531Y0121727D02*
X0082731Y0114527D01*
X0087531Y0115727D02*
X0094131Y0115727D01*
X0094731Y0116327D01*
X0094933Y0116355D01*
X0075531Y0121727D02*
X0075531Y0238127D01*
X0056331Y0284927D02*
X0056331Y0317927D01*
X0056499Y0318305D01*
X0056331Y0284927D02*
X0013731Y0242327D01*
X0013731Y0090527D01*
X0023331Y0080927D01*
X0036531Y0080927D01*
X0041931Y0075527D01*
X0041931Y0068327D01*
X0049731Y0060527D01*
X0049731Y0042527D01*
X0047331Y0040127D01*
X0041931Y0040127D01*
X0041886Y0040035D01*
X0041931Y0043127D02*
X0041886Y0043185D01*
X0041931Y0043127D02*
X0047331Y0043127D01*
X0044331Y0046727D02*
X0041931Y0046727D01*
X0041886Y0046334D01*
X0041331Y0046127D01*
X0037731Y0046127D01*
X0034731Y0043127D01*
X0028731Y0043127D01*
X0025731Y0046127D01*
X0025692Y0046544D01*
X0029331Y0046727D02*
X0032331Y0046727D01*
X0032779Y0046544D01*
X0028731Y0043127D02*
X0028731Y0036527D01*
X0029124Y0036505D01*
X0029331Y0035927D01*
X0025731Y0032327D01*
X0025731Y0029327D01*
X0019131Y0022727D01*
X0019131Y0017927D01*
X0019126Y0017508D01*
X0027048Y0017414D02*
X0027531Y0017927D01*
X0027531Y0019127D01*
X0046131Y0037727D01*
X0046731Y0037727D01*
X0052731Y0043727D01*
X0052731Y0041327D02*
X0058131Y0041327D01*
X0060531Y0039527D02*
X0057531Y0036527D01*
X0057531Y0034727D01*
X0057211Y0034159D01*
X0057531Y0034127D01*
X0057531Y0027527D01*
X0059331Y0025727D01*
X0074331Y0025727D01*
X0077931Y0029327D01*
X0082731Y0029327D01*
X0083331Y0028727D01*
X0083331Y0020327D01*
X0081531Y0018527D01*
X0081219Y0018149D01*
X0073992Y0017988D02*
X0073731Y0017927D01*
X0069531Y0022127D01*
X0074931Y0024527D02*
X0046731Y0024527D01*
X0045531Y0023327D01*
X0043131Y0023927D02*
X0043131Y0017927D01*
X0043129Y0017504D01*
X0043131Y0023927D02*
X0044931Y0025727D01*
X0050331Y0025727D01*
X0053931Y0029327D01*
X0053931Y0034127D01*
X0054062Y0034159D01*
X0050931Y0034127D02*
X0050931Y0029327D01*
X0050931Y0034127D02*
X0050912Y0034159D01*
X0047931Y0034727D02*
X0047931Y0036527D01*
X0052731Y0041327D01*
X0060531Y0039527D02*
X0060531Y0055127D01*
X0062331Y0056927D01*
X0062331Y0058127D01*
X0062931Y0055727D02*
X0062931Y0050327D01*
X0062931Y0055727D02*
X0071931Y0064727D01*
X0071931Y0073127D01*
X0070131Y0074927D01*
X0070131Y0080927D01*
X0069867Y0081490D01*
X0062781Y0081490D02*
X0062331Y0081527D01*
X0060531Y0081527D01*
X0060531Y0072527D01*
X0056931Y0072527D02*
X0056931Y0068327D01*
X0057211Y0067959D01*
X0059931Y0067727D02*
X0060361Y0067959D01*
X0059931Y0067727D02*
X0059931Y0056327D01*
X0058131Y0054527D01*
X0058131Y0053927D01*
X0057531Y0056927D02*
X0050931Y0063527D01*
X0050931Y0067727D01*
X0050912Y0067959D01*
X0053931Y0068327D02*
X0054062Y0067959D01*
X0053931Y0068327D02*
X0053931Y0076127D01*
X0050931Y0079127D01*
X0054202Y0081568D02*
X0054531Y0081527D01*
X0060531Y0081527D01*
X0058131Y0085127D02*
X0054531Y0088727D01*
X0054350Y0088887D01*
X0054531Y0089327D01*
X0054531Y0137927D01*
X0033878Y0108481D02*
X0033531Y0108527D01*
X0017931Y0108527D01*
X0017562Y0108528D01*
X0032931Y0085727D02*
X0034731Y0083927D01*
X0035931Y0083927D01*
X0036324Y0083468D01*
X0040731Y0082727D02*
X0047331Y0076127D01*
X0047331Y0068327D01*
X0047763Y0067959D01*
X0041331Y0065327D02*
X0039531Y0067127D01*
X0039566Y0067412D01*
X0041331Y0065327D02*
X0041331Y0062327D01*
X0041886Y0062082D01*
X0041331Y0059327D02*
X0039531Y0059327D01*
X0030531Y0068327D01*
X0030117Y0071412D01*
X0034841Y0067412D02*
X0035331Y0067727D01*
X0038331Y0064727D01*
X0041331Y0059327D02*
X0041886Y0058933D01*
X0041886Y0055783D02*
X0041331Y0055727D01*
X0039531Y0055727D01*
X0038331Y0054527D01*
X0029931Y0054527D01*
X0026331Y0058127D01*
X0016731Y0058127D01*
X0016731Y0055127D01*
X0016672Y0055126D01*
X0016731Y0058127D02*
X0016731Y0076127D01*
X0017182Y0076379D01*
X0023331Y0076127D02*
X0023875Y0076379D01*
X0023331Y0076127D02*
X0023331Y0064127D01*
X0023365Y0055126D02*
X0023931Y0054527D01*
X0024531Y0053927D01*
X0027531Y0053927D01*
X0023331Y0054527D02*
X0021531Y0052727D01*
X0021531Y0037127D01*
X0021133Y0036946D01*
X0025131Y0034727D02*
X0020931Y0030527D01*
X0021133Y0030253D01*
X0025731Y0026327D02*
X0028731Y0029327D01*
X0029124Y0029812D01*
X0039531Y0037127D02*
X0035931Y0040727D01*
X0041331Y0049727D02*
X0041886Y0049484D01*
X0041331Y0049727D02*
X0039531Y0049727D01*
X0038331Y0050927D01*
X0038331Y0054527D01*
X0041886Y0052634D02*
X0041931Y0052127D01*
X0044331Y0052127D01*
X0045531Y0050927D01*
X0045531Y0047927D01*
X0047331Y0047927D01*
X0045531Y0047927D02*
X0044331Y0046727D01*
X0047931Y0034727D02*
X0047763Y0034159D01*
X0045531Y0028127D02*
X0035331Y0017927D01*
X0035142Y0017467D01*
X0059931Y0028127D02*
X0059931Y0034127D01*
X0060361Y0034159D01*
X0063511Y0034159D02*
X0063531Y0034727D01*
X0063531Y0035927D01*
X0070731Y0043127D01*
X0073131Y0043727D02*
X0068331Y0048527D01*
X0068331Y0058127D01*
X0071331Y0055727D02*
X0075531Y0055727D01*
X0075686Y0055783D01*
X0080331Y0058727D02*
X0080331Y0049127D01*
X0077931Y0046727D01*
X0076131Y0046727D01*
X0075686Y0046334D01*
X0075531Y0043727D02*
X0075686Y0043185D01*
X0075531Y0043727D02*
X0073131Y0043727D01*
X0075686Y0040035D02*
X0076131Y0040127D01*
X0077931Y0040127D01*
X0082731Y0044927D01*
X0082731Y0059327D01*
X0079131Y0062927D01*
X0081531Y0062327D02*
X0085131Y0058727D01*
X0085131Y0051527D01*
X0090531Y0046127D01*
X0091107Y0044056D01*
X0090531Y0043727D01*
X0090531Y0041927D01*
X0089331Y0040727D01*
X0088731Y0040727D01*
X0083931Y0035927D01*
X0086331Y0032927D02*
X0080931Y0032927D01*
X0080411Y0032693D01*
X0086331Y0032927D02*
X0086931Y0033527D01*
X0087367Y0033819D01*
X0090531Y0033527D02*
X0094731Y0033527D01*
X0094847Y0033819D01*
X0094731Y0038327D02*
X0094731Y0043727D01*
X0094847Y0044056D01*
X0097131Y0046727D02*
X0096531Y0047327D01*
X0091731Y0047327D01*
X0090531Y0046127D01*
X0090531Y0044327D01*
X0091107Y0044056D01*
X0087367Y0044056D02*
X0086931Y0043727D01*
X0084531Y0043727D01*
X0075531Y0034727D01*
X0070131Y0034727D01*
X0069810Y0034159D01*
X0067131Y0034127D02*
X0067131Y0031727D01*
X0070731Y0028127D01*
X0074931Y0024527D02*
X0076131Y0025727D01*
X0080331Y0025727D01*
X0080411Y0026000D01*
X0091113Y0025975D02*
X0091131Y0026327D01*
X0094131Y0029327D01*
X0097131Y0029327D01*
X0097131Y0046727D01*
X0090531Y0055127D02*
X0101331Y0065927D01*
X0101331Y0142727D01*
X0096531Y0147527D01*
X0095331Y0147527D01*
X0094933Y0147851D01*
X0094933Y0155725D02*
X0094731Y0155927D01*
X0091131Y0155927D01*
X0088131Y0158927D01*
X0081496Y0071795D02*
X0081531Y0071327D01*
X0081531Y0070727D01*
X0081531Y0062327D01*
X0088131Y0055127D02*
X0090531Y0055127D01*
X0069810Y0067959D02*
X0069531Y0068327D01*
X0069531Y0072527D01*
X0067131Y0034127D02*
X0066660Y0034159D01*
X0089331Y0018527D02*
X0089132Y0018029D01*
X0089331Y0018527D02*
X0095931Y0018527D01*
X0096374Y0017936D01*
X0096531Y0018527D01*
X0097731Y0019727D01*
X0097731Y0025727D01*
X0098200Y0025975D01*
X0097731Y0026327D01*
X0097131Y0026927D01*
X0094731Y0026927D01*
X0097131Y0029327D02*
X0100131Y0029327D01*
X0103731Y0025727D01*
X0103731Y0017927D01*
X0103987Y0017926D01*
X0023331Y0054527D02*
X0023365Y0055126D01*
D27*
X0027531Y0053927D03*
X0029331Y0046727D03*
X0035931Y0040727D03*
X0039531Y0037127D03*
X0047331Y0043127D03*
X0047331Y0047927D03*
X0052731Y0043727D03*
X0058131Y0041327D03*
X0062931Y0050327D03*
X0058131Y0053927D03*
X0057531Y0056927D03*
X0062331Y0058127D03*
X0068331Y0058127D03*
X0071331Y0055727D03*
X0080331Y0058727D03*
X0088131Y0055127D03*
X0094731Y0038327D03*
X0090531Y0033527D03*
X0083931Y0035927D03*
X0094731Y0026927D03*
X0070731Y0028127D03*
X0069531Y0022127D03*
X0059931Y0028127D03*
X0050931Y0029327D03*
X0045531Y0028127D03*
X0045531Y0023327D03*
X0025731Y0026327D03*
X0025131Y0034727D03*
X0023331Y0064127D03*
X0038331Y0064727D03*
X0040731Y0082727D03*
X0030531Y0083327D03*
X0025731Y0086927D03*
X0043731Y0103727D03*
X0058131Y0085127D03*
X0056931Y0072527D03*
X0060531Y0072527D03*
X0069531Y0072527D03*
X0070731Y0043127D03*
X0082731Y0114527D03*
X0087531Y0115727D03*
X0080331Y0119927D03*
X0068931Y0127127D03*
X0066531Y0123527D03*
X0061131Y0144527D03*
X0053931Y0152927D03*
X0043131Y0148127D03*
X0043131Y0140327D03*
X0088131Y0158927D03*
X0101931Y0246527D03*
D28*
X0017951Y0240247D02*
X0017951Y0108657D01*
M02*
