%
M48
M72
T01C0.01200
T02C0.03200
T03C0.03500
T04C0.05500
T05C0.07087
T06C0.09843
T07C0.21654
T08C0.23622
%
T01
X25731Y26327
X25131Y34727
X35931Y40727
X39531Y37127
X47331Y43127
X47331Y47927
X52731Y43727
X58131Y41327
X62931Y50327
X58131Y53927
X57531Y56927
X62331Y58127
X68331Y58127
X71331Y55727
X80331Y58727
X88131Y55127
X94731Y38327
X90531Y33527
X83931Y35927
X94731Y26927
X70731Y28127
X69531Y22127
X59931Y28127
X50931Y29327
X45531Y28127
X45531Y23327
X70731Y43127
X69531Y72527
X60531Y72527
X56931Y72527
X58131Y85127
X40731Y82727
X30531Y83327
X25731Y86927
X43731Y103727
X66531Y123527
X68931Y127127
X80331Y119927
X82731Y114527
X87531Y115727
X61131Y144527
X53931Y152927
X43131Y148127
X43131Y140327
X88131Y158927
X101931Y246527
X38331Y64727
X27531Y53927
X29331Y46727
X23331Y64127
T02
X54944Y224525
X64944Y224525
T03
X59944Y253423
X49944Y253423
X69944Y253423
X19944Y283423
X19944Y293423
X19944Y303423
T04
X29944Y319673
X29944Y267173
X89944Y267173
X89944Y319673
T05
X89472Y61139
X109264Y60958
X30417Y61139
X10624Y61321
T06
X16637Y257990
X103251Y257990
T07
X59944Y11927
T08
X59944Y193029
M30
