G75*
%MOIN*%
%OFA0B0*%
%FSLAX25Y25*%
%IPPOS*%
%LPD*%
%AMOC8*
5,1,8,0,0,1.08239X$1,22.5*
%
%ADD10R,0.04724X0.11811*%
%ADD11R,0.09000X0.20000*%
%ADD12R,0.05118X0.06299*%
%ADD13R,0.04724X0.04724*%
%ADD14R,0.09843X0.01969*%
%ADD15R,0.09843X0.07874*%
D10*
X0052441Y0094471D03*
X0060315Y0094471D03*
X0068189Y0094471D03*
X0076063Y0094471D03*
X0083937Y0094471D03*
X0091811Y0094471D03*
X0099685Y0094471D03*
X0107559Y0094471D03*
X0107559Y0153526D03*
X0099685Y0153526D03*
X0091811Y0153526D03*
X0083937Y0153526D03*
X0076063Y0153526D03*
X0068189Y0153526D03*
X0060315Y0153526D03*
X0052441Y0153526D03*
X0195611Y0142994D03*
X0203485Y0142994D03*
X0211359Y0142994D03*
X0219233Y0142994D03*
X0227107Y0142994D03*
X0234981Y0142994D03*
X0242855Y0142994D03*
X0250729Y0142994D03*
X0250729Y0083939D03*
X0242855Y0083939D03*
X0234981Y0083939D03*
X0227107Y0083939D03*
X0219233Y0083939D03*
X0211359Y0083939D03*
X0203485Y0083939D03*
X0195611Y0083939D03*
D11*
X0087600Y0054098D03*
X0105000Y0054098D03*
X0122400Y0054098D03*
X0194204Y0055286D03*
X0211604Y0055286D03*
X0229004Y0055286D03*
D12*
X0232464Y0170187D03*
X0239944Y0170187D03*
X0088740Y0208998D03*
X0081260Y0208998D03*
X0028740Y0108998D03*
X0021260Y0108998D03*
D13*
X0020866Y0088998D03*
X0029134Y0088998D03*
X0080866Y0223998D03*
X0089134Y0223998D03*
X0204482Y0170187D03*
X0212749Y0170187D03*
D14*
X0034843Y0207699D03*
X0034843Y0210849D03*
X0034843Y0213998D03*
X0034843Y0217148D03*
X0034843Y0220298D03*
D15*
X0034843Y0231715D03*
X0013189Y0231715D03*
X0013189Y0196282D03*
X0034843Y0196282D03*
M02*
