G75*
%MOIN*%
%OFA0B0*%
%FSLAX25Y25*%
%IPPOS*%
%LPD*%
%AMOC8*
5,1,8,0,0,1.08239X$1,22.5*
%
%ADD10C,0.00800*%
%ADD11C,0.00600*%
%ADD12C,0.00000*%
%ADD13C,0.00500*%
%ADD14C,0.00400*%
%ADD15C,0.00250*%
%ADD16C,0.00984*%
D10*
X0035177Y0028959D02*
X0039114Y0028959D01*
X0043839Y0028959D01*
X0061161Y0028959D01*
X0065886Y0028959D01*
X0069823Y0028959D01*
X0069823Y0032502D01*
X0065492Y0032502D01*
X0061161Y0032502D01*
X0061161Y0028959D01*
X0061161Y0032502D02*
X0043839Y0032502D01*
X0039508Y0032502D01*
X0035177Y0032502D01*
X0035177Y0028959D01*
X0039114Y0028959D02*
X0039114Y0004943D01*
X0041083Y0003762D01*
X0063917Y0003762D01*
X0063917Y0001400D01*
X0041083Y0001400D01*
X0041083Y0003762D01*
X0063917Y0003762D02*
X0065886Y0004943D01*
X0065886Y0028959D01*
X0065492Y0032502D02*
X0065492Y0036046D01*
X0063917Y0036046D01*
X0041083Y0036046D01*
X0039508Y0036046D01*
X0039508Y0032502D01*
X0041083Y0036046D02*
X0041083Y0039195D01*
X0063917Y0039195D01*
X0063917Y0036046D01*
X0063917Y0039195D02*
X0065492Y0039195D01*
X0065492Y0042739D01*
X0067854Y0042739D01*
X0067854Y0050613D01*
X0065886Y0059668D02*
X0065886Y0068329D01*
X0056831Y0077384D02*
X0048169Y0077384D01*
X0039114Y0068329D02*
X0039114Y0059668D01*
X0037146Y0050613D02*
X0037146Y0042739D01*
X0039508Y0042739D01*
X0065492Y0042739D01*
X0056831Y0050613D02*
X0048169Y0050613D01*
X0039508Y0042739D02*
X0039508Y0039195D01*
X0041083Y0039195D01*
X0043839Y0032502D02*
X0043839Y0028959D01*
X0086693Y0037896D02*
X0086693Y0043605D01*
X0089843Y0043605D02*
X0120157Y0043605D01*
X0123307Y0043605D02*
X0123307Y0037896D01*
X0112874Y0037896D01*
X0112874Y0029431D01*
X0115827Y0026479D01*
X0115827Y0011518D01*
X0112480Y0011518D01*
X0112480Y0006892D01*
X0097520Y0006892D01*
X0097520Y0011518D01*
X0094173Y0011518D01*
X0094173Y0026479D01*
X0097126Y0029431D01*
X0097126Y0037896D01*
X0086693Y0037896D01*
X0142959Y0034082D02*
X0142959Y0030539D01*
X0146896Y0030539D01*
X0151620Y0030539D01*
X0168943Y0030539D01*
X0173667Y0030539D01*
X0177604Y0030539D01*
X0177604Y0034082D01*
X0173274Y0034082D01*
X0168943Y0034082D01*
X0168943Y0030539D01*
X0168943Y0034082D02*
X0151620Y0034082D01*
X0147289Y0034082D01*
X0142959Y0034082D01*
X0147289Y0034082D02*
X0147289Y0037625D01*
X0148864Y0037625D01*
X0171699Y0037625D01*
X0173274Y0037625D01*
X0173274Y0034082D01*
X0173667Y0030539D02*
X0173667Y0006523D01*
X0171699Y0005342D01*
X0148864Y0005342D01*
X0148864Y0002980D01*
X0171699Y0002980D01*
X0171699Y0005342D01*
X0148864Y0005342D02*
X0146896Y0006523D01*
X0146896Y0030539D01*
X0151620Y0030539D02*
X0151620Y0034082D01*
X0148864Y0037625D02*
X0148864Y0040775D01*
X0171699Y0040775D01*
X0171699Y0037625D01*
X0171699Y0040775D02*
X0173274Y0040775D01*
X0173274Y0044318D01*
X0175636Y0044318D01*
X0175636Y0052192D01*
X0173274Y0044318D02*
X0147289Y0044318D01*
X0144927Y0044318D01*
X0144927Y0052192D01*
X0147289Y0044318D02*
X0147289Y0040775D01*
X0148864Y0040775D01*
X0155951Y0052192D02*
X0164612Y0052192D01*
X0173667Y0061247D02*
X0173667Y0069909D01*
X0164612Y0078964D02*
X0155951Y0078964D01*
X0146896Y0069909D02*
X0146896Y0061247D01*
X0111496Y0092502D02*
X0048504Y0092502D01*
X0048504Y0155494D01*
X0111496Y0155494D01*
X0111496Y0092502D01*
X0099685Y0108250D02*
X0091811Y0108250D01*
X0091811Y0116124D01*
X0099685Y0116124D01*
X0099685Y0108250D01*
X0103622Y0123998D02*
X0087874Y0123998D01*
X0087874Y0139746D01*
X0103622Y0139746D01*
X0103622Y0123998D01*
X0028150Y0199038D02*
X0019882Y0199038D01*
X0037992Y0201794D02*
X0037992Y0205337D01*
X0037992Y0222660D02*
X0037992Y0226203D01*
X0028150Y0228959D02*
X0019882Y0228959D01*
X0191674Y0144962D02*
X0191674Y0081970D01*
X0254666Y0081970D01*
X0254666Y0144962D01*
X0191674Y0144962D01*
X0231044Y0129214D02*
X0231044Y0113466D01*
X0246792Y0113466D01*
X0246792Y0129214D01*
X0231044Y0129214D01*
X0234981Y0105592D02*
X0234981Y0097718D01*
X0242855Y0097718D01*
X0242855Y0105592D01*
X0234981Y0105592D01*
X0229911Y0044793D02*
X0229911Y0039084D01*
X0219478Y0039084D01*
X0219478Y0030619D01*
X0222430Y0027667D01*
X0222430Y0012706D01*
X0219084Y0012706D01*
X0219084Y0008080D01*
X0204123Y0008080D01*
X0204123Y0012706D01*
X0200777Y0012706D01*
X0200777Y0027667D01*
X0203730Y0030619D01*
X0203730Y0039084D01*
X0193297Y0039084D01*
X0193297Y0044793D01*
X0196446Y0044793D02*
X0226761Y0044793D01*
D11*
X0249934Y0130757D02*
X0248466Y0132225D01*
X0252870Y0132225D01*
X0252870Y0130757D02*
X0252870Y0133693D01*
X0109700Y0141289D02*
X0109700Y0144225D01*
X0109700Y0142757D02*
X0105296Y0142757D01*
X0106764Y0141289D01*
D12*
X0084000Y0123998D02*
X0076000Y0123998D01*
X0080000Y0119998D02*
X0080000Y0127998D01*
X0029000Y0108998D02*
X0021000Y0108998D01*
X0025000Y0104998D02*
X0025000Y0112998D01*
X0025000Y0092998D02*
X0025000Y0084998D01*
X0021000Y0088998D02*
X0029000Y0088998D01*
X0052500Y0067998D02*
X0052500Y0059998D01*
X0048500Y0063998D02*
X0056500Y0063998D01*
X0101000Y0043998D02*
X0109000Y0043998D01*
X0105000Y0039998D02*
X0105000Y0047998D01*
X0156281Y0065578D02*
X0164281Y0065578D01*
X0160281Y0061578D02*
X0160281Y0069578D01*
X0207604Y0045186D02*
X0215604Y0045186D01*
X0211604Y0041186D02*
X0211604Y0049186D01*
X0223170Y0109466D02*
X0223170Y0117466D01*
X0219170Y0113466D02*
X0227170Y0113466D01*
X0236204Y0166187D02*
X0236204Y0174187D01*
X0232204Y0170187D02*
X0240204Y0170187D01*
X0212615Y0170187D02*
X0204615Y0170187D01*
X0208615Y0166187D02*
X0208615Y0174187D01*
X0089000Y0208998D02*
X0081000Y0208998D01*
X0085000Y0204998D02*
X0085000Y0212998D01*
X0085000Y0219998D02*
X0085000Y0227998D01*
X0081000Y0223998D02*
X0089000Y0223998D01*
X0029000Y0213998D02*
X0021000Y0213998D01*
X0025000Y0209998D02*
X0025000Y0217998D01*
X0005000Y0047998D02*
X0005000Y0039998D01*
X0001000Y0043998D02*
X0009000Y0043998D01*
D13*
X0036703Y0239441D02*
X0039203Y0239441D01*
X0039203Y0240691D01*
X0042953Y0240691D01*
X0042953Y0250691D01*
X0032953Y0250691D01*
X0032953Y0240691D01*
X0036703Y0240691D01*
X0036703Y0239441D01*
X0036703Y0240691D02*
X0039203Y0240691D01*
X0042953Y0240691D02*
X0232953Y0240691D01*
X0232953Y0260691D01*
X0032953Y0260691D01*
X0032953Y0250691D01*
D14*
X0038104Y0238244D02*
X0038104Y0234641D01*
X0036903Y0234641D02*
X0039305Y0234641D01*
X0036903Y0237043D02*
X0038104Y0238244D01*
D15*
X0084311Y0223900D02*
X0084902Y0223309D01*
X0085591Y0223998D01*
X0085000Y0224589D01*
X0084311Y0223900D01*
X0207926Y0170088D02*
X0208517Y0169498D01*
X0209206Y0170187D01*
X0208615Y0170777D01*
X0207926Y0170088D01*
X0025689Y0089097D02*
X0025098Y0089687D01*
X0024409Y0088998D01*
X0025000Y0088408D01*
X0025689Y0089097D01*
D16*
X0026083Y0087424D03*
X0083917Y0225573D03*
X0207533Y0171762D03*
M02*
