G75*
%MOIN*%
%OFA0B0*%
%FSLAX25Y25*%
%IPPOS*%
%LPD*%
%AMOC8*
5,1,8,0,0,1.08239X$1,22.5*
%
%ADD10R,0.07000X0.07000*%
%ADD11C,0.07000*%
%ADD12C,0.07500*%
%ADD13C,0.10500*%
%ADD14R,0.09000X0.20000*%
%ADD15C,0.01000*%
%ADD16C,0.04000*%
D10*
X0037953Y0245691D03*
D11*
X0047953Y0245691D03*
X0057953Y0245691D03*
X0067953Y0245691D03*
X0077953Y0245691D03*
X0087953Y0245691D03*
X0097953Y0245691D03*
X0107953Y0245691D03*
X0117953Y0245691D03*
X0127953Y0245691D03*
X0137953Y0245691D03*
X0147953Y0245691D03*
X0157953Y0245691D03*
X0167953Y0245691D03*
X0177953Y0245691D03*
X0187953Y0245691D03*
X0197953Y0245691D03*
X0207953Y0245691D03*
X0217953Y0245691D03*
X0227953Y0245691D03*
X0227953Y0255691D03*
X0217953Y0255691D03*
X0207953Y0255691D03*
X0197953Y0255691D03*
X0187953Y0255691D03*
X0177953Y0255691D03*
X0167953Y0255691D03*
X0157953Y0255691D03*
X0147953Y0255691D03*
X0137953Y0255691D03*
X0127953Y0255691D03*
X0117953Y0255691D03*
X0107953Y0255691D03*
X0097953Y0255691D03*
X0087953Y0255691D03*
X0077953Y0255691D03*
X0067953Y0255691D03*
X0057953Y0255691D03*
X0047953Y0255691D03*
X0037953Y0255691D03*
D12*
X0160281Y0065578D03*
X0052500Y0063998D03*
D13*
X0042461Y0053959D03*
X0062539Y0053959D03*
X0062539Y0074037D03*
X0042461Y0074037D03*
X0150242Y0075617D03*
X0170320Y0075617D03*
X0170320Y0055539D03*
X0150242Y0055539D03*
D14*
X0122400Y0054098D03*
X0087600Y0054098D03*
X0194204Y0055286D03*
X0229004Y0055286D03*
D15*
X0228750Y0055248D01*
X0194375Y0055248D01*
X0194204Y0055286D01*
X0193750Y0055248D01*
X0190000Y0055248D01*
X0185625Y0050873D01*
X0175000Y0050873D01*
X0170625Y0055248D01*
X0170320Y0055539D01*
X0150242Y0055539D02*
X0150000Y0055248D01*
X0149375Y0054623D01*
X0122500Y0054623D01*
X0122400Y0054098D01*
X0121875Y0053998D01*
X0088125Y0053998D01*
X0087600Y0054098D01*
X0087500Y0053998D01*
X0063125Y0053998D01*
X0062539Y0053959D01*
X0062500Y0073998D02*
X0042500Y0073998D01*
X0042461Y0074037D01*
X0062500Y0073998D02*
X0062539Y0074037D01*
X0150242Y0075617D02*
X0150625Y0075873D01*
X0170000Y0075873D01*
X0170320Y0075617D01*
X0127500Y0151498D02*
X0231250Y0151498D01*
X0238750Y0151498D02*
X0156250Y0233998D01*
X0157953Y0245691D02*
X0157500Y0245873D01*
X0155000Y0245873D01*
X0150000Y0250873D01*
X0132500Y0250873D01*
X0128125Y0255248D01*
X0127953Y0255691D01*
X0136250Y0245248D02*
X0137500Y0245248D01*
X0137953Y0245691D01*
X0136250Y0245248D02*
X0101250Y0210248D01*
X0099375Y0210248D01*
X0100000Y0202748D02*
X0135000Y0237748D01*
X0141875Y0237748D01*
X0140000Y0240873D02*
X0144375Y0245248D01*
X0147500Y0245248D01*
X0147953Y0245691D01*
X0148125Y0245248D01*
X0150000Y0245248D01*
X0223125Y0172123D01*
X0215625Y0160248D02*
X0178125Y0197748D01*
X0179375Y0201498D02*
X0103750Y0201498D01*
X0100000Y0200873D02*
X0100000Y0202748D01*
X0100000Y0200873D02*
X0076250Y0177123D01*
X0088125Y0193998D02*
X0135000Y0240873D01*
X0140000Y0240873D01*
X0157953Y0245691D02*
X0158125Y0245873D01*
X0161250Y0245873D01*
X0166250Y0250873D01*
X0173125Y0250873D01*
X0177500Y0255248D01*
X0177953Y0255691D01*
X0197953Y0255691D02*
X0198125Y0255248D01*
X0202500Y0250873D01*
X0220000Y0250873D01*
X0225000Y0245873D01*
X0227500Y0245873D01*
X0227953Y0245691D01*
X0179375Y0201498D02*
X0201250Y0179623D01*
X0203125Y0179623D01*
X0203125Y0164623D02*
X0041250Y0164623D01*
X0081250Y0215248D02*
X0081250Y0240873D01*
X0045625Y0240873D01*
X0041250Y0245248D01*
X0038125Y0245248D01*
X0037953Y0245691D01*
X0058125Y0255248D02*
X0057953Y0255691D01*
X0058125Y0255248D02*
X0061250Y0255248D01*
X0065625Y0250873D01*
X0072500Y0250873D01*
X0072813Y0250561D01*
X0073125Y0250873D01*
X0090000Y0250873D01*
X0094375Y0255248D01*
X0097500Y0255248D01*
X0097953Y0255691D01*
X0113125Y0240873D02*
X0081250Y0240873D01*
X0077953Y0245691D02*
X0077500Y0245873D01*
X0072813Y0250561D01*
X0113125Y0240873D02*
X0117500Y0245248D01*
X0117953Y0245691D01*
D16*
X0141875Y0237748D03*
X0156250Y0233998D03*
X0178125Y0197748D03*
X0203125Y0179623D03*
X0203125Y0164623D03*
X0215625Y0160248D03*
X0223125Y0172123D03*
X0231250Y0151498D03*
X0238750Y0151498D03*
X0127500Y0151498D03*
X0088125Y0193998D03*
X0103750Y0201498D03*
X0099375Y0210248D03*
X0081250Y0215248D03*
X0076250Y0177123D03*
X0041250Y0164623D03*
M02*
