%
M48
M72
T01C0.02400
T02C0.03543
T03C0.03937
T04C0.05000
T05C0.07000
T06C0.10827
%
T01
X127500Y151498
X88125Y193998
X103750Y201498
X99375Y210248
X81250Y215248
X76250Y177123
X41250Y164623
X141875Y237748
X156250Y233998
X178125Y197748
X203125Y179623
X203125Y164623
X215625Y160248
X223125Y172123
X231250Y151498
X238750Y151498
T02
X25000Y205337
X25000Y222660
T03
X37953Y245691
X47953Y245691
X57953Y245691
X67953Y245691
X77953Y245691
X87953Y245691
X97953Y245691
X107953Y245691
X117953Y245691
X127953Y245691
X137953Y245691
X147953Y245691
X157953Y245691
X167953Y245691
X177953Y245691
X187953Y245691
X197953Y245691
X207953Y245691
X217953Y245691
X227953Y245691
X227953Y255691
X217953Y255691
X207953Y255691
X197953Y255691
X187953Y255691
X177953Y255691
X167953Y255691
X157953Y255691
X147953Y255691
X137953Y255691
X127953Y255691
X117953Y255691
X107953Y255691
X97953Y255691
X87953Y255691
X77953Y255691
X67953Y255691
X57953Y255691
X47953Y255691
X37953Y255691
T04
X160281Y65578
X52500Y63998
T05
X42461Y53959
X62539Y53959
X62539Y74037
X42461Y74037
X150242Y75617
X170320Y75617
X170320Y55539
X150242Y55539
T06
X247126Y57778
X247126Y250691
X18780Y250691
X18780Y57778
M30
