G75*
%MOIN*%
%OFA0B0*%
%FSLAX25Y25*%
%IPPOS*%
%LPD*%
%AMOC8*
5,1,8,0,0,1.08239X$1,22.5*
%
%ADD10C,0.08600*%
%ADD11C,0.05200*%
%ADD12C,0.05937*%
%ADD13C,0.07400*%
%ADD14OC8,0.07000*%
%ADD15C,0.07000*%
%ADD16C,0.01000*%
%ADD17C,0.04000*%
%ADD18C,0.01600*%
D10*
X0276800Y0045674D03*
X0276800Y0059453D03*
X0276800Y0073174D03*
X0276800Y0086953D03*
X0276800Y0100674D03*
X0276800Y0114453D03*
D11*
X0021800Y0077367D03*
X0011800Y0077367D03*
X0011800Y0052367D03*
X0021800Y0052367D03*
D12*
X0091800Y0062367D03*
X0101800Y0057367D03*
X0111800Y0057367D03*
X0121800Y0057367D03*
X0131800Y0057367D03*
X0141800Y0057367D03*
X0151800Y0057367D03*
X0161800Y0057367D03*
X0171800Y0057367D03*
X0181800Y0057367D03*
X0191800Y0057367D03*
X0201800Y0057367D03*
X0211800Y0057367D03*
X0211800Y0087367D03*
X0211800Y0097367D03*
X0211800Y0107367D03*
X0211800Y0117367D03*
X0201800Y0117367D03*
X0191800Y0117367D03*
X0181800Y0117367D03*
X0171800Y0117367D03*
X0161800Y0117367D03*
X0151800Y0117367D03*
X0141800Y0117367D03*
X0131800Y0117367D03*
X0121800Y0117367D03*
X0111800Y0117367D03*
X0101800Y0117367D03*
X0091800Y0112367D03*
X0091800Y0102367D03*
X0091800Y0092367D03*
X0091800Y0082367D03*
X0091800Y0072367D03*
X0136800Y0107367D03*
X0146800Y0107367D03*
D13*
X0091800Y0157367D03*
X0091800Y0167367D03*
X0091800Y0177367D03*
X0091800Y0187367D03*
X0091800Y0197367D03*
X0091800Y0207367D03*
X0091800Y0217367D03*
X0066800Y0212367D03*
X0056800Y0212367D03*
X0056800Y0202367D03*
X0066800Y0202367D03*
X0066800Y0192367D03*
X0056800Y0192367D03*
X0036800Y0187367D03*
X0026800Y0187367D03*
X0016800Y0187367D03*
X0016800Y0164867D03*
X0026800Y0164867D03*
X0036800Y0164867D03*
X0039600Y0146267D03*
X0039600Y0128467D03*
X0041800Y0114867D03*
X0041800Y0104867D03*
X0041800Y0094867D03*
X0061800Y0092367D03*
X0061800Y0102367D03*
X0061800Y0112367D03*
X0061800Y0082367D03*
X0061800Y0072367D03*
X0061800Y0062367D03*
X0101800Y0037367D03*
X0101800Y0027367D03*
X0101800Y0017367D03*
X0081800Y0032367D03*
X0071800Y0032367D03*
X0061800Y0032367D03*
X0051800Y0032367D03*
X0041800Y0032367D03*
X0031800Y0032367D03*
X0021800Y0032367D03*
X0011800Y0032367D03*
X0011800Y0094867D03*
X0011800Y0104867D03*
X0011800Y0114867D03*
X0014000Y0128467D03*
X0014000Y0146267D03*
X0016800Y0212367D03*
X0026800Y0212367D03*
X0036800Y0212367D03*
X0201800Y0187367D03*
X0201800Y0177367D03*
X0276800Y0182367D03*
X0276800Y0172367D03*
X0276800Y0162367D03*
X0276800Y0152367D03*
X0276800Y0142367D03*
X0276800Y0132367D03*
X0291800Y0132367D03*
X0291800Y0142367D03*
X0291800Y0152367D03*
X0291800Y0162367D03*
X0291800Y0172367D03*
X0291800Y0182367D03*
X0291800Y0192367D03*
X0291800Y0202367D03*
X0276800Y0202367D03*
X0276800Y0192367D03*
X0226800Y0037367D03*
X0226800Y0027367D03*
X0226800Y0017367D03*
X0209300Y0017367D03*
X0209300Y0027367D03*
X0209300Y0037367D03*
X0191800Y0037367D03*
X0191800Y0027367D03*
X0191800Y0017367D03*
X0174300Y0017367D03*
X0174300Y0027367D03*
X0174300Y0037367D03*
X0156800Y0037367D03*
X0156800Y0027367D03*
X0156800Y0017367D03*
X0139300Y0017367D03*
X0139300Y0027367D03*
X0139300Y0037367D03*
X0121800Y0037367D03*
X0121800Y0027367D03*
X0121800Y0017367D03*
X0266800Y0014867D03*
X0276800Y0014867D03*
X0276800Y0029867D03*
X0266800Y0029867D03*
D14*
X0056800Y0137367D03*
X0056800Y0167367D03*
D15*
X0066800Y0167367D03*
X0066800Y0137367D03*
D16*
X0074300Y0139867D02*
X0034300Y0179867D01*
X0019300Y0179867D01*
X0016800Y0182367D01*
X0016800Y0187367D01*
X0026800Y0164867D02*
X0026800Y0147367D01*
X0036800Y0137367D01*
X0049300Y0137367D01*
X0071800Y0114867D01*
X0071800Y0072367D01*
X0089300Y0054867D01*
X0094300Y0054867D01*
X0116800Y0032367D01*
X0129300Y0034867D02*
X0129300Y0019867D01*
X0126800Y0017367D01*
X0121800Y0017367D01*
X0139300Y0017367D02*
X0144300Y0017367D01*
X0149300Y0022367D01*
X0149300Y0044867D01*
X0161800Y0057367D01*
X0166800Y0052367D02*
X0166800Y0022367D01*
X0161800Y0017367D01*
X0156800Y0017367D01*
X0174300Y0017367D02*
X0179300Y0017367D01*
X0186800Y0009867D01*
X0231800Y0009867D01*
X0259300Y0037367D01*
X0279300Y0037367D01*
X0301800Y0059867D01*
X0301800Y0144867D01*
X0294300Y0152367D01*
X0291800Y0152367D01*
X0291800Y0162367D02*
X0284300Y0162367D01*
X0279300Y0157367D01*
X0274300Y0157367D01*
X0234300Y0117367D01*
X0234300Y0104867D01*
X0229300Y0104867D02*
X0244300Y0089867D01*
X0271800Y0089867D01*
X0276800Y0084867D01*
X0276800Y0086953D01*
X0279300Y0079867D02*
X0244300Y0079867D01*
X0214300Y0049867D01*
X0209300Y0049867D01*
X0201800Y0057367D01*
X0191800Y0057367D02*
X0184300Y0049867D01*
X0184300Y0047367D01*
X0216800Y0047367D01*
X0236800Y0067367D01*
X0279300Y0067367D01*
X0299300Y0087367D01*
X0299300Y0137367D01*
X0294300Y0142367D01*
X0291800Y0142367D01*
X0291800Y0132367D02*
X0291800Y0107367D01*
X0296800Y0102367D01*
X0296800Y0097367D01*
X0279300Y0079867D01*
X0286800Y0094867D02*
X0286800Y0107367D01*
X0276800Y0142367D02*
X0274300Y0142367D01*
X0239300Y0107367D01*
X0239300Y0104867D01*
X0229300Y0104867D02*
X0229300Y0114867D01*
X0201800Y0142367D01*
X0201800Y0177367D01*
X0199300Y0182367D02*
X0191800Y0174867D01*
X0191800Y0127367D01*
X0186800Y0122367D01*
X0181800Y0117367D02*
X0181800Y0132367D01*
X0186800Y0137367D01*
X0189300Y0144867D02*
X0176800Y0132367D01*
X0176800Y0097367D01*
X0171800Y0109867D02*
X0171800Y0117367D01*
X0161800Y0117367D02*
X0156800Y0112367D01*
X0156800Y0099867D01*
X0151800Y0094867D01*
X0159300Y0097367D02*
X0171800Y0109867D01*
X0154300Y0102367D02*
X0154300Y0119867D01*
X0151800Y0117367D01*
X0154300Y0119867D02*
X0184300Y0149867D01*
X0179300Y0154867D02*
X0141800Y0117367D01*
X0139300Y0117367D01*
X0126800Y0104867D01*
X0129300Y0099867D02*
X0121800Y0099867D01*
X0129300Y0099867D02*
X0136800Y0107367D01*
X0136800Y0097367D02*
X0146800Y0107367D01*
X0154300Y0102367D02*
X0144300Y0092367D01*
X0136800Y0097367D02*
X0136800Y0072367D01*
X0126800Y0067367D02*
X0106800Y0087367D01*
X0106800Y0129867D01*
X0081800Y0154867D01*
X0081800Y0224867D01*
X0026800Y0224867D01*
X0016800Y0214867D01*
X0016800Y0212367D01*
X0056800Y0192367D02*
X0056800Y0187367D01*
X0076800Y0167367D01*
X0076800Y0134867D01*
X0099300Y0112367D01*
X0099300Y0079867D01*
X0121800Y0057367D01*
X0111800Y0057367D02*
X0101800Y0067367D01*
X0086800Y0067367D01*
X0074300Y0079867D01*
X0074300Y0139867D01*
X0096800Y0177367D02*
X0119300Y0154867D01*
X0154300Y0154867D01*
X0164300Y0164867D01*
X0169300Y0162367D02*
X0126800Y0119867D01*
X0126800Y0112367D01*
X0114300Y0099867D01*
X0114300Y0084867D01*
X0141800Y0057367D01*
X0151800Y0057367D02*
X0129300Y0034867D01*
X0126800Y0047367D02*
X0111800Y0047367D01*
X0101800Y0057367D01*
X0126800Y0067367D02*
X0126800Y0047367D01*
X0136800Y0047367D01*
X0166800Y0052367D02*
X0171800Y0057367D01*
X0206800Y0092367D01*
X0221800Y0079867D02*
X0209300Y0067367D01*
X0184300Y0047367D02*
X0184300Y0019867D01*
X0186800Y0017367D01*
X0191800Y0017367D01*
X0181800Y0019867D02*
X0179300Y0017367D01*
X0181800Y0019867D02*
X0181800Y0057367D01*
X0226800Y0027367D02*
X0231800Y0027367D01*
X0249300Y0044867D01*
X0276800Y0044867D01*
X0276800Y0045674D01*
X0211800Y0107367D02*
X0221800Y0117367D01*
X0189300Y0144867D02*
X0189300Y0187367D01*
X0211800Y0209867D01*
X0281800Y0209867D01*
X0284300Y0207367D01*
X0284300Y0187367D01*
X0289300Y0182367D01*
X0291800Y0182367D01*
X0276800Y0172367D02*
X0246800Y0172367D01*
X0236800Y0162367D01*
X0224300Y0162367D01*
X0204300Y0182367D01*
X0199300Y0182367D01*
X0204300Y0207367D02*
X0169300Y0172367D01*
X0169300Y0162367D01*
X0159300Y0169867D02*
X0149300Y0159867D01*
X0096800Y0177367D02*
X0091800Y0177367D01*
X0131800Y0212367D02*
X0119300Y0224867D01*
X0081800Y0224867D01*
X0236800Y0167367D02*
X0271800Y0202367D01*
X0276800Y0202367D01*
X0049300Y0094867D02*
X0049300Y0072367D01*
X0011800Y0034867D01*
X0011800Y0032367D01*
D17*
X0049300Y0094867D03*
X0121800Y0099867D03*
X0126800Y0104867D03*
X0144300Y0092367D03*
X0151800Y0094867D03*
X0159300Y0097367D03*
X0176800Y0097367D03*
X0206800Y0092367D03*
X0221800Y0079867D03*
X0209300Y0067367D03*
X0234300Y0104867D03*
X0239300Y0104867D03*
X0221800Y0117367D03*
X0186800Y0122367D03*
X0186800Y0137367D03*
X0184300Y0149867D03*
X0179300Y0154867D03*
X0164300Y0164867D03*
X0159300Y0169867D03*
X0149300Y0159867D03*
X0204300Y0207367D03*
X0236800Y0167367D03*
X0286800Y0107367D03*
X0286800Y0094867D03*
X0136800Y0072367D03*
X0136800Y0047367D03*
X0116800Y0032367D03*
X0131800Y0212367D03*
D18*
X0006600Y0031071D02*
X0006600Y0007167D01*
X0303201Y0007167D01*
X0303201Y0058298D01*
X0281400Y0036497D01*
X0280170Y0035267D01*
X0260170Y0035267D01*
X0233900Y0008997D01*
X0232670Y0007767D01*
X0185930Y0007767D01*
X0178951Y0014746D01*
X0178793Y0014364D01*
X0177302Y0012874D01*
X0175354Y0012067D01*
X0173246Y0012067D01*
X0171298Y0012874D01*
X0169807Y0014364D01*
X0169000Y0016312D01*
X0169000Y0018421D01*
X0169807Y0020369D01*
X0171298Y0021860D01*
X0172522Y0022367D01*
X0171298Y0022874D01*
X0169807Y0024364D01*
X0169000Y0026312D01*
X0169000Y0028421D01*
X0169807Y0030369D01*
X0171298Y0031860D01*
X0172244Y0032252D01*
X0172189Y0032270D01*
X0171417Y0032663D01*
X0170717Y0033171D01*
X0170105Y0033784D01*
X0169596Y0034484D01*
X0169203Y0035255D01*
X0168935Y0036079D01*
X0168900Y0036303D01*
X0168900Y0021497D01*
X0163900Y0016497D01*
X0162670Y0015267D01*
X0161667Y0015267D01*
X0161293Y0014364D01*
X0159802Y0012874D01*
X0157854Y0012067D01*
X0155746Y0012067D01*
X0153798Y0012874D01*
X0152307Y0014364D01*
X0151500Y0016312D01*
X0151500Y0018421D01*
X0152307Y0020369D01*
X0153798Y0021860D01*
X0155022Y0022367D01*
X0153798Y0022874D01*
X0152307Y0024364D01*
X0151500Y0026312D01*
X0151500Y0028421D01*
X0152307Y0030369D01*
X0153798Y0031860D01*
X0154744Y0032252D01*
X0154689Y0032270D01*
X0153917Y0032663D01*
X0153217Y0033171D01*
X0152605Y0033784D01*
X0152096Y0034484D01*
X0151703Y0035255D01*
X0151435Y0036079D01*
X0151400Y0036303D01*
X0151400Y0021497D01*
X0146400Y0016497D01*
X0145170Y0015267D01*
X0144167Y0015267D01*
X0143793Y0014364D01*
X0142302Y0012874D01*
X0140354Y0012067D01*
X0138246Y0012067D01*
X0136298Y0012874D01*
X0134807Y0014364D01*
X0134000Y0016312D01*
X0134000Y0018421D01*
X0134807Y0020369D01*
X0136298Y0021860D01*
X0137522Y0022367D01*
X0136298Y0022874D01*
X0134807Y0024364D01*
X0134000Y0026312D01*
X0134000Y0028421D01*
X0134807Y0030369D01*
X0136298Y0031860D01*
X0137244Y0032252D01*
X0137189Y0032270D01*
X0136417Y0032663D01*
X0135717Y0033171D01*
X0135105Y0033784D01*
X0134596Y0034484D01*
X0134203Y0035255D01*
X0133935Y0036079D01*
X0133873Y0036470D01*
X0131400Y0033997D01*
X0131400Y0018997D01*
X0128900Y0016497D01*
X0127670Y0015267D01*
X0126667Y0015267D01*
X0126293Y0014364D01*
X0124802Y0012874D01*
X0122854Y0012067D01*
X0120746Y0012067D01*
X0118798Y0012874D01*
X0117307Y0014364D01*
X0116500Y0016312D01*
X0116500Y0018421D01*
X0117307Y0020369D01*
X0118798Y0021860D01*
X0120022Y0022367D01*
X0118798Y0022874D01*
X0117307Y0024364D01*
X0116500Y0026312D01*
X0116500Y0028421D01*
X0116643Y0028767D01*
X0116084Y0028767D01*
X0114761Y0029315D01*
X0113748Y0030327D01*
X0113200Y0031651D01*
X0113200Y0032997D01*
X0106983Y0039214D01*
X0107165Y0038655D01*
X0107300Y0037800D01*
X0107300Y0037567D01*
X0102000Y0037567D01*
X0101600Y0037567D01*
X0101600Y0042867D01*
X0101367Y0042867D01*
X0100512Y0042731D01*
X0099689Y0042464D01*
X0098917Y0042071D01*
X0098217Y0041562D01*
X0097605Y0040950D01*
X0097096Y0040249D01*
X0096703Y0039478D01*
X0096435Y0038655D01*
X0096300Y0037800D01*
X0096300Y0037567D01*
X0101600Y0037567D01*
X0101600Y0037167D01*
X0096300Y0037167D01*
X0096300Y0036934D01*
X0096435Y0036079D01*
X0096703Y0035255D01*
X0097096Y0034484D01*
X0097605Y0033784D01*
X0098217Y0033171D01*
X0098917Y0032663D01*
X0099689Y0032270D01*
X0099744Y0032252D01*
X0098798Y0031860D01*
X0097307Y0030369D01*
X0096500Y0028421D01*
X0096500Y0026312D01*
X0097307Y0024364D01*
X0098798Y0022874D01*
X0100022Y0022367D01*
X0098798Y0021860D01*
X0097307Y0020369D01*
X0096500Y0018421D01*
X0096500Y0016312D01*
X0097307Y0014364D01*
X0098798Y0012874D01*
X0100746Y0012067D01*
X0102854Y0012067D01*
X0104802Y0012874D01*
X0106293Y0014364D01*
X0107100Y0016312D01*
X0107100Y0018421D01*
X0106293Y0020369D01*
X0104802Y0021860D01*
X0103578Y0022367D01*
X0104802Y0022874D01*
X0106293Y0024364D01*
X0107100Y0026312D01*
X0107100Y0028421D01*
X0106293Y0030369D01*
X0104802Y0031860D01*
X0103856Y0032252D01*
X0103911Y0032270D01*
X0104683Y0032663D01*
X0105383Y0033171D01*
X0105995Y0033784D01*
X0106504Y0034484D01*
X0106897Y0035255D01*
X0107165Y0036079D01*
X0107300Y0036934D01*
X0107300Y0037167D01*
X0102000Y0037167D01*
X0102000Y0037567D01*
X0102000Y0042867D01*
X0102233Y0042867D01*
X0103088Y0042731D01*
X0103647Y0042549D01*
X0093430Y0052767D01*
X0088430Y0052767D01*
X0070930Y0070267D01*
X0069700Y0071497D01*
X0069700Y0113997D01*
X0048430Y0135267D01*
X0035930Y0135267D01*
X0025930Y0145267D01*
X0024700Y0146497D01*
X0024700Y0160000D01*
X0023798Y0160374D01*
X0022307Y0161864D01*
X0021800Y0163088D01*
X0021293Y0161864D01*
X0019802Y0160374D01*
X0017854Y0159567D01*
X0015746Y0159567D01*
X0013798Y0160374D01*
X0012307Y0161864D01*
X0011500Y0163812D01*
X0011500Y0165921D01*
X0012307Y0167869D01*
X0013798Y0169360D01*
X0015746Y0170167D01*
X0017854Y0170167D01*
X0019802Y0169360D01*
X0021293Y0167869D01*
X0021800Y0166645D01*
X0022307Y0167869D01*
X0023798Y0169360D01*
X0025746Y0170167D01*
X0027854Y0170167D01*
X0029802Y0169360D01*
X0031293Y0167869D01*
X0031800Y0166645D01*
X0032307Y0167869D01*
X0033798Y0169360D01*
X0035746Y0170167D01*
X0037854Y0170167D01*
X0039802Y0169360D01*
X0041293Y0167869D01*
X0042100Y0165921D01*
X0042100Y0163812D01*
X0041293Y0161864D01*
X0039802Y0160374D01*
X0037854Y0159567D01*
X0035746Y0159567D01*
X0033798Y0160374D01*
X0032307Y0161864D01*
X0031800Y0163088D01*
X0031293Y0161864D01*
X0029802Y0160374D01*
X0028900Y0160000D01*
X0028900Y0148237D01*
X0037670Y0139467D01*
X0050170Y0139467D01*
X0051400Y0138237D01*
X0051400Y0138236D01*
X0051500Y0138136D01*
X0051500Y0139562D01*
X0054605Y0142667D01*
X0056800Y0142667D01*
X0056800Y0137367D01*
X0056800Y0137367D01*
X0056800Y0142667D01*
X0058995Y0142667D01*
X0062100Y0139562D01*
X0062100Y0139347D01*
X0062476Y0140256D01*
X0063911Y0141690D01*
X0065786Y0142467D01*
X0067814Y0142467D01*
X0069378Y0141819D01*
X0033430Y0177767D01*
X0018430Y0177767D01*
X0015930Y0180267D01*
X0014700Y0181497D01*
X0014700Y0182500D01*
X0013798Y0182874D01*
X0012307Y0184364D01*
X0011500Y0186312D01*
X0011500Y0188421D01*
X0012307Y0190369D01*
X0013798Y0191860D01*
X0015746Y0192667D01*
X0017854Y0192667D01*
X0019802Y0191860D01*
X0021293Y0190369D01*
X0021800Y0189145D01*
X0022307Y0190369D01*
X0023798Y0191860D01*
X0025746Y0192667D01*
X0027854Y0192667D01*
X0029802Y0191860D01*
X0031293Y0190369D01*
X0031800Y0189145D01*
X0032307Y0190369D01*
X0033798Y0191860D01*
X0035746Y0192667D01*
X0037854Y0192667D01*
X0039802Y0191860D01*
X0041293Y0190369D01*
X0042100Y0188421D01*
X0042100Y0186312D01*
X0041293Y0184364D01*
X0039802Y0182874D01*
X0037854Y0182067D01*
X0035746Y0182067D01*
X0033798Y0182874D01*
X0032307Y0184364D01*
X0031800Y0185588D01*
X0031293Y0184364D01*
X0029802Y0182874D01*
X0027854Y0182067D01*
X0025746Y0182067D01*
X0023798Y0182874D01*
X0022307Y0184364D01*
X0021800Y0185588D01*
X0021293Y0184364D01*
X0019802Y0182874D01*
X0019421Y0182716D01*
X0020170Y0181967D01*
X0035170Y0181967D01*
X0036400Y0180737D01*
X0051500Y0165636D01*
X0051500Y0167367D01*
X0056800Y0167367D01*
X0056800Y0172667D01*
X0054605Y0172667D01*
X0051500Y0169562D01*
X0051500Y0167367D01*
X0056800Y0167367D01*
X0056800Y0167367D01*
X0056800Y0172667D01*
X0058995Y0172667D01*
X0062100Y0169562D01*
X0062100Y0169347D01*
X0062476Y0170256D01*
X0063911Y0171690D01*
X0065786Y0172467D01*
X0067814Y0172467D01*
X0069378Y0171819D01*
X0055930Y0185267D01*
X0054700Y0186497D01*
X0054700Y0187500D01*
X0053798Y0187874D01*
X0052307Y0189364D01*
X0051500Y0191312D01*
X0051500Y0193421D01*
X0052307Y0195369D01*
X0053798Y0196860D01*
X0055022Y0197367D01*
X0053798Y0197874D01*
X0052307Y0199364D01*
X0051500Y0201312D01*
X0051500Y0203421D01*
X0052307Y0205369D01*
X0053798Y0206860D01*
X0055022Y0207367D01*
X0053798Y0207874D01*
X0052307Y0209364D01*
X0051500Y0211312D01*
X0051500Y0213421D01*
X0052307Y0215369D01*
X0053798Y0216860D01*
X0055746Y0217667D01*
X0057854Y0217667D01*
X0059802Y0216860D01*
X0061293Y0215369D01*
X0061800Y0214145D01*
X0062307Y0215369D01*
X0063798Y0216860D01*
X0065746Y0217667D01*
X0067854Y0217667D01*
X0069802Y0216860D01*
X0071293Y0215369D01*
X0072100Y0213421D01*
X0072100Y0211312D01*
X0071293Y0209364D01*
X0069802Y0207874D01*
X0068578Y0207367D01*
X0069802Y0206860D01*
X0071293Y0205369D01*
X0072100Y0203421D01*
X0072100Y0201312D01*
X0071293Y0199364D01*
X0069802Y0197874D01*
X0068856Y0197482D01*
X0068911Y0197464D01*
X0069683Y0197071D01*
X0070383Y0196562D01*
X0070995Y0195950D01*
X0071504Y0195249D01*
X0071897Y0194478D01*
X0072165Y0193655D01*
X0072300Y0192800D01*
X0072300Y0192567D01*
X0067000Y0192567D01*
X0067000Y0192167D01*
X0072300Y0192167D01*
X0072300Y0191934D01*
X0072165Y0191079D01*
X0071897Y0190255D01*
X0071504Y0189484D01*
X0070995Y0188784D01*
X0070383Y0188171D01*
X0069683Y0187663D01*
X0068911Y0187270D01*
X0068088Y0187002D01*
X0067233Y0186867D01*
X0067000Y0186867D01*
X0067000Y0192167D01*
X0066600Y0192167D01*
X0066600Y0186867D01*
X0066367Y0186867D01*
X0065512Y0187002D01*
X0064689Y0187270D01*
X0063917Y0187663D01*
X0063217Y0188171D01*
X0062605Y0188784D01*
X0062096Y0189484D01*
X0061703Y0190255D01*
X0061685Y0190311D01*
X0061293Y0189364D01*
X0059802Y0187874D01*
X0059421Y0187716D01*
X0078900Y0168237D01*
X0078900Y0135737D01*
X0097231Y0117405D01*
X0097231Y0118275D01*
X0097927Y0119955D01*
X0099212Y0121240D01*
X0100891Y0121935D01*
X0102709Y0121935D01*
X0104388Y0121240D01*
X0104700Y0120927D01*
X0104700Y0128997D01*
X0080930Y0152767D01*
X0079700Y0153997D01*
X0079700Y0222767D01*
X0027670Y0222767D01*
X0020783Y0215879D01*
X0021293Y0215369D01*
X0021800Y0214145D01*
X0022307Y0215369D01*
X0023798Y0216860D01*
X0025746Y0217667D01*
X0027854Y0217667D01*
X0029802Y0216860D01*
X0031293Y0215369D01*
X0031800Y0214145D01*
X0032307Y0215369D01*
X0033798Y0216860D01*
X0035746Y0217667D01*
X0037854Y0217667D01*
X0039802Y0216860D01*
X0041293Y0215369D01*
X0042100Y0213421D01*
X0042100Y0211312D01*
X0041293Y0209364D01*
X0039802Y0207874D01*
X0037854Y0207067D01*
X0035746Y0207067D01*
X0033798Y0207874D01*
X0032307Y0209364D01*
X0031800Y0210588D01*
X0031293Y0209364D01*
X0029802Y0207874D01*
X0027854Y0207067D01*
X0025746Y0207067D01*
X0023798Y0207874D01*
X0022307Y0209364D01*
X0021800Y0210588D01*
X0021293Y0209364D01*
X0019802Y0207874D01*
X0017854Y0207067D01*
X0015746Y0207067D01*
X0013798Y0207874D01*
X0012307Y0209364D01*
X0011500Y0211312D01*
X0011500Y0213421D01*
X0012307Y0215369D01*
X0013798Y0216860D01*
X0015746Y0217667D01*
X0016630Y0217667D01*
X0024700Y0225737D01*
X0025930Y0226967D01*
X0120170Y0226967D01*
X0131170Y0215967D01*
X0132516Y0215967D01*
X0133839Y0215419D01*
X0134852Y0214406D01*
X0135400Y0213083D01*
X0135400Y0211651D01*
X0134852Y0210327D01*
X0133839Y0209315D01*
X0132516Y0208767D01*
X0131084Y0208767D01*
X0129761Y0209315D01*
X0128748Y0210327D01*
X0128200Y0211651D01*
X0128200Y0212997D01*
X0118430Y0222767D01*
X0083900Y0222767D01*
X0083900Y0155737D01*
X0108900Y0130737D01*
X0108900Y0121154D01*
X0109301Y0121445D01*
X0109970Y0121786D01*
X0110683Y0122018D01*
X0111425Y0122135D01*
X0111616Y0122135D01*
X0111616Y0117551D01*
X0111984Y0117551D01*
X0111984Y0122135D01*
X0112175Y0122135D01*
X0112917Y0122018D01*
X0113630Y0121786D01*
X0114299Y0121445D01*
X0114906Y0121004D01*
X0115437Y0120473D01*
X0115878Y0119866D01*
X0116219Y0119197D01*
X0116451Y0118483D01*
X0116568Y0117742D01*
X0116568Y0117551D01*
X0111984Y0117551D01*
X0111984Y0117182D01*
X0111984Y0112598D01*
X0112175Y0112598D01*
X0112917Y0112716D01*
X0113630Y0112948D01*
X0114299Y0113288D01*
X0114906Y0113729D01*
X0115437Y0114260D01*
X0115878Y0114867D01*
X0116219Y0115536D01*
X0116451Y0116250D01*
X0116568Y0116991D01*
X0116568Y0117182D01*
X0111984Y0117182D01*
X0111616Y0117182D01*
X0111616Y0112598D01*
X0111425Y0112598D01*
X0110683Y0112716D01*
X0109970Y0112948D01*
X0109301Y0113288D01*
X0108900Y0113579D01*
X0108900Y0088237D01*
X0112200Y0084936D01*
X0112200Y0100737D01*
X0113430Y0101967D01*
X0124700Y0113237D01*
X0124700Y0113806D01*
X0124388Y0113494D01*
X0122709Y0112798D01*
X0120891Y0112798D01*
X0119212Y0113494D01*
X0117927Y0114779D01*
X0117231Y0116458D01*
X0117231Y0118275D01*
X0117927Y0119955D01*
X0119212Y0121240D01*
X0120891Y0121935D01*
X0122709Y0121935D01*
X0124388Y0121240D01*
X0124795Y0120832D01*
X0125930Y0121967D01*
X0165382Y0161418D01*
X0165016Y0161267D01*
X0163670Y0161267D01*
X0156400Y0153997D01*
X0155170Y0152767D01*
X0118430Y0152767D01*
X0096451Y0174746D01*
X0096293Y0174364D01*
X0094802Y0172874D01*
X0093856Y0172482D01*
X0093911Y0172464D01*
X0094683Y0172071D01*
X0095383Y0171562D01*
X0095995Y0170950D01*
X0096504Y0170249D01*
X0096897Y0169478D01*
X0097165Y0168655D01*
X0097300Y0167800D01*
X0097300Y0167567D01*
X0092000Y0167567D01*
X0092000Y0167167D01*
X0097300Y0167167D01*
X0097300Y0166934D01*
X0097165Y0166079D01*
X0096897Y0165255D01*
X0096504Y0164484D01*
X0095995Y0163784D01*
X0095383Y0163171D01*
X0094683Y0162663D01*
X0093911Y0162270D01*
X0093856Y0162252D01*
X0094802Y0161860D01*
X0096293Y0160369D01*
X0097100Y0158421D01*
X0097100Y0156312D01*
X0096293Y0154364D01*
X0094802Y0152874D01*
X0092854Y0152067D01*
X0090746Y0152067D01*
X0088798Y0152874D01*
X0087307Y0154364D01*
X0086500Y0156312D01*
X0086500Y0158421D01*
X0087307Y0160369D01*
X0088798Y0161860D01*
X0089744Y0162252D01*
X0089689Y0162270D01*
X0088917Y0162663D01*
X0088217Y0163171D01*
X0087605Y0163784D01*
X0087096Y0164484D01*
X0086703Y0165255D01*
X0086435Y0166079D01*
X0086300Y0166934D01*
X0086300Y0167167D01*
X0091600Y0167167D01*
X0091600Y0167567D01*
X0086300Y0167567D01*
X0086300Y0167800D01*
X0086435Y0168655D01*
X0086703Y0169478D01*
X0087096Y0170249D01*
X0087605Y0170950D01*
X0088217Y0171562D01*
X0088917Y0172071D01*
X0089689Y0172464D01*
X0089744Y0172482D01*
X0088798Y0172874D01*
X0087307Y0174364D01*
X0086500Y0176312D01*
X0086500Y0178421D01*
X0087307Y0180369D01*
X0088798Y0181860D01*
X0090022Y0182367D01*
X0088798Y0182874D01*
X0087307Y0184364D01*
X0086500Y0186312D01*
X0086500Y0188421D01*
X0087307Y0190369D01*
X0088798Y0191860D01*
X0090022Y0192367D01*
X0088798Y0192874D01*
X0087307Y0194364D01*
X0086500Y0196312D01*
X0086500Y0198421D01*
X0087307Y0200369D01*
X0088798Y0201860D01*
X0090022Y0202367D01*
X0088798Y0202874D01*
X0087307Y0204364D01*
X0086500Y0206312D01*
X0086500Y0208421D01*
X0087307Y0210369D01*
X0088798Y0211860D01*
X0090022Y0212367D01*
X0088798Y0212874D01*
X0087307Y0214364D01*
X0086500Y0216312D01*
X0086500Y0218421D01*
X0087307Y0220369D01*
X0088798Y0221860D01*
X0090746Y0222667D01*
X0092854Y0222667D01*
X0094802Y0221860D01*
X0096293Y0220369D01*
X0097100Y0218421D01*
X0097100Y0216312D01*
X0096293Y0214364D01*
X0094802Y0212874D01*
X0093578Y0212367D01*
X0094802Y0211860D01*
X0096293Y0210369D01*
X0097100Y0208421D01*
X0097100Y0206312D01*
X0096293Y0204364D01*
X0094802Y0202874D01*
X0093578Y0202367D01*
X0094802Y0201860D01*
X0096293Y0200369D01*
X0097100Y0198421D01*
X0097100Y0196312D01*
X0096293Y0194364D01*
X0094802Y0192874D01*
X0093578Y0192367D01*
X0094802Y0191860D01*
X0096293Y0190369D01*
X0097100Y0188421D01*
X0097100Y0186312D01*
X0096293Y0184364D01*
X0094802Y0182874D01*
X0093578Y0182367D01*
X0094802Y0181860D01*
X0096293Y0180369D01*
X0096667Y0179467D01*
X0097670Y0179467D01*
X0098900Y0178237D01*
X0120170Y0156967D01*
X0147109Y0156967D01*
X0146248Y0157827D01*
X0145700Y0159151D01*
X0145700Y0160583D01*
X0146248Y0161906D01*
X0147261Y0162919D01*
X0148584Y0163467D01*
X0149930Y0163467D01*
X0155700Y0169237D01*
X0155700Y0170583D01*
X0156248Y0171906D01*
X0157261Y0172919D01*
X0158584Y0173467D01*
X0160016Y0173467D01*
X0161339Y0172919D01*
X0162352Y0171906D01*
X0162900Y0170583D01*
X0162900Y0169151D01*
X0162416Y0167983D01*
X0163584Y0168467D01*
X0165016Y0168467D01*
X0166339Y0167919D01*
X0167200Y0167058D01*
X0167200Y0173237D01*
X0168430Y0174467D01*
X0200700Y0206736D01*
X0200700Y0208083D01*
X0201248Y0209406D01*
X0202261Y0210419D01*
X0203584Y0210967D01*
X0205016Y0210967D01*
X0206339Y0210419D01*
X0207352Y0209406D01*
X0207650Y0208686D01*
X0210930Y0211967D01*
X0282670Y0211967D01*
X0283900Y0210737D01*
X0286400Y0208237D01*
X0286400Y0188237D01*
X0288287Y0186349D01*
X0288798Y0186860D01*
X0290022Y0187367D01*
X0288798Y0187874D01*
X0287307Y0189364D01*
X0286500Y0191312D01*
X0286500Y0193421D01*
X0287307Y0195369D01*
X0288798Y0196860D01*
X0290022Y0197367D01*
X0288798Y0197874D01*
X0287307Y0199364D01*
X0286500Y0201312D01*
X0286500Y0203421D01*
X0287307Y0205369D01*
X0288798Y0206860D01*
X0290746Y0207667D01*
X0292854Y0207667D01*
X0294802Y0206860D01*
X0296293Y0205369D01*
X0297100Y0203421D01*
X0297100Y0201312D01*
X0296293Y0199364D01*
X0294802Y0197874D01*
X0293578Y0197367D01*
X0294802Y0196860D01*
X0296293Y0195369D01*
X0297100Y0193421D01*
X0297100Y0191312D01*
X0296293Y0189364D01*
X0294802Y0187874D01*
X0293578Y0187367D01*
X0294802Y0186860D01*
X0296293Y0185369D01*
X0297100Y0183421D01*
X0297100Y0181312D01*
X0296293Y0179364D01*
X0294802Y0177874D01*
X0293578Y0177367D01*
X0294802Y0176860D01*
X0296293Y0175369D01*
X0297100Y0173421D01*
X0297100Y0171312D01*
X0296293Y0169364D01*
X0294802Y0167874D01*
X0293578Y0167367D01*
X0294802Y0166860D01*
X0296293Y0165369D01*
X0297100Y0163421D01*
X0297100Y0161312D01*
X0296293Y0159364D01*
X0294802Y0157874D01*
X0293578Y0157367D01*
X0294802Y0156860D01*
X0296293Y0155369D01*
X0297100Y0153421D01*
X0297100Y0152537D01*
X0302670Y0146967D01*
X0303201Y0146436D01*
X0303201Y0227527D01*
X0006600Y0227527D01*
X0006600Y0116162D01*
X0007307Y0117869D01*
X0008798Y0119360D01*
X0010746Y0120167D01*
X0012854Y0120167D01*
X0014802Y0119360D01*
X0016293Y0117869D01*
X0017100Y0115921D01*
X0017100Y0113812D01*
X0016293Y0111864D01*
X0014802Y0110374D01*
X0013578Y0109867D01*
X0014802Y0109360D01*
X0016293Y0107869D01*
X0017100Y0105921D01*
X0017100Y0103812D01*
X0016293Y0101864D01*
X0014802Y0100374D01*
X0013578Y0099867D01*
X0014802Y0099360D01*
X0016293Y0097869D01*
X0017100Y0095921D01*
X0017100Y0093812D01*
X0016293Y0091864D01*
X0014802Y0090374D01*
X0012854Y0089567D01*
X0010746Y0089567D01*
X0008798Y0090374D01*
X0007307Y0091864D01*
X0006600Y0093571D01*
X0006600Y0033662D01*
X0007307Y0035369D01*
X0008798Y0036860D01*
X0010746Y0037667D01*
X0011630Y0037667D01*
X0021930Y0047967D01*
X0021800Y0047967D01*
X0021800Y0052367D01*
X0021800Y0056767D01*
X0021800Y0052367D01*
X0021800Y0052367D01*
X0021800Y0052367D01*
X0017400Y0052367D01*
X0017400Y0052713D01*
X0017508Y0053397D01*
X0017722Y0054056D01*
X0018037Y0054673D01*
X0018444Y0055233D01*
X0018934Y0055723D01*
X0019494Y0056130D01*
X0020111Y0056444D01*
X0020770Y0056658D01*
X0021454Y0056767D01*
X0021800Y0056767D01*
X0022146Y0056767D01*
X0022830Y0056658D01*
X0023489Y0056444D01*
X0024106Y0056130D01*
X0024666Y0055723D01*
X0025156Y0055233D01*
X0025563Y0054673D01*
X0025878Y0054056D01*
X0026092Y0053397D01*
X0026200Y0052713D01*
X0026200Y0052367D01*
X0021800Y0052367D01*
X0021800Y0052367D01*
X0017400Y0052367D01*
X0017400Y0052020D01*
X0017508Y0051336D01*
X0017722Y0050678D01*
X0018037Y0050061D01*
X0018444Y0049500D01*
X0018934Y0049011D01*
X0019494Y0048603D01*
X0020111Y0048289D01*
X0020770Y0048075D01*
X0021454Y0047967D01*
X0021800Y0047967D01*
X0021800Y0052367D01*
X0026200Y0052367D01*
X0026200Y0052236D01*
X0047200Y0073237D01*
X0047200Y0091875D01*
X0046562Y0092514D01*
X0046293Y0091864D01*
X0044802Y0090374D01*
X0042854Y0089567D01*
X0040746Y0089567D01*
X0038798Y0090374D01*
X0037307Y0091864D01*
X0036500Y0093812D01*
X0036500Y0095921D01*
X0037307Y0097869D01*
X0038798Y0099360D01*
X0040022Y0099867D01*
X0038798Y0100374D01*
X0037307Y0101864D01*
X0036500Y0103812D01*
X0036500Y0105921D01*
X0037307Y0107869D01*
X0038798Y0109360D01*
X0040022Y0109867D01*
X0038798Y0110374D01*
X0037307Y0111864D01*
X0036500Y0113812D01*
X0036500Y0115921D01*
X0037307Y0117869D01*
X0038798Y0119360D01*
X0040746Y0120167D01*
X0042854Y0120167D01*
X0044802Y0119360D01*
X0046293Y0117869D01*
X0047100Y0115921D01*
X0047100Y0113812D01*
X0046293Y0111864D01*
X0044802Y0110374D01*
X0043578Y0109867D01*
X0044802Y0109360D01*
X0046293Y0107869D01*
X0047100Y0105921D01*
X0047100Y0103812D01*
X0046293Y0101864D01*
X0044802Y0100374D01*
X0043578Y0099867D01*
X0044802Y0099360D01*
X0046293Y0097869D01*
X0046562Y0097220D01*
X0047261Y0097919D01*
X0048584Y0098467D01*
X0050016Y0098467D01*
X0051339Y0097919D01*
X0052352Y0096906D01*
X0052900Y0095583D01*
X0052900Y0094151D01*
X0052352Y0092827D01*
X0051400Y0091875D01*
X0051400Y0071497D01*
X0050170Y0070267D01*
X0015783Y0035879D01*
X0016293Y0035369D01*
X0016800Y0034145D01*
X0017307Y0035369D01*
X0018798Y0036860D01*
X0020746Y0037667D01*
X0022854Y0037667D01*
X0024802Y0036860D01*
X0026293Y0035369D01*
X0026800Y0034145D01*
X0027307Y0035369D01*
X0028798Y0036860D01*
X0030746Y0037667D01*
X0032854Y0037667D01*
X0034802Y0036860D01*
X0036293Y0035369D01*
X0036800Y0034145D01*
X0037307Y0035369D01*
X0038798Y0036860D01*
X0040746Y0037667D01*
X0042854Y0037667D01*
X0044802Y0036860D01*
X0046293Y0035369D01*
X0046800Y0034145D01*
X0047307Y0035369D01*
X0048798Y0036860D01*
X0050746Y0037667D01*
X0052854Y0037667D01*
X0054802Y0036860D01*
X0056293Y0035369D01*
X0056800Y0034145D01*
X0057307Y0035369D01*
X0058798Y0036860D01*
X0060746Y0037667D01*
X0062854Y0037667D01*
X0064802Y0036860D01*
X0066293Y0035369D01*
X0066800Y0034145D01*
X0067307Y0035369D01*
X0068798Y0036860D01*
X0070746Y0037667D01*
X0072854Y0037667D01*
X0074802Y0036860D01*
X0076293Y0035369D01*
X0076800Y0034145D01*
X0077307Y0035369D01*
X0078798Y0036860D01*
X0080746Y0037667D01*
X0082854Y0037667D01*
X0084802Y0036860D01*
X0086293Y0035369D01*
X0087100Y0033421D01*
X0087100Y0031312D01*
X0086293Y0029364D01*
X0084802Y0027874D01*
X0082854Y0027067D01*
X0080746Y0027067D01*
X0078798Y0027874D01*
X0077307Y0029364D01*
X0076800Y0030588D01*
X0076293Y0029364D01*
X0074802Y0027874D01*
X0072854Y0027067D01*
X0070746Y0027067D01*
X0068798Y0027874D01*
X0067307Y0029364D01*
X0066800Y0030588D01*
X0066293Y0029364D01*
X0064802Y0027874D01*
X0062854Y0027067D01*
X0060746Y0027067D01*
X0058798Y0027874D01*
X0057307Y0029364D01*
X0056800Y0030588D01*
X0056293Y0029364D01*
X0054802Y0027874D01*
X0052854Y0027067D01*
X0050746Y0027067D01*
X0048798Y0027874D01*
X0047307Y0029364D01*
X0046800Y0030588D01*
X0046293Y0029364D01*
X0044802Y0027874D01*
X0042854Y0027067D01*
X0040746Y0027067D01*
X0038798Y0027874D01*
X0037307Y0029364D01*
X0036800Y0030588D01*
X0036293Y0029364D01*
X0034802Y0027874D01*
X0032854Y0027067D01*
X0030746Y0027067D01*
X0028798Y0027874D01*
X0027307Y0029364D01*
X0026800Y0030588D01*
X0026293Y0029364D01*
X0024802Y0027874D01*
X0022854Y0027067D01*
X0020746Y0027067D01*
X0018798Y0027874D01*
X0017307Y0029364D01*
X0016800Y0030588D01*
X0016293Y0029364D01*
X0014802Y0027874D01*
X0012854Y0027067D01*
X0010746Y0027067D01*
X0008798Y0027874D01*
X0007307Y0029364D01*
X0006600Y0031071D01*
X0006600Y0029541D02*
X0007234Y0029541D01*
X0006600Y0027943D02*
X0008728Y0027943D01*
X0006600Y0026344D02*
X0096500Y0026344D01*
X0096500Y0027943D02*
X0084872Y0027943D01*
X0086366Y0029541D02*
X0096964Y0029541D01*
X0098078Y0031140D02*
X0087029Y0031140D01*
X0087100Y0032738D02*
X0098813Y0032738D01*
X0097203Y0034337D02*
X0086721Y0034337D01*
X0085727Y0035935D02*
X0096482Y0035935D01*
X0096591Y0039132D02*
X0019036Y0039132D01*
X0020425Y0037534D02*
X0017437Y0037534D01*
X0017873Y0035935D02*
X0015839Y0035935D01*
X0016721Y0034337D02*
X0016879Y0034337D01*
X0017234Y0029541D02*
X0016366Y0029541D01*
X0014872Y0027943D02*
X0018728Y0027943D01*
X0024872Y0027943D02*
X0028728Y0027943D01*
X0027234Y0029541D02*
X0026366Y0029541D01*
X0026721Y0034337D02*
X0026879Y0034337D01*
X0027873Y0035935D02*
X0025727Y0035935D01*
X0023175Y0037534D02*
X0030425Y0037534D01*
X0033175Y0037534D02*
X0040425Y0037534D01*
X0043175Y0037534D02*
X0050425Y0037534D01*
X0053175Y0037534D02*
X0060425Y0037534D01*
X0063175Y0037534D02*
X0070425Y0037534D01*
X0073175Y0037534D02*
X0080425Y0037534D01*
X0083175Y0037534D02*
X0101600Y0037534D01*
X0102000Y0037534D02*
X0108663Y0037534D01*
X0107118Y0035935D02*
X0110261Y0035935D01*
X0111860Y0034337D02*
X0106397Y0034337D01*
X0104787Y0032738D02*
X0113200Y0032738D01*
X0113412Y0031140D02*
X0105522Y0031140D01*
X0106636Y0029541D02*
X0114534Y0029541D01*
X0116500Y0027943D02*
X0107100Y0027943D01*
X0107100Y0026344D02*
X0116500Y0026344D01*
X0117149Y0024746D02*
X0106451Y0024746D01*
X0105076Y0023147D02*
X0118524Y0023147D01*
X0118487Y0021549D02*
X0105113Y0021549D01*
X0106466Y0019950D02*
X0117134Y0019950D01*
X0116500Y0018352D02*
X0107100Y0018352D01*
X0107100Y0016753D02*
X0116500Y0016753D01*
X0116980Y0015155D02*
X0106620Y0015155D01*
X0105485Y0013556D02*
X0118115Y0013556D01*
X0125485Y0013556D02*
X0135615Y0013556D01*
X0134480Y0015155D02*
X0126620Y0015155D01*
X0129156Y0016753D02*
X0134000Y0016753D01*
X0134000Y0018352D02*
X0130755Y0018352D01*
X0131400Y0019950D02*
X0134634Y0019950D01*
X0135987Y0021549D02*
X0131400Y0021549D01*
X0131400Y0023147D02*
X0136024Y0023147D01*
X0134649Y0024746D02*
X0131400Y0024746D01*
X0131400Y0026344D02*
X0134000Y0026344D01*
X0134000Y0027943D02*
X0131400Y0027943D01*
X0131400Y0029541D02*
X0134464Y0029541D01*
X0135578Y0031140D02*
X0131400Y0031140D01*
X0131400Y0032738D02*
X0136313Y0032738D01*
X0134703Y0034337D02*
X0131740Y0034337D01*
X0133339Y0035935D02*
X0133982Y0035935D01*
X0130596Y0039132D02*
X0127009Y0039132D01*
X0126897Y0039478D02*
X0126504Y0040249D01*
X0125995Y0040950D01*
X0125383Y0041562D01*
X0124683Y0042071D01*
X0123911Y0042464D01*
X0123088Y0042731D01*
X0122233Y0042867D01*
X0122000Y0042867D01*
X0122000Y0037567D01*
X0121600Y0037567D01*
X0121600Y0042867D01*
X0121367Y0042867D01*
X0120512Y0042731D01*
X0119689Y0042464D01*
X0118917Y0042071D01*
X0118217Y0041562D01*
X0117605Y0040950D01*
X0117096Y0040249D01*
X0116703Y0039478D01*
X0116435Y0038655D01*
X0116300Y0037800D01*
X0116300Y0037567D01*
X0121600Y0037567D01*
X0121600Y0037167D01*
X0116300Y0037167D01*
X0116300Y0036934D01*
X0116435Y0036079D01*
X0116472Y0035967D01*
X0116170Y0035967D01*
X0096400Y0055737D01*
X0095170Y0056967D01*
X0090170Y0056967D01*
X0073900Y0073237D01*
X0073900Y0077297D01*
X0085930Y0065267D01*
X0088239Y0065267D01*
X0087927Y0064955D01*
X0087231Y0063275D01*
X0087231Y0061458D01*
X0087927Y0059779D01*
X0089212Y0058494D01*
X0090891Y0057798D01*
X0092709Y0057798D01*
X0094388Y0058494D01*
X0095673Y0059779D01*
X0096368Y0061458D01*
X0096368Y0063275D01*
X0095673Y0064955D01*
X0095361Y0065267D01*
X0100930Y0065267D01*
X0107434Y0058763D01*
X0107231Y0058275D01*
X0107231Y0056458D01*
X0107927Y0054779D01*
X0109212Y0053494D01*
X0110891Y0052798D01*
X0112709Y0052798D01*
X0114388Y0053494D01*
X0115673Y0054779D01*
X0116368Y0056458D01*
X0116368Y0058275D01*
X0115673Y0059955D01*
X0114388Y0061240D01*
X0112709Y0061935D01*
X0110891Y0061935D01*
X0110403Y0061733D01*
X0103900Y0068237D01*
X0102670Y0069467D01*
X0095361Y0069467D01*
X0095673Y0069779D01*
X0096368Y0071458D01*
X0096368Y0073275D01*
X0095673Y0074955D01*
X0094388Y0076240D01*
X0092709Y0076935D01*
X0090891Y0076935D01*
X0089212Y0076240D01*
X0087927Y0074955D01*
X0087231Y0073275D01*
X0087231Y0071458D01*
X0087927Y0069779D01*
X0088239Y0069467D01*
X0087670Y0069467D01*
X0076400Y0080737D01*
X0076400Y0132297D01*
X0091562Y0117135D01*
X0091425Y0117135D01*
X0090683Y0117018D01*
X0089970Y0116786D01*
X0089301Y0116445D01*
X0088694Y0116004D01*
X0088163Y0115473D01*
X0087722Y0114866D01*
X0087381Y0114197D01*
X0087149Y0113483D01*
X0087031Y0112742D01*
X0087031Y0112551D01*
X0091616Y0112551D01*
X0091616Y0112182D01*
X0091984Y0112182D01*
X0091984Y0107598D01*
X0092175Y0107598D01*
X0092917Y0107716D01*
X0093630Y0107948D01*
X0094299Y0108288D01*
X0094906Y0108729D01*
X0095437Y0109260D01*
X0095878Y0109867D01*
X0096219Y0110536D01*
X0096451Y0111250D01*
X0096568Y0111991D01*
X0096568Y0112128D01*
X0097200Y0111497D01*
X0097200Y0078997D01*
X0098430Y0077767D01*
X0117434Y0058763D01*
X0117231Y0058275D01*
X0117231Y0056458D01*
X0117927Y0054779D01*
X0119212Y0053494D01*
X0120891Y0052798D01*
X0122709Y0052798D01*
X0124388Y0053494D01*
X0124700Y0053806D01*
X0124700Y0049467D01*
X0112670Y0049467D01*
X0106166Y0055970D01*
X0106368Y0056458D01*
X0106368Y0058275D01*
X0105673Y0059955D01*
X0104388Y0061240D01*
X0102709Y0061935D01*
X0100891Y0061935D01*
X0099212Y0061240D01*
X0097927Y0059955D01*
X0097231Y0058275D01*
X0097231Y0056458D01*
X0097927Y0054779D01*
X0099212Y0053494D01*
X0100891Y0052798D01*
X0102709Y0052798D01*
X0103197Y0053000D01*
X0109700Y0046497D01*
X0110930Y0045267D01*
X0133809Y0045267D01*
X0134761Y0044315D01*
X0135480Y0044017D01*
X0128430Y0036967D01*
X0127200Y0035737D01*
X0127200Y0020737D01*
X0126451Y0019988D01*
X0126293Y0020369D01*
X0124802Y0021860D01*
X0123578Y0022367D01*
X0124802Y0022874D01*
X0126293Y0024364D01*
X0127100Y0026312D01*
X0127100Y0028421D01*
X0126293Y0030369D01*
X0124802Y0031860D01*
X0123856Y0032252D01*
X0123911Y0032270D01*
X0124683Y0032663D01*
X0125383Y0033171D01*
X0125995Y0033784D01*
X0126504Y0034484D01*
X0126897Y0035255D01*
X0127165Y0036079D01*
X0127300Y0036934D01*
X0127300Y0037167D01*
X0122000Y0037167D01*
X0122000Y0037567D01*
X0127300Y0037567D01*
X0127300Y0037800D01*
X0127165Y0038655D01*
X0126897Y0039478D01*
X0126154Y0040731D02*
X0132194Y0040731D01*
X0133793Y0042329D02*
X0124175Y0042329D01*
X0122000Y0042329D02*
X0121600Y0042329D01*
X0121600Y0040731D02*
X0122000Y0040731D01*
X0122000Y0039132D02*
X0121600Y0039132D01*
X0121600Y0037534D02*
X0114603Y0037534D01*
X0113004Y0039132D02*
X0116591Y0039132D01*
X0117446Y0040731D02*
X0111406Y0040731D01*
X0109807Y0042329D02*
X0119425Y0042329D01*
X0122000Y0037534D02*
X0128997Y0037534D01*
X0127399Y0035935D02*
X0127118Y0035935D01*
X0127200Y0034337D02*
X0126397Y0034337D01*
X0127200Y0032738D02*
X0124787Y0032738D01*
X0125522Y0031140D02*
X0127200Y0031140D01*
X0127200Y0029541D02*
X0126636Y0029541D01*
X0127100Y0027943D02*
X0127200Y0027943D01*
X0127200Y0026344D02*
X0127100Y0026344D01*
X0127200Y0024746D02*
X0126451Y0024746D01*
X0127200Y0023147D02*
X0125076Y0023147D01*
X0125113Y0021549D02*
X0127200Y0021549D01*
X0141078Y0022367D02*
X0142302Y0022874D01*
X0143793Y0024364D01*
X0144600Y0026312D01*
X0144600Y0028421D01*
X0143793Y0030369D01*
X0142302Y0031860D01*
X0141356Y0032252D01*
X0141411Y0032270D01*
X0142183Y0032663D01*
X0142883Y0033171D01*
X0143495Y0033784D01*
X0144004Y0034484D01*
X0144397Y0035255D01*
X0144665Y0036079D01*
X0144800Y0036934D01*
X0144800Y0037167D01*
X0139500Y0037167D01*
X0139500Y0037567D01*
X0144800Y0037567D01*
X0144800Y0037800D01*
X0144665Y0038655D01*
X0144397Y0039478D01*
X0144004Y0040249D01*
X0143495Y0040950D01*
X0142883Y0041562D01*
X0142183Y0042071D01*
X0141411Y0042464D01*
X0140588Y0042731D01*
X0140196Y0042793D01*
X0150403Y0053000D01*
X0150891Y0052798D01*
X0152709Y0052798D01*
X0154388Y0053494D01*
X0155673Y0054779D01*
X0156368Y0056458D01*
X0156368Y0058275D01*
X0155673Y0059955D01*
X0154388Y0061240D01*
X0152709Y0061935D01*
X0150891Y0061935D01*
X0149212Y0061240D01*
X0147927Y0059955D01*
X0147231Y0058275D01*
X0147231Y0056458D01*
X0147434Y0055970D01*
X0140150Y0048686D01*
X0139852Y0049406D01*
X0138839Y0050419D01*
X0137516Y0050967D01*
X0136084Y0050967D01*
X0134761Y0050419D01*
X0133809Y0049467D01*
X0128900Y0049467D01*
X0128900Y0053579D01*
X0129301Y0053288D01*
X0129970Y0052948D01*
X0130683Y0052716D01*
X0131425Y0052598D01*
X0131616Y0052598D01*
X0131616Y0057182D01*
X0131984Y0057182D01*
X0131984Y0052598D01*
X0132175Y0052598D01*
X0132917Y0052716D01*
X0133630Y0052948D01*
X0134299Y0053288D01*
X0134906Y0053729D01*
X0135437Y0054260D01*
X0135878Y0054867D01*
X0136219Y0055536D01*
X0136451Y0056250D01*
X0136568Y0056991D01*
X0136568Y0057182D01*
X0131984Y0057182D01*
X0131984Y0057551D01*
X0131616Y0057551D01*
X0131616Y0062135D01*
X0131425Y0062135D01*
X0130683Y0062018D01*
X0129970Y0061786D01*
X0129301Y0061445D01*
X0128900Y0061154D01*
X0128900Y0067297D01*
X0137434Y0058763D01*
X0137231Y0058275D01*
X0137231Y0056458D01*
X0137927Y0054779D01*
X0139212Y0053494D01*
X0140891Y0052798D01*
X0142709Y0052798D01*
X0144388Y0053494D01*
X0145673Y0054779D01*
X0146368Y0056458D01*
X0146368Y0058275D01*
X0145673Y0059955D01*
X0144388Y0061240D01*
X0142709Y0061935D01*
X0140891Y0061935D01*
X0140403Y0061733D01*
X0116400Y0085737D01*
X0116400Y0098997D01*
X0118351Y0100948D01*
X0118200Y0100583D01*
X0118200Y0099151D01*
X0118748Y0097827D01*
X0119761Y0096815D01*
X0121084Y0096267D01*
X0122516Y0096267D01*
X0123839Y0096815D01*
X0124791Y0097767D01*
X0130170Y0097767D01*
X0131400Y0098997D01*
X0135403Y0103000D01*
X0135891Y0102798D01*
X0137709Y0102798D01*
X0139388Y0103494D01*
X0140673Y0104779D01*
X0141368Y0106458D01*
X0141368Y0108275D01*
X0140673Y0109955D01*
X0139388Y0111240D01*
X0137709Y0111935D01*
X0136838Y0111935D01*
X0138805Y0113901D01*
X0139212Y0113494D01*
X0140891Y0112798D01*
X0142709Y0112798D01*
X0144388Y0113494D01*
X0145673Y0114779D01*
X0146368Y0116458D01*
X0146368Y0118275D01*
X0146166Y0118763D01*
X0178670Y0151267D01*
X0180016Y0151267D01*
X0181184Y0151750D01*
X0180700Y0150583D01*
X0180700Y0149237D01*
X0153430Y0121967D01*
X0153197Y0121733D01*
X0152709Y0121935D01*
X0150891Y0121935D01*
X0149212Y0121240D01*
X0147927Y0119955D01*
X0147231Y0118275D01*
X0147231Y0116458D01*
X0147927Y0114779D01*
X0149212Y0113494D01*
X0150891Y0112798D01*
X0152200Y0112798D01*
X0152200Y0103237D01*
X0144930Y0095967D01*
X0143584Y0095967D01*
X0142261Y0095419D01*
X0141248Y0094406D01*
X0140700Y0093083D01*
X0140700Y0091651D01*
X0141248Y0090327D01*
X0142261Y0089315D01*
X0143584Y0088767D01*
X0145016Y0088767D01*
X0146339Y0089315D01*
X0147352Y0090327D01*
X0147900Y0091651D01*
X0147900Y0092997D01*
X0148450Y0093547D01*
X0148748Y0092827D01*
X0149761Y0091815D01*
X0151084Y0091267D01*
X0152516Y0091267D01*
X0153839Y0091815D01*
X0154852Y0092827D01*
X0155400Y0094151D01*
X0155400Y0095497D01*
X0155950Y0096047D01*
X0156248Y0095327D01*
X0157261Y0094315D01*
X0158584Y0093767D01*
X0160016Y0093767D01*
X0161339Y0094315D01*
X0162352Y0095327D01*
X0162900Y0096651D01*
X0162900Y0097997D01*
X0172670Y0107767D01*
X0173900Y0108997D01*
X0173900Y0113292D01*
X0174388Y0113494D01*
X0174700Y0113806D01*
X0174700Y0100358D01*
X0173748Y0099406D01*
X0173200Y0098083D01*
X0173200Y0096651D01*
X0173748Y0095327D01*
X0174761Y0094315D01*
X0176084Y0093767D01*
X0177516Y0093767D01*
X0178839Y0094315D01*
X0179852Y0095327D01*
X0180400Y0096651D01*
X0180400Y0098083D01*
X0179852Y0099406D01*
X0178900Y0100358D01*
X0178900Y0113806D01*
X0179212Y0113494D01*
X0180891Y0112798D01*
X0182709Y0112798D01*
X0184388Y0113494D01*
X0185673Y0114779D01*
X0186368Y0116458D01*
X0186368Y0118275D01*
X0186165Y0118767D01*
X0187435Y0118767D01*
X0187231Y0118275D01*
X0187231Y0116458D01*
X0187927Y0114779D01*
X0189212Y0113494D01*
X0190891Y0112798D01*
X0192709Y0112798D01*
X0194388Y0113494D01*
X0195673Y0114779D01*
X0196368Y0116458D01*
X0196368Y0118275D01*
X0195673Y0119955D01*
X0194388Y0121240D01*
X0192709Y0121935D01*
X0190891Y0121935D01*
X0190400Y0121732D01*
X0190400Y0122997D01*
X0193900Y0126497D01*
X0193900Y0173997D01*
X0196500Y0176597D01*
X0196500Y0176312D01*
X0197307Y0174364D01*
X0198798Y0172874D01*
X0199700Y0172500D01*
X0199700Y0141497D01*
X0220480Y0120717D01*
X0219761Y0120419D01*
X0218748Y0119406D01*
X0218200Y0118083D01*
X0218200Y0116737D01*
X0213197Y0111733D01*
X0212709Y0111935D01*
X0210891Y0111935D01*
X0209212Y0111240D01*
X0207927Y0109955D01*
X0207231Y0108275D01*
X0207231Y0106458D01*
X0207927Y0104779D01*
X0209212Y0103494D01*
X0210891Y0102798D01*
X0212709Y0102798D01*
X0214388Y0103494D01*
X0215673Y0104779D01*
X0216368Y0106458D01*
X0216368Y0108275D01*
X0216166Y0108763D01*
X0221170Y0113767D01*
X0222516Y0113767D01*
X0223839Y0114315D01*
X0224852Y0115327D01*
X0225150Y0116047D01*
X0227200Y0113997D01*
X0227200Y0103997D01*
X0242200Y0088997D01*
X0243430Y0087767D01*
X0270900Y0087767D01*
X0270900Y0085780D01*
X0271798Y0083611D01*
X0273443Y0081967D01*
X0243430Y0081967D01*
X0213430Y0051967D01*
X0210170Y0051967D01*
X0206166Y0055970D01*
X0206368Y0056458D01*
X0206368Y0058275D01*
X0205673Y0059955D01*
X0204388Y0061240D01*
X0202709Y0061935D01*
X0200891Y0061935D01*
X0199212Y0061240D01*
X0197927Y0059955D01*
X0197231Y0058275D01*
X0197231Y0056458D01*
X0197927Y0054779D01*
X0199212Y0053494D01*
X0200891Y0052798D01*
X0202709Y0052798D01*
X0203197Y0053000D01*
X0206730Y0049467D01*
X0186870Y0049467D01*
X0190403Y0053000D01*
X0190891Y0052798D01*
X0192709Y0052798D01*
X0194388Y0053494D01*
X0195673Y0054779D01*
X0196368Y0056458D01*
X0196368Y0058275D01*
X0195673Y0059955D01*
X0194388Y0061240D01*
X0192709Y0061935D01*
X0190891Y0061935D01*
X0189212Y0061240D01*
X0187927Y0059955D01*
X0187231Y0058275D01*
X0187231Y0056458D01*
X0187434Y0055970D01*
X0183900Y0052436D01*
X0183900Y0053292D01*
X0184388Y0053494D01*
X0185673Y0054779D01*
X0186368Y0056458D01*
X0186368Y0058275D01*
X0185673Y0059955D01*
X0184388Y0061240D01*
X0182709Y0061935D01*
X0180891Y0061935D01*
X0179212Y0061240D01*
X0177927Y0059955D01*
X0177231Y0058275D01*
X0177231Y0056458D01*
X0177927Y0054779D01*
X0179212Y0053494D01*
X0179700Y0053292D01*
X0179700Y0038431D01*
X0179665Y0038655D01*
X0179397Y0039478D01*
X0179004Y0040249D01*
X0178495Y0040950D01*
X0177883Y0041562D01*
X0177183Y0042071D01*
X0176411Y0042464D01*
X0175588Y0042731D01*
X0174733Y0042867D01*
X0174500Y0042867D01*
X0174500Y0037567D01*
X0174100Y0037567D01*
X0174100Y0042867D01*
X0173867Y0042867D01*
X0173012Y0042731D01*
X0172189Y0042464D01*
X0171417Y0042071D01*
X0170717Y0041562D01*
X0170105Y0040950D01*
X0169596Y0040249D01*
X0169203Y0039478D01*
X0168935Y0038655D01*
X0168900Y0038431D01*
X0168900Y0051497D01*
X0170403Y0053000D01*
X0170891Y0052798D01*
X0172709Y0052798D01*
X0174388Y0053494D01*
X0175673Y0054779D01*
X0176368Y0056458D01*
X0176368Y0058275D01*
X0176166Y0058763D01*
X0206170Y0088767D01*
X0207241Y0088767D01*
X0207149Y0088483D01*
X0207031Y0087742D01*
X0207031Y0087551D01*
X0211616Y0087551D01*
X0211616Y0092135D01*
X0211425Y0092135D01*
X0210683Y0092018D01*
X0210400Y0091926D01*
X0210400Y0093002D01*
X0210891Y0092798D01*
X0212709Y0092798D01*
X0214388Y0093494D01*
X0215673Y0094779D01*
X0216368Y0096458D01*
X0216368Y0098275D01*
X0215673Y0099955D01*
X0214388Y0101240D01*
X0212709Y0101935D01*
X0210891Y0101935D01*
X0209212Y0101240D01*
X0207927Y0099955D01*
X0207231Y0098275D01*
X0207231Y0096458D01*
X0207435Y0095967D01*
X0206084Y0095967D01*
X0204761Y0095419D01*
X0203748Y0094406D01*
X0203200Y0093083D01*
X0203200Y0091737D01*
X0173197Y0061733D01*
X0172709Y0061935D01*
X0170891Y0061935D01*
X0169212Y0061240D01*
X0167927Y0059955D01*
X0167231Y0058275D01*
X0167231Y0056458D01*
X0167434Y0055970D01*
X0165930Y0054467D01*
X0164700Y0053237D01*
X0164700Y0023237D01*
X0161451Y0019988D01*
X0161293Y0020369D01*
X0159802Y0021860D01*
X0158578Y0022367D01*
X0159802Y0022874D01*
X0161293Y0024364D01*
X0162100Y0026312D01*
X0162100Y0028421D01*
X0161293Y0030369D01*
X0159802Y0031860D01*
X0158856Y0032252D01*
X0158911Y0032270D01*
X0159683Y0032663D01*
X0160383Y0033171D01*
X0160995Y0033784D01*
X0161504Y0034484D01*
X0161897Y0035255D01*
X0162165Y0036079D01*
X0162300Y0036934D01*
X0162300Y0037167D01*
X0157000Y0037167D01*
X0157000Y0037567D01*
X0156600Y0037567D01*
X0156600Y0042867D01*
X0156367Y0042867D01*
X0155512Y0042731D01*
X0154689Y0042464D01*
X0153917Y0042071D01*
X0153217Y0041562D01*
X0152605Y0040950D01*
X0152096Y0040249D01*
X0151703Y0039478D01*
X0151435Y0038655D01*
X0151400Y0038431D01*
X0151400Y0043997D01*
X0160403Y0053000D01*
X0160891Y0052798D01*
X0162709Y0052798D01*
X0164388Y0053494D01*
X0165673Y0054779D01*
X0166368Y0056458D01*
X0166368Y0058275D01*
X0165673Y0059955D01*
X0164388Y0061240D01*
X0162709Y0061935D01*
X0160891Y0061935D01*
X0159212Y0061240D01*
X0157927Y0059955D01*
X0157231Y0058275D01*
X0157231Y0056458D01*
X0157434Y0055970D01*
X0148430Y0046967D01*
X0147200Y0045737D01*
X0147200Y0023237D01*
X0143951Y0019988D01*
X0143793Y0020369D01*
X0142302Y0021860D01*
X0141078Y0022367D01*
X0142576Y0023147D02*
X0147111Y0023147D01*
X0147200Y0024746D02*
X0143951Y0024746D01*
X0144600Y0026344D02*
X0147200Y0026344D01*
X0147200Y0027943D02*
X0144600Y0027943D01*
X0144136Y0029541D02*
X0147200Y0029541D01*
X0147200Y0031140D02*
X0143022Y0031140D01*
X0142287Y0032738D02*
X0147200Y0032738D01*
X0147200Y0034337D02*
X0143897Y0034337D01*
X0144618Y0035935D02*
X0147200Y0035935D01*
X0147200Y0037534D02*
X0139500Y0037534D01*
X0143654Y0040731D02*
X0147200Y0040731D01*
X0147200Y0042329D02*
X0141675Y0042329D01*
X0141331Y0043928D02*
X0147200Y0043928D01*
X0147200Y0045526D02*
X0142930Y0045526D01*
X0144528Y0047125D02*
X0148588Y0047125D01*
X0150187Y0048723D02*
X0146127Y0048723D01*
X0147725Y0050322D02*
X0151786Y0050322D01*
X0153384Y0051921D02*
X0149324Y0051921D01*
X0146581Y0055118D02*
X0145813Y0055118D01*
X0146368Y0056716D02*
X0147231Y0056716D01*
X0147248Y0058315D02*
X0146352Y0058315D01*
X0145690Y0059913D02*
X0147910Y0059913D01*
X0149869Y0061512D02*
X0143731Y0061512D01*
X0139026Y0063110D02*
X0174574Y0063110D01*
X0176172Y0064709D02*
X0137428Y0064709D01*
X0135829Y0066307D02*
X0177771Y0066307D01*
X0179369Y0067906D02*
X0134231Y0067906D01*
X0134761Y0069315D02*
X0136084Y0068767D01*
X0137516Y0068767D01*
X0138839Y0069315D01*
X0139852Y0070327D01*
X0140400Y0071651D01*
X0140400Y0073083D01*
X0139852Y0074406D01*
X0138900Y0075358D01*
X0138900Y0096497D01*
X0145403Y0103000D01*
X0145891Y0102798D01*
X0147709Y0102798D01*
X0149388Y0103494D01*
X0150673Y0104779D01*
X0151368Y0106458D01*
X0151368Y0108275D01*
X0150673Y0109955D01*
X0149388Y0111240D01*
X0147709Y0111935D01*
X0145891Y0111935D01*
X0144212Y0111240D01*
X0142927Y0109955D01*
X0142231Y0108275D01*
X0142231Y0106458D01*
X0142434Y0105970D01*
X0135930Y0099467D01*
X0134700Y0098237D01*
X0134700Y0075358D01*
X0133748Y0074406D01*
X0133200Y0073083D01*
X0133200Y0071651D01*
X0133748Y0070327D01*
X0134761Y0069315D01*
X0134571Y0069504D02*
X0132632Y0069504D01*
X0133427Y0071103D02*
X0131034Y0071103D01*
X0129435Y0072701D02*
X0133200Y0072701D01*
X0133704Y0074300D02*
X0127837Y0074300D01*
X0126238Y0075898D02*
X0134700Y0075898D01*
X0134700Y0077497D02*
X0124640Y0077497D01*
X0123041Y0079095D02*
X0134700Y0079095D01*
X0134700Y0080694D02*
X0121443Y0080694D01*
X0119844Y0082292D02*
X0134700Y0082292D01*
X0134700Y0083891D02*
X0118246Y0083891D01*
X0116647Y0085489D02*
X0134700Y0085489D01*
X0134700Y0087088D02*
X0116400Y0087088D01*
X0116400Y0088686D02*
X0134700Y0088686D01*
X0134700Y0090285D02*
X0116400Y0090285D01*
X0116400Y0091883D02*
X0134700Y0091883D01*
X0134700Y0093482D02*
X0116400Y0093482D01*
X0116400Y0095080D02*
X0134700Y0095080D01*
X0134700Y0096679D02*
X0123511Y0096679D01*
X0120089Y0096679D02*
X0116400Y0096679D01*
X0116400Y0098277D02*
X0118562Y0098277D01*
X0118200Y0099876D02*
X0117279Y0099876D01*
X0112938Y0101474D02*
X0108900Y0101474D01*
X0108900Y0099876D02*
X0112200Y0099876D01*
X0112200Y0098277D02*
X0108900Y0098277D01*
X0108900Y0096679D02*
X0112200Y0096679D01*
X0112200Y0095080D02*
X0108900Y0095080D01*
X0108900Y0093482D02*
X0112200Y0093482D01*
X0112200Y0091883D02*
X0108900Y0091883D01*
X0108900Y0090285D02*
X0112200Y0090285D01*
X0112200Y0088686D02*
X0108900Y0088686D01*
X0110049Y0087088D02*
X0112200Y0087088D01*
X0112200Y0085489D02*
X0111647Y0085489D01*
X0100299Y0075898D02*
X0094729Y0075898D01*
X0095944Y0074300D02*
X0101897Y0074300D01*
X0103496Y0072701D02*
X0096368Y0072701D01*
X0096221Y0071103D02*
X0105094Y0071103D01*
X0106693Y0069504D02*
X0095398Y0069504D01*
X0095775Y0064709D02*
X0101488Y0064709D01*
X0103087Y0063110D02*
X0096368Y0063110D01*
X0096368Y0061512D02*
X0099869Y0061512D01*
X0097910Y0059913D02*
X0095729Y0059913D01*
X0097248Y0058315D02*
X0093955Y0058315D01*
X0095420Y0056716D02*
X0097231Y0056716D01*
X0097019Y0055118D02*
X0097787Y0055118D01*
X0098617Y0053519D02*
X0099187Y0053519D01*
X0100216Y0051921D02*
X0104276Y0051921D01*
X0105875Y0050322D02*
X0101814Y0050322D01*
X0103413Y0048723D02*
X0107473Y0048723D01*
X0109072Y0047125D02*
X0105012Y0047125D01*
X0106610Y0045526D02*
X0110670Y0045526D01*
X0108209Y0043928D02*
X0135391Y0043928D01*
X0140135Y0048723D02*
X0140187Y0048723D01*
X0138936Y0050322D02*
X0141786Y0050322D01*
X0143384Y0051921D02*
X0128900Y0051921D01*
X0128900Y0053519D02*
X0128983Y0053519D01*
X0131616Y0053519D02*
X0131984Y0053519D01*
X0131984Y0055118D02*
X0131616Y0055118D01*
X0131616Y0056716D02*
X0131984Y0056716D01*
X0131984Y0057551D02*
X0136568Y0057551D01*
X0136568Y0057742D01*
X0136451Y0058483D01*
X0136219Y0059197D01*
X0135878Y0059866D01*
X0135437Y0060473D01*
X0134906Y0061004D01*
X0134299Y0061445D01*
X0133630Y0061786D01*
X0132917Y0062018D01*
X0132175Y0062135D01*
X0131984Y0062135D01*
X0131984Y0057551D01*
X0131984Y0058315D02*
X0131616Y0058315D01*
X0131616Y0059913D02*
X0131984Y0059913D01*
X0131984Y0061512D02*
X0131616Y0061512D01*
X0133087Y0063110D02*
X0128900Y0063110D01*
X0128900Y0061512D02*
X0129431Y0061512D01*
X0128900Y0064709D02*
X0131488Y0064709D01*
X0129890Y0066307D02*
X0128900Y0066307D01*
X0134169Y0061512D02*
X0134685Y0061512D01*
X0135844Y0059913D02*
X0136284Y0059913D01*
X0136478Y0058315D02*
X0137248Y0058315D01*
X0137231Y0056716D02*
X0136525Y0056716D01*
X0136006Y0055118D02*
X0137787Y0055118D01*
X0139187Y0053519D02*
X0134617Y0053519D01*
X0134664Y0050322D02*
X0128900Y0050322D01*
X0124700Y0050322D02*
X0111814Y0050322D01*
X0110216Y0051921D02*
X0124700Y0051921D01*
X0124700Y0053519D02*
X0124413Y0053519D01*
X0119187Y0053519D02*
X0114413Y0053519D01*
X0115813Y0055118D02*
X0117787Y0055118D01*
X0117231Y0056716D02*
X0116368Y0056716D01*
X0116352Y0058315D02*
X0117248Y0058315D01*
X0116284Y0059913D02*
X0115690Y0059913D01*
X0114685Y0061512D02*
X0113731Y0061512D01*
X0113087Y0063110D02*
X0109026Y0063110D01*
X0107428Y0064709D02*
X0111488Y0064709D01*
X0109890Y0066307D02*
X0105829Y0066307D01*
X0104231Y0067906D02*
X0108291Y0067906D01*
X0104685Y0061512D02*
X0103731Y0061512D01*
X0105690Y0059913D02*
X0106284Y0059913D01*
X0106352Y0058315D02*
X0107248Y0058315D01*
X0107231Y0056716D02*
X0106368Y0056716D01*
X0107019Y0055118D02*
X0107787Y0055118D01*
X0108617Y0053519D02*
X0109187Y0053519D01*
X0100670Y0045526D02*
X0025430Y0045526D01*
X0023831Y0043928D02*
X0102269Y0043928D01*
X0102000Y0042329D02*
X0101600Y0042329D01*
X0101600Y0040731D02*
X0102000Y0040731D01*
X0102000Y0039132D02*
X0101600Y0039132D01*
X0097446Y0040731D02*
X0020634Y0040731D01*
X0022233Y0042329D02*
X0099425Y0042329D01*
X0099072Y0047125D02*
X0027028Y0047125D01*
X0028627Y0048723D02*
X0097473Y0048723D01*
X0095875Y0050322D02*
X0030225Y0050322D01*
X0031824Y0051921D02*
X0094276Y0051921D01*
X0087678Y0053519D02*
X0033422Y0053519D01*
X0035021Y0055118D02*
X0086079Y0055118D01*
X0084481Y0056716D02*
X0036619Y0056716D01*
X0038218Y0058315D02*
X0058357Y0058315D01*
X0058798Y0057874D02*
X0057307Y0059364D01*
X0056500Y0061312D01*
X0056500Y0063421D01*
X0057307Y0065369D01*
X0058798Y0066860D01*
X0060022Y0067367D01*
X0058798Y0067874D01*
X0057307Y0069364D01*
X0056500Y0071312D01*
X0056500Y0073421D01*
X0057307Y0075369D01*
X0058798Y0076860D01*
X0060022Y0077367D01*
X0058798Y0077874D01*
X0057307Y0079364D01*
X0056500Y0081312D01*
X0056500Y0083421D01*
X0057307Y0085369D01*
X0058798Y0086860D01*
X0060022Y0087367D01*
X0058798Y0087874D01*
X0057307Y0089364D01*
X0056500Y0091312D01*
X0056500Y0093421D01*
X0057307Y0095369D01*
X0058798Y0096860D01*
X0060022Y0097367D01*
X0058798Y0097874D01*
X0057307Y0099364D01*
X0056500Y0101312D01*
X0056500Y0103421D01*
X0057307Y0105369D01*
X0058798Y0106860D01*
X0059744Y0107252D01*
X0059689Y0107270D01*
X0058917Y0107663D01*
X0058217Y0108171D01*
X0057605Y0108784D01*
X0057096Y0109484D01*
X0056703Y0110255D01*
X0056435Y0111079D01*
X0056300Y0111934D01*
X0056300Y0112167D01*
X0061600Y0112167D01*
X0061600Y0112567D01*
X0061600Y0117867D01*
X0061367Y0117867D01*
X0060512Y0117731D01*
X0059689Y0117464D01*
X0058917Y0117071D01*
X0058217Y0116562D01*
X0057605Y0115950D01*
X0057096Y0115249D01*
X0056703Y0114478D01*
X0056435Y0113655D01*
X0056300Y0112800D01*
X0056300Y0112567D01*
X0061600Y0112567D01*
X0062000Y0112567D01*
X0062000Y0117867D01*
X0062233Y0117867D01*
X0063088Y0117731D01*
X0063911Y0117464D01*
X0064683Y0117071D01*
X0065383Y0116562D01*
X0065995Y0115950D01*
X0066504Y0115249D01*
X0066897Y0114478D01*
X0067165Y0113655D01*
X0067300Y0112800D01*
X0067300Y0112567D01*
X0062000Y0112567D01*
X0062000Y0112167D01*
X0067300Y0112167D01*
X0067300Y0111934D01*
X0067165Y0111079D01*
X0066897Y0110255D01*
X0066504Y0109484D01*
X0065995Y0108784D01*
X0065383Y0108171D01*
X0064683Y0107663D01*
X0063911Y0107270D01*
X0063856Y0107252D01*
X0064802Y0106860D01*
X0066293Y0105369D01*
X0067100Y0103421D01*
X0067100Y0101312D01*
X0066293Y0099364D01*
X0064802Y0097874D01*
X0063578Y0097367D01*
X0064802Y0096860D01*
X0066293Y0095369D01*
X0067100Y0093421D01*
X0067100Y0091312D01*
X0066293Y0089364D01*
X0064802Y0087874D01*
X0063578Y0087367D01*
X0064802Y0086860D01*
X0066293Y0085369D01*
X0067100Y0083421D01*
X0067100Y0081312D01*
X0066293Y0079364D01*
X0064802Y0077874D01*
X0063578Y0077367D01*
X0064802Y0076860D01*
X0066293Y0075369D01*
X0067100Y0073421D01*
X0067100Y0071312D01*
X0066293Y0069364D01*
X0064802Y0067874D01*
X0063578Y0067367D01*
X0064802Y0066860D01*
X0066293Y0065369D01*
X0067100Y0063421D01*
X0067100Y0061312D01*
X0066293Y0059364D01*
X0064802Y0057874D01*
X0062854Y0057067D01*
X0060746Y0057067D01*
X0058798Y0057874D01*
X0057080Y0059913D02*
X0039816Y0059913D01*
X0041415Y0061512D02*
X0056500Y0061512D01*
X0056500Y0063110D02*
X0043013Y0063110D01*
X0044612Y0064709D02*
X0057033Y0064709D01*
X0058245Y0066307D02*
X0046210Y0066307D01*
X0047809Y0067906D02*
X0058766Y0067906D01*
X0057249Y0069504D02*
X0049407Y0069504D01*
X0051006Y0071103D02*
X0056587Y0071103D01*
X0056500Y0072701D02*
X0051400Y0072701D01*
X0051400Y0074300D02*
X0056864Y0074300D01*
X0057836Y0075898D02*
X0051400Y0075898D01*
X0051400Y0077497D02*
X0059708Y0077497D01*
X0057576Y0079095D02*
X0051400Y0079095D01*
X0051400Y0080694D02*
X0056756Y0080694D01*
X0056500Y0082292D02*
X0051400Y0082292D01*
X0051400Y0083891D02*
X0056695Y0083891D01*
X0057427Y0085489D02*
X0051400Y0085489D01*
X0051400Y0087088D02*
X0059348Y0087088D01*
X0057985Y0088686D02*
X0051400Y0088686D01*
X0051400Y0090285D02*
X0056926Y0090285D01*
X0056500Y0091883D02*
X0051408Y0091883D01*
X0052623Y0093482D02*
X0056525Y0093482D01*
X0057187Y0095080D02*
X0052900Y0095080D01*
X0052446Y0096679D02*
X0058617Y0096679D01*
X0058394Y0098277D02*
X0050473Y0098277D01*
X0048127Y0098277D02*
X0045885Y0098277D01*
X0043601Y0099876D02*
X0057095Y0099876D01*
X0056500Y0101474D02*
X0045903Y0101474D01*
X0046794Y0103073D02*
X0056500Y0103073D01*
X0057018Y0104671D02*
X0047100Y0104671D01*
X0046955Y0106270D02*
X0058208Y0106270D01*
X0058634Y0107868D02*
X0046293Y0107868D01*
X0044544Y0109467D02*
X0057108Y0109467D01*
X0056440Y0111065D02*
X0045494Y0111065D01*
X0046624Y0112664D02*
X0056300Y0112664D01*
X0056633Y0114262D02*
X0047100Y0114262D01*
X0047100Y0115861D02*
X0057540Y0115861D01*
X0059680Y0117459D02*
X0046463Y0117459D01*
X0045104Y0119058D02*
X0064639Y0119058D01*
X0063920Y0117459D02*
X0066237Y0117459D01*
X0066060Y0115861D02*
X0067836Y0115861D01*
X0066967Y0114262D02*
X0069434Y0114262D01*
X0069700Y0112664D02*
X0067300Y0112664D01*
X0067160Y0111065D02*
X0069700Y0111065D01*
X0069700Y0109467D02*
X0066492Y0109467D01*
X0064966Y0107868D02*
X0069700Y0107868D01*
X0069700Y0106270D02*
X0065392Y0106270D01*
X0066582Y0104671D02*
X0069700Y0104671D01*
X0069700Y0103073D02*
X0067100Y0103073D01*
X0067100Y0101474D02*
X0069700Y0101474D01*
X0069700Y0099876D02*
X0066505Y0099876D01*
X0065206Y0098277D02*
X0069700Y0098277D01*
X0069700Y0096679D02*
X0064983Y0096679D01*
X0066413Y0095080D02*
X0069700Y0095080D01*
X0069700Y0093482D02*
X0067075Y0093482D01*
X0067100Y0091883D02*
X0069700Y0091883D01*
X0069700Y0090285D02*
X0066674Y0090285D01*
X0065615Y0088686D02*
X0069700Y0088686D01*
X0069700Y0087088D02*
X0064252Y0087088D01*
X0066173Y0085489D02*
X0069700Y0085489D01*
X0069700Y0083891D02*
X0066905Y0083891D01*
X0067100Y0082292D02*
X0069700Y0082292D01*
X0069700Y0080694D02*
X0066844Y0080694D01*
X0066024Y0079095D02*
X0069700Y0079095D01*
X0069700Y0077497D02*
X0063892Y0077497D01*
X0065764Y0075898D02*
X0069700Y0075898D01*
X0069700Y0074300D02*
X0066736Y0074300D01*
X0067100Y0072701D02*
X0069700Y0072701D01*
X0070094Y0071103D02*
X0067013Y0071103D01*
X0066351Y0069504D02*
X0071693Y0069504D01*
X0073291Y0067906D02*
X0064834Y0067906D01*
X0065355Y0066307D02*
X0074890Y0066307D01*
X0076488Y0064709D02*
X0066567Y0064709D01*
X0067100Y0063110D02*
X0078087Y0063110D01*
X0079685Y0061512D02*
X0067100Y0061512D01*
X0066520Y0059913D02*
X0081284Y0059913D01*
X0082882Y0058315D02*
X0065243Y0058315D01*
X0079231Y0067906D02*
X0083291Y0067906D01*
X0081693Y0069504D02*
X0077632Y0069504D01*
X0076034Y0071103D02*
X0080094Y0071103D01*
X0078496Y0072701D02*
X0074435Y0072701D01*
X0073900Y0074300D02*
X0076897Y0074300D01*
X0075299Y0075898D02*
X0073900Y0075898D01*
X0078041Y0079095D02*
X0088611Y0079095D01*
X0089212Y0078494D02*
X0090891Y0077798D01*
X0092709Y0077798D01*
X0094388Y0078494D01*
X0095673Y0079779D01*
X0096368Y0081458D01*
X0096368Y0083275D01*
X0095673Y0084955D01*
X0094388Y0086240D01*
X0092709Y0086935D01*
X0090891Y0086935D01*
X0089212Y0086240D01*
X0087927Y0084955D01*
X0087231Y0083275D01*
X0087231Y0081458D01*
X0087927Y0079779D01*
X0089212Y0078494D01*
X0088871Y0075898D02*
X0081238Y0075898D01*
X0079640Y0077497D02*
X0098700Y0077497D01*
X0097200Y0079095D02*
X0094989Y0079095D01*
X0096052Y0080694D02*
X0097200Y0080694D01*
X0097200Y0082292D02*
X0096368Y0082292D01*
X0096114Y0083891D02*
X0097200Y0083891D01*
X0097200Y0085489D02*
X0095138Y0085489D01*
X0097200Y0087088D02*
X0076400Y0087088D01*
X0076400Y0088686D02*
X0089020Y0088686D01*
X0089212Y0088494D02*
X0090891Y0087798D01*
X0092709Y0087798D01*
X0094388Y0088494D01*
X0095673Y0089779D01*
X0096368Y0091458D01*
X0096368Y0093275D01*
X0095673Y0094955D01*
X0094388Y0096240D01*
X0092709Y0096935D01*
X0090891Y0096935D01*
X0089212Y0096240D01*
X0087927Y0094955D01*
X0087231Y0093275D01*
X0087231Y0091458D01*
X0087927Y0089779D01*
X0089212Y0088494D01*
X0087717Y0090285D02*
X0076400Y0090285D01*
X0076400Y0091883D02*
X0087231Y0091883D01*
X0087317Y0093482D02*
X0076400Y0093482D01*
X0076400Y0095080D02*
X0088053Y0095080D01*
X0090272Y0096679D02*
X0076400Y0096679D01*
X0076400Y0098277D02*
X0089734Y0098277D01*
X0089212Y0098494D02*
X0090891Y0097798D01*
X0092709Y0097798D01*
X0094388Y0098494D01*
X0095673Y0099779D01*
X0096368Y0101458D01*
X0096368Y0103275D01*
X0095673Y0104955D01*
X0094388Y0106240D01*
X0092709Y0106935D01*
X0090891Y0106935D01*
X0089212Y0106240D01*
X0087927Y0104955D01*
X0087231Y0103275D01*
X0087231Y0101458D01*
X0087927Y0099779D01*
X0089212Y0098494D01*
X0087887Y0099876D02*
X0076400Y0099876D01*
X0076400Y0101474D02*
X0087231Y0101474D01*
X0087231Y0103073D02*
X0076400Y0103073D01*
X0076400Y0104671D02*
X0087810Y0104671D01*
X0089285Y0106270D02*
X0076400Y0106270D01*
X0076400Y0107868D02*
X0090213Y0107868D01*
X0089970Y0107948D02*
X0090683Y0107716D01*
X0091425Y0107598D01*
X0091616Y0107598D01*
X0091616Y0112182D01*
X0087031Y0112182D01*
X0087031Y0111991D01*
X0087149Y0111250D01*
X0087381Y0110536D01*
X0087722Y0109867D01*
X0088163Y0109260D01*
X0088694Y0108729D01*
X0089301Y0108288D01*
X0089970Y0107948D01*
X0091616Y0107868D02*
X0091984Y0107868D01*
X0093387Y0107868D02*
X0097200Y0107868D01*
X0097200Y0106270D02*
X0094315Y0106270D01*
X0095790Y0104671D02*
X0097200Y0104671D01*
X0097200Y0103073D02*
X0096368Y0103073D01*
X0096368Y0101474D02*
X0097200Y0101474D01*
X0097200Y0099876D02*
X0095713Y0099876D01*
X0097200Y0098277D02*
X0093866Y0098277D01*
X0093328Y0096679D02*
X0097200Y0096679D01*
X0097200Y0095080D02*
X0095547Y0095080D01*
X0096283Y0093482D02*
X0097200Y0093482D01*
X0097200Y0091883D02*
X0096368Y0091883D01*
X0095883Y0090285D02*
X0097200Y0090285D01*
X0097200Y0088686D02*
X0094580Y0088686D01*
X0088462Y0085489D02*
X0076400Y0085489D01*
X0076400Y0083891D02*
X0087486Y0083891D01*
X0087231Y0082292D02*
X0076400Y0082292D01*
X0076443Y0080694D02*
X0087548Y0080694D01*
X0087656Y0074300D02*
X0082837Y0074300D01*
X0084435Y0072701D02*
X0087231Y0072701D01*
X0087379Y0071103D02*
X0086034Y0071103D01*
X0087632Y0069504D02*
X0088202Y0069504D01*
X0084890Y0066307D02*
X0080829Y0066307D01*
X0082428Y0064709D02*
X0087825Y0064709D01*
X0087231Y0063110D02*
X0084026Y0063110D01*
X0085625Y0061512D02*
X0087231Y0061512D01*
X0087223Y0059913D02*
X0087871Y0059913D01*
X0088822Y0058315D02*
X0089645Y0058315D01*
X0107009Y0039132D02*
X0107064Y0039132D01*
X0097149Y0024746D02*
X0006600Y0024746D01*
X0006600Y0023147D02*
X0098524Y0023147D01*
X0098487Y0021549D02*
X0006600Y0021549D01*
X0006600Y0019950D02*
X0097134Y0019950D01*
X0096500Y0018352D02*
X0006600Y0018352D01*
X0006600Y0016753D02*
X0096500Y0016753D01*
X0096980Y0015155D02*
X0006600Y0015155D01*
X0006600Y0013556D02*
X0098115Y0013556D01*
X0078728Y0027943D02*
X0074872Y0027943D01*
X0076366Y0029541D02*
X0077234Y0029541D01*
X0076879Y0034337D02*
X0076721Y0034337D01*
X0075727Y0035935D02*
X0077873Y0035935D01*
X0067873Y0035935D02*
X0065727Y0035935D01*
X0066721Y0034337D02*
X0066879Y0034337D01*
X0067234Y0029541D02*
X0066366Y0029541D01*
X0064872Y0027943D02*
X0068728Y0027943D01*
X0058728Y0027943D02*
X0054872Y0027943D01*
X0056366Y0029541D02*
X0057234Y0029541D01*
X0056879Y0034337D02*
X0056721Y0034337D01*
X0055727Y0035935D02*
X0057873Y0035935D01*
X0047873Y0035935D02*
X0045727Y0035935D01*
X0046721Y0034337D02*
X0046879Y0034337D01*
X0047234Y0029541D02*
X0046366Y0029541D01*
X0044872Y0027943D02*
X0048728Y0027943D01*
X0038728Y0027943D02*
X0034872Y0027943D01*
X0036366Y0029541D02*
X0037234Y0029541D01*
X0036879Y0034337D02*
X0036721Y0034337D01*
X0035727Y0035935D02*
X0037873Y0035935D01*
X0021800Y0048723D02*
X0021800Y0048723D01*
X0021800Y0050322D02*
X0021800Y0050322D01*
X0021800Y0051921D02*
X0021800Y0051921D01*
X0021800Y0052367D02*
X0021800Y0052367D01*
X0021800Y0053519D02*
X0021800Y0053519D01*
X0021800Y0055118D02*
X0021800Y0055118D01*
X0021800Y0056716D02*
X0021800Y0056716D01*
X0022466Y0056716D02*
X0030680Y0056716D01*
X0032278Y0058315D02*
X0006600Y0058315D01*
X0006600Y0059913D02*
X0033877Y0059913D01*
X0035475Y0061512D02*
X0006600Y0061512D01*
X0006600Y0063110D02*
X0037074Y0063110D01*
X0038672Y0064709D02*
X0006600Y0064709D01*
X0006600Y0066307D02*
X0040271Y0066307D01*
X0041869Y0067906D02*
X0006600Y0067906D01*
X0006600Y0069504D02*
X0043468Y0069504D01*
X0045066Y0071103D02*
X0006600Y0071103D01*
X0006600Y0072701D02*
X0046665Y0072701D01*
X0047200Y0074300D02*
X0024956Y0074300D01*
X0025156Y0074500D02*
X0025563Y0075061D01*
X0025878Y0075678D01*
X0026092Y0076336D01*
X0026200Y0077020D01*
X0026200Y0077367D01*
X0026200Y0077713D01*
X0026092Y0078397D01*
X0025878Y0079056D01*
X0025563Y0079673D01*
X0025156Y0080233D01*
X0024666Y0080723D01*
X0024106Y0081130D01*
X0023489Y0081444D01*
X0022830Y0081658D01*
X0022146Y0081767D01*
X0021800Y0081767D01*
X0021800Y0077367D01*
X0021800Y0081767D01*
X0021454Y0081767D01*
X0020770Y0081658D01*
X0020111Y0081444D01*
X0019494Y0081130D01*
X0018934Y0080723D01*
X0018444Y0080233D01*
X0018037Y0079673D01*
X0017722Y0079056D01*
X0017508Y0078397D01*
X0017400Y0077713D01*
X0017400Y0077367D01*
X0021800Y0077367D01*
X0021800Y0077367D01*
X0026200Y0077367D01*
X0021800Y0077367D01*
X0021800Y0077367D01*
X0021800Y0077367D01*
X0017400Y0077367D01*
X0017400Y0077020D01*
X0017508Y0076336D01*
X0017722Y0075678D01*
X0018037Y0075061D01*
X0018444Y0074500D01*
X0018934Y0074011D01*
X0019494Y0073603D01*
X0020111Y0073289D01*
X0020770Y0073075D01*
X0021454Y0072967D01*
X0021800Y0072967D01*
X0022146Y0072967D01*
X0022830Y0073075D01*
X0023489Y0073289D01*
X0024106Y0073603D01*
X0024666Y0074011D01*
X0025156Y0074500D01*
X0025949Y0075898D02*
X0047200Y0075898D01*
X0047200Y0077497D02*
X0026200Y0077497D01*
X0025857Y0079095D02*
X0047200Y0079095D01*
X0047200Y0080694D02*
X0024695Y0080694D01*
X0021800Y0080694D02*
X0021800Y0080694D01*
X0021800Y0079095D02*
X0021800Y0079095D01*
X0021800Y0077497D02*
X0021800Y0077497D01*
X0021800Y0077367D02*
X0021800Y0072967D01*
X0021800Y0077367D01*
X0021800Y0077367D01*
X0021800Y0075898D02*
X0021800Y0075898D01*
X0021800Y0074300D02*
X0021800Y0074300D01*
X0018644Y0074300D02*
X0014673Y0074300D01*
X0014179Y0073806D02*
X0015361Y0074988D01*
X0016000Y0076531D01*
X0016000Y0078202D01*
X0015361Y0079746D01*
X0014179Y0080927D01*
X0012635Y0081567D01*
X0010965Y0081567D01*
X0009421Y0080927D01*
X0008239Y0079746D01*
X0007600Y0078202D01*
X0007600Y0076531D01*
X0008239Y0074988D01*
X0009421Y0073806D01*
X0010965Y0073167D01*
X0012635Y0073167D01*
X0014179Y0073806D01*
X0015738Y0075898D02*
X0017651Y0075898D01*
X0017400Y0077497D02*
X0016000Y0077497D01*
X0015630Y0079095D02*
X0017743Y0079095D01*
X0018905Y0080694D02*
X0014413Y0080694D01*
X0009187Y0080694D02*
X0006600Y0080694D01*
X0006600Y0082292D02*
X0047200Y0082292D01*
X0047200Y0083891D02*
X0006600Y0083891D01*
X0006600Y0085489D02*
X0047200Y0085489D01*
X0047200Y0087088D02*
X0006600Y0087088D01*
X0006600Y0088686D02*
X0047200Y0088686D01*
X0047200Y0090285D02*
X0044588Y0090285D01*
X0046301Y0091883D02*
X0047192Y0091883D01*
X0039012Y0090285D02*
X0014588Y0090285D01*
X0016301Y0091883D02*
X0037299Y0091883D01*
X0036637Y0093482D02*
X0016963Y0093482D01*
X0017100Y0095080D02*
X0036500Y0095080D01*
X0036814Y0096679D02*
X0016786Y0096679D01*
X0015885Y0098277D02*
X0037715Y0098277D01*
X0039999Y0099876D02*
X0013601Y0099876D01*
X0015903Y0101474D02*
X0037697Y0101474D01*
X0036806Y0103073D02*
X0016794Y0103073D01*
X0017100Y0104671D02*
X0036500Y0104671D01*
X0036645Y0106270D02*
X0016955Y0106270D01*
X0016293Y0107868D02*
X0037307Y0107868D01*
X0039056Y0109467D02*
X0014544Y0109467D01*
X0015494Y0111065D02*
X0038106Y0111065D01*
X0036976Y0112664D02*
X0016624Y0112664D01*
X0017100Y0114262D02*
X0036500Y0114262D01*
X0036500Y0115861D02*
X0017100Y0115861D01*
X0016463Y0117459D02*
X0037137Y0117459D01*
X0038496Y0119058D02*
X0015104Y0119058D01*
X0015054Y0123167D02*
X0017002Y0123974D01*
X0018493Y0125464D01*
X0019300Y0127412D01*
X0019300Y0129521D01*
X0018493Y0131469D01*
X0017002Y0132960D01*
X0015054Y0133767D01*
X0012946Y0133767D01*
X0010998Y0132960D01*
X0009507Y0131469D01*
X0008700Y0129521D01*
X0008700Y0127412D01*
X0009507Y0125464D01*
X0010998Y0123974D01*
X0012946Y0123167D01*
X0015054Y0123167D01*
X0016712Y0123854D02*
X0036888Y0123854D01*
X0036598Y0123974D02*
X0038546Y0123167D01*
X0040654Y0123167D01*
X0042602Y0123974D01*
X0044093Y0125464D01*
X0044900Y0127412D01*
X0044900Y0129521D01*
X0044093Y0131469D01*
X0042602Y0132960D01*
X0040654Y0133767D01*
X0038546Y0133767D01*
X0036598Y0132960D01*
X0035107Y0131469D01*
X0034300Y0129521D01*
X0034300Y0127412D01*
X0035107Y0125464D01*
X0036598Y0123974D01*
X0035119Y0125452D02*
X0018481Y0125452D01*
X0019150Y0127051D02*
X0034450Y0127051D01*
X0034300Y0128649D02*
X0019300Y0128649D01*
X0018999Y0130248D02*
X0034601Y0130248D01*
X0035484Y0131846D02*
X0018116Y0131846D01*
X0015832Y0133445D02*
X0037768Y0133445D01*
X0041432Y0133445D02*
X0050252Y0133445D01*
X0048654Y0135043D02*
X0006600Y0135043D01*
X0006600Y0133445D02*
X0012168Y0133445D01*
X0009884Y0131846D02*
X0006600Y0131846D01*
X0006600Y0130248D02*
X0009001Y0130248D01*
X0008700Y0128649D02*
X0006600Y0128649D01*
X0006600Y0127051D02*
X0008850Y0127051D01*
X0009519Y0125452D02*
X0006600Y0125452D01*
X0006600Y0123854D02*
X0011288Y0123854D01*
X0006600Y0122255D02*
X0061442Y0122255D01*
X0063040Y0120656D02*
X0006600Y0120656D01*
X0006600Y0119058D02*
X0008496Y0119058D01*
X0007137Y0117459D02*
X0006600Y0117459D01*
X0006600Y0136642D02*
X0034555Y0136642D01*
X0032957Y0138240D02*
X0006600Y0138240D01*
X0006600Y0139839D02*
X0031358Y0139839D01*
X0029760Y0141437D02*
X0016636Y0141437D01*
X0016883Y0141563D02*
X0017583Y0142071D01*
X0018195Y0142684D01*
X0018704Y0143384D01*
X0019097Y0144155D01*
X0019365Y0144979D01*
X0019500Y0145834D01*
X0019500Y0146067D01*
X0014200Y0146067D01*
X0014200Y0146467D01*
X0013800Y0146467D01*
X0013800Y0151767D01*
X0013567Y0151767D01*
X0012712Y0151631D01*
X0011889Y0151364D01*
X0011117Y0150971D01*
X0010417Y0150462D01*
X0009805Y0149850D01*
X0009296Y0149149D01*
X0008903Y0148378D01*
X0008635Y0147555D01*
X0008500Y0146700D01*
X0008500Y0146467D01*
X0013800Y0146467D01*
X0013800Y0146067D01*
X0008500Y0146067D01*
X0008500Y0145834D01*
X0008635Y0144979D01*
X0008903Y0144155D01*
X0009296Y0143384D01*
X0009805Y0142684D01*
X0010417Y0142071D01*
X0011117Y0141563D01*
X0011889Y0141170D01*
X0012712Y0140902D01*
X0013567Y0140767D01*
X0013800Y0140767D01*
X0013800Y0146067D01*
X0014200Y0146067D01*
X0014200Y0140767D01*
X0014433Y0140767D01*
X0015288Y0140902D01*
X0016111Y0141170D01*
X0016883Y0141563D01*
X0018451Y0143036D02*
X0028161Y0143036D01*
X0026563Y0144634D02*
X0019253Y0144634D01*
X0019500Y0146467D02*
X0019500Y0146700D01*
X0019365Y0147555D01*
X0019097Y0148378D01*
X0018704Y0149149D01*
X0018195Y0149850D01*
X0017583Y0150462D01*
X0016883Y0150971D01*
X0016111Y0151364D01*
X0015288Y0151631D01*
X0014433Y0151767D01*
X0014200Y0151767D01*
X0014200Y0146467D01*
X0019500Y0146467D01*
X0019275Y0147831D02*
X0024700Y0147831D01*
X0024700Y0149430D02*
X0018500Y0149430D01*
X0016770Y0151028D02*
X0024700Y0151028D01*
X0024700Y0152627D02*
X0006600Y0152627D01*
X0006600Y0154225D02*
X0024700Y0154225D01*
X0024700Y0155824D02*
X0006600Y0155824D01*
X0006600Y0157422D02*
X0024700Y0157422D01*
X0024700Y0159021D02*
X0006600Y0159021D01*
X0006600Y0160619D02*
X0013552Y0160619D01*
X0012161Y0162218D02*
X0006600Y0162218D01*
X0006600Y0163816D02*
X0011500Y0163816D01*
X0011500Y0165415D02*
X0006600Y0165415D01*
X0006600Y0167013D02*
X0011953Y0167013D01*
X0013050Y0168612D02*
X0006600Y0168612D01*
X0006600Y0170210D02*
X0040986Y0170210D01*
X0040550Y0168612D02*
X0042585Y0168612D01*
X0041647Y0167013D02*
X0044183Y0167013D01*
X0045782Y0165415D02*
X0042100Y0165415D01*
X0042100Y0163816D02*
X0047380Y0163816D01*
X0048979Y0162218D02*
X0041439Y0162218D01*
X0040048Y0160619D02*
X0050578Y0160619D01*
X0052176Y0159021D02*
X0028900Y0159021D01*
X0028900Y0157422D02*
X0053775Y0157422D01*
X0055373Y0155824D02*
X0028900Y0155824D01*
X0028900Y0154225D02*
X0056972Y0154225D01*
X0058570Y0152627D02*
X0028900Y0152627D01*
X0028900Y0151028D02*
X0036830Y0151028D01*
X0036717Y0150971D02*
X0036017Y0150462D01*
X0035405Y0149850D01*
X0034896Y0149149D01*
X0034503Y0148378D01*
X0034235Y0147555D01*
X0034100Y0146700D01*
X0034100Y0146467D01*
X0039400Y0146467D01*
X0039400Y0151767D01*
X0039167Y0151767D01*
X0038312Y0151631D01*
X0037489Y0151364D01*
X0036717Y0150971D01*
X0035100Y0149430D02*
X0028900Y0149430D01*
X0029305Y0147831D02*
X0034325Y0147831D01*
X0034100Y0146067D02*
X0034100Y0145834D01*
X0034235Y0144979D01*
X0034503Y0144155D01*
X0034896Y0143384D01*
X0035405Y0142684D01*
X0036017Y0142071D01*
X0036717Y0141563D01*
X0037489Y0141170D01*
X0038312Y0140902D01*
X0039167Y0140767D01*
X0039400Y0140767D01*
X0039400Y0146067D01*
X0034100Y0146067D01*
X0034347Y0144634D02*
X0032502Y0144634D01*
X0030904Y0146233D02*
X0039400Y0146233D01*
X0039400Y0146067D02*
X0039400Y0146467D01*
X0039800Y0146467D01*
X0039800Y0151767D01*
X0040033Y0151767D01*
X0040888Y0151631D01*
X0041711Y0151364D01*
X0042483Y0150971D01*
X0043183Y0150462D01*
X0043795Y0149850D01*
X0044304Y0149149D01*
X0044697Y0148378D01*
X0044965Y0147555D01*
X0045100Y0146700D01*
X0045100Y0146467D01*
X0039800Y0146467D01*
X0039800Y0146067D01*
X0045100Y0146067D01*
X0045100Y0145834D01*
X0044965Y0144979D01*
X0044697Y0144155D01*
X0044304Y0143384D01*
X0043795Y0142684D01*
X0043183Y0142071D01*
X0042483Y0141563D01*
X0041711Y0141170D01*
X0040888Y0140902D01*
X0040033Y0140767D01*
X0039800Y0140767D01*
X0039800Y0146067D01*
X0039400Y0146067D01*
X0039800Y0146233D02*
X0064964Y0146233D01*
X0063366Y0147831D02*
X0044875Y0147831D01*
X0044100Y0149430D02*
X0061767Y0149430D01*
X0060169Y0151028D02*
X0042370Y0151028D01*
X0039800Y0151028D02*
X0039400Y0151028D01*
X0039400Y0149430D02*
X0039800Y0149430D01*
X0039800Y0147831D02*
X0039400Y0147831D01*
X0039400Y0144634D02*
X0039800Y0144634D01*
X0039800Y0143036D02*
X0039400Y0143036D01*
X0039400Y0141437D02*
X0039800Y0141437D01*
X0042236Y0141437D02*
X0053375Y0141437D01*
X0051777Y0139839D02*
X0037298Y0139839D01*
X0036964Y0141437D02*
X0035699Y0141437D01*
X0035149Y0143036D02*
X0034101Y0143036D01*
X0024964Y0146233D02*
X0014200Y0146233D01*
X0013800Y0146233D02*
X0006600Y0146233D01*
X0006600Y0147831D02*
X0008725Y0147831D01*
X0009500Y0149430D02*
X0006600Y0149430D01*
X0006600Y0151028D02*
X0011230Y0151028D01*
X0013800Y0151028D02*
X0014200Y0151028D01*
X0014200Y0149430D02*
X0013800Y0149430D01*
X0013800Y0147831D02*
X0014200Y0147831D01*
X0014200Y0144634D02*
X0013800Y0144634D01*
X0013800Y0143036D02*
X0014200Y0143036D01*
X0014200Y0141437D02*
X0013800Y0141437D01*
X0011364Y0141437D02*
X0006600Y0141437D01*
X0006600Y0143036D02*
X0009549Y0143036D01*
X0008747Y0144634D02*
X0006600Y0144634D01*
X0020048Y0160619D02*
X0023552Y0160619D01*
X0022161Y0162218D02*
X0021439Y0162218D01*
X0021647Y0167013D02*
X0021953Y0167013D01*
X0023050Y0168612D02*
X0020550Y0168612D01*
X0030550Y0168612D02*
X0033050Y0168612D01*
X0031953Y0167013D02*
X0031647Y0167013D01*
X0031439Y0162218D02*
X0032161Y0162218D01*
X0033552Y0160619D02*
X0030048Y0160619D01*
X0039388Y0171809D02*
X0006600Y0171809D01*
X0006600Y0173407D02*
X0037789Y0173407D01*
X0036191Y0175006D02*
X0006600Y0175006D01*
X0006600Y0176604D02*
X0034592Y0176604D01*
X0037335Y0179801D02*
X0061395Y0179801D01*
X0062994Y0178203D02*
X0038934Y0178203D01*
X0040532Y0176604D02*
X0064592Y0176604D01*
X0066191Y0175006D02*
X0042131Y0175006D01*
X0043729Y0173407D02*
X0067789Y0173407D01*
X0064198Y0171809D02*
X0059853Y0171809D01*
X0061452Y0170210D02*
X0062458Y0170210D01*
X0062100Y0165387D02*
X0062476Y0164478D01*
X0063911Y0163043D01*
X0065786Y0162267D01*
X0067814Y0162267D01*
X0069689Y0163043D01*
X0071124Y0164478D01*
X0071900Y0166352D01*
X0071900Y0168381D01*
X0071252Y0169944D01*
X0074700Y0166497D01*
X0074700Y0142436D01*
X0055070Y0162067D01*
X0056800Y0162067D01*
X0058995Y0162067D01*
X0062100Y0165171D01*
X0062100Y0165387D01*
X0063138Y0163816D02*
X0060745Y0163816D01*
X0059146Y0162218D02*
X0074700Y0162218D01*
X0074700Y0163816D02*
X0070462Y0163816D01*
X0071512Y0165415D02*
X0074700Y0165415D01*
X0074183Y0167013D02*
X0071900Y0167013D01*
X0071804Y0168612D02*
X0072585Y0168612D01*
X0075328Y0171809D02*
X0079700Y0171809D01*
X0079700Y0173407D02*
X0073729Y0173407D01*
X0072131Y0175006D02*
X0079700Y0175006D01*
X0079700Y0176604D02*
X0070532Y0176604D01*
X0068934Y0178203D02*
X0079700Y0178203D01*
X0079700Y0179801D02*
X0067335Y0179801D01*
X0065737Y0181400D02*
X0079700Y0181400D01*
X0079700Y0182998D02*
X0064138Y0182998D01*
X0062540Y0184597D02*
X0079700Y0184597D01*
X0079700Y0186195D02*
X0060941Y0186195D01*
X0059610Y0187794D02*
X0063737Y0187794D01*
X0062162Y0189392D02*
X0061305Y0189392D01*
X0066600Y0189392D02*
X0067000Y0189392D01*
X0067000Y0187794D02*
X0066600Y0187794D01*
X0066600Y0190991D02*
X0067000Y0190991D01*
X0069863Y0187794D02*
X0079700Y0187794D01*
X0079700Y0189392D02*
X0071438Y0189392D01*
X0072136Y0190991D02*
X0079700Y0190991D01*
X0079700Y0192590D02*
X0072300Y0192590D01*
X0071991Y0194188D02*
X0079700Y0194188D01*
X0079700Y0195787D02*
X0071114Y0195787D01*
X0069066Y0197385D02*
X0079700Y0197385D01*
X0079700Y0198984D02*
X0070912Y0198984D01*
X0071797Y0200582D02*
X0079700Y0200582D01*
X0079700Y0202181D02*
X0072100Y0202181D01*
X0071952Y0203779D02*
X0079700Y0203779D01*
X0079700Y0205378D02*
X0071284Y0205378D01*
X0069521Y0206976D02*
X0079700Y0206976D01*
X0079700Y0208575D02*
X0070503Y0208575D01*
X0071628Y0210173D02*
X0079700Y0210173D01*
X0079700Y0211772D02*
X0072100Y0211772D01*
X0072100Y0213370D02*
X0079700Y0213370D01*
X0079700Y0214969D02*
X0071459Y0214969D01*
X0070095Y0216567D02*
X0079700Y0216567D01*
X0079700Y0218166D02*
X0023069Y0218166D01*
X0023505Y0216567D02*
X0021470Y0216567D01*
X0021459Y0214969D02*
X0022141Y0214969D01*
X0021972Y0210173D02*
X0021628Y0210173D01*
X0020503Y0208575D02*
X0023097Y0208575D01*
X0030503Y0208575D02*
X0033097Y0208575D01*
X0031972Y0210173D02*
X0031628Y0210173D01*
X0031459Y0214969D02*
X0032141Y0214969D01*
X0033505Y0216567D02*
X0030095Y0216567D01*
X0026266Y0221363D02*
X0079700Y0221363D01*
X0079700Y0219764D02*
X0024667Y0219764D01*
X0020326Y0221363D02*
X0006600Y0221363D01*
X0006600Y0222961D02*
X0021925Y0222961D01*
X0023523Y0224560D02*
X0006600Y0224560D01*
X0006600Y0226158D02*
X0025122Y0226158D01*
X0018728Y0219764D02*
X0006600Y0219764D01*
X0006600Y0218166D02*
X0017129Y0218166D01*
X0013505Y0216567D02*
X0006600Y0216567D01*
X0006600Y0214969D02*
X0012141Y0214969D01*
X0011500Y0213370D02*
X0006600Y0213370D01*
X0006600Y0211772D02*
X0011500Y0211772D01*
X0011972Y0210173D02*
X0006600Y0210173D01*
X0006600Y0208575D02*
X0013097Y0208575D01*
X0006600Y0206976D02*
X0054079Y0206976D01*
X0053097Y0208575D02*
X0040503Y0208575D01*
X0041628Y0210173D02*
X0051972Y0210173D01*
X0051500Y0211772D02*
X0042100Y0211772D01*
X0042100Y0213370D02*
X0051500Y0213370D01*
X0052141Y0214969D02*
X0041459Y0214969D01*
X0040095Y0216567D02*
X0053505Y0216567D01*
X0060095Y0216567D02*
X0063505Y0216567D01*
X0062141Y0214969D02*
X0061459Y0214969D01*
X0052316Y0205378D02*
X0006600Y0205378D01*
X0006600Y0203779D02*
X0051648Y0203779D01*
X0051500Y0202181D02*
X0006600Y0202181D01*
X0006600Y0200582D02*
X0051803Y0200582D01*
X0052688Y0198984D02*
X0006600Y0198984D01*
X0006600Y0197385D02*
X0054977Y0197385D01*
X0052725Y0195787D02*
X0006600Y0195787D01*
X0006600Y0194188D02*
X0051818Y0194188D01*
X0051500Y0192590D02*
X0038040Y0192590D01*
X0035560Y0192590D02*
X0028040Y0192590D01*
X0025560Y0192590D02*
X0018040Y0192590D01*
X0015560Y0192590D02*
X0006600Y0192590D01*
X0006600Y0190991D02*
X0012929Y0190991D01*
X0011902Y0189392D02*
X0006600Y0189392D01*
X0006600Y0187794D02*
X0011500Y0187794D01*
X0011548Y0186195D02*
X0006600Y0186195D01*
X0006600Y0184597D02*
X0012211Y0184597D01*
X0013673Y0182998D02*
X0006600Y0182998D01*
X0006600Y0181400D02*
X0014797Y0181400D01*
X0016395Y0179801D02*
X0006600Y0179801D01*
X0006600Y0178203D02*
X0017994Y0178203D01*
X0019927Y0182998D02*
X0023673Y0182998D01*
X0022211Y0184597D02*
X0021389Y0184597D01*
X0021698Y0189392D02*
X0021902Y0189392D01*
X0022929Y0190991D02*
X0020671Y0190991D01*
X0030671Y0190991D02*
X0032929Y0190991D01*
X0031902Y0189392D02*
X0031698Y0189392D01*
X0031389Y0184597D02*
X0032211Y0184597D01*
X0033673Y0182998D02*
X0029927Y0182998D01*
X0035737Y0181400D02*
X0059797Y0181400D01*
X0058198Y0182998D02*
X0039927Y0182998D01*
X0041389Y0184597D02*
X0056600Y0184597D01*
X0055001Y0186195D02*
X0042052Y0186195D01*
X0042100Y0187794D02*
X0053990Y0187794D01*
X0052295Y0189392D02*
X0041698Y0189392D01*
X0040671Y0190991D02*
X0051633Y0190991D01*
X0053747Y0171809D02*
X0045328Y0171809D01*
X0046926Y0170210D02*
X0052148Y0170210D01*
X0051500Y0168612D02*
X0048525Y0168612D01*
X0050123Y0167013D02*
X0051500Y0167013D01*
X0056800Y0167013D02*
X0056800Y0167013D01*
X0056800Y0167367D02*
X0056800Y0162067D01*
X0056800Y0167367D01*
X0056800Y0167367D01*
X0056800Y0167367D01*
X0056800Y0168612D02*
X0056800Y0168612D01*
X0056800Y0170210D02*
X0056800Y0170210D01*
X0056800Y0171809D02*
X0056800Y0171809D01*
X0056800Y0165415D02*
X0056800Y0165415D01*
X0056800Y0163816D02*
X0056800Y0163816D01*
X0056800Y0162218D02*
X0056800Y0162218D01*
X0056517Y0160619D02*
X0074700Y0160619D01*
X0074700Y0159021D02*
X0058116Y0159021D01*
X0059714Y0157422D02*
X0074700Y0157422D01*
X0074700Y0155824D02*
X0061313Y0155824D01*
X0062911Y0154225D02*
X0074700Y0154225D01*
X0074700Y0152627D02*
X0064510Y0152627D01*
X0066108Y0151028D02*
X0074700Y0151028D01*
X0074700Y0149430D02*
X0067707Y0149430D01*
X0069305Y0147831D02*
X0074700Y0147831D01*
X0074700Y0146233D02*
X0070904Y0146233D01*
X0072502Y0144634D02*
X0074700Y0144634D01*
X0074700Y0143036D02*
X0074101Y0143036D01*
X0068161Y0143036D02*
X0044051Y0143036D01*
X0044853Y0144634D02*
X0066563Y0144634D01*
X0063658Y0141437D02*
X0060225Y0141437D01*
X0061823Y0139839D02*
X0062304Y0139839D01*
X0056800Y0139839D02*
X0056800Y0139839D01*
X0056800Y0141437D02*
X0056800Y0141437D01*
X0056800Y0138240D02*
X0056800Y0138240D01*
X0051500Y0138240D02*
X0051396Y0138240D01*
X0051851Y0131846D02*
X0043716Y0131846D01*
X0044599Y0130248D02*
X0053449Y0130248D01*
X0055048Y0128649D02*
X0044900Y0128649D01*
X0044750Y0127051D02*
X0056646Y0127051D01*
X0058245Y0125452D02*
X0044081Y0125452D01*
X0042312Y0123854D02*
X0059843Y0123854D01*
X0061600Y0117459D02*
X0062000Y0117459D01*
X0062000Y0115861D02*
X0061600Y0115861D01*
X0061600Y0114262D02*
X0062000Y0114262D01*
X0062000Y0112664D02*
X0061600Y0112664D01*
X0076400Y0112664D02*
X0087031Y0112664D01*
X0087209Y0111065D02*
X0076400Y0111065D01*
X0076400Y0109467D02*
X0088013Y0109467D01*
X0091616Y0109467D02*
X0091984Y0109467D01*
X0091984Y0111065D02*
X0091616Y0111065D01*
X0095587Y0109467D02*
X0097200Y0109467D01*
X0097200Y0111065D02*
X0096391Y0111065D01*
X0097177Y0117459D02*
X0097231Y0117459D01*
X0097556Y0119058D02*
X0095579Y0119058D01*
X0093980Y0120656D02*
X0098629Y0120656D01*
X0104700Y0122255D02*
X0092381Y0122255D01*
X0090783Y0123854D02*
X0104700Y0123854D01*
X0104700Y0125452D02*
X0089184Y0125452D01*
X0087586Y0127051D02*
X0104700Y0127051D01*
X0104700Y0128649D02*
X0085987Y0128649D01*
X0084389Y0130248D02*
X0103449Y0130248D01*
X0101851Y0131846D02*
X0082790Y0131846D01*
X0081192Y0133445D02*
X0100252Y0133445D01*
X0098654Y0135043D02*
X0079593Y0135043D01*
X0078900Y0136642D02*
X0097055Y0136642D01*
X0095457Y0138240D02*
X0078900Y0138240D01*
X0078900Y0139839D02*
X0093858Y0139839D01*
X0092260Y0141437D02*
X0078900Y0141437D01*
X0078900Y0143036D02*
X0090661Y0143036D01*
X0089063Y0144634D02*
X0078900Y0144634D01*
X0078900Y0146233D02*
X0087464Y0146233D01*
X0085866Y0147831D02*
X0078900Y0147831D01*
X0078900Y0149430D02*
X0084267Y0149430D01*
X0082669Y0151028D02*
X0078900Y0151028D01*
X0078900Y0152627D02*
X0081070Y0152627D01*
X0079700Y0154225D02*
X0078900Y0154225D01*
X0078900Y0155824D02*
X0079700Y0155824D01*
X0079700Y0157422D02*
X0078900Y0157422D01*
X0078900Y0159021D02*
X0079700Y0159021D01*
X0079700Y0160619D02*
X0078900Y0160619D01*
X0078900Y0162218D02*
X0079700Y0162218D01*
X0079700Y0163816D02*
X0078900Y0163816D01*
X0078900Y0165415D02*
X0079700Y0165415D01*
X0079700Y0167013D02*
X0078900Y0167013D01*
X0078525Y0168612D02*
X0079700Y0168612D01*
X0079700Y0170210D02*
X0076926Y0170210D01*
X0083900Y0170210D02*
X0087076Y0170210D01*
X0086429Y0168612D02*
X0083900Y0168612D01*
X0083900Y0167013D02*
X0086300Y0167013D01*
X0086651Y0165415D02*
X0083900Y0165415D01*
X0083900Y0163816D02*
X0087581Y0163816D01*
X0089662Y0162218D02*
X0083900Y0162218D01*
X0083900Y0160619D02*
X0087557Y0160619D01*
X0086748Y0159021D02*
X0083900Y0159021D01*
X0083900Y0157422D02*
X0086500Y0157422D01*
X0086702Y0155824D02*
X0083900Y0155824D01*
X0085411Y0154225D02*
X0087446Y0154225D01*
X0087010Y0152627D02*
X0089394Y0152627D01*
X0088608Y0151028D02*
X0154992Y0151028D01*
X0156590Y0152627D02*
X0094206Y0152627D01*
X0096154Y0154225D02*
X0116972Y0154225D01*
X0115373Y0155824D02*
X0096898Y0155824D01*
X0097100Y0157422D02*
X0113775Y0157422D01*
X0112176Y0159021D02*
X0096852Y0159021D01*
X0096043Y0160619D02*
X0110578Y0160619D01*
X0108979Y0162218D02*
X0093938Y0162218D01*
X0096019Y0163816D02*
X0107380Y0163816D01*
X0105782Y0165415D02*
X0096949Y0165415D01*
X0097300Y0167013D02*
X0104183Y0167013D01*
X0102585Y0168612D02*
X0097171Y0168612D01*
X0096524Y0170210D02*
X0100986Y0170210D01*
X0099388Y0171809D02*
X0095043Y0171809D01*
X0095336Y0173407D02*
X0097789Y0173407D01*
X0100532Y0176604D02*
X0170568Y0176604D01*
X0168969Y0175006D02*
X0102131Y0175006D01*
X0103729Y0173407D02*
X0158441Y0173407D01*
X0160159Y0173407D02*
X0167371Y0173407D01*
X0167200Y0171809D02*
X0162392Y0171809D01*
X0162900Y0170210D02*
X0167200Y0170210D01*
X0167200Y0168612D02*
X0162677Y0168612D01*
X0155700Y0170210D02*
X0106926Y0170210D01*
X0108525Y0168612D02*
X0155075Y0168612D01*
X0153477Y0167013D02*
X0110123Y0167013D01*
X0111722Y0165415D02*
X0151878Y0165415D01*
X0150280Y0163816D02*
X0113320Y0163816D01*
X0114919Y0162218D02*
X0146560Y0162218D01*
X0145715Y0160619D02*
X0116517Y0160619D01*
X0118116Y0159021D02*
X0145754Y0159021D01*
X0146653Y0157422D02*
X0119714Y0157422D01*
X0105328Y0171809D02*
X0156208Y0171809D01*
X0163022Y0160619D02*
X0164583Y0160619D01*
X0162984Y0159021D02*
X0161424Y0159021D01*
X0161386Y0157422D02*
X0159825Y0157422D01*
X0159787Y0155824D02*
X0158227Y0155824D01*
X0158189Y0154225D02*
X0156628Y0154225D01*
X0153393Y0149430D02*
X0090207Y0149430D01*
X0091805Y0147831D02*
X0151795Y0147831D01*
X0150196Y0146233D02*
X0093404Y0146233D01*
X0095002Y0144634D02*
X0148598Y0144634D01*
X0146999Y0143036D02*
X0096601Y0143036D01*
X0098199Y0141437D02*
X0145401Y0141437D01*
X0143802Y0139839D02*
X0099798Y0139839D01*
X0101396Y0138240D02*
X0142204Y0138240D01*
X0140605Y0136642D02*
X0102995Y0136642D01*
X0104593Y0135043D02*
X0139007Y0135043D01*
X0137408Y0133445D02*
X0106192Y0133445D01*
X0107790Y0131846D02*
X0135810Y0131846D01*
X0134211Y0130248D02*
X0108900Y0130248D01*
X0108900Y0128649D02*
X0132613Y0128649D01*
X0131014Y0127051D02*
X0108900Y0127051D01*
X0108900Y0125452D02*
X0129416Y0125452D01*
X0127817Y0123854D02*
X0108900Y0123854D01*
X0108900Y0122255D02*
X0126219Y0122255D01*
X0118629Y0120656D02*
X0115254Y0120656D01*
X0116264Y0119058D02*
X0117556Y0119058D01*
X0117231Y0117459D02*
X0111984Y0117459D01*
X0111984Y0115861D02*
X0111616Y0115861D01*
X0111616Y0114262D02*
X0111984Y0114262D01*
X0111984Y0112664D02*
X0111616Y0112664D01*
X0111009Y0112664D02*
X0108900Y0112664D01*
X0108900Y0111065D02*
X0122529Y0111065D01*
X0120930Y0109467D02*
X0108900Y0109467D01*
X0108900Y0107868D02*
X0119332Y0107868D01*
X0117733Y0106270D02*
X0108900Y0106270D01*
X0108900Y0104671D02*
X0116135Y0104671D01*
X0114536Y0103073D02*
X0108900Y0103073D01*
X0112591Y0112664D02*
X0124127Y0112664D01*
X0118443Y0114262D02*
X0115439Y0114262D01*
X0116325Y0115861D02*
X0117479Y0115861D01*
X0111984Y0119058D02*
X0111616Y0119058D01*
X0111616Y0120656D02*
X0111984Y0120656D01*
X0091237Y0117459D02*
X0076400Y0117459D01*
X0076400Y0115861D02*
X0088551Y0115861D01*
X0087414Y0114262D02*
X0076400Y0114262D01*
X0076400Y0119058D02*
X0089639Y0119058D01*
X0088040Y0120656D02*
X0076400Y0120656D01*
X0076400Y0122255D02*
X0086442Y0122255D01*
X0084843Y0123854D02*
X0076400Y0123854D01*
X0076400Y0125452D02*
X0083245Y0125452D01*
X0081646Y0127051D02*
X0076400Y0127051D01*
X0076400Y0128649D02*
X0080048Y0128649D01*
X0078449Y0130248D02*
X0076400Y0130248D01*
X0076400Y0131846D02*
X0076851Y0131846D01*
X0083900Y0171809D02*
X0088557Y0171809D01*
X0088264Y0173407D02*
X0083900Y0173407D01*
X0083900Y0175006D02*
X0087041Y0175006D01*
X0086500Y0176604D02*
X0083900Y0176604D01*
X0083900Y0178203D02*
X0086500Y0178203D01*
X0087072Y0179801D02*
X0083900Y0179801D01*
X0083900Y0181400D02*
X0088338Y0181400D01*
X0088673Y0182998D02*
X0083900Y0182998D01*
X0083900Y0184597D02*
X0087211Y0184597D01*
X0086548Y0186195D02*
X0083900Y0186195D01*
X0083900Y0187794D02*
X0086500Y0187794D01*
X0086902Y0189392D02*
X0083900Y0189392D01*
X0083900Y0190991D02*
X0087929Y0190991D01*
X0089484Y0192590D02*
X0083900Y0192590D01*
X0083900Y0194188D02*
X0087483Y0194188D01*
X0086718Y0195787D02*
X0083900Y0195787D01*
X0083900Y0197385D02*
X0086500Y0197385D01*
X0086733Y0198984D02*
X0083900Y0198984D01*
X0083900Y0200582D02*
X0087520Y0200582D01*
X0089572Y0202181D02*
X0083900Y0202181D01*
X0083900Y0203779D02*
X0087892Y0203779D01*
X0086887Y0205378D02*
X0083900Y0205378D01*
X0083900Y0206976D02*
X0086500Y0206976D01*
X0086564Y0208575D02*
X0083900Y0208575D01*
X0083900Y0210173D02*
X0087226Y0210173D01*
X0088710Y0211772D02*
X0083900Y0211772D01*
X0083900Y0213370D02*
X0088301Y0213370D01*
X0087057Y0214969D02*
X0083900Y0214969D01*
X0083900Y0216567D02*
X0086500Y0216567D01*
X0086500Y0218166D02*
X0083900Y0218166D01*
X0083900Y0219764D02*
X0087056Y0219764D01*
X0088301Y0221363D02*
X0083900Y0221363D01*
X0095299Y0221363D02*
X0119834Y0221363D01*
X0121433Y0219764D02*
X0096544Y0219764D01*
X0097100Y0218166D02*
X0123031Y0218166D01*
X0124630Y0216567D02*
X0097100Y0216567D01*
X0096543Y0214969D02*
X0126228Y0214969D01*
X0127827Y0213370D02*
X0095299Y0213370D01*
X0094890Y0211772D02*
X0128200Y0211772D01*
X0128902Y0210173D02*
X0096374Y0210173D01*
X0097036Y0208575D02*
X0200904Y0208575D01*
X0200700Y0206976D02*
X0097100Y0206976D01*
X0096713Y0205378D02*
X0199341Y0205378D01*
X0197743Y0203779D02*
X0095708Y0203779D01*
X0094028Y0202181D02*
X0196144Y0202181D01*
X0194546Y0200582D02*
X0096080Y0200582D01*
X0096867Y0198984D02*
X0192947Y0198984D01*
X0191349Y0197385D02*
X0097100Y0197385D01*
X0096882Y0195787D02*
X0189750Y0195787D01*
X0188152Y0194188D02*
X0096117Y0194188D01*
X0094116Y0192590D02*
X0186553Y0192590D01*
X0184955Y0190991D02*
X0095671Y0190991D01*
X0096698Y0189392D02*
X0183356Y0189392D01*
X0181757Y0187794D02*
X0097100Y0187794D01*
X0097052Y0186195D02*
X0180159Y0186195D01*
X0178560Y0184597D02*
X0096389Y0184597D01*
X0094927Y0182998D02*
X0176962Y0182998D01*
X0175363Y0181400D02*
X0095262Y0181400D01*
X0096528Y0179801D02*
X0173765Y0179801D01*
X0172166Y0178203D02*
X0098934Y0178203D01*
X0134698Y0210173D02*
X0202015Y0210173D01*
X0206585Y0210173D02*
X0209137Y0210173D01*
X0210735Y0211772D02*
X0135400Y0211772D01*
X0135281Y0213370D02*
X0303201Y0213370D01*
X0303201Y0211772D02*
X0282865Y0211772D01*
X0284463Y0210173D02*
X0303201Y0210173D01*
X0303201Y0208575D02*
X0286062Y0208575D01*
X0286400Y0206976D02*
X0289079Y0206976D01*
X0287316Y0205378D02*
X0286400Y0205378D01*
X0286400Y0203779D02*
X0286648Y0203779D01*
X0286500Y0202181D02*
X0286400Y0202181D01*
X0286400Y0200582D02*
X0286803Y0200582D01*
X0286400Y0198984D02*
X0287688Y0198984D01*
X0286400Y0197385D02*
X0289977Y0197385D01*
X0287725Y0195787D02*
X0286400Y0195787D01*
X0286400Y0194188D02*
X0286818Y0194188D01*
X0286500Y0192590D02*
X0286400Y0192590D01*
X0286400Y0190991D02*
X0286633Y0190991D01*
X0286400Y0189392D02*
X0287295Y0189392D01*
X0286843Y0187794D02*
X0288990Y0187794D01*
X0294610Y0187794D02*
X0303201Y0187794D01*
X0303201Y0189392D02*
X0296305Y0189392D01*
X0296967Y0190991D02*
X0303201Y0190991D01*
X0303201Y0192590D02*
X0297100Y0192590D01*
X0296782Y0194188D02*
X0303201Y0194188D01*
X0303201Y0195787D02*
X0295875Y0195787D01*
X0293623Y0197385D02*
X0303201Y0197385D01*
X0303201Y0198984D02*
X0295912Y0198984D01*
X0296797Y0200582D02*
X0303201Y0200582D01*
X0303201Y0202181D02*
X0297100Y0202181D01*
X0296952Y0203779D02*
X0303201Y0203779D01*
X0303201Y0205378D02*
X0296284Y0205378D01*
X0294521Y0206976D02*
X0303201Y0206976D01*
X0303201Y0214969D02*
X0134289Y0214969D01*
X0130569Y0216567D02*
X0303201Y0216567D01*
X0303201Y0218166D02*
X0128971Y0218166D01*
X0127372Y0219764D02*
X0303201Y0219764D01*
X0303201Y0221363D02*
X0125774Y0221363D01*
X0124175Y0222961D02*
X0303201Y0222961D01*
X0303201Y0224560D02*
X0122577Y0224560D01*
X0120978Y0226158D02*
X0303201Y0226158D01*
X0303201Y0186195D02*
X0295467Y0186195D01*
X0296613Y0184597D02*
X0303201Y0184597D01*
X0303201Y0182998D02*
X0297100Y0182998D01*
X0297100Y0181400D02*
X0303201Y0181400D01*
X0303201Y0179801D02*
X0296474Y0179801D01*
X0295132Y0178203D02*
X0303201Y0178203D01*
X0303201Y0176604D02*
X0295058Y0176604D01*
X0296443Y0175006D02*
X0303201Y0175006D01*
X0303201Y0173407D02*
X0297100Y0173407D01*
X0297100Y0171809D02*
X0303201Y0171809D01*
X0303201Y0170210D02*
X0296643Y0170210D01*
X0295541Y0168612D02*
X0303201Y0168612D01*
X0303201Y0167013D02*
X0294431Y0167013D01*
X0296247Y0165415D02*
X0303201Y0165415D01*
X0303201Y0163816D02*
X0296936Y0163816D01*
X0297100Y0162218D02*
X0303201Y0162218D01*
X0303201Y0160619D02*
X0296813Y0160619D01*
X0295949Y0159021D02*
X0303201Y0159021D01*
X0303201Y0157422D02*
X0293713Y0157422D01*
X0295838Y0155824D02*
X0303201Y0155824D01*
X0303201Y0154225D02*
X0296767Y0154225D01*
X0297100Y0152627D02*
X0303201Y0152627D01*
X0303201Y0151028D02*
X0298608Y0151028D01*
X0300207Y0149430D02*
X0303201Y0149430D01*
X0303201Y0147831D02*
X0301805Y0147831D01*
X0290022Y0147367D02*
X0288798Y0146860D01*
X0287307Y0145369D01*
X0286500Y0143421D01*
X0286500Y0141312D01*
X0287307Y0139364D01*
X0288798Y0137874D01*
X0290022Y0137367D01*
X0288798Y0136860D01*
X0287307Y0135369D01*
X0286500Y0133421D01*
X0286500Y0131312D01*
X0287307Y0129364D01*
X0288798Y0127874D01*
X0289700Y0127500D01*
X0289700Y0109558D01*
X0288839Y0110419D01*
X0287516Y0110967D01*
X0286084Y0110967D01*
X0284761Y0110419D01*
X0283748Y0109406D01*
X0283200Y0108083D01*
X0283200Y0106651D01*
X0283748Y0105327D01*
X0284700Y0104375D01*
X0284700Y0097858D01*
X0283748Y0096906D01*
X0283200Y0095583D01*
X0283200Y0094151D01*
X0283748Y0092827D01*
X0284761Y0091815D01*
X0286084Y0091267D01*
X0287516Y0091267D01*
X0287882Y0091418D01*
X0282700Y0086236D01*
X0282700Y0088127D01*
X0281802Y0090295D01*
X0280142Y0091955D01*
X0277974Y0092853D01*
X0275626Y0092853D01*
X0273458Y0091955D01*
X0273070Y0091567D01*
X0272670Y0091967D01*
X0245170Y0091967D01*
X0235620Y0101517D01*
X0236339Y0101815D01*
X0236800Y0102275D01*
X0237261Y0101815D01*
X0238584Y0101267D01*
X0240016Y0101267D01*
X0241339Y0101815D01*
X0242352Y0102827D01*
X0242900Y0104151D01*
X0242900Y0105583D01*
X0242352Y0106906D01*
X0242080Y0107177D01*
X0273287Y0138384D01*
X0273798Y0137874D01*
X0275022Y0137367D01*
X0273798Y0136860D01*
X0272307Y0135369D01*
X0271500Y0133421D01*
X0271500Y0131312D01*
X0272307Y0129364D01*
X0273798Y0127874D01*
X0275746Y0127067D01*
X0277854Y0127067D01*
X0279802Y0127874D01*
X0281293Y0129364D01*
X0282100Y0131312D01*
X0282100Y0133421D01*
X0281293Y0135369D01*
X0279802Y0136860D01*
X0278578Y0137367D01*
X0279802Y0137874D01*
X0281293Y0139364D01*
X0282100Y0141312D01*
X0282100Y0143421D01*
X0281293Y0145369D01*
X0279802Y0146860D01*
X0278578Y0147367D01*
X0279802Y0147874D01*
X0281293Y0149364D01*
X0282100Y0151312D01*
X0282100Y0153421D01*
X0281293Y0155369D01*
X0280783Y0155879D01*
X0281400Y0156497D01*
X0285170Y0160267D01*
X0286933Y0160267D01*
X0287307Y0159364D01*
X0288798Y0157874D01*
X0290022Y0157367D01*
X0288798Y0156860D01*
X0287307Y0155369D01*
X0286500Y0153421D01*
X0286500Y0151312D01*
X0287307Y0149364D01*
X0288798Y0147874D01*
X0290022Y0147367D01*
X0288900Y0147831D02*
X0279700Y0147831D01*
X0280429Y0146233D02*
X0288171Y0146233D01*
X0287003Y0144634D02*
X0281597Y0144634D01*
X0282100Y0143036D02*
X0286500Y0143036D01*
X0286500Y0141437D02*
X0282100Y0141437D01*
X0281490Y0139839D02*
X0287110Y0139839D01*
X0288431Y0138240D02*
X0280169Y0138240D01*
X0280020Y0136642D02*
X0288580Y0136642D01*
X0287172Y0135043D02*
X0281428Y0135043D01*
X0282090Y0133445D02*
X0286510Y0133445D01*
X0286500Y0131846D02*
X0282100Y0131846D01*
X0281659Y0130248D02*
X0286941Y0130248D01*
X0288022Y0128649D02*
X0280578Y0128649D01*
X0273022Y0128649D02*
X0263552Y0128649D01*
X0261954Y0127051D02*
X0289700Y0127051D01*
X0289700Y0125452D02*
X0260355Y0125452D01*
X0258757Y0123854D02*
X0289700Y0123854D01*
X0289700Y0122255D02*
X0257158Y0122255D01*
X0255560Y0120656D02*
X0289700Y0120656D01*
X0289700Y0119058D02*
X0280822Y0119058D01*
X0280774Y0119106D02*
X0279997Y0119670D01*
X0279142Y0120106D01*
X0278228Y0120403D01*
X0277280Y0120553D01*
X0276984Y0120553D01*
X0276984Y0114638D01*
X0276616Y0114638D01*
X0276616Y0120553D01*
X0276320Y0120553D01*
X0275372Y0120403D01*
X0274458Y0120106D01*
X0273603Y0119670D01*
X0272826Y0119106D01*
X0272147Y0118427D01*
X0271583Y0117650D01*
X0271147Y0116795D01*
X0270850Y0115882D01*
X0270700Y0114933D01*
X0270700Y0114638D01*
X0276616Y0114638D01*
X0276616Y0114269D01*
X0276984Y0114269D01*
X0276984Y0108353D01*
X0277280Y0108353D01*
X0278228Y0108503D01*
X0279142Y0108800D01*
X0279997Y0109236D01*
X0280774Y0109800D01*
X0281453Y0110479D01*
X0282017Y0111256D01*
X0282453Y0112112D01*
X0282750Y0113025D01*
X0282900Y0113973D01*
X0282900Y0114269D01*
X0276984Y0114269D01*
X0276984Y0114638D01*
X0282900Y0114638D01*
X0282900Y0114933D01*
X0282750Y0115882D01*
X0282453Y0116795D01*
X0282017Y0117650D01*
X0281453Y0118427D01*
X0280774Y0119106D01*
X0282114Y0117459D02*
X0289700Y0117459D01*
X0289700Y0115861D02*
X0282753Y0115861D01*
X0282900Y0114262D02*
X0289700Y0114262D01*
X0289700Y0112664D02*
X0282633Y0112664D01*
X0281879Y0111065D02*
X0289700Y0111065D01*
X0283809Y0109467D02*
X0280315Y0109467D01*
X0283200Y0107868D02*
X0242772Y0107868D01*
X0242615Y0106270D02*
X0274893Y0106270D01*
X0275626Y0106574D02*
X0273458Y0105676D01*
X0271798Y0104016D01*
X0270900Y0101847D01*
X0270900Y0099500D01*
X0271798Y0097332D01*
X0273458Y0095672D01*
X0275626Y0094774D01*
X0277974Y0094774D01*
X0280142Y0095672D01*
X0281802Y0097332D01*
X0282700Y0099500D01*
X0282700Y0101847D01*
X0281802Y0104016D01*
X0280142Y0105676D01*
X0277974Y0106574D01*
X0275626Y0106574D01*
X0276320Y0108353D02*
X0275372Y0108503D01*
X0274458Y0108800D01*
X0273603Y0109236D01*
X0272826Y0109800D01*
X0272147Y0110479D01*
X0271583Y0111256D01*
X0271147Y0112112D01*
X0270850Y0113025D01*
X0270700Y0113973D01*
X0270700Y0114269D01*
X0276616Y0114269D01*
X0276616Y0108353D01*
X0276320Y0108353D01*
X0276616Y0109467D02*
X0276984Y0109467D01*
X0276984Y0111065D02*
X0276616Y0111065D01*
X0276616Y0112664D02*
X0276984Y0112664D01*
X0276984Y0114262D02*
X0276616Y0114262D01*
X0276616Y0115861D02*
X0276984Y0115861D01*
X0276984Y0117459D02*
X0276616Y0117459D01*
X0276616Y0119058D02*
X0276984Y0119058D01*
X0272778Y0119058D02*
X0253961Y0119058D01*
X0252363Y0117459D02*
X0271486Y0117459D01*
X0270847Y0115861D02*
X0250764Y0115861D01*
X0249166Y0114262D02*
X0270700Y0114262D01*
X0270967Y0112664D02*
X0247567Y0112664D01*
X0245969Y0111065D02*
X0271721Y0111065D01*
X0273285Y0109467D02*
X0244370Y0109467D01*
X0242900Y0104671D02*
X0272454Y0104671D01*
X0271408Y0103073D02*
X0242454Y0103073D01*
X0240518Y0101474D02*
X0270900Y0101474D01*
X0270900Y0099876D02*
X0237261Y0099876D01*
X0238082Y0101474D02*
X0235662Y0101474D01*
X0232919Y0098277D02*
X0216368Y0098277D01*
X0216368Y0096679D02*
X0234518Y0096679D01*
X0236116Y0095080D02*
X0215798Y0095080D01*
X0214359Y0093482D02*
X0237715Y0093482D01*
X0239314Y0091883D02*
X0213330Y0091883D01*
X0213630Y0091786D02*
X0212917Y0092018D01*
X0212175Y0092135D01*
X0211984Y0092135D01*
X0211984Y0087551D01*
X0211616Y0087551D01*
X0211616Y0087182D01*
X0211984Y0087182D01*
X0211984Y0082598D01*
X0212175Y0082598D01*
X0212917Y0082716D01*
X0213630Y0082948D01*
X0214299Y0083288D01*
X0214906Y0083729D01*
X0215437Y0084260D01*
X0215878Y0084867D01*
X0216219Y0085536D01*
X0216451Y0086250D01*
X0216568Y0086991D01*
X0216568Y0087182D01*
X0211984Y0087182D01*
X0211984Y0087551D01*
X0216568Y0087551D01*
X0216568Y0087742D01*
X0216451Y0088483D01*
X0216219Y0089197D01*
X0215878Y0089866D01*
X0215437Y0090473D01*
X0214906Y0091004D01*
X0214299Y0091445D01*
X0213630Y0091786D01*
X0211984Y0091883D02*
X0211616Y0091883D01*
X0211616Y0090285D02*
X0211984Y0090285D01*
X0211984Y0088686D02*
X0211616Y0088686D01*
X0211616Y0087182D02*
X0207031Y0087182D01*
X0207031Y0086991D01*
X0207149Y0086250D01*
X0207381Y0085536D01*
X0207722Y0084867D01*
X0208163Y0084260D01*
X0208694Y0083729D01*
X0209301Y0083288D01*
X0209970Y0082948D01*
X0210683Y0082716D01*
X0211425Y0082598D01*
X0211616Y0082598D01*
X0211616Y0087182D01*
X0211616Y0087088D02*
X0211984Y0087088D01*
X0211984Y0085489D02*
X0211616Y0085489D01*
X0211616Y0083891D02*
X0211984Y0083891D01*
X0215068Y0083891D02*
X0271682Y0083891D01*
X0271020Y0085489D02*
X0216195Y0085489D01*
X0216568Y0087088D02*
X0270900Y0087088D01*
X0272753Y0091883D02*
X0273386Y0091883D01*
X0274886Y0095080D02*
X0242056Y0095080D01*
X0243655Y0093482D02*
X0283477Y0093482D01*
X0283200Y0095080D02*
X0278714Y0095080D01*
X0281149Y0096679D02*
X0283654Y0096679D01*
X0284700Y0098277D02*
X0282193Y0098277D01*
X0282700Y0099876D02*
X0284700Y0099876D01*
X0284700Y0101474D02*
X0282700Y0101474D01*
X0282192Y0103073D02*
X0284700Y0103073D01*
X0284404Y0104671D02*
X0281146Y0104671D01*
X0283358Y0106270D02*
X0278707Y0106270D01*
X0271406Y0098277D02*
X0238859Y0098277D01*
X0240458Y0096679D02*
X0272451Y0096679D01*
X0280214Y0091883D02*
X0284692Y0091883D01*
X0286748Y0090285D02*
X0281806Y0090285D01*
X0282468Y0088686D02*
X0285150Y0088686D01*
X0283551Y0087088D02*
X0282700Y0087088D01*
X0273117Y0082292D02*
X0224466Y0082292D01*
X0224852Y0081906D02*
X0223839Y0082919D01*
X0222516Y0083467D01*
X0221084Y0083467D01*
X0219761Y0082919D01*
X0218748Y0081906D01*
X0218200Y0080583D01*
X0218200Y0079236D01*
X0209930Y0070967D01*
X0208584Y0070967D01*
X0207261Y0070419D01*
X0206248Y0069406D01*
X0205700Y0068083D01*
X0205700Y0066651D01*
X0206248Y0065327D01*
X0207261Y0064315D01*
X0208584Y0063767D01*
X0210016Y0063767D01*
X0211339Y0064315D01*
X0212352Y0065327D01*
X0212900Y0066651D01*
X0212900Y0067997D01*
X0221170Y0076267D01*
X0222516Y0076267D01*
X0223839Y0076815D01*
X0224852Y0077827D01*
X0225400Y0079151D01*
X0225400Y0080583D01*
X0224852Y0081906D01*
X0225354Y0080694D02*
X0242157Y0080694D01*
X0240559Y0079095D02*
X0225377Y0079095D01*
X0224521Y0077497D02*
X0238960Y0077497D01*
X0237362Y0075898D02*
X0220801Y0075898D01*
X0219203Y0074300D02*
X0235763Y0074300D01*
X0234165Y0072701D02*
X0217604Y0072701D01*
X0216006Y0071103D02*
X0232566Y0071103D01*
X0230968Y0069504D02*
X0214407Y0069504D01*
X0212900Y0067906D02*
X0229369Y0067906D01*
X0227771Y0066307D02*
X0212758Y0066307D01*
X0211733Y0064709D02*
X0226172Y0064709D01*
X0224574Y0063110D02*
X0180513Y0063110D01*
X0179869Y0061512D02*
X0178915Y0061512D01*
X0177910Y0059913D02*
X0177316Y0059913D01*
X0177248Y0058315D02*
X0176352Y0058315D01*
X0176368Y0056716D02*
X0177231Y0056716D01*
X0177787Y0055118D02*
X0175813Y0055118D01*
X0174413Y0053519D02*
X0179187Y0053519D01*
X0179700Y0051921D02*
X0169324Y0051921D01*
X0168900Y0050322D02*
X0179700Y0050322D01*
X0179700Y0048723D02*
X0168900Y0048723D01*
X0168900Y0047125D02*
X0179700Y0047125D01*
X0179700Y0045526D02*
X0168900Y0045526D01*
X0168900Y0043928D02*
X0179700Y0043928D01*
X0179700Y0042329D02*
X0176675Y0042329D01*
X0174500Y0042329D02*
X0174100Y0042329D01*
X0174100Y0040731D02*
X0174500Y0040731D01*
X0174500Y0039132D02*
X0174100Y0039132D01*
X0178654Y0040731D02*
X0179700Y0040731D01*
X0179700Y0039132D02*
X0179509Y0039132D01*
X0186400Y0039132D02*
X0186591Y0039132D01*
X0186703Y0039478D02*
X0186435Y0038655D01*
X0186400Y0038431D01*
X0186400Y0045267D01*
X0217670Y0045267D01*
X0218900Y0046497D01*
X0237670Y0065267D01*
X0274952Y0065267D01*
X0274458Y0065106D01*
X0273603Y0064670D01*
X0272826Y0064106D01*
X0272147Y0063427D01*
X0271583Y0062650D01*
X0271147Y0061795D01*
X0270850Y0060882D01*
X0270700Y0059933D01*
X0270700Y0059638D01*
X0276616Y0059638D01*
X0276616Y0059269D01*
X0276984Y0059269D01*
X0276984Y0053353D01*
X0277280Y0053353D01*
X0278228Y0053503D01*
X0279142Y0053800D01*
X0279997Y0054236D01*
X0280774Y0054800D01*
X0281453Y0055479D01*
X0282017Y0056256D01*
X0282453Y0057112D01*
X0282750Y0058025D01*
X0282900Y0058973D01*
X0282900Y0059269D01*
X0276984Y0059269D01*
X0276984Y0059638D01*
X0282900Y0059638D01*
X0282900Y0059933D01*
X0282750Y0060882D01*
X0282453Y0061795D01*
X0282017Y0062650D01*
X0281453Y0063427D01*
X0280774Y0064106D01*
X0279997Y0064670D01*
X0279142Y0065106D01*
X0278648Y0065267D01*
X0280170Y0065267D01*
X0281400Y0066497D01*
X0299700Y0084797D01*
X0299700Y0060737D01*
X0282160Y0043196D01*
X0282700Y0044500D01*
X0282700Y0046847D01*
X0281802Y0049016D01*
X0280142Y0050676D01*
X0277974Y0051574D01*
X0275626Y0051574D01*
X0273458Y0050676D01*
X0271798Y0049016D01*
X0270949Y0046967D01*
X0248430Y0046967D01*
X0231451Y0029988D01*
X0231293Y0030369D01*
X0229802Y0031860D01*
X0228856Y0032252D01*
X0228911Y0032270D01*
X0229683Y0032663D01*
X0230383Y0033171D01*
X0230995Y0033784D01*
X0231504Y0034484D01*
X0231897Y0035255D01*
X0232165Y0036079D01*
X0232300Y0036934D01*
X0232300Y0037167D01*
X0227000Y0037167D01*
X0227000Y0037567D01*
X0226600Y0037567D01*
X0226600Y0042867D01*
X0226367Y0042867D01*
X0225512Y0042731D01*
X0224689Y0042464D01*
X0223917Y0042071D01*
X0223217Y0041562D01*
X0222605Y0040950D01*
X0222096Y0040249D01*
X0221703Y0039478D01*
X0221435Y0038655D01*
X0221300Y0037800D01*
X0221300Y0037567D01*
X0226600Y0037567D01*
X0226600Y0037167D01*
X0221300Y0037167D01*
X0221300Y0036934D01*
X0221435Y0036079D01*
X0221703Y0035255D01*
X0222096Y0034484D01*
X0222605Y0033784D01*
X0223217Y0033171D01*
X0223917Y0032663D01*
X0224689Y0032270D01*
X0224744Y0032252D01*
X0223798Y0031860D01*
X0222307Y0030369D01*
X0221500Y0028421D01*
X0221500Y0026312D01*
X0222307Y0024364D01*
X0223798Y0022874D01*
X0225022Y0022367D01*
X0223798Y0021860D01*
X0222307Y0020369D01*
X0221500Y0018421D01*
X0221500Y0016312D01*
X0222307Y0014364D01*
X0223798Y0012874D01*
X0225746Y0012067D01*
X0227854Y0012067D01*
X0229802Y0012874D01*
X0231293Y0014364D01*
X0232100Y0016312D01*
X0232100Y0018421D01*
X0231293Y0020369D01*
X0229802Y0021860D01*
X0228578Y0022367D01*
X0229802Y0022874D01*
X0231293Y0024364D01*
X0231667Y0025267D01*
X0232670Y0025267D01*
X0233900Y0026497D01*
X0250170Y0042767D01*
X0271618Y0042767D01*
X0271798Y0042332D01*
X0273458Y0040672D01*
X0275626Y0039774D01*
X0277974Y0039774D01*
X0279277Y0040314D01*
X0278430Y0039467D01*
X0258430Y0039467D01*
X0230930Y0011967D01*
X0187670Y0011967D01*
X0182270Y0017367D01*
X0183050Y0018147D01*
X0184700Y0016497D01*
X0185930Y0015267D01*
X0186933Y0015267D01*
X0187307Y0014364D01*
X0188798Y0012874D01*
X0190746Y0012067D01*
X0192854Y0012067D01*
X0194802Y0012874D01*
X0196293Y0014364D01*
X0197100Y0016312D01*
X0197100Y0018421D01*
X0196293Y0020369D01*
X0194802Y0021860D01*
X0193578Y0022367D01*
X0194802Y0022874D01*
X0196293Y0024364D01*
X0197100Y0026312D01*
X0197100Y0028421D01*
X0196293Y0030369D01*
X0194802Y0031860D01*
X0193856Y0032252D01*
X0193911Y0032270D01*
X0194683Y0032663D01*
X0195383Y0033171D01*
X0195995Y0033784D01*
X0196504Y0034484D01*
X0196897Y0035255D01*
X0197165Y0036079D01*
X0197300Y0036934D01*
X0197300Y0037167D01*
X0192000Y0037167D01*
X0192000Y0037567D01*
X0191600Y0037567D01*
X0191600Y0042867D01*
X0191367Y0042867D01*
X0190512Y0042731D01*
X0189689Y0042464D01*
X0188917Y0042071D01*
X0188217Y0041562D01*
X0187605Y0040950D01*
X0187096Y0040249D01*
X0186703Y0039478D01*
X0186400Y0040731D02*
X0187446Y0040731D01*
X0186400Y0042329D02*
X0189425Y0042329D01*
X0191600Y0042329D02*
X0192000Y0042329D01*
X0192000Y0042867D02*
X0192000Y0037567D01*
X0197300Y0037567D01*
X0197300Y0037800D01*
X0197165Y0038655D01*
X0196897Y0039478D01*
X0196504Y0040249D01*
X0195995Y0040950D01*
X0195383Y0041562D01*
X0194683Y0042071D01*
X0193911Y0042464D01*
X0193088Y0042731D01*
X0192233Y0042867D01*
X0192000Y0042867D01*
X0192000Y0040731D02*
X0191600Y0040731D01*
X0191600Y0039132D02*
X0192000Y0039132D01*
X0192000Y0037534D02*
X0209100Y0037534D01*
X0209100Y0037567D02*
X0209100Y0037167D01*
X0203800Y0037167D01*
X0203800Y0036934D01*
X0203935Y0036079D01*
X0204203Y0035255D01*
X0204596Y0034484D01*
X0205105Y0033784D01*
X0205717Y0033171D01*
X0206417Y0032663D01*
X0207189Y0032270D01*
X0207244Y0032252D01*
X0206298Y0031860D01*
X0204807Y0030369D01*
X0204000Y0028421D01*
X0204000Y0026312D01*
X0204807Y0024364D01*
X0206298Y0022874D01*
X0207522Y0022367D01*
X0206298Y0021860D01*
X0204807Y0020369D01*
X0204000Y0018421D01*
X0204000Y0016312D01*
X0204807Y0014364D01*
X0206298Y0012874D01*
X0208246Y0012067D01*
X0210354Y0012067D01*
X0212302Y0012874D01*
X0213793Y0014364D01*
X0214600Y0016312D01*
X0214600Y0018421D01*
X0213793Y0020369D01*
X0212302Y0021860D01*
X0211078Y0022367D01*
X0212302Y0022874D01*
X0213793Y0024364D01*
X0214600Y0026312D01*
X0214600Y0028421D01*
X0213793Y0030369D01*
X0212302Y0031860D01*
X0211356Y0032252D01*
X0211411Y0032270D01*
X0212183Y0032663D01*
X0212883Y0033171D01*
X0213495Y0033784D01*
X0214004Y0034484D01*
X0214397Y0035255D01*
X0214665Y0036079D01*
X0214800Y0036934D01*
X0214800Y0037167D01*
X0209500Y0037167D01*
X0209500Y0037567D01*
X0209100Y0037567D01*
X0209100Y0042867D01*
X0208867Y0042867D01*
X0208012Y0042731D01*
X0207189Y0042464D01*
X0206417Y0042071D01*
X0205717Y0041562D01*
X0205105Y0040950D01*
X0204596Y0040249D01*
X0204203Y0039478D01*
X0203935Y0038655D01*
X0203800Y0037800D01*
X0203800Y0037567D01*
X0209100Y0037567D01*
X0209500Y0037567D02*
X0209500Y0042867D01*
X0209733Y0042867D01*
X0210588Y0042731D01*
X0211411Y0042464D01*
X0212183Y0042071D01*
X0212883Y0041562D01*
X0213495Y0040950D01*
X0214004Y0040249D01*
X0214397Y0039478D01*
X0214665Y0038655D01*
X0214800Y0037800D01*
X0214800Y0037567D01*
X0209500Y0037567D01*
X0209500Y0037534D02*
X0226600Y0037534D01*
X0227000Y0037534D02*
X0238997Y0037534D01*
X0237399Y0035935D02*
X0232118Y0035935D01*
X0232300Y0037567D02*
X0232300Y0037800D01*
X0232165Y0038655D01*
X0231897Y0039478D01*
X0231504Y0040249D01*
X0230995Y0040950D01*
X0230383Y0041562D01*
X0229683Y0042071D01*
X0228911Y0042464D01*
X0228088Y0042731D01*
X0227233Y0042867D01*
X0227000Y0042867D01*
X0227000Y0037567D01*
X0232300Y0037567D01*
X0232009Y0039132D02*
X0240596Y0039132D01*
X0242194Y0040731D02*
X0231154Y0040731D01*
X0229175Y0042329D02*
X0243793Y0042329D01*
X0245391Y0043928D02*
X0186400Y0043928D01*
X0194175Y0042329D02*
X0206925Y0042329D01*
X0209100Y0042329D02*
X0209500Y0042329D01*
X0209500Y0040731D02*
X0209100Y0040731D01*
X0209100Y0039132D02*
X0209500Y0039132D01*
X0204946Y0040731D02*
X0196154Y0040731D01*
X0197009Y0039132D02*
X0204091Y0039132D01*
X0203982Y0035935D02*
X0197118Y0035935D01*
X0196397Y0034337D02*
X0204703Y0034337D01*
X0206313Y0032738D02*
X0194787Y0032738D01*
X0195522Y0031140D02*
X0205578Y0031140D01*
X0204464Y0029541D02*
X0196636Y0029541D01*
X0197100Y0027943D02*
X0204000Y0027943D01*
X0204000Y0026344D02*
X0197100Y0026344D01*
X0196451Y0024746D02*
X0204649Y0024746D01*
X0206024Y0023147D02*
X0195076Y0023147D01*
X0195113Y0021549D02*
X0205987Y0021549D01*
X0204634Y0019950D02*
X0196466Y0019950D01*
X0197100Y0018352D02*
X0204000Y0018352D01*
X0204000Y0016753D02*
X0197100Y0016753D01*
X0196620Y0015155D02*
X0204480Y0015155D01*
X0205615Y0013556D02*
X0195485Y0013556D01*
X0188115Y0013556D02*
X0186080Y0013556D01*
X0186980Y0015155D02*
X0184482Y0015155D01*
X0184444Y0016753D02*
X0182883Y0016753D01*
X0180141Y0013556D02*
X0177985Y0013556D01*
X0181739Y0011958D02*
X0006600Y0011958D01*
X0006600Y0010359D02*
X0183338Y0010359D01*
X0184936Y0008761D02*
X0006600Y0008761D01*
X0006600Y0034337D02*
X0006879Y0034337D01*
X0006600Y0035935D02*
X0007873Y0035935D01*
X0006600Y0037534D02*
X0010425Y0037534D01*
X0013096Y0039132D02*
X0006600Y0039132D01*
X0006600Y0040731D02*
X0014694Y0040731D01*
X0016293Y0042329D02*
X0006600Y0042329D01*
X0006600Y0043928D02*
X0017891Y0043928D01*
X0019490Y0045526D02*
X0006600Y0045526D01*
X0006600Y0047125D02*
X0021088Y0047125D01*
X0019329Y0048723D02*
X0013980Y0048723D01*
X0014179Y0048806D02*
X0015361Y0049988D01*
X0016000Y0051531D01*
X0016000Y0053202D01*
X0015361Y0054746D01*
X0014179Y0055927D01*
X0012635Y0056567D01*
X0010965Y0056567D01*
X0009421Y0055927D01*
X0008239Y0054746D01*
X0007600Y0053202D01*
X0007600Y0051531D01*
X0008239Y0049988D01*
X0009421Y0048806D01*
X0010965Y0048167D01*
X0012635Y0048167D01*
X0014179Y0048806D01*
X0015499Y0050322D02*
X0017904Y0050322D01*
X0017416Y0051921D02*
X0016000Y0051921D01*
X0015869Y0053519D02*
X0017548Y0053519D01*
X0018360Y0055118D02*
X0014989Y0055118D01*
X0021134Y0056716D02*
X0006600Y0056716D01*
X0006600Y0055118D02*
X0008611Y0055118D01*
X0007731Y0053519D02*
X0006600Y0053519D01*
X0006600Y0051921D02*
X0007600Y0051921D01*
X0008101Y0050322D02*
X0006600Y0050322D01*
X0006600Y0048723D02*
X0009620Y0048723D01*
X0025240Y0055118D02*
X0029081Y0055118D01*
X0027483Y0053519D02*
X0026052Y0053519D01*
X0008927Y0074300D02*
X0006600Y0074300D01*
X0006600Y0075898D02*
X0007862Y0075898D01*
X0007600Y0077497D02*
X0006600Y0077497D01*
X0006600Y0079095D02*
X0007970Y0079095D01*
X0009012Y0090285D02*
X0006600Y0090285D01*
X0006600Y0091883D02*
X0007299Y0091883D01*
X0006637Y0093482D02*
X0006600Y0093482D01*
X0130681Y0098277D02*
X0134741Y0098277D01*
X0136339Y0099876D02*
X0132279Y0099876D01*
X0133878Y0101474D02*
X0137938Y0101474D01*
X0138372Y0103073D02*
X0139536Y0103073D01*
X0140566Y0104671D02*
X0141135Y0104671D01*
X0141291Y0106270D02*
X0142309Y0106270D01*
X0142231Y0107868D02*
X0141368Y0107868D01*
X0140875Y0109467D02*
X0142725Y0109467D01*
X0144038Y0111065D02*
X0139562Y0111065D01*
X0137567Y0112664D02*
X0152200Y0112664D01*
X0152200Y0111065D02*
X0149562Y0111065D01*
X0150875Y0109467D02*
X0152200Y0109467D01*
X0152200Y0107868D02*
X0151368Y0107868D01*
X0151291Y0106270D02*
X0152200Y0106270D01*
X0152200Y0104671D02*
X0150566Y0104671D01*
X0152036Y0103073D02*
X0148372Y0103073D01*
X0150438Y0101474D02*
X0143878Y0101474D01*
X0142279Y0099876D02*
X0148839Y0099876D01*
X0147241Y0098277D02*
X0140681Y0098277D01*
X0139082Y0096679D02*
X0145642Y0096679D01*
X0141922Y0095080D02*
X0138900Y0095080D01*
X0138900Y0093482D02*
X0140865Y0093482D01*
X0140700Y0091883D02*
X0138900Y0091883D01*
X0138900Y0090285D02*
X0141291Y0090285D01*
X0138900Y0088686D02*
X0200150Y0088686D01*
X0198551Y0087088D02*
X0138900Y0087088D01*
X0138900Y0085489D02*
X0196953Y0085489D01*
X0195354Y0083891D02*
X0138900Y0083891D01*
X0138900Y0082292D02*
X0193756Y0082292D01*
X0192157Y0080694D02*
X0138900Y0080694D01*
X0138900Y0079095D02*
X0190559Y0079095D01*
X0188960Y0077497D02*
X0138900Y0077497D01*
X0138900Y0075898D02*
X0187362Y0075898D01*
X0185763Y0074300D02*
X0139896Y0074300D01*
X0140400Y0072701D02*
X0184165Y0072701D01*
X0182566Y0071103D02*
X0140173Y0071103D01*
X0139029Y0069504D02*
X0180968Y0069504D01*
X0183710Y0066307D02*
X0205842Y0066307D01*
X0205700Y0067906D02*
X0185309Y0067906D01*
X0186907Y0069504D02*
X0206346Y0069504D01*
X0210066Y0071103D02*
X0188506Y0071103D01*
X0190104Y0072701D02*
X0211665Y0072701D01*
X0213263Y0074300D02*
X0191703Y0074300D01*
X0193301Y0075898D02*
X0214862Y0075898D01*
X0216460Y0077497D02*
X0194900Y0077497D01*
X0196498Y0079095D02*
X0218059Y0079095D01*
X0218246Y0080694D02*
X0198097Y0080694D01*
X0199695Y0082292D02*
X0219134Y0082292D01*
X0216385Y0088686D02*
X0242511Y0088686D01*
X0240912Y0090285D02*
X0215574Y0090285D01*
X0207215Y0088686D02*
X0206089Y0088686D01*
X0207031Y0087088D02*
X0204491Y0087088D01*
X0202892Y0085489D02*
X0207405Y0085489D01*
X0208532Y0083891D02*
X0201294Y0083891D01*
X0201748Y0090285D02*
X0147309Y0090285D01*
X0147900Y0091883D02*
X0149692Y0091883D01*
X0148477Y0093482D02*
X0148385Y0093482D01*
X0153908Y0091883D02*
X0203200Y0091883D01*
X0203365Y0093482D02*
X0155123Y0093482D01*
X0155400Y0095080D02*
X0156495Y0095080D01*
X0162105Y0095080D02*
X0173995Y0095080D01*
X0173200Y0096679D02*
X0162900Y0096679D01*
X0163181Y0098277D02*
X0173281Y0098277D01*
X0174218Y0099876D02*
X0164779Y0099876D01*
X0166378Y0101474D02*
X0174700Y0101474D01*
X0174700Y0103073D02*
X0167976Y0103073D01*
X0169575Y0104671D02*
X0174700Y0104671D01*
X0174700Y0106270D02*
X0171173Y0106270D01*
X0172772Y0107868D02*
X0174700Y0107868D01*
X0174700Y0109467D02*
X0173900Y0109467D01*
X0173900Y0111065D02*
X0174700Y0111065D01*
X0174700Y0112664D02*
X0173900Y0112664D01*
X0178900Y0112664D02*
X0214127Y0112664D01*
X0214388Y0113494D02*
X0215673Y0114779D01*
X0216368Y0116458D01*
X0216368Y0118275D01*
X0215673Y0119955D01*
X0214388Y0121240D01*
X0212709Y0121935D01*
X0210891Y0121935D01*
X0209212Y0121240D01*
X0207927Y0119955D01*
X0207231Y0118275D01*
X0207231Y0116458D01*
X0207927Y0114779D01*
X0209212Y0113494D01*
X0210891Y0112798D01*
X0212709Y0112798D01*
X0214388Y0113494D01*
X0215157Y0114262D02*
X0215726Y0114262D01*
X0216121Y0115861D02*
X0217324Y0115861D01*
X0218200Y0117459D02*
X0216368Y0117459D01*
X0216044Y0119058D02*
X0218604Y0119058D01*
X0220335Y0120656D02*
X0214971Y0120656D01*
X0217343Y0123854D02*
X0191257Y0123854D01*
X0190400Y0122255D02*
X0218942Y0122255D01*
X0215745Y0125452D02*
X0192855Y0125452D01*
X0193900Y0127051D02*
X0214146Y0127051D01*
X0212548Y0128649D02*
X0193900Y0128649D01*
X0193900Y0130248D02*
X0210949Y0130248D01*
X0209351Y0131846D02*
X0193900Y0131846D01*
X0193900Y0133445D02*
X0207752Y0133445D01*
X0206154Y0135043D02*
X0193900Y0135043D01*
X0193900Y0136642D02*
X0204555Y0136642D01*
X0202957Y0138240D02*
X0193900Y0138240D01*
X0193900Y0139839D02*
X0201358Y0139839D01*
X0199760Y0141437D02*
X0193900Y0141437D01*
X0193900Y0143036D02*
X0199700Y0143036D01*
X0199700Y0144634D02*
X0193900Y0144634D01*
X0193900Y0146233D02*
X0199700Y0146233D01*
X0199700Y0147831D02*
X0193900Y0147831D01*
X0193900Y0149430D02*
X0199700Y0149430D01*
X0199700Y0151028D02*
X0193900Y0151028D01*
X0193900Y0152627D02*
X0199700Y0152627D01*
X0199700Y0154225D02*
X0193900Y0154225D01*
X0193900Y0155824D02*
X0199700Y0155824D01*
X0199700Y0157422D02*
X0193900Y0157422D01*
X0193900Y0159021D02*
X0199700Y0159021D01*
X0199700Y0160619D02*
X0193900Y0160619D01*
X0193900Y0162218D02*
X0199700Y0162218D01*
X0199700Y0163816D02*
X0193900Y0163816D01*
X0193900Y0165415D02*
X0199700Y0165415D01*
X0199700Y0167013D02*
X0193900Y0167013D01*
X0193900Y0168612D02*
X0199700Y0168612D01*
X0199700Y0170210D02*
X0193900Y0170210D01*
X0193900Y0171809D02*
X0199700Y0171809D01*
X0198264Y0173407D02*
X0193900Y0173407D01*
X0194909Y0175006D02*
X0197041Y0175006D01*
X0180885Y0151028D02*
X0178431Y0151028D01*
X0176833Y0149430D02*
X0180700Y0149430D01*
X0179295Y0147831D02*
X0175234Y0147831D01*
X0173636Y0146233D02*
X0177696Y0146233D01*
X0176098Y0144634D02*
X0172037Y0144634D01*
X0170439Y0143036D02*
X0174499Y0143036D01*
X0172901Y0141437D02*
X0168840Y0141437D01*
X0167242Y0139839D02*
X0171302Y0139839D01*
X0169704Y0138240D02*
X0165643Y0138240D01*
X0164045Y0136642D02*
X0168105Y0136642D01*
X0166507Y0135043D02*
X0162446Y0135043D01*
X0160848Y0133445D02*
X0164908Y0133445D01*
X0163310Y0131846D02*
X0159249Y0131846D01*
X0157651Y0130248D02*
X0161711Y0130248D01*
X0160113Y0128649D02*
X0156052Y0128649D01*
X0154454Y0127051D02*
X0158514Y0127051D01*
X0156916Y0125452D02*
X0152855Y0125452D01*
X0151257Y0123854D02*
X0155317Y0123854D01*
X0153719Y0122255D02*
X0149658Y0122255D01*
X0148629Y0120656D02*
X0148060Y0120656D01*
X0147556Y0119058D02*
X0146461Y0119058D01*
X0146368Y0117459D02*
X0147231Y0117459D01*
X0147479Y0115861D02*
X0146121Y0115861D01*
X0145157Y0114262D02*
X0148443Y0114262D01*
X0178900Y0111065D02*
X0209038Y0111065D01*
X0207725Y0109467D02*
X0178900Y0109467D01*
X0178900Y0107868D02*
X0207231Y0107868D01*
X0207309Y0106270D02*
X0178900Y0106270D01*
X0178900Y0104671D02*
X0208034Y0104671D01*
X0210228Y0103073D02*
X0178900Y0103073D01*
X0178900Y0101474D02*
X0209779Y0101474D01*
X0207894Y0099876D02*
X0179382Y0099876D01*
X0180319Y0098277D02*
X0207232Y0098277D01*
X0207231Y0096679D02*
X0180400Y0096679D01*
X0179605Y0095080D02*
X0204422Y0095080D01*
X0213821Y0101474D02*
X0229722Y0101474D01*
X0228124Y0103073D02*
X0213372Y0103073D01*
X0215566Y0104671D02*
X0227200Y0104671D01*
X0227200Y0106270D02*
X0216291Y0106270D01*
X0216368Y0107868D02*
X0227200Y0107868D01*
X0227200Y0109467D02*
X0216870Y0109467D01*
X0218469Y0111065D02*
X0227200Y0111065D01*
X0227200Y0112664D02*
X0220067Y0112664D01*
X0223713Y0114262D02*
X0226934Y0114262D01*
X0225336Y0115861D02*
X0225073Y0115861D01*
X0208443Y0114262D02*
X0205157Y0114262D01*
X0205673Y0114779D02*
X0204388Y0113494D01*
X0202709Y0112798D01*
X0200891Y0112798D01*
X0199212Y0113494D01*
X0197927Y0114779D01*
X0197231Y0116458D01*
X0197231Y0118275D01*
X0197927Y0119955D01*
X0199212Y0121240D01*
X0200891Y0121935D01*
X0202709Y0121935D01*
X0204388Y0121240D01*
X0205673Y0119955D01*
X0206368Y0118275D01*
X0206368Y0116458D01*
X0205673Y0114779D01*
X0206121Y0115861D02*
X0207479Y0115861D01*
X0207231Y0117459D02*
X0206368Y0117459D01*
X0206044Y0119058D02*
X0207556Y0119058D01*
X0208629Y0120656D02*
X0204971Y0120656D01*
X0198629Y0120656D02*
X0194971Y0120656D01*
X0196044Y0119058D02*
X0197556Y0119058D01*
X0197231Y0117459D02*
X0196368Y0117459D01*
X0196121Y0115861D02*
X0197479Y0115861D01*
X0198443Y0114262D02*
X0195157Y0114262D01*
X0188443Y0114262D02*
X0185157Y0114262D01*
X0186121Y0115861D02*
X0187479Y0115861D01*
X0187231Y0117459D02*
X0186368Y0117459D01*
X0215706Y0099876D02*
X0231321Y0099876D01*
X0265151Y0130248D02*
X0271941Y0130248D01*
X0271500Y0131846D02*
X0266749Y0131846D01*
X0268348Y0133445D02*
X0271510Y0133445D01*
X0272172Y0135043D02*
X0269946Y0135043D01*
X0271545Y0136642D02*
X0273580Y0136642D01*
X0273431Y0138240D02*
X0273143Y0138240D01*
X0281320Y0149430D02*
X0287280Y0149430D01*
X0286618Y0151028D02*
X0281982Y0151028D01*
X0282100Y0152627D02*
X0286500Y0152627D01*
X0286833Y0154225D02*
X0281767Y0154225D01*
X0280838Y0155824D02*
X0287762Y0155824D01*
X0289887Y0157422D02*
X0282325Y0157422D01*
X0283924Y0159021D02*
X0287651Y0159021D01*
X0298794Y0083891D02*
X0299700Y0083891D01*
X0299700Y0082292D02*
X0297195Y0082292D01*
X0295597Y0080694D02*
X0299700Y0080694D01*
X0299700Y0079095D02*
X0293998Y0079095D01*
X0292400Y0077497D02*
X0299700Y0077497D01*
X0299700Y0075898D02*
X0290801Y0075898D01*
X0289203Y0074300D02*
X0299700Y0074300D01*
X0299700Y0072701D02*
X0287604Y0072701D01*
X0286006Y0071103D02*
X0299700Y0071103D01*
X0299700Y0069504D02*
X0284407Y0069504D01*
X0282809Y0067906D02*
X0299700Y0067906D01*
X0299700Y0066307D02*
X0281210Y0066307D01*
X0281400Y0066497D02*
X0281400Y0066497D01*
X0279922Y0064709D02*
X0299700Y0064709D01*
X0299700Y0063110D02*
X0281683Y0063110D01*
X0282545Y0061512D02*
X0299700Y0061512D01*
X0298877Y0059913D02*
X0282900Y0059913D01*
X0282796Y0058315D02*
X0297278Y0058315D01*
X0295680Y0056716D02*
X0282251Y0056716D01*
X0281091Y0055118D02*
X0294081Y0055118D01*
X0292483Y0053519D02*
X0278276Y0053519D01*
X0276984Y0053519D02*
X0276616Y0053519D01*
X0276616Y0053353D02*
X0276616Y0059269D01*
X0270700Y0059269D01*
X0270700Y0058973D01*
X0270850Y0058025D01*
X0271147Y0057112D01*
X0271583Y0056256D01*
X0272147Y0055479D01*
X0272826Y0054800D01*
X0273603Y0054236D01*
X0274458Y0053800D01*
X0275372Y0053503D01*
X0276320Y0053353D01*
X0276616Y0053353D01*
X0275324Y0053519D02*
X0225922Y0053519D01*
X0224324Y0051921D02*
X0290884Y0051921D01*
X0289286Y0050322D02*
X0280496Y0050322D01*
X0281923Y0048723D02*
X0287687Y0048723D01*
X0286088Y0047125D02*
X0282585Y0047125D01*
X0282700Y0045526D02*
X0284490Y0045526D01*
X0282891Y0043928D02*
X0282463Y0043928D01*
X0285634Y0040731D02*
X0303201Y0040731D01*
X0303201Y0042329D02*
X0287233Y0042329D01*
X0288831Y0043928D02*
X0303201Y0043928D01*
X0303201Y0045526D02*
X0290430Y0045526D01*
X0292028Y0047125D02*
X0303201Y0047125D01*
X0303201Y0048723D02*
X0293627Y0048723D01*
X0295225Y0050322D02*
X0303201Y0050322D01*
X0303201Y0051921D02*
X0296824Y0051921D01*
X0298422Y0053519D02*
X0303201Y0053519D01*
X0303201Y0055118D02*
X0300021Y0055118D01*
X0301619Y0056716D02*
X0303201Y0056716D01*
X0303201Y0039132D02*
X0284036Y0039132D01*
X0282437Y0037534D02*
X0303201Y0037534D01*
X0303201Y0035935D02*
X0280839Y0035935D01*
X0279802Y0034360D02*
X0277854Y0035167D01*
X0275746Y0035167D01*
X0273798Y0034360D01*
X0272307Y0032869D01*
X0271800Y0031645D01*
X0271293Y0032869D01*
X0269802Y0034360D01*
X0267854Y0035167D01*
X0265746Y0035167D01*
X0263798Y0034360D01*
X0262307Y0032869D01*
X0261500Y0030921D01*
X0261500Y0028812D01*
X0262307Y0026864D01*
X0263798Y0025374D01*
X0265746Y0024567D01*
X0267854Y0024567D01*
X0269802Y0025374D01*
X0271293Y0026864D01*
X0271800Y0028088D01*
X0272307Y0026864D01*
X0273798Y0025374D01*
X0275746Y0024567D01*
X0277854Y0024567D01*
X0279802Y0025374D01*
X0281293Y0026864D01*
X0282100Y0028812D01*
X0282100Y0030921D01*
X0281293Y0032869D01*
X0279802Y0034360D01*
X0279825Y0034337D02*
X0303201Y0034337D01*
X0303201Y0032738D02*
X0281347Y0032738D01*
X0282009Y0031140D02*
X0303201Y0031140D01*
X0303201Y0029541D02*
X0282100Y0029541D01*
X0281740Y0027943D02*
X0303201Y0027943D01*
X0303201Y0026344D02*
X0280773Y0026344D01*
X0278287Y0024746D02*
X0303201Y0024746D01*
X0303201Y0023147D02*
X0248050Y0023147D01*
X0246452Y0021549D02*
X0303201Y0021549D01*
X0303201Y0019950D02*
X0278377Y0019950D01*
X0277854Y0020167D02*
X0279802Y0019360D01*
X0281293Y0017869D01*
X0282100Y0015921D01*
X0282100Y0013812D01*
X0281293Y0011864D01*
X0279802Y0010374D01*
X0277854Y0009567D01*
X0275746Y0009567D01*
X0273798Y0010374D01*
X0272307Y0011864D01*
X0271800Y0013088D01*
X0271293Y0011864D01*
X0269802Y0010374D01*
X0267854Y0009567D01*
X0265746Y0009567D01*
X0263798Y0010374D01*
X0262307Y0011864D01*
X0261500Y0013812D01*
X0261500Y0015921D01*
X0262307Y0017869D01*
X0263798Y0019360D01*
X0265746Y0020167D01*
X0267854Y0020167D01*
X0269802Y0019360D01*
X0271293Y0017869D01*
X0271800Y0016645D01*
X0272307Y0017869D01*
X0273798Y0019360D01*
X0275746Y0020167D01*
X0277854Y0020167D01*
X0275223Y0019950D02*
X0268377Y0019950D01*
X0270810Y0018352D02*
X0272790Y0018352D01*
X0271845Y0016753D02*
X0271755Y0016753D01*
X0271332Y0011958D02*
X0272268Y0011958D01*
X0273832Y0010359D02*
X0269768Y0010359D01*
X0263832Y0010359D02*
X0235262Y0010359D01*
X0233664Y0008761D02*
X0303201Y0008761D01*
X0303201Y0010359D02*
X0279768Y0010359D01*
X0281332Y0011958D02*
X0303201Y0011958D01*
X0303201Y0013556D02*
X0281994Y0013556D01*
X0282100Y0015155D02*
X0303201Y0015155D01*
X0303201Y0016753D02*
X0281755Y0016753D01*
X0280810Y0018352D02*
X0303201Y0018352D01*
X0275313Y0024746D02*
X0268287Y0024746D01*
X0270773Y0026344D02*
X0272827Y0026344D01*
X0271860Y0027943D02*
X0271740Y0027943D01*
X0271347Y0032738D02*
X0272253Y0032738D01*
X0273775Y0034337D02*
X0269825Y0034337D01*
X0263775Y0034337D02*
X0259240Y0034337D01*
X0257642Y0032738D02*
X0262253Y0032738D01*
X0261591Y0031140D02*
X0256043Y0031140D01*
X0254445Y0029541D02*
X0261500Y0029541D01*
X0261860Y0027943D02*
X0252846Y0027943D01*
X0251248Y0026344D02*
X0262827Y0026344D01*
X0265313Y0024746D02*
X0249649Y0024746D01*
X0246906Y0027943D02*
X0235346Y0027943D01*
X0236945Y0029541D02*
X0248505Y0029541D01*
X0250103Y0031140D02*
X0238543Y0031140D01*
X0240142Y0032738D02*
X0251702Y0032738D01*
X0253300Y0034337D02*
X0241740Y0034337D01*
X0243339Y0035935D02*
X0254899Y0035935D01*
X0256497Y0037534D02*
X0244937Y0037534D01*
X0246536Y0039132D02*
X0258096Y0039132D01*
X0249733Y0042329D02*
X0271800Y0042329D01*
X0273399Y0040731D02*
X0248134Y0040731D01*
X0246990Y0045526D02*
X0217930Y0045526D01*
X0219528Y0047125D02*
X0271015Y0047125D01*
X0271677Y0048723D02*
X0221127Y0048723D01*
X0222725Y0050322D02*
X0273104Y0050322D01*
X0272509Y0055118D02*
X0227521Y0055118D01*
X0229119Y0056716D02*
X0271348Y0056716D01*
X0270804Y0058315D02*
X0230718Y0058315D01*
X0232316Y0059913D02*
X0270700Y0059913D01*
X0271055Y0061512D02*
X0233915Y0061512D01*
X0235513Y0063110D02*
X0271917Y0063110D01*
X0273678Y0064709D02*
X0237112Y0064709D01*
X0222975Y0061512D02*
X0213731Y0061512D01*
X0214388Y0061240D02*
X0212709Y0061935D01*
X0210891Y0061935D01*
X0209212Y0061240D01*
X0207927Y0059955D01*
X0207231Y0058275D01*
X0207231Y0056458D01*
X0207927Y0054779D01*
X0209212Y0053494D01*
X0210891Y0052798D01*
X0212709Y0052798D01*
X0214388Y0053494D01*
X0215673Y0054779D01*
X0216368Y0056458D01*
X0216368Y0058275D01*
X0215673Y0059955D01*
X0214388Y0061240D01*
X0215690Y0059913D02*
X0221377Y0059913D01*
X0219778Y0058315D02*
X0216352Y0058315D01*
X0216368Y0056716D02*
X0218180Y0056716D01*
X0216581Y0055118D02*
X0215813Y0055118D01*
X0214983Y0053519D02*
X0214413Y0053519D01*
X0209187Y0053519D02*
X0208617Y0053519D01*
X0207787Y0055118D02*
X0207019Y0055118D01*
X0207231Y0056716D02*
X0206368Y0056716D01*
X0206352Y0058315D02*
X0207248Y0058315D01*
X0207910Y0059913D02*
X0205690Y0059913D01*
X0203731Y0061512D02*
X0209869Y0061512D01*
X0206867Y0064709D02*
X0182112Y0064709D01*
X0183731Y0061512D02*
X0189869Y0061512D01*
X0187910Y0059913D02*
X0185690Y0059913D01*
X0186352Y0058315D02*
X0187248Y0058315D01*
X0187231Y0056716D02*
X0186368Y0056716D01*
X0186581Y0055118D02*
X0185813Y0055118D01*
X0184983Y0053519D02*
X0184413Y0053519D01*
X0187725Y0050322D02*
X0205875Y0050322D01*
X0204276Y0051921D02*
X0189324Y0051921D01*
X0194413Y0053519D02*
X0199187Y0053519D01*
X0197787Y0055118D02*
X0195813Y0055118D01*
X0196368Y0056716D02*
X0197231Y0056716D01*
X0197248Y0058315D02*
X0196352Y0058315D01*
X0195690Y0059913D02*
X0197910Y0059913D01*
X0199869Y0061512D02*
X0193731Y0061512D01*
X0169869Y0061512D02*
X0163731Y0061512D01*
X0165690Y0059913D02*
X0167910Y0059913D01*
X0167248Y0058315D02*
X0166352Y0058315D01*
X0166368Y0056716D02*
X0167231Y0056716D01*
X0166581Y0055118D02*
X0165813Y0055118D01*
X0164983Y0053519D02*
X0164413Y0053519D01*
X0164700Y0051921D02*
X0159324Y0051921D01*
X0157725Y0050322D02*
X0164700Y0050322D01*
X0164700Y0048723D02*
X0156127Y0048723D01*
X0154528Y0047125D02*
X0164700Y0047125D01*
X0164700Y0045526D02*
X0152930Y0045526D01*
X0151400Y0043928D02*
X0164700Y0043928D01*
X0164700Y0042329D02*
X0159175Y0042329D01*
X0158911Y0042464D02*
X0158088Y0042731D01*
X0157233Y0042867D01*
X0157000Y0042867D01*
X0157000Y0037567D01*
X0162300Y0037567D01*
X0162300Y0037800D01*
X0162165Y0038655D01*
X0161897Y0039478D01*
X0161504Y0040249D01*
X0160995Y0040950D01*
X0160383Y0041562D01*
X0159683Y0042071D01*
X0158911Y0042464D01*
X0157000Y0042329D02*
X0156600Y0042329D01*
X0156600Y0040731D02*
X0157000Y0040731D01*
X0157000Y0039132D02*
X0156600Y0039132D01*
X0157000Y0037534D02*
X0164700Y0037534D01*
X0164700Y0039132D02*
X0162009Y0039132D01*
X0161154Y0040731D02*
X0164700Y0040731D01*
X0168900Y0040731D02*
X0169946Y0040731D01*
X0169091Y0039132D02*
X0168900Y0039132D01*
X0168900Y0035935D02*
X0168982Y0035935D01*
X0168900Y0034337D02*
X0169703Y0034337D01*
X0168900Y0032738D02*
X0171313Y0032738D01*
X0170578Y0031140D02*
X0168900Y0031140D01*
X0168900Y0029541D02*
X0169464Y0029541D01*
X0169000Y0027943D02*
X0168900Y0027943D01*
X0168900Y0026344D02*
X0169000Y0026344D01*
X0168900Y0024746D02*
X0169649Y0024746D01*
X0168900Y0023147D02*
X0171024Y0023147D01*
X0170987Y0021549D02*
X0168900Y0021549D01*
X0169634Y0019950D02*
X0167353Y0019950D01*
X0165755Y0018352D02*
X0169000Y0018352D01*
X0169000Y0016753D02*
X0164156Y0016753D01*
X0161620Y0015155D02*
X0169480Y0015155D01*
X0170615Y0013556D02*
X0160485Y0013556D01*
X0153115Y0013556D02*
X0142985Y0013556D01*
X0144120Y0015155D02*
X0151980Y0015155D01*
X0151500Y0016753D02*
X0146656Y0016753D01*
X0148255Y0018352D02*
X0151500Y0018352D01*
X0152134Y0019950D02*
X0149853Y0019950D01*
X0151400Y0021549D02*
X0153487Y0021549D01*
X0153524Y0023147D02*
X0151400Y0023147D01*
X0151400Y0024746D02*
X0152149Y0024746D01*
X0151500Y0026344D02*
X0151400Y0026344D01*
X0151400Y0027943D02*
X0151500Y0027943D01*
X0151400Y0029541D02*
X0151964Y0029541D01*
X0151400Y0031140D02*
X0153078Y0031140D01*
X0153813Y0032738D02*
X0151400Y0032738D01*
X0151400Y0034337D02*
X0152203Y0034337D01*
X0151482Y0035935D02*
X0151400Y0035935D01*
X0151400Y0039132D02*
X0151591Y0039132D01*
X0151400Y0040731D02*
X0152446Y0040731D01*
X0151400Y0042329D02*
X0154425Y0042329D01*
X0147200Y0039132D02*
X0144509Y0039132D01*
X0159787Y0032738D02*
X0164700Y0032738D01*
X0164700Y0031140D02*
X0160522Y0031140D01*
X0161636Y0029541D02*
X0164700Y0029541D01*
X0164700Y0027943D02*
X0162100Y0027943D01*
X0162100Y0026344D02*
X0164700Y0026344D01*
X0164700Y0024746D02*
X0161451Y0024746D01*
X0160076Y0023147D02*
X0164611Y0023147D01*
X0163012Y0021549D02*
X0160113Y0021549D01*
X0145512Y0021549D02*
X0142613Y0021549D01*
X0161397Y0034337D02*
X0164700Y0034337D01*
X0164700Y0035935D02*
X0162118Y0035935D01*
X0168900Y0042329D02*
X0171925Y0042329D01*
X0156581Y0055118D02*
X0155813Y0055118D01*
X0156368Y0056716D02*
X0157231Y0056716D01*
X0157248Y0058315D02*
X0156352Y0058315D01*
X0155690Y0059913D02*
X0157910Y0059913D01*
X0159869Y0061512D02*
X0153731Y0061512D01*
X0154413Y0053519D02*
X0154983Y0053519D01*
X0144983Y0053519D02*
X0144413Y0053519D01*
X0211675Y0042329D02*
X0224425Y0042329D01*
X0226600Y0042329D02*
X0227000Y0042329D01*
X0227000Y0040731D02*
X0226600Y0040731D01*
X0226600Y0039132D02*
X0227000Y0039132D01*
X0222446Y0040731D02*
X0213654Y0040731D01*
X0214509Y0039132D02*
X0221591Y0039132D01*
X0221482Y0035935D02*
X0214618Y0035935D01*
X0213897Y0034337D02*
X0222203Y0034337D01*
X0223813Y0032738D02*
X0212287Y0032738D01*
X0213022Y0031140D02*
X0223078Y0031140D01*
X0221964Y0029541D02*
X0214136Y0029541D01*
X0214600Y0027943D02*
X0221500Y0027943D01*
X0221500Y0026344D02*
X0214600Y0026344D01*
X0213951Y0024746D02*
X0222149Y0024746D01*
X0223524Y0023147D02*
X0212576Y0023147D01*
X0212613Y0021549D02*
X0223487Y0021549D01*
X0222134Y0019950D02*
X0213966Y0019950D01*
X0214600Y0018352D02*
X0221500Y0018352D01*
X0221500Y0016753D02*
X0214600Y0016753D01*
X0214120Y0015155D02*
X0221980Y0015155D01*
X0223115Y0013556D02*
X0212985Y0013556D01*
X0230485Y0013556D02*
X0232520Y0013556D01*
X0231620Y0015155D02*
X0234118Y0015155D01*
X0235717Y0016753D02*
X0232100Y0016753D01*
X0232100Y0018352D02*
X0237315Y0018352D01*
X0238914Y0019950D02*
X0231466Y0019950D01*
X0230113Y0021549D02*
X0240512Y0021549D01*
X0242111Y0023147D02*
X0230076Y0023147D01*
X0231451Y0024746D02*
X0243709Y0024746D01*
X0245308Y0026344D02*
X0233748Y0026344D01*
X0232603Y0031140D02*
X0230522Y0031140D01*
X0229787Y0032738D02*
X0234202Y0032738D01*
X0235800Y0034337D02*
X0231397Y0034337D01*
X0244853Y0019950D02*
X0265223Y0019950D01*
X0262790Y0018352D02*
X0243255Y0018352D01*
X0241656Y0016753D02*
X0261845Y0016753D01*
X0261500Y0015155D02*
X0240058Y0015155D01*
X0238459Y0013556D02*
X0261606Y0013556D01*
X0262268Y0011958D02*
X0236861Y0011958D01*
X0276616Y0055118D02*
X0276984Y0055118D01*
X0276984Y0056716D02*
X0276616Y0056716D01*
X0276616Y0058315D02*
X0276984Y0058315D01*
M02*
