G75*
%MOIN*%
%OFA0B0*%
%FSLAX25Y25*%
%IPPOS*%
%LPD*%
%AMOC8*
5,1,8,0,0,1.08239X$1,22.5*
%
%ADD10C,0.00000*%
%ADD11C,0.08600*%
%ADD12C,0.05200*%
%ADD13C,0.05937*%
%ADD14C,0.07400*%
%ADD15OC8,0.07000*%
%ADD16C,0.07000*%
%ADD17C,0.01000*%
%ADD18C,0.04000*%
D10*
X0001800Y0002367D02*
X0001800Y0232327D01*
X0308001Y0232327D01*
X0308001Y0002367D01*
X0001800Y0002367D01*
D11*
X0276800Y0045674D03*
X0276800Y0059453D03*
X0276800Y0073174D03*
X0276800Y0086953D03*
X0276800Y0100674D03*
X0276800Y0114453D03*
D12*
X0021800Y0077367D03*
X0011800Y0077367D03*
X0011800Y0052367D03*
X0021800Y0052367D03*
D13*
X0091800Y0062367D03*
X0101800Y0057367D03*
X0111800Y0057367D03*
X0121800Y0057367D03*
X0131800Y0057367D03*
X0141800Y0057367D03*
X0151800Y0057367D03*
X0161800Y0057367D03*
X0171800Y0057367D03*
X0181800Y0057367D03*
X0191800Y0057367D03*
X0201800Y0057367D03*
X0211800Y0057367D03*
X0211800Y0087367D03*
X0211800Y0097367D03*
X0211800Y0107367D03*
X0211800Y0117367D03*
X0201800Y0117367D03*
X0191800Y0117367D03*
X0181800Y0117367D03*
X0171800Y0117367D03*
X0161800Y0117367D03*
X0151800Y0117367D03*
X0141800Y0117367D03*
X0131800Y0117367D03*
X0121800Y0117367D03*
X0111800Y0117367D03*
X0101800Y0117367D03*
X0091800Y0112367D03*
X0091800Y0102367D03*
X0091800Y0092367D03*
X0091800Y0082367D03*
X0091800Y0072367D03*
X0136800Y0107367D03*
X0146800Y0107367D03*
D14*
X0091800Y0157367D03*
X0091800Y0167367D03*
X0091800Y0177367D03*
X0091800Y0187367D03*
X0091800Y0197367D03*
X0091800Y0207367D03*
X0091800Y0217367D03*
X0066800Y0212367D03*
X0056800Y0212367D03*
X0056800Y0202367D03*
X0066800Y0202367D03*
X0066800Y0192367D03*
X0056800Y0192367D03*
X0036800Y0187367D03*
X0026800Y0187367D03*
X0016800Y0187367D03*
X0016800Y0164867D03*
X0026800Y0164867D03*
X0036800Y0164867D03*
X0039600Y0146267D03*
X0039600Y0128467D03*
X0041800Y0114867D03*
X0041800Y0104867D03*
X0041800Y0094867D03*
X0061800Y0092367D03*
X0061800Y0102367D03*
X0061800Y0112367D03*
X0061800Y0082367D03*
X0061800Y0072367D03*
X0061800Y0062367D03*
X0101800Y0037367D03*
X0101800Y0027367D03*
X0101800Y0017367D03*
X0081800Y0032367D03*
X0071800Y0032367D03*
X0061800Y0032367D03*
X0051800Y0032367D03*
X0041800Y0032367D03*
X0031800Y0032367D03*
X0021800Y0032367D03*
X0011800Y0032367D03*
X0011800Y0094867D03*
X0011800Y0104867D03*
X0011800Y0114867D03*
X0014000Y0128467D03*
X0014000Y0146267D03*
X0016800Y0212367D03*
X0026800Y0212367D03*
X0036800Y0212367D03*
X0201800Y0187367D03*
X0201800Y0177367D03*
X0276800Y0182367D03*
X0276800Y0172367D03*
X0276800Y0162367D03*
X0276800Y0152367D03*
X0276800Y0142367D03*
X0276800Y0132367D03*
X0291800Y0132367D03*
X0291800Y0142367D03*
X0291800Y0152367D03*
X0291800Y0162367D03*
X0291800Y0172367D03*
X0291800Y0182367D03*
X0291800Y0192367D03*
X0291800Y0202367D03*
X0276800Y0202367D03*
X0276800Y0192367D03*
X0226800Y0037367D03*
X0226800Y0027367D03*
X0226800Y0017367D03*
X0209300Y0017367D03*
X0209300Y0027367D03*
X0209300Y0037367D03*
X0191800Y0037367D03*
X0191800Y0027367D03*
X0191800Y0017367D03*
X0174300Y0017367D03*
X0174300Y0027367D03*
X0174300Y0037367D03*
X0156800Y0037367D03*
X0156800Y0027367D03*
X0156800Y0017367D03*
X0139300Y0017367D03*
X0139300Y0027367D03*
X0139300Y0037367D03*
X0121800Y0037367D03*
X0121800Y0027367D03*
X0121800Y0017367D03*
X0266800Y0014867D03*
X0276800Y0014867D03*
X0276800Y0029867D03*
X0266800Y0029867D03*
D15*
X0056800Y0137367D03*
X0056800Y0167367D03*
D16*
X0066800Y0167367D03*
X0066800Y0137367D03*
D17*
X0066800Y0092367D01*
X0091800Y0092367D01*
X0091800Y0082367D02*
X0061800Y0082367D01*
X0059300Y0077367D02*
X0031800Y0049867D01*
X0031800Y0032367D01*
X0021800Y0032367D02*
X0046800Y0007367D01*
X0276800Y0007367D01*
X0296800Y0027367D01*
X0296800Y0112367D01*
X0296800Y0184867D01*
X0296800Y0204867D01*
X0274300Y0227367D01*
X0051800Y0227367D01*
X0036800Y0212367D01*
X0036800Y0204867D02*
X0036800Y0187367D01*
X0049300Y0174867D01*
X0049300Y0094867D01*
X0041800Y0094867D02*
X0014300Y0122367D01*
X0011800Y0122367D01*
X0006800Y0127367D01*
X0006800Y0192367D01*
X0026800Y0212367D01*
X0036800Y0204867D02*
X0054300Y0222367D01*
X0106800Y0222367D01*
X0126800Y0202367D01*
X0276800Y0202367D01*
X0281800Y0202367D02*
X0281800Y0204867D01*
X0279300Y0207367D01*
X0204300Y0207367D01*
X0196800Y0194867D02*
X0226800Y0194867D01*
X0259300Y0162367D01*
X0276800Y0162367D01*
X0286800Y0167367D02*
X0286800Y0107367D01*
X0284300Y0109867D02*
X0276800Y0102367D01*
X0276800Y0100674D01*
X0279300Y0094867D02*
X0274300Y0094867D01*
X0259300Y0109867D01*
X0234300Y0109867D01*
X0221800Y0097367D01*
X0211800Y0097367D01*
X0206800Y0092367D02*
X0221800Y0092367D01*
X0234300Y0104867D01*
X0239300Y0104867D02*
X0216800Y0082367D01*
X0204300Y0082367D01*
X0176800Y0109867D01*
X0169300Y0109867D01*
X0161800Y0117367D01*
X0171800Y0117367D02*
X0176800Y0112367D01*
X0256800Y0112367D01*
X0276800Y0132367D01*
X0279300Y0137367D02*
X0274300Y0137367D01*
X0224300Y0187367D01*
X0201800Y0187367D01*
X0199300Y0192367D02*
X0224300Y0192367D01*
X0264300Y0152367D01*
X0276800Y0152367D01*
X0286800Y0167367D02*
X0291800Y0172367D01*
X0296800Y0184867D02*
X0294300Y0187367D01*
X0281800Y0187367D01*
X0276800Y0192367D01*
X0281800Y0202367D02*
X0291800Y0192367D01*
X0291800Y0202367D02*
X0281800Y0212367D01*
X0131800Y0212367D01*
X0116800Y0207367D02*
X0091800Y0207367D01*
X0061800Y0207367D01*
X0056800Y0202367D01*
X0051800Y0207367D02*
X0051800Y0189867D01*
X0054300Y0187367D01*
X0091800Y0187367D01*
X0126800Y0187367D01*
X0191800Y0122367D01*
X0191800Y0117367D01*
X0186800Y0122367D02*
X0149300Y0122367D01*
X0146800Y0119867D01*
X0146800Y0107367D01*
X0136800Y0107367D02*
X0136800Y0119867D01*
X0149300Y0132367D01*
X0149300Y0159867D01*
X0159300Y0169867D02*
X0186800Y0197367D01*
X0229300Y0197367D01*
X0244300Y0182367D01*
X0276800Y0182367D01*
X0236800Y0167367D02*
X0221800Y0152367D01*
X0221800Y0117367D01*
X0211800Y0117367D02*
X0164300Y0164867D01*
X0179300Y0154867D02*
X0179300Y0177367D01*
X0196800Y0194867D01*
X0199300Y0192367D02*
X0184300Y0177367D01*
X0184300Y0149867D01*
X0186800Y0137367D02*
X0116800Y0207367D01*
X0121800Y0197367D02*
X0091800Y0197367D01*
X0086800Y0202367D01*
X0066800Y0202367D01*
X0066800Y0212367D02*
X0061800Y0217367D01*
X0054300Y0217367D01*
X0049300Y0212367D01*
X0049300Y0184867D01*
X0066800Y0167367D01*
X0066800Y0157367D01*
X0091800Y0157367D01*
X0131800Y0117367D01*
X0131800Y0104867D01*
X0134300Y0102367D01*
X0179300Y0102367D01*
X0251800Y0029867D01*
X0266800Y0029867D01*
X0266800Y0014867D01*
X0276800Y0014867D02*
X0284300Y0022367D01*
X0284300Y0064867D01*
X0276800Y0072367D01*
X0276800Y0073174D01*
X0279300Y0079867D02*
X0221800Y0079867D01*
X0209300Y0067367D02*
X0171800Y0067367D01*
X0161800Y0057367D01*
X0151800Y0057367D02*
X0176800Y0082367D01*
X0176800Y0097367D01*
X0159300Y0097367D02*
X0151800Y0089867D01*
X0146800Y0089867D01*
X0116800Y0059867D01*
X0116800Y0054867D01*
X0111800Y0049867D01*
X0099300Y0049867D01*
X0081800Y0032367D01*
X0076800Y0034867D02*
X0076800Y0029867D01*
X0074300Y0027367D01*
X0066800Y0027367D01*
X0061800Y0032367D01*
X0071800Y0032367D02*
X0071800Y0034867D01*
X0134300Y0097367D01*
X0144300Y0097367D01*
X0146800Y0094867D01*
X0151800Y0094867D01*
X0144300Y0092367D02*
X0139300Y0092367D01*
X0106800Y0059867D01*
X0106800Y0054867D01*
X0104300Y0052367D01*
X0094300Y0052367D01*
X0076800Y0034867D01*
X0081800Y0024867D02*
X0049300Y0024867D01*
X0041800Y0032367D01*
X0051800Y0032367D02*
X0051800Y0059867D01*
X0059300Y0067367D01*
X0094300Y0067367D01*
X0126800Y0099867D01*
X0126800Y0104867D01*
X0121800Y0099867D02*
X0116800Y0099867D01*
X0094300Y0077367D01*
X0059300Y0077367D01*
X0061800Y0072367D02*
X0091800Y0072367D01*
X0091800Y0062367D02*
X0061800Y0062367D01*
X0059300Y0089867D02*
X0036800Y0089867D01*
X0011800Y0114867D01*
X0011800Y0104867D02*
X0006800Y0099867D01*
X0006800Y0092367D01*
X0011800Y0087367D01*
X0011800Y0077367D01*
X0016800Y0074867D02*
X0016800Y0089867D01*
X0011800Y0094867D01*
X0016800Y0074867D02*
X0011800Y0069867D01*
X0011800Y0052367D01*
X0059300Y0089867D02*
X0061800Y0092367D01*
X0066800Y0092367D01*
X0046800Y0109867D02*
X0046800Y0167367D01*
X0026800Y0187367D01*
X0051800Y0207367D02*
X0056800Y0212367D01*
X0036800Y0164867D02*
X0036800Y0152367D01*
X0014300Y0129867D01*
X0014000Y0128467D01*
X0014300Y0129867D02*
X0039300Y0129867D01*
X0039600Y0128467D01*
X0041800Y0127367D01*
X0041800Y0114867D01*
X0046800Y0109867D02*
X0041800Y0104867D01*
X0066800Y0137367D02*
X0066800Y0157367D01*
X0121800Y0197367D02*
X0201800Y0117367D01*
X0136800Y0072367D02*
X0126800Y0062367D01*
X0126800Y0054867D01*
X0121800Y0049867D01*
X0116800Y0049867D01*
X0109300Y0042367D01*
X0099300Y0042367D01*
X0081800Y0024867D01*
X0096800Y0022367D02*
X0101800Y0017367D01*
X0096800Y0022367D02*
X0096800Y0029867D01*
X0099300Y0032367D01*
X0104300Y0032367D01*
X0119300Y0047367D01*
X0131800Y0047367D01*
X0141800Y0057367D01*
X0136800Y0047367D02*
X0179300Y0047367D01*
X0186800Y0054867D01*
X0186800Y0059867D01*
X0191800Y0064867D01*
X0206800Y0064867D01*
X0209300Y0062367D01*
X0214300Y0062367D01*
X0234300Y0042367D01*
X0234300Y0022367D01*
X0229300Y0017367D01*
X0226800Y0017367D01*
X0229300Y0022367D02*
X0214300Y0022367D01*
X0209300Y0017367D01*
X0209300Y0027367D02*
X0226800Y0027367D01*
X0229300Y0032367D02*
X0224300Y0032367D01*
X0221800Y0034867D01*
X0221800Y0037367D01*
X0201800Y0057367D01*
X0196800Y0059867D02*
X0199300Y0062367D01*
X0204300Y0062367D01*
X0209300Y0057367D01*
X0211800Y0057367D01*
X0196800Y0059867D02*
X0196800Y0052367D01*
X0176800Y0032367D01*
X0116800Y0032367D01*
X0121800Y0027367D02*
X0139300Y0027367D01*
X0156800Y0027367D01*
X0174300Y0027367D01*
X0191800Y0027367D01*
X0209300Y0027367D01*
X0229300Y0032367D02*
X0231800Y0029867D01*
X0231800Y0024867D01*
X0229300Y0022367D01*
X0276800Y0029867D02*
X0276800Y0045674D01*
X0279300Y0079867D02*
X0286800Y0087367D01*
X0286800Y0094867D01*
X0279300Y0094867D02*
X0296800Y0112367D01*
X0284300Y0109867D02*
X0284300Y0132367D01*
X0279300Y0137367D01*
X0121800Y0027367D02*
X0101800Y0027367D01*
D18*
X0116800Y0032367D03*
X0136800Y0047367D03*
X0136800Y0072367D03*
X0144300Y0092367D03*
X0151800Y0094867D03*
X0159300Y0097367D03*
X0176800Y0097367D03*
X0206800Y0092367D03*
X0221800Y0079867D03*
X0209300Y0067367D03*
X0234300Y0104867D03*
X0239300Y0104867D03*
X0221800Y0117367D03*
X0186800Y0122367D03*
X0186800Y0137367D03*
X0184300Y0149867D03*
X0179300Y0154867D03*
X0164300Y0164867D03*
X0159300Y0169867D03*
X0149300Y0159867D03*
X0204300Y0207367D03*
X0236800Y0167367D03*
X0286800Y0107367D03*
X0286800Y0094867D03*
X0131800Y0212367D03*
X0126800Y0104867D03*
X0121800Y0099867D03*
X0049300Y0094867D03*
M02*
