G75*
%MOIN*%
%OFA0B0*%
%FSLAX25Y25*%
%IPPOS*%
%LPD*%
%AMOC8*
5,1,8,0,0,1.08239X$1,22.5*
%
%ADD10C,0.00300*%
%ADD11C,0.00400*%
%ADD12C,0.00500*%
%ADD13C,0.00800*%
%ADD14C,0.00100*%
%ADD15C,0.00600*%
D10*
X0006950Y0020017D02*
X0006950Y0022485D01*
X0008184Y0023720D01*
X0009419Y0022485D01*
X0009419Y0020017D01*
X0010633Y0020017D02*
X0010633Y0020634D01*
X0013102Y0023103D01*
X0013102Y0023720D01*
X0010633Y0023720D01*
X0009419Y0021868D02*
X0006950Y0021868D01*
X0016950Y0021868D02*
X0019419Y0021868D01*
X0019419Y0022485D02*
X0019419Y0020017D01*
X0020633Y0020634D02*
X0021250Y0020017D01*
X0022485Y0020017D01*
X0023102Y0020634D01*
X0023102Y0021251D01*
X0022485Y0021868D01*
X0020633Y0021868D01*
X0020633Y0020634D01*
X0020633Y0021868D02*
X0021868Y0023103D01*
X0023102Y0023720D01*
X0019419Y0022485D02*
X0018184Y0023720D01*
X0016950Y0022485D01*
X0016950Y0020017D01*
X0026950Y0020017D02*
X0026950Y0022485D01*
X0028184Y0023720D01*
X0029419Y0022485D01*
X0029419Y0020017D01*
X0030633Y0020634D02*
X0031250Y0020017D01*
X0032485Y0020017D01*
X0033102Y0020634D01*
X0033102Y0021868D01*
X0032485Y0022485D01*
X0031868Y0022485D01*
X0030633Y0021868D01*
X0030633Y0023720D01*
X0033102Y0023720D01*
X0036950Y0022485D02*
X0038184Y0023720D01*
X0039419Y0022485D01*
X0039419Y0020017D01*
X0039419Y0021868D02*
X0036950Y0021868D01*
X0036950Y0022485D02*
X0036950Y0020017D01*
X0040633Y0021868D02*
X0042485Y0023720D01*
X0042485Y0020017D01*
X0043102Y0021868D02*
X0040633Y0021868D01*
X0046950Y0021868D02*
X0049419Y0021868D01*
X0049419Y0022485D02*
X0049419Y0020017D01*
X0050633Y0020634D02*
X0051250Y0020017D01*
X0052485Y0020017D01*
X0053102Y0020634D01*
X0053102Y0021251D01*
X0052485Y0021868D01*
X0051868Y0021868D01*
X0052485Y0021868D02*
X0053102Y0022485D01*
X0053102Y0023103D01*
X0052485Y0023720D01*
X0051250Y0023720D01*
X0050633Y0023103D01*
X0049419Y0022485D02*
X0048184Y0023720D01*
X0046950Y0022485D01*
X0046950Y0020017D01*
X0056950Y0020017D02*
X0056950Y0022485D01*
X0058184Y0023720D01*
X0059419Y0022485D01*
X0059419Y0020017D01*
X0060633Y0020017D02*
X0063102Y0022485D01*
X0063102Y0023103D01*
X0062485Y0023720D01*
X0061250Y0023720D01*
X0060633Y0023103D01*
X0059419Y0021868D02*
X0056950Y0021868D01*
X0060633Y0020017D02*
X0063102Y0020017D01*
X0066950Y0020017D02*
X0066950Y0022485D01*
X0068184Y0023720D01*
X0069419Y0022485D01*
X0069419Y0020017D01*
X0070633Y0020017D02*
X0073102Y0020017D01*
X0071868Y0020017D02*
X0071868Y0023720D01*
X0070633Y0022485D01*
X0069419Y0021868D02*
X0066950Y0021868D01*
X0076950Y0021868D02*
X0079419Y0021868D01*
X0079419Y0022485D02*
X0079419Y0020017D01*
X0080633Y0020634D02*
X0083102Y0023103D01*
X0083102Y0020634D01*
X0082485Y0020017D01*
X0081250Y0020017D01*
X0080633Y0020634D01*
X0080633Y0023103D01*
X0081250Y0023720D01*
X0082485Y0023720D01*
X0083102Y0023103D01*
X0079419Y0022485D02*
X0078184Y0023720D01*
X0076950Y0022485D01*
X0076950Y0020017D01*
X0029419Y0021868D02*
X0026950Y0021868D01*
X0044450Y0060017D02*
X0046302Y0060017D01*
X0046919Y0060634D01*
X0046919Y0063103D01*
X0046302Y0063720D01*
X0044450Y0063720D01*
X0044450Y0060017D01*
X0049368Y0060017D02*
X0049368Y0063720D01*
X0050602Y0063720D02*
X0048133Y0063720D01*
X0051816Y0063720D02*
X0053668Y0063720D01*
X0054285Y0063103D01*
X0054285Y0061868D01*
X0053668Y0061251D01*
X0051816Y0061251D01*
X0051816Y0060017D02*
X0051816Y0063720D01*
X0053051Y0061251D02*
X0054285Y0060017D01*
X0053102Y0070017D02*
X0050633Y0073720D01*
X0049419Y0073103D02*
X0049419Y0071868D01*
X0048802Y0071251D01*
X0046950Y0071251D01*
X0046950Y0070017D02*
X0046950Y0073720D01*
X0048802Y0073720D01*
X0049419Y0073103D01*
X0048184Y0071251D02*
X0049419Y0070017D01*
X0050633Y0070017D02*
X0053102Y0073720D01*
X0053102Y0080017D02*
X0050633Y0083720D01*
X0049419Y0083720D02*
X0046950Y0083720D01*
X0048184Y0083720D02*
X0048184Y0080017D01*
X0050633Y0080017D02*
X0053102Y0083720D01*
X0052485Y0090017D02*
X0053102Y0090634D01*
X0052485Y0090017D02*
X0051250Y0090017D01*
X0050633Y0090634D01*
X0050633Y0093103D01*
X0051250Y0093720D01*
X0052485Y0093720D01*
X0053102Y0093103D01*
X0054316Y0093103D02*
X0054316Y0090634D01*
X0054933Y0090017D01*
X0056168Y0090017D01*
X0056785Y0090634D01*
X0056785Y0093103D02*
X0056168Y0093720D01*
X0054933Y0093720D01*
X0054316Y0093103D01*
X0049419Y0093720D02*
X0049419Y0091251D01*
X0048184Y0090017D01*
X0046950Y0091251D01*
X0046950Y0093720D01*
X0047567Y0110017D02*
X0048802Y0110017D01*
X0049419Y0110634D01*
X0049419Y0111868D01*
X0048184Y0111868D01*
X0046950Y0110634D02*
X0047567Y0110017D01*
X0046950Y0110634D02*
X0046950Y0113103D01*
X0047567Y0113720D01*
X0048802Y0113720D01*
X0049419Y0113103D01*
X0050633Y0113720D02*
X0053102Y0110017D01*
X0053102Y0113720D01*
X0054316Y0113720D02*
X0056168Y0113720D01*
X0056785Y0113103D01*
X0056785Y0110634D01*
X0056168Y0110017D01*
X0054316Y0110017D01*
X0054316Y0113720D01*
X0050633Y0113720D02*
X0050633Y0110017D01*
X0036868Y0152517D02*
X0036868Y0156220D01*
X0038102Y0156220D02*
X0035633Y0156220D01*
X0034419Y0155603D02*
X0034419Y0154985D01*
X0033802Y0154368D01*
X0031950Y0154368D01*
X0031950Y0152517D02*
X0033802Y0152517D01*
X0034419Y0153134D01*
X0034419Y0153751D01*
X0033802Y0154368D01*
X0034419Y0155603D02*
X0033802Y0156220D01*
X0031950Y0156220D01*
X0031950Y0152517D01*
X0028102Y0153134D02*
X0028102Y0155603D01*
X0027485Y0156220D01*
X0026250Y0156220D01*
X0025633Y0155603D01*
X0025633Y0154985D01*
X0026250Y0154368D01*
X0028102Y0154368D01*
X0028102Y0153134D02*
X0027485Y0152517D01*
X0026250Y0152517D01*
X0025633Y0153134D01*
X0024419Y0153134D02*
X0024419Y0155603D01*
X0023802Y0156220D01*
X0021950Y0156220D01*
X0021950Y0152517D01*
X0023802Y0152517D01*
X0024419Y0153134D01*
X0024718Y0172517D02*
X0024718Y0174452D01*
X0026169Y0174452D01*
X0026653Y0173968D01*
X0026653Y0172517D01*
X0023707Y0173000D02*
X0023707Y0173968D01*
X0023223Y0174452D01*
X0022255Y0174452D01*
X0021772Y0173968D01*
X0021772Y0173000D01*
X0022255Y0172517D01*
X0023223Y0172517D01*
X0023707Y0173000D01*
X0020775Y0172517D02*
X0020291Y0173000D01*
X0020291Y0174935D01*
X0019807Y0174452D02*
X0020775Y0174452D01*
X0018811Y0174452D02*
X0017843Y0174452D01*
X0018327Y0174935D02*
X0018327Y0173000D01*
X0018811Y0172517D01*
X0016831Y0172517D02*
X0016831Y0174452D01*
X0014897Y0174452D02*
X0014897Y0173000D01*
X0015380Y0172517D01*
X0016831Y0172517D01*
X0013885Y0173000D02*
X0013885Y0173968D01*
X0013401Y0174452D01*
X0011950Y0174452D01*
X0011950Y0175419D02*
X0011950Y0172517D01*
X0013401Y0172517D01*
X0013885Y0173000D01*
X0013802Y0177517D02*
X0011950Y0177517D01*
X0011950Y0181220D01*
X0013802Y0181220D01*
X0014419Y0180603D01*
X0014419Y0178134D01*
X0013802Y0177517D01*
X0015633Y0178134D02*
X0018102Y0180603D01*
X0018102Y0178134D01*
X0017485Y0177517D01*
X0016250Y0177517D01*
X0015633Y0178134D01*
X0015633Y0180603D01*
X0016250Y0181220D01*
X0017485Y0181220D01*
X0018102Y0180603D01*
X0021950Y0180603D02*
X0023184Y0179368D01*
X0023184Y0177517D01*
X0023184Y0179368D02*
X0024419Y0180603D01*
X0024419Y0181220D01*
X0025633Y0181220D02*
X0025633Y0177517D01*
X0028102Y0177517D01*
X0031579Y0175903D02*
X0031579Y0175419D01*
X0031579Y0174452D02*
X0031579Y0172033D01*
X0031095Y0171549D01*
X0030611Y0171549D01*
X0032576Y0171549D02*
X0032576Y0174452D01*
X0034027Y0174452D01*
X0034511Y0173968D01*
X0034511Y0173000D01*
X0034027Y0172517D01*
X0032576Y0172517D01*
X0031950Y0177517D02*
X0031950Y0179985D01*
X0033184Y0181220D01*
X0034419Y0179985D01*
X0034419Y0177517D01*
X0035633Y0177517D02*
X0035633Y0178134D01*
X0038102Y0180603D01*
X0038102Y0181220D01*
X0035633Y0181220D01*
X0034419Y0179368D02*
X0031950Y0179368D01*
X0021950Y0180603D02*
X0021950Y0181220D01*
X0013401Y0194049D02*
X0012917Y0194049D01*
X0013401Y0194049D02*
X0013885Y0194533D01*
X0013885Y0196952D01*
X0014897Y0196468D02*
X0015380Y0196952D01*
X0016348Y0196952D01*
X0016831Y0196468D01*
X0016831Y0195984D01*
X0014897Y0195984D01*
X0014897Y0195500D02*
X0014897Y0196468D01*
X0014897Y0195500D02*
X0015380Y0195017D01*
X0016348Y0195017D01*
X0017843Y0195017D02*
X0018811Y0195017D01*
X0018327Y0195017D02*
X0018327Y0197919D01*
X0017843Y0197919D01*
X0019807Y0197919D02*
X0020291Y0197919D01*
X0020291Y0195017D01*
X0019807Y0195017D02*
X0020775Y0195017D01*
X0021772Y0195500D02*
X0022255Y0195017D01*
X0023223Y0195017D01*
X0023707Y0195500D01*
X0023707Y0196468D01*
X0023223Y0196952D01*
X0022255Y0196952D01*
X0021772Y0196468D01*
X0021772Y0195500D01*
X0024718Y0195500D02*
X0025202Y0195017D01*
X0025686Y0195500D01*
X0026169Y0195017D01*
X0026653Y0195500D01*
X0026653Y0196952D01*
X0024718Y0196952D02*
X0024718Y0195500D01*
X0030611Y0195017D02*
X0031579Y0195017D01*
X0031095Y0195017D02*
X0031095Y0197919D01*
X0030611Y0197919D01*
X0032576Y0196468D02*
X0033059Y0196952D01*
X0034027Y0196952D01*
X0034511Y0196468D01*
X0034511Y0195984D01*
X0032576Y0195984D01*
X0032576Y0195500D02*
X0032576Y0196468D01*
X0032576Y0195500D02*
X0033059Y0195017D01*
X0034027Y0195017D01*
X0035522Y0195500D02*
X0035522Y0196468D01*
X0036006Y0196952D01*
X0037457Y0196952D01*
X0037457Y0197919D02*
X0037457Y0195017D01*
X0036006Y0195017D01*
X0035522Y0195500D01*
X0036250Y0202517D02*
X0037485Y0202517D01*
X0038102Y0203134D01*
X0038102Y0203751D01*
X0037485Y0204368D01*
X0035633Y0204368D01*
X0035633Y0203134D01*
X0036250Y0202517D01*
X0034419Y0202517D02*
X0034419Y0204985D01*
X0033184Y0206220D01*
X0031950Y0204985D01*
X0031950Y0202517D01*
X0031950Y0204368D02*
X0034419Y0204368D01*
X0035633Y0204368D02*
X0036868Y0205603D01*
X0038102Y0206220D01*
X0035984Y0207517D02*
X0035984Y0210419D01*
X0035984Y0209452D02*
X0034533Y0209452D01*
X0034049Y0208968D01*
X0034049Y0208000D01*
X0034533Y0207517D01*
X0035984Y0207517D01*
X0033037Y0208484D02*
X0031102Y0208484D01*
X0031102Y0208000D02*
X0031102Y0208968D01*
X0031586Y0209452D01*
X0032554Y0209452D01*
X0033037Y0208968D01*
X0033037Y0208484D01*
X0032554Y0207517D02*
X0031586Y0207517D01*
X0031102Y0208000D01*
X0030105Y0207517D02*
X0029138Y0207517D01*
X0029622Y0207517D02*
X0029622Y0210419D01*
X0029138Y0210419D01*
X0025180Y0208968D02*
X0025180Y0207517D01*
X0025633Y0206220D02*
X0025633Y0202517D01*
X0028102Y0202517D01*
X0024419Y0203134D02*
X0024419Y0204368D01*
X0023184Y0204368D01*
X0021950Y0205603D02*
X0021950Y0203134D01*
X0022567Y0202517D01*
X0023802Y0202517D01*
X0024419Y0203134D01*
X0024419Y0205603D02*
X0023802Y0206220D01*
X0022567Y0206220D01*
X0021950Y0205603D01*
X0021750Y0207517D02*
X0020782Y0207517D01*
X0020298Y0208000D01*
X0020298Y0208968D01*
X0020782Y0209452D01*
X0021750Y0209452D01*
X0022233Y0208968D01*
X0022233Y0208484D01*
X0020298Y0208484D01*
X0019287Y0208484D02*
X0017352Y0208484D01*
X0017352Y0208000D02*
X0017352Y0208968D01*
X0017836Y0209452D01*
X0018803Y0209452D01*
X0019287Y0208968D01*
X0019287Y0208484D01*
X0018803Y0207517D02*
X0017836Y0207517D01*
X0017352Y0208000D01*
X0016348Y0209452D02*
X0015864Y0209452D01*
X0014897Y0208484D01*
X0014897Y0207517D02*
X0014897Y0209452D01*
X0013885Y0209452D02*
X0012434Y0209452D01*
X0011950Y0208968D01*
X0011950Y0208000D01*
X0012434Y0207517D01*
X0013885Y0207517D01*
X0013885Y0207033D02*
X0013885Y0209452D01*
X0013885Y0207033D02*
X0013401Y0206549D01*
X0012917Y0206549D01*
X0013802Y0206220D02*
X0011950Y0206220D01*
X0011950Y0202517D01*
X0013802Y0202517D01*
X0014419Y0203134D01*
X0014419Y0205603D01*
X0013802Y0206220D01*
X0015633Y0204985D02*
X0016868Y0206220D01*
X0016868Y0202517D01*
X0018102Y0202517D02*
X0015633Y0202517D01*
X0011950Y0196952D02*
X0011950Y0195500D01*
X0012434Y0195017D01*
X0013885Y0195017D01*
X0023245Y0207517D02*
X0023245Y0209452D01*
X0024696Y0209452D01*
X0025180Y0208968D01*
X0099450Y0208103D02*
X0099450Y0207485D01*
X0100067Y0206868D01*
X0101302Y0206868D01*
X0101919Y0206251D01*
X0101919Y0205634D01*
X0101302Y0205017D01*
X0100067Y0205017D01*
X0099450Y0205634D01*
X0099450Y0208103D02*
X0100067Y0208720D01*
X0101302Y0208720D01*
X0101919Y0208103D01*
X0103133Y0208103D02*
X0103133Y0205634D01*
X0103750Y0205017D01*
X0104985Y0205017D01*
X0105602Y0205634D01*
X0106816Y0206251D02*
X0109285Y0208720D01*
X0106816Y0208720D02*
X0106816Y0205017D01*
X0107433Y0206868D02*
X0109285Y0205017D01*
X0105602Y0208103D02*
X0104985Y0208720D01*
X0103750Y0208720D01*
X0103133Y0208103D01*
X0101905Y0215017D02*
X0101905Y0218720D01*
X0104374Y0215017D01*
X0104374Y0218720D01*
X0105589Y0218720D02*
X0108057Y0218720D01*
X0106823Y0218720D02*
X0106823Y0215017D01*
X0100684Y0215017D02*
X0099450Y0215017D01*
X0100067Y0215017D02*
X0100067Y0218720D01*
X0099450Y0218720D02*
X0100684Y0218720D01*
X0100067Y0198720D02*
X0099450Y0198103D01*
X0099450Y0197485D01*
X0100067Y0196868D01*
X0101302Y0196868D01*
X0101919Y0196251D01*
X0101919Y0195634D01*
X0101302Y0195017D01*
X0100067Y0195017D01*
X0099450Y0195634D01*
X0100067Y0198720D02*
X0101302Y0198720D01*
X0101919Y0198103D01*
X0103133Y0198720D02*
X0104368Y0198720D01*
X0103750Y0198720D02*
X0103750Y0195017D01*
X0103133Y0195017D02*
X0104368Y0195017D01*
X0104985Y0188720D02*
X0105602Y0188103D01*
X0105602Y0185634D01*
X0104985Y0185017D01*
X0103750Y0185017D01*
X0103133Y0185634D01*
X0103133Y0188103D01*
X0103750Y0188720D01*
X0104985Y0188720D01*
X0101919Y0188103D02*
X0101302Y0188720D01*
X0100067Y0188720D01*
X0099450Y0188103D01*
X0099450Y0187485D01*
X0100067Y0186868D01*
X0101302Y0186868D01*
X0101919Y0186251D01*
X0101919Y0185634D01*
X0101302Y0185017D01*
X0100067Y0185017D01*
X0099450Y0185634D01*
X0100067Y0178720D02*
X0099450Y0178103D01*
X0099450Y0175634D01*
X0100067Y0175017D01*
X0101302Y0175017D01*
X0101919Y0175634D01*
X0103133Y0175634D02*
X0103750Y0175017D01*
X0104985Y0175017D01*
X0105602Y0175634D01*
X0105602Y0176251D01*
X0104985Y0176868D01*
X0103750Y0176868D01*
X0103133Y0177485D01*
X0103133Y0178103D01*
X0103750Y0178720D01*
X0104985Y0178720D01*
X0105602Y0178103D01*
X0101919Y0178103D02*
X0101302Y0178720D01*
X0100067Y0178720D01*
X0100067Y0168720D02*
X0099450Y0168103D01*
X0099450Y0165634D01*
X0100067Y0165017D01*
X0101302Y0165017D01*
X0101919Y0165634D01*
X0101919Y0166868D01*
X0100684Y0166868D01*
X0101919Y0168103D02*
X0101302Y0168720D01*
X0100067Y0168720D01*
X0103133Y0168720D02*
X0105602Y0165017D01*
X0105602Y0168720D01*
X0106816Y0168720D02*
X0108668Y0168720D01*
X0109285Y0168103D01*
X0109285Y0165634D01*
X0108668Y0165017D01*
X0106816Y0165017D01*
X0106816Y0168720D01*
X0103133Y0168720D02*
X0103133Y0165017D01*
X0103750Y0158720D02*
X0103133Y0158103D01*
X0103133Y0155634D01*
X0103750Y0155017D01*
X0104985Y0155017D01*
X0105602Y0155634D01*
X0106816Y0155634D02*
X0107433Y0155017D01*
X0108668Y0155017D01*
X0109285Y0155634D01*
X0109285Y0158103D02*
X0108668Y0158720D01*
X0107433Y0158720D01*
X0106816Y0158103D01*
X0106816Y0155634D01*
X0105602Y0158103D02*
X0104985Y0158720D01*
X0103750Y0158720D01*
X0101919Y0158720D02*
X0101919Y0156251D01*
X0100684Y0155017D01*
X0099450Y0156251D01*
X0099450Y0158720D01*
X0264450Y0160017D02*
X0264450Y0161952D01*
X0265417Y0162919D01*
X0266385Y0161952D01*
X0266385Y0160017D01*
X0267397Y0160500D02*
X0267880Y0160017D01*
X0268848Y0160017D01*
X0269331Y0160500D01*
X0269331Y0160984D01*
X0268848Y0161468D01*
X0268364Y0161468D01*
X0268848Y0161468D02*
X0269331Y0161952D01*
X0269331Y0162435D01*
X0268848Y0162919D01*
X0267880Y0162919D01*
X0267397Y0162435D01*
X0266385Y0161468D02*
X0264450Y0161468D01*
X0265417Y0152919D02*
X0266385Y0151952D01*
X0266385Y0150017D01*
X0267397Y0150017D02*
X0269331Y0151952D01*
X0269331Y0152435D01*
X0268848Y0152919D01*
X0267880Y0152919D01*
X0267397Y0152435D01*
X0266385Y0151468D02*
X0264450Y0151468D01*
X0264450Y0151952D02*
X0265417Y0152919D01*
X0264450Y0151952D02*
X0264450Y0150017D01*
X0267397Y0150017D02*
X0269331Y0150017D01*
X0268364Y0142919D02*
X0268364Y0140017D01*
X0267397Y0140017D02*
X0269331Y0140017D01*
X0267397Y0141952D02*
X0268364Y0142919D01*
X0266385Y0141952D02*
X0266385Y0140017D01*
X0266385Y0141468D02*
X0264450Y0141468D01*
X0264450Y0141952D02*
X0265417Y0142919D01*
X0266385Y0141952D01*
X0264450Y0141952D02*
X0264450Y0140017D01*
X0265417Y0132919D02*
X0266385Y0131952D01*
X0266385Y0130017D01*
X0267397Y0130500D02*
X0269331Y0132435D01*
X0269331Y0130500D01*
X0268848Y0130017D01*
X0267880Y0130017D01*
X0267397Y0130500D01*
X0267397Y0132435D01*
X0267880Y0132919D01*
X0268848Y0132919D01*
X0269331Y0132435D01*
X0266385Y0131468D02*
X0264450Y0131468D01*
X0264450Y0131952D02*
X0265417Y0132919D01*
X0264450Y0131952D02*
X0264450Y0130017D01*
X0299450Y0130017D02*
X0300901Y0130017D01*
X0301385Y0130500D01*
X0301385Y0132435D01*
X0300901Y0132919D01*
X0299450Y0132919D01*
X0299450Y0130017D01*
X0302397Y0130500D02*
X0302397Y0130984D01*
X0302880Y0131468D01*
X0303848Y0131468D01*
X0304331Y0130984D01*
X0304331Y0130500D01*
X0303848Y0130017D01*
X0302880Y0130017D01*
X0302397Y0130500D01*
X0302880Y0131468D02*
X0302397Y0131952D01*
X0302397Y0132435D01*
X0302880Y0132919D01*
X0303848Y0132919D01*
X0304331Y0132435D01*
X0304331Y0131952D01*
X0303848Y0131468D01*
X0302397Y0140017D02*
X0302397Y0140500D01*
X0304331Y0142435D01*
X0304331Y0142919D01*
X0302397Y0142919D01*
X0301385Y0142435D02*
X0300901Y0142919D01*
X0299450Y0142919D01*
X0299450Y0140017D01*
X0300901Y0140017D01*
X0301385Y0140500D01*
X0301385Y0142435D01*
X0300901Y0150017D02*
X0299450Y0150017D01*
X0299450Y0152919D01*
X0300901Y0152919D01*
X0301385Y0152435D01*
X0301385Y0150500D01*
X0300901Y0150017D01*
X0302397Y0150500D02*
X0302880Y0150017D01*
X0303848Y0150017D01*
X0304331Y0150500D01*
X0304331Y0150984D01*
X0303848Y0151468D01*
X0302397Y0151468D01*
X0302397Y0150500D01*
X0302397Y0151468D02*
X0303364Y0152435D01*
X0304331Y0152919D01*
X0303848Y0160017D02*
X0302880Y0160017D01*
X0302397Y0160500D01*
X0302397Y0161468D02*
X0303364Y0161952D01*
X0303848Y0161952D01*
X0304331Y0161468D01*
X0304331Y0160500D01*
X0303848Y0160017D01*
X0302397Y0161468D02*
X0302397Y0162919D01*
X0304331Y0162919D01*
X0301385Y0162435D02*
X0301385Y0160500D01*
X0300901Y0160017D01*
X0299450Y0160017D01*
X0299450Y0162919D01*
X0300901Y0162919D01*
X0301385Y0162435D01*
X0300901Y0170017D02*
X0299450Y0170017D01*
X0299450Y0172919D01*
X0300901Y0172919D01*
X0301385Y0172435D01*
X0301385Y0170500D01*
X0300901Y0170017D01*
X0302397Y0171468D02*
X0304331Y0171468D01*
X0303848Y0172919D02*
X0302397Y0171468D01*
X0303848Y0170017D02*
X0303848Y0172919D01*
X0303848Y0180017D02*
X0302880Y0180017D01*
X0302397Y0180500D01*
X0301385Y0180500D02*
X0301385Y0182435D01*
X0300901Y0182919D01*
X0299450Y0182919D01*
X0299450Y0180017D01*
X0300901Y0180017D01*
X0301385Y0180500D01*
X0302397Y0182435D02*
X0302880Y0182919D01*
X0303848Y0182919D01*
X0304331Y0182435D01*
X0304331Y0181952D01*
X0303848Y0181468D01*
X0304331Y0180984D01*
X0304331Y0180500D01*
X0303848Y0180017D01*
X0303848Y0181468D02*
X0303364Y0181468D01*
X0302397Y0192517D02*
X0304331Y0194452D01*
X0304331Y0194935D01*
X0303848Y0195419D01*
X0302880Y0195419D01*
X0302397Y0194935D01*
X0301385Y0194935D02*
X0300901Y0195419D01*
X0299450Y0195419D01*
X0299450Y0192517D01*
X0300901Y0192517D01*
X0301385Y0193000D01*
X0301385Y0194935D01*
X0302397Y0192517D02*
X0304331Y0192517D01*
X0304331Y0202517D02*
X0302397Y0202517D01*
X0303364Y0202517D02*
X0303364Y0205419D01*
X0302397Y0204452D01*
X0301385Y0204935D02*
X0300901Y0205419D01*
X0299450Y0205419D01*
X0299450Y0202517D01*
X0300901Y0202517D01*
X0301385Y0203000D01*
X0301385Y0204935D01*
X0269331Y0202919D02*
X0269331Y0202435D01*
X0267397Y0200500D01*
X0267397Y0200017D01*
X0266385Y0200017D02*
X0266385Y0201952D01*
X0265417Y0202919D01*
X0264450Y0201952D01*
X0264450Y0200017D01*
X0264450Y0201468D02*
X0266385Y0201468D01*
X0267397Y0202919D02*
X0269331Y0202919D01*
X0269331Y0192919D02*
X0268364Y0192435D01*
X0267397Y0191468D01*
X0268848Y0191468D01*
X0269331Y0190984D01*
X0269331Y0190500D01*
X0268848Y0190017D01*
X0267880Y0190017D01*
X0267397Y0190500D01*
X0267397Y0191468D01*
X0266385Y0191468D02*
X0264450Y0191468D01*
X0264450Y0191952D02*
X0265417Y0192919D01*
X0266385Y0191952D01*
X0266385Y0190017D01*
X0264450Y0190017D02*
X0264450Y0191952D01*
X0265417Y0182919D02*
X0266385Y0181952D01*
X0266385Y0180017D01*
X0267397Y0180500D02*
X0267880Y0180017D01*
X0268848Y0180017D01*
X0269331Y0180500D01*
X0269331Y0181468D01*
X0268848Y0181952D01*
X0268364Y0181952D01*
X0267397Y0181468D01*
X0267397Y0182919D01*
X0269331Y0182919D01*
X0266385Y0181468D02*
X0264450Y0181468D01*
X0264450Y0181952D02*
X0265417Y0182919D01*
X0264450Y0181952D02*
X0264450Y0180017D01*
X0265417Y0172919D02*
X0266385Y0171952D01*
X0266385Y0170017D01*
X0266385Y0171468D02*
X0264450Y0171468D01*
X0264450Y0171952D02*
X0265417Y0172919D01*
X0264450Y0171952D02*
X0264450Y0170017D01*
X0267397Y0171468D02*
X0269331Y0171468D01*
X0268848Y0172919D02*
X0267397Y0171468D01*
X0268848Y0170017D02*
X0268848Y0172919D01*
X0282917Y0035219D02*
X0283885Y0035219D01*
X0283401Y0035219D02*
X0283401Y0032800D01*
X0282917Y0032317D01*
X0282434Y0032317D01*
X0281950Y0032800D01*
X0284897Y0032317D02*
X0284897Y0035219D01*
X0286348Y0035219D01*
X0286831Y0034735D01*
X0286831Y0033768D01*
X0286348Y0033284D01*
X0284897Y0033284D01*
X0284897Y0030419D02*
X0284897Y0027517D01*
X0286831Y0027517D01*
X0287843Y0027517D02*
X0287843Y0030419D01*
X0289294Y0030419D01*
X0289778Y0029935D01*
X0289778Y0028968D01*
X0289294Y0028484D01*
X0287843Y0028484D01*
X0288811Y0028484D02*
X0289778Y0027517D01*
X0290790Y0028484D02*
X0291757Y0027517D01*
X0292725Y0028484D01*
X0292725Y0030419D01*
X0293736Y0029935D02*
X0293736Y0028000D01*
X0294220Y0027517D01*
X0295187Y0027517D01*
X0295671Y0028000D01*
X0295671Y0029935D01*
X0295187Y0030419D01*
X0294220Y0030419D01*
X0293736Y0029935D01*
X0294220Y0032317D02*
X0295187Y0032317D01*
X0295671Y0032800D01*
X0296683Y0032800D02*
X0297166Y0032317D01*
X0298134Y0032317D01*
X0298618Y0032800D01*
X0298618Y0034735D02*
X0298134Y0035219D01*
X0297166Y0035219D01*
X0296683Y0034735D01*
X0296683Y0032800D01*
X0295671Y0034735D02*
X0295187Y0035219D01*
X0294220Y0035219D01*
X0293736Y0034735D01*
X0293736Y0032800D01*
X0294220Y0032317D01*
X0292725Y0033284D02*
X0292725Y0035219D01*
X0292725Y0033284D02*
X0291757Y0032317D01*
X0290790Y0033284D01*
X0290790Y0035219D01*
X0290790Y0030419D02*
X0290790Y0028484D01*
X0286831Y0030419D02*
X0284897Y0030419D01*
X0283885Y0029935D02*
X0283401Y0030419D01*
X0282434Y0030419D01*
X0281950Y0029935D01*
X0281950Y0029452D01*
X0282434Y0028968D01*
X0283401Y0028968D01*
X0283885Y0028484D01*
X0283885Y0028000D01*
X0283401Y0027517D01*
X0282434Y0027517D01*
X0281950Y0028000D01*
X0284897Y0028968D02*
X0285864Y0028968D01*
X0276919Y0021220D02*
X0276919Y0018751D01*
X0275684Y0017517D01*
X0274450Y0018751D01*
X0274450Y0021220D01*
X0271785Y0020603D02*
X0271168Y0021220D01*
X0269933Y0021220D01*
X0269316Y0020603D01*
X0269316Y0018134D01*
X0269933Y0017517D01*
X0271168Y0017517D01*
X0271785Y0018134D01*
X0268102Y0018134D02*
X0267485Y0017517D01*
X0266250Y0017517D01*
X0265633Y0018134D01*
X0265633Y0020603D01*
X0266250Y0021220D01*
X0267485Y0021220D01*
X0268102Y0020603D01*
X0264419Y0021220D02*
X0264419Y0018751D01*
X0263184Y0017517D01*
X0261950Y0018751D01*
X0261950Y0021220D01*
X0278133Y0019368D02*
X0280602Y0019368D01*
X0279368Y0020603D02*
X0279368Y0018134D01*
X0281950Y0017800D02*
X0282434Y0017317D01*
X0282917Y0017317D01*
X0283401Y0017800D01*
X0283401Y0020219D01*
X0282917Y0020219D02*
X0283885Y0020219D01*
X0284897Y0020219D02*
X0284897Y0017317D01*
X0284897Y0018284D02*
X0286348Y0018284D01*
X0286831Y0018768D01*
X0286831Y0019735D01*
X0286348Y0020219D01*
X0284897Y0020219D01*
X0284897Y0015419D02*
X0286348Y0015419D01*
X0286831Y0014935D01*
X0286831Y0014452D01*
X0286348Y0013968D01*
X0284897Y0013968D01*
X0283885Y0014935D02*
X0283401Y0015419D01*
X0282434Y0015419D01*
X0281950Y0014935D01*
X0281950Y0013000D01*
X0282434Y0012517D01*
X0283401Y0012517D01*
X0283885Y0013000D01*
X0284897Y0012517D02*
X0284897Y0015419D01*
X0286348Y0013968D02*
X0286831Y0013484D01*
X0286831Y0013000D01*
X0286348Y0012517D01*
X0284897Y0012517D01*
X0287843Y0013000D02*
X0287843Y0015419D01*
X0289778Y0015419D02*
X0289778Y0013000D01*
X0289294Y0012517D01*
X0288327Y0012517D01*
X0287843Y0013000D01*
X0290790Y0013000D02*
X0291273Y0012517D01*
X0292241Y0012517D01*
X0292725Y0013000D01*
X0292725Y0013484D01*
X0292241Y0013968D01*
X0291273Y0013968D01*
X0290790Y0014452D01*
X0290790Y0014935D01*
X0291273Y0015419D01*
X0292241Y0015419D01*
X0292725Y0014935D01*
X0291757Y0017317D02*
X0292725Y0018284D01*
X0292725Y0020219D01*
X0293736Y0019735D02*
X0293736Y0017800D01*
X0294220Y0017317D01*
X0295187Y0017317D01*
X0295671Y0017800D01*
X0296683Y0017800D02*
X0296683Y0019735D01*
X0297166Y0020219D01*
X0298134Y0020219D01*
X0298618Y0019735D01*
X0298618Y0017800D02*
X0298134Y0017317D01*
X0297166Y0017317D01*
X0296683Y0017800D01*
X0295671Y0019735D02*
X0295187Y0020219D01*
X0294220Y0020219D01*
X0293736Y0019735D01*
X0290790Y0020219D02*
X0290790Y0018284D01*
X0291757Y0017317D01*
D11*
X0261915Y0032150D02*
X0261915Y0035219D01*
X0261915Y0036754D02*
X0257311Y0039823D01*
X0257311Y0041358D02*
X0257311Y0044427D01*
X0257311Y0042893D02*
X0261915Y0042893D01*
X0261915Y0039823D02*
X0257311Y0036754D01*
X0257311Y0035219D02*
X0257311Y0032150D01*
X0261915Y0032150D01*
X0259613Y0032150D02*
X0259613Y0033685D01*
X0249277Y0035834D02*
X0248510Y0035067D01*
X0246208Y0035067D01*
X0246208Y0039671D01*
X0248510Y0039671D01*
X0249277Y0038903D01*
X0249277Y0035834D01*
X0244673Y0035067D02*
X0244673Y0039671D01*
X0241604Y0039671D02*
X0244673Y0035067D01*
X0241604Y0035067D02*
X0241604Y0039671D01*
X0240069Y0038903D02*
X0239302Y0039671D01*
X0237767Y0039671D01*
X0237000Y0038903D01*
X0237000Y0035834D01*
X0237767Y0035067D01*
X0239302Y0035067D01*
X0240069Y0035834D01*
X0240069Y0037369D01*
X0238535Y0037369D01*
X0257311Y0050566D02*
X0260380Y0050566D01*
X0261915Y0052100D01*
X0260380Y0053635D01*
X0257311Y0053635D01*
X0258078Y0055170D02*
X0261148Y0055170D01*
X0261915Y0055937D01*
X0261915Y0057472D01*
X0261148Y0058239D01*
X0262000Y0058334D02*
X0262767Y0057567D01*
X0264302Y0057567D01*
X0265069Y0058334D01*
X0265069Y0059869D01*
X0263535Y0059869D01*
X0261915Y0060541D02*
X0261915Y0062076D01*
X0261148Y0062843D01*
X0262000Y0061403D02*
X0262000Y0058334D01*
X0261148Y0059774D02*
X0258078Y0059774D01*
X0257311Y0060541D01*
X0257311Y0062076D01*
X0258078Y0062843D01*
X0262000Y0061403D02*
X0262767Y0062171D01*
X0264302Y0062171D01*
X0265069Y0061403D01*
X0266604Y0062171D02*
X0269673Y0057567D01*
X0269673Y0062171D01*
X0271208Y0062171D02*
X0273510Y0062171D01*
X0274277Y0061403D01*
X0274277Y0058334D01*
X0273510Y0057567D01*
X0271208Y0057567D01*
X0271208Y0062171D01*
X0266604Y0062171D02*
X0266604Y0057567D01*
X0261915Y0060541D02*
X0261148Y0059774D01*
X0258078Y0058239D02*
X0257311Y0057472D01*
X0257311Y0055937D01*
X0258078Y0055170D01*
X0262682Y0049031D02*
X0262682Y0045962D01*
X0292000Y0044869D02*
X0293535Y0045636D01*
X0294302Y0045636D01*
X0295069Y0044869D01*
X0295069Y0043334D01*
X0294302Y0042567D01*
X0292767Y0042567D01*
X0292000Y0043334D01*
X0292000Y0044869D02*
X0292000Y0047171D01*
X0295069Y0047171D01*
X0296604Y0047171D02*
X0296604Y0044101D01*
X0298139Y0042567D01*
X0299673Y0044101D01*
X0299673Y0047171D01*
X0299673Y0057567D02*
X0299673Y0062171D01*
X0301208Y0062171D02*
X0303510Y0062171D01*
X0304277Y0061403D01*
X0304277Y0058334D01*
X0303510Y0057567D01*
X0301208Y0057567D01*
X0301208Y0062171D01*
X0296604Y0062171D02*
X0296604Y0057567D01*
X0295069Y0058334D02*
X0295069Y0059869D01*
X0293535Y0059869D01*
X0295069Y0061403D02*
X0294302Y0062171D01*
X0292767Y0062171D01*
X0292000Y0061403D01*
X0292000Y0058334D01*
X0292767Y0057567D01*
X0294302Y0057567D01*
X0295069Y0058334D01*
X0296604Y0062171D02*
X0299673Y0057567D01*
X0298139Y0072567D02*
X0299673Y0074101D01*
X0299673Y0077171D01*
X0296604Y0077171D02*
X0296604Y0074101D01*
X0298139Y0072567D01*
X0295069Y0073334D02*
X0294302Y0072567D01*
X0292767Y0072567D01*
X0292000Y0073334D01*
X0292000Y0074869D02*
X0293535Y0075636D01*
X0294302Y0075636D01*
X0295069Y0074869D01*
X0295069Y0073334D01*
X0292000Y0074869D02*
X0292000Y0077171D01*
X0295069Y0077171D01*
X0297000Y0085067D02*
X0300069Y0085067D01*
X0297000Y0085067D02*
X0297000Y0089671D01*
X0297000Y0097567D02*
X0297000Y0102171D01*
X0297000Y0099869D02*
X0300069Y0099869D01*
X0300069Y0102171D02*
X0300069Y0097567D01*
X0299673Y0112567D02*
X0299673Y0117171D01*
X0301208Y0117171D02*
X0303510Y0117171D01*
X0304277Y0116403D01*
X0304277Y0113334D01*
X0303510Y0112567D01*
X0301208Y0112567D01*
X0301208Y0117171D01*
X0296604Y0117171D02*
X0296604Y0112567D01*
X0295069Y0113334D02*
X0295069Y0114869D01*
X0293535Y0114869D01*
X0295069Y0116403D02*
X0294302Y0117171D01*
X0292767Y0117171D01*
X0292000Y0116403D01*
X0292000Y0113334D01*
X0292767Y0112567D01*
X0294302Y0112567D01*
X0295069Y0113334D01*
X0296604Y0117171D02*
X0299673Y0112567D01*
X0261915Y0111704D02*
X0261148Y0112472D01*
X0257311Y0112472D01*
X0257311Y0113239D02*
X0257311Y0111704D01*
X0261148Y0110170D02*
X0261915Y0110937D01*
X0261915Y0111704D01*
X0261915Y0114774D02*
X0261915Y0117843D01*
X0261915Y0116308D02*
X0257311Y0116308D01*
X0258846Y0114774D01*
X0258846Y0090343D02*
X0258078Y0090343D01*
X0257311Y0089576D01*
X0257311Y0088041D01*
X0258078Y0087274D01*
X0257311Y0085739D02*
X0257311Y0084204D01*
X0257311Y0084972D02*
X0261148Y0084972D01*
X0261915Y0084204D01*
X0261915Y0083437D01*
X0261148Y0082670D01*
X0261915Y0087274D02*
X0258846Y0090343D01*
X0261915Y0090343D02*
X0261915Y0087274D01*
X0228139Y0012171D02*
X0228139Y0007567D01*
X0229673Y0007567D02*
X0226604Y0007567D01*
X0225069Y0008334D02*
X0225069Y0011403D01*
X0224302Y0012171D01*
X0222000Y0012171D01*
X0222000Y0007567D01*
X0224302Y0007567D01*
X0225069Y0008334D01*
X0226604Y0010636D02*
X0228139Y0012171D01*
X0214673Y0011403D02*
X0214673Y0010636D01*
X0213906Y0009869D01*
X0212371Y0009869D01*
X0211604Y0010636D01*
X0211604Y0011403D01*
X0212371Y0012171D01*
X0213906Y0012171D01*
X0214673Y0011403D01*
X0213906Y0009869D02*
X0214673Y0009101D01*
X0214673Y0008334D01*
X0213906Y0007567D01*
X0212371Y0007567D01*
X0211604Y0008334D01*
X0211604Y0009101D01*
X0212371Y0009869D01*
X0210069Y0008334D02*
X0210069Y0011403D01*
X0209302Y0012171D01*
X0207000Y0012171D01*
X0207000Y0007567D01*
X0209302Y0007567D01*
X0210069Y0008334D01*
X0197173Y0011403D02*
X0194104Y0008334D01*
X0194104Y0007567D01*
X0192569Y0008334D02*
X0192569Y0011403D01*
X0191802Y0012171D01*
X0189500Y0012171D01*
X0189500Y0007567D01*
X0191802Y0007567D01*
X0192569Y0008334D01*
X0197173Y0011403D02*
X0197173Y0012171D01*
X0194104Y0012171D01*
X0177173Y0012171D02*
X0175639Y0011403D01*
X0174104Y0009869D01*
X0176406Y0009869D01*
X0177173Y0009101D01*
X0177173Y0008334D01*
X0176406Y0007567D01*
X0174871Y0007567D01*
X0174104Y0008334D01*
X0174104Y0009869D01*
X0172569Y0008334D02*
X0172569Y0011403D01*
X0171802Y0012171D01*
X0169500Y0012171D01*
X0169500Y0007567D01*
X0171802Y0007567D01*
X0172569Y0008334D01*
X0159673Y0008334D02*
X0158906Y0007567D01*
X0157371Y0007567D01*
X0156604Y0008334D01*
X0156604Y0009869D02*
X0158139Y0010636D01*
X0158906Y0010636D01*
X0159673Y0009869D01*
X0159673Y0008334D01*
X0156604Y0009869D02*
X0156604Y0012171D01*
X0159673Y0012171D01*
X0155069Y0011403D02*
X0154302Y0012171D01*
X0152000Y0012171D01*
X0152000Y0007567D01*
X0154302Y0007567D01*
X0155069Y0008334D01*
X0155069Y0011403D01*
X0142173Y0009869D02*
X0139104Y0009869D01*
X0141406Y0012171D01*
X0141406Y0007567D01*
X0137569Y0008334D02*
X0137569Y0011403D01*
X0136802Y0012171D01*
X0134500Y0012171D01*
X0134500Y0007567D01*
X0136802Y0007567D01*
X0137569Y0008334D01*
X0124673Y0008334D02*
X0123906Y0007567D01*
X0122371Y0007567D01*
X0121604Y0008334D01*
X0120069Y0008334D02*
X0120069Y0011403D01*
X0119302Y0012171D01*
X0117000Y0012171D01*
X0117000Y0007567D01*
X0119302Y0007567D01*
X0120069Y0008334D01*
X0121604Y0011403D02*
X0122371Y0012171D01*
X0123906Y0012171D01*
X0124673Y0011403D01*
X0124673Y0010636D01*
X0123906Y0009869D01*
X0124673Y0009101D01*
X0124673Y0008334D01*
X0123906Y0009869D02*
X0123139Y0009869D01*
X0107173Y0010636D02*
X0107173Y0011403D01*
X0106406Y0012171D01*
X0104871Y0012171D01*
X0104104Y0011403D01*
X0102569Y0011403D02*
X0101802Y0012171D01*
X0099500Y0012171D01*
X0099500Y0007567D01*
X0101802Y0007567D01*
X0102569Y0008334D01*
X0102569Y0011403D01*
X0104104Y0007567D02*
X0107173Y0010636D01*
X0107173Y0007567D02*
X0104104Y0007567D01*
X0031600Y0063334D02*
X0031600Y0064869D01*
X0030833Y0065636D01*
X0029298Y0065636D01*
X0029298Y0064101D01*
X0027763Y0062567D02*
X0030833Y0062567D01*
X0031600Y0063334D01*
X0027763Y0062567D02*
X0026996Y0063334D01*
X0026996Y0064869D01*
X0027763Y0065636D01*
X0027763Y0077567D02*
X0029298Y0079101D01*
X0031600Y0079101D01*
X0029298Y0079101D02*
X0027763Y0080636D01*
X0026996Y0080636D01*
X0026996Y0077567D02*
X0027763Y0077567D01*
X0071996Y0077171D02*
X0076600Y0077171D01*
X0076600Y0080240D01*
X0076600Y0081775D02*
X0071996Y0081775D01*
X0071996Y0084076D01*
X0072763Y0084844D01*
X0074298Y0084844D01*
X0075065Y0084076D01*
X0075065Y0081775D01*
X0075065Y0083309D02*
X0076600Y0084844D01*
X0076600Y0086378D02*
X0076600Y0087913D01*
X0076600Y0087146D02*
X0071996Y0087146D01*
X0071996Y0087913D02*
X0071996Y0086378D01*
X0073531Y0089448D02*
X0071996Y0090982D01*
X0073531Y0092517D01*
X0076600Y0092517D01*
X0076600Y0094052D02*
X0071996Y0094052D01*
X0074298Y0092517D02*
X0074298Y0089448D01*
X0073531Y0089448D02*
X0076600Y0089448D01*
X0076600Y0094052D02*
X0076600Y0097121D01*
X0071996Y0080240D02*
X0071996Y0077171D01*
X0072763Y0075636D02*
X0071996Y0074869D01*
X0071996Y0073334D01*
X0072763Y0072567D01*
X0073531Y0072567D01*
X0074298Y0073334D01*
X0074298Y0074869D01*
X0075065Y0075636D01*
X0075833Y0075636D01*
X0076600Y0074869D01*
X0076600Y0073334D01*
X0075833Y0072567D01*
X0074298Y0077171D02*
X0074298Y0078705D01*
X0147396Y0127567D02*
X0147396Y0132171D01*
X0148931Y0130636D01*
X0150465Y0132171D01*
X0150465Y0127567D01*
X0152000Y0127567D02*
X0155069Y0127567D01*
X0153535Y0127567D02*
X0153535Y0132171D01*
X0152000Y0130636D01*
X0197000Y0170067D02*
X0200069Y0170067D01*
X0197000Y0170067D02*
X0197000Y0174671D01*
X0197000Y0192567D02*
X0197000Y0197171D01*
X0197000Y0194869D02*
X0200069Y0194869D01*
X0200069Y0197171D02*
X0200069Y0192567D01*
D12*
X0195101Y0193735D02*
X0195101Y0190732D01*
X0193599Y0189131D02*
X0194350Y0188380D01*
X0194350Y0186879D01*
X0193599Y0186128D01*
X0193599Y0184527D02*
X0189846Y0184527D01*
X0190597Y0186128D02*
X0191347Y0186128D01*
X0192098Y0186879D01*
X0192098Y0188380D01*
X0192849Y0189131D01*
X0193599Y0189131D01*
X0190597Y0189131D02*
X0189846Y0188380D01*
X0189846Y0186879D01*
X0190597Y0186128D01*
X0193599Y0184527D02*
X0194350Y0183776D01*
X0194350Y0182275D01*
X0193599Y0181525D01*
X0189846Y0181525D01*
X0190597Y0179923D02*
X0191347Y0179923D01*
X0192098Y0179173D01*
X0192098Y0176921D01*
X0190597Y0175319D02*
X0189846Y0174569D01*
X0189846Y0173067D01*
X0190597Y0172317D01*
X0193599Y0172317D01*
X0194350Y0173067D01*
X0194350Y0174569D01*
X0193599Y0175319D01*
X0194350Y0176921D02*
X0189846Y0176921D01*
X0189846Y0179173D01*
X0190597Y0179923D01*
X0192098Y0179173D02*
X0192849Y0179923D01*
X0193599Y0179923D01*
X0194350Y0179173D01*
X0194350Y0176921D01*
X0193599Y0195336D02*
X0190597Y0195336D01*
X0189846Y0196087D01*
X0189846Y0197588D01*
X0190597Y0198339D01*
X0190597Y0199940D02*
X0193599Y0199940D01*
X0194350Y0200691D01*
X0194350Y0202192D01*
X0193599Y0202943D01*
X0190597Y0202943D01*
X0189846Y0202192D01*
X0189846Y0200691D01*
X0190597Y0199940D01*
X0193599Y0198339D02*
X0194350Y0197588D01*
X0194350Y0196087D01*
X0193599Y0195336D01*
X0194350Y0204544D02*
X0189846Y0204544D01*
X0194350Y0207547D01*
X0189846Y0207547D01*
X0264846Y0165649D02*
X0269350Y0165649D01*
X0269350Y0164148D02*
X0269350Y0167151D01*
X0266347Y0164148D02*
X0264846Y0165649D01*
X0265597Y0162547D02*
X0264846Y0161796D01*
X0264846Y0160295D01*
X0265597Y0159544D01*
X0268599Y0159544D01*
X0269350Y0160295D01*
X0269350Y0161796D01*
X0268599Y0162547D01*
X0267098Y0162547D01*
X0267098Y0161045D01*
X0265597Y0157943D02*
X0264846Y0157192D01*
X0264846Y0155691D01*
X0265597Y0154940D01*
X0268599Y0154940D01*
X0269350Y0155691D01*
X0269350Y0157192D01*
X0268599Y0157943D01*
X0265597Y0157943D01*
X0269350Y0153339D02*
X0269350Y0150336D01*
X0264846Y0150336D01*
X0266347Y0148735D02*
X0269350Y0148735D01*
X0267098Y0148735D02*
X0267098Y0145732D01*
X0266347Y0145732D02*
X0264846Y0147234D01*
X0266347Y0148735D01*
X0266347Y0145732D02*
X0269350Y0145732D01*
X0269350Y0144131D02*
X0264846Y0144131D01*
X0264846Y0141128D02*
X0269350Y0144131D01*
X0269350Y0141128D02*
X0264846Y0141128D01*
X0266347Y0139527D02*
X0269350Y0139527D01*
X0267098Y0139527D02*
X0267098Y0136525D01*
X0266347Y0136525D02*
X0264846Y0138026D01*
X0266347Y0139527D01*
X0266347Y0136525D02*
X0269350Y0136525D01*
X0267098Y0134923D02*
X0267849Y0134173D01*
X0267849Y0131921D01*
X0269350Y0131921D02*
X0264846Y0131921D01*
X0264846Y0134173D01*
X0265597Y0134923D01*
X0267098Y0134923D01*
X0264846Y0130319D02*
X0264846Y0128818D01*
X0264846Y0129569D02*
X0268599Y0129569D01*
X0269350Y0128818D01*
X0269350Y0128067D01*
X0268599Y0127317D01*
X0263414Y0121540D02*
X0263414Y0093981D01*
X0285461Y0093981D01*
X0285461Y0121540D01*
X0263414Y0121540D01*
X0285461Y0121540D02*
X0290973Y0121540D01*
X0290973Y0093981D01*
X0285461Y0093981D01*
X0285461Y0094040D02*
X0285461Y0066481D01*
X0290973Y0066481D01*
X0290973Y0094040D01*
X0285461Y0094040D01*
X0263414Y0094040D01*
X0263414Y0066481D01*
X0285461Y0066481D01*
X0285461Y0066540D02*
X0285461Y0038981D01*
X0290973Y0038981D01*
X0290973Y0066540D01*
X0285461Y0066540D01*
X0263414Y0066540D01*
X0263414Y0038981D01*
X0285461Y0038981D01*
X0279998Y0022420D02*
X0280749Y0021670D01*
X0280749Y0018667D01*
X0279998Y0017917D01*
X0278497Y0017917D01*
X0277746Y0018667D01*
X0277746Y0021670D01*
X0278497Y0022420D01*
X0279998Y0022420D01*
X0276145Y0022420D02*
X0276145Y0019418D01*
X0274643Y0017917D01*
X0273142Y0019418D01*
X0273142Y0022420D01*
X0271541Y0021670D02*
X0271541Y0020169D01*
X0270790Y0019418D01*
X0268538Y0019418D01*
X0268538Y0017917D02*
X0268538Y0022420D01*
X0270790Y0022420D01*
X0271541Y0021670D01*
X0270039Y0019418D02*
X0271541Y0017917D01*
X0266937Y0017917D02*
X0263934Y0017917D01*
X0263934Y0022420D01*
X0266937Y0022420D01*
X0265435Y0020169D02*
X0263934Y0020169D01*
X0262333Y0019418D02*
X0262333Y0018667D01*
X0261582Y0017917D01*
X0260081Y0017917D01*
X0259330Y0018667D01*
X0260081Y0020169D02*
X0259330Y0020919D01*
X0259330Y0021670D01*
X0260081Y0022420D01*
X0261582Y0022420D01*
X0262333Y0021670D01*
X0261582Y0020169D02*
X0262333Y0019418D01*
X0261582Y0020169D02*
X0260081Y0020169D01*
X0257729Y0017166D02*
X0254726Y0017166D01*
X0253125Y0018667D02*
X0252374Y0017917D01*
X0250873Y0017917D01*
X0250122Y0018667D01*
X0250122Y0021670D01*
X0250873Y0022420D01*
X0252374Y0022420D01*
X0253125Y0021670D01*
X0248521Y0021670D02*
X0247770Y0022420D01*
X0245519Y0022420D01*
X0245519Y0017917D01*
X0247770Y0017917D01*
X0248521Y0018667D01*
X0248521Y0021670D01*
X0243917Y0021670D02*
X0243917Y0020169D01*
X0243166Y0019418D01*
X0240915Y0019418D01*
X0240915Y0017917D02*
X0240915Y0022420D01*
X0243166Y0022420D01*
X0243917Y0021670D01*
X0239313Y0022420D02*
X0237812Y0022420D01*
X0238563Y0022420D02*
X0238563Y0018667D01*
X0237812Y0017917D01*
X0237061Y0017917D01*
X0236311Y0018667D01*
X0242416Y0007420D02*
X0243917Y0007420D01*
X0243167Y0007420D02*
X0243167Y0003667D01*
X0242416Y0002917D01*
X0241665Y0002917D01*
X0240915Y0003667D01*
X0245519Y0002917D02*
X0245519Y0007420D01*
X0247770Y0007420D01*
X0248521Y0006670D01*
X0248521Y0005169D01*
X0247770Y0004418D01*
X0245519Y0004418D01*
X0250122Y0002917D02*
X0252374Y0002917D01*
X0253125Y0003667D01*
X0253125Y0006670D01*
X0252374Y0007420D01*
X0250122Y0007420D01*
X0250122Y0002917D01*
X0254726Y0003667D02*
X0255477Y0002917D01*
X0256978Y0002917D01*
X0257729Y0003667D01*
X0259330Y0002166D02*
X0262333Y0002166D01*
X0263934Y0003667D02*
X0264685Y0002917D01*
X0266186Y0002917D01*
X0266937Y0003667D01*
X0268538Y0002917D02*
X0270790Y0002917D01*
X0271541Y0003667D01*
X0271541Y0004418D01*
X0270790Y0005169D01*
X0268538Y0005169D01*
X0266937Y0006670D02*
X0266186Y0007420D01*
X0264685Y0007420D01*
X0263934Y0006670D01*
X0263934Y0003667D01*
X0268538Y0002917D02*
X0268538Y0007420D01*
X0270790Y0007420D01*
X0271541Y0006670D01*
X0271541Y0005919D01*
X0270790Y0005169D01*
X0273142Y0003667D02*
X0273893Y0002917D01*
X0275394Y0002917D01*
X0276145Y0003667D01*
X0276145Y0007420D01*
X0277746Y0006670D02*
X0277746Y0005919D01*
X0278497Y0005169D01*
X0279998Y0005169D01*
X0280749Y0004418D01*
X0280749Y0003667D01*
X0279998Y0002917D01*
X0278497Y0002917D01*
X0277746Y0003667D01*
X0277746Y0006670D02*
X0278497Y0007420D01*
X0279998Y0007420D01*
X0280749Y0006670D01*
X0273142Y0007420D02*
X0273142Y0003667D01*
X0257729Y0006670D02*
X0256978Y0007420D01*
X0255477Y0007420D01*
X0254726Y0006670D01*
X0254726Y0003667D01*
X0237999Y0029105D02*
X0238750Y0029855D01*
X0238750Y0030606D01*
X0237999Y0031357D01*
X0234246Y0031357D01*
X0234246Y0032107D02*
X0234246Y0030606D01*
X0234246Y0033709D02*
X0234246Y0035961D01*
X0234997Y0036711D01*
X0236498Y0036711D01*
X0237249Y0035961D01*
X0237249Y0033709D01*
X0238750Y0033709D02*
X0234246Y0033709D01*
X0234997Y0038313D02*
X0234246Y0039063D01*
X0234246Y0040565D01*
X0234997Y0041315D01*
X0237999Y0041315D01*
X0238750Y0040565D01*
X0238750Y0039063D01*
X0237999Y0038313D01*
X0236498Y0039063D02*
X0236498Y0041315D01*
X0236498Y0039063D02*
X0235747Y0038313D01*
X0234997Y0038313D01*
X0221250Y0039063D02*
X0220499Y0038313D01*
X0219749Y0038313D01*
X0218998Y0039063D01*
X0218998Y0040565D01*
X0219749Y0041315D01*
X0220499Y0041315D01*
X0221250Y0040565D01*
X0221250Y0039063D01*
X0218998Y0039063D02*
X0218247Y0038313D01*
X0217497Y0038313D01*
X0216746Y0039063D01*
X0216746Y0040565D01*
X0217497Y0041315D01*
X0218247Y0041315D01*
X0218998Y0040565D01*
X0217497Y0036711D02*
X0216746Y0035961D01*
X0216746Y0033709D01*
X0221250Y0033709D01*
X0221250Y0035961D01*
X0220499Y0036711D01*
X0217497Y0036711D01*
X0217497Y0032107D02*
X0218998Y0032107D01*
X0219749Y0031357D01*
X0219749Y0029105D01*
X0221250Y0029105D02*
X0216746Y0029105D01*
X0216746Y0031357D01*
X0217497Y0032107D01*
X0216746Y0027503D02*
X0216746Y0026002D01*
X0216746Y0026753D02*
X0220499Y0026753D01*
X0221250Y0026002D01*
X0221250Y0025252D01*
X0220499Y0024501D01*
X0203750Y0025252D02*
X0203750Y0026002D01*
X0202999Y0026753D01*
X0199246Y0026753D01*
X0199246Y0027503D02*
X0199246Y0026002D01*
X0199246Y0029105D02*
X0199246Y0031357D01*
X0199997Y0032107D01*
X0201498Y0032107D01*
X0202249Y0031357D01*
X0202249Y0029105D01*
X0203750Y0029105D02*
X0199246Y0029105D01*
X0199246Y0033709D02*
X0199246Y0035961D01*
X0199997Y0036711D01*
X0202999Y0036711D01*
X0203750Y0035961D01*
X0203750Y0033709D01*
X0199246Y0033709D01*
X0199246Y0038313D02*
X0199246Y0041315D01*
X0199997Y0041315D01*
X0202999Y0038313D01*
X0203750Y0038313D01*
X0186250Y0039063D02*
X0186250Y0040565D01*
X0185499Y0041315D01*
X0184749Y0041315D01*
X0183998Y0040565D01*
X0183998Y0038313D01*
X0185499Y0038313D01*
X0186250Y0039063D01*
X0183998Y0038313D02*
X0182497Y0039814D01*
X0181746Y0041315D01*
X0182497Y0036711D02*
X0181746Y0035961D01*
X0181746Y0033709D01*
X0186250Y0033709D01*
X0186250Y0035961D01*
X0185499Y0036711D01*
X0182497Y0036711D01*
X0182497Y0032107D02*
X0181746Y0031357D01*
X0181746Y0029105D01*
X0186250Y0029105D01*
X0184749Y0029105D02*
X0184749Y0031357D01*
X0183998Y0032107D01*
X0182497Y0032107D01*
X0181746Y0027503D02*
X0181746Y0026002D01*
X0181746Y0026753D02*
X0185499Y0026753D01*
X0186250Y0026002D01*
X0186250Y0025252D01*
X0185499Y0024501D01*
X0202999Y0024501D02*
X0203750Y0025252D01*
X0168750Y0025252D02*
X0168750Y0026002D01*
X0167999Y0026753D01*
X0164246Y0026753D01*
X0164246Y0027503D02*
X0164246Y0026002D01*
X0164246Y0029105D02*
X0164246Y0031357D01*
X0164997Y0032107D01*
X0166498Y0032107D01*
X0167249Y0031357D01*
X0167249Y0029105D01*
X0168750Y0029105D02*
X0164246Y0029105D01*
X0164246Y0033709D02*
X0164246Y0035961D01*
X0164997Y0036711D01*
X0167999Y0036711D01*
X0168750Y0035961D01*
X0168750Y0033709D01*
X0164246Y0033709D01*
X0164246Y0038313D02*
X0166498Y0038313D01*
X0165747Y0039814D01*
X0165747Y0040565D01*
X0166498Y0041315D01*
X0167999Y0041315D01*
X0168750Y0040565D01*
X0168750Y0039063D01*
X0167999Y0038313D01*
X0164246Y0038313D02*
X0164246Y0041315D01*
X0164300Y0052367D02*
X0159300Y0052367D01*
X0156800Y0054867D01*
X0154300Y0052367D01*
X0159300Y0052367D01*
X0154300Y0052367D02*
X0149300Y0052367D01*
X0146800Y0054867D01*
X0144300Y0052367D01*
X0149300Y0052367D01*
X0144300Y0052367D02*
X0139300Y0052367D01*
X0136800Y0054867D01*
X0134300Y0052367D01*
X0139300Y0052367D01*
X0134300Y0052367D02*
X0129300Y0052367D01*
X0126800Y0054867D01*
X0124300Y0052367D01*
X0129300Y0052367D01*
X0124300Y0052367D02*
X0119300Y0052367D01*
X0116800Y0054867D01*
X0114300Y0052367D01*
X0119300Y0052367D01*
X0114300Y0052367D02*
X0109300Y0052367D01*
X0106800Y0054867D01*
X0104300Y0052367D01*
X0109300Y0052367D01*
X0104300Y0052367D02*
X0086800Y0052367D01*
X0086800Y0122367D01*
X0124300Y0122367D01*
X0126800Y0119867D01*
X0129300Y0122367D01*
X0124300Y0122367D02*
X0189300Y0122367D01*
X0186800Y0119867D01*
X0184300Y0122367D01*
X0179300Y0122367D02*
X0176800Y0119867D01*
X0174300Y0122367D01*
X0169300Y0122367D02*
X0166800Y0119867D01*
X0164300Y0122367D01*
X0159300Y0122367D02*
X0156800Y0119867D01*
X0154300Y0122367D01*
X0149300Y0122367D02*
X0146800Y0119867D01*
X0144300Y0122367D01*
X0139300Y0122367D02*
X0136800Y0119867D01*
X0134300Y0122367D01*
X0136800Y0114867D02*
X0139300Y0112367D01*
X0141800Y0109867D01*
X0144300Y0112367D01*
X0149300Y0112367D01*
X0151800Y0109867D01*
X0151800Y0104867D01*
X0149300Y0102367D01*
X0144300Y0102367D01*
X0141800Y0104867D01*
X0139300Y0102367D01*
X0134300Y0102367D01*
X0131800Y0104867D01*
X0131800Y0109867D01*
X0134300Y0112367D01*
X0139300Y0112367D01*
X0144300Y0112367D01*
X0146800Y0114867D01*
X0149300Y0112367D01*
X0154300Y0112367D01*
X0156800Y0114867D01*
X0159300Y0112367D01*
X0164300Y0112367D01*
X0166800Y0114867D01*
X0169300Y0112367D01*
X0174300Y0112367D01*
X0176800Y0114867D01*
X0179300Y0112367D01*
X0184300Y0112367D01*
X0186800Y0114867D01*
X0189300Y0112367D01*
X0194300Y0112367D01*
X0196800Y0114867D01*
X0199300Y0112367D01*
X0204300Y0112367D01*
X0206800Y0114867D01*
X0209300Y0112367D01*
X0206800Y0109867D01*
X0206800Y0104867D01*
X0209300Y0102367D01*
X0206800Y0099867D01*
X0206800Y0094867D01*
X0209300Y0092367D01*
X0206800Y0089867D01*
X0206800Y0084867D01*
X0209300Y0082367D01*
X0214300Y0082367D01*
X0216800Y0084867D01*
X0216800Y0089867D02*
X0214300Y0092367D01*
X0216800Y0094867D01*
X0216800Y0099867D02*
X0214300Y0102367D01*
X0216800Y0104867D01*
X0216800Y0109867D02*
X0214300Y0112367D01*
X0216800Y0114867D01*
X0214300Y0112367D02*
X0209300Y0112367D01*
X0206800Y0119867D02*
X0204300Y0122367D01*
X0189300Y0122367D01*
X0194300Y0122367D02*
X0196800Y0119867D01*
X0199300Y0122367D01*
X0204300Y0122367D02*
X0216800Y0122367D01*
X0216800Y0052367D01*
X0209300Y0052367D01*
X0206800Y0054867D01*
X0204300Y0052367D01*
X0209300Y0052367D01*
X0204300Y0052367D02*
X0199300Y0052367D01*
X0196800Y0054867D01*
X0194300Y0052367D01*
X0199300Y0052367D01*
X0194300Y0052367D02*
X0189300Y0052367D01*
X0186800Y0054867D01*
X0184300Y0052367D01*
X0189300Y0052367D01*
X0184300Y0052367D02*
X0179300Y0052367D01*
X0176800Y0054867D01*
X0174300Y0052367D01*
X0179300Y0052367D01*
X0174300Y0052367D02*
X0169300Y0052367D01*
X0166800Y0054867D01*
X0164300Y0052367D01*
X0169300Y0052367D01*
X0166800Y0059867D02*
X0169300Y0062367D01*
X0174300Y0062367D01*
X0176800Y0059867D01*
X0179300Y0062367D01*
X0184300Y0062367D01*
X0186800Y0059867D01*
X0189300Y0062367D01*
X0194300Y0062367D01*
X0196800Y0059867D01*
X0199300Y0062367D01*
X0204300Y0062367D01*
X0206800Y0059867D01*
X0209300Y0062367D01*
X0214300Y0062367D01*
X0216800Y0059867D01*
X0216800Y0054867D02*
X0214300Y0052367D01*
X0168750Y0025252D02*
X0167999Y0024501D01*
X0151250Y0025252D02*
X0151250Y0026002D01*
X0150499Y0026753D01*
X0146746Y0026753D01*
X0146746Y0027503D02*
X0146746Y0026002D01*
X0146746Y0029105D02*
X0146746Y0031357D01*
X0147497Y0032107D01*
X0148998Y0032107D01*
X0149749Y0031357D01*
X0149749Y0029105D01*
X0151250Y0029105D02*
X0146746Y0029105D01*
X0146746Y0033709D02*
X0146746Y0035961D01*
X0147497Y0036711D01*
X0150499Y0036711D01*
X0151250Y0035961D01*
X0151250Y0033709D01*
X0146746Y0033709D01*
X0148998Y0038313D02*
X0148998Y0041315D01*
X0151250Y0040565D02*
X0146746Y0040565D01*
X0148998Y0038313D01*
X0133750Y0039063D02*
X0132999Y0038313D01*
X0133750Y0039063D02*
X0133750Y0040565D01*
X0132999Y0041315D01*
X0132249Y0041315D01*
X0131498Y0040565D01*
X0131498Y0039814D01*
X0131498Y0040565D02*
X0130747Y0041315D01*
X0129997Y0041315D01*
X0129246Y0040565D01*
X0129246Y0039063D01*
X0129997Y0038313D01*
X0129997Y0036711D02*
X0129246Y0035961D01*
X0129246Y0033709D01*
X0133750Y0033709D01*
X0133750Y0035961D01*
X0132999Y0036711D01*
X0129997Y0036711D01*
X0129997Y0032107D02*
X0129246Y0031357D01*
X0129246Y0029105D01*
X0133750Y0029105D01*
X0132249Y0029105D02*
X0132249Y0031357D01*
X0131498Y0032107D01*
X0129997Y0032107D01*
X0129246Y0027503D02*
X0129246Y0026002D01*
X0129246Y0026753D02*
X0132999Y0026753D01*
X0133750Y0026002D01*
X0133750Y0025252D01*
X0132999Y0024501D01*
X0150499Y0024501D02*
X0151250Y0025252D01*
X0113750Y0025252D02*
X0113750Y0026002D01*
X0112999Y0026753D01*
X0109246Y0026753D01*
X0109246Y0027503D02*
X0109246Y0026002D01*
X0109246Y0029105D02*
X0109246Y0031357D01*
X0109997Y0032107D01*
X0111498Y0032107D01*
X0112249Y0031357D01*
X0112249Y0029105D01*
X0113750Y0029105D02*
X0109246Y0029105D01*
X0109246Y0033709D02*
X0109246Y0035961D01*
X0109997Y0036711D01*
X0112999Y0036711D01*
X0113750Y0035961D01*
X0113750Y0033709D01*
X0109246Y0033709D01*
X0109997Y0038313D02*
X0109246Y0039063D01*
X0109246Y0040565D01*
X0109997Y0041315D01*
X0110747Y0041315D01*
X0113750Y0038313D01*
X0113750Y0041315D01*
X0099300Y0052367D02*
X0096800Y0054867D01*
X0096800Y0059867D01*
X0096800Y0064867D01*
X0094300Y0067367D01*
X0096800Y0069867D01*
X0096800Y0074867D01*
X0094300Y0077367D01*
X0096800Y0079867D01*
X0096800Y0084867D01*
X0094300Y0087367D01*
X0096800Y0089867D01*
X0096800Y0094867D01*
X0094300Y0097367D01*
X0096800Y0099867D01*
X0096800Y0104867D01*
X0094300Y0107367D01*
X0096800Y0109867D01*
X0096800Y0114867D01*
X0094300Y0117367D01*
X0089300Y0117367D01*
X0086800Y0114867D01*
X0086800Y0109867D02*
X0089300Y0107367D01*
X0086800Y0104867D01*
X0086800Y0099867D02*
X0089300Y0097367D01*
X0086800Y0094867D01*
X0086800Y0089867D02*
X0089300Y0087367D01*
X0086800Y0084867D01*
X0086800Y0079867D02*
X0089300Y0077367D01*
X0086800Y0074867D01*
X0086800Y0069867D02*
X0089300Y0067367D01*
X0086800Y0064867D01*
X0086800Y0059867D02*
X0089300Y0057367D01*
X0094300Y0057367D01*
X0096800Y0059867D01*
X0099300Y0062367D01*
X0104300Y0062367D01*
X0106800Y0059867D01*
X0109300Y0062367D01*
X0114300Y0062367D01*
X0116800Y0059867D01*
X0119300Y0062367D01*
X0124300Y0062367D01*
X0126800Y0059867D01*
X0129300Y0062367D01*
X0134300Y0062367D01*
X0136800Y0059867D01*
X0139300Y0062367D01*
X0144300Y0062367D01*
X0146800Y0059867D01*
X0149300Y0062367D01*
X0154300Y0062367D01*
X0156800Y0059867D01*
X0159300Y0062367D01*
X0164300Y0062367D01*
X0166800Y0059867D01*
X0113750Y0025252D02*
X0112999Y0024501D01*
X0085749Y0024170D02*
X0084998Y0024920D01*
X0083497Y0024920D01*
X0082746Y0024170D01*
X0082746Y0021167D01*
X0083497Y0020417D01*
X0084998Y0020417D01*
X0085749Y0021167D01*
X0085749Y0022669D01*
X0084247Y0022669D01*
X0081145Y0024170D02*
X0080394Y0024920D01*
X0078893Y0024920D01*
X0078142Y0024170D01*
X0078142Y0021167D01*
X0078893Y0020417D01*
X0080394Y0020417D01*
X0081145Y0021167D01*
X0081145Y0024170D01*
X0076541Y0020417D02*
X0073538Y0020417D01*
X0073538Y0024920D01*
X0071937Y0023419D02*
X0071937Y0020417D01*
X0071937Y0022669D02*
X0068934Y0022669D01*
X0068934Y0023419D02*
X0068934Y0020417D01*
X0067333Y0020417D02*
X0067333Y0024920D01*
X0068934Y0023419D02*
X0070436Y0024920D01*
X0071937Y0023419D01*
X0067333Y0020417D02*
X0064330Y0024920D01*
X0064330Y0020417D01*
X0062729Y0020417D02*
X0062729Y0023419D01*
X0061228Y0024920D01*
X0059726Y0023419D01*
X0059726Y0020417D01*
X0059726Y0022669D02*
X0062729Y0022669D01*
X0058125Y0022669D02*
X0057374Y0021918D01*
X0055122Y0021918D01*
X0055122Y0020417D02*
X0055122Y0024920D01*
X0057374Y0024920D01*
X0058125Y0024170D01*
X0058125Y0022669D01*
X0053521Y0024920D02*
X0052020Y0024920D01*
X0052770Y0024920D02*
X0052770Y0021167D01*
X0052020Y0020417D01*
X0051269Y0020417D01*
X0050519Y0021167D01*
X0045968Y0054117D02*
X0045968Y0058620D01*
X0042966Y0058620D02*
X0045968Y0054117D01*
X0042966Y0054117D02*
X0042966Y0058620D01*
X0041364Y0058620D02*
X0038362Y0058620D01*
X0038362Y0054117D01*
X0041364Y0054117D01*
X0039863Y0056369D02*
X0038362Y0056369D01*
X0036760Y0058620D02*
X0033758Y0058620D01*
X0033758Y0054117D01*
X0036760Y0054117D01*
X0035259Y0056369D02*
X0033758Y0056369D01*
X0032156Y0056369D02*
X0031406Y0055618D01*
X0029154Y0055618D01*
X0030655Y0055618D02*
X0032156Y0054117D01*
X0032156Y0056369D02*
X0032156Y0057870D01*
X0031406Y0058620D01*
X0029154Y0058620D01*
X0029154Y0054117D01*
X0027553Y0054867D02*
X0027553Y0056369D01*
X0026051Y0056369D01*
X0024550Y0057870D02*
X0024550Y0054867D01*
X0025301Y0054117D01*
X0026802Y0054117D01*
X0027553Y0054867D01*
X0027553Y0057870D02*
X0026802Y0058620D01*
X0025301Y0058620D01*
X0024550Y0057870D01*
X0026051Y0079117D02*
X0026051Y0081369D01*
X0027553Y0082870D01*
X0027553Y0083620D01*
X0029154Y0083620D02*
X0029154Y0079117D01*
X0032156Y0079117D01*
X0033758Y0079117D02*
X0036760Y0079117D01*
X0038362Y0079117D02*
X0041364Y0079117D01*
X0042966Y0079867D02*
X0043716Y0079117D01*
X0045218Y0079117D01*
X0045968Y0079867D01*
X0045968Y0082870D01*
X0045218Y0083620D01*
X0043716Y0083620D01*
X0042966Y0082870D01*
X0042966Y0079867D01*
X0038362Y0079117D02*
X0038362Y0083620D01*
X0033758Y0083620D02*
X0033758Y0079117D01*
X0030655Y0081369D02*
X0029154Y0081369D01*
X0029154Y0083620D02*
X0032156Y0083620D01*
X0026051Y0081369D02*
X0024550Y0082870D01*
X0024550Y0083620D01*
X0047570Y0083620D02*
X0047570Y0079117D01*
X0049071Y0080618D01*
X0050572Y0079117D01*
X0050572Y0083620D01*
X0054350Y0081804D02*
X0054350Y0078802D01*
X0049846Y0078802D01*
X0051347Y0077200D02*
X0054350Y0077200D01*
X0052098Y0077200D02*
X0052098Y0074198D01*
X0051347Y0074198D02*
X0049846Y0075699D01*
X0051347Y0077200D01*
X0051347Y0074198D02*
X0054350Y0074198D01*
X0054350Y0072630D02*
X0054350Y0071128D01*
X0054350Y0071879D02*
X0049846Y0071879D01*
X0049846Y0071128D02*
X0049846Y0072630D01*
X0050597Y0069527D02*
X0052098Y0069527D01*
X0052849Y0068776D01*
X0052849Y0066525D01*
X0052849Y0068026D02*
X0054350Y0069527D01*
X0054350Y0066525D02*
X0049846Y0066525D01*
X0049846Y0068776D01*
X0050597Y0069527D01*
X0049846Y0064923D02*
X0049846Y0061921D01*
X0054350Y0061921D01*
X0054350Y0064923D01*
X0052098Y0063422D02*
X0052098Y0061921D01*
X0052849Y0060319D02*
X0052098Y0059569D01*
X0052098Y0058067D01*
X0051347Y0057317D01*
X0050597Y0057317D01*
X0049846Y0058067D01*
X0049846Y0059569D01*
X0050597Y0060319D01*
X0052849Y0060319D02*
X0053599Y0060319D01*
X0054350Y0059569D01*
X0054350Y0058067D01*
X0053599Y0057317D01*
X0099300Y0112367D02*
X0104300Y0112367D01*
X0106800Y0114867D01*
X0109300Y0112367D01*
X0114300Y0112367D01*
X0116800Y0114867D01*
X0119300Y0112367D01*
X0124300Y0112367D01*
X0126800Y0114867D01*
X0129300Y0112367D01*
X0134300Y0112367D01*
X0136800Y0114867D01*
X0119300Y0122367D02*
X0116800Y0119867D01*
X0114300Y0122367D01*
X0109300Y0122367D02*
X0106800Y0119867D01*
X0104300Y0122367D01*
X0099300Y0122367D02*
X0096800Y0119867D01*
X0096800Y0114867D01*
X0099300Y0112367D01*
X0049949Y0126617D02*
X0046946Y0126617D01*
X0048447Y0126617D02*
X0048447Y0131120D01*
X0046946Y0129619D01*
X0045345Y0130370D02*
X0044594Y0131120D01*
X0043093Y0131120D01*
X0042342Y0130370D01*
X0042342Y0127367D01*
X0043093Y0126617D01*
X0044594Y0126617D01*
X0045345Y0127367D01*
X0024656Y0152617D02*
X0021654Y0152617D01*
X0024656Y0155619D01*
X0024656Y0156370D01*
X0023906Y0157120D01*
X0022405Y0157120D01*
X0021654Y0156370D01*
X0020053Y0156370D02*
X0019302Y0157120D01*
X0017801Y0157120D01*
X0017050Y0156370D01*
X0017050Y0155619D01*
X0017801Y0154869D01*
X0019302Y0154869D01*
X0020053Y0154118D01*
X0020053Y0153367D01*
X0019302Y0152617D01*
X0017801Y0152617D01*
X0017050Y0153367D01*
X0016354Y0172317D02*
X0016354Y0176820D01*
X0018606Y0176820D01*
X0019356Y0176070D01*
X0019356Y0174569D01*
X0018606Y0173818D01*
X0016354Y0173818D01*
X0014002Y0173067D02*
X0014002Y0176820D01*
X0013251Y0176820D02*
X0014753Y0176820D01*
X0014002Y0173067D02*
X0013251Y0172317D01*
X0012501Y0172317D01*
X0011750Y0173067D01*
X0020958Y0172317D02*
X0023210Y0172317D01*
X0023960Y0173067D01*
X0023960Y0176070D01*
X0023210Y0176820D01*
X0020958Y0176820D01*
X0020958Y0172317D01*
X0025562Y0173067D02*
X0026312Y0172317D01*
X0027814Y0172317D01*
X0028564Y0173067D01*
X0028564Y0176070D01*
X0027814Y0176820D01*
X0026312Y0176820D01*
X0025562Y0176070D01*
X0025562Y0175319D01*
X0026312Y0174569D01*
X0028564Y0174569D01*
X0042342Y0160370D02*
X0042342Y0157367D01*
X0043093Y0156617D01*
X0044594Y0156617D01*
X0045345Y0157367D01*
X0046946Y0156617D02*
X0049949Y0159619D01*
X0049949Y0160370D01*
X0049198Y0161120D01*
X0047697Y0161120D01*
X0046946Y0160370D01*
X0045345Y0160370D02*
X0044594Y0161120D01*
X0043093Y0161120D01*
X0042342Y0160370D01*
X0046946Y0156617D02*
X0049949Y0156617D01*
X0050865Y0180417D02*
X0052366Y0180417D01*
X0051616Y0180417D02*
X0051616Y0184920D01*
X0052366Y0184920D02*
X0050865Y0184920D01*
X0053934Y0184170D02*
X0053934Y0181167D01*
X0054685Y0180417D01*
X0056186Y0180417D01*
X0056937Y0181167D01*
X0058538Y0181167D02*
X0059289Y0180417D01*
X0060790Y0180417D01*
X0061541Y0181167D01*
X0061541Y0181918D01*
X0060790Y0182669D01*
X0059289Y0182669D01*
X0058538Y0183419D01*
X0058538Y0184170D01*
X0059289Y0184920D01*
X0060790Y0184920D01*
X0061541Y0184170D01*
X0063142Y0184920D02*
X0063142Y0180417D01*
X0063142Y0181918D02*
X0065394Y0181918D01*
X0066145Y0182669D01*
X0066145Y0184170D01*
X0065394Y0184920D01*
X0063142Y0184920D01*
X0067746Y0184170D02*
X0068497Y0184920D01*
X0069998Y0184920D01*
X0070749Y0184170D01*
X0070749Y0183419D01*
X0069998Y0182669D01*
X0070749Y0181918D01*
X0070749Y0181167D01*
X0069998Y0180417D01*
X0068497Y0180417D01*
X0067746Y0181167D01*
X0069247Y0182669D02*
X0069998Y0182669D01*
X0070749Y0190417D02*
X0067746Y0190417D01*
X0070749Y0193419D01*
X0070749Y0194170D01*
X0069998Y0194920D01*
X0068497Y0194920D01*
X0067746Y0194170D01*
X0066145Y0194170D02*
X0066145Y0192669D01*
X0065394Y0191918D01*
X0063142Y0191918D01*
X0063142Y0190417D02*
X0063142Y0194920D01*
X0065394Y0194920D01*
X0066145Y0194170D01*
X0061541Y0194170D02*
X0060790Y0194920D01*
X0059289Y0194920D01*
X0058538Y0194170D01*
X0058538Y0193419D01*
X0059289Y0192669D01*
X0060790Y0192669D01*
X0061541Y0191918D01*
X0061541Y0191167D01*
X0060790Y0190417D01*
X0059289Y0190417D01*
X0058538Y0191167D01*
X0056937Y0191167D02*
X0056186Y0190417D01*
X0054685Y0190417D01*
X0053934Y0191167D01*
X0053934Y0194170D01*
X0054685Y0194920D01*
X0056186Y0194920D01*
X0056937Y0194170D01*
X0052366Y0194920D02*
X0050865Y0194920D01*
X0051616Y0194920D02*
X0051616Y0190417D01*
X0052366Y0190417D02*
X0050865Y0190417D01*
X0054685Y0184920D02*
X0053934Y0184170D01*
X0054685Y0184920D02*
X0056186Y0184920D01*
X0056937Y0184170D01*
X0056186Y0200417D02*
X0054685Y0200417D01*
X0053934Y0201167D01*
X0053934Y0204170D01*
X0054685Y0204920D01*
X0056186Y0204920D01*
X0056937Y0204170D01*
X0058538Y0204170D02*
X0058538Y0203419D01*
X0059289Y0202669D01*
X0060790Y0202669D01*
X0061541Y0201918D01*
X0061541Y0201167D01*
X0060790Y0200417D01*
X0059289Y0200417D01*
X0058538Y0201167D01*
X0056937Y0201167D02*
X0056186Y0200417D01*
X0052366Y0200417D02*
X0050865Y0200417D01*
X0051616Y0200417D02*
X0051616Y0204920D01*
X0052366Y0204920D02*
X0050865Y0204920D01*
X0058538Y0204170D02*
X0059289Y0204920D01*
X0060790Y0204920D01*
X0061541Y0204170D01*
X0063142Y0204920D02*
X0065394Y0204920D01*
X0066145Y0204170D01*
X0066145Y0202669D01*
X0065394Y0201918D01*
X0063142Y0201918D01*
X0063142Y0200417D02*
X0063142Y0204920D01*
X0067746Y0203419D02*
X0069247Y0204920D01*
X0069247Y0200417D01*
X0067746Y0200417D02*
X0070749Y0200417D01*
X0099246Y0205252D02*
X0099997Y0204501D01*
X0102999Y0204501D01*
X0103750Y0205252D01*
X0103750Y0206753D01*
X0102999Y0207503D01*
X0103750Y0209105D02*
X0099246Y0209105D01*
X0099246Y0211357D01*
X0099997Y0212107D01*
X0100747Y0212107D01*
X0101498Y0211357D01*
X0101498Y0209105D01*
X0099997Y0207503D02*
X0099246Y0206753D01*
X0099246Y0205252D01*
X0103750Y0209105D02*
X0103750Y0211357D01*
X0102999Y0212107D01*
X0102249Y0212107D01*
X0101498Y0211357D01*
X0102999Y0213709D02*
X0099246Y0213709D01*
X0099246Y0216711D02*
X0102999Y0216711D01*
X0103750Y0215961D01*
X0103750Y0214459D01*
X0102999Y0213709D01*
X0102999Y0218313D02*
X0103750Y0219063D01*
X0103750Y0220565D01*
X0102999Y0221315D01*
X0102249Y0221315D01*
X0101498Y0220565D01*
X0101498Y0219063D01*
X0100747Y0218313D01*
X0099997Y0218313D01*
X0099246Y0219063D01*
X0099246Y0220565D01*
X0099997Y0221315D01*
X0028564Y0220567D02*
X0027814Y0219817D01*
X0026312Y0219817D01*
X0025562Y0220567D01*
X0025562Y0223570D01*
X0026312Y0224320D01*
X0027814Y0224320D01*
X0028564Y0223570D01*
X0028564Y0222069D02*
X0027063Y0222069D01*
X0028564Y0222069D02*
X0028564Y0220567D01*
X0023960Y0219817D02*
X0020958Y0219817D01*
X0020958Y0224320D01*
X0019356Y0223570D02*
X0019356Y0222069D01*
X0018606Y0221318D01*
X0016354Y0221318D01*
X0016354Y0219817D02*
X0016354Y0224320D01*
X0018606Y0224320D01*
X0019356Y0223570D01*
X0014753Y0224320D02*
X0013251Y0224320D01*
X0014002Y0224320D02*
X0014002Y0220567D01*
X0013251Y0219817D01*
X0012501Y0219817D01*
X0011750Y0220567D01*
X0013251Y0199320D02*
X0014753Y0199320D01*
X0014002Y0199320D02*
X0014002Y0195567D01*
X0013251Y0194817D01*
X0012501Y0194817D01*
X0011750Y0195567D01*
X0016354Y0194817D02*
X0016354Y0199320D01*
X0018606Y0199320D01*
X0019356Y0198570D01*
X0019356Y0197069D01*
X0018606Y0196318D01*
X0016354Y0196318D01*
X0020958Y0194817D02*
X0023960Y0194817D01*
X0020958Y0194817D02*
X0020958Y0199320D01*
X0025562Y0199320D02*
X0025562Y0198570D01*
X0027063Y0197069D01*
X0027063Y0194817D01*
X0027063Y0197069D02*
X0028564Y0198570D01*
X0028564Y0199320D01*
X0206800Y0119867D02*
X0209300Y0122367D01*
X0214300Y0122367D02*
X0216800Y0119867D01*
X0302999Y0186432D02*
X0303750Y0187182D01*
X0303750Y0187933D01*
X0302999Y0188684D01*
X0299246Y0188684D01*
X0299246Y0189434D02*
X0299246Y0187933D01*
X0299246Y0191036D02*
X0299246Y0193287D01*
X0299997Y0194038D01*
X0301498Y0194038D01*
X0302249Y0193287D01*
X0302249Y0191036D01*
X0303750Y0191036D02*
X0299246Y0191036D01*
X0299246Y0195639D02*
X0299246Y0197891D01*
X0299997Y0198642D01*
X0302999Y0198642D01*
X0303750Y0197891D01*
X0303750Y0195639D01*
X0299246Y0195639D01*
X0299246Y0200243D02*
X0299246Y0201745D01*
X0299246Y0200994D02*
X0303750Y0200994D01*
X0303750Y0200243D02*
X0303750Y0201745D01*
X0302999Y0203313D02*
X0303750Y0204063D01*
X0303750Y0205565D01*
X0302999Y0206315D01*
X0301498Y0206315D01*
X0301498Y0204814D01*
X0299997Y0206315D02*
X0299246Y0205565D01*
X0299246Y0204063D01*
X0299997Y0203313D01*
X0302999Y0203313D01*
D13*
X0296800Y0204867D02*
X0296800Y0199867D01*
X0294300Y0197367D01*
X0296800Y0194867D01*
X0296800Y0189867D01*
X0294300Y0187367D01*
X0296800Y0184867D01*
X0296800Y0179867D01*
X0294300Y0177367D01*
X0296800Y0174867D01*
X0296800Y0169867D01*
X0294300Y0167367D01*
X0296800Y0164867D01*
X0296800Y0159867D01*
X0294300Y0157367D01*
X0296800Y0154867D01*
X0296800Y0149867D01*
X0294300Y0147367D01*
X0296800Y0144867D01*
X0296800Y0139867D01*
X0294300Y0137367D01*
X0296800Y0134867D01*
X0296800Y0129867D01*
X0294300Y0127367D01*
X0289300Y0127367D01*
X0286800Y0129867D01*
X0286800Y0134867D01*
X0289300Y0137367D01*
X0286800Y0139867D01*
X0286800Y0144867D01*
X0289300Y0147367D01*
X0286800Y0149867D01*
X0286800Y0154867D01*
X0289300Y0157367D01*
X0286800Y0159867D01*
X0286800Y0164867D01*
X0289300Y0167367D01*
X0286800Y0169867D01*
X0286800Y0174867D01*
X0289300Y0177367D01*
X0286800Y0179867D01*
X0286800Y0184867D01*
X0289300Y0187367D01*
X0286800Y0189867D01*
X0286800Y0194867D01*
X0289300Y0197367D01*
X0286800Y0199867D01*
X0286800Y0204867D01*
X0289300Y0207367D01*
X0294300Y0207367D01*
X0296800Y0204867D01*
X0281800Y0204867D02*
X0281800Y0199867D01*
X0279300Y0197367D01*
X0281800Y0194867D01*
X0281800Y0189867D01*
X0279300Y0187367D01*
X0281800Y0184867D01*
X0281800Y0179867D01*
X0279300Y0177367D01*
X0281800Y0174867D01*
X0281800Y0169867D01*
X0279300Y0167367D01*
X0281800Y0164867D01*
X0281800Y0159867D01*
X0279300Y0157367D01*
X0281800Y0154867D01*
X0281800Y0149867D01*
X0279300Y0147367D01*
X0281800Y0144867D01*
X0281800Y0139867D01*
X0279300Y0137367D01*
X0281800Y0134867D01*
X0281800Y0129867D01*
X0279300Y0127367D01*
X0274300Y0127367D01*
X0271800Y0129867D01*
X0271800Y0134867D01*
X0274300Y0137367D01*
X0271800Y0139867D01*
X0271800Y0144867D01*
X0274300Y0147367D01*
X0271800Y0149867D01*
X0271800Y0154867D01*
X0274300Y0157367D01*
X0271800Y0159867D01*
X0271800Y0164867D01*
X0274300Y0167367D01*
X0271800Y0169867D01*
X0271800Y0174867D01*
X0274300Y0177367D01*
X0271800Y0179867D01*
X0271800Y0184867D01*
X0274300Y0187367D01*
X0271800Y0189867D01*
X0271800Y0194867D01*
X0274300Y0197367D01*
X0271800Y0199867D01*
X0271800Y0204867D01*
X0274300Y0207367D01*
X0279300Y0207367D01*
X0281800Y0204867D01*
X0206800Y0189867D02*
X0206800Y0184867D01*
X0204300Y0182367D01*
X0206800Y0179867D01*
X0206800Y0174867D01*
X0204300Y0172367D01*
X0199300Y0172367D01*
X0196800Y0174867D01*
X0196800Y0179867D01*
X0199300Y0182367D01*
X0196800Y0184867D01*
X0196800Y0189867D01*
X0199300Y0192367D01*
X0204300Y0192367D01*
X0206800Y0189867D01*
X0096800Y0189867D02*
X0096800Y0184867D01*
X0094300Y0182367D01*
X0096800Y0179867D01*
X0096800Y0174867D01*
X0094300Y0172367D01*
X0096800Y0169867D01*
X0096800Y0164867D01*
X0094300Y0162367D01*
X0096800Y0159867D01*
X0096800Y0154867D01*
X0094300Y0152367D01*
X0089300Y0152367D01*
X0086800Y0154867D01*
X0086800Y0159867D01*
X0089300Y0162367D01*
X0086800Y0164867D01*
X0086800Y0169867D01*
X0089300Y0172367D01*
X0086800Y0174867D01*
X0086800Y0179867D01*
X0089300Y0182367D01*
X0086800Y0184867D01*
X0086800Y0189867D01*
X0089300Y0192367D01*
X0086800Y0194867D01*
X0086800Y0199867D01*
X0089300Y0202367D01*
X0086800Y0204867D01*
X0086800Y0209867D01*
X0089300Y0212367D01*
X0086800Y0214867D01*
X0086800Y0219867D01*
X0089300Y0222367D01*
X0094300Y0222367D01*
X0096800Y0219867D01*
X0096800Y0214867D01*
X0094300Y0212367D01*
X0096800Y0209867D01*
X0096800Y0204867D01*
X0094300Y0202367D01*
X0096800Y0199867D01*
X0096800Y0194867D01*
X0094300Y0192367D01*
X0096800Y0189867D01*
X0071800Y0189867D02*
X0069300Y0187367D01*
X0064300Y0187367D01*
X0061800Y0189867D01*
X0059300Y0187367D01*
X0054300Y0187367D01*
X0051800Y0189867D01*
X0051800Y0194867D01*
X0054300Y0197367D01*
X0059300Y0197367D01*
X0061800Y0194867D01*
X0064300Y0197367D01*
X0069300Y0197367D01*
X0071800Y0194867D01*
X0071800Y0189867D01*
X0069300Y0197367D02*
X0064300Y0197367D01*
X0061800Y0199867D01*
X0059300Y0197367D01*
X0054300Y0197367D01*
X0051800Y0199867D01*
X0051800Y0204867D01*
X0054300Y0207367D01*
X0059300Y0207367D01*
X0061800Y0204867D01*
X0064300Y0207367D01*
X0069300Y0207367D01*
X0071800Y0204867D01*
X0071800Y0199867D01*
X0069300Y0197367D01*
X0069300Y0207367D02*
X0064300Y0207367D01*
X0061800Y0209867D01*
X0059300Y0207367D01*
X0054300Y0207367D01*
X0051800Y0209867D01*
X0051800Y0214867D01*
X0054300Y0217367D01*
X0059300Y0217367D01*
X0061800Y0214867D01*
X0064300Y0217367D01*
X0069300Y0217367D01*
X0071800Y0214867D01*
X0071800Y0209867D01*
X0069300Y0207367D01*
X0041800Y0209867D02*
X0041800Y0214867D01*
X0039300Y0217367D01*
X0034300Y0217367D01*
X0031800Y0214867D01*
X0029300Y0217367D01*
X0024300Y0217367D01*
X0021800Y0214867D01*
X0019300Y0217367D01*
X0014300Y0217367D01*
X0011800Y0214867D01*
X0011800Y0209867D01*
X0014300Y0207367D01*
X0019300Y0207367D01*
X0021800Y0209867D01*
X0024300Y0207367D01*
X0029300Y0207367D01*
X0031800Y0209867D01*
X0034300Y0207367D01*
X0039300Y0207367D01*
X0041800Y0209867D01*
X0039300Y0192367D02*
X0034300Y0192367D01*
X0031800Y0189867D01*
X0029300Y0192367D01*
X0024300Y0192367D01*
X0021800Y0189867D01*
X0019300Y0192367D01*
X0014300Y0192367D01*
X0011800Y0189867D01*
X0011800Y0184867D01*
X0014300Y0182367D01*
X0019300Y0182367D01*
X0021800Y0184867D01*
X0024300Y0182367D01*
X0029300Y0182367D01*
X0031800Y0184867D01*
X0034300Y0182367D01*
X0039300Y0182367D01*
X0041800Y0184867D01*
X0041800Y0189867D01*
X0039300Y0192367D01*
X0039300Y0169867D02*
X0034300Y0169867D01*
X0031800Y0167367D01*
X0029300Y0169867D01*
X0024300Y0169867D01*
X0021800Y0167367D01*
X0019300Y0169867D01*
X0014300Y0169867D01*
X0011800Y0167367D01*
X0011800Y0162367D01*
X0014300Y0159867D01*
X0019300Y0159867D01*
X0021800Y0162367D01*
X0024300Y0159867D01*
X0029300Y0159867D01*
X0031800Y0162367D01*
X0034300Y0159867D01*
X0039300Y0159867D01*
X0041800Y0162367D01*
X0041800Y0167367D01*
X0039300Y0169867D01*
X0035300Y0149367D02*
X0018300Y0149367D01*
X0014800Y0141414D02*
X0014800Y0133367D01*
X0018300Y0125367D02*
X0035300Y0125367D01*
X0036800Y0117867D02*
X0036800Y0114867D01*
X0037800Y0114867D01*
X0036800Y0114867D02*
X0036800Y0111867D01*
X0016800Y0111867D01*
X0016800Y0114867D01*
X0015800Y0114867D01*
X0016800Y0114867D02*
X0016800Y0117867D01*
X0036800Y0117867D01*
X0036800Y0107867D02*
X0036800Y0104867D01*
X0037800Y0104867D01*
X0036800Y0104867D02*
X0036800Y0101867D01*
X0016800Y0101867D01*
X0016800Y0104867D01*
X0015800Y0104867D01*
X0016800Y0104867D02*
X0016800Y0107867D01*
X0036800Y0107867D01*
X0036800Y0097867D02*
X0036800Y0094867D01*
X0037800Y0094867D01*
X0036800Y0094867D02*
X0036800Y0091867D01*
X0016800Y0091867D01*
X0016800Y0094867D01*
X0015800Y0094867D01*
X0016800Y0094867D02*
X0016800Y0097867D01*
X0036800Y0097867D01*
X0056800Y0099867D02*
X0056800Y0104867D01*
X0059300Y0107367D01*
X0056800Y0109867D01*
X0056800Y0114867D01*
X0059300Y0117367D01*
X0064300Y0117367D01*
X0066800Y0114867D01*
X0066800Y0109867D01*
X0064300Y0107367D01*
X0066800Y0104867D01*
X0066800Y0099867D01*
X0064300Y0097367D01*
X0066800Y0094867D01*
X0066800Y0089867D01*
X0064300Y0087367D01*
X0066800Y0084867D01*
X0066800Y0079867D01*
X0064300Y0077367D01*
X0066800Y0074867D01*
X0066800Y0069867D01*
X0064300Y0067367D01*
X0066800Y0064867D01*
X0066800Y0059867D01*
X0064300Y0057367D01*
X0059300Y0057367D01*
X0056800Y0059867D01*
X0056800Y0064867D01*
X0059300Y0067367D01*
X0056800Y0069867D01*
X0056800Y0074867D01*
X0059300Y0077367D01*
X0056800Y0079867D01*
X0056800Y0084867D01*
X0059300Y0087367D01*
X0056800Y0089867D01*
X0056800Y0094867D01*
X0059300Y0097367D01*
X0056800Y0099867D01*
X0038800Y0133367D02*
X0038800Y0141296D01*
X0019800Y0137367D02*
X0019802Y0137539D01*
X0019808Y0137710D01*
X0019819Y0137882D01*
X0019834Y0138053D01*
X0019853Y0138224D01*
X0019876Y0138394D01*
X0019903Y0138564D01*
X0019935Y0138733D01*
X0019970Y0138901D01*
X0020010Y0139068D01*
X0020054Y0139234D01*
X0020101Y0139399D01*
X0020153Y0139563D01*
X0020209Y0139725D01*
X0020269Y0139886D01*
X0020333Y0140046D01*
X0020401Y0140204D01*
X0020472Y0140360D01*
X0020547Y0140514D01*
X0020627Y0140667D01*
X0020709Y0140817D01*
X0020796Y0140966D01*
X0020886Y0141112D01*
X0020980Y0141256D01*
X0021077Y0141398D01*
X0021178Y0141537D01*
X0021282Y0141674D01*
X0021389Y0141808D01*
X0021500Y0141939D01*
X0021613Y0142068D01*
X0021730Y0142194D01*
X0021850Y0142317D01*
X0021973Y0142437D01*
X0022099Y0142554D01*
X0022228Y0142667D01*
X0022359Y0142778D01*
X0022493Y0142885D01*
X0022630Y0142989D01*
X0022769Y0143090D01*
X0022911Y0143187D01*
X0023055Y0143281D01*
X0023201Y0143371D01*
X0023350Y0143458D01*
X0023500Y0143540D01*
X0023653Y0143620D01*
X0023807Y0143695D01*
X0023963Y0143766D01*
X0024121Y0143834D01*
X0024281Y0143898D01*
X0024442Y0143958D01*
X0024604Y0144014D01*
X0024768Y0144066D01*
X0024933Y0144113D01*
X0025099Y0144157D01*
X0025266Y0144197D01*
X0025434Y0144232D01*
X0025603Y0144264D01*
X0025773Y0144291D01*
X0025943Y0144314D01*
X0026114Y0144333D01*
X0026285Y0144348D01*
X0026457Y0144359D01*
X0026628Y0144365D01*
X0026800Y0144367D01*
X0026972Y0144365D01*
X0027143Y0144359D01*
X0027315Y0144348D01*
X0027486Y0144333D01*
X0027657Y0144314D01*
X0027827Y0144291D01*
X0027997Y0144264D01*
X0028166Y0144232D01*
X0028334Y0144197D01*
X0028501Y0144157D01*
X0028667Y0144113D01*
X0028832Y0144066D01*
X0028996Y0144014D01*
X0029158Y0143958D01*
X0029319Y0143898D01*
X0029479Y0143834D01*
X0029637Y0143766D01*
X0029793Y0143695D01*
X0029947Y0143620D01*
X0030100Y0143540D01*
X0030250Y0143458D01*
X0030399Y0143371D01*
X0030545Y0143281D01*
X0030689Y0143187D01*
X0030831Y0143090D01*
X0030970Y0142989D01*
X0031107Y0142885D01*
X0031241Y0142778D01*
X0031372Y0142667D01*
X0031501Y0142554D01*
X0031627Y0142437D01*
X0031750Y0142317D01*
X0031870Y0142194D01*
X0031987Y0142068D01*
X0032100Y0141939D01*
X0032211Y0141808D01*
X0032318Y0141674D01*
X0032422Y0141537D01*
X0032523Y0141398D01*
X0032620Y0141256D01*
X0032714Y0141112D01*
X0032804Y0140966D01*
X0032891Y0140817D01*
X0032973Y0140667D01*
X0033053Y0140514D01*
X0033128Y0140360D01*
X0033199Y0140204D01*
X0033267Y0140046D01*
X0033331Y0139886D01*
X0033391Y0139725D01*
X0033447Y0139563D01*
X0033499Y0139399D01*
X0033546Y0139234D01*
X0033590Y0139068D01*
X0033630Y0138901D01*
X0033665Y0138733D01*
X0033697Y0138564D01*
X0033724Y0138394D01*
X0033747Y0138224D01*
X0033766Y0138053D01*
X0033781Y0137882D01*
X0033792Y0137710D01*
X0033798Y0137539D01*
X0033800Y0137367D01*
X0033798Y0137195D01*
X0033792Y0137024D01*
X0033781Y0136852D01*
X0033766Y0136681D01*
X0033747Y0136510D01*
X0033724Y0136340D01*
X0033697Y0136170D01*
X0033665Y0136001D01*
X0033630Y0135833D01*
X0033590Y0135666D01*
X0033546Y0135500D01*
X0033499Y0135335D01*
X0033447Y0135171D01*
X0033391Y0135009D01*
X0033331Y0134848D01*
X0033267Y0134688D01*
X0033199Y0134530D01*
X0033128Y0134374D01*
X0033053Y0134220D01*
X0032973Y0134067D01*
X0032891Y0133917D01*
X0032804Y0133768D01*
X0032714Y0133622D01*
X0032620Y0133478D01*
X0032523Y0133336D01*
X0032422Y0133197D01*
X0032318Y0133060D01*
X0032211Y0132926D01*
X0032100Y0132795D01*
X0031987Y0132666D01*
X0031870Y0132540D01*
X0031750Y0132417D01*
X0031627Y0132297D01*
X0031501Y0132180D01*
X0031372Y0132067D01*
X0031241Y0131956D01*
X0031107Y0131849D01*
X0030970Y0131745D01*
X0030831Y0131644D01*
X0030689Y0131547D01*
X0030545Y0131453D01*
X0030399Y0131363D01*
X0030250Y0131276D01*
X0030100Y0131194D01*
X0029947Y0131114D01*
X0029793Y0131039D01*
X0029637Y0130968D01*
X0029479Y0130900D01*
X0029319Y0130836D01*
X0029158Y0130776D01*
X0028996Y0130720D01*
X0028832Y0130668D01*
X0028667Y0130621D01*
X0028501Y0130577D01*
X0028334Y0130537D01*
X0028166Y0130502D01*
X0027997Y0130470D01*
X0027827Y0130443D01*
X0027657Y0130420D01*
X0027486Y0130401D01*
X0027315Y0130386D01*
X0027143Y0130375D01*
X0026972Y0130369D01*
X0026800Y0130367D01*
X0026628Y0130369D01*
X0026457Y0130375D01*
X0026285Y0130386D01*
X0026114Y0130401D01*
X0025943Y0130420D01*
X0025773Y0130443D01*
X0025603Y0130470D01*
X0025434Y0130502D01*
X0025266Y0130537D01*
X0025099Y0130577D01*
X0024933Y0130621D01*
X0024768Y0130668D01*
X0024604Y0130720D01*
X0024442Y0130776D01*
X0024281Y0130836D01*
X0024121Y0130900D01*
X0023963Y0130968D01*
X0023807Y0131039D01*
X0023653Y0131114D01*
X0023500Y0131194D01*
X0023350Y0131276D01*
X0023201Y0131363D01*
X0023055Y0131453D01*
X0022911Y0131547D01*
X0022769Y0131644D01*
X0022630Y0131745D01*
X0022493Y0131849D01*
X0022359Y0131956D01*
X0022228Y0132067D01*
X0022099Y0132180D01*
X0021973Y0132297D01*
X0021850Y0132417D01*
X0021730Y0132540D01*
X0021613Y0132666D01*
X0021500Y0132795D01*
X0021389Y0132926D01*
X0021282Y0133060D01*
X0021178Y0133197D01*
X0021077Y0133336D01*
X0020980Y0133478D01*
X0020886Y0133622D01*
X0020796Y0133768D01*
X0020709Y0133917D01*
X0020627Y0134067D01*
X0020547Y0134220D01*
X0020472Y0134374D01*
X0020401Y0134530D01*
X0020333Y0134688D01*
X0020269Y0134848D01*
X0020209Y0135009D01*
X0020153Y0135171D01*
X0020101Y0135335D01*
X0020054Y0135500D01*
X0020010Y0135666D01*
X0019970Y0135833D01*
X0019935Y0136001D01*
X0019903Y0136170D01*
X0019876Y0136340D01*
X0019853Y0136510D01*
X0019834Y0136681D01*
X0019819Y0136852D01*
X0019808Y0137024D01*
X0019802Y0137195D01*
X0019800Y0137367D01*
X0099300Y0042367D02*
X0096800Y0039867D01*
X0096800Y0034867D01*
X0099300Y0032367D01*
X0096800Y0029867D01*
X0096800Y0024867D01*
X0099300Y0022367D01*
X0096800Y0019867D01*
X0096800Y0014867D01*
X0099300Y0012367D01*
X0104300Y0012367D01*
X0106800Y0014867D01*
X0106800Y0019867D01*
X0104300Y0022367D01*
X0106800Y0024867D01*
X0106800Y0029867D01*
X0104300Y0032367D01*
X0106800Y0034867D01*
X0106800Y0039867D01*
X0104300Y0042367D01*
X0099300Y0042367D01*
X0086800Y0034867D02*
X0084300Y0037367D01*
X0079300Y0037367D01*
X0076800Y0034867D01*
X0074300Y0037367D01*
X0069300Y0037367D01*
X0066800Y0034867D01*
X0064300Y0037367D01*
X0059300Y0037367D01*
X0056800Y0034867D01*
X0054300Y0037367D01*
X0049300Y0037367D01*
X0046800Y0034867D01*
X0044300Y0037367D01*
X0039300Y0037367D01*
X0036800Y0034867D01*
X0034300Y0037367D01*
X0029300Y0037367D01*
X0026800Y0034867D01*
X0024300Y0037367D01*
X0019300Y0037367D01*
X0016800Y0034867D01*
X0014300Y0037367D01*
X0009300Y0037367D01*
X0006800Y0034867D01*
X0006800Y0029867D01*
X0009300Y0027367D01*
X0014300Y0027367D01*
X0016800Y0029867D01*
X0019300Y0027367D01*
X0024300Y0027367D01*
X0026800Y0029867D01*
X0029300Y0027367D01*
X0034300Y0027367D01*
X0036800Y0029867D01*
X0039300Y0027367D01*
X0044300Y0027367D01*
X0046800Y0029867D01*
X0049300Y0027367D01*
X0054300Y0027367D01*
X0056800Y0029867D01*
X0059300Y0027367D01*
X0064300Y0027367D01*
X0066800Y0029867D01*
X0069300Y0027367D01*
X0074300Y0027367D01*
X0076800Y0029867D01*
X0079300Y0027367D01*
X0084300Y0027367D01*
X0086800Y0029867D01*
X0086800Y0034867D01*
X0116800Y0034867D02*
X0116800Y0039867D01*
X0119300Y0042367D01*
X0124300Y0042367D01*
X0126800Y0039867D01*
X0126800Y0034867D01*
X0124300Y0032367D01*
X0126800Y0029867D01*
X0126800Y0024867D01*
X0124300Y0022367D01*
X0126800Y0019867D01*
X0126800Y0014867D01*
X0124300Y0012367D01*
X0119300Y0012367D01*
X0116800Y0014867D01*
X0116800Y0019867D01*
X0119300Y0022367D01*
X0116800Y0024867D01*
X0116800Y0029867D01*
X0119300Y0032367D01*
X0116800Y0034867D01*
X0134300Y0034867D02*
X0134300Y0039867D01*
X0136800Y0042367D01*
X0141800Y0042367D01*
X0144300Y0039867D01*
X0144300Y0034867D01*
X0141800Y0032367D01*
X0144300Y0029867D01*
X0144300Y0024867D01*
X0141800Y0022367D01*
X0144300Y0019867D01*
X0144300Y0014867D01*
X0141800Y0012367D01*
X0136800Y0012367D01*
X0134300Y0014867D01*
X0134300Y0019867D01*
X0136800Y0022367D01*
X0134300Y0024867D01*
X0134300Y0029867D01*
X0136800Y0032367D01*
X0134300Y0034867D01*
X0151800Y0034867D02*
X0154300Y0032367D01*
X0151800Y0029867D01*
X0151800Y0024867D01*
X0154300Y0022367D01*
X0151800Y0019867D01*
X0151800Y0014867D01*
X0154300Y0012367D01*
X0159300Y0012367D01*
X0161800Y0014867D01*
X0161800Y0019867D01*
X0159300Y0022367D01*
X0161800Y0024867D01*
X0161800Y0029867D01*
X0159300Y0032367D01*
X0161800Y0034867D01*
X0161800Y0039867D01*
X0159300Y0042367D01*
X0154300Y0042367D01*
X0151800Y0039867D01*
X0151800Y0034867D01*
X0169300Y0034867D02*
X0169300Y0039867D01*
X0171800Y0042367D01*
X0176800Y0042367D01*
X0179300Y0039867D01*
X0179300Y0034867D01*
X0176800Y0032367D01*
X0179300Y0029867D01*
X0179300Y0024867D01*
X0176800Y0022367D01*
X0179300Y0019867D01*
X0179300Y0014867D01*
X0176800Y0012367D01*
X0171800Y0012367D01*
X0169300Y0014867D01*
X0169300Y0019867D01*
X0171800Y0022367D01*
X0169300Y0024867D01*
X0169300Y0029867D01*
X0171800Y0032367D01*
X0169300Y0034867D01*
X0186800Y0034867D02*
X0186800Y0039867D01*
X0189300Y0042367D01*
X0194300Y0042367D01*
X0196800Y0039867D01*
X0196800Y0034867D01*
X0194300Y0032367D01*
X0196800Y0029867D01*
X0196800Y0024867D01*
X0194300Y0022367D01*
X0196800Y0019867D01*
X0196800Y0014867D01*
X0194300Y0012367D01*
X0189300Y0012367D01*
X0186800Y0014867D01*
X0186800Y0019867D01*
X0189300Y0022367D01*
X0186800Y0024867D01*
X0186800Y0029867D01*
X0189300Y0032367D01*
X0186800Y0034867D01*
X0204300Y0034867D02*
X0206800Y0032367D01*
X0204300Y0029867D01*
X0204300Y0024867D01*
X0206800Y0022367D01*
X0204300Y0019867D01*
X0204300Y0014867D01*
X0206800Y0012367D01*
X0211800Y0012367D01*
X0214300Y0014867D01*
X0214300Y0019867D01*
X0211800Y0022367D01*
X0214300Y0024867D01*
X0214300Y0029867D01*
X0211800Y0032367D01*
X0214300Y0034867D01*
X0214300Y0039867D01*
X0211800Y0042367D01*
X0206800Y0042367D01*
X0204300Y0039867D01*
X0204300Y0034867D01*
X0221800Y0034867D02*
X0221800Y0039867D01*
X0224300Y0042367D01*
X0229300Y0042367D01*
X0231800Y0039867D01*
X0231800Y0034867D01*
X0229300Y0032367D01*
X0231800Y0029867D01*
X0231800Y0024867D01*
X0229300Y0022367D01*
X0231800Y0019867D01*
X0231800Y0014867D01*
X0229300Y0012367D01*
X0224300Y0012367D01*
X0221800Y0014867D01*
X0221800Y0019867D01*
X0224300Y0022367D01*
X0221800Y0024867D01*
X0221800Y0029867D01*
X0224300Y0032367D01*
X0221800Y0034867D01*
X0261800Y0032367D02*
X0261800Y0027367D01*
X0264300Y0024867D01*
X0269300Y0024867D01*
X0271800Y0027367D01*
X0274300Y0024867D01*
X0279300Y0024867D01*
X0281800Y0027367D01*
X0281800Y0032367D01*
X0279300Y0034867D01*
X0274300Y0034867D01*
X0271800Y0032367D01*
X0269300Y0034867D01*
X0264300Y0034867D01*
X0261800Y0032367D01*
X0264300Y0019867D02*
X0269300Y0019867D01*
X0271800Y0017367D01*
X0274300Y0019867D01*
X0279300Y0019867D01*
X0281800Y0017367D01*
X0281800Y0012367D01*
X0279300Y0009867D01*
X0274300Y0009867D01*
X0271800Y0012367D01*
X0269300Y0009867D01*
X0264300Y0009867D01*
X0261800Y0012367D01*
X0261800Y0017367D01*
X0264300Y0019867D01*
D14*
X0036378Y0088317D02*
X0035377Y0088317D01*
X0036378Y0089318D01*
X0036378Y0089568D01*
X0036127Y0089818D01*
X0035627Y0089818D01*
X0035377Y0089568D01*
X0034904Y0089568D02*
X0034904Y0089067D01*
X0034654Y0088817D01*
X0033903Y0088817D01*
X0033903Y0088317D02*
X0033903Y0089818D01*
X0034654Y0089818D01*
X0034904Y0089568D01*
X0034404Y0088817D02*
X0034904Y0088317D01*
X0034904Y0098317D02*
X0034404Y0098817D01*
X0034654Y0098817D02*
X0033903Y0098817D01*
X0033903Y0098317D02*
X0033903Y0099818D01*
X0034654Y0099818D01*
X0034904Y0099568D01*
X0034904Y0099067D01*
X0034654Y0098817D01*
X0035377Y0098317D02*
X0036378Y0098317D01*
X0035877Y0098317D02*
X0035877Y0099818D01*
X0035377Y0099318D01*
X0019074Y0119917D02*
X0018573Y0119917D01*
X0018323Y0120167D01*
X0017851Y0119917D02*
X0017350Y0120417D01*
X0017601Y0120417D02*
X0016850Y0120417D01*
X0016850Y0119917D02*
X0016850Y0121418D01*
X0017601Y0121418D01*
X0017851Y0121168D01*
X0017851Y0120667D01*
X0017601Y0120417D01*
X0018323Y0121168D02*
X0018573Y0121418D01*
X0019074Y0121418D01*
X0019324Y0121168D01*
X0019324Y0120918D01*
X0019074Y0120667D01*
X0019324Y0120417D01*
X0019324Y0120167D01*
X0019074Y0119917D01*
X0019074Y0120667D02*
X0018824Y0120667D01*
D15*
X0020234Y0117070D02*
X0020234Y0113667D01*
X0019100Y0113667D02*
X0021369Y0113667D01*
X0022783Y0114234D02*
X0022783Y0116502D01*
X0023350Y0117070D01*
X0024485Y0117070D01*
X0025052Y0116502D01*
X0022783Y0114234D01*
X0023350Y0113667D01*
X0024485Y0113667D01*
X0025052Y0114234D01*
X0025052Y0116502D01*
X0026466Y0117070D02*
X0026466Y0113667D01*
X0026466Y0114801D02*
X0028735Y0117070D01*
X0027033Y0115368D02*
X0028735Y0113667D01*
X0028301Y0106070D02*
X0027734Y0105502D01*
X0027734Y0103234D01*
X0030002Y0105502D01*
X0030002Y0103234D01*
X0029435Y0102667D01*
X0028301Y0102667D01*
X0027734Y0103234D01*
X0026319Y0102667D02*
X0024051Y0102667D01*
X0026319Y0104935D01*
X0026319Y0105502D01*
X0025752Y0106070D01*
X0024618Y0106070D01*
X0024051Y0105502D01*
X0028301Y0106070D02*
X0029435Y0106070D01*
X0030002Y0105502D01*
X0031417Y0105502D02*
X0031417Y0103234D01*
X0033685Y0105502D01*
X0033685Y0103234D01*
X0033118Y0102667D01*
X0031984Y0102667D01*
X0031417Y0103234D01*
X0031417Y0105502D02*
X0031984Y0106070D01*
X0033118Y0106070D01*
X0033685Y0105502D01*
X0033118Y0096070D02*
X0033685Y0095502D01*
X0031417Y0093234D01*
X0031984Y0092667D01*
X0033118Y0092667D01*
X0033685Y0093234D01*
X0033685Y0095502D01*
X0033118Y0096070D02*
X0031984Y0096070D01*
X0031417Y0095502D01*
X0031417Y0093234D01*
X0030002Y0093234D02*
X0030002Y0095502D01*
X0027734Y0093234D01*
X0028301Y0092667D01*
X0029435Y0092667D01*
X0030002Y0093234D01*
X0027734Y0093234D02*
X0027734Y0095502D01*
X0028301Y0096070D01*
X0029435Y0096070D01*
X0030002Y0095502D01*
X0026319Y0095502D02*
X0025752Y0096070D01*
X0024618Y0096070D01*
X0024051Y0095502D01*
X0026319Y0095502D02*
X0026319Y0094935D01*
X0024051Y0092667D01*
X0026319Y0092667D01*
X0019100Y0115935D02*
X0020234Y0117070D01*
X0050800Y0137367D02*
X0050803Y0137637D01*
X0050813Y0137907D01*
X0050830Y0138176D01*
X0050853Y0138445D01*
X0050883Y0138714D01*
X0050919Y0138981D01*
X0050962Y0139248D01*
X0051011Y0139513D01*
X0051067Y0139777D01*
X0051130Y0140040D01*
X0051198Y0140301D01*
X0051274Y0140560D01*
X0051355Y0140817D01*
X0051443Y0141073D01*
X0051537Y0141326D01*
X0051637Y0141577D01*
X0051744Y0141825D01*
X0051856Y0142070D01*
X0051975Y0142313D01*
X0052099Y0142552D01*
X0052229Y0142789D01*
X0052365Y0143022D01*
X0052507Y0143252D01*
X0052654Y0143478D01*
X0052807Y0143701D01*
X0052965Y0143920D01*
X0053128Y0144135D01*
X0053297Y0144345D01*
X0053471Y0144552D01*
X0053650Y0144754D01*
X0053833Y0144952D01*
X0054022Y0145145D01*
X0054215Y0145334D01*
X0054413Y0145517D01*
X0054615Y0145696D01*
X0054822Y0145870D01*
X0055032Y0146039D01*
X0055247Y0146202D01*
X0055466Y0146360D01*
X0055689Y0146513D01*
X0055915Y0146660D01*
X0056145Y0146802D01*
X0056378Y0146938D01*
X0056615Y0147068D01*
X0056854Y0147192D01*
X0057097Y0147311D01*
X0057342Y0147423D01*
X0057590Y0147530D01*
X0057841Y0147630D01*
X0058094Y0147724D01*
X0058350Y0147812D01*
X0058607Y0147893D01*
X0058866Y0147969D01*
X0059127Y0148037D01*
X0059390Y0148100D01*
X0059654Y0148156D01*
X0059919Y0148205D01*
X0060186Y0148248D01*
X0060453Y0148284D01*
X0060722Y0148314D01*
X0060991Y0148337D01*
X0061260Y0148354D01*
X0061530Y0148364D01*
X0061800Y0148367D01*
X0062070Y0148364D01*
X0062340Y0148354D01*
X0062609Y0148337D01*
X0062878Y0148314D01*
X0063147Y0148284D01*
X0063414Y0148248D01*
X0063681Y0148205D01*
X0063946Y0148156D01*
X0064210Y0148100D01*
X0064473Y0148037D01*
X0064734Y0147969D01*
X0064993Y0147893D01*
X0065250Y0147812D01*
X0065506Y0147724D01*
X0065759Y0147630D01*
X0066010Y0147530D01*
X0066258Y0147423D01*
X0066503Y0147311D01*
X0066746Y0147192D01*
X0066985Y0147068D01*
X0067222Y0146938D01*
X0067455Y0146802D01*
X0067685Y0146660D01*
X0067911Y0146513D01*
X0068134Y0146360D01*
X0068353Y0146202D01*
X0068568Y0146039D01*
X0068778Y0145870D01*
X0068985Y0145696D01*
X0069187Y0145517D01*
X0069385Y0145334D01*
X0069578Y0145145D01*
X0069767Y0144952D01*
X0069950Y0144754D01*
X0070129Y0144552D01*
X0070303Y0144345D01*
X0070472Y0144135D01*
X0070635Y0143920D01*
X0070793Y0143701D01*
X0070946Y0143478D01*
X0071093Y0143252D01*
X0071235Y0143022D01*
X0071371Y0142789D01*
X0071501Y0142552D01*
X0071625Y0142313D01*
X0071744Y0142070D01*
X0071856Y0141825D01*
X0071963Y0141577D01*
X0072063Y0141326D01*
X0072157Y0141073D01*
X0072245Y0140817D01*
X0072326Y0140560D01*
X0072402Y0140301D01*
X0072470Y0140040D01*
X0072533Y0139777D01*
X0072589Y0139513D01*
X0072638Y0139248D01*
X0072681Y0138981D01*
X0072717Y0138714D01*
X0072747Y0138445D01*
X0072770Y0138176D01*
X0072787Y0137907D01*
X0072797Y0137637D01*
X0072800Y0137367D01*
X0072797Y0137097D01*
X0072787Y0136827D01*
X0072770Y0136558D01*
X0072747Y0136289D01*
X0072717Y0136020D01*
X0072681Y0135753D01*
X0072638Y0135486D01*
X0072589Y0135221D01*
X0072533Y0134957D01*
X0072470Y0134694D01*
X0072402Y0134433D01*
X0072326Y0134174D01*
X0072245Y0133917D01*
X0072157Y0133661D01*
X0072063Y0133408D01*
X0071963Y0133157D01*
X0071856Y0132909D01*
X0071744Y0132664D01*
X0071625Y0132421D01*
X0071501Y0132182D01*
X0071371Y0131945D01*
X0071235Y0131712D01*
X0071093Y0131482D01*
X0070946Y0131256D01*
X0070793Y0131033D01*
X0070635Y0130814D01*
X0070472Y0130599D01*
X0070303Y0130389D01*
X0070129Y0130182D01*
X0069950Y0129980D01*
X0069767Y0129782D01*
X0069578Y0129589D01*
X0069385Y0129400D01*
X0069187Y0129217D01*
X0068985Y0129038D01*
X0068778Y0128864D01*
X0068568Y0128695D01*
X0068353Y0128532D01*
X0068134Y0128374D01*
X0067911Y0128221D01*
X0067685Y0128074D01*
X0067455Y0127932D01*
X0067222Y0127796D01*
X0066985Y0127666D01*
X0066746Y0127542D01*
X0066503Y0127423D01*
X0066258Y0127311D01*
X0066010Y0127204D01*
X0065759Y0127104D01*
X0065506Y0127010D01*
X0065250Y0126922D01*
X0064993Y0126841D01*
X0064734Y0126765D01*
X0064473Y0126697D01*
X0064210Y0126634D01*
X0063946Y0126578D01*
X0063681Y0126529D01*
X0063414Y0126486D01*
X0063147Y0126450D01*
X0062878Y0126420D01*
X0062609Y0126397D01*
X0062340Y0126380D01*
X0062070Y0126370D01*
X0061800Y0126367D01*
X0061530Y0126370D01*
X0061260Y0126380D01*
X0060991Y0126397D01*
X0060722Y0126420D01*
X0060453Y0126450D01*
X0060186Y0126486D01*
X0059919Y0126529D01*
X0059654Y0126578D01*
X0059390Y0126634D01*
X0059127Y0126697D01*
X0058866Y0126765D01*
X0058607Y0126841D01*
X0058350Y0126922D01*
X0058094Y0127010D01*
X0057841Y0127104D01*
X0057590Y0127204D01*
X0057342Y0127311D01*
X0057097Y0127423D01*
X0056854Y0127542D01*
X0056615Y0127666D01*
X0056378Y0127796D01*
X0056145Y0127932D01*
X0055915Y0128074D01*
X0055689Y0128221D01*
X0055466Y0128374D01*
X0055247Y0128532D01*
X0055032Y0128695D01*
X0054822Y0128864D01*
X0054615Y0129038D01*
X0054413Y0129217D01*
X0054215Y0129400D01*
X0054022Y0129589D01*
X0053833Y0129782D01*
X0053650Y0129980D01*
X0053471Y0130182D01*
X0053297Y0130389D01*
X0053128Y0130599D01*
X0052965Y0130814D01*
X0052807Y0131033D01*
X0052654Y0131256D01*
X0052507Y0131482D01*
X0052365Y0131712D01*
X0052229Y0131945D01*
X0052099Y0132182D01*
X0051975Y0132421D01*
X0051856Y0132664D01*
X0051744Y0132909D01*
X0051637Y0133157D01*
X0051537Y0133408D01*
X0051443Y0133661D01*
X0051355Y0133917D01*
X0051274Y0134174D01*
X0051198Y0134433D01*
X0051130Y0134694D01*
X0051067Y0134957D01*
X0051011Y0135221D01*
X0050962Y0135486D01*
X0050919Y0135753D01*
X0050883Y0136020D01*
X0050853Y0136289D01*
X0050830Y0136558D01*
X0050813Y0136827D01*
X0050803Y0137097D01*
X0050800Y0137367D01*
X0066800Y0132367D02*
X0068300Y0132367D01*
X0068300Y0130867D01*
X0068300Y0132367D02*
X0068300Y0133867D01*
X0068300Y0132367D02*
X0069800Y0132367D01*
X0068300Y0160867D02*
X0068300Y0162367D01*
X0066800Y0162367D01*
X0068300Y0162367D02*
X0068300Y0163867D01*
X0068300Y0162367D02*
X0069800Y0162367D01*
X0050800Y0167367D02*
X0050803Y0167637D01*
X0050813Y0167907D01*
X0050830Y0168176D01*
X0050853Y0168445D01*
X0050883Y0168714D01*
X0050919Y0168981D01*
X0050962Y0169248D01*
X0051011Y0169513D01*
X0051067Y0169777D01*
X0051130Y0170040D01*
X0051198Y0170301D01*
X0051274Y0170560D01*
X0051355Y0170817D01*
X0051443Y0171073D01*
X0051537Y0171326D01*
X0051637Y0171577D01*
X0051744Y0171825D01*
X0051856Y0172070D01*
X0051975Y0172313D01*
X0052099Y0172552D01*
X0052229Y0172789D01*
X0052365Y0173022D01*
X0052507Y0173252D01*
X0052654Y0173478D01*
X0052807Y0173701D01*
X0052965Y0173920D01*
X0053128Y0174135D01*
X0053297Y0174345D01*
X0053471Y0174552D01*
X0053650Y0174754D01*
X0053833Y0174952D01*
X0054022Y0175145D01*
X0054215Y0175334D01*
X0054413Y0175517D01*
X0054615Y0175696D01*
X0054822Y0175870D01*
X0055032Y0176039D01*
X0055247Y0176202D01*
X0055466Y0176360D01*
X0055689Y0176513D01*
X0055915Y0176660D01*
X0056145Y0176802D01*
X0056378Y0176938D01*
X0056615Y0177068D01*
X0056854Y0177192D01*
X0057097Y0177311D01*
X0057342Y0177423D01*
X0057590Y0177530D01*
X0057841Y0177630D01*
X0058094Y0177724D01*
X0058350Y0177812D01*
X0058607Y0177893D01*
X0058866Y0177969D01*
X0059127Y0178037D01*
X0059390Y0178100D01*
X0059654Y0178156D01*
X0059919Y0178205D01*
X0060186Y0178248D01*
X0060453Y0178284D01*
X0060722Y0178314D01*
X0060991Y0178337D01*
X0061260Y0178354D01*
X0061530Y0178364D01*
X0061800Y0178367D01*
X0062070Y0178364D01*
X0062340Y0178354D01*
X0062609Y0178337D01*
X0062878Y0178314D01*
X0063147Y0178284D01*
X0063414Y0178248D01*
X0063681Y0178205D01*
X0063946Y0178156D01*
X0064210Y0178100D01*
X0064473Y0178037D01*
X0064734Y0177969D01*
X0064993Y0177893D01*
X0065250Y0177812D01*
X0065506Y0177724D01*
X0065759Y0177630D01*
X0066010Y0177530D01*
X0066258Y0177423D01*
X0066503Y0177311D01*
X0066746Y0177192D01*
X0066985Y0177068D01*
X0067222Y0176938D01*
X0067455Y0176802D01*
X0067685Y0176660D01*
X0067911Y0176513D01*
X0068134Y0176360D01*
X0068353Y0176202D01*
X0068568Y0176039D01*
X0068778Y0175870D01*
X0068985Y0175696D01*
X0069187Y0175517D01*
X0069385Y0175334D01*
X0069578Y0175145D01*
X0069767Y0174952D01*
X0069950Y0174754D01*
X0070129Y0174552D01*
X0070303Y0174345D01*
X0070472Y0174135D01*
X0070635Y0173920D01*
X0070793Y0173701D01*
X0070946Y0173478D01*
X0071093Y0173252D01*
X0071235Y0173022D01*
X0071371Y0172789D01*
X0071501Y0172552D01*
X0071625Y0172313D01*
X0071744Y0172070D01*
X0071856Y0171825D01*
X0071963Y0171577D01*
X0072063Y0171326D01*
X0072157Y0171073D01*
X0072245Y0170817D01*
X0072326Y0170560D01*
X0072402Y0170301D01*
X0072470Y0170040D01*
X0072533Y0169777D01*
X0072589Y0169513D01*
X0072638Y0169248D01*
X0072681Y0168981D01*
X0072717Y0168714D01*
X0072747Y0168445D01*
X0072770Y0168176D01*
X0072787Y0167907D01*
X0072797Y0167637D01*
X0072800Y0167367D01*
X0072797Y0167097D01*
X0072787Y0166827D01*
X0072770Y0166558D01*
X0072747Y0166289D01*
X0072717Y0166020D01*
X0072681Y0165753D01*
X0072638Y0165486D01*
X0072589Y0165221D01*
X0072533Y0164957D01*
X0072470Y0164694D01*
X0072402Y0164433D01*
X0072326Y0164174D01*
X0072245Y0163917D01*
X0072157Y0163661D01*
X0072063Y0163408D01*
X0071963Y0163157D01*
X0071856Y0162909D01*
X0071744Y0162664D01*
X0071625Y0162421D01*
X0071501Y0162182D01*
X0071371Y0161945D01*
X0071235Y0161712D01*
X0071093Y0161482D01*
X0070946Y0161256D01*
X0070793Y0161033D01*
X0070635Y0160814D01*
X0070472Y0160599D01*
X0070303Y0160389D01*
X0070129Y0160182D01*
X0069950Y0159980D01*
X0069767Y0159782D01*
X0069578Y0159589D01*
X0069385Y0159400D01*
X0069187Y0159217D01*
X0068985Y0159038D01*
X0068778Y0158864D01*
X0068568Y0158695D01*
X0068353Y0158532D01*
X0068134Y0158374D01*
X0067911Y0158221D01*
X0067685Y0158074D01*
X0067455Y0157932D01*
X0067222Y0157796D01*
X0066985Y0157666D01*
X0066746Y0157542D01*
X0066503Y0157423D01*
X0066258Y0157311D01*
X0066010Y0157204D01*
X0065759Y0157104D01*
X0065506Y0157010D01*
X0065250Y0156922D01*
X0064993Y0156841D01*
X0064734Y0156765D01*
X0064473Y0156697D01*
X0064210Y0156634D01*
X0063946Y0156578D01*
X0063681Y0156529D01*
X0063414Y0156486D01*
X0063147Y0156450D01*
X0062878Y0156420D01*
X0062609Y0156397D01*
X0062340Y0156380D01*
X0062070Y0156370D01*
X0061800Y0156367D01*
X0061530Y0156370D01*
X0061260Y0156380D01*
X0060991Y0156397D01*
X0060722Y0156420D01*
X0060453Y0156450D01*
X0060186Y0156486D01*
X0059919Y0156529D01*
X0059654Y0156578D01*
X0059390Y0156634D01*
X0059127Y0156697D01*
X0058866Y0156765D01*
X0058607Y0156841D01*
X0058350Y0156922D01*
X0058094Y0157010D01*
X0057841Y0157104D01*
X0057590Y0157204D01*
X0057342Y0157311D01*
X0057097Y0157423D01*
X0056854Y0157542D01*
X0056615Y0157666D01*
X0056378Y0157796D01*
X0056145Y0157932D01*
X0055915Y0158074D01*
X0055689Y0158221D01*
X0055466Y0158374D01*
X0055247Y0158532D01*
X0055032Y0158695D01*
X0054822Y0158864D01*
X0054615Y0159038D01*
X0054413Y0159217D01*
X0054215Y0159400D01*
X0054022Y0159589D01*
X0053833Y0159782D01*
X0053650Y0159980D01*
X0053471Y0160182D01*
X0053297Y0160389D01*
X0053128Y0160599D01*
X0052965Y0160814D01*
X0052807Y0161033D01*
X0052654Y0161256D01*
X0052507Y0161482D01*
X0052365Y0161712D01*
X0052229Y0161945D01*
X0052099Y0162182D01*
X0051975Y0162421D01*
X0051856Y0162664D01*
X0051744Y0162909D01*
X0051637Y0163157D01*
X0051537Y0163408D01*
X0051443Y0163661D01*
X0051355Y0163917D01*
X0051274Y0164174D01*
X0051198Y0164433D01*
X0051130Y0164694D01*
X0051067Y0164957D01*
X0051011Y0165221D01*
X0050962Y0165486D01*
X0050919Y0165753D01*
X0050883Y0166020D01*
X0050853Y0166289D01*
X0050830Y0166558D01*
X0050813Y0166827D01*
X0050803Y0167097D01*
X0050800Y0167367D01*
M02*
