%
M48
M72
T01C0.02400
T02C0.03200
T03C0.03543
T04C0.03937
T05C0.04000
%
T01
X116800Y32367
X136800Y47367
X136800Y72367
X144300Y92367
X151800Y94867
X159300Y97367
X176800Y97367
X206800Y92367
X221800Y79867
X209300Y67367
X234300Y104867
X239300Y104867
X221800Y117367
X186800Y122367
X186800Y137367
X184300Y149867
X179300Y154867
X164300Y164867
X159300Y169867
X149300Y159867
X204300Y207367
X236800Y167367
X286800Y107367
X286800Y94867
X131800Y212367
X126800Y104867
X121800Y99867
X49300Y94867
T02
X21800Y77367
X11800Y77367
X11800Y52367
X21800Y52367
X56800Y137367
X66800Y137367
X66800Y167367
X56800Y167367
T03
X41800Y114867
X41800Y104867
X41800Y94867
X11800Y94867
X11800Y104867
X11800Y114867
T04
X91800Y112367
X101800Y117367
X111800Y117367
X121800Y117367
X131800Y117367
X141800Y117367
X151800Y117367
X161800Y117367
X171800Y117367
X181800Y117367
X191800Y117367
X201800Y117367
X211800Y117367
X211800Y107367
X211800Y97367
X211800Y87367
X211800Y57367
X201800Y57367
X191800Y57367
X181800Y57367
X171800Y57367
X161800Y57367
X151800Y57367
X141800Y57367
X131800Y57367
X121800Y57367
X111800Y57367
X101800Y57367
X91800Y62367
X91800Y72367
X91800Y82367
X91800Y92367
X91800Y102367
X136800Y107367
X146800Y107367
X276800Y100674
X276800Y86953
X276800Y73174
X276800Y59453
X276800Y45674
X276800Y114453
T05
X11800Y32367
X21800Y32367
X31800Y32367
X41800Y32367
X51800Y32367
X61800Y32367
X71800Y32367
X81800Y32367
X101800Y37367
X101800Y27367
X101800Y17367
X121800Y17367
X121800Y27367
X121800Y37367
X139300Y37367
X139300Y27367
X139300Y17367
X156800Y17367
X156800Y27367
X156800Y37367
X174300Y37367
X174300Y27367
X174300Y17367
X191800Y17367
X191800Y27367
X191800Y37367
X209300Y37367
X209300Y27367
X209300Y17367
X226800Y17367
X226800Y27367
X226800Y37367
X266800Y29867
X276800Y29867
X276800Y14867
X266800Y14867
X276800Y132367
X276800Y142367
X276800Y152367
X276800Y162367
X276800Y172367
X276800Y182367
X276800Y192367
X276800Y202367
X291800Y202367
X291800Y192367
X291800Y182367
X291800Y172367
X291800Y162367
X291800Y152367
X291800Y142367
X291800Y132367
X201800Y177367
X201800Y187367
X91800Y187367
X91800Y197367
X91800Y207367
X91800Y217367
X66800Y212367
X56800Y212367
X56800Y202367
X66800Y202367
X66800Y192367
X56800Y192367
X36800Y187367
X26800Y187367
X16800Y187367
X16800Y164867
X26800Y164867
X36800Y164867
X39600Y146267
X39600Y128467
X14000Y128467
X14000Y146267
X61800Y112367
X61800Y102367
X61800Y92367
X61800Y82367
X61800Y72367
X61800Y62367
X91800Y157367
X91800Y167367
X91800Y177367
X36800Y212367
X26800Y212367
X16800Y212367
M30
