G75*
%MOIN*%
%OFA0B0*%
%FSLAX25Y25*%
%IPPOS*%
%LPD*%
%AMOC8*
5,1,8,0,0,1.08239X$1,22.5*
%
%ADD10C,0.00000*%
%ADD11C,0.01600*%
%ADD12R,0.04331X0.03937*%
%ADD13R,0.05000X0.06000*%
%ADD14R,0.06000X0.05000*%
%ADD15R,0.03150X0.04724*%
%ADD16R,0.02559X0.01969*%
%ADD17R,0.01969X0.02559*%
%ADD18R,0.02165X0.04724*%
%ADD19R,0.05000X0.02200*%
%ADD20R,0.02200X0.05000*%
%ADD21R,0.03937X0.04331*%
%ADD22C,0.00600*%
%ADD23C,0.02400*%
D10*
X0002124Y0082300D02*
X0002124Y0317261D01*
X0390825Y0317261D01*
X0390825Y0002300D01*
X0117124Y0002300D01*
D11*
X0002124Y0002300D02*
X0002124Y0082300D01*
X0117124Y0082300D01*
X0117124Y0002300D01*
X0002124Y0002300D01*
D12*
X0006778Y0035900D03*
X0013470Y0035900D03*
X0019778Y0050300D03*
X0026470Y0050300D03*
X0026470Y0062700D03*
X0019778Y0062700D03*
D13*
X0057124Y0077900D03*
X0065124Y0077900D03*
X0072124Y0077900D03*
X0080124Y0077700D03*
X0088124Y0077700D03*
X0096124Y0077700D03*
X0103924Y0077700D03*
X0111124Y0077700D03*
X0112324Y0061500D03*
X0112324Y0050300D03*
X0111124Y0009300D03*
X0095924Y0009300D03*
X0087924Y0009300D03*
X0079924Y0009300D03*
X0071924Y0009300D03*
X0064324Y0009500D03*
X0056724Y0009300D03*
D14*
X0007524Y0015900D03*
X0007524Y0024700D03*
X0007724Y0052300D03*
X0007724Y0060500D03*
X0112524Y0041100D03*
X0112524Y0033900D03*
X0112524Y0026300D03*
X0112324Y0019300D03*
D15*
X0102267Y0061500D03*
X0102267Y0067900D03*
X0095181Y0067900D03*
X0095181Y0061500D03*
X0042667Y0062900D03*
X0035581Y0062900D03*
D16*
X0101263Y0032424D03*
X0101263Y0029275D03*
X0101263Y0026125D03*
X0101263Y0022976D03*
X0106185Y0022976D03*
X0106185Y0026125D03*
X0106185Y0029275D03*
X0106185Y0032424D03*
D17*
X0061048Y0062439D03*
X0057899Y0062439D03*
X0054749Y0062439D03*
X0051600Y0062439D03*
X0051600Y0067361D03*
X0054749Y0067361D03*
X0057899Y0067361D03*
X0061048Y0067361D03*
D18*
X0043864Y0040419D03*
X0036384Y0040419D03*
X0036384Y0030181D03*
X0040124Y0030181D03*
X0043864Y0030181D03*
X0027864Y0026819D03*
X0020384Y0026819D03*
X0020384Y0016581D03*
X0024124Y0016581D03*
X0027864Y0016581D03*
D19*
X0059024Y0029276D03*
X0059024Y0032426D03*
X0059024Y0035576D03*
X0059024Y0038725D03*
X0059024Y0041875D03*
X0059024Y0045024D03*
X0059024Y0048174D03*
X0059024Y0051324D03*
X0092824Y0051324D03*
X0092824Y0048174D03*
X0092824Y0045024D03*
X0092824Y0041875D03*
X0092824Y0038725D03*
X0092824Y0035576D03*
X0092824Y0032426D03*
X0092824Y0029276D03*
D20*
X0086948Y0023400D03*
X0083798Y0023400D03*
X0080648Y0023400D03*
X0077499Y0023400D03*
X0074349Y0023400D03*
X0071200Y0023400D03*
X0068050Y0023400D03*
X0064900Y0023400D03*
X0064900Y0057200D03*
X0068050Y0057200D03*
X0071200Y0057200D03*
X0074349Y0057200D03*
X0077499Y0057200D03*
X0080648Y0057200D03*
X0083798Y0057200D03*
X0086948Y0057200D03*
D21*
X0038924Y0020646D03*
X0038924Y0013954D03*
D22*
X0039124Y0013700D01*
X0057124Y0013700D01*
X0057124Y0021500D01*
X0059524Y0020900D02*
X0059524Y0024500D01*
X0066724Y0031700D01*
X0066724Y0038300D01*
X0063724Y0041300D01*
X0059524Y0041300D01*
X0059024Y0041875D01*
X0059024Y0045024D02*
X0058924Y0045500D01*
X0056524Y0045500D01*
X0055324Y0046700D01*
X0055324Y0052700D01*
X0057724Y0055100D01*
X0057724Y0062300D01*
X0057899Y0062439D01*
X0061048Y0062439D02*
X0061324Y0062900D01*
X0068524Y0062900D01*
X0069724Y0064100D01*
X0078724Y0064100D01*
X0083524Y0059300D01*
X0083524Y0057500D01*
X0083798Y0057200D01*
X0086524Y0056900D02*
X0086948Y0057200D01*
X0086524Y0056900D02*
X0086524Y0044300D01*
X0088924Y0041300D02*
X0083524Y0041300D01*
X0081124Y0038900D01*
X0081124Y0037700D01*
X0082924Y0035900D01*
X0092524Y0035900D01*
X0092824Y0035576D01*
X0093124Y0035300D01*
X0102124Y0035300D01*
X0103924Y0033500D01*
X0103924Y0010100D01*
X0099124Y0005300D01*
X0075724Y0005300D01*
X0072124Y0008900D01*
X0071924Y0009300D01*
X0067924Y0005300D01*
X0031924Y0005300D01*
X0022924Y0014300D01*
X0021724Y0013100D01*
X0010324Y0013100D01*
X0009724Y0013700D01*
X0007324Y0011300D01*
X0009724Y0013700D02*
X0007524Y0015900D01*
X0007924Y0015500D01*
X0007524Y0024700D02*
X0007924Y0025100D01*
X0007924Y0031100D01*
X0005524Y0031100D01*
X0007924Y0031100D02*
X0010324Y0033500D01*
X0010324Y0038300D01*
X0010924Y0038900D01*
X0024124Y0038900D01*
X0032524Y0030500D01*
X0036124Y0030500D01*
X0036384Y0030181D01*
X0039724Y0030500D02*
X0040124Y0030181D01*
X0040324Y0028700D01*
X0035524Y0023900D01*
X0033124Y0023900D01*
X0030124Y0026900D01*
X0030124Y0029300D01*
X0028924Y0030500D01*
X0026524Y0030500D01*
X0025324Y0029300D01*
X0025324Y0017900D01*
X0024124Y0016700D01*
X0024124Y0016581D01*
X0024124Y0016100D01*
X0022924Y0014900D01*
X0022924Y0014300D01*
X0020524Y0016700D02*
X0020384Y0016581D01*
X0020524Y0016700D02*
X0020524Y0019100D01*
X0024124Y0022700D01*
X0024124Y0029900D01*
X0025924Y0031700D01*
X0029524Y0031700D01*
X0033724Y0027500D01*
X0033724Y0026300D01*
X0028324Y0026300D02*
X0027864Y0026819D01*
X0028324Y0026300D02*
X0028324Y0021500D01*
X0035524Y0014300D01*
X0035524Y0011900D01*
X0037924Y0009500D01*
X0056524Y0009500D01*
X0056724Y0009300D01*
X0057124Y0013700D02*
X0060124Y0013700D01*
X0064324Y0009500D01*
X0066724Y0013700D02*
X0075724Y0013700D01*
X0079924Y0009500D01*
X0079924Y0009300D01*
X0081124Y0016100D02*
X0087924Y0009300D01*
X0095524Y0009500D02*
X0095924Y0009300D01*
X0095524Y0009500D02*
X0084124Y0020900D01*
X0084124Y0023300D01*
X0083798Y0023400D01*
X0081124Y0023300D02*
X0080648Y0023400D01*
X0081124Y0023300D02*
X0081124Y0016100D01*
X0077499Y0023400D02*
X0076924Y0023900D01*
X0076924Y0028100D01*
X0073924Y0028100D02*
X0073924Y0023900D01*
X0074349Y0023400D01*
X0071200Y0023400D02*
X0070924Y0023900D01*
X0070924Y0035900D01*
X0063724Y0043100D01*
X0063724Y0047900D01*
X0065524Y0051500D02*
X0059524Y0051500D01*
X0059024Y0051324D01*
X0064924Y0055100D02*
X0072124Y0047900D01*
X0075124Y0051500D02*
X0078124Y0051500D01*
X0080524Y0050900D02*
X0080524Y0056900D01*
X0080648Y0057200D01*
X0075124Y0051500D02*
X0071524Y0055100D01*
X0071524Y0056900D01*
X0071200Y0057200D01*
X0068524Y0057500D02*
X0068050Y0057200D01*
X0068524Y0057500D02*
X0068524Y0059900D01*
X0070324Y0061700D01*
X0063124Y0065300D02*
X0062524Y0064700D01*
X0049324Y0064700D01*
X0039724Y0074300D01*
X0016324Y0074300D01*
X0007924Y0065900D01*
X0007924Y0060500D01*
X0007724Y0060500D01*
X0007924Y0060500D02*
X0011524Y0056900D01*
X0020524Y0056900D01*
X0025924Y0051500D01*
X0025924Y0050300D01*
X0026470Y0050300D01*
X0022924Y0052700D02*
X0022324Y0053300D01*
X0016924Y0053300D01*
X0016924Y0054500D01*
X0016924Y0053300D02*
X0008524Y0053300D01*
X0007924Y0052700D01*
X0007724Y0052300D01*
X0018724Y0049700D02*
X0019778Y0050300D01*
X0019324Y0050300D01*
X0018724Y0049700D01*
X0028924Y0039500D01*
X0031924Y0039500D01*
X0039724Y0031700D01*
X0039724Y0030500D01*
X0040124Y0030181D02*
X0040324Y0029900D01*
X0040324Y0028700D01*
X0042124Y0026900D01*
X0045724Y0026900D01*
X0050524Y0031700D01*
X0050524Y0034100D01*
X0047524Y0037100D01*
X0047524Y0043700D01*
X0042724Y0048500D01*
X0043324Y0049100D01*
X0042724Y0048500D02*
X0036124Y0055100D01*
X0036124Y0062900D01*
X0035581Y0062900D01*
X0032524Y0062300D02*
X0032524Y0056900D01*
X0046324Y0043100D01*
X0046324Y0036500D01*
X0049324Y0033500D01*
X0049324Y0032300D01*
X0047524Y0030500D01*
X0043924Y0030500D01*
X0043864Y0030181D01*
X0046924Y0032900D02*
X0042724Y0037100D01*
X0042124Y0037100D01*
X0038524Y0040700D01*
X0038524Y0043700D01*
X0037324Y0044900D01*
X0037324Y0046700D01*
X0026524Y0057500D01*
X0026524Y0062300D01*
X0026470Y0062700D01*
X0024124Y0065900D02*
X0028924Y0065900D01*
X0030124Y0067100D01*
X0028924Y0065900D02*
X0032524Y0062300D01*
X0024124Y0065900D02*
X0021124Y0062900D01*
X0019924Y0062900D01*
X0019778Y0062700D01*
X0019324Y0066500D02*
X0019324Y0071900D01*
X0016924Y0071900D01*
X0019324Y0071900D02*
X0036124Y0071900D01*
X0039124Y0068900D01*
X0039124Y0071900D02*
X0046924Y0064100D01*
X0047524Y0064100D01*
X0049324Y0062300D01*
X0049324Y0047900D01*
X0050524Y0046700D01*
X0050524Y0040100D01*
X0055324Y0035300D01*
X0055324Y0031100D01*
X0057124Y0029300D01*
X0058924Y0029300D01*
X0059024Y0029276D01*
X0059524Y0032300D02*
X0059024Y0032426D01*
X0059524Y0032300D02*
X0064324Y0032300D01*
X0061324Y0035900D02*
X0059524Y0035900D01*
X0059024Y0035576D01*
X0061324Y0035900D02*
X0063724Y0038300D01*
X0072724Y0043100D02*
X0080524Y0050900D01*
X0088924Y0052700D02*
X0088924Y0041300D01*
X0092524Y0041300D01*
X0092824Y0041875D01*
X0093124Y0038900D02*
X0092824Y0038725D01*
X0092524Y0038300D01*
X0083524Y0038300D01*
X0093124Y0038900D02*
X0094924Y0038900D01*
X0096724Y0040700D01*
X0096724Y0043100D01*
X0094924Y0044900D01*
X0093124Y0044900D01*
X0092824Y0045024D01*
X0092824Y0048174D02*
X0093124Y0048500D01*
X0094924Y0048500D01*
X0104524Y0058100D01*
X0102724Y0059900D01*
X0102724Y0061100D01*
X0102267Y0061500D01*
X0099724Y0060500D02*
X0099724Y0065300D01*
X0102124Y0067700D01*
X0102267Y0067900D01*
X0102724Y0067700D01*
X0106324Y0067700D01*
X0112324Y0061700D01*
X0112324Y0061500D01*
X0104524Y0058100D02*
X0112324Y0050300D01*
X0112524Y0041100D02*
X0112324Y0040700D01*
X0106324Y0034700D01*
X0106324Y0032900D01*
X0106185Y0032424D01*
X0106324Y0029300D02*
X0106185Y0029275D01*
X0106324Y0029300D02*
X0108124Y0029300D01*
X0112324Y0033500D01*
X0112524Y0033900D01*
X0112524Y0026300D02*
X0106324Y0026300D01*
X0106185Y0026125D01*
X0106185Y0022976D02*
X0106324Y0022700D01*
X0109324Y0022700D01*
X0112324Y0019700D01*
X0112324Y0019300D01*
X0108124Y0014300D02*
X0111124Y0011300D01*
X0111124Y0009300D01*
X0101263Y0022976D02*
X0100924Y0023300D01*
X0087124Y0023300D01*
X0086948Y0023400D01*
X0093124Y0028700D02*
X0092824Y0029276D01*
X0093124Y0028700D02*
X0095524Y0026300D01*
X0100924Y0026300D01*
X0101263Y0026125D01*
X0101263Y0029275D02*
X0100924Y0029300D01*
X0097924Y0029300D01*
X0094924Y0032300D01*
X0093124Y0032300D01*
X0092824Y0032426D01*
X0097924Y0032900D02*
X0100924Y0032900D01*
X0101263Y0032424D01*
X0092824Y0051324D02*
X0093124Y0051500D01*
X0093124Y0053900D01*
X0099724Y0060500D01*
X0095524Y0061700D02*
X0095181Y0061500D01*
X0094924Y0061100D01*
X0094924Y0058700D01*
X0088924Y0052700D01*
X0090724Y0058700D02*
X0084124Y0065300D01*
X0063124Y0065300D01*
X0061048Y0067361D02*
X0061324Y0067700D01*
X0078124Y0067700D01*
X0088124Y0077700D01*
X0080124Y0077700D02*
X0079924Y0077300D01*
X0073924Y0071300D01*
X0061324Y0071300D01*
X0058324Y0068300D01*
X0058324Y0067700D01*
X0057899Y0067361D01*
X0055324Y0067700D02*
X0054749Y0067361D01*
X0055324Y0067700D02*
X0055324Y0068900D01*
X0058924Y0072500D01*
X0066724Y0072500D01*
X0072124Y0077900D01*
X0065124Y0077900D02*
X0064924Y0077900D01*
X0060724Y0073700D01*
X0057124Y0073700D01*
X0051724Y0068300D01*
X0051724Y0067700D01*
X0051600Y0067361D01*
X0051600Y0062439D02*
X0051724Y0062300D01*
X0051724Y0041900D01*
X0054724Y0038900D01*
X0051724Y0037100D02*
X0048724Y0040100D01*
X0048724Y0045500D01*
X0048124Y0046100D01*
X0054124Y0042500D02*
X0054124Y0053300D01*
X0054724Y0053900D01*
X0054724Y0062300D01*
X0054749Y0062439D01*
X0046924Y0061700D02*
X0045124Y0059900D01*
X0045124Y0055700D01*
X0043324Y0054500D02*
X0042724Y0055100D01*
X0042724Y0062900D01*
X0042667Y0062900D01*
X0043324Y0054500D02*
X0043324Y0052700D01*
X0031324Y0050900D02*
X0031324Y0049700D01*
X0031324Y0050900D02*
X0024124Y0058100D01*
X0018724Y0058100D01*
X0011524Y0065300D01*
X0022924Y0052700D02*
X0022924Y0047900D01*
X0030124Y0040700D01*
X0036124Y0040700D01*
X0036384Y0040419D01*
X0051724Y0037100D02*
X0051724Y0031100D01*
X0041524Y0020900D01*
X0039124Y0020900D01*
X0038924Y0020646D01*
X0031924Y0014900D02*
X0030724Y0016100D01*
X0028324Y0016100D01*
X0027864Y0016581D01*
X0020524Y0022100D02*
X0019924Y0022100D01*
X0010924Y0031100D01*
X0013924Y0031700D02*
X0016924Y0028700D01*
X0019924Y0028700D02*
X0013924Y0034700D01*
X0013924Y0035900D01*
X0013470Y0035900D01*
X0007324Y0035900D02*
X0006778Y0035900D01*
X0007324Y0035900D02*
X0007324Y0038300D01*
X0018724Y0049700D01*
X0019924Y0028700D02*
X0019924Y0026900D01*
X0020384Y0026819D01*
X0059524Y0020900D02*
X0066724Y0013700D01*
X0066124Y0019700D02*
X0063724Y0019700D01*
X0061924Y0021500D01*
X0064900Y0023400D02*
X0064924Y0023900D01*
X0064924Y0025700D01*
X0066124Y0026900D01*
X0066124Y0028100D01*
X0068050Y0023400D02*
X0067924Y0023300D01*
X0067924Y0021500D01*
X0066124Y0019700D01*
X0064924Y0055100D02*
X0064924Y0056900D01*
X0064900Y0057200D01*
X0054724Y0075500D02*
X0049324Y0075500D01*
X0054724Y0075500D02*
X0057124Y0077900D01*
X0091324Y0069500D02*
X0091324Y0065300D01*
X0091324Y0069500D02*
X0096124Y0074300D01*
X0096124Y0077700D01*
X0103924Y0077700D02*
X0103924Y0077300D01*
X0108124Y0073100D01*
X0108124Y0072500D01*
X0111124Y0072500D02*
X0111124Y0077700D01*
X0095524Y0067700D02*
X0095181Y0067900D01*
X0095524Y0067700D02*
X0095524Y0061700D01*
D23*
X0091324Y0065300D03*
X0090724Y0058700D03*
X0078124Y0051500D03*
X0072124Y0047900D03*
X0072724Y0043100D03*
X0063724Y0047900D03*
X0065524Y0051500D03*
X0070324Y0061700D03*
X0049324Y0075500D03*
X0039124Y0071900D03*
X0039124Y0068900D03*
X0030124Y0067100D03*
X0019324Y0066500D03*
X0016924Y0071900D03*
X0011524Y0065300D03*
X0016924Y0054500D03*
X0031324Y0049700D03*
X0037324Y0044900D03*
X0043324Y0049100D03*
X0043324Y0052700D03*
X0045124Y0055700D03*
X0046924Y0061700D03*
X0048124Y0046100D03*
X0054124Y0042500D03*
X0054724Y0038900D03*
X0046924Y0032900D03*
X0033724Y0026300D03*
X0020524Y0022100D03*
X0016924Y0028700D03*
X0013924Y0031700D03*
X0010924Y0031100D03*
X0005524Y0031100D03*
X0007324Y0011300D03*
X0031924Y0014900D03*
X0057124Y0021500D03*
X0061924Y0021500D03*
X0066124Y0028100D03*
X0064324Y0032300D03*
X0063724Y0038300D03*
X0073924Y0028100D03*
X0076924Y0028100D03*
X0083524Y0038300D03*
X0086524Y0044300D03*
X0097924Y0032900D03*
X0108124Y0014300D03*
X0108124Y0072500D03*
X0111124Y0072500D03*
M02*
