G75*
%MOIN*%
%OFA0B0*%
%FSLAX25Y25*%
%IPPOS*%
%LPD*%
%AMOC8*
5,1,8,0,0,1.08239X$1,22.5*
%
%ADD10C,0.00300*%
%ADD11C,0.00500*%
%ADD12C,0.00100*%
%ADD13R,0.03000X0.01800*%
%ADD14C,0.00200*%
%ADD15C,0.00400*%
%ADD16R,0.02362X0.01772*%
%ADD17C,0.00800*%
%ADD18C,0.00600*%
D10*
X0038350Y0016971D02*
X0041252Y0016971D01*
X0041252Y0017938D02*
X0041252Y0016003D01*
X0040852Y0018950D02*
X0038434Y0018950D01*
X0037950Y0019434D01*
X0037950Y0020401D01*
X0038434Y0020885D01*
X0040852Y0020885D01*
X0040769Y0020885D02*
X0040285Y0020885D01*
X0039801Y0020401D01*
X0039317Y0020885D01*
X0038834Y0020885D01*
X0038350Y0020401D01*
X0038350Y0019434D01*
X0038834Y0018950D01*
X0039801Y0019917D02*
X0039801Y0020401D01*
X0040769Y0020885D02*
X0041252Y0020401D01*
X0041252Y0019434D01*
X0040769Y0018950D01*
X0040369Y0021897D02*
X0039885Y0021897D01*
X0039401Y0022380D01*
X0039401Y0023348D01*
X0038917Y0023831D01*
X0038434Y0023831D01*
X0037950Y0023348D01*
X0037950Y0022380D01*
X0038434Y0021897D01*
X0040369Y0021897D02*
X0040852Y0022380D01*
X0040852Y0023348D01*
X0040369Y0023831D01*
X0040852Y0024843D02*
X0040852Y0026294D01*
X0040369Y0026778D01*
X0039885Y0026778D01*
X0039401Y0026294D01*
X0039401Y0024843D01*
X0037950Y0024843D02*
X0040852Y0024843D01*
X0039401Y0026294D02*
X0038917Y0026778D01*
X0038434Y0026778D01*
X0037950Y0026294D01*
X0037950Y0024843D01*
X0037950Y0027790D02*
X0037950Y0029241D01*
X0038434Y0029725D01*
X0040369Y0029725D01*
X0040852Y0029241D01*
X0040852Y0027790D01*
X0037950Y0027790D01*
X0039401Y0030736D02*
X0039401Y0032671D01*
X0038434Y0031704D02*
X0040369Y0031704D01*
X0053401Y0021671D02*
X0053401Y0019736D01*
X0052434Y0018725D02*
X0054369Y0018725D01*
X0054852Y0018241D01*
X0054852Y0016790D01*
X0051950Y0016790D01*
X0051950Y0018241D01*
X0052434Y0018725D01*
X0052434Y0015778D02*
X0051950Y0015294D01*
X0051950Y0013843D01*
X0054852Y0013843D01*
X0054852Y0015294D01*
X0054369Y0015778D01*
X0053885Y0015778D01*
X0053401Y0015294D01*
X0053401Y0013843D01*
X0052917Y0012831D02*
X0052434Y0012831D01*
X0051950Y0012348D01*
X0051950Y0011380D01*
X0052434Y0010897D01*
X0052434Y0009885D02*
X0054852Y0009885D01*
X0054369Y0010897D02*
X0054852Y0011380D01*
X0054852Y0012348D01*
X0054369Y0012831D01*
X0053401Y0012348D02*
X0052917Y0012831D01*
X0053401Y0012348D02*
X0053401Y0011380D01*
X0053885Y0010897D01*
X0054369Y0010897D01*
X0052434Y0009885D02*
X0051950Y0009401D01*
X0051950Y0008434D01*
X0052434Y0007950D01*
X0054852Y0007950D01*
X0061822Y0007885D02*
X0063273Y0007885D01*
X0063757Y0007401D01*
X0063757Y0006434D01*
X0063273Y0005950D01*
X0061822Y0005950D01*
X0061822Y0008852D01*
X0064769Y0007401D02*
X0064769Y0005950D01*
X0064769Y0007401D02*
X0065252Y0007885D01*
X0066703Y0007885D01*
X0066703Y0005950D01*
X0067715Y0005950D02*
X0069166Y0005950D01*
X0069650Y0006434D01*
X0069650Y0007401D01*
X0069166Y0007885D01*
X0067715Y0007885D01*
X0067715Y0005466D01*
X0068199Y0004983D01*
X0068683Y0004983D01*
X0070281Y0005885D02*
X0071248Y0005885D01*
X0070764Y0006369D02*
X0070764Y0004434D01*
X0070281Y0003950D01*
X0072260Y0004434D02*
X0072743Y0004917D01*
X0073711Y0004917D01*
X0074195Y0005401D01*
X0073711Y0005885D01*
X0072260Y0005885D01*
X0072260Y0004434D02*
X0072743Y0003950D01*
X0074195Y0003950D01*
X0075199Y0005885D02*
X0075683Y0005885D01*
X0076650Y0004917D01*
X0076650Y0003950D02*
X0076650Y0005885D01*
X0053401Y0015294D02*
X0052917Y0015778D01*
X0052434Y0015778D01*
X0021650Y0040184D02*
X0020416Y0038950D01*
X0019181Y0040184D01*
X0019181Y0042653D01*
X0017967Y0040802D02*
X0015498Y0040802D01*
X0016732Y0042036D02*
X0016732Y0039567D01*
X0021650Y0040184D02*
X0021650Y0042653D01*
X0069316Y0081950D02*
X0068349Y0083885D01*
X0070284Y0083885D02*
X0069316Y0081950D01*
X0071295Y0082434D02*
X0071295Y0082917D01*
X0071779Y0083401D01*
X0072263Y0083401D01*
X0071779Y0083401D02*
X0071295Y0083885D01*
X0071295Y0084369D01*
X0071779Y0084852D01*
X0072746Y0084852D01*
X0073230Y0084369D01*
X0073230Y0082434D02*
X0072746Y0081950D01*
X0071779Y0081950D01*
X0071295Y0082434D01*
X0074220Y0082434D02*
X0074220Y0081950D01*
X0074703Y0081950D01*
X0074703Y0082434D01*
X0074220Y0082434D01*
X0075715Y0082434D02*
X0075715Y0082917D01*
X0076199Y0083401D01*
X0076683Y0083401D01*
X0076199Y0083401D02*
X0075715Y0083885D01*
X0075715Y0084369D01*
X0076199Y0084852D01*
X0077166Y0084852D01*
X0077650Y0084369D01*
X0078273Y0084950D02*
X0078757Y0085434D01*
X0078757Y0086401D01*
X0078273Y0086885D01*
X0076822Y0086885D01*
X0076822Y0087852D02*
X0076822Y0084950D01*
X0078273Y0084950D01*
X0079769Y0084950D02*
X0079769Y0086401D01*
X0080252Y0086885D01*
X0081703Y0086885D01*
X0081703Y0084950D01*
X0082715Y0084950D02*
X0084166Y0084950D01*
X0084650Y0085434D01*
X0084650Y0086401D01*
X0084166Y0086885D01*
X0082715Y0086885D01*
X0082715Y0084466D01*
X0083199Y0083983D01*
X0083683Y0083983D01*
X0083703Y0081885D02*
X0082252Y0081885D01*
X0081769Y0081401D01*
X0081769Y0079950D01*
X0080757Y0080434D02*
X0080757Y0081401D01*
X0080273Y0081885D01*
X0078822Y0081885D01*
X0078822Y0082852D02*
X0078822Y0079950D01*
X0080273Y0079950D01*
X0080757Y0080434D01*
X0083703Y0079950D02*
X0083703Y0081885D01*
X0084715Y0081885D02*
X0086166Y0081885D01*
X0086650Y0081401D01*
X0086650Y0080434D01*
X0086166Y0079950D01*
X0084715Y0079950D01*
X0084715Y0079466D02*
X0084715Y0081885D01*
X0084715Y0079466D02*
X0085199Y0078983D01*
X0085683Y0078983D01*
X0091843Y0084950D02*
X0092810Y0084950D01*
X0092327Y0084950D02*
X0092327Y0086885D01*
X0092810Y0086885D01*
X0093822Y0086885D02*
X0095273Y0086885D01*
X0095757Y0086401D01*
X0095273Y0085917D01*
X0094306Y0085917D01*
X0093822Y0085434D01*
X0094306Y0084950D01*
X0095757Y0084950D01*
X0096769Y0085434D02*
X0096769Y0086401D01*
X0097252Y0086885D01*
X0098220Y0086885D01*
X0098703Y0086401D01*
X0098703Y0085434D01*
X0098220Y0084950D01*
X0097252Y0084950D01*
X0096769Y0085434D01*
X0099715Y0084950D02*
X0099715Y0086401D01*
X0100199Y0086885D01*
X0100683Y0086401D01*
X0100683Y0084950D01*
X0101650Y0084950D02*
X0101650Y0086885D01*
X0101166Y0086885D01*
X0100683Y0086401D01*
X0102757Y0084852D02*
X0102757Y0081950D01*
X0102757Y0082917D02*
X0101306Y0083885D01*
X0102757Y0082917D02*
X0101306Y0081950D01*
X0103769Y0081950D02*
X0105220Y0081950D01*
X0105703Y0082434D01*
X0105703Y0083401D01*
X0105220Y0083885D01*
X0103769Y0083885D01*
X0106715Y0083885D02*
X0108166Y0083885D01*
X0108650Y0083401D01*
X0108166Y0082917D01*
X0107199Y0082917D01*
X0106715Y0082434D01*
X0107199Y0081950D01*
X0108650Y0081950D01*
X0110822Y0082434D02*
X0111306Y0082917D01*
X0112273Y0082917D01*
X0112757Y0083401D01*
X0112273Y0083885D01*
X0110822Y0083885D01*
X0110822Y0082434D02*
X0111306Y0081950D01*
X0112757Y0081950D01*
X0113769Y0082434D02*
X0114252Y0082917D01*
X0115220Y0082917D01*
X0115703Y0083401D01*
X0115220Y0083885D01*
X0113769Y0083885D01*
X0113769Y0082434D02*
X0114252Y0081950D01*
X0115703Y0081950D01*
X0116715Y0081950D02*
X0116715Y0083401D01*
X0117199Y0083885D01*
X0118166Y0083885D01*
X0118650Y0083401D01*
X0118650Y0084852D02*
X0118650Y0081950D01*
X0092327Y0087852D02*
X0092327Y0088336D01*
X0077650Y0082434D02*
X0077166Y0081950D01*
X0076199Y0081950D01*
X0075715Y0082434D01*
X0111341Y0007885D02*
X0112309Y0007885D01*
X0112793Y0007401D01*
X0112793Y0006434D01*
X0112309Y0005950D01*
X0111341Y0005950D01*
X0110858Y0006434D01*
X0110858Y0007401D01*
X0111341Y0007885D01*
X0113804Y0007885D02*
X0115255Y0007885D01*
X0115739Y0007401D01*
X0115255Y0006917D01*
X0114288Y0006917D01*
X0113804Y0006434D01*
X0114288Y0005950D01*
X0115739Y0005950D01*
X0116736Y0005950D02*
X0117703Y0005950D01*
X0117220Y0005950D02*
X0117220Y0007885D01*
X0117703Y0007885D01*
X0117220Y0008852D02*
X0117220Y0009336D01*
X0118715Y0007401D02*
X0118715Y0005950D01*
X0119683Y0005950D02*
X0119683Y0007401D01*
X0119199Y0007885D01*
X0118715Y0007401D01*
X0119683Y0007401D02*
X0120166Y0007885D01*
X0120650Y0007885D01*
X0120650Y0005950D01*
D11*
X0012753Y0007894D02*
X0006847Y0007894D01*
X0006847Y0019706D01*
X0012753Y0019706D01*
X0012753Y0007894D01*
X0011550Y0013050D02*
X0009800Y0014550D01*
X0008050Y0013050D01*
X0011550Y0013050D01*
X0011550Y0014550D02*
X0008050Y0014550D01*
X0027241Y0013288D02*
X0027241Y0024312D01*
X0032359Y0024312D01*
X0032359Y0013288D01*
X0027241Y0013288D01*
D12*
X0012667Y0025351D02*
X0012417Y0025100D01*
X0011917Y0025100D01*
X0011667Y0025351D01*
X0011667Y0026602D01*
X0011194Y0026351D02*
X0011194Y0026101D01*
X0010944Y0025851D01*
X0010444Y0025851D01*
X0010193Y0025601D01*
X0010193Y0025351D01*
X0010444Y0025100D01*
X0010944Y0025100D01*
X0011194Y0025351D01*
X0011194Y0026351D02*
X0010944Y0026602D01*
X0010444Y0026602D01*
X0010193Y0026351D01*
X0009721Y0026602D02*
X0008970Y0026602D01*
X0008720Y0026351D01*
X0008720Y0026101D01*
X0008970Y0025851D01*
X0009721Y0025851D01*
X0009721Y0025100D02*
X0009721Y0026602D01*
X0008970Y0025851D02*
X0008720Y0025601D01*
X0008720Y0025351D01*
X0008970Y0025100D01*
X0009721Y0025100D01*
X0008248Y0025601D02*
X0007747Y0025100D01*
X0007247Y0025601D01*
X0007247Y0026602D01*
X0006774Y0025851D02*
X0005774Y0025851D01*
X0008248Y0025601D02*
X0008248Y0026602D01*
X0012667Y0026602D02*
X0012667Y0025351D01*
X0005750Y0019351D02*
X0005750Y0017850D01*
X0004999Y0017850D01*
X0004749Y0018100D01*
X0004749Y0019101D01*
X0004999Y0019351D01*
X0005750Y0019351D01*
X0004277Y0018851D02*
X0003776Y0019351D01*
X0003776Y0017850D01*
X0003276Y0017850D02*
X0004277Y0017850D01*
X0005774Y0035100D02*
X0006774Y0035100D01*
X0005774Y0036101D01*
X0005774Y0036351D01*
X0006024Y0036602D01*
X0006524Y0036602D01*
X0006774Y0036351D01*
X0007247Y0035851D02*
X0008248Y0035851D01*
X0008720Y0035601D02*
X0008720Y0036602D01*
X0009721Y0036602D02*
X0009721Y0035601D01*
X0009221Y0035100D01*
X0008720Y0035601D01*
X0007747Y0035351D02*
X0007747Y0036351D01*
X0010193Y0036351D02*
X0010193Y0036101D01*
X0010444Y0035851D01*
X0011194Y0035851D01*
X0011667Y0035601D02*
X0011667Y0035351D01*
X0011917Y0035100D01*
X0012417Y0035100D01*
X0012667Y0035351D01*
X0013140Y0035351D02*
X0013140Y0036602D01*
X0012667Y0036351D02*
X0012667Y0036101D01*
X0012417Y0035851D01*
X0011917Y0035851D01*
X0011667Y0035601D01*
X0011194Y0035100D02*
X0010444Y0035100D01*
X0010193Y0035351D01*
X0010193Y0035601D01*
X0010444Y0035851D01*
X0010193Y0036351D02*
X0010444Y0036602D01*
X0011194Y0036602D01*
X0011194Y0035100D01*
X0011667Y0036351D02*
X0011917Y0036602D01*
X0012417Y0036602D01*
X0012667Y0036351D01*
X0013140Y0035351D02*
X0013390Y0035100D01*
X0013891Y0035100D01*
X0014141Y0035351D01*
X0014141Y0036602D01*
X0013640Y0045100D02*
X0013640Y0046602D01*
X0013140Y0046602D02*
X0014141Y0046602D01*
X0014613Y0046351D02*
X0014863Y0046602D01*
X0015364Y0046602D01*
X0015614Y0046351D01*
X0015614Y0045351D01*
X0015364Y0045100D01*
X0014863Y0045100D01*
X0014613Y0045351D01*
X0014613Y0046351D01*
X0016086Y0046602D02*
X0016086Y0045100D01*
X0017087Y0045100D02*
X0017087Y0046602D01*
X0016587Y0046101D01*
X0016086Y0046602D01*
X0012667Y0046351D02*
X0012667Y0045351D01*
X0012417Y0045100D01*
X0011917Y0045100D01*
X0011667Y0045351D01*
X0011667Y0046351D01*
X0011917Y0046602D01*
X0012417Y0046602D01*
X0012667Y0046351D01*
X0011194Y0046602D02*
X0010444Y0046602D01*
X0010193Y0046351D01*
X0010193Y0045851D01*
X0010444Y0045601D01*
X0011194Y0045601D01*
X0010694Y0045601D02*
X0010193Y0045100D01*
X0009721Y0045351D02*
X0009471Y0045100D01*
X0008970Y0045100D01*
X0008720Y0045351D01*
X0008720Y0045851D01*
X0009221Y0045851D01*
X0009721Y0046351D02*
X0009721Y0045351D01*
X0009721Y0046351D02*
X0009471Y0046602D01*
X0008970Y0046602D01*
X0008720Y0046351D01*
X0008248Y0046602D02*
X0007247Y0045100D01*
X0007247Y0046602D01*
X0006774Y0046602D02*
X0006024Y0046602D01*
X0005774Y0046351D01*
X0005774Y0045351D01*
X0006024Y0045100D01*
X0006774Y0045100D01*
X0006774Y0046602D01*
X0008248Y0046602D02*
X0008248Y0045100D01*
X0011194Y0045100D02*
X0011194Y0046602D01*
X0010752Y0063000D02*
X0010752Y0064501D01*
X0011252Y0064501D02*
X0010251Y0064501D01*
X0009779Y0064251D02*
X0009779Y0063250D01*
X0009529Y0063000D01*
X0009028Y0063000D01*
X0008778Y0063250D01*
X0008778Y0064251D01*
X0009028Y0064501D01*
X0009529Y0064501D01*
X0009779Y0064251D01*
X0009721Y0065100D02*
X0008970Y0065100D01*
X0008720Y0065351D01*
X0008720Y0065601D01*
X0008970Y0065851D01*
X0009721Y0065851D01*
X0010193Y0065601D02*
X0010193Y0065351D01*
X0010444Y0065100D01*
X0010944Y0065100D01*
X0011194Y0065351D01*
X0011667Y0065351D02*
X0011667Y0066602D01*
X0011194Y0066351D02*
X0011194Y0066101D01*
X0010944Y0065851D01*
X0010444Y0065851D01*
X0010193Y0065601D01*
X0009721Y0065100D02*
X0009721Y0066602D01*
X0008970Y0066602D01*
X0008720Y0066351D01*
X0008720Y0066101D01*
X0008970Y0065851D01*
X0008248Y0065601D02*
X0007747Y0065100D01*
X0007247Y0065601D01*
X0007247Y0066602D01*
X0006774Y0065851D02*
X0005774Y0065851D01*
X0006274Y0066351D02*
X0006274Y0065351D01*
X0007305Y0064251D02*
X0007305Y0063750D01*
X0007555Y0063500D01*
X0008306Y0063500D01*
X0008306Y0063000D02*
X0008306Y0064501D01*
X0007555Y0064501D01*
X0007305Y0064251D01*
X0007805Y0063500D02*
X0007305Y0063000D01*
X0008248Y0065601D02*
X0008248Y0066602D01*
X0010193Y0066351D02*
X0010444Y0066602D01*
X0010944Y0066602D01*
X0011194Y0066351D01*
X0011667Y0065351D02*
X0011917Y0065100D01*
X0012417Y0065100D01*
X0012667Y0065351D01*
X0012667Y0066602D01*
X0012475Y0064501D02*
X0012726Y0064251D01*
X0012726Y0063250D01*
X0012475Y0063000D01*
X0011975Y0063000D01*
X0011725Y0063250D01*
X0011725Y0064251D01*
X0011975Y0064501D01*
X0012475Y0064501D01*
X0013198Y0064501D02*
X0013198Y0063000D01*
X0014199Y0063000D02*
X0014199Y0064501D01*
X0013698Y0064000D01*
X0013198Y0064501D01*
X0041250Y0040795D02*
X0042251Y0040795D01*
X0041750Y0041295D02*
X0041750Y0040294D01*
X0041250Y0039822D02*
X0042251Y0039822D01*
X0042501Y0039572D01*
X0042501Y0038821D01*
X0041000Y0038821D01*
X0041000Y0039572D01*
X0041250Y0039822D01*
X0041250Y0038349D02*
X0041000Y0038098D01*
X0041000Y0037348D01*
X0042501Y0037348D01*
X0042501Y0038098D01*
X0042251Y0038349D01*
X0042000Y0038349D01*
X0041750Y0038098D01*
X0041750Y0037348D01*
X0041500Y0036875D02*
X0041250Y0036875D01*
X0041000Y0036625D01*
X0041000Y0036125D01*
X0041250Y0035874D01*
X0041250Y0035402D02*
X0042501Y0035402D01*
X0042251Y0035874D02*
X0042000Y0035874D01*
X0041750Y0036125D01*
X0041750Y0036625D01*
X0041500Y0036875D01*
X0042251Y0036875D02*
X0042501Y0036625D01*
X0042501Y0036125D01*
X0042251Y0035874D01*
X0041250Y0035402D02*
X0041000Y0035152D01*
X0041000Y0034651D01*
X0041250Y0034401D01*
X0042501Y0034401D01*
X0041750Y0038098D02*
X0041500Y0038349D01*
X0041250Y0038349D01*
X0047850Y0038351D02*
X0048350Y0037850D01*
X0048350Y0038101D02*
X0048350Y0037350D01*
X0047850Y0037350D02*
X0049351Y0037350D01*
X0049351Y0038101D01*
X0049101Y0038351D01*
X0048601Y0038351D01*
X0048350Y0038101D01*
X0047850Y0038823D02*
X0048851Y0039824D01*
X0049101Y0039824D01*
X0049351Y0039574D01*
X0049351Y0039073D01*
X0049101Y0038823D01*
X0047850Y0038823D02*
X0047850Y0039824D01*
X0047850Y0023824D02*
X0047850Y0022823D01*
X0047850Y0022351D02*
X0048350Y0021850D01*
X0048350Y0022101D02*
X0048350Y0021350D01*
X0047850Y0021350D02*
X0049351Y0021350D01*
X0049351Y0022101D01*
X0049101Y0022351D01*
X0048601Y0022351D01*
X0048350Y0022101D01*
X0048851Y0022823D02*
X0049351Y0023324D01*
X0047850Y0023324D01*
X0049750Y0015295D02*
X0049750Y0014294D01*
X0049250Y0013822D02*
X0050251Y0013822D01*
X0050501Y0013572D01*
X0050501Y0012821D01*
X0049000Y0012821D01*
X0049000Y0013572D01*
X0049250Y0013822D01*
X0049250Y0012349D02*
X0049000Y0012098D01*
X0049000Y0011348D01*
X0050501Y0011348D01*
X0050501Y0012098D01*
X0050251Y0012349D01*
X0050000Y0012349D01*
X0049750Y0012098D01*
X0049750Y0011348D01*
X0049500Y0010875D02*
X0049250Y0010875D01*
X0049000Y0010625D01*
X0049000Y0010125D01*
X0049250Y0009874D01*
X0049250Y0009402D02*
X0050501Y0009402D01*
X0050251Y0009874D02*
X0050000Y0009874D01*
X0049750Y0010125D01*
X0049750Y0010625D01*
X0049500Y0010875D01*
X0050251Y0010875D02*
X0050501Y0010625D01*
X0050501Y0010125D01*
X0050251Y0009874D01*
X0049250Y0009402D02*
X0049000Y0009152D01*
X0049000Y0008651D01*
X0049250Y0008401D01*
X0050501Y0008401D01*
X0049750Y0012098D02*
X0049500Y0012349D01*
X0049250Y0012349D01*
D13*
X0044800Y0024800D03*
X0044800Y0040800D03*
D14*
X0042202Y0055480D02*
X0042202Y0056581D01*
X0041835Y0056948D01*
X0041101Y0056948D01*
X0040734Y0056581D01*
X0040734Y0055480D01*
X0040000Y0055480D02*
X0042202Y0055480D01*
X0040734Y0056214D02*
X0040000Y0056948D01*
X0040367Y0057690D02*
X0040000Y0058057D01*
X0040000Y0058791D01*
X0040367Y0059158D01*
X0040734Y0059158D01*
X0041101Y0058791D01*
X0041101Y0057690D01*
X0040367Y0057690D01*
X0041101Y0057690D02*
X0041835Y0058424D01*
X0042202Y0059158D01*
D15*
X0050334Y0071225D02*
X0049567Y0071993D01*
X0049567Y0073527D01*
X0050334Y0074294D01*
X0054171Y0074294D01*
X0053404Y0075829D02*
X0054171Y0076596D01*
X0054171Y0078131D01*
X0053404Y0078898D01*
X0052636Y0078898D01*
X0049567Y0075829D01*
X0049567Y0078898D01*
X0050334Y0071225D02*
X0054171Y0071225D01*
X0032100Y0087104D02*
X0029031Y0087104D01*
X0030565Y0087104D02*
X0030565Y0082500D01*
X0027496Y0082500D02*
X0024427Y0082500D01*
X0025961Y0082500D02*
X0025961Y0087104D01*
X0027496Y0085569D01*
X0026308Y0023104D02*
X0023239Y0023104D01*
X0024773Y0023104D02*
X0024773Y0018500D01*
X0021704Y0018500D02*
X0018635Y0021569D01*
X0018635Y0022337D01*
X0019402Y0023104D01*
X0020937Y0023104D01*
X0021704Y0022337D01*
X0021704Y0018500D02*
X0018635Y0018500D01*
D16*
X0025765Y0018800D03*
X0033835Y0022540D03*
X0033835Y0015060D03*
D17*
X0058304Y0013304D02*
X0121296Y0013304D01*
X0121296Y0076296D01*
X0058304Y0076296D01*
X0058304Y0013304D01*
X0083894Y0029052D02*
X0083894Y0036926D01*
X0091769Y0036926D01*
X0091769Y0029052D01*
X0083894Y0029052D01*
X0081926Y0044800D02*
X0081926Y0060548D01*
X0097674Y0060548D01*
X0097674Y0044800D01*
X0081926Y0044800D01*
D18*
X0066973Y0062091D02*
X0068441Y0063558D01*
X0064037Y0063558D01*
X0064037Y0062091D02*
X0064037Y0065026D01*
M02*
