%
M48
M72
T01C0.01200
T02C0.02362
%
T01
X19000Y18600
X20200Y25200
X29200Y13800
X50200Y28200
X55000Y30000
X73600Y30000
X76600Y32400
X74200Y25800
X77800Y22800
X87400Y27000
X76000Y7200
X103600Y7200
X119200Y19200
X121600Y29400
X121600Y61200
X119200Y65400
X80800Y66600
X77800Y67200
X61600Y76200
X63200Y83400
X49600Y88200
X40000Y83400
X34000Y87000
X23800Y88800
X20800Y80400
X16600Y75600
X16600Y65400
X16600Y61800
X16600Y57000
X18400Y52200
X25600Y53400
X30400Y40200
X32800Y34200
X58600Y48000
X63400Y52800
X54400Y61800
X59200Y63600
X37000Y70200
X37600Y73200
X29200Y75600
X9400Y54600
X7000Y35400
X7000Y25200
T02
X68800Y85800
M30
