%
M48
M72
T01C0.01200
%
T01
X22724Y13586
X31724Y17786
X36524Y17786
X38924Y13586
X46124Y27986
X50324Y30386
X50924Y35186
X50924Y38186
X39524Y44186
X32324Y44786
X30524Y36386
X17924Y33386
X17324Y26786
X14324Y23186
X8324Y33386
X9524Y41786
X14324Y57986
X14924Y63386
X22124Y68786
X31724Y63986
X33524Y72986
X48524Y68186
X56324Y59786
X65324Y54986
X71324Y54986
X75524Y55586
X79724Y55586
X85724Y52586
X89924Y60386
X76124Y50186
X77324Y45386
X84524Y38186
X81524Y35786
X71924Y30986
X68324Y33986
X65324Y36986
X65924Y41186
X61124Y41186
X51524Y47786
X31724Y51986
X59324Y18986
X66524Y18986
X89924Y20786
X97724Y20786
X110324Y63386
X107924Y65786
M30
