G75*
%MOIN*%
%OFA0B0*%
%FSLAX25Y25*%
%IPPOS*%
%LPD*%
%AMOC8*
5,1,8,0,0,1.08239X$1,22.5*
%
%ADD10R,0.05400X0.06400*%
%ADD11R,0.03550X0.05124*%
%ADD12R,0.03550X0.02762*%
%ADD13R,0.06400X0.05400*%
%ADD14R,0.04731X0.04337*%
%ADD15R,0.02959X0.02369*%
%ADD16R,0.04337X0.05912*%
%ADD17C,0.00394*%
%ADD18R,0.05124X0.12211*%
D10*
X0044659Y0008272D03*
X0037891Y0073333D03*
X0026724Y0073386D03*
X0017124Y0073386D03*
D11*
X0035581Y0065586D03*
X0042667Y0065586D03*
X0026467Y0009986D03*
X0019381Y0009986D03*
D12*
X0009124Y0009636D03*
X0009124Y0015935D03*
D13*
X0007724Y0054186D03*
X0007724Y0061986D03*
D14*
X0036178Y0040386D03*
X0042870Y0040386D03*
D15*
X0041385Y0047461D03*
X0041385Y0050611D03*
X0041385Y0053761D03*
X0041385Y0056910D03*
X0036463Y0056910D03*
X0036463Y0053761D03*
X0036463Y0050611D03*
X0036463Y0047461D03*
D16*
X0026464Y0041317D03*
X0018984Y0041317D03*
X0022724Y0032655D03*
X0026064Y0055055D03*
X0018584Y0055055D03*
X0022324Y0063717D03*
D17*
X0024693Y0025500D02*
X0024693Y0021952D01*
X0024693Y0025500D02*
X0029817Y0025500D01*
X0029817Y0021952D01*
X0024693Y0021952D01*
X0024693Y0022345D02*
X0029817Y0022345D01*
X0029817Y0022738D02*
X0024693Y0022738D01*
X0024693Y0023131D02*
X0029817Y0023131D01*
X0029817Y0023524D02*
X0024693Y0023524D01*
X0024693Y0023917D02*
X0029817Y0023917D01*
X0029817Y0024310D02*
X0024693Y0024310D01*
X0024693Y0024703D02*
X0029817Y0024703D01*
X0029817Y0025096D02*
X0024693Y0025096D01*
X0024693Y0025489D02*
X0029817Y0025489D01*
X0024693Y0018020D02*
X0024693Y0014472D01*
X0024693Y0018020D02*
X0029817Y0018020D01*
X0029817Y0014472D01*
X0024693Y0014472D01*
X0024693Y0014865D02*
X0029817Y0014865D01*
X0029817Y0015258D02*
X0024693Y0015258D01*
X0024693Y0015651D02*
X0029817Y0015651D01*
X0029817Y0016044D02*
X0024693Y0016044D01*
X0024693Y0016437D02*
X0029817Y0016437D01*
X0029817Y0016830D02*
X0024693Y0016830D01*
X0024693Y0017223D02*
X0029817Y0017223D01*
X0029817Y0017616D02*
X0024693Y0017616D01*
X0024693Y0018009D02*
X0029817Y0018009D01*
X0016031Y0018212D02*
X0016031Y0021760D01*
X0021155Y0021760D01*
X0021155Y0018212D01*
X0016031Y0018212D01*
X0016031Y0018605D02*
X0021155Y0018605D01*
X0021155Y0018998D02*
X0016031Y0018998D01*
X0016031Y0019391D02*
X0021155Y0019391D01*
X0021155Y0019784D02*
X0016031Y0019784D01*
X0016031Y0020177D02*
X0021155Y0020177D01*
X0021155Y0020570D02*
X0016031Y0020570D01*
X0016031Y0020963D02*
X0021155Y0020963D01*
X0021155Y0021356D02*
X0016031Y0021356D01*
X0016031Y0021749D02*
X0021155Y0021749D01*
D18*
X0056502Y0011258D03*
X0064376Y0011258D03*
X0072250Y0011258D03*
X0080124Y0011258D03*
X0087998Y0011258D03*
X0095872Y0011258D03*
X0103746Y0011258D03*
X0103746Y0070313D03*
X0095872Y0070313D03*
X0087998Y0070313D03*
X0080124Y0070313D03*
X0072250Y0070313D03*
X0064376Y0070313D03*
X0056502Y0070313D03*
M02*
