%
M48
M72
T01C0.01200
%
T01
X7324Y11300
X20524Y22100
X16924Y28700
X13924Y31700
X10924Y31100
X5524Y31100
X31324Y49700
X37324Y44900
X43324Y49100
X43324Y52700
X45124Y55700
X46924Y61700
X39124Y68900
X39124Y71900
X30124Y67100
X19324Y66500
X16924Y71900
X11524Y65300
X16924Y54500
X46924Y32900
X54724Y38900
X54124Y42500
X48124Y46100
X63724Y47900
X65524Y51500
X72124Y47900
X78124Y51500
X72724Y43100
X63724Y38300
X64324Y32300
X66124Y28100
X73924Y28100
X76924Y28100
X83524Y38300
X86524Y44300
X97924Y32900
X108124Y14300
X61924Y21500
X57124Y21500
X33724Y26300
X31924Y14900
X70324Y61700
X49324Y75500
X91324Y65300
X90724Y58700
X108124Y72500
X111124Y72500
M30
