G75*
%MOIN*%
%OFA0B0*%
%FSLAX25Y25*%
%IPPOS*%
%LPD*%
%AMOC8*
5,1,8,0,0,1.08239X$1,22.5*
%
%ADD10C,0.00000*%
%ADD11C,0.01000*%
%ADD12R,0.04331X0.03937*%
%ADD13R,0.06000X0.05000*%
%ADD14R,0.05000X0.06000*%
%ADD15R,0.03150X0.04724*%
%ADD16R,0.02559X0.01969*%
%ADD17R,0.01969X0.02559*%
%ADD18R,0.02165X0.04724*%
%ADD19R,0.05000X0.02200*%
%ADD20R,0.02200X0.05000*%
%ADD21C,0.01772*%
%ADD22C,0.00600*%
%ADD23C,0.02400*%
D10*
X0003724Y0076963D02*
X0003724Y0319546D01*
X0392425Y0319546D01*
X0392425Y0004586D01*
X0113761Y0004586D01*
D11*
X0003724Y0004586D02*
X0003724Y0076963D01*
X0113761Y0076963D01*
X0113761Y0004586D01*
X0003724Y0004586D01*
X0097236Y0053485D02*
X0101236Y0053485D01*
X0105236Y0053485D01*
X0105236Y0058210D02*
X0101236Y0058210D01*
X0097236Y0058210D01*
X0097236Y0062934D02*
X0101236Y0062934D01*
X0105236Y0062934D01*
D12*
X0057521Y0073899D03*
X0050828Y0073899D03*
X0026470Y0064186D03*
X0019778Y0064186D03*
X0019778Y0051786D03*
X0026470Y0051786D03*
X0026411Y0046046D03*
X0019718Y0046046D03*
X0019565Y0040379D03*
X0013470Y0037386D03*
X0006778Y0037386D03*
X0026258Y0040379D03*
X0013942Y0007500D03*
X0007249Y0007500D03*
D13*
X0007524Y0017386D03*
X0007524Y0026186D03*
X0007724Y0053786D03*
X0007724Y0061986D03*
X0110124Y0044225D03*
X0110124Y0037045D03*
X0109960Y0029917D03*
X0109924Y0022425D03*
X0109963Y0015300D03*
D14*
X0099623Y0008113D03*
X0092494Y0008159D03*
X0084888Y0008200D03*
X0077523Y0007999D03*
X0068194Y0008236D03*
X0060544Y0008186D03*
X0053227Y0008213D03*
X0045975Y0008276D03*
X0039006Y0008222D03*
X0031778Y0008213D03*
X0044143Y0072998D03*
X0064737Y0073489D03*
X0072177Y0073330D03*
X0079746Y0073183D03*
D15*
X0042667Y0064386D03*
X0035581Y0064386D03*
X0025560Y0007862D03*
X0018473Y0007862D03*
D16*
X0098063Y0024461D03*
X0098063Y0027611D03*
X0098063Y0030761D03*
X0098063Y0033910D03*
X0102985Y0033910D03*
X0102985Y0030761D03*
X0102985Y0027611D03*
X0102985Y0024461D03*
D17*
X0055977Y0021013D03*
X0052828Y0021013D03*
X0049678Y0021013D03*
X0046529Y0021013D03*
X0046529Y0016092D03*
X0049678Y0016092D03*
X0052828Y0016092D03*
X0055977Y0016092D03*
D18*
X0043064Y0028467D03*
X0039324Y0028467D03*
X0035584Y0028467D03*
X0027864Y0028304D03*
X0020384Y0028304D03*
X0020384Y0018067D03*
X0024124Y0018067D03*
X0027864Y0018067D03*
X0035584Y0038704D03*
X0043064Y0038704D03*
D19*
X0056296Y0038492D03*
X0056296Y0035343D03*
X0056296Y0032193D03*
X0056296Y0041642D03*
X0056296Y0044791D03*
X0056296Y0047941D03*
X0056296Y0051091D03*
X0056296Y0054240D03*
X0090096Y0054240D03*
X0090096Y0051091D03*
X0090096Y0047941D03*
X0090096Y0044791D03*
X0090096Y0041642D03*
X0090096Y0038492D03*
X0090096Y0035343D03*
X0090096Y0032193D03*
D20*
X0084220Y0026317D03*
X0081070Y0026317D03*
X0077921Y0026317D03*
X0074771Y0026317D03*
X0071621Y0026317D03*
X0068472Y0026317D03*
X0065322Y0026317D03*
X0062173Y0026317D03*
X0062173Y0060117D03*
X0065322Y0060117D03*
X0068472Y0060117D03*
X0071621Y0060117D03*
X0074771Y0060117D03*
X0077921Y0060117D03*
X0081070Y0060117D03*
X0084220Y0060117D03*
D21*
X0098372Y0058210D02*
X0104100Y0058210D01*
X0104100Y0062934D02*
X0098372Y0062934D01*
X0098372Y0053485D02*
X0104100Y0053485D01*
D22*
X0105524Y0055586D02*
X0106724Y0054386D01*
X0106724Y0052586D01*
X0097724Y0043586D01*
X0093524Y0043586D01*
X0092324Y0044786D01*
X0090524Y0044786D01*
X0090096Y0044791D01*
X0089924Y0047786D02*
X0090096Y0047941D01*
X0089924Y0047786D02*
X0088124Y0047786D01*
X0086324Y0045986D01*
X0084524Y0047786D01*
X0076724Y0047786D01*
X0074924Y0045986D01*
X0074924Y0043586D01*
X0061124Y0029786D01*
X0053324Y0029786D01*
X0052724Y0030386D01*
X0050324Y0030386D01*
X0048524Y0029186D02*
X0047924Y0029786D01*
X0047924Y0030986D01*
X0049724Y0032786D01*
X0055724Y0032786D01*
X0056296Y0032193D01*
X0055724Y0035186D02*
X0056296Y0035343D01*
X0055724Y0035186D02*
X0050924Y0035186D01*
X0050924Y0038186D02*
X0026924Y0062186D01*
X0026924Y0063986D01*
X0026470Y0064186D01*
X0022124Y0066386D02*
X0022124Y0068786D01*
X0022124Y0066386D02*
X0020324Y0064586D01*
X0019778Y0064186D01*
X0020324Y0063986D01*
X0026924Y0057386D01*
X0029324Y0057386D01*
X0034724Y0051986D01*
X0034724Y0042386D01*
X0031724Y0042386D01*
X0028124Y0045986D01*
X0026924Y0045986D01*
X0026411Y0046046D01*
X0023324Y0042986D02*
X0025724Y0040586D01*
X0026258Y0040379D01*
X0026324Y0039986D01*
X0029924Y0039986D01*
X0033524Y0036386D01*
X0031124Y0033986D01*
X0026924Y0033986D01*
X0024524Y0031586D01*
X0024524Y0027386D01*
X0007724Y0010586D01*
X0007724Y0007586D01*
X0007249Y0007500D01*
X0013942Y0007500D02*
X0014324Y0007586D01*
X0017924Y0007586D01*
X0018473Y0007862D01*
X0018524Y0008186D01*
X0020324Y0008186D01*
X0025724Y0013586D01*
X0038924Y0013586D01*
X0041324Y0015986D02*
X0041324Y0010586D01*
X0039524Y0008786D01*
X0039006Y0008222D01*
X0031778Y0008213D02*
X0031724Y0008186D01*
X0025724Y0008186D01*
X0025560Y0007862D01*
X0022724Y0013586D02*
X0023924Y0014786D01*
X0023924Y0017786D01*
X0024124Y0018067D01*
X0020924Y0018386D02*
X0020924Y0021986D01*
X0025724Y0026786D01*
X0025724Y0030986D01*
X0026324Y0031586D01*
X0029324Y0031586D01*
X0033524Y0027386D01*
X0033524Y0025586D01*
X0035324Y0023786D01*
X0044924Y0023786D01*
X0048524Y0027386D01*
X0048524Y0029186D01*
X0046124Y0027986D02*
X0043724Y0027986D01*
X0043064Y0028467D01*
X0043124Y0027986D01*
X0043724Y0027986D01*
X0040724Y0024986D01*
X0037724Y0024986D01*
X0035924Y0026786D01*
X0035924Y0027986D01*
X0035584Y0028467D01*
X0035924Y0028586D01*
X0035924Y0029786D01*
X0037724Y0031586D01*
X0037724Y0041786D01*
X0037124Y0042386D01*
X0034724Y0042386D01*
X0032324Y0044786D02*
X0032324Y0045986D01*
X0026924Y0051386D01*
X0026470Y0051786D01*
X0026324Y0051986D01*
X0024524Y0053786D01*
X0024524Y0054386D01*
X0019124Y0059786D01*
X0015524Y0059786D01*
X0013724Y0061586D01*
X0007724Y0061586D01*
X0007724Y0061986D01*
X0014924Y0063386D02*
X0017324Y0060986D01*
X0019724Y0060986D01*
X0024524Y0056186D01*
X0027524Y0056186D01*
X0031724Y0051986D01*
X0043124Y0056186D02*
X0051524Y0047786D01*
X0055724Y0047786D01*
X0056296Y0047941D01*
X0056296Y0044791D02*
X0056324Y0044786D01*
X0062324Y0044786D01*
X0065924Y0041186D01*
X0065324Y0036986D02*
X0061124Y0041186D01*
X0056296Y0038492D02*
X0055724Y0038186D01*
X0050924Y0038186D01*
X0039524Y0044186D02*
X0039524Y0028586D01*
X0039324Y0028467D01*
X0046724Y0021986D02*
X0050924Y0026186D01*
X0061724Y0026186D01*
X0062173Y0026317D01*
X0064724Y0026186D02*
X0064724Y0023786D01*
X0063524Y0022586D01*
X0060524Y0022586D01*
X0059324Y0023786D01*
X0051524Y0023786D01*
X0050924Y0023186D01*
X0050924Y0022586D01*
X0049724Y0021386D01*
X0049678Y0021013D01*
X0046724Y0021386D02*
X0046529Y0021013D01*
X0046724Y0021386D02*
X0046724Y0021986D01*
X0046529Y0016092D02*
X0046124Y0015986D01*
X0046124Y0008786D01*
X0045975Y0008276D01*
X0049724Y0011786D02*
X0052724Y0008786D01*
X0053227Y0008213D01*
X0055724Y0012386D02*
X0056924Y0012386D01*
X0060524Y0008786D01*
X0060544Y0008186D01*
X0055724Y0012386D02*
X0053324Y0014786D01*
X0053324Y0015986D01*
X0052828Y0016092D01*
X0054524Y0018386D02*
X0058724Y0018386D01*
X0059324Y0018986D01*
X0060524Y0015986D02*
X0056324Y0015986D01*
X0055977Y0016092D01*
X0054524Y0018386D02*
X0053324Y0019586D01*
X0053324Y0020786D01*
X0052828Y0021013D01*
X0055977Y0021013D02*
X0056324Y0021386D01*
X0068924Y0021386D01*
X0071324Y0023786D01*
X0071324Y0026186D01*
X0071621Y0026317D01*
X0074324Y0026786D02*
X0074771Y0026317D01*
X0074924Y0026186D01*
X0074924Y0018386D01*
X0084524Y0008786D01*
X0084888Y0008200D01*
X0077523Y0007999D02*
X0077324Y0008186D01*
X0066524Y0018986D01*
X0060524Y0015986D02*
X0067724Y0008786D01*
X0068194Y0008236D01*
X0077924Y0022586D02*
X0092324Y0008186D01*
X0092494Y0008159D01*
X0092924Y0012386D02*
X0095324Y0012386D01*
X0099524Y0008186D01*
X0099623Y0008113D01*
X0100124Y0015386D02*
X0086324Y0029186D01*
X0086324Y0035786D01*
X0081524Y0035786D01*
X0084524Y0038186D02*
X0077324Y0045386D01*
X0076124Y0050186D02*
X0083324Y0050186D01*
X0085724Y0052586D01*
X0082124Y0052586D02*
X0064124Y0052586D01*
X0058124Y0058586D01*
X0056324Y0056786D01*
X0056324Y0054386D01*
X0056296Y0054240D01*
X0058124Y0058586D02*
X0059924Y0060386D01*
X0059924Y0068186D01*
X0064724Y0072986D01*
X0064737Y0073489D01*
X0065324Y0066386D02*
X0071924Y0072986D01*
X0072177Y0073330D01*
X0072524Y0072986D01*
X0076724Y0068786D01*
X0103724Y0068786D01*
X0106724Y0065786D01*
X0107924Y0065786D01*
X0110324Y0066386D02*
X0110324Y0063386D01*
X0107924Y0062786D02*
X0105524Y0065186D01*
X0089324Y0065186D01*
X0084524Y0060386D01*
X0084220Y0060117D01*
X0081070Y0060117D02*
X0080924Y0059786D01*
X0080924Y0057986D01*
X0079724Y0056786D01*
X0079724Y0055586D01*
X0077324Y0057386D02*
X0077324Y0059786D01*
X0077921Y0060117D01*
X0077324Y0057386D02*
X0075524Y0055586D01*
X0071324Y0054986D02*
X0068924Y0057386D01*
X0068924Y0059786D01*
X0068472Y0060117D01*
X0065322Y0060117D02*
X0065324Y0060386D01*
X0065324Y0066386D01*
X0062173Y0060117D02*
X0062324Y0059786D01*
X0062324Y0057986D01*
X0065324Y0054986D01*
X0056924Y0060386D02*
X0056324Y0059786D01*
X0056924Y0060386D02*
X0056924Y0073586D01*
X0057521Y0073899D01*
X0050828Y0073899D02*
X0050324Y0073586D01*
X0044324Y0073586D01*
X0044143Y0072998D01*
X0041924Y0068186D02*
X0048524Y0068186D01*
X0041924Y0068186D02*
X0037124Y0072986D01*
X0033524Y0072986D01*
X0035581Y0064386D02*
X0035324Y0063986D01*
X0031724Y0063986D01*
X0042667Y0064386D02*
X0043124Y0063986D01*
X0043124Y0056186D01*
X0035584Y0038704D02*
X0035324Y0038186D01*
X0033524Y0036386D01*
X0030524Y0036386D02*
X0024524Y0036386D01*
X0020924Y0039986D01*
X0019724Y0039986D01*
X0019565Y0040379D01*
X0019724Y0040586D01*
X0019724Y0045986D01*
X0019718Y0046046D01*
X0023324Y0042986D02*
X0023324Y0053786D01*
X0022124Y0054986D01*
X0017324Y0054986D01*
X0016124Y0053786D01*
X0014324Y0053786D01*
X0014324Y0057986D01*
X0014324Y0053786D02*
X0007724Y0053786D01*
X0019724Y0051986D02*
X0009524Y0041786D01*
X0007124Y0039386D01*
X0007124Y0037586D01*
X0006778Y0037386D01*
X0006524Y0036986D01*
X0005924Y0036386D01*
X0005924Y0032786D01*
X0007724Y0030986D01*
X0009524Y0030986D01*
X0015524Y0024986D01*
X0017324Y0026786D01*
X0015524Y0024986D02*
X0016724Y0023786D01*
X0016724Y0022586D01*
X0011924Y0017786D01*
X0007724Y0017786D01*
X0007524Y0017386D01*
X0014324Y0023186D02*
X0011324Y0026186D01*
X0007524Y0026186D01*
X0008324Y0033386D02*
X0017924Y0033386D01*
X0020324Y0033986D02*
X0017324Y0036986D01*
X0013724Y0036986D01*
X0013470Y0037386D01*
X0020324Y0033986D02*
X0020324Y0028586D01*
X0020384Y0028304D01*
X0027864Y0028304D02*
X0028124Y0027986D01*
X0029324Y0027986D01*
X0041324Y0015986D01*
X0036524Y0017786D02*
X0031724Y0017786D01*
X0028124Y0017786D01*
X0027864Y0018067D01*
X0020924Y0018386D02*
X0020384Y0018067D01*
X0049678Y0016092D02*
X0049724Y0015986D01*
X0049724Y0011786D01*
X0064724Y0026186D02*
X0065322Y0026317D01*
X0068324Y0026786D02*
X0068472Y0026317D01*
X0068324Y0026786D02*
X0068324Y0033986D01*
X0071924Y0030986D02*
X0074324Y0028586D01*
X0074324Y0026786D01*
X0077921Y0026317D02*
X0077924Y0026186D01*
X0077924Y0022586D01*
X0081524Y0023786D02*
X0081524Y0026186D01*
X0081070Y0026317D01*
X0081524Y0023786D02*
X0092924Y0012386D01*
X0100124Y0015386D02*
X0109724Y0015386D01*
X0109963Y0015300D01*
X0109924Y0022425D02*
X0109724Y0022586D01*
X0107924Y0024386D01*
X0103124Y0024386D01*
X0102985Y0024461D01*
X0102985Y0027611D02*
X0103124Y0027986D01*
X0107924Y0027986D01*
X0109724Y0029786D01*
X0109960Y0029917D01*
X0103724Y0030986D02*
X0109724Y0036986D01*
X0110124Y0037045D01*
X0103124Y0037586D02*
X0103124Y0033986D01*
X0102985Y0033910D01*
X0103124Y0030986D02*
X0102985Y0030761D01*
X0103124Y0030986D02*
X0103724Y0030986D01*
X0098063Y0030761D02*
X0097724Y0030986D01*
X0096524Y0030986D01*
X0092324Y0035186D01*
X0090524Y0035186D01*
X0090096Y0035343D01*
X0089924Y0038186D02*
X0090096Y0038492D01*
X0090524Y0038786D01*
X0092324Y0038786D01*
X0093524Y0039986D01*
X0093524Y0043586D01*
X0090096Y0041642D02*
X0089924Y0041786D01*
X0088124Y0041786D01*
X0086324Y0043586D01*
X0086324Y0045986D01*
X0090096Y0051091D02*
X0090524Y0051386D01*
X0095324Y0051386D01*
X0097124Y0053186D01*
X0097236Y0053485D01*
X0090524Y0054386D02*
X0090524Y0056186D01*
X0097124Y0062786D01*
X0097236Y0062934D01*
X0101236Y0058210D02*
X0105524Y0057986D01*
X0105524Y0055586D01*
X0107924Y0051986D02*
X0107924Y0062786D01*
X0110324Y0066386D02*
X0103724Y0072986D01*
X0080324Y0072986D01*
X0079746Y0073183D01*
X0089924Y0060386D02*
X0082124Y0052586D01*
X0090096Y0054240D02*
X0090524Y0054386D01*
X0098324Y0042386D02*
X0107924Y0051986D01*
X0109724Y0044186D02*
X0110124Y0044225D01*
X0109724Y0044186D02*
X0103124Y0037586D01*
X0098324Y0033986D02*
X0098324Y0042386D01*
X0089924Y0038186D02*
X0087524Y0038186D01*
X0086324Y0036986D01*
X0086324Y0035786D01*
X0090096Y0032193D02*
X0090524Y0032186D01*
X0094724Y0027986D01*
X0097724Y0027986D01*
X0098063Y0027611D01*
X0098063Y0024461D02*
X0097724Y0024386D01*
X0097724Y0020786D01*
X0089924Y0020786D02*
X0084524Y0026186D01*
X0084220Y0026317D01*
X0098063Y0033910D02*
X0098324Y0033986D01*
X0019778Y0051786D02*
X0019724Y0051986D01*
D23*
X0014324Y0057986D03*
X0014924Y0063386D03*
X0022124Y0068786D03*
X0031724Y0063986D03*
X0033524Y0072986D03*
X0048524Y0068186D03*
X0056324Y0059786D03*
X0065324Y0054986D03*
X0071324Y0054986D03*
X0075524Y0055586D03*
X0079724Y0055586D03*
X0085724Y0052586D03*
X0089924Y0060386D03*
X0076124Y0050186D03*
X0077324Y0045386D03*
X0084524Y0038186D03*
X0081524Y0035786D03*
X0071924Y0030986D03*
X0068324Y0033986D03*
X0065324Y0036986D03*
X0065924Y0041186D03*
X0061124Y0041186D03*
X0051524Y0047786D03*
X0050924Y0038186D03*
X0050924Y0035186D03*
X0050324Y0030386D03*
X0046124Y0027986D03*
X0036524Y0017786D03*
X0031724Y0017786D03*
X0038924Y0013586D03*
X0022724Y0013586D03*
X0014324Y0023186D03*
X0017324Y0026786D03*
X0017924Y0033386D03*
X0008324Y0033386D03*
X0009524Y0041786D03*
X0030524Y0036386D03*
X0032324Y0044786D03*
X0039524Y0044186D03*
X0031724Y0051986D03*
X0059324Y0018986D03*
X0066524Y0018986D03*
X0089924Y0020786D03*
X0097724Y0020786D03*
X0110324Y0063386D03*
X0107924Y0065786D03*
M02*
