G75*
%MOIN*%
%OFA0B0*%
%FSLAX25Y25*%
%IPPOS*%
%LPD*%
%AMOC8*
5,1,8,0,0,1.08239X$1,22.5*
%
%ADD10C,0.00100*%
%ADD11C,0.00600*%
%ADD12C,0.00500*%
%ADD13R,0.01800X0.03000*%
%ADD14C,0.00200*%
%ADD15R,0.02362X0.01772*%
%ADD16C,0.00800*%
%ADD17C,0.00400*%
D10*
X0002600Y0016836D02*
X0003601Y0016836D01*
X0003100Y0016836D02*
X0003100Y0018337D01*
X0003601Y0017837D01*
X0004073Y0018087D02*
X0004323Y0018337D01*
X0005074Y0018337D01*
X0005074Y0016836D01*
X0004323Y0016836D01*
X0004073Y0017086D01*
X0004073Y0018087D01*
X0023400Y0014537D02*
X0023650Y0014787D01*
X0024151Y0014787D01*
X0024401Y0014537D01*
X0024873Y0014537D02*
X0025123Y0014787D01*
X0025624Y0014787D01*
X0025874Y0014537D01*
X0025874Y0013536D01*
X0025624Y0013286D01*
X0025123Y0013286D01*
X0024873Y0013536D01*
X0024401Y0013286D02*
X0023400Y0014287D01*
X0023400Y0014537D01*
X0023400Y0013286D02*
X0024401Y0013286D01*
X0047585Y0010968D02*
X0048086Y0011468D01*
X0049086Y0011468D01*
X0049086Y0010467D02*
X0048086Y0010467D01*
X0047585Y0010968D01*
X0047835Y0009995D02*
X0048086Y0009995D01*
X0048336Y0009745D01*
X0048336Y0008994D01*
X0047835Y0008994D01*
X0047585Y0009244D01*
X0047585Y0009745D01*
X0047835Y0009995D01*
X0048836Y0009495D02*
X0048336Y0008994D01*
X0048336Y0008522D02*
X0047835Y0008522D01*
X0047585Y0008271D01*
X0047585Y0007771D01*
X0047835Y0007521D01*
X0047835Y0007034D02*
X0047585Y0007034D01*
X0047585Y0006784D01*
X0047835Y0006784D01*
X0047835Y0007034D01*
X0048336Y0007521D02*
X0048586Y0008021D01*
X0048586Y0008271D01*
X0048336Y0008522D01*
X0049086Y0008522D02*
X0049086Y0007521D01*
X0048336Y0007521D01*
X0049551Y0007632D02*
X0050301Y0007632D01*
X0050552Y0007382D01*
X0050552Y0006881D01*
X0050301Y0006631D01*
X0049551Y0006631D01*
X0049551Y0008132D01*
X0048836Y0009495D02*
X0049086Y0009995D01*
X0051274Y0007632D02*
X0051024Y0007382D01*
X0051024Y0006631D01*
X0052025Y0006631D02*
X0052025Y0007632D01*
X0051274Y0007632D01*
X0052497Y0007632D02*
X0053248Y0007632D01*
X0053498Y0007382D01*
X0053498Y0006881D01*
X0053248Y0006631D01*
X0052497Y0006631D01*
X0052497Y0006381D02*
X0052497Y0007632D01*
X0052497Y0006381D02*
X0052747Y0006131D01*
X0052998Y0006131D01*
X0049086Y0006062D02*
X0049086Y0005561D01*
X0048836Y0005311D01*
X0049086Y0006062D02*
X0048836Y0006312D01*
X0048586Y0006312D01*
X0047585Y0005311D01*
X0047585Y0006312D01*
X0060611Y0005882D02*
X0061612Y0005882D01*
X0061612Y0006383D02*
X0061612Y0006633D01*
X0061612Y0006383D02*
X0061111Y0005882D01*
X0061361Y0007110D02*
X0061612Y0007360D01*
X0061612Y0008111D01*
X0061612Y0008583D02*
X0061612Y0009084D01*
X0061862Y0008833D02*
X0060861Y0008833D01*
X0060611Y0009084D01*
X0060861Y0008111D02*
X0061111Y0007861D01*
X0061111Y0007360D01*
X0061361Y0007110D01*
X0060611Y0007110D02*
X0060611Y0007861D01*
X0060861Y0008111D01*
X0042974Y0043436D02*
X0042974Y0044937D01*
X0042223Y0044937D01*
X0041973Y0044687D01*
X0041973Y0044187D01*
X0042223Y0043936D01*
X0042974Y0043936D01*
X0042474Y0043936D02*
X0041973Y0043436D01*
X0041501Y0043686D02*
X0041251Y0043436D01*
X0040750Y0043436D01*
X0040500Y0043686D01*
X0040500Y0044187D01*
X0040750Y0044437D01*
X0041000Y0044437D01*
X0041501Y0044187D01*
X0041501Y0044937D01*
X0040500Y0044937D01*
X0038770Y0060786D02*
X0038270Y0060786D01*
X0038020Y0061036D01*
X0037547Y0061036D02*
X0037297Y0060786D01*
X0036797Y0060786D01*
X0036546Y0061036D01*
X0036546Y0061286D01*
X0036797Y0061537D01*
X0037047Y0061537D01*
X0036797Y0061537D02*
X0036546Y0061787D01*
X0036546Y0062037D01*
X0036797Y0062287D01*
X0037297Y0062287D01*
X0037547Y0062037D01*
X0038020Y0062037D02*
X0038270Y0062287D01*
X0038770Y0062287D01*
X0039021Y0062037D01*
X0039021Y0061036D01*
X0038770Y0060786D01*
X0041068Y0070371D02*
X0040818Y0070622D01*
X0040818Y0071122D01*
X0041068Y0071372D01*
X0041568Y0071372D01*
X0041568Y0070872D01*
X0041068Y0070371D02*
X0042069Y0070371D01*
X0042319Y0070622D01*
X0042319Y0071122D01*
X0042069Y0071372D01*
X0042319Y0071845D02*
X0040818Y0072846D01*
X0042319Y0072846D01*
X0042319Y0073318D02*
X0042319Y0074069D01*
X0042069Y0074319D01*
X0041068Y0074319D01*
X0040818Y0074069D01*
X0040818Y0073318D01*
X0042319Y0073318D01*
X0042319Y0071845D02*
X0040818Y0071845D01*
X0040818Y0074791D02*
X0040818Y0075792D01*
X0040818Y0075292D02*
X0042319Y0075292D01*
X0041819Y0074791D01*
X0031152Y0072898D02*
X0031152Y0072398D01*
X0031152Y0072648D02*
X0029901Y0072648D01*
X0029650Y0072398D01*
X0029650Y0072148D01*
X0029901Y0071898D01*
X0030151Y0071425D02*
X0031152Y0071425D01*
X0031152Y0070424D02*
X0030151Y0070424D01*
X0029650Y0070925D01*
X0030151Y0071425D01*
X0021552Y0071425D02*
X0020551Y0071425D01*
X0020050Y0070925D01*
X0020551Y0070424D01*
X0021552Y0070424D01*
X0020301Y0071898D02*
X0020050Y0072148D01*
X0020050Y0072398D01*
X0020301Y0072648D01*
X0021552Y0072648D01*
X0021552Y0072398D02*
X0021552Y0072898D01*
X0021051Y0073371D02*
X0021552Y0073871D01*
X0020050Y0073871D01*
X0020050Y0073371D02*
X0020050Y0074372D01*
X0012029Y0059061D02*
X0011528Y0058560D01*
X0011028Y0059061D01*
X0011028Y0057559D01*
X0010556Y0057810D02*
X0010305Y0057559D01*
X0009805Y0057559D01*
X0009555Y0057810D01*
X0009555Y0058810D01*
X0009805Y0059061D01*
X0010305Y0059061D01*
X0010556Y0058810D01*
X0010556Y0057810D01*
X0012029Y0057559D02*
X0012029Y0059061D01*
X0009082Y0059061D02*
X0008081Y0059061D01*
X0008582Y0059061D02*
X0008582Y0057559D01*
X0007609Y0057810D02*
X0007359Y0057559D01*
X0006858Y0057559D01*
X0006608Y0057810D01*
X0006608Y0058810D01*
X0006858Y0059061D01*
X0007359Y0059061D01*
X0007609Y0058810D01*
X0007609Y0057810D01*
X0006136Y0058060D02*
X0005385Y0058060D01*
X0005135Y0058310D01*
X0005135Y0058810D01*
X0005385Y0059061D01*
X0006136Y0059061D01*
X0006136Y0057559D01*
X0005635Y0058060D02*
X0005135Y0057559D01*
X0005385Y0051261D02*
X0006136Y0051261D01*
X0006136Y0049759D01*
X0005385Y0049759D01*
X0005135Y0050010D01*
X0005135Y0051010D01*
X0005385Y0051261D01*
X0006608Y0051261D02*
X0006608Y0049759D01*
X0007609Y0051261D01*
X0007609Y0049759D01*
X0008081Y0050010D02*
X0008081Y0050510D01*
X0008582Y0050510D01*
X0009082Y0050010D02*
X0008832Y0049759D01*
X0008332Y0049759D01*
X0008081Y0050010D01*
X0008081Y0051010D02*
X0008332Y0051261D01*
X0008832Y0051261D01*
X0009082Y0051010D01*
X0009082Y0050010D01*
X0009555Y0049759D02*
X0010055Y0050260D01*
X0009805Y0050260D02*
X0010556Y0050260D01*
X0010556Y0049759D02*
X0010556Y0051261D01*
X0009805Y0051261D01*
X0009555Y0051010D01*
X0009555Y0050510D01*
X0009805Y0050260D01*
X0011028Y0050010D02*
X0011028Y0051010D01*
X0011278Y0051261D01*
X0011779Y0051261D01*
X0012029Y0051010D01*
X0012029Y0050010D01*
X0011779Y0049759D01*
X0011278Y0049759D01*
X0011028Y0050010D01*
X0012501Y0051261D02*
X0013502Y0051261D01*
X0013002Y0051261D02*
X0013002Y0049759D01*
X0013974Y0050010D02*
X0013974Y0051010D01*
X0014225Y0051261D01*
X0014725Y0051261D01*
X0014975Y0051010D01*
X0014975Y0050010D01*
X0014725Y0049759D01*
X0014225Y0049759D01*
X0013974Y0050010D01*
X0015448Y0049759D02*
X0015448Y0051261D01*
X0015948Y0050760D01*
X0016449Y0051261D01*
X0016449Y0049759D01*
X0067774Y0072686D02*
X0068024Y0072436D01*
X0067774Y0072686D02*
X0067774Y0073187D01*
X0068024Y0073437D01*
X0068274Y0073437D01*
X0068525Y0073187D01*
X0068525Y0072936D01*
X0068525Y0073187D02*
X0068775Y0073437D01*
X0069025Y0073437D01*
X0069275Y0073187D01*
X0069275Y0072686D01*
X0069025Y0072436D01*
X0068024Y0073909D02*
X0068024Y0074159D01*
X0067774Y0074159D01*
X0067774Y0073909D01*
X0068024Y0073909D01*
X0068024Y0074646D02*
X0067774Y0074896D01*
X0067774Y0075396D01*
X0068024Y0075647D01*
X0068274Y0075647D01*
X0068525Y0075396D01*
X0068525Y0075146D01*
X0068525Y0075396D02*
X0068775Y0075647D01*
X0069025Y0075647D01*
X0069275Y0075396D01*
X0069275Y0074896D01*
X0069025Y0074646D01*
X0075474Y0073187D02*
X0075724Y0073437D01*
X0076975Y0073437D01*
X0076975Y0072686D01*
X0076725Y0072436D01*
X0076224Y0072436D01*
X0075974Y0072686D01*
X0075974Y0073437D01*
X0075974Y0073909D02*
X0076975Y0073909D01*
X0076975Y0074660D01*
X0076725Y0074910D01*
X0075974Y0074910D01*
X0076224Y0075382D02*
X0076725Y0075382D01*
X0076975Y0075633D01*
X0076975Y0076383D01*
X0077475Y0076383D02*
X0075974Y0076383D01*
X0075974Y0075633D01*
X0076224Y0075382D01*
X0075474Y0073187D02*
X0075474Y0072936D01*
X0091556Y0074036D02*
X0092056Y0074036D01*
X0091806Y0074036D02*
X0091806Y0075037D01*
X0092056Y0075037D01*
X0092529Y0075037D02*
X0093279Y0075037D01*
X0093529Y0074787D01*
X0093279Y0074536D01*
X0092779Y0074536D01*
X0092529Y0074286D01*
X0092779Y0074036D01*
X0093529Y0074036D01*
X0091806Y0075537D02*
X0091806Y0075787D01*
X0098974Y0076133D02*
X0099474Y0075382D01*
X0099975Y0076133D01*
X0100475Y0075382D02*
X0098974Y0075382D01*
X0098974Y0074910D02*
X0098974Y0074159D01*
X0099224Y0073909D01*
X0099725Y0073909D01*
X0099975Y0074159D01*
X0099975Y0074910D01*
X0099975Y0073437D02*
X0099975Y0072686D01*
X0099725Y0072436D01*
X0099474Y0072686D01*
X0099474Y0073187D01*
X0099224Y0073437D01*
X0098974Y0073187D01*
X0098974Y0072436D01*
X0106546Y0074286D02*
X0106797Y0074536D01*
X0107297Y0074536D01*
X0107547Y0074787D01*
X0107297Y0075037D01*
X0106546Y0075037D01*
X0106546Y0074286D02*
X0106797Y0074036D01*
X0107547Y0074036D01*
X0108020Y0074286D02*
X0108270Y0074536D01*
X0108770Y0074536D01*
X0109021Y0074787D01*
X0108770Y0075037D01*
X0108020Y0075037D01*
X0108020Y0074286D02*
X0108270Y0074036D01*
X0109021Y0074036D01*
X0109493Y0074036D02*
X0109493Y0074787D01*
X0109743Y0075037D01*
X0110244Y0075037D01*
X0110494Y0074787D01*
X0110494Y0075537D02*
X0110494Y0074036D01*
X0108824Y0007837D02*
X0108073Y0007837D01*
X0107601Y0007587D02*
X0107601Y0007086D01*
X0107351Y0006836D01*
X0106850Y0006836D01*
X0106600Y0007086D01*
X0106600Y0007587D01*
X0106850Y0007837D01*
X0107351Y0007837D01*
X0107601Y0007587D01*
X0108073Y0007086D02*
X0108323Y0007336D01*
X0108824Y0007336D01*
X0109074Y0007587D01*
X0108824Y0007837D01*
X0109074Y0006836D02*
X0108323Y0006836D01*
X0108073Y0007086D01*
D11*
X0057297Y0058076D02*
X0058765Y0059544D01*
X0054361Y0059544D01*
X0054361Y0058076D02*
X0054361Y0061012D01*
X0040305Y0063224D02*
X0037943Y0063224D01*
X0037943Y0067948D02*
X0040305Y0067948D01*
X0024105Y0012348D02*
X0021743Y0012348D01*
X0021743Y0007624D02*
X0024105Y0007624D01*
D12*
X0012077Y0006880D02*
X0006171Y0006880D01*
X0006171Y0018691D01*
X0012077Y0018691D01*
X0012077Y0006880D01*
X0010874Y0012036D02*
X0009124Y0013536D01*
X0007374Y0012036D01*
X0010874Y0012036D01*
X0010874Y0013536D02*
X0007374Y0013536D01*
X0020365Y0014474D02*
X0020365Y0025498D01*
X0025483Y0025498D01*
X0025483Y0014474D01*
X0020365Y0014474D01*
D13*
X0039524Y0040386D03*
D14*
X0044124Y0052866D02*
X0046326Y0052866D01*
X0046326Y0053967D01*
X0045959Y0054334D01*
X0045225Y0054334D01*
X0044858Y0053967D01*
X0044858Y0052866D01*
X0044858Y0053600D02*
X0044124Y0054334D01*
X0044491Y0055076D02*
X0044124Y0055443D01*
X0044124Y0056177D01*
X0044491Y0056544D01*
X0044858Y0056544D01*
X0045225Y0056177D01*
X0045225Y0055076D01*
X0044491Y0055076D01*
X0045225Y0055076D02*
X0045959Y0055810D01*
X0046326Y0056544D01*
X0028990Y0066986D02*
X0028990Y0069188D01*
X0029724Y0069188D02*
X0028256Y0069188D01*
X0027514Y0068454D02*
X0026780Y0069188D01*
X0026780Y0066986D01*
X0027514Y0066986D02*
X0026046Y0066986D01*
X0019544Y0029388D02*
X0018076Y0029388D01*
X0018810Y0029388D02*
X0018810Y0027186D01*
X0017334Y0027186D02*
X0015866Y0028654D01*
X0015866Y0029021D01*
X0016233Y0029388D01*
X0016967Y0029388D01*
X0017334Y0029021D01*
X0017334Y0027186D02*
X0015866Y0027186D01*
X0031824Y0021187D02*
X0031824Y0020453D01*
X0032191Y0020086D01*
X0032925Y0020820D02*
X0032925Y0021187D01*
X0032558Y0021554D01*
X0032191Y0021554D01*
X0031824Y0021187D01*
X0032925Y0021187D02*
X0033292Y0021554D01*
X0033659Y0021554D01*
X0034026Y0021187D01*
X0034026Y0020453D01*
X0033659Y0020086D01*
X0034026Y0019344D02*
X0034026Y0017876D01*
X0034026Y0018610D02*
X0031824Y0018610D01*
D15*
X0026959Y0016246D03*
X0026959Y0023726D03*
X0018889Y0019986D03*
D16*
X0048628Y0009290D02*
X0111620Y0009290D01*
X0111620Y0072282D01*
X0048628Y0072282D01*
X0048628Y0009290D01*
X0074219Y0025038D02*
X0082093Y0025038D01*
X0082093Y0032912D01*
X0074219Y0032912D01*
X0074219Y0025038D01*
X0072250Y0040786D02*
X0072250Y0056534D01*
X0087998Y0056534D01*
X0087998Y0040786D01*
X0072250Y0040786D01*
D17*
X0064495Y0047211D02*
X0060658Y0047211D01*
X0059891Y0047978D01*
X0059891Y0049513D01*
X0060658Y0050280D01*
X0064495Y0050280D01*
X0063728Y0051815D02*
X0064495Y0052582D01*
X0064495Y0054117D01*
X0063728Y0054884D01*
X0062960Y0054884D01*
X0059891Y0051815D01*
X0059891Y0054884D01*
M02*
