%
M48
M72
T01C0.04000
%
T01
X11604Y9300
X21604Y9300
X31604Y9300
X41604Y9300
X51604Y9300
X61604Y9300
X71604Y9300
X81604Y9300
X91604Y9300
X101604Y9300
X111604Y9300
X121604Y9300
X131604Y9300
X141604Y9300
X151604Y9300
X161604Y9300
X171604Y9300
X181604Y9300
X191604Y9300
X201604Y9300
X201604Y109300
X191604Y109300
X181604Y109300
X171604Y109300
X161604Y109300
X151604Y109300
X141604Y109300
X131604Y109300
X121604Y109300
X111604Y109300
X101604Y109300
X91604Y109300
X81604Y109300
X71604Y109300
X61604Y109300
X51604Y109300
X41604Y109300
X31604Y109300
X21604Y109300
X11604Y109300
M30
