G75*
%MOIN*%
%OFA0B0*%
%FSLAX25Y25*%
%IPPOS*%
%LPD*%
%AMOC8*
5,1,8,0,0,1.08239X$1,22.5*
%
%ADD10C,0.00600*%
%ADD11C,0.01600*%
%ADD12C,0.00000*%
%ADD13C,0.00984*%
%ADD14R,0.00787X0.00787*%
%ADD15C,0.00400*%
%ADD16R,0.00886X0.00984*%
%ADD17C,0.00250*%
D10*
X0006604Y0006800D02*
X0009104Y0004300D01*
X0014104Y0004300D01*
X0016604Y0006800D01*
X0019104Y0004300D01*
X0024104Y0004300D01*
X0026604Y0006800D01*
X0026604Y0011800D01*
X0024104Y0014300D01*
X0019104Y0014300D01*
X0016604Y0011800D01*
X0016604Y0006800D01*
X0016604Y0011800D02*
X0014104Y0014300D01*
X0009104Y0014300D01*
X0006604Y0011800D01*
X0006604Y0006800D01*
X0026604Y0006800D02*
X0029104Y0004300D01*
X0034104Y0004300D01*
X0036604Y0006800D01*
X0039104Y0004300D01*
X0044104Y0004300D01*
X0046604Y0006800D01*
X0049104Y0004300D01*
X0054104Y0004300D01*
X0056604Y0006800D01*
X0056604Y0011800D01*
X0054104Y0014300D01*
X0049104Y0014300D01*
X0046604Y0011800D01*
X0046604Y0006800D01*
X0046604Y0011800D02*
X0044104Y0014300D01*
X0039104Y0014300D01*
X0036604Y0011800D01*
X0036604Y0006800D01*
X0036604Y0011800D02*
X0034104Y0014300D01*
X0029104Y0014300D01*
X0026604Y0011800D01*
X0056604Y0011800D02*
X0059104Y0014300D01*
X0064104Y0014300D01*
X0066604Y0011800D01*
X0069104Y0014300D01*
X0074104Y0014300D01*
X0076604Y0011800D01*
X0079104Y0014300D01*
X0084104Y0014300D01*
X0086604Y0011800D01*
X0086604Y0006800D01*
X0084104Y0004300D01*
X0079104Y0004300D01*
X0076604Y0006800D01*
X0074104Y0004300D01*
X0069104Y0004300D01*
X0066604Y0006800D01*
X0064104Y0004300D01*
X0059104Y0004300D01*
X0056604Y0006800D01*
X0066604Y0006800D02*
X0066604Y0011800D01*
X0076604Y0011800D02*
X0076604Y0006800D01*
X0086604Y0006800D02*
X0089104Y0004300D01*
X0094104Y0004300D01*
X0096604Y0006800D01*
X0099104Y0004300D01*
X0104104Y0004300D01*
X0106604Y0006800D01*
X0109104Y0004300D01*
X0114104Y0004300D01*
X0116604Y0006800D01*
X0116604Y0011800D01*
X0114104Y0014300D01*
X0109104Y0014300D01*
X0106604Y0011800D01*
X0106604Y0006800D01*
X0106604Y0011800D02*
X0104104Y0014300D01*
X0099104Y0014300D01*
X0096604Y0011800D01*
X0096604Y0006800D01*
X0096604Y0011800D02*
X0094104Y0014300D01*
X0089104Y0014300D01*
X0086604Y0011800D01*
X0085106Y0022465D02*
X0086174Y0023532D01*
X0086174Y0028870D01*
X0082971Y0028870D01*
X0081904Y0027803D01*
X0081904Y0025668D01*
X0082971Y0024600D01*
X0086174Y0024600D01*
X0088349Y0024600D02*
X0088349Y0028870D01*
X0088349Y0026735D02*
X0090484Y0028870D01*
X0091552Y0028870D01*
X0093720Y0027803D02*
X0093720Y0025668D01*
X0094788Y0024600D01*
X0096923Y0024600D01*
X0097991Y0025668D01*
X0097991Y0027803D01*
X0096923Y0028870D01*
X0094788Y0028870D01*
X0093720Y0027803D01*
X0100166Y0028870D02*
X0100166Y0025668D01*
X0101233Y0024600D01*
X0104436Y0024600D01*
X0104436Y0028870D01*
X0106611Y0028870D02*
X0109814Y0028870D01*
X0110882Y0027803D01*
X0110882Y0024600D01*
X0113057Y0025668D02*
X0113057Y0027803D01*
X0114124Y0028870D01*
X0117327Y0028870D01*
X0117327Y0031005D02*
X0117327Y0024600D01*
X0114124Y0024600D01*
X0113057Y0025668D01*
X0106611Y0024600D02*
X0106611Y0028870D01*
X0119104Y0014300D02*
X0124104Y0014300D01*
X0126604Y0011800D01*
X0129104Y0014300D01*
X0134104Y0014300D01*
X0136604Y0011800D01*
X0139104Y0014300D01*
X0144104Y0014300D01*
X0146604Y0011800D01*
X0146604Y0006800D01*
X0144104Y0004300D01*
X0139104Y0004300D01*
X0136604Y0006800D01*
X0134104Y0004300D01*
X0129104Y0004300D01*
X0126604Y0006800D01*
X0124104Y0004300D01*
X0119104Y0004300D01*
X0116604Y0006800D01*
X0116604Y0011800D02*
X0119104Y0014300D01*
X0126604Y0011800D02*
X0126604Y0006800D01*
X0136604Y0006800D02*
X0136604Y0011800D01*
X0146604Y0011800D02*
X0149104Y0014300D01*
X0154104Y0014300D01*
X0156604Y0011800D01*
X0159104Y0014300D01*
X0164104Y0014300D01*
X0166604Y0011800D01*
X0169104Y0014300D01*
X0174104Y0014300D01*
X0176604Y0011800D01*
X0176604Y0006800D01*
X0174104Y0004300D01*
X0169104Y0004300D01*
X0166604Y0006800D01*
X0164104Y0004300D01*
X0159104Y0004300D01*
X0156604Y0006800D01*
X0154104Y0004300D01*
X0149104Y0004300D01*
X0146604Y0006800D01*
X0156604Y0006800D02*
X0156604Y0011800D01*
X0166604Y0011800D02*
X0166604Y0006800D01*
X0176604Y0006800D02*
X0179104Y0004300D01*
X0184104Y0004300D01*
X0186604Y0006800D01*
X0189104Y0004300D01*
X0194104Y0004300D01*
X0196604Y0006800D01*
X0199104Y0004300D01*
X0204104Y0004300D01*
X0206604Y0006800D01*
X0206604Y0011800D01*
X0204104Y0014300D01*
X0199104Y0014300D01*
X0196604Y0011800D01*
X0196604Y0006800D01*
X0196604Y0011800D02*
X0194104Y0014300D01*
X0189104Y0014300D01*
X0186604Y0011800D01*
X0186604Y0006800D01*
X0186604Y0011800D02*
X0184104Y0014300D01*
X0179104Y0014300D01*
X0176604Y0011800D01*
X0179241Y0073119D02*
X0179241Y0075481D01*
X0173966Y0075481D02*
X0173966Y0073119D01*
X0169241Y0073119D02*
X0169241Y0075481D01*
X0163966Y0075481D02*
X0163966Y0073119D01*
X0159241Y0073119D02*
X0159241Y0075481D01*
X0153966Y0075481D02*
X0153966Y0073119D01*
X0149241Y0073119D02*
X0149241Y0075481D01*
X0143966Y0075481D02*
X0143966Y0073119D01*
X0139241Y0073119D02*
X0139241Y0075481D01*
X0133966Y0075481D02*
X0133966Y0073119D01*
X0129241Y0073119D02*
X0129241Y0075481D01*
X0123966Y0075481D02*
X0123966Y0073119D01*
X0119241Y0073119D02*
X0119241Y0075481D01*
X0113966Y0075481D02*
X0113966Y0073119D01*
X0109241Y0073119D02*
X0109241Y0075481D01*
X0103966Y0075481D02*
X0103966Y0073119D01*
X0099241Y0073119D02*
X0099241Y0075481D01*
X0093966Y0075481D02*
X0093966Y0073119D01*
X0089241Y0073119D02*
X0089241Y0075481D01*
X0083966Y0075481D02*
X0083966Y0073119D01*
X0079241Y0073119D02*
X0079241Y0075481D01*
X0073966Y0075481D02*
X0073966Y0073119D01*
X0069241Y0073119D02*
X0069241Y0075481D01*
X0063966Y0075481D02*
X0063966Y0073119D01*
X0059241Y0073119D02*
X0059241Y0075481D01*
X0053966Y0075481D02*
X0053966Y0073119D01*
X0049241Y0073119D02*
X0049241Y0075481D01*
X0043966Y0075481D02*
X0043966Y0073119D01*
X0039241Y0073119D02*
X0039241Y0075481D01*
X0033966Y0075481D02*
X0033966Y0073119D01*
X0029241Y0073119D02*
X0029241Y0075481D01*
X0023966Y0075481D02*
X0023966Y0073119D01*
X0019241Y0073119D02*
X0019241Y0075481D01*
X0013966Y0075481D02*
X0013966Y0073119D01*
X0009241Y0073119D02*
X0009241Y0075481D01*
X0009104Y0104300D02*
X0014104Y0104300D01*
X0016604Y0106800D01*
X0019104Y0104300D01*
X0024104Y0104300D01*
X0026604Y0106800D01*
X0026604Y0111800D01*
X0024104Y0114300D01*
X0019104Y0114300D01*
X0016604Y0111800D01*
X0016604Y0106800D01*
X0016604Y0111800D02*
X0014104Y0114300D01*
X0009104Y0114300D01*
X0006604Y0111800D01*
X0006604Y0106800D01*
X0009104Y0104300D01*
X0026604Y0106800D02*
X0029104Y0104300D01*
X0034104Y0104300D01*
X0036604Y0106800D01*
X0039104Y0104300D01*
X0044104Y0104300D01*
X0046604Y0106800D01*
X0049104Y0104300D01*
X0054104Y0104300D01*
X0056604Y0106800D01*
X0056604Y0111800D01*
X0054104Y0114300D01*
X0049104Y0114300D01*
X0046604Y0111800D01*
X0046604Y0106800D01*
X0046604Y0111800D02*
X0044104Y0114300D01*
X0039104Y0114300D01*
X0036604Y0111800D01*
X0036604Y0106800D01*
X0036604Y0111800D02*
X0034104Y0114300D01*
X0029104Y0114300D01*
X0026604Y0111800D01*
X0056604Y0111800D02*
X0059104Y0114300D01*
X0064104Y0114300D01*
X0066604Y0111800D01*
X0069104Y0114300D01*
X0074104Y0114300D01*
X0076604Y0111800D01*
X0079104Y0114300D01*
X0084104Y0114300D01*
X0086604Y0111800D01*
X0086604Y0106800D01*
X0084104Y0104300D01*
X0079104Y0104300D01*
X0076604Y0106800D01*
X0074104Y0104300D01*
X0069104Y0104300D01*
X0066604Y0106800D01*
X0064104Y0104300D01*
X0059104Y0104300D01*
X0056604Y0106800D01*
X0066604Y0106800D02*
X0066604Y0111800D01*
X0076604Y0111800D02*
X0076604Y0106800D01*
X0086604Y0106800D02*
X0089104Y0104300D01*
X0094104Y0104300D01*
X0096604Y0106800D01*
X0099104Y0104300D01*
X0104104Y0104300D01*
X0106604Y0106800D01*
X0109104Y0104300D01*
X0114104Y0104300D01*
X0116604Y0106800D01*
X0116604Y0111800D01*
X0114104Y0114300D01*
X0109104Y0114300D01*
X0106604Y0111800D01*
X0106604Y0106800D01*
X0106604Y0111800D02*
X0104104Y0114300D01*
X0099104Y0114300D01*
X0096604Y0111800D01*
X0096604Y0106800D01*
X0096604Y0111800D02*
X0094104Y0114300D01*
X0089104Y0114300D01*
X0086604Y0111800D01*
X0086174Y0096005D02*
X0086174Y0091735D01*
X0084039Y0089600D01*
X0081904Y0091735D01*
X0081904Y0096005D01*
X0088349Y0094938D02*
X0088349Y0090668D01*
X0089417Y0089600D01*
X0091552Y0089600D01*
X0092619Y0090668D01*
X0094795Y0090668D02*
X0095862Y0089600D01*
X0097997Y0089600D01*
X0099065Y0090668D01*
X0099065Y0094938D02*
X0097997Y0096005D01*
X0095862Y0096005D01*
X0094795Y0094938D01*
X0094795Y0090668D01*
X0092619Y0094938D02*
X0091552Y0096005D01*
X0089417Y0096005D01*
X0088349Y0094938D01*
X0116604Y0106800D02*
X0119104Y0104300D01*
X0124104Y0104300D01*
X0126604Y0106800D01*
X0129104Y0104300D01*
X0134104Y0104300D01*
X0136604Y0106800D01*
X0139104Y0104300D01*
X0144104Y0104300D01*
X0146604Y0106800D01*
X0146604Y0111800D01*
X0144104Y0114300D01*
X0139104Y0114300D01*
X0136604Y0111800D01*
X0136604Y0106800D01*
X0136604Y0111800D02*
X0134104Y0114300D01*
X0129104Y0114300D01*
X0126604Y0111800D01*
X0126604Y0106800D01*
X0126604Y0111800D02*
X0124104Y0114300D01*
X0119104Y0114300D01*
X0116604Y0111800D01*
X0146604Y0111800D02*
X0149104Y0114300D01*
X0154104Y0114300D01*
X0156604Y0111800D01*
X0159104Y0114300D01*
X0164104Y0114300D01*
X0166604Y0111800D01*
X0169104Y0114300D01*
X0174104Y0114300D01*
X0176604Y0111800D01*
X0176604Y0106800D01*
X0174104Y0104300D01*
X0169104Y0104300D01*
X0166604Y0106800D01*
X0164104Y0104300D01*
X0159104Y0104300D01*
X0156604Y0106800D01*
X0154104Y0104300D01*
X0149104Y0104300D01*
X0146604Y0106800D01*
X0156604Y0106800D02*
X0156604Y0111800D01*
X0166604Y0111800D02*
X0166604Y0106800D01*
X0176604Y0106800D02*
X0179104Y0104300D01*
X0184104Y0104300D01*
X0186604Y0106800D01*
X0189104Y0104300D01*
X0194104Y0104300D01*
X0196604Y0106800D01*
X0199104Y0104300D01*
X0204104Y0104300D01*
X0206604Y0106800D01*
X0206604Y0111800D01*
X0204104Y0114300D01*
X0199104Y0114300D01*
X0196604Y0111800D01*
X0196604Y0106800D01*
X0196604Y0111800D02*
X0194104Y0114300D01*
X0189104Y0114300D01*
X0186604Y0111800D01*
X0186604Y0106800D01*
X0186604Y0111800D02*
X0184104Y0114300D01*
X0179104Y0114300D01*
X0176604Y0111800D01*
X0183966Y0075481D02*
X0183966Y0073119D01*
X0189241Y0073119D02*
X0189241Y0075481D01*
X0193966Y0075481D02*
X0193966Y0073119D01*
X0199241Y0073119D02*
X0199241Y0075481D01*
X0203966Y0075481D02*
X0203966Y0073119D01*
X0085106Y0022465D02*
X0084039Y0022465D01*
D11*
X0004104Y0001800D02*
X0004104Y0116800D01*
X0209104Y0116800D01*
X0209104Y0001800D01*
X0004104Y0001800D01*
D12*
X0011604Y0035300D02*
X0011604Y0043300D01*
X0007604Y0039300D02*
X0015604Y0039300D01*
X0017604Y0039300D02*
X0025604Y0039300D01*
X0027604Y0039300D02*
X0035604Y0039300D01*
X0037604Y0039300D02*
X0045604Y0039300D01*
X0047604Y0039300D02*
X0055604Y0039300D01*
X0057604Y0039300D02*
X0065604Y0039300D01*
X0067604Y0039300D02*
X0075604Y0039300D01*
X0077604Y0039300D02*
X0085604Y0039300D01*
X0087604Y0039300D02*
X0095604Y0039300D01*
X0097604Y0039300D02*
X0105604Y0039300D01*
X0107604Y0039300D02*
X0115604Y0039300D01*
X0117604Y0039300D02*
X0125604Y0039300D01*
X0127604Y0039300D02*
X0135604Y0039300D01*
X0137604Y0039300D02*
X0145604Y0039300D01*
X0147604Y0039300D02*
X0155604Y0039300D01*
X0157604Y0039300D02*
X0165604Y0039300D01*
X0167604Y0044300D02*
X0175604Y0044300D01*
X0177604Y0044300D02*
X0185604Y0044300D01*
X0187604Y0044300D02*
X0195604Y0044300D01*
X0197604Y0044300D02*
X0205604Y0044300D01*
X0201604Y0040300D02*
X0201604Y0048300D01*
X0191604Y0048300D02*
X0191604Y0040300D01*
X0181604Y0040300D02*
X0181604Y0048300D01*
X0171604Y0048300D02*
X0171604Y0040300D01*
X0161604Y0043300D02*
X0161604Y0035300D01*
X0151604Y0035300D02*
X0151604Y0043300D01*
X0141604Y0043300D02*
X0141604Y0035300D01*
X0131604Y0035300D02*
X0131604Y0043300D01*
X0121604Y0043300D02*
X0121604Y0035300D01*
X0111604Y0035300D02*
X0111604Y0043300D01*
X0101604Y0043300D02*
X0101604Y0035300D01*
X0091604Y0035300D02*
X0091604Y0043300D01*
X0081604Y0043300D02*
X0081604Y0035300D01*
X0071604Y0035300D02*
X0071604Y0043300D01*
X0061604Y0043300D02*
X0061604Y0035300D01*
X0051604Y0035300D02*
X0051604Y0043300D01*
X0041604Y0043300D02*
X0041604Y0035300D01*
X0031604Y0035300D02*
X0031604Y0043300D01*
X0021604Y0043300D02*
X0021604Y0035300D01*
X0021604Y0071172D02*
X0021604Y0077428D01*
X0024731Y0074300D02*
X0018476Y0074300D01*
X0014731Y0074300D02*
X0008476Y0074300D01*
X0011604Y0071172D02*
X0011604Y0077428D01*
X0028476Y0074300D02*
X0034731Y0074300D01*
X0038476Y0074300D02*
X0044731Y0074300D01*
X0048476Y0074300D02*
X0054731Y0074300D01*
X0058476Y0074300D02*
X0064731Y0074300D01*
X0068476Y0074300D02*
X0074731Y0074300D01*
X0078476Y0074300D02*
X0084731Y0074300D01*
X0088476Y0074300D02*
X0094731Y0074300D01*
X0098476Y0074300D02*
X0104731Y0074300D01*
X0108476Y0074300D02*
X0114731Y0074300D01*
X0118476Y0074300D02*
X0124731Y0074300D01*
X0128476Y0074300D02*
X0134731Y0074300D01*
X0138476Y0074300D02*
X0144731Y0074300D01*
X0148476Y0074300D02*
X0154731Y0074300D01*
X0158476Y0074300D02*
X0164731Y0074300D01*
X0168476Y0074300D02*
X0174731Y0074300D01*
X0178476Y0074300D02*
X0184731Y0074300D01*
X0188476Y0074300D02*
X0194731Y0074300D01*
X0198476Y0074300D02*
X0204731Y0074300D01*
X0201604Y0071172D02*
X0201604Y0077428D01*
X0191604Y0077428D02*
X0191604Y0071172D01*
X0181604Y0071172D02*
X0181604Y0077428D01*
X0171604Y0077428D02*
X0171604Y0071172D01*
X0161604Y0071172D02*
X0161604Y0077428D01*
X0151604Y0077428D02*
X0151604Y0071172D01*
X0141604Y0071172D02*
X0141604Y0077428D01*
X0131604Y0077428D02*
X0131604Y0071172D01*
X0121604Y0071172D02*
X0121604Y0077428D01*
X0111604Y0077428D02*
X0111604Y0071172D01*
X0101604Y0071172D02*
X0101604Y0077428D01*
X0091604Y0077428D02*
X0091604Y0071172D01*
X0081604Y0071172D02*
X0081604Y0077428D01*
X0071604Y0077428D02*
X0071604Y0071172D01*
X0061604Y0071172D02*
X0061604Y0077428D01*
X0051604Y0077428D02*
X0051604Y0071172D01*
X0041604Y0071172D02*
X0041604Y0077428D01*
X0031604Y0077428D02*
X0031604Y0071172D01*
X0102604Y0109300D02*
X0110604Y0109300D01*
X0106604Y0105300D02*
X0106604Y0113300D01*
X0106604Y0013300D02*
X0106604Y0005300D01*
X0102604Y0009300D02*
X0110604Y0009300D01*
D13*
X0110029Y0038217D03*
X0100029Y0038217D03*
X0090029Y0038217D03*
X0120029Y0038217D03*
X0130029Y0038217D03*
X0140029Y0038217D03*
X0150029Y0038217D03*
X0160029Y0038217D03*
X0169537Y0041446D03*
X0179537Y0041446D03*
X0189537Y0041446D03*
X0199537Y0041446D03*
D14*
X0201604Y0044300D03*
X0191604Y0044300D03*
X0181604Y0044300D03*
X0171604Y0044300D03*
D15*
X0082982Y0040087D02*
X0082982Y0038513D01*
X0080226Y0038513D02*
X0080226Y0040087D01*
X0072982Y0040087D02*
X0072982Y0038513D01*
X0070226Y0038513D02*
X0070226Y0040087D01*
X0062982Y0040087D02*
X0062982Y0038513D01*
X0060226Y0038513D02*
X0060226Y0040087D01*
X0052982Y0040087D02*
X0052982Y0038513D01*
X0050226Y0038513D02*
X0050226Y0040087D01*
X0042982Y0040087D02*
X0042982Y0038513D01*
X0040226Y0038513D02*
X0040226Y0040087D01*
X0032982Y0040087D02*
X0032982Y0038513D01*
X0030226Y0038513D02*
X0030226Y0040087D01*
X0022982Y0040087D02*
X0022982Y0038513D01*
X0020226Y0038513D02*
X0020226Y0040087D01*
X0012982Y0040087D02*
X0012982Y0038513D01*
X0010226Y0038513D02*
X0010226Y0040087D01*
D16*
X0010472Y0038808D03*
X0020472Y0038808D03*
X0030472Y0038808D03*
X0040472Y0038808D03*
X0050472Y0038808D03*
X0060472Y0038808D03*
X0070472Y0038808D03*
X0080472Y0038808D03*
D17*
X0091013Y0039300D02*
X0091604Y0039891D01*
X0092293Y0039202D01*
X0091702Y0038611D01*
X0091013Y0039300D01*
X0101013Y0039300D02*
X0101604Y0039891D01*
X0102293Y0039202D01*
X0101702Y0038611D01*
X0101013Y0039300D01*
X0111013Y0039300D02*
X0111604Y0039891D01*
X0112293Y0039202D01*
X0111702Y0038611D01*
X0111013Y0039300D01*
X0121013Y0039300D02*
X0121604Y0039891D01*
X0122293Y0039202D01*
X0121702Y0038611D01*
X0121013Y0039300D01*
X0131013Y0039300D02*
X0131604Y0039891D01*
X0132293Y0039202D01*
X0131702Y0038611D01*
X0131013Y0039300D01*
X0141013Y0039300D02*
X0141604Y0039891D01*
X0142293Y0039202D01*
X0141702Y0038611D01*
X0141013Y0039300D01*
X0151013Y0039300D02*
X0151604Y0039891D01*
X0152293Y0039202D01*
X0151702Y0038611D01*
X0151013Y0039300D01*
X0161013Y0039300D02*
X0161604Y0039891D01*
X0162293Y0039202D01*
X0161702Y0038611D01*
X0161013Y0039300D01*
M02*
