G75*
%MOIN*%
%OFA0B0*%
%FSLAX25Y25*%
%IPPOS*%
%LPD*%
%AMOC8*
5,1,8,0,0,1.08239X$1,22.5*
%
%ADD10C,0.06800*%
%ADD11R,0.06706X0.06706*%
%ADD12R,0.03950X0.03950*%
%ADD13R,0.05524X0.05524*%
%ADD14R,0.05524X0.03950*%
D10*
X0011604Y0006300D02*
X0011604Y0012300D01*
X0021604Y0012300D02*
X0021604Y0006300D01*
X0031604Y0006300D02*
X0031604Y0012300D01*
X0041604Y0012300D02*
X0041604Y0006300D01*
X0051604Y0006300D02*
X0051604Y0012300D01*
X0061604Y0012300D02*
X0061604Y0006300D01*
X0071604Y0006300D02*
X0071604Y0012300D01*
X0081604Y0012300D02*
X0081604Y0006300D01*
X0091604Y0006300D02*
X0091604Y0012300D01*
X0101604Y0012300D02*
X0101604Y0006300D01*
X0111604Y0006300D02*
X0111604Y0012300D01*
X0121604Y0012300D02*
X0121604Y0006300D01*
X0131604Y0006300D02*
X0131604Y0012300D01*
X0141604Y0012300D02*
X0141604Y0006300D01*
X0151604Y0006300D02*
X0151604Y0012300D01*
X0161604Y0012300D02*
X0161604Y0006300D01*
X0171604Y0006300D02*
X0171604Y0012300D01*
X0181604Y0012300D02*
X0181604Y0006300D01*
X0191604Y0006300D02*
X0191604Y0012300D01*
X0201604Y0012300D02*
X0201604Y0006300D01*
X0201604Y0106300D02*
X0201604Y0112300D01*
X0191604Y0112300D02*
X0191604Y0106300D01*
X0181604Y0106300D02*
X0181604Y0112300D01*
X0171604Y0112300D02*
X0171604Y0106300D01*
X0161604Y0106300D02*
X0161604Y0112300D01*
X0151604Y0112300D02*
X0151604Y0106300D01*
X0141604Y0106300D02*
X0141604Y0112300D01*
X0131604Y0112300D02*
X0131604Y0106300D01*
X0121604Y0106300D02*
X0121604Y0112300D01*
X0111604Y0112300D02*
X0111604Y0106300D01*
X0101604Y0106300D02*
X0101604Y0112300D01*
X0091604Y0112300D02*
X0091604Y0106300D01*
X0081604Y0106300D02*
X0081604Y0112300D01*
X0071604Y0112300D02*
X0071604Y0106300D01*
X0061604Y0106300D02*
X0061604Y0112300D01*
X0051604Y0112300D02*
X0051604Y0106300D01*
X0041604Y0106300D02*
X0041604Y0112300D01*
X0031604Y0112300D02*
X0031604Y0106300D01*
X0021604Y0106300D02*
X0021604Y0112300D01*
X0011604Y0112300D02*
X0011604Y0106300D01*
D11*
X0171604Y0051190D03*
X0181604Y0051190D03*
X0191604Y0051190D03*
X0201604Y0051190D03*
X0201604Y0037410D03*
X0191604Y0037410D03*
X0181604Y0037410D03*
X0171604Y0037410D03*
D12*
X0081604Y0036347D03*
X0081604Y0042253D03*
X0071604Y0042253D03*
X0071604Y0036347D03*
X0061604Y0036347D03*
X0061604Y0042253D03*
X0051604Y0042253D03*
X0051604Y0036347D03*
X0041604Y0036347D03*
X0041604Y0042253D03*
X0031604Y0042253D03*
X0031604Y0036347D03*
X0021604Y0036347D03*
X0021604Y0042253D03*
X0011604Y0042253D03*
X0011604Y0036347D03*
D13*
X0091604Y0035166D03*
X0091604Y0043434D03*
X0101604Y0043434D03*
X0101604Y0035166D03*
X0111604Y0035166D03*
X0111604Y0043434D03*
X0121604Y0043434D03*
X0121604Y0035166D03*
X0131604Y0035166D03*
X0131604Y0043434D03*
X0141604Y0043434D03*
X0141604Y0035166D03*
X0151604Y0035166D03*
X0151604Y0043434D03*
X0161604Y0043434D03*
X0161604Y0035166D03*
D14*
X0161604Y0070757D03*
X0161604Y0077843D03*
X0151604Y0077843D03*
X0151604Y0070757D03*
X0141604Y0070757D03*
X0141604Y0077843D03*
X0131604Y0077843D03*
X0131604Y0070757D03*
X0121604Y0070757D03*
X0121604Y0077843D03*
X0111604Y0077843D03*
X0111604Y0070757D03*
X0101604Y0070757D03*
X0101604Y0077843D03*
X0091604Y0077843D03*
X0091604Y0070757D03*
X0081604Y0070757D03*
X0081604Y0077843D03*
X0071604Y0077843D03*
X0071604Y0070757D03*
X0061604Y0070757D03*
X0061604Y0077843D03*
X0051604Y0077843D03*
X0051604Y0070757D03*
X0041604Y0070757D03*
X0041604Y0077843D03*
X0031604Y0077843D03*
X0031604Y0070757D03*
X0021604Y0070757D03*
X0021604Y0077843D03*
X0011604Y0077843D03*
X0011604Y0070757D03*
X0171604Y0070757D03*
X0171604Y0077843D03*
X0181604Y0077843D03*
X0181604Y0070757D03*
X0191604Y0070757D03*
X0191604Y0077843D03*
X0201604Y0077843D03*
X0201604Y0070757D03*
M02*
