%
M48
M72
T01C0.01200
%
T01
X31779Y14180
X37404Y14180
X38654Y29805
X36779Y39180
X40529Y46055
X39279Y51055
X42404Y54180
X51779Y47930
X59279Y44180
X60529Y41055
X68654Y44180
X66779Y47930
X60529Y52305
X61154Y57930
X61779Y66055
X75529Y54805
X78629Y54930
X80529Y60430
X83529Y61830
X85379Y57630
X97404Y57930
X98029Y54805
X101779Y49180
X105529Y51680
X111779Y51680
X111779Y48555
X101779Y44180
X98029Y34805
X94279Y27930
X98029Y23555
X88654Y28555
X82404Y26055
X79904Y23555
X79904Y17930
X71779Y18555
X62404Y21055
X64904Y28555
X59904Y31055
X71779Y38555
X73654Y41055
X73654Y44180
X74904Y37930
X78654Y35430
X84904Y32305
X116779Y17305
X111779Y61055
X44904Y68555
X38029Y68555
M30
