G75*
%MOIN*%
%OFA0B0*%
%FSLAX25Y25*%
%IPPOS*%
%LPD*%
%AMOC8*
5,1,8,0,0,1.08239X$1,22.5*
%
%ADD10C,0.00200*%
%ADD11C,0.00100*%
%ADD12C,0.00600*%
%ADD13C,0.00000*%
%ADD14R,0.03000X0.01800*%
%ADD15C,0.00800*%
D10*
X0039354Y0054688D02*
X0059354Y0054688D01*
X0072030Y0057242D02*
X0072030Y0058343D01*
X0072397Y0058710D01*
X0072764Y0058343D01*
X0072764Y0057609D01*
X0073131Y0057242D01*
X0073498Y0057609D01*
X0073498Y0058710D01*
X0073131Y0059452D02*
X0072397Y0059452D01*
X0072030Y0059819D01*
X0072030Y0060553D01*
X0072397Y0060920D01*
X0073131Y0060920D01*
X0073498Y0060553D01*
X0073498Y0059819D01*
X0073131Y0059452D01*
X0081845Y0058974D02*
X0082579Y0058974D01*
X0082212Y0058974D02*
X0082212Y0060441D01*
X0082579Y0060441D01*
X0083321Y0060441D02*
X0084422Y0060441D01*
X0084789Y0060074D01*
X0084422Y0059707D01*
X0083688Y0059707D01*
X0083321Y0059341D01*
X0083688Y0058974D01*
X0084789Y0058974D01*
X0082212Y0061175D02*
X0082212Y0061542D01*
X0089147Y0061213D02*
X0089514Y0060846D01*
X0090248Y0060846D01*
X0090615Y0061213D01*
X0090615Y0062314D01*
X0091349Y0063056D02*
X0089147Y0063056D01*
X0089881Y0063056D02*
X0090615Y0064157D01*
X0089881Y0063056D02*
X0089147Y0064157D01*
X0089147Y0062314D02*
X0089147Y0061213D01*
X0089514Y0060104D02*
X0089881Y0059737D01*
X0089881Y0059003D01*
X0090248Y0058637D01*
X0090615Y0059003D01*
X0090615Y0060104D01*
X0089514Y0060104D02*
X0089147Y0059737D01*
X0089147Y0058637D01*
X0097110Y0059367D02*
X0098211Y0059367D01*
X0098578Y0059000D01*
X0098578Y0058266D01*
X0098211Y0057899D01*
X0099312Y0057899D02*
X0097110Y0057899D01*
X0097110Y0060109D02*
X0097110Y0061210D01*
X0097477Y0061577D01*
X0097844Y0061210D01*
X0097844Y0060476D01*
X0098211Y0060109D01*
X0098578Y0060476D01*
X0098578Y0061577D01*
X0098211Y0062319D02*
X0098578Y0062686D01*
X0098578Y0063786D01*
X0097844Y0063419D02*
X0097844Y0062686D01*
X0098211Y0062319D01*
X0097110Y0062319D02*
X0097110Y0063419D01*
X0097477Y0063786D01*
X0097844Y0063419D01*
X0112871Y0023457D02*
X0112871Y0022356D01*
X0113238Y0021989D01*
X0113972Y0021989D01*
X0114339Y0022356D01*
X0114339Y0023457D01*
X0115073Y0023457D02*
X0112871Y0023457D01*
X0112871Y0021247D02*
X0113972Y0021247D01*
X0114339Y0020880D01*
X0114339Y0019779D01*
X0112871Y0019779D01*
X0112871Y0019037D02*
X0112871Y0017937D01*
X0113238Y0017570D01*
X0113972Y0017570D01*
X0114339Y0017937D01*
X0114339Y0019037D01*
X0112504Y0019037D01*
X0112137Y0018670D01*
X0112137Y0018304D01*
X0091522Y0018447D02*
X0091155Y0018814D01*
X0090788Y0018814D01*
X0090421Y0018447D01*
X0090054Y0018814D01*
X0089687Y0018814D01*
X0089320Y0018447D01*
X0089320Y0017713D01*
X0089687Y0017346D01*
X0090421Y0018080D02*
X0090421Y0018447D01*
X0091522Y0018447D02*
X0091522Y0017713D01*
X0091155Y0017346D01*
X0089687Y0019556D02*
X0089687Y0019923D01*
X0089320Y0019923D01*
X0089320Y0019556D01*
X0089687Y0019556D01*
X0089687Y0020661D02*
X0089320Y0021028D01*
X0089320Y0021762D01*
X0089687Y0022129D01*
X0090054Y0022129D01*
X0090421Y0021762D01*
X0090421Y0021395D01*
X0090421Y0021762D02*
X0090788Y0022129D01*
X0091155Y0022129D01*
X0091522Y0021762D01*
X0091522Y0021028D01*
X0091155Y0020661D01*
X0083294Y0021722D02*
X0081826Y0021722D01*
X0081459Y0022089D01*
X0082927Y0022089D02*
X0082927Y0021355D01*
X0082927Y0020613D02*
X0082927Y0019512D01*
X0082560Y0019145D01*
X0082193Y0019512D01*
X0082193Y0020246D01*
X0081826Y0020613D01*
X0081459Y0020246D01*
X0081459Y0019145D01*
X0082927Y0018404D02*
X0082927Y0018037D01*
X0082193Y0017303D01*
X0081459Y0017303D02*
X0082927Y0017303D01*
D11*
X0055314Y0015957D02*
X0054564Y0015957D01*
X0054313Y0015707D01*
X0054313Y0015207D01*
X0054564Y0014957D01*
X0055314Y0014957D01*
X0054814Y0014957D02*
X0054313Y0014456D01*
X0053841Y0014706D02*
X0053591Y0014456D01*
X0053090Y0014456D01*
X0052840Y0014706D01*
X0052840Y0014957D01*
X0053090Y0015207D01*
X0053841Y0015207D01*
X0053841Y0014706D01*
X0053841Y0015207D02*
X0053340Y0015707D01*
X0052840Y0015957D01*
X0055314Y0015957D02*
X0055314Y0014456D01*
X0043929Y0014429D02*
X0043929Y0015930D01*
X0043179Y0015930D01*
X0042929Y0015680D01*
X0042929Y0015180D01*
X0043179Y0014929D01*
X0043929Y0014929D01*
X0043429Y0014929D02*
X0042929Y0014429D01*
X0042456Y0014429D02*
X0042456Y0014679D01*
X0041455Y0015680D01*
X0041455Y0015930D01*
X0042456Y0015930D01*
X0035018Y0013276D02*
X0035018Y0012275D01*
X0034768Y0012025D01*
X0034267Y0012025D01*
X0034017Y0012275D01*
X0033545Y0012025D02*
X0032544Y0013026D01*
X0032544Y0013276D01*
X0032794Y0013526D01*
X0033295Y0013526D01*
X0033545Y0013276D01*
X0034017Y0013276D02*
X0034267Y0013526D01*
X0034768Y0013526D01*
X0035018Y0013276D01*
X0033545Y0012025D02*
X0032544Y0012025D01*
X0033231Y0028655D02*
X0033231Y0030157D01*
X0033981Y0029406D01*
X0032980Y0029406D01*
X0034454Y0028655D02*
X0035454Y0028655D01*
X0035927Y0028655D02*
X0036427Y0029156D01*
X0036177Y0029156D02*
X0036928Y0029156D01*
X0036928Y0028655D02*
X0036928Y0030157D01*
X0036177Y0030157D01*
X0035927Y0029906D01*
X0035927Y0029406D01*
X0036177Y0029156D01*
X0035454Y0029656D02*
X0034954Y0030157D01*
X0034954Y0028655D01*
X0044424Y0043231D02*
X0044925Y0043732D01*
X0044674Y0043732D02*
X0045425Y0043732D01*
X0045425Y0043231D02*
X0045425Y0044732D01*
X0044674Y0044732D01*
X0044424Y0044482D01*
X0044424Y0043982D01*
X0044674Y0043732D01*
X0045897Y0043231D02*
X0046898Y0043231D01*
X0046898Y0044732D01*
X0045897Y0044732D01*
X0046398Y0043982D02*
X0046898Y0043982D01*
X0047371Y0043732D02*
X0047371Y0044732D01*
X0047371Y0043732D02*
X0047871Y0043231D01*
X0048371Y0043732D01*
X0048371Y0044732D01*
X0048853Y0044732D02*
X0049354Y0044732D01*
X0049103Y0044732D02*
X0049103Y0043231D01*
X0048853Y0043231D02*
X0049354Y0043231D01*
X0049826Y0043231D02*
X0050326Y0043732D01*
X0050076Y0043732D02*
X0050827Y0043732D01*
X0050827Y0043231D02*
X0050827Y0044732D01*
X0050076Y0044732D01*
X0049826Y0044482D01*
X0049826Y0043982D01*
X0050076Y0043732D01*
X0051299Y0043481D02*
X0051299Y0044482D01*
X0051549Y0044732D01*
X0052300Y0044732D01*
X0052300Y0043231D01*
X0051549Y0043231D01*
X0051299Y0043481D01*
X0052773Y0043231D02*
X0052773Y0044732D01*
X0053273Y0044232D01*
X0053773Y0044732D01*
X0053773Y0043231D01*
X0037761Y0056349D02*
X0037761Y0057851D01*
X0037261Y0057350D01*
X0036761Y0057851D01*
X0036761Y0056349D01*
X0035788Y0056349D02*
X0035788Y0057851D01*
X0036288Y0057851D02*
X0035287Y0057851D01*
X0034815Y0057100D02*
X0033814Y0057100D01*
X0033342Y0056600D02*
X0033091Y0056349D01*
X0032591Y0056349D01*
X0032341Y0056600D01*
X0032341Y0057100D01*
X0032841Y0057100D01*
X0032341Y0057600D02*
X0032591Y0057851D01*
X0033091Y0057851D01*
X0033342Y0057600D01*
X0033342Y0056600D01*
X0031868Y0056349D02*
X0031868Y0057851D01*
X0030868Y0056349D01*
X0030868Y0057851D01*
X0030395Y0057851D02*
X0029644Y0057851D01*
X0029394Y0057600D01*
X0029394Y0056600D01*
X0029644Y0056349D01*
X0030395Y0056349D01*
X0030395Y0057851D01*
X0030469Y0065035D02*
X0030970Y0065536D01*
X0030719Y0065536D02*
X0031470Y0065536D01*
X0031470Y0065035D02*
X0031470Y0066536D01*
X0030719Y0066536D01*
X0030469Y0066286D01*
X0030469Y0065786D01*
X0030719Y0065536D01*
X0031942Y0065285D02*
X0031942Y0066286D01*
X0032193Y0066536D01*
X0032693Y0066536D01*
X0032943Y0066286D01*
X0032943Y0065285D01*
X0032693Y0065035D01*
X0032193Y0065035D01*
X0031942Y0065285D01*
X0033416Y0066536D02*
X0034417Y0066536D01*
X0033916Y0066536D02*
X0033916Y0065035D01*
X0034889Y0065285D02*
X0034889Y0066286D01*
X0035139Y0066536D01*
X0035640Y0066536D01*
X0035890Y0066286D01*
X0035890Y0065285D01*
X0035640Y0065035D01*
X0035139Y0065035D01*
X0034889Y0065285D01*
X0036362Y0065035D02*
X0036362Y0066536D01*
X0036863Y0066036D01*
X0037363Y0066536D01*
X0037363Y0065035D01*
X0037951Y0070359D02*
X0037701Y0070609D01*
X0037701Y0071610D01*
X0037951Y0071861D01*
X0038702Y0071861D01*
X0038702Y0070359D01*
X0037951Y0070359D01*
X0039175Y0070359D02*
X0039175Y0071861D01*
X0040175Y0071861D02*
X0039175Y0070359D01*
X0040175Y0070359D02*
X0040175Y0071861D01*
X0040648Y0071610D02*
X0040898Y0071861D01*
X0041398Y0071861D01*
X0041649Y0071610D01*
X0041649Y0070609D01*
X0041398Y0070359D01*
X0040898Y0070359D01*
X0040648Y0070609D01*
X0040648Y0071110D01*
X0041148Y0071110D01*
X0044992Y0071337D02*
X0045992Y0070336D01*
X0045742Y0070085D01*
X0045242Y0070085D01*
X0044992Y0070336D01*
X0044992Y0071337D01*
X0045242Y0071587D01*
X0045742Y0071587D01*
X0045992Y0071337D01*
X0045992Y0070336D01*
X0046479Y0070336D02*
X0046479Y0070085D01*
X0046729Y0070085D01*
X0046729Y0070336D01*
X0046479Y0070336D01*
X0047201Y0070085D02*
X0048202Y0070085D01*
X0047201Y0071086D01*
X0047201Y0071337D01*
X0047452Y0071587D01*
X0047952Y0071587D01*
X0048202Y0071337D01*
X0048675Y0071587D02*
X0048675Y0070586D01*
X0049175Y0070085D01*
X0049676Y0070586D01*
X0049676Y0071587D01*
X0050148Y0070836D02*
X0051149Y0070836D01*
X0051621Y0070836D02*
X0051871Y0070586D01*
X0052622Y0070586D01*
X0052122Y0070586D02*
X0051621Y0070085D01*
X0051621Y0070836D02*
X0051621Y0071337D01*
X0051871Y0071587D01*
X0052622Y0071587D01*
X0052622Y0070085D01*
X0053094Y0070085D02*
X0053094Y0071086D01*
X0053595Y0071587D01*
X0054095Y0071086D01*
X0054095Y0070085D01*
X0054568Y0070336D02*
X0054818Y0070085D01*
X0055318Y0070085D01*
X0055569Y0070336D01*
X0055569Y0071337D01*
X0055318Y0071587D01*
X0054818Y0071587D01*
X0054568Y0071337D01*
X0054095Y0070836D02*
X0053094Y0070836D01*
X0053094Y0069187D02*
X0053595Y0068937D01*
X0054095Y0068436D01*
X0053345Y0068436D01*
X0053094Y0068186D01*
X0053094Y0067936D01*
X0053345Y0067685D01*
X0053845Y0067685D01*
X0054095Y0067936D01*
X0054095Y0068436D01*
X0054568Y0069187D02*
X0054568Y0067685D01*
X0055569Y0067685D02*
X0055569Y0069187D01*
X0055068Y0068686D01*
X0054568Y0069187D01*
X0056041Y0069187D02*
X0057042Y0069187D01*
X0057042Y0067685D01*
X0057514Y0067685D02*
X0058015Y0068186D01*
X0057764Y0068186D02*
X0058515Y0068186D01*
X0058515Y0067685D02*
X0058515Y0069187D01*
X0057764Y0069187D01*
X0057514Y0068937D01*
X0057514Y0068436D01*
X0057764Y0068186D01*
X0057042Y0068436D02*
X0056541Y0068436D01*
X0056291Y0070085D02*
X0056041Y0070336D01*
X0056291Y0070085D02*
X0056792Y0070085D01*
X0057042Y0070336D01*
X0057042Y0071337D01*
X0056792Y0071587D01*
X0056291Y0071587D01*
X0056041Y0071337D01*
X0057514Y0071337D02*
X0057514Y0070836D01*
X0057764Y0070586D01*
X0058515Y0070586D01*
X0058015Y0070586D02*
X0057514Y0070085D01*
X0058515Y0070085D02*
X0058515Y0071587D01*
X0057764Y0071587D01*
X0057514Y0071337D01*
X0052622Y0068937D02*
X0052622Y0068686D01*
X0052372Y0068436D01*
X0051621Y0068436D01*
X0051149Y0068436D02*
X0050148Y0068436D01*
X0050148Y0069187D02*
X0050148Y0067685D01*
X0049676Y0067685D02*
X0049175Y0068186D01*
X0048675Y0067685D01*
X0048675Y0069187D01*
X0048202Y0068937D02*
X0048202Y0067936D01*
X0047952Y0067685D01*
X0047452Y0067685D01*
X0047201Y0067936D01*
X0047201Y0068937D02*
X0047452Y0069187D01*
X0047952Y0069187D01*
X0048202Y0068937D01*
X0049676Y0069187D02*
X0049676Y0067685D01*
X0051149Y0067685D02*
X0051149Y0069187D01*
X0051621Y0068937D02*
X0051871Y0069187D01*
X0052372Y0069187D01*
X0052622Y0068937D01*
X0051621Y0068937D02*
X0051621Y0067936D01*
X0051871Y0067685D01*
X0052372Y0067685D01*
X0052622Y0067936D01*
X0069407Y0064514D02*
X0069407Y0063763D01*
X0069658Y0063513D01*
X0070158Y0063513D01*
X0070408Y0063763D01*
X0070408Y0064514D01*
X0070909Y0064514D02*
X0069407Y0064514D01*
X0069407Y0063040D02*
X0070158Y0063040D01*
X0070408Y0062790D01*
X0070408Y0062039D01*
X0069407Y0062039D01*
X0069407Y0061567D02*
X0069407Y0060816D01*
X0069658Y0060566D01*
X0070158Y0060566D01*
X0070408Y0060816D01*
X0070408Y0061567D01*
X0069157Y0061567D01*
X0068907Y0061317D01*
X0068907Y0061067D01*
D12*
X0068250Y0058299D02*
X0063846Y0058299D01*
X0063846Y0056831D02*
X0063846Y0059767D01*
X0066782Y0056831D02*
X0068250Y0058299D01*
X0059354Y0054588D02*
X0059354Y0042188D01*
X0059352Y0042112D01*
X0059346Y0042036D01*
X0059337Y0041961D01*
X0059323Y0041886D01*
X0059306Y0041812D01*
X0059285Y0041739D01*
X0059261Y0041667D01*
X0059232Y0041596D01*
X0059201Y0041527D01*
X0059166Y0041460D01*
X0059127Y0041395D01*
X0059085Y0041331D01*
X0059040Y0041270D01*
X0058992Y0041211D01*
X0058941Y0041155D01*
X0058887Y0041101D01*
X0058831Y0041050D01*
X0058772Y0041002D01*
X0058711Y0040957D01*
X0058647Y0040915D01*
X0058582Y0040876D01*
X0058515Y0040841D01*
X0058446Y0040810D01*
X0058375Y0040781D01*
X0058303Y0040757D01*
X0058230Y0040736D01*
X0058156Y0040719D01*
X0058081Y0040705D01*
X0058006Y0040696D01*
X0057930Y0040690D01*
X0057854Y0040688D01*
X0040854Y0040688D01*
X0040778Y0040690D01*
X0040702Y0040696D01*
X0040627Y0040705D01*
X0040552Y0040719D01*
X0040478Y0040736D01*
X0040405Y0040757D01*
X0040333Y0040781D01*
X0040262Y0040810D01*
X0040193Y0040841D01*
X0040126Y0040876D01*
X0040061Y0040915D01*
X0039997Y0040957D01*
X0039936Y0041002D01*
X0039877Y0041050D01*
X0039821Y0041101D01*
X0039767Y0041155D01*
X0039716Y0041211D01*
X0039668Y0041270D01*
X0039623Y0041331D01*
X0039581Y0041395D01*
X0039542Y0041460D01*
X0039507Y0041527D01*
X0039476Y0041596D01*
X0039447Y0041667D01*
X0039423Y0041739D01*
X0039402Y0041812D01*
X0039385Y0041886D01*
X0039371Y0041961D01*
X0039362Y0042036D01*
X0039356Y0042112D01*
X0039354Y0042188D01*
X0039354Y0054588D01*
X0039356Y0054664D01*
X0039362Y0054740D01*
X0039371Y0054815D01*
X0039385Y0054890D01*
X0039402Y0054964D01*
X0039423Y0055037D01*
X0039447Y0055109D01*
X0039476Y0055180D01*
X0039507Y0055249D01*
X0039542Y0055316D01*
X0039581Y0055381D01*
X0039623Y0055445D01*
X0039668Y0055506D01*
X0039716Y0055565D01*
X0039767Y0055621D01*
X0039821Y0055675D01*
X0039877Y0055726D01*
X0039936Y0055774D01*
X0039997Y0055819D01*
X0040061Y0055861D01*
X0040126Y0055900D01*
X0040193Y0055935D01*
X0040262Y0055966D01*
X0040333Y0055995D01*
X0040405Y0056019D01*
X0040478Y0056040D01*
X0040552Y0056057D01*
X0040627Y0056071D01*
X0040702Y0056080D01*
X0040778Y0056086D01*
X0040854Y0056088D01*
X0057854Y0056088D01*
X0057930Y0056086D01*
X0058006Y0056080D01*
X0058081Y0056071D01*
X0058156Y0056057D01*
X0058230Y0056040D01*
X0058303Y0056019D01*
X0058375Y0055995D01*
X0058446Y0055966D01*
X0058515Y0055935D01*
X0058582Y0055900D01*
X0058647Y0055861D01*
X0058711Y0055819D01*
X0058772Y0055774D01*
X0058831Y0055726D01*
X0058887Y0055675D01*
X0058941Y0055621D01*
X0058992Y0055565D01*
X0059040Y0055506D01*
X0059085Y0055445D01*
X0059127Y0055381D01*
X0059166Y0055316D01*
X0059201Y0055249D01*
X0059232Y0055180D01*
X0059261Y0055109D01*
X0059285Y0055037D01*
X0059306Y0054964D01*
X0059323Y0054890D01*
X0059337Y0054815D01*
X0059346Y0054740D01*
X0059352Y0054664D01*
X0059354Y0054588D01*
X0039354Y0050388D02*
X0039442Y0050386D01*
X0039531Y0050380D01*
X0039619Y0050370D01*
X0039706Y0050357D01*
X0039793Y0050339D01*
X0039879Y0050318D01*
X0039964Y0050293D01*
X0040047Y0050264D01*
X0040130Y0050231D01*
X0040210Y0050195D01*
X0040289Y0050156D01*
X0040367Y0050113D01*
X0040442Y0050066D01*
X0040515Y0050016D01*
X0040586Y0049963D01*
X0040655Y0049907D01*
X0040721Y0049848D01*
X0040784Y0049786D01*
X0040844Y0049722D01*
X0040902Y0049655D01*
X0040956Y0049585D01*
X0041008Y0049513D01*
X0041056Y0049439D01*
X0041101Y0049362D01*
X0041142Y0049284D01*
X0041180Y0049204D01*
X0041214Y0049123D01*
X0041245Y0049040D01*
X0041272Y0048955D01*
X0041295Y0048870D01*
X0041314Y0048784D01*
X0041330Y0048696D01*
X0041342Y0048609D01*
X0041350Y0048521D01*
X0041354Y0048432D01*
X0041354Y0048344D01*
X0041350Y0048255D01*
X0041342Y0048167D01*
X0041330Y0048080D01*
X0041314Y0047992D01*
X0041295Y0047906D01*
X0041272Y0047821D01*
X0041245Y0047736D01*
X0041214Y0047653D01*
X0041180Y0047572D01*
X0041142Y0047492D01*
X0041101Y0047414D01*
X0041056Y0047337D01*
X0041008Y0047263D01*
X0040956Y0047191D01*
X0040902Y0047121D01*
X0040844Y0047054D01*
X0040784Y0046990D01*
X0040721Y0046928D01*
X0040655Y0046869D01*
X0040586Y0046813D01*
X0040515Y0046760D01*
X0040442Y0046710D01*
X0040367Y0046663D01*
X0040289Y0046620D01*
X0040210Y0046581D01*
X0040130Y0046545D01*
X0040047Y0046512D01*
X0039964Y0046483D01*
X0039879Y0046458D01*
X0039793Y0046437D01*
X0039706Y0046419D01*
X0039619Y0046406D01*
X0039531Y0046396D01*
X0039442Y0046390D01*
X0039354Y0046388D01*
X0035284Y0010862D02*
X0032922Y0010862D01*
X0032922Y0006138D02*
X0035284Y0006138D01*
D13*
X0037875Y0008500D02*
X0030330Y0008500D01*
X0034103Y0004727D02*
X0034103Y0012273D01*
X0034830Y0018217D02*
X0034830Y0025972D01*
X0030952Y0022094D02*
X0038708Y0022094D01*
X0039826Y0022343D02*
X0047581Y0022343D01*
X0049492Y0022727D02*
X0057247Y0022727D01*
X0053370Y0018850D02*
X0053370Y0026605D01*
X0043703Y0026221D02*
X0043703Y0018466D01*
X0049354Y0044388D02*
X0049354Y0052388D01*
X0045354Y0048388D02*
X0053354Y0048388D01*
X0034623Y0053104D02*
X0028617Y0053104D01*
X0031620Y0050101D02*
X0031620Y0056107D01*
X0031952Y0058144D02*
X0031952Y0064150D01*
X0028949Y0061147D02*
X0034956Y0061147D01*
X0031928Y0068024D02*
X0031928Y0074030D01*
X0034931Y0071027D02*
X0028924Y0071027D01*
X0089546Y0039540D02*
X0097546Y0039540D01*
X0093546Y0035540D02*
X0093546Y0043540D01*
D14*
X0053370Y0022727D03*
X0043703Y0022343D03*
X0034830Y0022094D03*
D15*
X0062050Y0008044D02*
X0125042Y0008044D01*
X0125042Y0071037D01*
X0062050Y0071037D01*
X0062050Y0008044D01*
X0073861Y0023792D02*
X0081735Y0023792D01*
X0081735Y0031666D01*
X0073861Y0031666D01*
X0073861Y0023792D01*
X0069924Y0039540D02*
X0069924Y0055288D01*
X0085672Y0055288D01*
X0085672Y0039540D01*
X0069924Y0039540D01*
M02*
