G75*
%MOIN*%
%OFA0B0*%
%FSLAX25Y25*%
%IPPOS*%
%LPD*%
%AMOC8*
5,1,8,0,0,1.08239X$1,22.5*
%
%ADD10C,0.00100*%
%ADD11R,0.01800X0.03000*%
%ADD12C,0.00000*%
%ADD13C,0.00600*%
%ADD14R,0.03000X0.01800*%
%ADD15C,0.00800*%
%ADD16C,0.00300*%
D10*
X0035086Y0013566D02*
X0035336Y0013315D01*
X0035836Y0013315D01*
X0036086Y0013566D01*
X0036559Y0013315D02*
X0037560Y0013315D01*
X0037059Y0013315D02*
X0037059Y0014817D01*
X0036559Y0014316D01*
X0036086Y0014566D02*
X0035836Y0014817D01*
X0035336Y0014817D01*
X0035086Y0014566D01*
X0035086Y0013566D01*
X0036340Y0018168D02*
X0037090Y0018168D01*
X0037340Y0018418D01*
X0037340Y0018668D01*
X0037090Y0018918D01*
X0036340Y0018918D01*
X0037090Y0018918D02*
X0037340Y0019169D01*
X0037340Y0019419D01*
X0037090Y0019669D01*
X0036340Y0019669D01*
X0036340Y0018168D01*
X0037813Y0018168D02*
X0037813Y0019169D01*
X0038313Y0019669D01*
X0038814Y0019169D01*
X0038814Y0018168D01*
X0038814Y0018918D02*
X0037813Y0018918D01*
X0039286Y0019669D02*
X0040287Y0019669D01*
X0039787Y0019669D02*
X0039787Y0018168D01*
X0040759Y0018918D02*
X0041760Y0018918D01*
X0044326Y0017700D02*
X0045077Y0017700D01*
X0045327Y0017449D01*
X0045327Y0016949D01*
X0045077Y0016699D01*
X0044326Y0016699D01*
X0044326Y0016198D02*
X0044326Y0017700D01*
X0044827Y0016699D02*
X0045327Y0016198D01*
X0045799Y0016198D02*
X0046800Y0016198D01*
X0046300Y0016198D02*
X0046300Y0017700D01*
X0045799Y0017199D01*
X0045720Y0014006D02*
X0046721Y0014006D01*
X0047193Y0014006D02*
X0047944Y0014006D01*
X0048194Y0013755D01*
X0048194Y0013255D01*
X0047944Y0013005D01*
X0047193Y0013005D01*
X0047693Y0013005D02*
X0048194Y0012504D01*
X0047193Y0012504D02*
X0047193Y0014006D01*
X0046220Y0014006D02*
X0046220Y0012504D01*
X0045247Y0012755D02*
X0045247Y0013755D01*
X0044997Y0014006D01*
X0044246Y0014006D01*
X0044246Y0012504D01*
X0044997Y0012504D01*
X0045247Y0012755D01*
X0051575Y0012581D02*
X0051826Y0012331D01*
X0052326Y0012331D01*
X0052576Y0012581D01*
X0052576Y0012832D01*
X0052326Y0013082D01*
X0051826Y0013082D01*
X0051575Y0013332D01*
X0051575Y0013582D01*
X0051826Y0013832D01*
X0052326Y0013832D01*
X0052576Y0013582D01*
X0053049Y0013832D02*
X0053049Y0012832D01*
X0053549Y0012331D01*
X0054049Y0012832D01*
X0054049Y0013832D01*
X0054522Y0013082D02*
X0055523Y0013082D01*
X0055022Y0013582D02*
X0055022Y0012581D01*
X0057948Y0012755D02*
X0057948Y0013755D01*
X0058198Y0014006D01*
X0058698Y0014006D01*
X0058949Y0013755D01*
X0058949Y0013255D02*
X0058448Y0013255D01*
X0058949Y0013255D02*
X0058949Y0012755D01*
X0058698Y0012504D01*
X0058198Y0012504D01*
X0057948Y0012755D01*
X0059421Y0012504D02*
X0059421Y0014006D01*
X0060422Y0012504D01*
X0060422Y0014006D01*
X0060894Y0014006D02*
X0061645Y0014006D01*
X0061895Y0013755D01*
X0061895Y0012755D01*
X0061645Y0012504D01*
X0060894Y0012504D01*
X0060894Y0014006D01*
X0060881Y0017753D02*
X0060881Y0019254D01*
X0060381Y0018754D01*
X0059908Y0019004D02*
X0059908Y0018503D01*
X0059658Y0018253D01*
X0058907Y0018253D01*
X0058907Y0017753D02*
X0058907Y0019254D01*
X0059658Y0019254D01*
X0059908Y0019004D01*
X0059408Y0018253D02*
X0059908Y0017753D01*
X0060381Y0017753D02*
X0061382Y0017753D01*
X0061854Y0018003D02*
X0062104Y0017753D01*
X0062605Y0017753D01*
X0062855Y0018003D01*
X0062855Y0018253D01*
X0062605Y0018503D01*
X0061854Y0018503D01*
X0061854Y0018003D01*
X0061854Y0018503D02*
X0062354Y0019004D01*
X0062855Y0019254D01*
X0066734Y0014146D02*
X0067234Y0013645D01*
X0067234Y0012645D01*
X0067706Y0012895D02*
X0067957Y0012645D01*
X0068457Y0012645D01*
X0068707Y0012895D01*
X0068707Y0014146D01*
X0069180Y0014146D02*
X0070181Y0012645D01*
X0070653Y0013395D02*
X0071654Y0013395D01*
X0071404Y0012645D02*
X0071404Y0014146D01*
X0070653Y0013395D01*
X0070181Y0014146D02*
X0069180Y0012645D01*
X0067706Y0012895D02*
X0067706Y0014146D01*
X0067234Y0013395D02*
X0066233Y0013395D01*
X0066233Y0013645D02*
X0066734Y0014146D01*
X0066233Y0013645D02*
X0066233Y0012645D01*
X0074222Y0012801D02*
X0074222Y0013802D01*
X0074722Y0014302D01*
X0075223Y0013802D01*
X0075223Y0012801D01*
X0075695Y0013051D02*
X0075945Y0012801D01*
X0076446Y0012801D01*
X0076696Y0013051D01*
X0076696Y0014302D01*
X0077168Y0014302D02*
X0078169Y0012801D01*
X0078642Y0013051D02*
X0078892Y0012801D01*
X0079392Y0012801D01*
X0079642Y0013051D01*
X0079642Y0013302D01*
X0079392Y0013552D01*
X0079142Y0013552D01*
X0079392Y0013552D02*
X0079642Y0013802D01*
X0079642Y0014052D01*
X0079392Y0014302D01*
X0078892Y0014302D01*
X0078642Y0014052D01*
X0078169Y0014302D02*
X0077168Y0012801D01*
X0075695Y0013051D02*
X0075695Y0014302D01*
X0075223Y0013552D02*
X0074222Y0013552D01*
X0082524Y0013552D02*
X0083525Y0013552D01*
X0083525Y0013802D02*
X0083525Y0012801D01*
X0083997Y0013051D02*
X0084247Y0012801D01*
X0084748Y0012801D01*
X0084998Y0013051D01*
X0084998Y0014302D01*
X0085470Y0014302D02*
X0086471Y0012801D01*
X0086944Y0012801D02*
X0087944Y0013802D01*
X0087944Y0014052D01*
X0087694Y0014302D01*
X0087194Y0014302D01*
X0086944Y0014052D01*
X0086471Y0014302D02*
X0085470Y0012801D01*
X0086944Y0012801D02*
X0087944Y0012801D01*
X0089886Y0012958D02*
X0089886Y0013959D01*
X0090386Y0014459D01*
X0090887Y0013959D01*
X0090887Y0012958D01*
X0091359Y0013208D02*
X0091609Y0012958D01*
X0092110Y0012958D01*
X0092360Y0013208D01*
X0092360Y0014459D01*
X0092832Y0014459D02*
X0093833Y0012958D01*
X0094306Y0012958D02*
X0095307Y0012958D01*
X0094806Y0012958D02*
X0094806Y0014459D01*
X0094306Y0013959D01*
X0093833Y0014459D02*
X0092832Y0012958D01*
X0091359Y0013208D02*
X0091359Y0014459D01*
X0090887Y0013709D02*
X0089886Y0013709D01*
X0083997Y0014302D02*
X0083997Y0013051D01*
X0083525Y0013802D02*
X0083024Y0014302D01*
X0082524Y0013802D01*
X0082524Y0012801D01*
X0097718Y0013115D02*
X0097718Y0014616D01*
X0098469Y0014616D01*
X0098719Y0014366D01*
X0098719Y0013865D01*
X0098469Y0013615D01*
X0097718Y0013615D01*
X0098218Y0013615D02*
X0098719Y0013115D01*
X0099191Y0013365D02*
X0099441Y0013115D01*
X0099942Y0013115D01*
X0100192Y0013365D01*
X0100192Y0013615D01*
X0099942Y0013865D01*
X0099441Y0013865D01*
X0099191Y0014115D01*
X0099191Y0014366D01*
X0099441Y0014616D01*
X0099942Y0014616D01*
X0100192Y0014366D01*
X0100664Y0014616D02*
X0101665Y0014616D01*
X0101165Y0014616D02*
X0101165Y0013115D01*
X0105863Y0014302D02*
X0106864Y0014302D01*
X0107337Y0014302D02*
X0108337Y0012801D01*
X0107337Y0012801D02*
X0108337Y0014302D01*
X0106364Y0014302D02*
X0106364Y0012801D01*
X0113225Y0013271D02*
X0113225Y0014773D01*
X0113976Y0014773D01*
X0114226Y0014522D01*
X0114226Y0014022D01*
X0113976Y0013772D01*
X0113225Y0013772D01*
X0113726Y0013772D02*
X0114226Y0013271D01*
X0114699Y0013271D02*
X0115700Y0014773D01*
X0114699Y0014773D02*
X0115700Y0013271D01*
X0115982Y0015738D02*
X0115982Y0017239D01*
X0116455Y0017239D02*
X0117205Y0017239D01*
X0117456Y0016989D01*
X0117456Y0015988D01*
X0117205Y0015738D01*
X0116455Y0015738D01*
X0116455Y0017239D01*
X0114981Y0017239D02*
X0115982Y0015738D01*
X0114981Y0015738D02*
X0114981Y0017239D01*
X0114509Y0016989D02*
X0114259Y0017239D01*
X0113758Y0017239D01*
X0113508Y0016989D01*
X0113508Y0015988D01*
X0113758Y0015738D01*
X0114259Y0015738D01*
X0114509Y0015988D01*
X0114509Y0016489D01*
X0114009Y0016489D01*
X0113600Y0023945D02*
X0113600Y0025446D01*
X0114351Y0025446D01*
X0114601Y0025196D01*
X0114601Y0024695D01*
X0114351Y0024445D01*
X0113600Y0024445D01*
X0113128Y0024445D02*
X0113128Y0024195D01*
X0112878Y0023945D01*
X0112127Y0023945D01*
X0112127Y0025446D01*
X0112878Y0025446D01*
X0113128Y0025196D01*
X0113128Y0024946D01*
X0112878Y0024695D01*
X0112127Y0024695D01*
X0111655Y0024695D02*
X0110654Y0024695D01*
X0110654Y0024946D02*
X0111154Y0025446D01*
X0111655Y0024946D01*
X0111655Y0023945D01*
X0110654Y0023945D02*
X0110654Y0024946D01*
X0112878Y0024695D02*
X0113128Y0024445D01*
X0114101Y0024445D02*
X0114601Y0023945D01*
X0115074Y0023945D02*
X0115074Y0025446D01*
X0115324Y0024695D02*
X0116075Y0023945D01*
X0116547Y0023945D02*
X0117548Y0023945D01*
X0116547Y0023945D02*
X0116547Y0025446D01*
X0116075Y0025446D02*
X0115074Y0024445D01*
X0115368Y0030617D02*
X0114868Y0031118D01*
X0115118Y0031118D02*
X0114367Y0031118D01*
X0113895Y0031118D02*
X0113895Y0030867D01*
X0113645Y0030617D01*
X0112894Y0030617D01*
X0112894Y0032118D01*
X0113645Y0032118D01*
X0113895Y0031868D01*
X0113895Y0031618D01*
X0113645Y0031368D01*
X0112894Y0031368D01*
X0112422Y0031618D02*
X0112171Y0031368D01*
X0111421Y0031368D01*
X0111421Y0032118D02*
X0112171Y0032118D01*
X0112422Y0031868D01*
X0112422Y0031618D01*
X0112171Y0031368D02*
X0112422Y0031118D01*
X0112422Y0030867D01*
X0112171Y0030617D01*
X0111421Y0030617D01*
X0111421Y0032118D01*
X0113645Y0031368D02*
X0113895Y0031118D01*
X0114367Y0030617D02*
X0114367Y0032118D01*
X0115118Y0032118D01*
X0115368Y0031868D01*
X0115368Y0031368D01*
X0115118Y0031118D01*
X0115841Y0031118D02*
X0116841Y0032118D01*
X0117314Y0032118D02*
X0117314Y0030617D01*
X0118315Y0030617D01*
X0116841Y0030617D02*
X0116091Y0031368D01*
X0115841Y0032118D02*
X0115841Y0030617D01*
X0115177Y0038517D02*
X0114427Y0038517D01*
X0114427Y0040019D01*
X0115177Y0040019D01*
X0115427Y0039768D01*
X0115427Y0039518D01*
X0115177Y0039268D01*
X0114427Y0039268D01*
X0115177Y0039268D02*
X0115427Y0039018D01*
X0115427Y0038767D01*
X0115177Y0038517D01*
X0115900Y0039268D02*
X0116901Y0039268D01*
X0117373Y0039018D02*
X0118124Y0039018D01*
X0118374Y0039268D01*
X0118374Y0039768D01*
X0118124Y0040019D01*
X0117373Y0040019D01*
X0117373Y0038517D01*
X0117873Y0039018D02*
X0118374Y0038517D01*
X0117974Y0046481D02*
X0118974Y0046481D01*
X0117974Y0046481D02*
X0117974Y0047983D01*
X0117501Y0047232D02*
X0116500Y0047232D01*
X0116028Y0047482D02*
X0115778Y0047232D01*
X0115027Y0047232D01*
X0115027Y0047983D02*
X0115778Y0047983D01*
X0116028Y0047732D01*
X0116028Y0047482D01*
X0115778Y0047232D02*
X0116028Y0046982D01*
X0116028Y0046732D01*
X0115778Y0046481D01*
X0115027Y0046481D01*
X0115027Y0047983D01*
X0110590Y0060680D02*
X0110090Y0060680D01*
X0109839Y0060931D01*
X0109839Y0061931D01*
X0110090Y0062182D01*
X0110590Y0062182D01*
X0110840Y0061931D01*
X0110840Y0060931D02*
X0110590Y0060680D01*
X0109367Y0060680D02*
X0109367Y0062182D01*
X0108366Y0062182D02*
X0108366Y0060680D01*
X0108867Y0061181D01*
X0109367Y0060680D01*
X0107894Y0060680D02*
X0107894Y0062182D01*
X0107894Y0061431D02*
X0106893Y0061431D01*
X0106420Y0061431D02*
X0105670Y0061431D01*
X0105420Y0061681D01*
X0105420Y0061931D01*
X0105670Y0062182D01*
X0106170Y0062182D01*
X0106420Y0061931D01*
X0106420Y0060931D01*
X0106170Y0060680D01*
X0105670Y0060680D01*
X0105420Y0060931D01*
X0104947Y0060931D02*
X0104947Y0061181D01*
X0104697Y0061431D01*
X0103946Y0061431D01*
X0103946Y0060931D01*
X0104197Y0060680D01*
X0104697Y0060680D01*
X0104947Y0060931D01*
X0104447Y0061931D02*
X0103946Y0061431D01*
X0104447Y0061931D02*
X0104947Y0062182D01*
X0104947Y0063080D02*
X0104947Y0064081D01*
X0104447Y0064582D01*
X0103946Y0064081D01*
X0103946Y0063080D01*
X0103474Y0063331D02*
X0103224Y0063080D01*
X0102723Y0063080D01*
X0102473Y0063331D01*
X0102473Y0064331D01*
X0102723Y0064582D01*
X0103224Y0064582D01*
X0103474Y0064331D01*
X0103946Y0063831D02*
X0104947Y0063831D01*
X0105420Y0063581D02*
X0106170Y0063581D01*
X0106420Y0063831D01*
X0106420Y0064331D01*
X0106170Y0064582D01*
X0105420Y0064582D01*
X0105420Y0063080D01*
X0105920Y0063581D02*
X0106420Y0063080D01*
X0106893Y0063831D02*
X0107894Y0063831D01*
X0108366Y0063581D02*
X0108867Y0063080D01*
X0109367Y0063581D01*
X0109367Y0064582D01*
X0109839Y0064331D02*
X0110090Y0064582D01*
X0110590Y0064582D01*
X0110840Y0064331D01*
X0110840Y0064081D01*
X0109839Y0063080D01*
X0110840Y0063080D01*
X0111313Y0063080D02*
X0111563Y0063080D01*
X0111563Y0063331D01*
X0111313Y0063331D01*
X0111313Y0063080D01*
X0112049Y0063331D02*
X0113050Y0064331D01*
X0113050Y0063331D01*
X0112800Y0063080D01*
X0112299Y0063080D01*
X0112049Y0063331D01*
X0112049Y0064331D01*
X0112299Y0064582D01*
X0112800Y0064582D01*
X0113050Y0064331D01*
X0108366Y0064582D02*
X0108366Y0063581D01*
X0106893Y0062182D02*
X0106893Y0060680D01*
X0103474Y0060680D02*
X0103474Y0062182D01*
X0102974Y0061681D01*
X0102473Y0062182D01*
X0102473Y0060680D01*
X0101500Y0061431D02*
X0101000Y0061431D01*
X0100527Y0061431D02*
X0100277Y0061181D01*
X0099527Y0061181D01*
X0100027Y0061181D02*
X0100527Y0060680D01*
X0101000Y0060680D02*
X0101000Y0062182D01*
X0102001Y0062182D01*
X0101750Y0063080D02*
X0102001Y0063331D01*
X0101750Y0063080D02*
X0101250Y0063080D01*
X0101000Y0063331D01*
X0101000Y0064331D01*
X0101250Y0064582D01*
X0101750Y0064582D01*
X0102001Y0064331D01*
X0100527Y0064331D02*
X0100527Y0063831D01*
X0100277Y0063581D01*
X0099527Y0063581D01*
X0100027Y0063581D02*
X0100527Y0063080D01*
X0100277Y0062182D02*
X0100527Y0061931D01*
X0100527Y0061431D01*
X0100277Y0062182D02*
X0099527Y0062182D01*
X0099527Y0060680D01*
X0099527Y0063080D02*
X0099527Y0064582D01*
X0100277Y0064582D01*
X0100527Y0064331D01*
X0100452Y0066874D02*
X0100452Y0068376D01*
X0099952Y0067875D01*
X0099480Y0067625D02*
X0099229Y0067375D01*
X0098479Y0067375D01*
X0098979Y0067375D02*
X0099480Y0066874D01*
X0099952Y0066874D02*
X0100953Y0066874D01*
X0101425Y0066874D02*
X0102426Y0066874D01*
X0101926Y0066874D02*
X0101926Y0068376D01*
X0101425Y0067875D01*
X0099480Y0068125D02*
X0099480Y0067625D01*
X0099480Y0068125D02*
X0099229Y0068376D01*
X0098479Y0068376D01*
X0098479Y0066874D01*
X0094184Y0066553D02*
X0093183Y0066553D01*
X0093183Y0065802D01*
X0093683Y0066052D01*
X0093933Y0066052D01*
X0094184Y0065802D01*
X0094184Y0065302D01*
X0093933Y0065051D01*
X0093433Y0065051D01*
X0093183Y0065302D01*
X0092710Y0065051D02*
X0091710Y0066553D01*
X0091237Y0066553D02*
X0091237Y0065302D01*
X0090987Y0065051D01*
X0090487Y0065051D01*
X0090236Y0065302D01*
X0090236Y0066553D01*
X0089764Y0066052D02*
X0089764Y0065051D01*
X0089764Y0065802D02*
X0088763Y0065802D01*
X0088763Y0066052D02*
X0089263Y0066553D01*
X0089764Y0066052D01*
X0088763Y0066052D02*
X0088763Y0065051D01*
X0086984Y0065302D02*
X0086984Y0065552D01*
X0086733Y0065802D01*
X0085983Y0065802D01*
X0085983Y0065302D01*
X0086233Y0065051D01*
X0086733Y0065051D01*
X0086984Y0065302D01*
X0086483Y0066302D02*
X0085983Y0065802D01*
X0086483Y0066302D02*
X0086984Y0066553D01*
X0085510Y0066553D02*
X0084510Y0065051D01*
X0084037Y0065302D02*
X0084037Y0066553D01*
X0084510Y0066553D02*
X0085510Y0065051D01*
X0084037Y0065302D02*
X0083787Y0065051D01*
X0083287Y0065051D01*
X0083036Y0065302D01*
X0083036Y0066553D01*
X0082564Y0066052D02*
X0082564Y0065051D01*
X0082564Y0065802D02*
X0081563Y0065802D01*
X0081563Y0066052D02*
X0082063Y0066553D01*
X0082564Y0066052D01*
X0081563Y0066052D02*
X0081563Y0065051D01*
X0073837Y0067702D02*
X0073837Y0067952D01*
X0073587Y0068202D01*
X0072836Y0068202D01*
X0072836Y0067702D01*
X0073087Y0067451D01*
X0073587Y0067451D01*
X0073837Y0067702D01*
X0073337Y0068702D02*
X0073837Y0068953D01*
X0073337Y0068702D02*
X0072836Y0068202D01*
X0072364Y0067702D02*
X0072364Y0068953D01*
X0071363Y0068953D02*
X0071363Y0067702D01*
X0071613Y0067451D01*
X0072114Y0067451D01*
X0072364Y0067702D01*
X0063348Y0071082D02*
X0062347Y0070082D01*
X0062347Y0069831D01*
X0061874Y0069831D02*
X0060874Y0069831D01*
X0060401Y0069831D02*
X0059901Y0070332D01*
X0060151Y0070332D02*
X0059400Y0070332D01*
X0059400Y0069831D02*
X0059400Y0071333D01*
X0060151Y0071333D01*
X0060401Y0071082D01*
X0060401Y0070582D01*
X0060151Y0070332D01*
X0060874Y0070832D02*
X0061374Y0071333D01*
X0061374Y0069831D01*
X0062347Y0071333D02*
X0063348Y0071333D01*
X0063348Y0071082D01*
X0062807Y0065712D02*
X0061806Y0065712D01*
X0061806Y0064961D01*
X0062306Y0065211D01*
X0062557Y0065211D01*
X0062807Y0064961D01*
X0062807Y0064461D01*
X0062557Y0064210D01*
X0062056Y0064210D01*
X0061806Y0064461D01*
X0061334Y0064210D02*
X0060333Y0064210D01*
X0059860Y0064210D02*
X0059360Y0064711D01*
X0059610Y0064711D02*
X0058859Y0064711D01*
X0058859Y0064210D02*
X0058859Y0065712D01*
X0059610Y0065712D01*
X0059860Y0065462D01*
X0059860Y0064961D01*
X0059610Y0064711D01*
X0060333Y0065211D02*
X0060833Y0065712D01*
X0060833Y0064210D01*
X0060751Y0058727D02*
X0061001Y0058476D01*
X0061001Y0057976D01*
X0060751Y0057726D01*
X0060000Y0057726D01*
X0060000Y0057225D02*
X0060000Y0058727D01*
X0060751Y0058727D01*
X0060501Y0057726D02*
X0061001Y0057225D01*
X0061474Y0057976D02*
X0062474Y0057976D01*
X0062224Y0057225D02*
X0062224Y0058727D01*
X0061474Y0057976D01*
X0061295Y0052625D02*
X0061295Y0051123D01*
X0060795Y0051123D02*
X0061796Y0051123D01*
X0062268Y0051374D02*
X0063269Y0052374D01*
X0063269Y0051374D01*
X0063019Y0051123D01*
X0062518Y0051123D01*
X0062268Y0051374D01*
X0062268Y0052374D01*
X0062518Y0052625D01*
X0063019Y0052625D01*
X0063269Y0052374D01*
X0061295Y0052625D02*
X0060795Y0052124D01*
X0060322Y0051874D02*
X0060072Y0051624D01*
X0059321Y0051624D01*
X0059321Y0051123D02*
X0059321Y0052625D01*
X0060072Y0052625D01*
X0060322Y0052374D01*
X0060322Y0051874D01*
X0059822Y0051624D02*
X0060322Y0051123D01*
X0059804Y0045332D02*
X0060054Y0045082D01*
X0060054Y0044831D01*
X0059804Y0044581D01*
X0060054Y0044331D01*
X0060054Y0044081D01*
X0059804Y0043831D01*
X0059304Y0043831D01*
X0059053Y0044081D01*
X0058581Y0044081D02*
X0058331Y0043831D01*
X0057830Y0043831D01*
X0057580Y0044081D01*
X0057580Y0045082D01*
X0057830Y0045332D01*
X0058331Y0045332D01*
X0058581Y0045082D01*
X0059053Y0045082D02*
X0059304Y0045332D01*
X0059804Y0045332D01*
X0059804Y0044581D02*
X0059554Y0044581D01*
X0046405Y0037821D02*
X0045404Y0037821D01*
X0045404Y0037070D01*
X0045905Y0037320D01*
X0046155Y0037320D01*
X0046405Y0037070D01*
X0046405Y0036570D01*
X0046155Y0036320D01*
X0045654Y0036320D01*
X0045404Y0036570D01*
X0044932Y0036320D02*
X0044431Y0036820D01*
X0044682Y0036820D02*
X0043931Y0036820D01*
X0043931Y0036320D02*
X0043931Y0037821D01*
X0044682Y0037821D01*
X0044932Y0037571D01*
X0044932Y0037070D01*
X0044682Y0036820D01*
X0044829Y0032652D02*
X0045079Y0032401D01*
X0045079Y0031901D01*
X0044829Y0031651D01*
X0044078Y0031651D01*
X0044578Y0031651D02*
X0045079Y0031150D01*
X0045551Y0031150D02*
X0046552Y0032151D01*
X0046552Y0032401D01*
X0046302Y0032652D01*
X0045801Y0032652D01*
X0045551Y0032401D01*
X0044829Y0032652D02*
X0044078Y0032652D01*
X0044078Y0031150D01*
X0045551Y0031150D02*
X0046552Y0031150D01*
X0041704Y0033732D02*
X0040703Y0033732D01*
X0041204Y0033232D02*
X0041204Y0034233D01*
X0040231Y0034483D02*
X0039230Y0034483D01*
X0039730Y0034483D02*
X0039730Y0032982D01*
X0038758Y0032982D02*
X0038758Y0033982D01*
X0038257Y0034483D01*
X0037757Y0033982D01*
X0037757Y0032982D01*
X0037284Y0033232D02*
X0037034Y0032982D01*
X0036283Y0032982D01*
X0036283Y0034483D01*
X0037034Y0034483D01*
X0037284Y0034233D01*
X0037284Y0033982D01*
X0037034Y0033732D01*
X0036283Y0033732D01*
X0037034Y0033732D02*
X0037284Y0033482D01*
X0037284Y0033232D01*
X0037757Y0033732D02*
X0038758Y0033732D01*
X0038616Y0027473D02*
X0039116Y0026972D01*
X0039116Y0025971D01*
X0039116Y0026722D02*
X0038115Y0026722D01*
X0038115Y0026972D02*
X0038616Y0027473D01*
X0038115Y0026972D02*
X0038115Y0025971D01*
X0037643Y0026221D02*
X0037393Y0025971D01*
X0036642Y0025971D01*
X0036642Y0027473D01*
X0037393Y0027473D01*
X0037643Y0027222D01*
X0037643Y0026972D01*
X0037393Y0026722D01*
X0036642Y0026722D01*
X0037393Y0026722D02*
X0037643Y0026472D01*
X0037643Y0026221D01*
X0039588Y0027473D02*
X0040589Y0027473D01*
X0040089Y0027473D02*
X0040089Y0025971D01*
X0041062Y0026722D02*
X0042062Y0026722D01*
X0041562Y0027222D02*
X0041562Y0026221D01*
X0057955Y0026826D02*
X0058205Y0026576D01*
X0058706Y0026576D01*
X0058956Y0026826D01*
X0059428Y0027327D02*
X0060429Y0027327D01*
X0060179Y0028077D02*
X0059428Y0027327D01*
X0058956Y0027827D02*
X0058706Y0028077D01*
X0058205Y0028077D01*
X0057955Y0027827D01*
X0057955Y0026826D01*
X0060179Y0026576D02*
X0060179Y0028077D01*
X0065876Y0028665D02*
X0066126Y0028414D01*
X0066626Y0028414D01*
X0066876Y0028665D01*
X0066876Y0029916D01*
X0067349Y0029665D02*
X0067599Y0029916D01*
X0068100Y0029916D01*
X0068350Y0029665D01*
X0068350Y0029415D01*
X0068100Y0029165D01*
X0068350Y0028915D01*
X0068350Y0028665D01*
X0068100Y0028414D01*
X0067599Y0028414D01*
X0067349Y0028665D01*
X0067849Y0029165D02*
X0068100Y0029165D01*
X0065876Y0028665D02*
X0065876Y0029916D01*
X0095018Y0023070D02*
X0095018Y0021569D01*
X0095018Y0022069D02*
X0095768Y0022069D01*
X0096019Y0022320D01*
X0096019Y0022820D01*
X0095768Y0023070D01*
X0095018Y0023070D01*
X0095518Y0022069D02*
X0096019Y0021569D01*
X0096491Y0021819D02*
X0096741Y0021569D01*
X0097242Y0021569D01*
X0097492Y0021819D01*
X0097492Y0022820D01*
X0097242Y0023070D01*
X0096741Y0023070D01*
X0096491Y0022820D01*
X0096491Y0022570D01*
X0096741Y0022320D01*
X0097492Y0022320D01*
X0041356Y0060856D02*
X0041356Y0061857D01*
X0041356Y0060856D02*
X0040856Y0060356D01*
X0040355Y0060856D01*
X0040355Y0061857D01*
X0039883Y0061607D02*
X0039883Y0061357D01*
X0039633Y0061107D01*
X0039883Y0060856D01*
X0039883Y0060606D01*
X0039633Y0060356D01*
X0039132Y0060356D01*
X0038882Y0060606D01*
X0038396Y0060606D02*
X0038396Y0060356D01*
X0038145Y0060356D01*
X0038145Y0060606D01*
X0038396Y0060606D01*
X0037673Y0060606D02*
X0037423Y0060356D01*
X0036922Y0060356D01*
X0036672Y0060606D01*
X0037172Y0061107D02*
X0037423Y0061107D01*
X0037673Y0060856D01*
X0037673Y0060606D01*
X0037423Y0061107D02*
X0037673Y0061357D01*
X0037673Y0061607D01*
X0037423Y0061857D01*
X0036922Y0061857D01*
X0036672Y0061607D01*
X0038882Y0061607D02*
X0039132Y0061857D01*
X0039633Y0061857D01*
X0039883Y0061607D01*
X0039633Y0061107D02*
X0039382Y0061107D01*
X0039157Y0067767D02*
X0039408Y0068017D01*
X0039408Y0069018D01*
X0039157Y0069268D01*
X0038407Y0069268D01*
X0038407Y0067767D01*
X0039157Y0067767D01*
X0039880Y0067767D02*
X0039880Y0069268D01*
X0040631Y0069268D01*
X0040881Y0069018D01*
X0040881Y0068517D01*
X0040631Y0068267D01*
X0039880Y0068267D01*
X0040380Y0068267D02*
X0040881Y0067767D01*
X0037934Y0067767D02*
X0036933Y0067767D01*
X0036933Y0069268D01*
X0036667Y0047799D02*
X0036918Y0047548D01*
X0036918Y0047298D01*
X0036667Y0047048D01*
X0036918Y0046798D01*
X0036918Y0046548D01*
X0036667Y0046297D01*
X0036167Y0046297D01*
X0035917Y0046548D01*
X0035444Y0046297D02*
X0034944Y0046798D01*
X0035194Y0046798D02*
X0034444Y0046798D01*
X0034444Y0046297D02*
X0034444Y0047799D01*
X0035194Y0047799D01*
X0035444Y0047548D01*
X0035444Y0047048D01*
X0035194Y0046798D01*
X0035917Y0047548D02*
X0036167Y0047799D01*
X0036667Y0047799D01*
X0036667Y0047048D02*
X0036417Y0047048D01*
X0091710Y0065051D02*
X0092710Y0066553D01*
X0116207Y0070768D02*
X0117208Y0070768D01*
X0117680Y0070768D02*
X0118180Y0070768D01*
X0117930Y0070768D02*
X0117930Y0072269D01*
X0117680Y0072269D02*
X0118180Y0072269D01*
X0118662Y0072019D02*
X0118662Y0071018D01*
X0118912Y0070768D01*
X0119413Y0070768D01*
X0119663Y0071018D01*
X0119663Y0071518D01*
X0119163Y0071518D01*
X0119663Y0072019D02*
X0119413Y0072269D01*
X0118912Y0072269D01*
X0118662Y0072019D01*
X0120135Y0072269D02*
X0120135Y0070768D01*
X0120135Y0071518D02*
X0121136Y0071518D01*
X0121136Y0070768D02*
X0121136Y0072269D01*
X0121609Y0072269D02*
X0122610Y0072269D01*
X0122109Y0072269D02*
X0122109Y0070768D01*
X0116207Y0070768D02*
X0116207Y0072269D01*
D11*
X0100626Y0071406D03*
X0052271Y0070984D03*
X0052333Y0064788D03*
X0052309Y0058264D03*
X0052103Y0051671D03*
X0052070Y0038367D03*
X0052162Y0032345D03*
X0052042Y0018783D03*
D12*
X0034439Y0018895D02*
X0028432Y0018895D01*
X0031435Y0015892D02*
X0031435Y0021898D01*
X0031823Y0023225D02*
X0031823Y0029232D01*
X0031862Y0030202D02*
X0031862Y0036208D01*
X0031156Y0038863D02*
X0031156Y0046618D01*
X0031827Y0050705D02*
X0031827Y0056711D01*
X0031727Y0058469D02*
X0031727Y0064476D01*
X0031733Y0065664D02*
X0031733Y0071670D01*
X0028730Y0068667D02*
X0034736Y0068667D01*
X0034731Y0061472D02*
X0028724Y0061472D01*
X0028823Y0053708D02*
X0034830Y0053708D01*
X0035034Y0042740D02*
X0027278Y0042740D01*
X0028859Y0033205D02*
X0034865Y0033205D01*
X0034827Y0026229D02*
X0028820Y0026229D01*
X0038564Y0022176D02*
X0046320Y0022176D01*
X0048164Y0018783D02*
X0055920Y0018783D01*
X0052042Y0014906D02*
X0052042Y0022661D01*
X0051775Y0022671D02*
X0051775Y0030216D01*
X0052162Y0028467D02*
X0052162Y0036223D01*
X0052070Y0034489D02*
X0052070Y0042245D01*
X0051894Y0040954D02*
X0051894Y0048500D01*
X0052103Y0047794D02*
X0052103Y0055549D01*
X0052309Y0054386D02*
X0052309Y0062142D01*
X0052333Y0060910D02*
X0052333Y0068666D01*
X0052271Y0067106D02*
X0052271Y0074861D01*
X0048393Y0070984D02*
X0056149Y0070984D01*
X0056210Y0064788D02*
X0048455Y0064788D01*
X0048431Y0058264D02*
X0056187Y0058264D01*
X0055980Y0051671D02*
X0048225Y0051671D01*
X0048122Y0044727D02*
X0055667Y0044727D01*
X0055948Y0038367D02*
X0048193Y0038367D01*
X0048284Y0032345D02*
X0056039Y0032345D01*
X0055548Y0026443D02*
X0048002Y0026443D01*
X0042442Y0026054D02*
X0042442Y0018298D01*
X0046560Y0011715D02*
X0046560Y0005708D01*
X0049563Y0008711D02*
X0043556Y0008711D01*
X0040526Y0008420D02*
X0032981Y0008420D01*
X0036753Y0012192D02*
X0036753Y0004647D01*
X0051545Y0008607D02*
X0057552Y0008607D01*
X0059176Y0008652D02*
X0065182Y0008652D01*
X0067147Y0008605D02*
X0073153Y0008605D01*
X0074975Y0008605D02*
X0080982Y0008605D01*
X0082673Y0008735D02*
X0088680Y0008735D01*
X0090575Y0008680D02*
X0096582Y0008680D01*
X0098524Y0008712D02*
X0104530Y0008712D01*
X0106599Y0008816D02*
X0112606Y0008816D01*
X0113599Y0008753D02*
X0119606Y0008753D01*
X0116603Y0011756D02*
X0116603Y0005749D01*
X0109603Y0005813D02*
X0109603Y0011819D01*
X0101527Y0011715D02*
X0101527Y0005708D01*
X0093578Y0005676D02*
X0093578Y0011683D01*
X0090252Y0017178D02*
X0090252Y0025178D01*
X0086252Y0021178D02*
X0094252Y0021178D01*
X0085676Y0011738D02*
X0085676Y0005732D01*
X0077978Y0005602D02*
X0077978Y0011608D01*
X0070150Y0011608D02*
X0070150Y0005602D01*
X0062179Y0005649D02*
X0062179Y0011655D01*
X0054548Y0011610D02*
X0054548Y0005603D01*
X0069294Y0023994D02*
X0069294Y0031994D01*
X0065294Y0027994D02*
X0073294Y0027994D01*
X0088388Y0041467D02*
X0088388Y0049467D01*
X0084388Y0045467D02*
X0092388Y0045467D01*
X0106740Y0040159D02*
X0114740Y0040159D01*
X0118547Y0039414D02*
X0124553Y0039414D01*
X0121550Y0036411D02*
X0121550Y0042417D01*
X0121550Y0043140D02*
X0121550Y0049147D01*
X0118547Y0046143D02*
X0124553Y0046143D01*
X0117550Y0055021D02*
X0117550Y0063021D01*
X0113550Y0059021D02*
X0121550Y0059021D01*
X0110761Y0067532D02*
X0110761Y0073539D01*
X0107758Y0070535D02*
X0113764Y0070535D01*
X0104503Y0071406D02*
X0096748Y0071406D01*
X0093482Y0070530D02*
X0087476Y0070530D01*
X0085982Y0070530D02*
X0079976Y0070530D01*
X0082979Y0067527D02*
X0082979Y0073534D01*
X0090479Y0073534D02*
X0090479Y0067527D01*
X0100626Y0067528D02*
X0100626Y0075284D01*
X0073131Y0065344D02*
X0065131Y0065344D01*
X0069131Y0061344D02*
X0069131Y0069344D01*
X0110740Y0044159D02*
X0110740Y0036159D01*
X0118547Y0032146D02*
X0124553Y0032146D01*
X0121550Y0029143D02*
X0121550Y0035149D01*
X0121514Y0027821D02*
X0121514Y0021815D01*
X0121811Y0020331D02*
X0121811Y0014324D01*
X0124814Y0017327D02*
X0118807Y0017327D01*
X0118511Y0024818D02*
X0124517Y0024818D01*
D13*
X0098388Y0035467D02*
X0098388Y0036667D01*
X0098388Y0035467D02*
X0097188Y0035467D01*
X0091288Y0032867D02*
X0091288Y0028867D01*
X0079588Y0035467D02*
X0078388Y0035467D01*
X0078388Y0036667D01*
X0075788Y0046467D02*
X0071788Y0046467D01*
X0078388Y0054267D02*
X0078388Y0055467D01*
X0079588Y0055467D01*
X0093288Y0058067D02*
X0093288Y0062067D01*
X0097188Y0055467D02*
X0098388Y0055467D01*
X0098388Y0054267D01*
X0053075Y0047089D02*
X0050713Y0047089D01*
X0050713Y0042365D02*
X0053075Y0042365D01*
X0052956Y0028806D02*
X0050594Y0028806D01*
X0050594Y0024081D02*
X0052956Y0024081D01*
X0037934Y0010782D02*
X0035572Y0010782D01*
X0035572Y0006058D02*
X0037934Y0006058D01*
D14*
X0042442Y0022176D03*
X0031156Y0042740D03*
D15*
X0063694Y0029685D02*
X0063694Y0026304D01*
X0068237Y0024804D02*
X0070350Y0024804D01*
X0074894Y0026304D02*
X0074894Y0029685D01*
X0070822Y0059744D02*
X0067441Y0059744D01*
X0065941Y0064288D02*
X0065941Y0066401D01*
X0067441Y0070944D02*
X0070822Y0070944D01*
X0115031Y0066418D02*
X0120149Y0066418D01*
X0120149Y0051655D02*
X0115031Y0051655D01*
D16*
X0104238Y0037633D02*
X0101102Y0034497D01*
X0101102Y0036065D02*
X0104238Y0036065D01*
X0104238Y0034497D02*
X0101102Y0037633D01*
X0102670Y0037633D02*
X0102670Y0034497D01*
M02*
